<?xml version="1.0" encoding="UTF-8" standalone="no"?>
<!-- Created with Inkscape (http://www.inkscape.org/) -->
<svg
   xmlns:dc="http://purl.org/dc/elements/1.1/"
   xmlns:cc="http://web.resource.org/cc/"
   xmlns:rdf="http://www.w3.org/1999/02/22-rdf-syntax-ns#"
   xmlns:svg="http://www.w3.org/2000/svg"
   xmlns="http://www.w3.org/2000/svg"
   xmlns:xlink="http://www.w3.org/1999/xlink"
   xmlns:sodipodi="http://inkscape.sourceforge.net/DTD/sodipodi-0.dtd"
   xmlns:inkscape="http://www.inkscape.org/namespaces/inkscape"
   width="48"
   height="48"
   id="svg2"
   sodipodi:version="0.32"
   inkscape:version="0.43"
   version="1.0"
   sodipodi:docbase="/home/silvestre/Desktop/Gion"
   sodipodi:docname="folder-remote.svg"
   inkscape:export-filename="/home/silvestre/Gion/folder-remote.png"
   inkscape:export-xdpi="90"
   inkscape:export-ydpi="90">
  <defs
     id="defs4">
    <linearGradient
       inkscape:collect="always"
       id="linearGradient2363">
      <stop
         style="stop-color:#000000;stop-opacity:1;"
         offset="0"
         id="stop2365" />
      <stop
         style="stop-color:#000000;stop-opacity:0;"
         offset="1"
         id="stop2367" />
    </linearGradient>
    <linearGradient
       inkscape:collect="always"
       id="linearGradient2350">
      <stop
         style="stop-color:#ffffff;stop-opacity:0.85407728"
         offset="0"
         id="stop2352" />
      <stop
         style="stop-color:#ffffff;stop-opacity:0;"
         offset="1"
         id="stop2354" />
    </linearGradient>
    <linearGradient
       id="linearGradient2338">
      <stop
         id="stop2340"
         offset="0"
         style="stop-color:#e6e6e6;stop-opacity:0;" />
      <stop
         style="stop-color:#e6e6e6;stop-opacity:1;"
         offset="0.1570248"
         id="stop2342" />
      <stop
         id="stop2344"
         offset="0.86363637"
         style="stop-color:#e6e6e6;stop-opacity:1;" />
      <stop
         id="stop2346"
         offset="1"
         style="stop-color:#e6e6e6;stop-opacity:0;" />
    </linearGradient>
    <linearGradient
       id="linearGradient2322">
      <stop
         style="stop-color:#adadad;stop-opacity:0;"
         offset="0"
         id="stop2324" />
      <stop
         id="stop2330"
         offset="0.1570248"
         style="stop-color:#adadad;stop-opacity:1;" />
      <stop
         style="stop-color:#adadad;stop-opacity:1;"
         offset="0.86363637"
         id="stop2332" />
      <stop
         style="stop-color:#adadad;stop-opacity:0;"
         offset="1"
         id="stop2326" />
    </linearGradient>
    <linearGradient
       id="linearGradient2291">
      <stop
         style="stop-color:#8c8c8c;stop-opacity:1;"
         offset="0"
         id="stop2293" />
      <stop
         id="stop2299"
         offset="0.5"
         style="stop-color:#dbdbdb;stop-opacity:1;" />
      <stop
         style="stop-color:#6f6f6f;stop-opacity:1;"
         offset="1"
         id="stop2295" />
    </linearGradient>
    <linearGradient
       id="linearGradient2272">
      <stop
         style="stop-color:#000000;stop-opacity:0;"
         offset="0"
         id="stop2274" />
      <stop
         id="stop2238"
         offset="0.47"
         style="stop-color:#000000;stop-opacity:0.16470588;" />
      <stop
         style="stop-color:#000000;stop-opacity:0.66666669;"
         offset="1"
         id="stop2276" />
    </linearGradient>
    <linearGradient
       inkscape:collect="always"
       id="linearGradient2240">
      <stop
         style="stop-color:#ffffff;stop-opacity:0.3004292"
         offset="0"
         id="stop2242" />
      <stop
         style="stop-color:#ffffff;stop-opacity:0;"
         offset="1"
         id="stop2244" />
    </linearGradient>
    <linearGradient
       inkscape:collect="always"
       id="linearGradient3104">
      <stop
         style="stop-color:#ffffff;stop-opacity:0.70980394"
         offset="0"
         id="stop3106" />
      <stop
         style="stop-color:#ffffff;stop-opacity:0.10729614"
         offset="1"
         id="stop3108" />
    </linearGradient>
    <linearGradient
       inkscape:collect="always"
       id="linearGradient3132">
      <stop
         style="stop-color:#636363;stop-opacity:1;"
         offset="0"
         id="stop3134" />
      <stop
         style="stop-color:#636363;stop-opacity:0;"
         offset="1"
         id="stop3136" />
    </linearGradient>
    <linearGradient
       inkscape:collect="always"
       id="linearGradient2211">
      <stop
         style="stop-color:#000000;stop-opacity:1;"
         offset="0"
         id="stop2213" />
      <stop
         style="stop-color:#000000;stop-opacity:0;"
         offset="1"
         id="stop2215" />
    </linearGradient>
    <linearGradient
       id="linearGradient2233">
      <stop
         style="stop-color:#ffffff;stop-opacity:0.84848487;"
         offset="0"
         id="stop2235" />
      <stop
         style="stop-color:#ffffff;stop-opacity:0.32323232;"
         offset="1"
         id="stop2237" />
    </linearGradient>
    <linearGradient
       inkscape:collect="always"
       id="linearGradient2223">
      <stop
         style="stop-color:#000000;stop-opacity:0.68240345"
         offset="0"
         id="stop2225" />
      <stop
         style="stop-color:#000000;stop-opacity:0;"
         offset="1"
         id="stop2227" />
    </linearGradient>
    <linearGradient
       id="linearGradient2196">
      <stop
         style="stop-color:#1475ce;stop-opacity:1;"
         offset="0"
         id="stop2198" />
      <stop
         style="stop-color:#1772c6;stop-opacity:0;"
         offset="1"
         id="stop2200" />
    </linearGradient>
    <linearGradient
       id="linearGradient2228">
      <stop
         style="stop-color:#898989;stop-opacity:1;"
         offset="0"
         id="stop2230" />
      <stop
         style="stop-color:#b2b2b2;stop-opacity:1;"
         offset="1"
         id="stop2232" />
    </linearGradient>
    <linearGradient
       inkscape:collect="always"
       xlink:href="#linearGradient2228"
       id="linearGradient2234"
       x1="34.39695"
       y1="4.1508341"
       x2="20.559042"
       y2="4.1508341"
       gradientUnits="userSpaceOnUse"
       gradientTransform="matrix(0.921296,0,0,0.928725,-6.254559,1.104305)" />
    <linearGradient
       inkscape:collect="always"
       xlink:href="#linearGradient2196"
       id="linearGradient2202"
       x1="11.856057"
       y1="34.258842"
       x2="13.001899"
       y2="34.258842"
       gradientUnits="userSpaceOnUse"
       gradientTransform="matrix(1.333333,0,0,0.928571,-10.33333,1.071429)" />
    <linearGradient
       inkscape:collect="always"
       xlink:href="#linearGradient2223"
       id="linearGradient2229"
       x1="22.563639"
       y1="22.793297"
       x2="14.300235"
       y2="22.793297"
       gradientUnits="userSpaceOnUse"
       gradientTransform="matrix(0.925454,0,0,0.933617,-6.454331,1.199148)" />
    <linearGradient
       inkscape:collect="always"
       xlink:href="#linearGradient2233"
       id="linearGradient2239"
       x1="17.697422"
       y1="2.6187558"
       x2="22.121777"
       y2="38.438679"
       gradientUnits="userSpaceOnUse"
       gradientTransform="matrix(0.918735,0,0,0.928038,-6.138115,1.052257)" />
    <radialGradient
       inkscape:collect="always"
       xlink:href="#linearGradient2211"
       id="radialGradient2217"
       cx="24.523569"
       cy="43.954876"
       fx="19.014454"
       fy="49.215107"
       r="22.501007"
       gradientTransform="matrix(1,0,0,0.174157,-4.817804e-16,36.29981)"
       gradientUnits="userSpaceOnUse" />
    <linearGradient
       inkscape:collect="always"
       xlink:href="#linearGradient3132"
       id="linearGradient3138"
       x1="11.292813"
       y1="27.083799"
       x2="8.5740976"
       y2="27.083799"
       gradientUnits="userSpaceOnUse" />
    <radialGradient
       inkscape:collect="always"
       xlink:href="#linearGradient2272"
       id="radialGradient1372"
       gradientUnits="userSpaceOnUse"
       gradientTransform="matrix(2.269526,3.525726e-16,-2.762291e-16,2.908744,-35.27978,-42.95346)"
       cx="24.026768"
       cy="20.767532"
       fx="24.026768"
       fy="20.767532"
       r="13.026767" />
    <radialGradient
       inkscape:collect="always"
       xlink:href="#linearGradient2240"
       id="radialGradient1374"
       gradientUnits="userSpaceOnUse"
       gradientTransform="matrix(0.959074,-1.451735e-18,-2.413824e-18,1.612845,-3.79381,-15.59879)"
       cx="24.651768"
       cy="19.102621"
       fx="24.651768"
       fy="19.102621"
       r="13.026767" />
    <linearGradient
       inkscape:collect="always"
       xlink:href="#linearGradient3104"
       id="linearGradient1376"
       gradientUnits="userSpaceOnUse"
       x1="17.718407"
       y1="10.078797"
       x2="24.218407"
       y2="43.104637"
       gradientTransform="matrix(0.921346,0,0,0.929593,-2.704428,1.254813)" />
    <linearGradient
       inkscape:collect="always"
       xlink:href="#linearGradient3132"
       id="linearGradient1371"
       gradientUnits="userSpaceOnUse"
       x1="11.292813"
       y1="27.083799"
       x2="8.5740976"
       y2="27.083799" />
    <linearGradient
       inkscape:collect="always"
       xlink:href="#linearGradient3132"
       id="linearGradient1373"
       gradientUnits="userSpaceOnUse"
       x1="11.292813"
       y1="27.083799"
       x2="8.5740976"
       y2="27.083799" />
    <linearGradient
       inkscape:collect="always"
       xlink:href="#linearGradient3132"
       id="linearGradient1375"
       gradientUnits="userSpaceOnUse"
       x1="11.292813"
       y1="27.083799"
       x2="8.5740976"
       y2="27.083799" />
    <linearGradient
       inkscape:collect="always"
       xlink:href="#linearGradient3132"
       id="linearGradient1377"
       gradientUnits="userSpaceOnUse"
       x1="11.292813"
       y1="27.083799"
       x2="8.5740976"
       y2="27.083799" />
    <linearGradient
       inkscape:collect="always"
       xlink:href="#linearGradient3132"
       id="linearGradient1379"
       gradientUnits="userSpaceOnUse"
       x1="11.292813"
       y1="27.083799"
       x2="8.5740976"
       y2="27.083799" />
    <linearGradient
       inkscape:collect="always"
       xlink:href="#linearGradient3132"
       id="linearGradient1381"
       gradientUnits="userSpaceOnUse"
       x1="11.292813"
       y1="27.083799"
       x2="8.5740976"
       y2="27.083799" />
    <linearGradient
       inkscape:collect="always"
       xlink:href="#linearGradient3132"
       id="linearGradient1383"
       gradientUnits="userSpaceOnUse"
       x1="11.292813"
       y1="27.083799"
       x2="8.5740976"
       y2="27.083799" />
    <linearGradient
       inkscape:collect="always"
       xlink:href="#linearGradient3132"
       id="linearGradient1385"
       gradientUnits="userSpaceOnUse"
       x1="11.292813"
       y1="27.083799"
       x2="8.5740976"
       y2="27.083799" />
    <linearGradient
       inkscape:collect="always"
       xlink:href="#linearGradient3132"
       id="linearGradient1387"
       gradientUnits="userSpaceOnUse"
       x1="11.292813"
       y1="27.083799"
       x2="8.5740976"
       y2="27.083799" />
    <linearGradient
       inkscape:collect="always"
       xlink:href="#linearGradient3132"
       id="linearGradient1389"
       gradientUnits="userSpaceOnUse"
       x1="11.292813"
       y1="27.083799"
       x2="8.5740976"
       y2="27.083799" />
    <linearGradient
       inkscape:collect="always"
       xlink:href="#linearGradient3132"
       id="linearGradient1391"
       gradientUnits="userSpaceOnUse"
       x1="11.292813"
       y1="27.083799"
       x2="8.5740976"
       y2="27.083799" />
    <linearGradient
       inkscape:collect="always"
       xlink:href="#linearGradient3132"
       id="linearGradient1393"
       gradientUnits="userSpaceOnUse"
       x1="11.292813"
       y1="27.083799"
       x2="8.5740976"
       y2="27.083799" />
    <linearGradient
       inkscape:collect="always"
       xlink:href="#linearGradient2291"
       id="linearGradient2297"
       x1="45.078808"
       y1="22.013826"
       x2="39.862206"
       y2="22.013826"
       gradientUnits="userSpaceOnUse"
       gradientTransform="translate(1,0)" />
    <linearGradient
       inkscape:collect="always"
       xlink:href="#linearGradient2322"
       id="linearGradient2328"
       x1="43.875"
       y1="2.9947853"
       x2="43.875"
       y2="43.001759"
       gradientUnits="userSpaceOnUse"
       gradientTransform="translate(1,0)" />
    <linearGradient
       inkscape:collect="always"
       xlink:href="#linearGradient2338"
       id="linearGradient2336"
       gradientUnits="userSpaceOnUse"
       x1="43.875"
       y1="2.9947853"
       x2="43.875"
       y2="43.001759"
       gradientTransform="matrix(0.4,0,0,1,26.6,0)" />
    <linearGradient
       inkscape:collect="always"
       xlink:href="#linearGradient2350"
       id="linearGradient2356"
       x1="39.50959"
       y1="17.858757"
       x2="39.50959"
       y2="22.996201"
       gradientUnits="userSpaceOnUse" />
    <linearGradient
       inkscape:collect="always"
       xlink:href="#linearGradient2363"
       id="linearGradient2369"
       x1="36.999077"
       y1="23.074486"
       x2="40.001789"
       y2="23.074486"
       gradientUnits="userSpaceOnUse" />
  </defs>
  <sodipodi:namedview
     id="base"
     pagecolor="#ffffff"
     bordercolor="#666666"
     borderopacity="1.0"
     inkscape:pageopacity="0.0"
     inkscape:pageshadow="2"
     inkscape:zoom="1"
     inkscape:cx="44.733541"
     inkscape:cy="23.323877"
     inkscape:document-units="px"
     inkscape:current-layer="layer4"
     showgrid="false"
     inkscape:grid-bbox="true"
     inkscape:window-width="889"
     inkscape:window-height="582"
     inkscape:window-x="12"
     inkscape:window-y="67"
     showguides="true"
     inkscape:guide-bbox="true"
     showborder="false"
     inkscape:showpageshadow="false" />
  <metadata
     id="metadata7">
    <rdf:RDF>
      <cc:Work
         rdf:about="">
        <dc:format>image/svg+xml</dc:format>
        <dc:type
           rdf:resource="http://purl.org/dc/dcmitype/StillImage" />
        <dc:title>Folder remote</dc:title>
        <dc:creator>
          <cc:Agent>
            <dc:title>Silvestre Herrera</dc:title>
          </cc:Agent>
        </dc:creator>
        <dc:subject>
          <rdf:Bag />
        </dc:subject>
        <cc:license
           rdf:resource="http://creativecommons.org/licenses/GPL/2.0/" />
      </cc:Work>
      <cc:License
         rdf:about="http://creativecommons.org/licenses/GPL/2.0/">
        <cc:permits
           rdf:resource="http://web.resource.org/cc/Reproduction" />
        <cc:permits
           rdf:resource="http://web.resource.org/cc/Distribution" />
        <cc:requires
           rdf:resource="http://web.resource.org/cc/Notice" />
        <cc:permits
           rdf:resource="http://web.resource.org/cc/DerivativeWorks" />
        <cc:requires
           rdf:resource="http://web.resource.org/cc/ShareAlike" />
        <cc:requires
           rdf:resource="http://web.resource.org/cc/SourceCode" />
      </cc:License>
    </rdf:RDF>
  </metadata>
  <g
     inkscape:label="back-folder"
     inkscape:groupmode="layer"
     id="layer1"
     sodipodi:insensitive="true">
    <path
       sodipodi:type="arc"
       style="opacity:0.77922076;fill:url(#radialGradient2217);fill-opacity:1;stroke:none;stroke-width:1;stroke-linecap:round;stroke-linejoin:round;stroke-miterlimit:4;stroke-dasharray:none;stroke-dashoffset:0;stroke-opacity:1"
       id="path1336"
       sodipodi:cx="24.523569"
       sodipodi:cy="43.954876"
       sodipodi:rx="22.501007"
       sodipodi:ry="3.9187145"
       d="M 47.024576 43.954876 A 22.501007 3.9187145 0 1 1  2.022562,43.954876 A 22.501007 3.9187145 0 1 1  47.024576 43.954876 z"
       transform="matrix(0.864029,0,0,1.548599,-1.747553,-28.12422)" />
    <path
       style="fill:url(#linearGradient2234);fill-opacity:1;fill-rule:evenodd;stroke:#636363;stroke-width:0.99999964px;stroke-linecap:butt;stroke-linejoin:round;stroke-opacity:1"
       d="M 37.507006,2.4973882 C 30.389868,3.8297223 15.967732,4.6227152 5.2681325,4.3476581 L 5.2681325,27.571493 L 2.497754,27.571493 L 2.497754,41.446759 C 15.226686,41.576454 27.95054,41.701938 37.507006,39.201838 L 37.507006,2.4973882 z "
       id="path1307"
       sodipodi:nodetypes="ccccccc" />
    <path
       style="fill:url(#linearGradient2229);fill-opacity:1;fill-rule:evenodd;stroke:none;stroke-width:0.99999958px;stroke-linecap:butt;stroke-linejoin:round;stroke-opacity:1"
       d="M 35.480318,4 C 32.127646,8.5925351 18.139478,9.6123317 6.4915902,10.681199 L 6.4915902,42.278308 C 6.499985,42.278209 6.5214972,42.278308 6.5214972,42.278308 L 11.496381,46.03364 L 32.280262,42.278308 C 32.431833,42.278308 32.587435,42.306306 32.728868,42.336659 C 32.744582,42.340032 32.74321,42.332935 32.758774,42.336659 C 33.317248,41.983142 33.814661,41.590804 34.224221,41.169637 L 35.480318,4 z "
       id="path2236"
       sodipodi:nodetypes="ccccccsscc" />
    <rect
       style="opacity:0.58008656;fill:url(#linearGradient2202);fill-opacity:1;stroke:none;stroke-width:1;stroke-linecap:round;stroke-linejoin:round;stroke-miterlimit:4;stroke-dasharray:none;stroke-dashoffset:0;stroke-opacity:1"
       id="rect2194"
       width="4"
       height="13"
       x="3"
       y="28" />
    <path
       style="fill:none;fill-opacity:1;fill-rule:evenodd;stroke:url(#linearGradient2239);stroke-width:0.99999946px;stroke-linecap:butt;stroke-linejoin:round;stroke-opacity:1"
       d="M 36.607099,3.4970321 C 29.875916,4.7661148 16.383442,5.475835 6.264072,5.213836 L 6.264072,28.436585 L 3.4963681,28.436585 L 3.4963681,40.45067 C 15.535022,40.574209 27.56887,40.693735 36.607099,38.312326 L 36.607099,3.4970321 z "
       id="path2231"
       sodipodi:nodetypes="ccccccc" />
    <g
       id="g3118"
       style="opacity:0.18614717;fill-opacity:1;stroke:url(#linearGradient3138)"
       transform="matrix(0.925454,0,0,0.933617,-2.769367,1.199148)">
      <path
         sodipodi:nodetypes="cc"
         id="path3092"
         d="M 9.5147102,6.4664942 C 24.575507,6.6445419 34.622174,5.7153718 43.492644,4.5264746"
         style="fill:none;fill-opacity:1;fill-rule:evenodd;stroke:url(#linearGradient1371);stroke-width:1.07581604px;stroke-linecap:butt;stroke-linejoin:miter;stroke-opacity:1" />
      <path
         style="fill:none;fill-opacity:1;fill-rule:evenodd;stroke:url(#linearGradient1373);stroke-width:1.07581604px;stroke-linecap:butt;stroke-linejoin:miter;stroke-opacity:1"
         d="M 9.4999999,9.4400195 C 24.560797,9.6180672 34.607464,8.6888971 43.477934,7.4999999"
         id="path3096"
         sodipodi:nodetypes="cc" />
      <path
         style="fill:none;fill-opacity:1;fill-rule:evenodd;stroke:url(#linearGradient1375);stroke-width:1.07581604px;stroke-linecap:butt;stroke-linejoin:miter;stroke-opacity:1"
         d="M 9.5147102,12.440019 C 24.575507,12.618067 34.622174,11.688897 43.492644,10.5"
         id="path3098"
         sodipodi:nodetypes="cc" />
      <path
         style="fill:none;fill-opacity:1;fill-rule:evenodd;stroke:url(#linearGradient1377);stroke-width:1.07581604px;stroke-linecap:butt;stroke-linejoin:miter;stroke-opacity:1"
         d="M 9.5147102,15.440019 C 24.575507,15.618067 34.622174,14.688897 43.492644,13.5"
         id="path3100"
         sodipodi:nodetypes="cc" />
      <path
         style="fill:none;fill-opacity:1;fill-rule:evenodd;stroke:url(#linearGradient1379);stroke-width:1.07581604px;stroke-linecap:butt;stroke-linejoin:miter;stroke-opacity:1"
         d="M 9.5147102,18.440019 C 24.575507,18.618067 34.622174,17.688897 43.492644,16.5"
         id="path3102"
         sodipodi:nodetypes="cc" />
      <path
         style="fill:none;fill-opacity:1;fill-rule:evenodd;stroke:url(#linearGradient1381);stroke-width:1.07581604px;stroke-linecap:butt;stroke-linejoin:miter;stroke-opacity:1"
         d="M 9.5147102,21.440019 C 24.575507,21.618067 34.622174,20.688897 43.492644,19.5"
         id="path3104"
         sodipodi:nodetypes="cc" />
      <path
         style="fill:none;fill-opacity:1;fill-rule:evenodd;stroke:url(#linearGradient1383);stroke-width:1.07581604px;stroke-linecap:butt;stroke-linejoin:miter;stroke-opacity:1"
         d="M 9.5147102,24.478064 C 24.575507,24.656112 34.622174,23.726942 43.492644,22.538045"
         id="path3106"
         sodipodi:nodetypes="cc" />
      <path
         style="fill:none;fill-opacity:1;fill-rule:evenodd;stroke:url(#linearGradient1385);stroke-width:1.07581604px;stroke-linecap:butt;stroke-linejoin:miter;stroke-opacity:1"
         d="M 9.5147102,27.478064 C 24.575507,27.656112 34.622174,26.726942 43.492644,25.538045"
         id="path3108"
         sodipodi:nodetypes="cc" />
      <path
         style="fill:none;fill-opacity:1;fill-rule:evenodd;stroke:url(#linearGradient1387);stroke-width:1.07581604px;stroke-linecap:butt;stroke-linejoin:miter;stroke-opacity:1"
         d="M 5.5075372,30.903706 C 22.319088,31.081754 33.533639,30.152584 43.435264,28.963687"
         id="path3110"
         sodipodi:nodetypes="cc" />
      <path
         style="fill:none;fill-opacity:1;fill-rule:evenodd;stroke:url(#linearGradient1389);stroke-width:1.07581592px;stroke-linecap:butt;stroke-linejoin:miter;stroke-opacity:1"
         d="M 5.5573856,33.478064 C 22.346831,33.656112 33.546634,32.726942 43.435239,31.538045"
         id="path3112"
         sodipodi:nodetypes="cc" />
      <path
         style="fill:none;fill-opacity:1;fill-rule:evenodd;stroke:url(#linearGradient1391);stroke-width:1.07581592px;stroke-linecap:butt;stroke-linejoin:miter;stroke-opacity:1"
         d="M 5.5573856,36.440019 C 22.346831,36.618067 33.546634,35.688897 43.435239,34.5"
         id="path3114"
         sodipodi:nodetypes="cc" />
      <path
         sodipodi:nodetypes="cc"
         id="path3094"
         d="M 5.5573856,39.440019 C 22.346831,39.618067 33.546634,38.688897 43.435239,37.5"
         style="fill:none;fill-opacity:1;fill-rule:evenodd;stroke:url(#linearGradient1393);stroke-width:1.07581592px;stroke-linecap:butt;stroke-linejoin:miter;stroke-opacity:1" />
    </g>
    <g
       id="g3126"
       transform="translate(-2.992441,4)">
      <path
         style="font-size:12px;font-style:normal;font-weight:normal;line-height:125%;fill:#000000;fill-opacity:1;stroke:none;stroke-width:1px;stroke-linecap:butt;stroke-linejoin:miter;stroke-opacity:1;font-family:Bitstream Vera Sans"
         d="M 7.4375,55.03125 L 7.4375,61.09375 L 8.8125,61.09375 L 8.8125,55.03125 L 7.4375,55.03125 z M 13.15625,55.03125 L 13.15625,57.375 C 12.963538,57.119796 12.734371,56.932296 12.5,56.8125 C 12.268226,56.690109 12.020831,56.625004 11.71875,56.625 C 11.179686,56.625004 10.721353,56.851567 10.375,57.28125 C 10.028646,57.708337 9.8749997,58.231773 9.875,58.90625 C 9.875,59.58073 10.028646,60.132813 10.375,60.5625 C 10.721353,60.989583 11.179686,61.21875 11.71875,61.21875 C 12.023435,61.21875 12.268226,61.151042 12.5,61.03125 C 12.731768,60.911459 12.963538,60.726563 13.15625,60.46875 L 13.15625,61.09375 L 14.5625,61.09375 L 14.5625,55.03125 L 13.15625,55.03125 z M -3.46875,55.28125 L -3.46875,61.09375 L -1.96875,61.09375 L -1.96875,58.625 L 0.4375,58.625 L 0.4375,57.5 L -1.96875,57.5 L -1.96875,56.40625 L 0.5625,56.40625 L 0.5625,55.28125 L -3.46875,55.28125 z M 51.78125,55.46875 L 51.78125,56.6875 L 51.09375,56.6875 L 51.09375,57.6875 L 51.78125,57.6875 L 51.78125,59.5625 C 51.781249,60.097331 51.909931,60.484525 52.125,60.71875 C 52.356769,60.947917 52.760415,61.0625 53.3125,61.0625 L 54.5,61.0625 L 54.5,60.0625 L 53.78125,60.0625 C 53.601561,60.062501 53.465331,60.039551 53.375,60 C 53.354279,59.989288 53.327636,59.981934 53.3125,59.96875 C 53.241545,59.892763 53.187498,59.752931 53.1875,59.5625 L 53.1875,57.6875 L 54.625,57.6875 L 54.625,56.6875 L 53.1875,56.6875 L 53.1875,55.46875 L 51.78125,55.46875 z M 31.0625,56.59375 C 30.835448,56.618654 30.613279,56.681644 30.4375,56.78125 C 30.205727,56.911462 29.992185,57.119795 29.8125,57.40625 L 29.8125,56.6875 L 28.4375,56.6875 L 28.4375,61.0625 L 29.8125,61.0625 L 29.8125,59.0625 C 29.812498,58.740236 29.891601,58.459474 30,58.25 C 30.032934,58.190274 30.082845,58.112631 30.125,58.0625 C 30.137527,58.048467 30.174332,58.013127 30.1875,58 C 30.200989,57.987325 30.23587,57.949269 30.25,57.9375 C 30.29335,57.90355 30.357132,57.869552 30.40625,57.84375 C 30.556488,57.770417 30.73535,57.718752 30.9375,57.71875 C 31.059892,57.718754 31.192705,57.721358 31.3125,57.75 C 31.434892,57.776045 31.5651,57.817712 31.6875,57.875 L 31.6875,56.625 C 31.58333,56.611984 31.492184,56.596359 31.4375,56.59375 C 31.382809,56.588547 31.328122,56.593754 31.28125,56.59375 C 31.199869,56.593751 31.138184,56.585449 31.0625,56.59375 z M 34.125,56.59375 C 33.530364,56.647654 33.052245,56.873783 32.6875,57.21875 C 32.257812,57.627608 32.0625,58.161461 32.0625,58.875 C 32.062499,59.601564 32.28125,60.190106 32.71875,60.59375 C 33.158852,60.994791 33.770831,61.1875 34.5625,61.1875 C 34.893226,61.1875 35.231768,61.158854 35.5625,61.09375 C 35.893225,61.03125 36.200516,60.9375 36.53125,60.8125 L 36.53125,59.71875 C 36.205724,59.895834 35.903641,60.03646 35.59375,60.125 C 35.286455,60.210939 34.981768,60.25 34.6875,60.25 C 34.505207,60.25 34.329427,60.228515 34.1875,60.1875 C 34.152649,60.176605 34.094828,60.169708 34.0625,60.15625 C 34.038727,60.145676 33.991104,60.105766 33.96875,60.09375 C 33.954163,60.085419 33.920207,60.071472 33.90625,60.0625 C 33.885788,60.048561 33.862793,60.015381 33.84375,60 C 33.818359,59.979492 33.772746,59.960571 33.75,59.9375 C 33.744479,59.931572 33.724106,59.912338 33.71875,59.90625 C 33.677225,59.856262 33.624695,59.778992 33.59375,59.71875 C 33.553019,59.634155 33.520729,59.510231 33.5,59.40625 C 33.493124,59.367798 33.472982,59.322266 33.46875,59.28125 L 36.75,59.28125 L 36.75,58.875 C 36.749995,58.182295 36.539058,57.632816 36.125,57.21875 C 35.713538,56.804692 35.156246,56.593754 34.46875,56.59375 C 34.350748,56.593751 34.235118,56.583768 34.125,56.59375 z M 40.34375,56.59375 C 40.150878,56.617189 39.980466,56.687503 39.8125,56.78125 C 39.591143,56.906254 39.390623,57.096358 39.21875,57.34375 L 39.21875,56.6875 L 37.8125,56.6875 L 37.8125,61.0625 L 39.21875,61.0625 L 39.21875,58.9375 C 39.218748,58.566978 39.286477,58.245646 39.40625,58.03125 C 39.414795,58.016835 39.428385,57.982422 39.4375,57.96875 C 39.484268,57.901739 39.566279,57.826645 39.625,57.78125 C 39.630992,57.776927 39.650139,57.754107 39.65625,57.75 C 39.681173,57.734436 39.723165,57.730855 39.75,57.71875 C 39.763657,57.71313 39.798365,57.692256 39.8125,57.6875 C 39.834061,57.681015 39.883613,57.66079 39.90625,57.65625 C 39.929245,57.652359 39.975929,57.658196 40,57.65625 C 40.016286,57.655385 40.045736,57.65625 40.0625,57.65625 C 40.142577,57.656251 40.219483,57.667724 40.28125,57.6875 C 40.28627,57.689285 40.307607,57.685577 40.3125,57.6875 C 40.322032,57.69162 40.334727,57.714081 40.34375,57.71875 C 40.348134,57.721222 40.370743,57.716141 40.375,57.71875 C 40.37913,57.721497 40.402247,57.747116 40.40625,57.75 C 40.409999,57.753159 40.433879,57.777954 40.4375,57.78125 C 40.440867,57.78482 40.46551,57.808792 40.46875,57.8125 C 40.471736,57.816482 40.497141,57.83963 40.5,57.84375 C 40.502731,57.848007 40.497396,57.870606 40.5,57.875 C 40.505045,57.884303 40.52653,57.895594 40.53125,57.90625 C 40.59505,58.064903 40.624997,58.357425 40.625,58.78125 L 40.625,61.0625 L 42.03125,61.0625 L 42.03125,58.9375 C 42.034503,58.678713 42.06783,58.432496 42.125,58.25 C 42.136973,58.214264 42.17337,58.157685 42.1875,58.125 C 42.198502,58.101059 42.206535,58.053475 42.21875,58.03125 C 42.227163,58.016815 42.241048,57.982422 42.25,57.96875 C 42.263671,57.948243 42.297776,57.924835 42.3125,57.90625 C 42.317525,57.900269 42.338608,57.880768 42.34375,57.875 C 42.349009,57.869446 42.369624,57.84909 42.375,57.84375 C 42.380493,57.838623 42.40064,57.817413 42.40625,57.8125 C 42.411977,57.8078 42.431656,57.785736 42.4375,57.78125 C 42.443461,57.776978 42.462672,57.754059 42.46875,57.75 C 42.48114,57.74231 42.518392,57.725586 42.53125,57.71875 C 42.544342,57.712341 42.58019,57.693054 42.59375,57.6875 C 42.607544,57.682373 42.641988,57.691773 42.65625,57.6875 C 42.670746,57.683655 42.703786,57.659241 42.71875,57.65625 C 42.741547,57.652405 42.78865,57.658173 42.8125,57.65625 C 42.828634,57.655395 42.858398,57.65625 42.875,57.65625 C 42.963865,57.656251 43.057567,57.660583 43.125,57.6875 C 43.129598,57.689697 43.151761,57.716415 43.15625,57.71875 C 43.160629,57.721222 43.18323,57.716141 43.1875,57.71875 C 43.195821,57.724243 43.210866,57.743958 43.21875,57.75 C 43.222583,57.753159 43.246277,57.777954 43.25,57.78125 C 43.253505,57.78482 43.277855,57.808792 43.28125,57.8125 C 43.284427,57.816482 43.309433,57.83963 43.3125,57.84375 C 43.315458,57.848007 43.309651,57.870606 43.3125,57.875 C 43.40364,58.013024 43.437494,58.221357 43.4375,58.53125 C 43.437494,58.598961 43.440098,58.651044 43.4375,58.6875 C 43.437495,58.714846 43.438962,58.755372 43.4375,58.78125 L 43.4375,61.0625 L 44.84375,61.0625 L 44.84375,58.40625 C 44.843743,57.815108 44.731764,57.372399 44.46875,57.0625 C 44.205722,56.752608 43.815097,56.593754 43.3125,56.59375 C 43.020827,56.593754 42.744786,56.669275 42.5,56.8125 C 42.257808,56.953129 42.052078,57.166671 41.875,57.4375 C 41.755204,57.174483 41.575517,56.958337 41.34375,56.8125 C 41.111975,56.666671 40.86458,56.593754 40.5625,56.59375 C 40.495442,56.593751 40.408041,56.585937 40.34375,56.59375 z M 47.90625,56.59375 C 47.3123,56.647311 46.8291,56.84473 46.46875,57.1875 C 46.044271,57.593753 45.84375,58.156253 45.84375,58.875 C 45.843749,59.593751 46.044271,60.156251 46.46875,60.5625 C 46.895832,60.96875 47.494789,61.1875 48.25,61.1875 C 49.0026,61.1875 49.57812,60.96875 50,60.5625 C 50.424475,60.156251 50.656245,59.593751 50.65625,58.875 C 50.656245,58.156253 50.424475,57.593753 50,57.1875 C 49.578121,56.781254 49.0026,56.593754 48.25,56.59375 C 48.131998,56.593751 48.016241,56.583831 47.90625,56.59375 z M 57.25,56.59375 C 56.655364,56.647654 56.177245,56.873783 55.8125,57.21875 C 55.382812,57.627608 55.15625,58.161461 55.15625,58.875 C 55.15625,59.601564 55.375,60.190106 55.8125,60.59375 C 56.252603,60.994791 56.864581,61.1875 57.65625,61.1875 C 57.986976,61.1875 58.325518,61.158854 58.65625,61.09375 C 58.986975,61.03125 59.325516,60.9375 59.65625,60.8125 L 59.65625,59.71875 C 59.330724,59.895834 58.997391,60.03646 58.6875,60.125 C 58.380205,60.210939 58.106768,60.25 57.8125,60.25 C 57.67578,60.25 57.520264,60.241821 57.40625,60.21875 C 57.350189,60.206253 57.269134,60.174515 57.21875,60.15625 C 57.194031,60.146637 57.1483,60.136055 57.125,60.125 C 57.079346,60.101929 57.008728,60.060089 56.96875,60.03125 C 56.962245,60.026283 56.943848,60.005127 56.9375,60 C 56.888041,59.957703 56.82013,59.896301 56.78125,59.84375 C 56.771861,59.830292 56.758728,59.795349 56.75,59.78125 C 56.741603,59.76683 56.726486,59.73381 56.71875,59.71875 C 56.703939,59.687988 56.668416,59.627075 56.65625,59.59375 C 56.624611,59.500343 56.605387,59.394043 56.59375,59.28125 L 59.875,59.28125 L 59.875,58.875 C 59.874995,58.182295 59.664058,57.632816 59.25,57.21875 C 58.838538,56.804692 58.281246,56.593754 57.59375,56.59375 C 57.475748,56.593751 57.360118,56.583768 57.25,56.59375 z M 3.65625,56.625 C 3.0623006,56.678561 2.5791003,56.87598 2.21875,57.21875 C 1.7942702,57.625003 1.5937497,58.187503 1.59375,58.90625 C 1.5937497,59.625001 1.7942702,60.187501 2.21875,60.59375 C 2.6458319,61 3.2447896,61.21875 4,61.21875 C 4.7526006,61.21875 5.3593708,61 5.78125,60.59375 C 6.2057242,60.187501 6.4062448,59.625001 6.40625,58.90625 C 6.4062448,58.187503 6.2057241,57.625003 5.78125,57.21875 C 5.3593709,56.812504 4.7526006,56.625004 4,56.625 C 3.8819984,56.625001 3.7662406,56.615081 3.65625,56.625 z M 17.65625,56.625 C 17.061614,56.678904 16.583496,56.905033 16.21875,57.25 C 15.789062,57.658858 15.59375,58.192711 15.59375,58.90625 C 15.59375,59.632814 15.812501,60.221355 16.25,60.625 C 16.690103,61.026042 17.302082,61.21875 18.09375,61.21875 C 18.424476,61.21875 18.731768,61.190105 19.0625,61.125 C 19.393225,61.062501 19.731767,60.968751 20.0625,60.84375 L 20.0625,59.75 C 19.736975,59.927085 19.434892,60.067709 19.125,60.15625 C 18.817705,60.242188 18.513016,60.281251 18.21875,60.28125 C 18.025064,60.281251 17.835617,60.265053 17.6875,60.21875 C 17.65328,60.207214 17.594198,60.170349 17.5625,60.15625 C 17.5392,60.145195 17.490631,60.137497 17.46875,60.125 C 17.43307,60.103371 17.406738,60.056885 17.375,60.03125 C 17.362305,60.020996 17.324534,60.010895 17.3125,60 C 17.306648,59.994392 17.286936,59.974518 17.28125,59.96875 C 17.242602,59.927254 17.186798,59.861847 17.15625,59.8125 C 17.093269,59.704354 17.057037,59.550446 17.03125,59.40625 C 17.026589,59.37693 17.003174,59.343262 17,59.3125 L 20.28125,59.3125 L 20.28125,58.90625 C 20.281245,58.213544 20.070309,57.664066 19.65625,57.25 C 19.244788,56.835942 18.687497,56.625004 18,56.625 C 17.881998,56.625001 17.766368,56.615018 17.65625,56.625 z M 23.96875,56.625 C 23.741698,56.649904 23.55078,56.712894 23.375,56.8125 C 23.143227,56.942713 22.929684,57.151046 22.75,57.4375 L 22.75,56.71875 L 21.34375,56.71875 L 21.34375,61.09375 L 22.75,61.09375 L 22.75,59.09375 C 22.749998,58.664065 22.838541,58.32292 23.03125,58.09375 C 23.037353,58.086507 23.056236,58.069516 23.0625,58.0625 C 23.113891,58.00818 23.188355,57.946085 23.25,57.90625 C 23.281464,57.887238 23.340973,57.859141 23.375,57.84375 C 23.513672,57.785807 23.695312,57.750002 23.875,57.75 C 23.997393,57.750003 24.098954,57.752607 24.21875,57.78125 C 24.341142,57.807295 24.471352,57.848961 24.59375,57.90625 L 24.59375,56.65625 C 24.489579,56.643233 24.398432,56.627609 24.34375,56.625 C 24.289059,56.619796 24.234372,56.625004 24.1875,56.625 C 24.106119,56.625001 24.044434,56.616699 23.96875,56.625 z M 34.21875,57.53125 C 34.293467,57.516245 34.384114,57.531251 34.46875,57.53125 C 34.507812,57.53125 34.55704,57.527244 34.59375,57.53125 C 34.629989,57.536057 34.684863,57.553688 34.71875,57.5625 C 34.732117,57.566345 34.76826,57.558014 34.78125,57.5625 C 34.794052,57.567307 34.831324,57.588303 34.84375,57.59375 C 34.849869,57.596634 34.868975,57.621956 34.875,57.625 C 34.880931,57.628204 34.900413,57.621635 34.90625,57.625 C 34.92922,57.639099 34.978536,57.670838 35,57.6875 C 35.005272,57.691826 35.026072,57.714264 35.03125,57.71875 C 35.036334,57.723396 35.05751,57.745194 35.0625,57.75 C 35.067396,57.754967 35.057698,57.776123 35.0625,57.78125 C 35.091796,57.811524 35.132447,57.841064 35.15625,57.875 C 35.160065,57.880758 35.183838,57.900391 35.1875,57.90625 C 35.194519,57.918172 35.212341,57.956421 35.21875,57.96875 C 35.230957,57.993815 35.240234,58.035807 35.25,58.0625 C 35.254578,58.07605 35.277283,58.111043 35.28125,58.125 C 35.284912,58.13916 35.278198,58.172933 35.28125,58.1875 C 35.29361,58.253967 35.312499,58.331544 35.3125,58.40625 L 33.5,58.40625 C 33.518228,58.280926 33.551097,58.161906 33.59375,58.0625 C 33.600093,58.048564 33.618159,58.013407 33.625,58 C 33.63209,57.986857 33.648661,57.950114 33.65625,57.9375 C 33.660169,57.931325 33.683456,57.912293 33.6875,57.90625 C 33.716677,57.864878 33.745966,57.816142 33.78125,57.78125 C 33.786415,57.776398 33.80721,57.75472 33.8125,57.75 C 33.838948,57.725993 33.877322,57.707756 33.90625,57.6875 C 33.912135,57.683599 33.931516,57.660001 33.9375,57.65625 C 33.949666,57.649048 33.987437,57.631602 34,57.625 C 34.025523,57.612396 34.06664,57.603953 34.09375,57.59375 C 34.107503,57.588949 34.1421,57.566701 34.15625,57.5625 C 34.177773,57.556648 34.196335,57.535751 34.21875,57.53125 z M 57.34375,57.53125 C 57.418467,57.516245 57.509114,57.531251 57.59375,57.53125 C 57.625,57.53125 57.657756,57.528686 57.6875,57.53125 C 57.702184,57.532852 57.735692,57.529007 57.75,57.53125 C 57.764119,57.533814 57.798757,57.559296 57.8125,57.5625 C 57.826055,57.566025 57.861822,57.558334 57.875,57.5625 C 57.913971,57.575958 57.964416,57.605774 58,57.625 C 58.023346,57.638458 58.071909,57.671479 58.09375,57.6875 C 58.125946,57.712493 58.158691,57.750489 58.1875,57.78125 C 58.19223,57.786397 58.214172,57.807251 58.21875,57.8125 C 58.223175,57.817851 58.245728,57.838297 58.25,57.84375 C 58.25412,57.849304 58.277283,57.869344 58.28125,57.875 C 58.304138,57.909546 58.326355,57.961792 58.34375,58 C 58.349243,58.012939 58.370117,58.049154 58.375,58.0625 C 58.379578,58.07605 58.371033,58.111043 58.375,58.125 C 58.378662,58.13916 58.403198,58.172933 58.40625,58.1875 C 58.41861,58.253967 58.437499,58.331544 58.4375,58.40625 L 56.59375,58.40625 C 56.622395,58.209312 56.692291,58.039185 56.78125,57.90625 C 56.785418,57.90034 56.808207,57.880778 56.8125,57.875 C 56.816917,57.869354 56.839208,57.849264 56.84375,57.84375 C 56.848417,57.838369 56.870209,57.817749 56.875,57.8125 C 56.879916,57.807383 56.901209,57.786235 56.90625,57.78125 C 56.911415,57.776398 56.93221,57.75472 56.9375,57.75 C 56.942889,57.745349 56.963262,57.723251 56.96875,57.71875 C 56.974337,57.714399 56.994314,57.691701 57,57.6875 C 57.017357,57.675347 57.044251,57.667053 57.0625,57.65625 C 57.074865,57.649348 57.112239,57.631302 57.125,57.625 C 57.13796,57.618998 57.174144,57.599152 57.1875,57.59375 C 57.201055,57.588649 57.236048,57.567001 57.25,57.5625 C 57.26415,57.558299 57.297953,57.566101 57.3125,57.5625 C 57.319873,57.560849 57.336278,57.53275 57.34375,57.53125 z M 17.75,57.5625 C 17.824717,57.547495 17.915364,57.562501 18,57.5625 C 18.039062,57.562501 18.08829,57.558494 18.125,57.5625 C 18.139496,57.564423 18.173381,57.559936 18.1875,57.5625 C 18.201431,57.565384 18.236445,57.590225 18.25,57.59375 C 18.263367,57.597595 18.29951,57.589264 18.3125,57.59375 C 18.318901,57.596153 18.337443,57.622437 18.34375,57.625 C 18.368601,57.635895 18.414154,57.642792 18.4375,57.65625 C 18.443242,57.659775 18.463102,57.683815 18.46875,57.6875 C 18.513184,57.718261 18.555338,57.771485 18.59375,57.8125 C 18.598633,57.817546 18.62027,57.807353 18.625,57.8125 C 18.634155,57.822998 18.647705,57.864095 18.65625,57.875 C 18.66037,57.880554 18.683533,57.900594 18.6875,57.90625 C 18.691315,57.912008 18.715088,57.931641 18.71875,57.9375 C 18.732788,57.961345 18.738403,58.005778 18.75,58.03125 C 18.755493,58.044189 18.776367,58.080404 18.78125,58.09375 C 18.792694,58.127624 18.80487,58.182333 18.8125,58.21875 C 18.82486,58.285217 18.843749,58.362794 18.84375,58.4375 L 17.03125,58.4375 C 17.049478,58.312176 17.082347,58.193156 17.125,58.09375 C 17.131343,58.079814 17.149409,58.044657 17.15625,58.03125 C 17.16334,58.018107 17.179911,57.981364 17.1875,57.96875 C 17.203176,57.944051 17.23233,57.897583 17.25,57.875 C 17.277253,57.841919 17.312011,57.809571 17.34375,57.78125 C 17.349139,57.776599 17.369512,57.754501 17.375,57.75 C 17.380587,57.745649 17.400564,57.722951 17.40625,57.71875 C 17.417821,57.710648 17.456782,57.695002 17.46875,57.6875 C 17.474833,57.683899 17.493818,57.659701 17.5,57.65625 C 17.525126,57.643046 17.567037,57.635803 17.59375,57.625 C 17.607305,57.619898 17.642298,57.598251 17.65625,57.59375 C 17.68455,57.585347 17.720113,57.568502 17.75,57.5625 z M 48.09375,57.59375 C 48.138611,57.588282 48.201578,57.59375 48.25,57.59375 C 48.278564,57.59375 48.316445,57.591781 48.34375,57.59375 C 48.38856,57.598125 48.458687,57.615158 48.5,57.625 C 48.524368,57.631561 48.570641,57.64772 48.59375,57.65625 C 48.608877,57.662374 48.641683,57.680501 48.65625,57.6875 C 48.670537,57.694936 48.705022,57.710439 48.71875,57.71875 C 48.75237,57.740621 48.813626,57.785162 48.84375,57.8125 C 48.849635,57.818186 48.869255,57.837845 48.875,57.84375 C 48.880605,57.849874 48.900785,57.868658 48.90625,57.875 C 48.916901,57.888122 48.927409,57.923503 48.9375,57.9375 C 48.957682,57.96517 48.982341,58.000488 49,58.03125 C 49.012771,58.054901 49.051148,58.099609 49.0625,58.125 C 49.145909,58.324108 49.187497,58.573651 49.1875,58.875 C 49.187497,59.176352 49.145909,59.455798 49.0625,59.65625 C 49.047364,59.690348 49.017659,59.750204 49,59.78125 C 48.986283,59.803963 48.952636,59.822754 48.9375,59.84375 C 48.927409,59.857585 48.916901,59.89328 48.90625,59.90625 C 48.900785,59.912519 48.880605,59.931447 48.875,59.9375 C 48.85202,59.960846 48.806468,60.011363 48.78125,60.03125 C 48.768361,60.040761 48.732198,60.053853 48.71875,60.0625 C 48.705022,60.070714 48.670537,60.0864 48.65625,60.09375 C 48.641683,60.100667 48.608877,60.118947 48.59375,60.125 C 48.570641,60.13343 48.524368,60.149765 48.5,60.15625 C 48.458687,60.165977 48.38856,60.183177 48.34375,60.1875 C 48.316445,60.189445 48.278564,60.1875 48.25,60.1875 C 48.201578,60.1875 48.138611,60.192904 48.09375,60.1875 C 48.049601,60.181015 47.978088,60.168139 47.9375,60.15625 C 47.865722,60.132904 47.778991,60.072105 47.71875,60.03125 C 47.705648,60.021739 47.668782,60.010376 47.65625,60 C 47.613383,59.962171 47.567138,59.892171 47.53125,59.84375 C 47.379724,59.620879 47.281248,59.281171 47.28125,58.875 C 47.281248,58.521243 47.353805,58.244112 47.46875,58.03125 C 47.481995,58.008178 47.516586,57.958832 47.53125,57.9375 C 47.582519,57.867514 47.653239,57.798116 47.71875,57.75 C 47.819152,57.681107 47.961303,57.613435 48.09375,57.59375 z M 3.8125,57.625 C 3.8385621,57.620407 3.8789061,57.627625 3.90625,57.625 C 3.9340212,57.623031 3.970947,57.625 4,57.625 C 4.0476069,57.625 4.1121397,57.619532 4.15625,57.625 C 4.1909788,57.630249 4.2487591,57.647502 4.28125,57.65625 C 4.3051986,57.663467 4.3523102,57.678314 4.375,57.6875 C 4.3898468,57.694061 4.4232127,57.711314 4.4375,57.71875 C 4.5355531,57.773864 4.6481105,57.87077 4.71875,57.96875 C 4.7285256,57.982971 4.7408551,58.016256 4.75,58.03125 C 4.7676592,58.062012 4.7973635,58.122396 4.8125,58.15625 C 4.8959085,58.355358 4.9374973,58.604901 4.9375,58.90625 C 4.9374964,59.31242 4.8702715,59.652129 4.71875,59.875 C 4.6884759,59.916504 4.6290592,59.966278 4.59375,60 C 4.5877253,60.005404 4.5686646,60.026062 4.5625,60.03125 C 4.5309777,60.056109 4.472519,60.105545 4.4375,60.125 C 4.4232127,60.13235 4.3898468,60.149765 4.375,60.15625 C 4.3523102,60.165329 4.3051986,60.180367 4.28125,60.1875 C 4.2487591,60.196147 4.1909788,60.213562 4.15625,60.21875 C 4.1121397,60.224154 4.0476069,60.21875 4,60.21875 C 3.970947,60.21875 3.9340212,60.220695 3.90625,60.21875 C 3.8606768,60.214427 3.7920127,60.197227 3.75,60.1875 C 3.7169595,60.178853 3.6557617,60.168355 3.625,60.15625 C 3.609904,60.149765 3.5770264,60.13235 3.5625,60.125 C 3.5268962,60.105545 3.4695433,60.056109 3.4375,60.03125 C 3.4312338,60.026062 3.4123738,60.005404 3.40625,60 C 3.3703616,59.966278 3.3120113,59.916504 3.28125,59.875 C 3.1297234,59.65213 3.0624982,59.31242 3.0625,58.90625 C 3.0624987,58.604901 3.1040898,58.355358 3.1875,58.15625 C 3.2026368,58.122396 3.2323403,58.062012 3.25,58.03125 C 3.2591452,58.016256 3.2714741,57.982971 3.28125,57.96875 C 3.3530264,57.87077 3.4628094,57.773865 3.5625,57.71875 C 3.5770264,57.711314 3.609904,57.694061 3.625,57.6875 C 3.6557617,57.675252 3.7169595,57.664999 3.75,57.65625 C 3.7668051,57.652313 3.7951252,57.628062 3.8125,57.625 z M 12.15625,57.625 C 12.165123,57.624359 12.178492,57.625427 12.1875,57.625 C 12.196643,57.624786 12.209473,57.625 12.21875,57.625 C 12.265543,57.625 12.331704,57.650909 12.375,57.65625 C 12.536869,57.680604 12.701123,57.74228 12.8125,57.84375 C 12.818222,57.849304 12.838168,57.869232 12.84375,57.875 C 12.865519,57.898925 12.886718,57.941407 12.90625,57.96875 C 12.911214,57.975586 12.932691,57.992971 12.9375,58 C 12.946808,58.014445 12.960063,58.047282 12.96875,58.0625 C 12.985504,58.09371 13.016978,58.153198 13.03125,58.1875 C 13.106333,58.380413 13.156247,58.619794 13.15625,58.90625 C 13.156246,59.296876 13.077116,59.627076 12.9375,59.84375 C 12.932691,59.850779 12.911214,59.868164 12.90625,59.875 C 12.862304,59.936524 12.805275,59.98703 12.75,60.03125 C 12.743718,60.03595 12.725171,60.058014 12.71875,60.0625 C 12.705627,60.071045 12.669932,60.08606 12.65625,60.09375 C 12.642288,60.101013 12.608271,60.118591 12.59375,60.125 C 12.571549,60.133972 12.52346,60.1492 12.5,60.15625 C 12.46816,60.164795 12.409078,60.182373 12.375,60.1875 C 12.331704,60.19284 12.265543,60.1875 12.21875,60.1875 C 12.209473,60.1875 12.196643,60.187714 12.1875,60.1875 C 12.142461,60.185364 12.072919,60.194977 12.03125,60.1875 C 12.006653,60.182373 11.960884,60.1633 11.9375,60.15625 C 11.91452,60.14856 11.865517,60.134613 11.84375,60.125 C 11.829508,60.118164 11.794952,60.10144 11.78125,60.09375 C 11.720802,60.05722 11.64328,59.991333 11.59375,59.9375 C 11.588382,59.931305 11.567734,59.912659 11.5625,59.90625 C 11.557401,59.899628 11.536214,59.881836 11.53125,59.875 C 11.526367,59.868164 11.53598,59.850779 11.53125,59.84375 C 11.517517,59.822083 11.48111,59.773407 11.46875,59.75 C 11.452881,59.718018 11.419678,59.660075 11.40625,59.625 C 11.338958,59.436798 11.312499,59.179689 11.3125,58.90625 C 11.312498,58.515628 11.393919,58.216677 11.53125,58 C 11.53598,57.992971 11.526367,57.975586 11.53125,57.96875 C 11.536214,57.961914 11.557401,57.944122 11.5625,57.9375 C 11.583435,57.911866 11.633159,57.865967 11.65625,57.84375 C 11.662158,57.838409 11.681458,57.817627 11.6875,57.8125 C 11.693677,57.807587 11.712438,57.78595 11.71875,57.78125 C 11.731644,57.772278 11.767817,57.758118 11.78125,57.75 C 11.794952,57.74231 11.829508,57.725586 11.84375,57.71875 C 11.865517,57.709137 11.91452,57.69519 11.9375,57.6875 C 11.960884,57.68045 12.006653,57.661377 12.03125,57.65625 C 12.064586,57.650268 12.120758,57.627564 12.15625,57.625 z "
         transform="translate(2.992441,-4)"
         id="text3112" />
      <path
         sodipodi:nodetypes="csssssssccssssssscccccccsccccsccccccccccsssssccsssssccsssssccssssscccccccccccccccccccccccccccsssccsssssssccsssccccsssssccsssssccsssssccssssscccccccsccccsccccccccsssccccccssscccccsssccsssssssccsssccccccccccccccccccsssccsssssssccssscccsssccccccssscccsssccccccssscccccsssccsssssssccssscccsssccccccssscccssssscccccccssssscccsssccsssc"
         id="path3124"
         d="M 2.6696575,62.133942 C 2.6696536,61.605299 2.5602787,61.191237 2.3415325,60.891754 C 2.1253833,60.589675 1.8272065,60.438633 1.4470012,60.438629 C 1.0667906,60.438633 0.76731173,60.589675 0.54856372,60.891754 C 0.33241633,61.191237 0.22434352,61.605299 0.22434497,62.133942 C 0.22434352,62.662589 0.33241633,63.077953 0.54856372,63.380035 C 0.76731173,63.679515 1.0667906,63.829255 1.4470012,63.829254 C 1.8272065,63.829255 2.1253833,63.679515 2.3415325,63.380035 C 2.5602787,63.077953 2.6696536,62.662589 2.6696575,62.133942 M 0.22434497,60.606598 C 0.37538504,60.346185 0.56548901,60.153477 0.79465747,60.028473 C 1.0264261,59.900873 1.3024674,59.837071 1.6227825,59.837067 C 2.1540291,59.837071 2.5850182,60.048009 2.9157512,60.469879 C 3.2490801,60.891758 3.4157466,61.446445 3.4157512,62.133942 C 3.4157466,62.821443 3.2490801,63.37613 2.9157512,63.798004 C 2.5850182,64.219879 2.1540291,64.430817 1.6227825,64.430817 C 1.3024674,64.430817 1.0264261,64.368317 0.79465747,64.243317 C 0.56548901,64.115713 0.37538504,63.921703 0.22434497,63.661285 L 0.22434497,64.317535 L -0.49831128,64.317535 L -0.49831128,58.23941 L 0.22434497,58.23941 L 0.22434497,60.606598 M 6.42747,64.723785 C 6.2243426,65.244618 6.0264261,65.584461 5.83372,65.743317 C 5.6410098,65.902169 5.3831976,65.981596 5.0602825,65.981598 L 4.4860637,65.981598 L 4.4860637,65.380035 L 4.9079387,65.380035 C 5.1058541,65.380034 5.2594998,65.333159 5.3688762,65.23941 C 5.4782496,65.14566 5.5993432,64.924306 5.7321575,64.575348 L 5.8610637,64.247223 L 4.0915325,59.942535 L 4.8532512,59.942535 L 6.2204387,63.36441 L 7.5876262,59.942535 L 8.349345,59.942535 L 6.42747,64.723785 M 15.415751,58.67691 L 15.415751,59.446442 C 15.116268,59.303218 14.833716,59.196447 14.568095,59.126129 C 14.302467,59.055822 14.045957,59.020666 13.798564,59.02066 C 13.368874,59.020666 13.036843,59.103999 12.80247,59.27066 C 12.570698,59.437332 12.454812,59.674311 12.454814,59.981598 C 12.454812,60.239415 12.531635,60.434727 12.685282,60.567535 C 12.841531,60.697747 13.135801,60.803216 13.568095,60.883942 L 14.044657,60.981598 C 14.633196,61.09358 15.066789,61.291497 15.345439,61.575348 C 15.626684,61.8566 15.767309,62.234204 15.767314,62.70816 C 15.767309,63.273266 15.577205,63.701651 15.197001,63.993317 C 14.819393,64.284983 14.264706,64.430817 13.532939,64.430817 C 13.256895,64.430817 12.962624,64.399567 12.650126,64.337067 C 12.340229,64.274567 12.018615,64.182119 11.685282,64.059723 L 11.685282,63.247223 C 12.005594,63.426911 12.319396,63.562328 12.626689,63.653473 C 12.933979,63.744619 13.236062,63.790192 13.532939,63.790192 C 13.983457,63.790192 14.331113,63.701651 14.575907,63.524567 C 14.820695,63.347484 14.943091,63.09488 14.943095,62.766754 C 14.943091,62.480298 14.85455,62.25634 14.67747,62.094879 C 14.502987,61.933423 14.215227,61.81233 13.814189,61.731598 L 13.33372,61.637848 C 12.745177,61.520663 12.319396,61.33707 12.056376,61.087067 C 11.793355,60.83707 11.661844,60.489414 11.661845,60.044098 C 11.661844,59.528478 11.842834,59.122228 12.204814,58.825348 C 12.569396,58.528479 13.070697,58.380041 13.70872,58.380035 C 13.982155,58.380041 14.2608,58.404781 14.544657,58.454254 C 14.828508,58.503739 15.118872,58.577958 15.415751,58.67691 M 16.982157,59.942535 L 17.700907,59.942535 L 17.700907,64.317535 L 16.982157,64.317535 L 16.982157,59.942535 M 16.982157,58.23941 L 17.700907,58.23941 L 17.700907,59.149567 L 16.982157,59.149567 L 16.982157,58.23941 M 19.200907,58.23941 L 19.919657,58.23941 L 19.919657,64.317535 L 19.200907,64.317535 L 19.200907,58.23941 M 20.904032,59.942535 L 21.665751,59.942535 L 23.032939,63.61441 L 24.400126,59.942535 L 25.161845,59.942535 L 23.52122,64.317535 L 22.544657,64.317535 L 20.904032,59.942535 M 29.89622,61.950348 L 29.89622,62.30191 L 26.591532,62.30191 C 26.622781,62.796704 26.771219,63.174307 27.036845,63.434723 C 27.305072,63.692536 27.677468,63.821442 28.154032,63.821442 C 28.430071,63.821442 28.696998,63.787588 28.954814,63.719879 C 29.215227,63.652172 29.473039,63.550609 29.728251,63.415192 L 29.728251,64.094879 C 29.470435,64.204254 29.206112,64.287588 28.935282,64.344879 C 28.664446,64.402171 28.389707,64.430817 28.111064,64.430817 C 27.413145,64.430817 26.85976,64.227692 26.450907,63.821442 C 26.044657,63.415193 25.841532,62.865714 25.841532,62.173004 C 25.841532,61.456861 26.03424,60.889154 26.419657,60.469879 C 26.807677,60.048009 27.329812,59.837071 27.986064,59.837067 C 28.574602,59.837071 29.039445,60.027175 29.380595,60.407379 C 29.724341,60.784987 29.896215,61.299309 29.89622,61.950348 M 29.17747,61.73941 C 29.172258,61.346184 29.061581,61.032383 28.845439,60.798004 C 28.631894,60.563633 28.34804,60.446446 27.993876,60.446442 C 27.592832,60.446446 27.271218,60.559727 27.029032,60.786285 C 26.789448,61.012851 26.651427,61.331861 26.61497,61.743317 L 29.17747,61.73941 M 33.849345,60.071442 L 33.849345,60.751129 C 33.646217,60.646966 33.435279,60.568841 33.216532,60.516754 C 32.99778,60.464675 32.771218,60.438633 32.536845,60.438629 C 32.180072,60.438633 31.911843,60.493321 31.732157,60.602692 C 31.555073,60.71207 31.466531,60.876133 31.466532,61.094879 C 31.466531,61.261549 31.530333,61.393059 31.657939,61.48941 C 31.785541,61.583163 32.042052,61.673007 32.42747,61.758942 L 32.673564,61.813629 C 33.183978,61.923007 33.545956,62.077954 33.759501,62.278473 C 33.975643,62.476392 34.083716,62.753735 34.08372,63.110504 C 34.083716,63.516755 33.922258,63.838369 33.599345,64.075348 C 33.279029,64.312327 32.837624,64.430817 32.275126,64.430817 C 32.040749,64.430817 31.795958,64.407379 31.540751,64.360504 C 31.288146,64.316233 31.021219,64.248525 30.73997,64.157379 L 30.73997,63.415192 C 31.005594,63.553213 31.267313,63.65738 31.525126,63.727692 C 31.782937,63.795401 32.038145,63.829255 32.290751,63.829254 C 32.629291,63.829255 32.889707,63.771963 33.072001,63.657379 C 33.25429,63.540193 33.345436,63.37613 33.345439,63.165192 C 33.345436,62.969881 33.279029,62.820141 33.14622,62.715973 C 33.016009,62.611808 32.728249,62.511548 32.282939,62.415192 L 32.032939,62.356598 C 31.587625,62.26285 31.266011,62.119621 31.068095,61.92691 C 30.870178,61.731601 30.77122,61.464674 30.77122,61.126129 C 30.77122,60.714675 30.917053,60.396966 31.20872,60.173004 C 31.500385,59.94905 31.914448,59.837071 32.450907,59.837067 C 32.71653,59.837071 32.96653,59.856602 33.200907,59.89566 C 33.435279,59.934727 33.651425,59.993321 33.849345,60.071442 M 35.92747,58.700348 L 35.92747,59.942535 L 37.407939,59.942535 L 37.407939,60.501129 L 35.92747,60.501129 L 35.92747,62.876129 C 35.927469,63.232901 35.975646,63.462068 36.072001,63.563629 C 36.170958,63.665192 36.370176,63.715974 36.669657,63.715973 L 37.407939,63.715973 L 37.407939,64.317535 L 36.669657,64.317535 C 36.114968,64.317535 35.732156,64.214671 35.52122,64.008942 C 35.310282,63.800609 35.204813,63.423005 35.204814,62.876129 L 35.204814,60.501129 L 34.67747,60.501129 L 34.67747,59.942535 L 35.204814,59.942535 L 35.204814,58.700348 L 35.92747,58.700348 M 40.892314,60.61441 C 40.811581,60.567539 40.72304,60.533685 40.626689,60.512848 C 40.532936,60.489414 40.428769,60.477696 40.314189,60.477692 C 39.907936,60.477696 39.595437,60.610508 39.376689,60.876129 C 39.160541,61.139153 39.052469,61.518059 39.05247,62.012848 L 39.05247,64.317535 L 38.329814,64.317535 L 38.329814,59.942535 L 39.05247,59.942535 L 39.05247,60.622223 C 39.20351,60.356602 39.400124,60.159988 39.642314,60.032379 C 39.884499,59.902175 40.178769,59.837071 40.525126,59.837067 C 40.574602,59.837071 40.62929,59.840977 40.689189,59.848785 C 40.749081,59.853998 40.815488,59.863113 40.888407,59.876129 L 40.892314,60.61441 M 45.380595,61.950348 L 45.380595,62.30191 L 42.075907,62.30191 C 42.107156,62.796704 42.255594,63.174307 42.52122,63.434723 C 42.789447,63.692536 43.161843,63.821442 43.638407,63.821442 C 43.914446,63.821442 44.181373,63.787588 44.439189,63.719879 C 44.699602,63.652172 44.957414,63.550609 45.212626,63.415192 L 45.212626,64.094879 C 44.95481,64.204254 44.690487,64.287588 44.419657,64.344879 C 44.148821,64.402171 43.874082,64.430817 43.595439,64.430817 C 42.89752,64.430817 42.344135,64.227692 41.935282,63.821442 C 41.529032,63.415193 41.325907,62.865714 41.325907,62.173004 C 41.325907,61.456861 41.518615,60.889154 41.904032,60.469879 C 42.292052,60.048009 42.814187,59.837071 43.470439,59.837067 C 44.058977,59.837071 44.52382,60.027175 44.86497,60.407379 C 45.208716,60.784987 45.38059,61.299309 45.380595,61.950348 M 44.661845,61.73941 C 44.656633,61.346184 44.545956,61.032383 44.329814,60.798004 C 44.116269,60.563633 43.832415,60.446446 43.478251,60.446442 C 43.077207,60.446446 42.755593,60.559727 42.513407,60.786285 C 42.273823,61.012851 42.135802,61.331861 42.099345,61.743317 L 44.661845,61.73941 M 49.122782,58.485504 L 49.911845,58.485504 L 49.911845,60.876129 L 52.779032,60.876129 L 52.779032,58.485504 L 53.568095,58.485504 L 53.568095,64.317535 L 52.779032,64.317535 L 52.779032,61.540192 L 49.911845,61.540192 L 49.911845,64.317535 L 49.122782,64.317535 L 49.122782,58.485504 M 58.849345,61.950348 L 58.849345,62.30191 L 55.544657,62.30191 C 55.575906,62.796704 55.724344,63.174307 55.98997,63.434723 C 56.258197,63.692536 56.630593,63.821442 57.107157,63.821442 C 57.383196,63.821442 57.650123,63.787588 57.907939,63.719879 C 58.168352,63.652172 58.426164,63.550609 58.681376,63.415192 L 58.681376,64.094879 C 58.42356,64.204254 58.159237,64.287588 57.888407,64.344879 C 57.617571,64.402171 57.342832,64.430817 57.064189,64.430817 C 56.36627,64.430817 55.812885,64.227692 55.404032,63.821442 C 54.997782,63.415193 54.794657,62.865714 54.794657,62.173004 C 54.794657,61.456861 54.987365,60.889154 55.372782,60.469879 C 55.760802,60.048009 56.282937,59.837071 56.939189,59.837067 C 57.527727,59.837071 57.99257,60.027175 58.33372,60.407379 C 58.677466,60.784987 58.84934,61.299309 58.849345,61.950348 M 58.130595,61.73941 C 58.125383,61.346184 58.014706,61.032383 57.798564,60.798004 C 57.585019,60.563633 57.301165,60.446446 56.947001,60.446442 C 56.545957,60.446446 56.224343,60.559727 55.982157,60.786285 C 55.742573,61.012851 55.604552,61.331861 55.568095,61.743317 L 58.130595,61.73941 M 62.548564,60.61441 C 62.467831,60.567539 62.37929,60.533685 62.282939,60.512848 C 62.189186,60.489414 62.085019,60.477696 61.970439,60.477692 C 61.564186,60.477696 61.251687,60.610508 61.032939,60.876129 C 60.816791,61.139153 60.708719,61.518059 60.70872,62.012848 L 60.70872,64.317535 L 59.986064,64.317535 L 59.986064,59.942535 L 60.70872,59.942535 L 60.70872,60.622223 C 60.85976,60.356602 61.056374,60.159988 61.298564,60.032379 C 61.540749,59.902175 61.835019,59.837071 62.181376,59.837067 C 62.230852,59.837071 62.28554,59.840977 62.345439,59.848785 C 62.405331,59.853998 62.471738,59.863113 62.544657,59.876129 L 62.548564,60.61441 M 65.829814,60.61441 C 65.749081,60.567539 65.66054,60.533685 65.564189,60.512848 C 65.470436,60.489414 65.366269,60.477696 65.251689,60.477692 C 64.845436,60.477696 64.532937,60.610508 64.314189,60.876129 C 64.098041,61.139153 63.989969,61.518059 63.98997,62.012848 L 63.98997,64.317535 L 63.267314,64.317535 L 63.267314,59.942535 L 63.98997,59.942535 L 63.98997,60.622223 C 64.14101,60.356602 64.337624,60.159988 64.579814,60.032379 C 64.821999,59.902175 65.116269,59.837071 65.462626,59.837067 C 65.512102,59.837071 65.56679,59.840977 65.626689,59.848785 C 65.686581,59.853998 65.752988,59.863113 65.825907,59.876129 L 65.829814,60.61441 M 70.318095,61.950348 L 70.318095,62.30191 L 67.013407,62.30191 C 67.044656,62.796704 67.193094,63.174307 67.45872,63.434723 C 67.726947,63.692536 68.099343,63.821442 68.575907,63.821442 C 68.851946,63.821442 69.118873,63.787588 69.376689,63.719879 C 69.637102,63.652172 69.894914,63.550609 70.150126,63.415192 L 70.150126,64.094879 C 69.89231,64.204254 69.627987,64.287588 69.357157,64.344879 C 69.086321,64.402171 68.811582,64.430817 68.532939,64.430817 C 67.83502,64.430817 67.281635,64.227692 66.872782,63.821442 C 66.466532,63.415193 66.263407,62.865714 66.263407,62.173004 C 66.263407,61.456861 66.456115,60.889154 66.841532,60.469879 C 67.229552,60.048009 67.751687,59.837071 68.407939,59.837067 C 68.996477,59.837071 69.46132,60.027175 69.80247,60.407379 C 70.146216,60.784987 70.31809,61.299309 70.318095,61.950348 M 69.599345,61.73941 C 69.594133,61.346184 69.483456,61.032383 69.267314,60.798004 C 69.053769,60.563633 68.769915,60.446446 68.415751,60.446442 C 68.014707,60.446446 67.693093,60.559727 67.450907,60.786285 C 67.211323,61.012851 67.073302,61.331861 67.036845,61.743317 L 69.599345,61.73941 M 74.017314,60.61441 C 73.936581,60.567539 73.84804,60.533685 73.751689,60.512848 C 73.657936,60.489414 73.553769,60.477696 73.439189,60.477692 C 73.032936,60.477696 72.720437,60.610508 72.501689,60.876129 C 72.285541,61.139153 72.177469,61.518059 72.17747,62.012848 L 72.17747,64.317535 L 71.454814,64.317535 L 71.454814,59.942535 L 72.17747,59.942535 L 72.17747,60.622223 C 72.32851,60.356602 72.525124,60.159988 72.767314,60.032379 C 73.009499,59.902175 73.303769,59.837071 73.650126,59.837067 C 73.699602,59.837071 73.75429,59.840977 73.814189,59.848785 C 73.874081,59.853998 73.940488,59.863113 74.013407,59.876129 L 74.017314,60.61441 M 76.751689,62.118317 C 76.170957,62.118319 75.768614,62.184725 75.544657,62.317535 C 75.320698,62.45035 75.208719,62.676912 75.20872,62.997223 C 75.208719,63.252432 75.292052,63.455557 75.45872,63.606598 C 75.627989,63.755036 75.857156,63.829255 76.14622,63.829254 C 76.544655,63.829255 76.863665,63.68863 77.103251,63.407379 C 77.345435,63.123526 77.466529,62.747225 77.466532,62.278473 L 77.466532,62.118317 L 76.751689,62.118317 M 78.185282,61.821442 L 78.185282,64.317535 L 77.466532,64.317535 L 77.466532,63.653473 C 77.302467,63.919098 77.09804,64.115713 76.853251,64.243317 C 76.608457,64.368317 76.308978,64.430817 75.954814,64.430817 C 75.506896,64.430817 75.150125,64.305817 74.884501,64.055817 C 74.62148,63.803213 74.489969,63.465974 74.48997,63.044098 C 74.489969,62.551912 74.654032,62.180819 74.982157,61.930817 C 75.312885,61.680819 75.805072,61.55582 76.45872,61.555817 L 77.466532,61.555817 L 77.466532,61.485504 C 77.466529,61.154778 77.357154,60.89957 77.138407,60.719879 C 76.922259,60.537591 76.617572,60.446446 76.224345,60.446442 C 75.974343,60.446446 75.730854,60.476394 75.493876,60.536285 C 75.256896,60.596185 75.029031,60.686029 74.810282,60.805817 L 74.810282,60.141754 C 75.073302,60.040196 75.32851,59.964675 75.575907,59.915192 C 75.823301,59.863113 76.064187,59.837071 76.298564,59.837067 C 76.931373,59.837071 77.404029,60.001134 77.716532,60.329254 C 78.029028,60.657383 78.185278,61.154778 78.185282,61.821442"
         style="font-size:12px;font-style:normal;font-weight:normal;line-height:125%;fill:#646464;fill-opacity:1;stroke:none;stroke-width:1px;stroke-linecap:butt;stroke-linejoin:miter;stroke-opacity:1;font-family:Bitstream Vera Sans" />
    </g>
  </g>
  <g
     inkscape:groupmode="layer"
     id="layer4"
     inkscape:label="tubes">
    <rect
       style="opacity:1;fill:url(#linearGradient2328);fill-opacity:1;stroke:none;stroke-width:0.99999988;stroke-linecap:round;stroke-linejoin:round;stroke-miterlimit:4;stroke-dasharray:none;stroke-dashoffset:0;stroke-opacity:1"
       id="rect2301"
       width="5"
       height="40"
       x="42"
       y="3" />
    <rect
       style="opacity:1;fill:url(#linearGradient2336);fill-opacity:1;stroke:none;stroke-width:0.99999988;stroke-linecap:round;stroke-linejoin:round;stroke-miterlimit:4;stroke-dasharray:none;stroke-dashoffset:0;stroke-opacity:1"
       id="rect2334"
       width="2"
       height="40"
       x="43"
       y="3" />
    <path
       style="opacity:1;fill:url(#linearGradient2297);fill-opacity:1;stroke:#787878;stroke-width:0.99999976;stroke-linecap:round;stroke-linejoin:round;stroke-miterlimit:4;stroke-dasharray:none;stroke-dashoffset:0;stroke-opacity:1"
       d="M 41.5,15.5 L 41.5,19.5 L 35.5,19.5 L 35.5,26.5 L 41.5,26.5 L 41.5,30.5 C 41.5,33.177522 47.5,33.127456 47.5,30.5 L 47.5,15.5 C 47.5,18.0935 41.5,17.939469 41.5,15.5 z "
       id="rect1402"
       sodipodi:nodetypes="ccccccccc" />
    <path
       style="fill:url(#linearGradient2356);fill-opacity:1;stroke:none;stroke-width:1;stroke-linecap:round;stroke-linejoin:round;stroke-miterlimit:4;stroke-dashoffset:0;stroke-opacity:1"
       d="M 37,20 L 41,20 L 41,24 L 37,24 L 37,20 z "
       id="rect2348" />
    <path
       style="opacity:0.54112555;fill:url(#linearGradient2369);fill-opacity:1;stroke:none;stroke-width:1;stroke-linecap:round;stroke-linejoin:round;stroke-miterlimit:4;stroke-dashoffset:0;stroke-opacity:1"
       d="M 37,19 L 40,19 L 40,27 L 37,27 L 37,19 z "
       id="path2361" />
    <rect
       style="opacity:1;fill:#ffffff;fill-opacity:1;stroke:none;stroke-width:1;stroke-linecap:round;stroke-linejoin:round;stroke-miterlimit:4;stroke-dasharray:none;stroke-dashoffset:0;stroke-opacity:1"
       id="rect1421"
       width="1.0625"
       height="8"
       x="42.9375"
       y="22" />
    <rect
       style="opacity:1;fill:#ffffff;fill-opacity:1;stroke:none;stroke-width:1;stroke-linecap:round;stroke-linejoin:round;stroke-miterlimit:4;stroke-dasharray:none;stroke-dashoffset:0;stroke-opacity:1"
       id="rect2296"
       width="1.0625"
       height="2"
       x="42.9375"
       y="19" />
  </g>
  <g
     inkscape:groupmode="layer"
     id="layer3"
     inkscape:label="folder-color">
    <path
       style="fill:#debc79;fill-opacity:1;fill-rule:evenodd;stroke:#7f7048;stroke-width:0.99999911px;stroke-linecap:butt;stroke-linejoin:round;stroke-opacity:1"
       d="M 37.498594,2.5011355 C 34.245768,7.0992938 22.802263,8.1069997 11.501269,9.1771753 L 11.501269,45.49936 C 22.265791,44.559648 33.586109,43.880493 37.498594,39.728545 L 37.498594,2.5011355 z "
       id="path2182"
       sodipodi:nodetypes="ccccc" />
  </g>
  <g
     inkscape:groupmode="layer"
     id="layer2"
     inkscape:label="lights"
     sodipodi:insensitive="true">
    <path
       style="fill:url(#radialGradient1372);fill-opacity:1;fill-rule:evenodd;stroke:none;stroke-width:0.99999905px;stroke-linecap:butt;stroke-linejoin:round;stroke-opacity:1"
       d="M 37.018172,4 C 32.800489,7.4101969 22.89283,8.7552232 12.030906,9.8751973 L 12.030906,45 C 22.3772,44.09153 33.257695,43.434957 37.018172,39.421055 L 37.018172,4 z "
       id="path2252"
       sodipodi:nodetypes="ccccc" />
    <path
       style="fill:url(#radialGradient1374);fill-opacity:1;fill-rule:evenodd;stroke:none;stroke-width:0.99999905px;stroke-linecap:butt;stroke-linejoin:round;stroke-opacity:1"
       d="M 37.018172,4 C 32.800488,7.9675357 22.89283,8.6766011 12.030906,9.7812546 L 12.030906,45 C 22.377199,44.103957 33.257695,43.456364 37.018172,39.497368 L 37.018172,4 z "
       id="path1364"
       sodipodi:nodetypes="ccccc" />
    <path
       style="fill:none;fill-opacity:1;fill-rule:evenodd;stroke:url(#linearGradient1376);stroke-width:0.99999869px;stroke-linecap:butt;stroke-linejoin:round;stroke-opacity:1"
       d="M 36.502091,4.4978426 C 32.450323,8.3689743 22.932413,9.060811 12.497776,10.138623 L 12.497776,44.501617 C 22.437065,43.627349 32.889542,42.995491 36.502091,39.132691 L 36.502091,4.4978426 z "
       id="path2204"
       sodipodi:nodetypes="ccccc" />
  </g>
</svg>
