<?xml version="1.0" encoding="UTF-8" standalone="no"?>
<!-- Created with Inkscape (http://www.inkscape.org/) -->
<svg
   xmlns:dc="http://purl.org/dc/elements/1.1/"
   xmlns:cc="http://web.resource.org/cc/"
   xmlns:rdf="http://www.w3.org/1999/02/22-rdf-syntax-ns#"
   xmlns:svg="http://www.w3.org/2000/svg"
   xmlns="http://www.w3.org/2000/svg"
   xmlns:xlink="http://www.w3.org/1999/xlink"
   xmlns:sodipodi="http://inkscape.sourceforge.net/DTD/sodipodi-0.dtd"
   xmlns:inkscape="http://www.inkscape.org/namespaces/inkscape"
   width="48"
   height="48"
   id="svg2"
   sodipodi:version="0.32"
   inkscape:version="0.43"
   version="1.0"
   sodipodi:docbase="/home/silvestre/Desktop/Gion"
   sodipodi:docname="user-home.svg"
   inkscape:export-filename="/home/silvestre/Gion/user-home.png"
   inkscape:export-xdpi="90"
   inkscape:export-ydpi="90">
  <defs
     id="defs4">
    <linearGradient
       inkscape:collect="always"
       id="linearGradient2245">
      <stop
         style="stop-color:#ffffff;stop-opacity:1;"
         offset="0"
         id="stop2247" />
      <stop
         style="stop-color:#ffffff;stop-opacity:0;"
         offset="1"
         id="stop2249" />
    </linearGradient>
    <linearGradient
       id="linearGradient2272">
      <stop
         style="stop-color:#000000;stop-opacity:0;"
         offset="0"
         id="stop2274" />
      <stop
         id="stop2238"
         offset="0.47"
         style="stop-color:#000000;stop-opacity:0.16470588;" />
      <stop
         style="stop-color:#000000;stop-opacity:0.66666669;"
         offset="1"
         id="stop2276" />
    </linearGradient>
    <linearGradient
       inkscape:collect="always"
       id="linearGradient2240">
      <stop
         style="stop-color:#ffffff;stop-opacity:0.3004292"
         offset="0"
         id="stop2242" />
      <stop
         style="stop-color:#ffffff;stop-opacity:0;"
         offset="1"
         id="stop2244" />
    </linearGradient>
    <linearGradient
       inkscape:collect="always"
       id="linearGradient3104">
      <stop
         style="stop-color:#ffffff;stop-opacity:0.70980394"
         offset="0"
         id="stop3106" />
      <stop
         style="stop-color:#ffffff;stop-opacity:0.10729614"
         offset="1"
         id="stop3108" />
    </linearGradient>
    <linearGradient
       inkscape:collect="always"
       id="linearGradient3132">
      <stop
         style="stop-color:#636363;stop-opacity:1;"
         offset="0"
         id="stop3134" />
      <stop
         style="stop-color:#636363;stop-opacity:0;"
         offset="1"
         id="stop3136" />
    </linearGradient>
    <linearGradient
       inkscape:collect="always"
       id="linearGradient2211">
      <stop
         style="stop-color:#000000;stop-opacity:1;"
         offset="0"
         id="stop2213" />
      <stop
         style="stop-color:#000000;stop-opacity:0;"
         offset="1"
         id="stop2215" />
    </linearGradient>
    <linearGradient
       id="linearGradient2233">
      <stop
         style="stop-color:#ffffff;stop-opacity:0.84848487;"
         offset="0"
         id="stop2235" />
      <stop
         style="stop-color:#ffffff;stop-opacity:0.32323232;"
         offset="1"
         id="stop2237" />
    </linearGradient>
    <linearGradient
       inkscape:collect="always"
       id="linearGradient2223">
      <stop
         style="stop-color:#000000;stop-opacity:0.68240345"
         offset="0"
         id="stop2225" />
      <stop
         style="stop-color:#000000;stop-opacity:0;"
         offset="1"
         id="stop2227" />
    </linearGradient>
    <linearGradient
       id="linearGradient2196">
      <stop
         style="stop-color:#ce1414;stop-opacity:1;"
         offset="0"
         id="stop2198" />
      <stop
         style="stop-color:#c61717;stop-opacity:0;"
         offset="1"
         id="stop2200" />
    </linearGradient>
    <linearGradient
       id="linearGradient2228">
      <stop
         style="stop-color:#898989;stop-opacity:1;"
         offset="0"
         id="stop2230" />
      <stop
         style="stop-color:#b2b2b2;stop-opacity:1;"
         offset="1"
         id="stop2232" />
    </linearGradient>
    <linearGradient
       inkscape:collect="always"
       xlink:href="#linearGradient2228"
       id="linearGradient2234"
       x1="34.39695"
       y1="4.1508341"
       x2="20.559042"
       y2="4.1508341"
       gradientUnits="userSpaceOnUse"
       gradientTransform="translate(-3.981793,0)" />
    <linearGradient
       inkscape:collect="always"
       xlink:href="#linearGradient2196"
       id="linearGradient2202"
       x1="11.856057"
       y1="34.258842"
       x2="13.001899"
       y2="34.258842"
       gradientUnits="userSpaceOnUse"
       gradientTransform="matrix(1.333333,0,0,1,-7.315121,0)" />
    <linearGradient
       inkscape:collect="always"
       xlink:href="#linearGradient2223"
       id="linearGradient2229"
       x1="22.563639"
       y1="22.793297"
       x2="14.300235"
       y2="22.793297"
       gradientUnits="userSpaceOnUse"
       gradientTransform="translate(-3.981788,0)" />
    <linearGradient
       inkscape:collect="always"
       xlink:href="#linearGradient2233"
       id="linearGradient2239"
       x1="17.697422"
       y1="2.6187558"
       x2="22.121777"
       y2="38.438679"
       gradientUnits="userSpaceOnUse"
       gradientTransform="translate(-3.981788,0)" />
    <radialGradient
       inkscape:collect="always"
       xlink:href="#linearGradient2211"
       id="radialGradient2217"
       cx="24.523569"
       cy="43.954876"
       fx="19.014454"
       fy="49.215107"
       r="22.501007"
       gradientTransform="matrix(1,0,0,0.174157,-1.356947e-18,36.29981)"
       gradientUnits="userSpaceOnUse" />
    <linearGradient
       inkscape:collect="always"
       xlink:href="#linearGradient3132"
       id="linearGradient3138"
       x1="11.292813"
       y1="27.083799"
       x2="8.5740976"
       y2="27.083799"
       gradientUnits="userSpaceOnUse" />
    <linearGradient
       inkscape:collect="always"
       xlink:href="#linearGradient3104"
       id="linearGradient3110"
       x1="17.718407"
       y1="10.078797"
       x2="24.218407"
       y2="43.104637"
       gradientUnits="userSpaceOnUse"
       gradientTransform="translate(40,0)" />
    <radialGradient
       inkscape:collect="always"
       xlink:href="#linearGradient2240"
       id="radialGradient2246"
       cx="24.651768"
       cy="19.102621"
       fx="24.651768"
       fy="19.102621"
       r="13.026767"
       gradientTransform="matrix(1,-1.523743e-18,-2.516827e-18,1.692844,40,-17.08227)"
       gradientUnits="userSpaceOnUse" />
    <radialGradient
       inkscape:collect="always"
       xlink:href="#linearGradient2272"
       id="radialGradient2278"
       cx="24.026768"
       cy="20.767532"
       fx="24.026768"
       fy="20.767532"
       r="13.026767"
       gradientTransform="matrix(2.452338,3.783707e-16,-2.984795e-16,3.121579,4.87842,-47.38907)"
       gradientUnits="userSpaceOnUse" />
    <radialGradient
       inkscape:collect="always"
       xlink:href="#linearGradient2272"
       id="radialGradient1372"
       gradientUnits="userSpaceOnUse"
       gradientTransform="matrix(2.452338,3.783707e-16,-2.984795e-16,3.121579,-35.12158,-47.38907)"
       cx="24.026768"
       cy="20.767532"
       fx="24.026768"
       fy="20.767532"
       r="13.026767" />
    <radialGradient
       inkscape:collect="always"
       xlink:href="#linearGradient2240"
       id="radialGradient1374"
       gradientUnits="userSpaceOnUse"
       gradientTransform="matrix(1,-1.523743e-18,-2.516827e-18,1.692844,0,-17.08227)"
       cx="24.651768"
       cy="19.102621"
       fx="24.651768"
       fy="19.102621"
       r="13.026767" />
    <linearGradient
       inkscape:collect="always"
       xlink:href="#linearGradient3104"
       id="linearGradient1376"
       gradientUnits="userSpaceOnUse"
       x1="17.718407"
       y1="10.078797"
       x2="24.218407"
       y2="43.104637" />
    <radialGradient
       inkscape:collect="always"
       xlink:href="#linearGradient2245"
       id="radialGradient2251"
       cx="28"
       cy="25.15"
       fx="28"
       fy="25.15"
       r="11"
       gradientTransform="matrix(1.17051,-3.229739e-16,2.936127e-16,1.0641,-4.774272,-1.262108)"
       gradientUnits="userSpaceOnUse" />
  </defs>
  <sodipodi:namedview
     id="base"
     pagecolor="#ffffff"
     bordercolor="#666666"
     borderopacity="1.0"
     inkscape:pageopacity="0.0"
     inkscape:pageshadow="2"
     inkscape:zoom="1"
     inkscape:cx="33.31323"
     inkscape:cy="20.866008"
     inkscape:document-units="px"
     inkscape:current-layer="layer2"
     showgrid="false"
     inkscape:grid-bbox="false"
     inkscape:window-width="889"
     inkscape:window-height="582"
     inkscape:window-x="12"
     inkscape:window-y="67"
     showguides="true"
     inkscape:guide-bbox="true"
     showborder="false" />
  <metadata
     id="metadata7">
    <rdf:RDF>
      <cc:Work
         rdf:about="">
        <dc:format>image/svg+xml</dc:format>
        <dc:type
           rdf:resource="http://purl.org/dc/dcmitype/StillImage" />
        <dc:title>User home</dc:title>
        <dc:creator>
          <cc:Agent>
            <dc:title>Silvestre Herrera</dc:title>
          </cc:Agent>
        </dc:creator>
        <dc:subject>
          <rdf:Bag />
        </dc:subject>
        <cc:license
           rdf:resource="http://creativecommons.org/licenses/GPL/2.0/" />
      </cc:Work>
      <cc:License
         rdf:about="http://creativecommons.org/licenses/GPL/2.0/">
        <cc:permits
           rdf:resource="http://web.resource.org/cc/Reproduction" />
        <cc:permits
           rdf:resource="http://web.resource.org/cc/Distribution" />
        <cc:requires
           rdf:resource="http://web.resource.org/cc/Notice" />
        <cc:permits
           rdf:resource="http://web.resource.org/cc/DerivativeWorks" />
        <cc:requires
           rdf:resource="http://web.resource.org/cc/ShareAlike" />
        <cc:requires
           rdf:resource="http://web.resource.org/cc/SourceCode" />
      </cc:License>
    </rdf:RDF>
  </metadata>
  <g
     inkscape:label="back-folder"
     inkscape:groupmode="layer"
     id="layer1"
     sodipodi:insensitive="true">
    <path
       sodipodi:type="arc"
       style="opacity:0.77922076;fill:url(#radialGradient2217);fill-opacity:1;stroke:none;stroke-width:1;stroke-linecap:round;stroke-linejoin:round;stroke-miterlimit:4;stroke-dasharray:none;stroke-dashoffset:0;stroke-opacity:1"
       id="path1336"
       sodipodi:cx="24.523569"
       sodipodi:cy="43.954876"
       sodipodi:rx="22.501007"
       sodipodi:ry="3.9187145"
       d="M 47.024576 43.954876 A 22.501007 3.9187145 0 1 1  2.022562,43.954876 A 22.501007 3.9187145 0 1 1  47.024576 43.954876 z"
       transform="matrix(1.022176,0,0,1.658709,-1.067415,-31.40834)" />
    <path
       style="fill:url(#linearGradient2234);fill-opacity:1;fill-rule:evenodd;stroke:#636363;stroke-width:0.99999994px;stroke-linecap:butt;stroke-linejoin:round;stroke-opacity:1"
       d="M 43.518226,1.4999958 C 35.793086,2.9345802 20.138899,3.7884315 8.5252565,3.492265 L 8.5252565,28.498418 L 5.5182107,28.498418 L 5.5182107,43.438543 C 19.334548,43.578192 33.145372,43.713306 43.518226,41.021336 L 43.518226,1.4999958 z "
       id="path1307"
       sodipodi:nodetypes="ccccccc" />
    <path
       style="fill:url(#linearGradient2229);fill-opacity:1;fill-rule:evenodd;stroke:none;stroke-width:0.99999958px;stroke-linecap:butt;stroke-linejoin:round;stroke-opacity:1"
       d="M 41.330712,3 C 37.707981,7.919077 22.593061,9.0113836 10.006931,10.15625 L 10.006931,44 C 10.016002,43.999894 10.039247,44 10.039247,44 L 15.41486,48.022346 L 37.87289,44 C 38.036671,44 38.204806,44.029989 38.357631,44.0625 C 38.374611,44.066112 38.373129,44.058511 38.389947,44.0625 C 38.993406,43.683847 39.530886,43.263613 39.973436,42.8125 L 41.330712,3 z "
       id="path2236"
       sodipodi:nodetypes="ccccccsscc" />
    <rect
       style="opacity:0.58008656;fill:url(#linearGradient2202);fill-opacity:1;stroke:none;stroke-width:1;stroke-linecap:round;stroke-linejoin:round;stroke-miterlimit:4;stroke-dasharray:none;stroke-dashoffset:0;stroke-opacity:1"
       id="rect2194"
       width="4"
       height="14"
       x="6.0182114"
       y="29" />
    <path
       style="fill:none;fill-opacity:1;fill-rule:evenodd;stroke:url(#linearGradient2239);stroke-width:1.00000012px;stroke-linecap:butt;stroke-linejoin:round;stroke-opacity:1"
       d="M 42.544374,2.634348 C 35.217797,4.0018381 20.531872,4.7665916 9.5174115,4.4842766 L 9.5174115,29.507768 L 6.5048955,29.507768 L 6.5048955,42.453452 C 19.608406,42.58657 32.706686,42.715364 42.544374,40.149296 L 42.544374,2.634348 z "
       id="path2231"
       sodipodi:nodetypes="ccccccc" />
    <g
       id="g3118"
       style="opacity:0.18614717;fill-opacity:1;stroke:url(#linearGradient3138)">
      <path
         sodipodi:nodetypes="cc"
         id="path3092"
         d="M 9.5147102,6.4664942 C 24.575507,6.6445419 34.622174,5.7153718 43.492644,4.5264746"
         style="fill:none;fill-opacity:1;fill-rule:evenodd;stroke:url(#linearGradient3138);stroke-width:0.99999988px;stroke-linecap:butt;stroke-linejoin:miter;stroke-opacity:1" />
      <path
         style="fill:none;fill-opacity:1;fill-rule:evenodd;stroke:url(#linearGradient3138);stroke-width:0.99999988px;stroke-linecap:butt;stroke-linejoin:miter;stroke-opacity:1"
         d="M 9.4999999,9.4400195 C 24.560797,9.6180672 34.607464,8.6888971 43.477934,7.4999999"
         id="path3096"
         sodipodi:nodetypes="cc" />
      <path
         style="fill:none;fill-opacity:1;fill-rule:evenodd;stroke:url(#linearGradient3138);stroke-width:0.99999988px;stroke-linecap:butt;stroke-linejoin:miter;stroke-opacity:1"
         d="M 9.5147102,12.440019 C 24.575507,12.618067 34.622174,11.688897 43.492644,10.5"
         id="path3098"
         sodipodi:nodetypes="cc" />
      <path
         style="fill:none;fill-opacity:1;fill-rule:evenodd;stroke:url(#linearGradient3138);stroke-width:0.99999988px;stroke-linecap:butt;stroke-linejoin:miter;stroke-opacity:1"
         d="M 9.5147102,15.440019 C 24.575507,15.618067 34.622174,14.688897 43.492644,13.5"
         id="path3100"
         sodipodi:nodetypes="cc" />
      <path
         style="fill:none;fill-opacity:1;fill-rule:evenodd;stroke:url(#linearGradient3138);stroke-width:0.99999988px;stroke-linecap:butt;stroke-linejoin:miter;stroke-opacity:1"
         d="M 9.5147102,18.440019 C 24.575507,18.618067 34.622174,17.688897 43.492644,16.5"
         id="path3102"
         sodipodi:nodetypes="cc" />
      <path
         style="fill:none;fill-opacity:1;fill-rule:evenodd;stroke:url(#linearGradient3138);stroke-width:0.99999988px;stroke-linecap:butt;stroke-linejoin:miter;stroke-opacity:1"
         d="M 9.5147102,21.440019 C 24.575507,21.618067 34.622174,20.688897 43.492644,19.5"
         id="path3104"
         sodipodi:nodetypes="cc" />
      <path
         style="fill:none;fill-opacity:1;fill-rule:evenodd;stroke:url(#linearGradient3138);stroke-width:0.99999988px;stroke-linecap:butt;stroke-linejoin:miter;stroke-opacity:1"
         d="M 9.5147102,24.478064 C 24.575507,24.656112 34.622174,23.726942 43.492644,22.538045"
         id="path3106"
         sodipodi:nodetypes="cc" />
      <path
         style="fill:none;fill-opacity:1;fill-rule:evenodd;stroke:url(#linearGradient3138);stroke-width:0.99999988px;stroke-linecap:butt;stroke-linejoin:miter;stroke-opacity:1"
         d="M 9.5147102,27.478064 C 24.575507,27.656112 34.622174,26.726942 43.492644,25.538045"
         id="path3108"
         sodipodi:nodetypes="cc" />
      <path
         style="fill:none;fill-opacity:1;fill-rule:evenodd;stroke:url(#linearGradient3138);stroke-width:0.99999982px;stroke-linecap:butt;stroke-linejoin:miter;stroke-opacity:1"
         d="M 5.5075372,30.903706 C 22.319088,31.081754 33.533639,30.152584 43.435264,28.963687"
         id="path3110"
         sodipodi:nodetypes="cc" />
      <path
         style="fill:none;fill-opacity:1;fill-rule:evenodd;stroke:url(#linearGradient3138);stroke-width:0.9999997px;stroke-linecap:butt;stroke-linejoin:miter;stroke-opacity:1"
         d="M 5.5573856,33.478064 C 22.346831,33.656112 33.546634,32.726942 43.435239,31.538045"
         id="path3112"
         sodipodi:nodetypes="cc" />
      <path
         style="fill:none;fill-opacity:1;fill-rule:evenodd;stroke:url(#linearGradient3138);stroke-width:0.9999997px;stroke-linecap:butt;stroke-linejoin:miter;stroke-opacity:1"
         d="M 5.5573856,36.440019 C 22.346831,36.618067 33.546634,35.688897 43.435239,34.5"
         id="path3114"
         sodipodi:nodetypes="cc" />
      <path
         sodipodi:nodetypes="cc"
         id="path3094"
         d="M 5.5573856,39.440019 C 22.346831,39.618067 33.546634,38.688897 43.435239,37.5"
         style="fill:none;fill-opacity:1;fill-rule:evenodd;stroke:url(#linearGradient3138);stroke-width:0.9999997px;stroke-linecap:butt;stroke-linejoin:miter;stroke-opacity:1" />
    </g>
    <g
       id="g3126"
       transform="translate(0,4)">
      <path
         sodipodi:nodetypes="csssssssccssssssscccccccsccccsccccccccccsssssccsssssccsssssccssssscccccccccccccccccccccccccccsssccsssssssccsssccccsssssccsssssccsssssccssssscccccccsccccsccccccccsssccccccssscccccsssccsssssssccsssccccccccccccccccccsssccsssssssccssscccsssccccccssscccsssccccccssscccccsssccsssssssccssscccsssccccccssscccssssscccccccssssscccsssccsssc"
         id="path3124"
         d="M 2.6696575,62.133942 C 2.6696536,61.605299 2.5602787,61.191237 2.3415325,60.891754 C 2.1253833,60.589675 1.8272065,60.438633 1.4470012,60.438629 C 1.0667906,60.438633 0.76731173,60.589675 0.54856372,60.891754 C 0.33241633,61.191237 0.22434352,61.605299 0.22434497,62.133942 C 0.22434352,62.662589 0.33241633,63.077953 0.54856372,63.380035 C 0.76731173,63.679515 1.0667906,63.829255 1.4470012,63.829254 C 1.8272065,63.829255 2.1253833,63.679515 2.3415325,63.380035 C 2.5602787,63.077953 2.6696536,62.662589 2.6696575,62.133942 M 0.22434497,60.606598 C 0.37538504,60.346185 0.56548901,60.153477 0.79465747,60.028473 C 1.0264261,59.900873 1.3024674,59.837071 1.6227825,59.837067 C 2.1540291,59.837071 2.5850182,60.048009 2.9157512,60.469879 C 3.2490801,60.891758 3.4157466,61.446445 3.4157512,62.133942 C 3.4157466,62.821443 3.2490801,63.37613 2.9157512,63.798004 C 2.5850182,64.219879 2.1540291,64.430817 1.6227825,64.430817 C 1.3024674,64.430817 1.0264261,64.368317 0.79465747,64.243317 C 0.56548901,64.115713 0.37538504,63.921703 0.22434497,63.661285 L 0.22434497,64.317535 L -0.49831128,64.317535 L -0.49831128,58.23941 L 0.22434497,58.23941 L 0.22434497,60.606598 M 6.42747,64.723785 C 6.2243426,65.244618 6.0264261,65.584461 5.83372,65.743317 C 5.6410098,65.902169 5.3831976,65.981596 5.0602825,65.981598 L 4.4860637,65.981598 L 4.4860637,65.380035 L 4.9079387,65.380035 C 5.1058541,65.380034 5.2594998,65.333159 5.3688762,65.23941 C 5.4782496,65.14566 5.5993432,64.924306 5.7321575,64.575348 L 5.8610637,64.247223 L 4.0915325,59.942535 L 4.8532512,59.942535 L 6.2204387,63.36441 L 7.5876262,59.942535 L 8.349345,59.942535 L 6.42747,64.723785 M 15.415751,58.67691 L 15.415751,59.446442 C 15.116268,59.303218 14.833716,59.196447 14.568095,59.126129 C 14.302467,59.055822 14.045957,59.020666 13.798564,59.02066 C 13.368874,59.020666 13.036843,59.103999 12.80247,59.27066 C 12.570698,59.437332 12.454812,59.674311 12.454814,59.981598 C 12.454812,60.239415 12.531635,60.434727 12.685282,60.567535 C 12.841531,60.697747 13.135801,60.803216 13.568095,60.883942 L 14.044657,60.981598 C 14.633196,61.09358 15.066789,61.291497 15.345439,61.575348 C 15.626684,61.8566 15.767309,62.234204 15.767314,62.70816 C 15.767309,63.273266 15.577205,63.701651 15.197001,63.993317 C 14.819393,64.284983 14.264706,64.430817 13.532939,64.430817 C 13.256895,64.430817 12.962624,64.399567 12.650126,64.337067 C 12.340229,64.274567 12.018615,64.182119 11.685282,64.059723 L 11.685282,63.247223 C 12.005594,63.426911 12.319396,63.562328 12.626689,63.653473 C 12.933979,63.744619 13.236062,63.790192 13.532939,63.790192 C 13.983457,63.790192 14.331113,63.701651 14.575907,63.524567 C 14.820695,63.347484 14.943091,63.09488 14.943095,62.766754 C 14.943091,62.480298 14.85455,62.25634 14.67747,62.094879 C 14.502987,61.933423 14.215227,61.81233 13.814189,61.731598 L 13.33372,61.637848 C 12.745177,61.520663 12.319396,61.33707 12.056376,61.087067 C 11.793355,60.83707 11.661844,60.489414 11.661845,60.044098 C 11.661844,59.528478 11.842834,59.122228 12.204814,58.825348 C 12.569396,58.528479 13.070697,58.380041 13.70872,58.380035 C 13.982155,58.380041 14.2608,58.404781 14.544657,58.454254 C 14.828508,58.503739 15.118872,58.577958 15.415751,58.67691 M 16.982157,59.942535 L 17.700907,59.942535 L 17.700907,64.317535 L 16.982157,64.317535 L 16.982157,59.942535 M 16.982157,58.23941 L 17.700907,58.23941 L 17.700907,59.149567 L 16.982157,59.149567 L 16.982157,58.23941 M 19.200907,58.23941 L 19.919657,58.23941 L 19.919657,64.317535 L 19.200907,64.317535 L 19.200907,58.23941 M 20.904032,59.942535 L 21.665751,59.942535 L 23.032939,63.61441 L 24.400126,59.942535 L 25.161845,59.942535 L 23.52122,64.317535 L 22.544657,64.317535 L 20.904032,59.942535 M 29.89622,61.950348 L 29.89622,62.30191 L 26.591532,62.30191 C 26.622781,62.796704 26.771219,63.174307 27.036845,63.434723 C 27.305072,63.692536 27.677468,63.821442 28.154032,63.821442 C 28.430071,63.821442 28.696998,63.787588 28.954814,63.719879 C 29.215227,63.652172 29.473039,63.550609 29.728251,63.415192 L 29.728251,64.094879 C 29.470435,64.204254 29.206112,64.287588 28.935282,64.344879 C 28.664446,64.402171 28.389707,64.430817 28.111064,64.430817 C 27.413145,64.430817 26.85976,64.227692 26.450907,63.821442 C 26.044657,63.415193 25.841532,62.865714 25.841532,62.173004 C 25.841532,61.456861 26.03424,60.889154 26.419657,60.469879 C 26.807677,60.048009 27.329812,59.837071 27.986064,59.837067 C 28.574602,59.837071 29.039445,60.027175 29.380595,60.407379 C 29.724341,60.784987 29.896215,61.299309 29.89622,61.950348 M 29.17747,61.73941 C 29.172258,61.346184 29.061581,61.032383 28.845439,60.798004 C 28.631894,60.563633 28.34804,60.446446 27.993876,60.446442 C 27.592832,60.446446 27.271218,60.559727 27.029032,60.786285 C 26.789448,61.012851 26.651427,61.331861 26.61497,61.743317 L 29.17747,61.73941 M 33.849345,60.071442 L 33.849345,60.751129 C 33.646217,60.646966 33.435279,60.568841 33.216532,60.516754 C 32.99778,60.464675 32.771218,60.438633 32.536845,60.438629 C 32.180072,60.438633 31.911843,60.493321 31.732157,60.602692 C 31.555073,60.71207 31.466531,60.876133 31.466532,61.094879 C 31.466531,61.261549 31.530333,61.393059 31.657939,61.48941 C 31.785541,61.583163 32.042052,61.673007 32.42747,61.758942 L 32.673564,61.813629 C 33.183978,61.923007 33.545956,62.077954 33.759501,62.278473 C 33.975643,62.476392 34.083716,62.753735 34.08372,63.110504 C 34.083716,63.516755 33.922258,63.838369 33.599345,64.075348 C 33.279029,64.312327 32.837624,64.430817 32.275126,64.430817 C 32.040749,64.430817 31.795958,64.407379 31.540751,64.360504 C 31.288146,64.316233 31.021219,64.248525 30.73997,64.157379 L 30.73997,63.415192 C 31.005594,63.553213 31.267313,63.65738 31.525126,63.727692 C 31.782937,63.795401 32.038145,63.829255 32.290751,63.829254 C 32.629291,63.829255 32.889707,63.771963 33.072001,63.657379 C 33.25429,63.540193 33.345436,63.37613 33.345439,63.165192 C 33.345436,62.969881 33.279029,62.820141 33.14622,62.715973 C 33.016009,62.611808 32.728249,62.511548 32.282939,62.415192 L 32.032939,62.356598 C 31.587625,62.26285 31.266011,62.119621 31.068095,61.92691 C 30.870178,61.731601 30.77122,61.464674 30.77122,61.126129 C 30.77122,60.714675 30.917053,60.396966 31.20872,60.173004 C 31.500385,59.94905 31.914448,59.837071 32.450907,59.837067 C 32.71653,59.837071 32.96653,59.856602 33.200907,59.89566 C 33.435279,59.934727 33.651425,59.993321 33.849345,60.071442 M 35.92747,58.700348 L 35.92747,59.942535 L 37.407939,59.942535 L 37.407939,60.501129 L 35.92747,60.501129 L 35.92747,62.876129 C 35.927469,63.232901 35.975646,63.462068 36.072001,63.563629 C 36.170958,63.665192 36.370176,63.715974 36.669657,63.715973 L 37.407939,63.715973 L 37.407939,64.317535 L 36.669657,64.317535 C 36.114968,64.317535 35.732156,64.214671 35.52122,64.008942 C 35.310282,63.800609 35.204813,63.423005 35.204814,62.876129 L 35.204814,60.501129 L 34.67747,60.501129 L 34.67747,59.942535 L 35.204814,59.942535 L 35.204814,58.700348 L 35.92747,58.700348 M 40.892314,60.61441 C 40.811581,60.567539 40.72304,60.533685 40.626689,60.512848 C 40.532936,60.489414 40.428769,60.477696 40.314189,60.477692 C 39.907936,60.477696 39.595437,60.610508 39.376689,60.876129 C 39.160541,61.139153 39.052469,61.518059 39.05247,62.012848 L 39.05247,64.317535 L 38.329814,64.317535 L 38.329814,59.942535 L 39.05247,59.942535 L 39.05247,60.622223 C 39.20351,60.356602 39.400124,60.159988 39.642314,60.032379 C 39.884499,59.902175 40.178769,59.837071 40.525126,59.837067 C 40.574602,59.837071 40.62929,59.840977 40.689189,59.848785 C 40.749081,59.853998 40.815488,59.863113 40.888407,59.876129 L 40.892314,60.61441 M 45.380595,61.950348 L 45.380595,62.30191 L 42.075907,62.30191 C 42.107156,62.796704 42.255594,63.174307 42.52122,63.434723 C 42.789447,63.692536 43.161843,63.821442 43.638407,63.821442 C 43.914446,63.821442 44.181373,63.787588 44.439189,63.719879 C 44.699602,63.652172 44.957414,63.550609 45.212626,63.415192 L 45.212626,64.094879 C 44.95481,64.204254 44.690487,64.287588 44.419657,64.344879 C 44.148821,64.402171 43.874082,64.430817 43.595439,64.430817 C 42.89752,64.430817 42.344135,64.227692 41.935282,63.821442 C 41.529032,63.415193 41.325907,62.865714 41.325907,62.173004 C 41.325907,61.456861 41.518615,60.889154 41.904032,60.469879 C 42.292052,60.048009 42.814187,59.837071 43.470439,59.837067 C 44.058977,59.837071 44.52382,60.027175 44.86497,60.407379 C 45.208716,60.784987 45.38059,61.299309 45.380595,61.950348 M 44.661845,61.73941 C 44.656633,61.346184 44.545956,61.032383 44.329814,60.798004 C 44.116269,60.563633 43.832415,60.446446 43.478251,60.446442 C 43.077207,60.446446 42.755593,60.559727 42.513407,60.786285 C 42.273823,61.012851 42.135802,61.331861 42.099345,61.743317 L 44.661845,61.73941 M 49.122782,58.485504 L 49.911845,58.485504 L 49.911845,60.876129 L 52.779032,60.876129 L 52.779032,58.485504 L 53.568095,58.485504 L 53.568095,64.317535 L 52.779032,64.317535 L 52.779032,61.540192 L 49.911845,61.540192 L 49.911845,64.317535 L 49.122782,64.317535 L 49.122782,58.485504 M 58.849345,61.950348 L 58.849345,62.30191 L 55.544657,62.30191 C 55.575906,62.796704 55.724344,63.174307 55.98997,63.434723 C 56.258197,63.692536 56.630593,63.821442 57.107157,63.821442 C 57.383196,63.821442 57.650123,63.787588 57.907939,63.719879 C 58.168352,63.652172 58.426164,63.550609 58.681376,63.415192 L 58.681376,64.094879 C 58.42356,64.204254 58.159237,64.287588 57.888407,64.344879 C 57.617571,64.402171 57.342832,64.430817 57.064189,64.430817 C 56.36627,64.430817 55.812885,64.227692 55.404032,63.821442 C 54.997782,63.415193 54.794657,62.865714 54.794657,62.173004 C 54.794657,61.456861 54.987365,60.889154 55.372782,60.469879 C 55.760802,60.048009 56.282937,59.837071 56.939189,59.837067 C 57.527727,59.837071 57.99257,60.027175 58.33372,60.407379 C 58.677466,60.784987 58.84934,61.299309 58.849345,61.950348 M 58.130595,61.73941 C 58.125383,61.346184 58.014706,61.032383 57.798564,60.798004 C 57.585019,60.563633 57.301165,60.446446 56.947001,60.446442 C 56.545957,60.446446 56.224343,60.559727 55.982157,60.786285 C 55.742573,61.012851 55.604552,61.331861 55.568095,61.743317 L 58.130595,61.73941 M 62.548564,60.61441 C 62.467831,60.567539 62.37929,60.533685 62.282939,60.512848 C 62.189186,60.489414 62.085019,60.477696 61.970439,60.477692 C 61.564186,60.477696 61.251687,60.610508 61.032939,60.876129 C 60.816791,61.139153 60.708719,61.518059 60.70872,62.012848 L 60.70872,64.317535 L 59.986064,64.317535 L 59.986064,59.942535 L 60.70872,59.942535 L 60.70872,60.622223 C 60.85976,60.356602 61.056374,60.159988 61.298564,60.032379 C 61.540749,59.902175 61.835019,59.837071 62.181376,59.837067 C 62.230852,59.837071 62.28554,59.840977 62.345439,59.848785 C 62.405331,59.853998 62.471738,59.863113 62.544657,59.876129 L 62.548564,60.61441 M 65.829814,60.61441 C 65.749081,60.567539 65.66054,60.533685 65.564189,60.512848 C 65.470436,60.489414 65.366269,60.477696 65.251689,60.477692 C 64.845436,60.477696 64.532937,60.610508 64.314189,60.876129 C 64.098041,61.139153 63.989969,61.518059 63.98997,62.012848 L 63.98997,64.317535 L 63.267314,64.317535 L 63.267314,59.942535 L 63.98997,59.942535 L 63.98997,60.622223 C 64.14101,60.356602 64.337624,60.159988 64.579814,60.032379 C 64.821999,59.902175 65.116269,59.837071 65.462626,59.837067 C 65.512102,59.837071 65.56679,59.840977 65.626689,59.848785 C 65.686581,59.853998 65.752988,59.863113 65.825907,59.876129 L 65.829814,60.61441 M 70.318095,61.950348 L 70.318095,62.30191 L 67.013407,62.30191 C 67.044656,62.796704 67.193094,63.174307 67.45872,63.434723 C 67.726947,63.692536 68.099343,63.821442 68.575907,63.821442 C 68.851946,63.821442 69.118873,63.787588 69.376689,63.719879 C 69.637102,63.652172 69.894914,63.550609 70.150126,63.415192 L 70.150126,64.094879 C 69.89231,64.204254 69.627987,64.287588 69.357157,64.344879 C 69.086321,64.402171 68.811582,64.430817 68.532939,64.430817 C 67.83502,64.430817 67.281635,64.227692 66.872782,63.821442 C 66.466532,63.415193 66.263407,62.865714 66.263407,62.173004 C 66.263407,61.456861 66.456115,60.889154 66.841532,60.469879 C 67.229552,60.048009 67.751687,59.837071 68.407939,59.837067 C 68.996477,59.837071 69.46132,60.027175 69.80247,60.407379 C 70.146216,60.784987 70.31809,61.299309 70.318095,61.950348 M 69.599345,61.73941 C 69.594133,61.346184 69.483456,61.032383 69.267314,60.798004 C 69.053769,60.563633 68.769915,60.446446 68.415751,60.446442 C 68.014707,60.446446 67.693093,60.559727 67.450907,60.786285 C 67.211323,61.012851 67.073302,61.331861 67.036845,61.743317 L 69.599345,61.73941 M 74.017314,60.61441 C 73.936581,60.567539 73.84804,60.533685 73.751689,60.512848 C 73.657936,60.489414 73.553769,60.477696 73.439189,60.477692 C 73.032936,60.477696 72.720437,60.610508 72.501689,60.876129 C 72.285541,61.139153 72.177469,61.518059 72.17747,62.012848 L 72.17747,64.317535 L 71.454814,64.317535 L 71.454814,59.942535 L 72.17747,59.942535 L 72.17747,60.622223 C 72.32851,60.356602 72.525124,60.159988 72.767314,60.032379 C 73.009499,59.902175 73.303769,59.837071 73.650126,59.837067 C 73.699602,59.837071 73.75429,59.840977 73.814189,59.848785 C 73.874081,59.853998 73.940488,59.863113 74.013407,59.876129 L 74.017314,60.61441 M 76.751689,62.118317 C 76.170957,62.118319 75.768614,62.184725 75.544657,62.317535 C 75.320698,62.45035 75.208719,62.676912 75.20872,62.997223 C 75.208719,63.252432 75.292052,63.455557 75.45872,63.606598 C 75.627989,63.755036 75.857156,63.829255 76.14622,63.829254 C 76.544655,63.829255 76.863665,63.68863 77.103251,63.407379 C 77.345435,63.123526 77.466529,62.747225 77.466532,62.278473 L 77.466532,62.118317 L 76.751689,62.118317 M 78.185282,61.821442 L 78.185282,64.317535 L 77.466532,64.317535 L 77.466532,63.653473 C 77.302467,63.919098 77.09804,64.115713 76.853251,64.243317 C 76.608457,64.368317 76.308978,64.430817 75.954814,64.430817 C 75.506896,64.430817 75.150125,64.305817 74.884501,64.055817 C 74.62148,63.803213 74.489969,63.465974 74.48997,63.044098 C 74.489969,62.551912 74.654032,62.180819 74.982157,61.930817 C 75.312885,61.680819 75.805072,61.55582 76.45872,61.555817 L 77.466532,61.555817 L 77.466532,61.485504 C 77.466529,61.154778 77.357154,60.89957 77.138407,60.719879 C 76.922259,60.537591 76.617572,60.446446 76.224345,60.446442 C 75.974343,60.446446 75.730854,60.476394 75.493876,60.536285 C 75.256896,60.596185 75.029031,60.686029 74.810282,60.805817 L 74.810282,60.141754 C 75.073302,60.040196 75.32851,59.964675 75.575907,59.915192 C 75.823301,59.863113 76.064187,59.837071 76.298564,59.837067 C 76.931373,59.837071 77.404029,60.001134 77.716532,60.329254 C 78.029028,60.657383 78.185278,61.154778 78.185282,61.821442"
         style="font-size:12px;font-style:normal;font-weight:normal;line-height:125%;fill:#646464;fill-opacity:1;stroke:none;stroke-width:1px;stroke-linecap:butt;stroke-linejoin:miter;stroke-opacity:1;font-family:Bitstream Vera Sans" />
      <path
         style="font-size:8px;font-style:normal;font-variant:normal;font-weight:bold;font-stretch:normal;text-align:start;line-height:125%;writing-mode:lr-tb;text-anchor:start;fill:#000000;fill-opacity:1;stroke:none;stroke-width:1px;stroke-linecap:butt;stroke-linejoin:miter;stroke-opacity:1;font-family:Bitstream Vera Sans"
         d="M -0.515625,55.292969 L 0.98828125,55.292969 L 0.98828125,57.515625 L 3.2070312,57.515625 L 3.2070312,55.292969 L 4.7109375,55.292969 L 4.7109375,61.125 L 3.2070312,61.125 L 3.2070312,58.652344 L 0.98828125,58.652344 L 0.98828125,61.125 L -0.515625,61.125 L -0.515625,55.292969 M 8.1914062,57.644531 C 7.881508,57.644535 7.644529,57.756514 7.4804688,57.980469 C 7.3190085,58.201826 7.2382794,58.522138 7.2382812,58.941406 C 7.2382794,59.360679 7.3190085,59.682293 7.4804688,59.90625 C 7.644529,60.127605 7.881508,60.238282 8.1914062,60.238281 C 8.4960907,60.238282 8.7291634,60.127605 8.890625,59.90625 C 9.0520797,59.682293 9.1328088,59.360679 9.1328125,58.941406 C 9.1328088,58.522138 9.0520797,58.201826 8.890625,57.980469 C 8.7291634,57.756514 8.4960907,57.644535 8.1914062,57.644531 M 8.1914062,56.644531 C 8.9440069,56.644536 9.5312459,56.847661 9.953125,57.253906 C 10.377599,57.66016 10.589839,58.222659 10.589844,58.941406 C 10.589839,59.660158 10.377599,60.222657 9.953125,60.628906 C 9.5312459,61.035156 8.9440069,61.238281 8.1914062,61.238281 C 7.4361959,61.238281 6.8450507,61.035156 6.4179688,60.628906 C 5.993489,60.222657 5.7812497,59.660158 5.78125,58.941406 C 5.7812497,58.222659 5.993489,57.66016 6.4179688,57.253906 C 6.8450507,56.847661 7.4361959,56.644536 8.1914062,56.644531 M 15.664062,57.476562 C 15.841141,57.205733 16.050776,57.000004 16.292969,56.859375 C 16.537755,56.71615 16.805984,56.644536 17.097656,56.644531 C 17.600254,56.644536 17.983066,56.799483 18.246094,57.109375 C 18.509107,57.419275 18.640617,57.869795 18.640625,58.460938 L 18.640625,61.125 L 17.234375,61.125 L 17.234375,58.84375 C 17.236973,58.809898 17.238275,58.774742 17.238281,58.738281 C 17.240879,58.701825 17.242181,58.649742 17.242188,58.582031 C 17.242181,58.272138 17.196608,58.04818 17.105469,57.910156 C 17.014317,57.769535 16.867182,57.699222 16.664062,57.699219 C 16.398432,57.699222 16.192703,57.808597 16.046875,58.027344 C 15.903641,58.246097 15.829422,58.562503 15.824219,58.976562 L 15.824219,61.125 L 14.417969,61.125 L 14.417969,58.84375 C 14.417965,58.359378 14.376299,58.04818 14.292969,57.910156 C 14.209632,57.769535 14.061195,57.699222 13.847656,57.699219 C 13.579424,57.699222 13.372393,57.809899 13.226562,58.03125 C 13.080727,58.250003 13.00781,58.563805 13.007812,58.972656 L 13.007812,61.125 L 11.601562,61.125 L 11.601562,56.75 L 13.007812,56.75 L 13.007812,57.390625 C 13.179685,57.143233 13.3763,56.957035 13.597656,56.832031 C 13.821612,56.707036 14.067705,56.644536 14.335938,56.644531 C 14.638017,56.644536 14.904944,56.717452 15.136719,56.863281 C 15.368485,57.009119 15.544266,57.213546 15.664062,57.476562 M 24.320312,58.925781 L 24.320312,59.324219 L 21.050781,59.324219 C 21.084634,59.652345 21.203123,59.898439 21.40625,60.0625 C 21.609373,60.226563 21.893227,60.308595 22.257812,60.308594 C 22.55208,60.308595 22.852861,60.265626 23.160156,60.179688 C 23.470048,60.091147 23.787756,59.958334 24.113281,59.78125 L 24.113281,60.859375 C 23.782548,60.984375 23.451819,61.078125 23.121094,61.140625 C 22.790361,61.205729 22.459632,61.238281 22.128906,61.238281 C 21.337238,61.238281 20.721353,61.037761 20.28125,60.636719 C 19.843749,60.233074 19.625,59.66797 19.625,58.941406 C 19.625,58.227867 19.839843,57.66667 20.269531,57.257812 C 20.701821,56.848963 21.295571,56.644536 22.050781,56.644531 C 22.738278,56.644536 23.287756,56.851567 23.699219,57.265625 C 24.113276,57.679691 24.320307,58.233076 24.320312,58.925781 M 22.882812,58.460938 C 22.882809,58.195315 22.804684,57.981774 22.648438,57.820312 C 22.494788,57.656253 22.292966,57.574222 22.042969,57.574219 C 21.772133,57.574222 21.552081,57.651045 21.382812,57.804688 C 21.21354,57.955732 21.108071,58.174482 21.066406,58.460938 L 22.882812,58.460938"
         id="text3124"
         transform="translate(0,-4)" />
    </g>
  </g>
  <g
     inkscape:groupmode="layer"
     id="layer3"
     inkscape:label="folder-color">
    <path
       style="fill:#debc79;fill-opacity:1;fill-rule:evenodd;stroke:#7f7048;stroke-width:0.9999997px;stroke-linecap:butt;stroke-linejoin:round;stroke-opacity:1"
       d="M 43.512843,1.5008054 C 40.007865,6.4198824 27.677282,7.497919 15.500255,8.6427856 L 15.500255,47.5 C 27.099222,46.494702 39.297069,45.768148 43.512843,41.326424 L 43.512843,1.5008054 z "
       id="path2182"
       sodipodi:nodetypes="ccccc" />
  </g>
  <g
     inkscape:groupmode="layer"
     id="layer2"
     inkscape:label="lights">
    <path
       style="fill:url(#radialGradient1372);fill-opacity:1;fill-rule:evenodd;stroke:none;stroke-width:0.99999905px;stroke-linecap:butt;stroke-linejoin:round;stroke-opacity:1"
       d="M 43,3 C 38.442581,6.6597237 27.736856,8.1031665 16,9.3050897 L 16,47 C 27.179692,46.025057 38.936615,45.320442 43,41.012839 L 43,3 z "
       id="path2252"
       sodipodi:nodetypes="ccccc" />
    <path
       style="fill:url(#radialGradient1374);fill-opacity:1;fill-rule:evenodd;stroke:none;stroke-width:0.99999905px;stroke-linecap:butt;stroke-linejoin:round;stroke-opacity:1"
       d="M 42.553534,3.4886564 C 38.155871,7.6529878 27.825429,8.3972241 16.5,9.55667 L 16.5,46.522318 C 27.287795,45.581831 38.632588,44.902117 42.553534,40.746748 L 42.553534,3.4886564 z "
       id="path1364"
       sodipodi:nodetypes="ccccc" />
    <path
       style="fill:none;fill-opacity:1;fill-rule:evenodd;stroke:url(#linearGradient1376);stroke-width:0.99999905px;stroke-linecap:butt;stroke-linejoin:round;stroke-opacity:1"
       d="M 42.553534,3.4886564 C 38.155871,7.6529878 27.825429,8.3972241 16.5,9.55667 L 16.5,46.522318 C 27.287795,45.581831 38.632588,44.902117 42.553534,40.746748 L 42.553534,3.4886564 z "
       id="path2204"
       sodipodi:nodetypes="ccccc" />
    <path
       style="opacity:0.76190476;fill:url(#radialGradient2251);fill-opacity:1.0;stroke:none;stroke-width:1;stroke-linecap:round;stroke-linejoin:round;stroke-miterlimit:4;stroke-dashoffset:0;stroke-opacity:1"
       d="M 29.887919,19 L 19,30.36738 L 24.03075,29.44481 L 24.03075,39 C 25.430581,38.94729 27.368662,38.516475 29.005681,37.985108 L 29.005681,30.795717 L 34.010293,29.873146 L 34.010293,37.039655 C 35.092659,36.750045 35.564763,36.478181 36.004367,36.007779 L 36.004367,27.237232 L 41,26.281713 L 29.887919,19 z "
       id="rect1371"
       sodipodi:nodetypes="cccccccccccc" />
  </g>
</svg>
