<?xml version="1.0" encoding="UTF-8" standalone="no"?>
<!-- Created with Inkscape (http://www.inkscape.org/) -->
<svg
   xmlns:dc="http://purl.org/dc/elements/1.1/"
   xmlns:cc="http://web.resource.org/cc/"
   xmlns:rdf="http://www.w3.org/1999/02/22-rdf-syntax-ns#"
   xmlns:svg="http://www.w3.org/2000/svg"
   xmlns="http://www.w3.org/2000/svg"
   xmlns:xlink="http://www.w3.org/1999/xlink"
   xmlns:sodipodi="http://inkscape.sourceforge.net/DTD/sodipodi-0.dtd"
   xmlns:inkscape="http://www.inkscape.org/namespaces/inkscape"
   width="48"
   height="48"
   id="svg2"
   sodipodi:version="0.32"
   inkscape:version="0.43"
   version="1.0"
   sodipodi:docbase="/home/silvestre/Desktop/Gion/scalable/categories"
   sodipodi:docname="applications-internet.svg"
   inkscape:export-filename="/home/silvestre/Gion/PNGs/applications-internet.png"
   inkscape:export-xdpi="90"
   inkscape:export-ydpi="90">
  <defs
     id="defs4">
    <linearGradient
       inkscape:collect="always"
       id="linearGradient2259">
      <stop
         style="stop-color:#ffffff;stop-opacity:1;"
         offset="0"
         id="stop2261" />
      <stop
         style="stop-color:#ffffff;stop-opacity:0;"
         offset="1"
         id="stop2263" />
    </linearGradient>
    <linearGradient
       inkscape:collect="always"
       id="linearGradient2221">
      <stop
         style="stop-color:#ffffff;stop-opacity:1;"
         offset="0"
         id="stop2224" />
      <stop
         style="stop-color:#ffffff;stop-opacity:0;"
         offset="1"
         id="stop2226" />
    </linearGradient>
    <linearGradient
       id="linearGradient2219">
      <stop
         id="stop2229"
         offset="0"
         style="stop-color:#000000;stop-opacity:0;" />
      <stop
         id="stop2227"
         offset="0.54545456"
         style="stop-color:#000000;stop-opacity:0.16078431;" />
      <stop
         style="stop-color:#000000;stop-opacity:0.4040404;"
         offset="1"
         id="stop2223" />
    </linearGradient>
    <linearGradient
       inkscape:collect="always"
       id="linearGradient4930">
      <stop
         style="stop-color:#000000;stop-opacity:1;"
         offset="0"
         id="stop4932" />
      <stop
         style="stop-color:#000000;stop-opacity:0;"
         offset="1"
         id="stop4934" />
    </linearGradient>
    <linearGradient
       inkscape:collect="always"
       id="linearGradient4047">
      <stop
         style="stop-color:#ffffff;stop-opacity:0.92156863"
         offset="0"
         id="stop4049" />
      <stop
         style="stop-color:#ffffff;stop-opacity:0.16078432"
         offset="1"
         id="stop4051" />
    </linearGradient>
    <linearGradient
       inkscape:collect="always"
       id="linearGradient3166">
      <stop
         style="stop-color:#ffffff;stop-opacity:0.65665233"
         offset="0"
         id="stop3168" />
      <stop
         style="stop-color:#ffffff;stop-opacity:0;"
         offset="1"
         id="stop3170" />
    </linearGradient>
    <linearGradient
       inkscape:collect="always"
       id="linearGradient3156">
      <stop
         style="stop-color:#ffffff;stop-opacity:1;"
         offset="0"
         id="stop3158" />
      <stop
         style="stop-color:#ffffff;stop-opacity:0;"
         offset="1"
         id="stop3160" />
    </linearGradient>
    <linearGradient
       id="linearGradient2183">
      <stop
         style="stop-color:#d2e7f4;stop-opacity:1;"
         offset="0"
         id="stop2185" />
      <stop
         id="stop2191"
         offset="0"
         style="stop-color:#79b6de;stop-opacity:1;" />
      <stop
         style="stop-color:#3a8cc2;stop-opacity:1;"
         offset="0.75"
         id="stop2193" />
      <stop
         id="stop2195"
         offset="0.85227275"
         style="stop-color:#327fb0;stop-opacity:1;" />
      <stop
         style="stop-color:#216089;stop-opacity:1;"
         offset="1"
         id="stop2187" />
    </linearGradient>
    <radialGradient
       inkscape:collect="always"
       xlink:href="#linearGradient2183"
       id="radialGradient2189"
       cx="21.449108"
       cy="19.917389"
       fx="21.449108"
       fy="19.917389"
       r="22.463523"
       gradientUnits="userSpaceOnUse"
       gradientTransform="matrix(1.045495,-6.636715e-32,-3.632232e-32,1.044979,-1.27313,-1.354386)" />
    <radialGradient
       inkscape:collect="always"
       xlink:href="#linearGradient4930"
       id="radialGradient4936"
       cx="23.6875"
       cy="41.5"
       fx="23.6875"
       fy="47.352863"
       r="21.9375"
       gradientTransform="matrix(1,0,0,0.250712,0,31.09544)"
       gradientUnits="userSpaceOnUse" />
    <radialGradient
       inkscape:collect="always"
       xlink:href="#linearGradient2219"
       id="radialGradient2239"
       gradientUnits="userSpaceOnUse"
       gradientTransform="matrix(1.333871,-4.978853e-23,-2.22274e-22,1.54762,-7.26171,-10.92112)"
       cx="21.75"
       cy="16.740391"
       fx="21.75"
       fy="16.740391"
       r="15" />
    <radialGradient
       inkscape:collect="always"
       xlink:href="#linearGradient3166"
       id="radialGradient2244"
       gradientUnits="userSpaceOnUse"
       gradientTransform="matrix(0.611646,6.322461e-3,-3.975138e-3,0.384933,10.78215,21.84289)"
       cx="21.857351"
       cy="38.774254"
       fx="21.902714"
       fy="45.754158"
       r="21.021248" />
    <linearGradient
       inkscape:collect="always"
       xlink:href="#linearGradient4047"
       id="linearGradient2246"
       gradientUnits="userSpaceOnUse"
       x1="24"
       y1="-1.4128544e-07"
       x2="24"
       y2="33.061165" />
    <linearGradient
       inkscape:collect="always"
       xlink:href="#linearGradient2221"
       id="linearGradient2322"
       gradientUnits="userSpaceOnUse"
       x1="28.290144"
       y1="41.78054"
       x2="28.290144"
       y2="20.663898" />
    <linearGradient
       inkscape:collect="always"
       xlink:href="#linearGradient2221"
       id="linearGradient2324"
       gradientUnits="userSpaceOnUse"
       x1="27.88064"
       y1="7.2105503"
       x2="28.290144"
       y2="20.663898" />
    <linearGradient
       inkscape:collect="always"
       xlink:href="#linearGradient2221"
       id="linearGradient2326"
       gradientUnits="userSpaceOnUse"
       x1="27.88064"
       y1="7.2105503"
       x2="28.290144"
       y2="20.663898" />
    <linearGradient
       inkscape:collect="always"
       xlink:href="#linearGradient2221"
       id="linearGradient2328"
       gradientUnits="userSpaceOnUse"
       x1="30.708502"
       y1="39.256168"
       x2="31.181814"
       y2="25.062527" />
    <radialGradient
       inkscape:collect="always"
       xlink:href="#linearGradient2259"
       id="radialGradient2330"
       gradientUnits="userSpaceOnUse"
       cx="29.625"
       cy="37.875"
       fx="29.625"
       fy="37.875"
       r="1.75" />
    <radialGradient
       inkscape:collect="always"
       xlink:href="#linearGradient2259"
       id="radialGradient2332"
       gradientUnits="userSpaceOnUse"
       cx="29.625"
       cy="37.875"
       fx="29.625"
       fy="37.875"
       r="1.75" />
    <radialGradient
       inkscape:collect="always"
       xlink:href="#linearGradient2259"
       id="radialGradient2334"
       gradientUnits="userSpaceOnUse"
       cx="29.625"
       cy="37.875"
       fx="29.625"
       fy="37.875"
       r="1.75" />
    <radialGradient
       inkscape:collect="always"
       xlink:href="#linearGradient2259"
       id="radialGradient2336"
       gradientUnits="userSpaceOnUse"
       cx="29.625"
       cy="37.875"
       fx="29.625"
       fy="37.875"
       r="1.75" />
    <radialGradient
       inkscape:collect="always"
       xlink:href="#linearGradient3156"
       id="radialGradient2250"
       cx="25.75"
       cy="14.019246"
       fx="25.75"
       fy="7.5577765"
       r="14"
       gradientTransform="matrix(1,0,0,0.571429,0,6.642857)"
       gradientUnits="userSpaceOnUse" />
  </defs>
  <sodipodi:namedview
     id="base"
     pagecolor="#ffffff"
     bordercolor="#666666"
     borderopacity="1.0"
     inkscape:pageopacity="0.0"
     inkscape:pageshadow="2"
     inkscape:zoom="1"
     inkscape:cx="36.102465"
     inkscape:cy="34.103245"
     inkscape:document-units="px"
     inkscape:current-layer="layer4"
     showgrid="false"
     inkscape:grid-bbox="false"
     showguides="true"
     inkscape:guide-bbox="true"
     inkscape:window-width="889"
     inkscape:window-height="582"
     inkscape:window-x="6"
     inkscape:window-y="46"
     showborder="false"
     inkscape:showpageshadow="false" />
  <metadata
     id="metadata7">
    <rdf:RDF>
      <cc:Work
         rdf:about="">
        <dc:format>image/svg+xml</dc:format>
        <dc:type
           rdf:resource="http://purl.org/dc/dcmitype/StillImage" />
        <dc:title>Internet Applications</dc:title>
        <dc:creator>
          <cc:Agent>
            <dc:title>Silvestre Herrera</dc:title>
          </cc:Agent>
        </dc:creator>
        <cc:license
           rdf:resource="http://creativecommons.org/licenses/GPL/2.0/" />
        <dc:subject>
          <rdf:Bag>
            <rdf:li>Internet</rdf:li>
          </rdf:Bag>
        </dc:subject>
      </cc:Work>
      <cc:License
         rdf:about="http://creativecommons.org/licenses/GPL/2.0/">
        <cc:permits
           rdf:resource="http://web.resource.org/cc/Reproduction" />
        <cc:permits
           rdf:resource="http://web.resource.org/cc/Distribution" />
        <cc:requires
           rdf:resource="http://web.resource.org/cc/Notice" />
        <cc:permits
           rdf:resource="http://web.resource.org/cc/DerivativeWorks" />
        <cc:requires
           rdf:resource="http://web.resource.org/cc/ShareAlike" />
        <cc:requires
           rdf:resource="http://web.resource.org/cc/SourceCode" />
      </cc:License>
    </rdf:RDF>
  </metadata>
  <g
     inkscape:label="water"
     inkscape:groupmode="layer"
     id="layer1">
    <path
       sodipodi:type="arc"
       style="opacity:0.38095236;fill:url(#radialGradient4936);fill-opacity:1;stroke:none;stroke-width:1;stroke-linecap:round;stroke-linejoin:round;stroke-miterlimit:4;stroke-dasharray:none;stroke-dashoffset:0;stroke-opacity:0.16078431"
       id="path4055"
       sodipodi:cx="23.6875"
       sodipodi:cy="41.5"
       sodipodi:rx="21.9375"
       sodipodi:ry="5.5"
       d="M 45.625 41.5 A 21.9375 5.5 0 1 1  1.75,41.5 A 21.9375 5.5 0 1 1  45.625 41.5 z"
       transform="matrix(1.045584,0,0,1.090909,-0.704772,-3.272727)" />
    <path
       style="fill:url(#radialGradient2189);fill-opacity:1;stroke:#486a7f;stroke-width:0.99999994;stroke-linecap:round;stroke-linejoin:round;stroke-miterlimit:4;stroke-dashoffset:0;stroke-opacity:1"
       d="M 45.52176,22.988883 C 45.52176,34.863021 35.880016,44.5 24.000011,44.5 C 12.120005,44.5 2.478261,34.863021 2.478261,22.988883 C 2.478261,11.114747 12.120005,1.4777665 24.000011,1.4777665 C 35.880016,1.4777665 45.52176,11.114747 45.52176,22.988883 z "
       id="path1307" />
    <g
       id="g2224"
       transform="translate(3.535534,-29.52171)">
      <path
         id="text1345"
         d="M -1.2401967,91.109299 C -1.2402006,90.580656 -1.3495755,90.166593 -1.5683217,89.867111 C -1.7844709,89.565032 -2.0826477,89.41399 -2.462853,89.413986 C -2.8430636,89.41399 -3.1425424,89.565032 -3.3612905,89.867111 C -3.5774378,90.166593 -3.6855107,90.580656 -3.6855092,91.109299 C -3.6855107,91.637946 -3.5774378,92.05331 -3.3612905,92.355392 C -3.1425424,92.654872 -2.8430636,92.804612 -2.462853,92.804611 C -2.0826477,92.804612 -1.7844709,92.654872 -1.5683217,92.355392 C -1.3495755,92.05331 -1.2402006,91.637946 -1.2401967,91.109299 M -3.6855092,89.581955 C -3.5344691,89.321542 -3.3443652,89.128834 -3.1151967,89.00383 C -2.8834281,88.87623 -2.6073867,88.812428 -2.2870717,88.812424 C -1.7558251,88.812428 -1.3248359,89.023365 -0.99410295,89.445236 C -0.6607741,89.867115 -0.4941076,90.421802 -0.49410295,91.109299 C -0.4941076,91.7968 -0.6607741,92.351487 -0.99410295,92.773361 C -1.3248359,93.195236 -1.7558251,93.406174 -2.2870717,93.406174 C -2.6073867,93.406174 -2.8834281,93.343674 -3.1151967,93.218674 C -3.3443652,93.09107 -3.5344691,92.89706 -3.6855092,92.636642 L -3.6855092,93.292892 L -4.4081655,93.292892 L -4.4081655,87.214767 L -3.6855092,87.214767 L -3.6855092,89.581955 M 2.5176158,93.699142 C 2.3144884,94.219975 2.116572,94.559818 1.9238658,94.718674 C 1.7311557,94.877526 1.4733434,94.956953 1.1504283,94.956955 L 0.57620955,94.956955 L 0.57620955,94.355392 L 0.99808455,94.355392 C 1.196,94.355391 1.3496456,94.308516 1.459022,94.214767 C 1.5683954,94.121017 1.689489,93.899663 1.8223033,93.550705 L 1.9512095,93.22258 L 0.1816783,88.917892 L 0.94339705,88.917892 L 2.3105845,92.339767 L 3.677772,88.917892 L 4.4394908,88.917892 L 2.5176158,93.699142 M 11.505897,87.652267 L 11.505897,88.421799 C 11.206414,88.278575 10.923862,88.171804 10.658241,88.101486 C 10.392613,88.031179 10.136102,87.996023 9.8887095,87.996017 C 9.4590198,87.996023 9.1269889,88.079356 8.8926158,88.246017 C 8.6608435,88.412689 8.5449582,88.649668 8.5449595,88.956955 C 8.5449582,89.214772 8.6217811,89.410084 8.7754283,89.542892 C 8.9316766,89.673104 9.2259471,89.778573 9.6582408,89.859299 L 10.134803,89.956955 C 10.723341,90.068937 11.156935,90.266854 11.435585,90.550705 C 11.71683,90.831957 11.857455,91.209561 11.85746,91.683517 C 11.857455,92.248623 11.667351,92.677008 11.287147,92.968674 C 10.909539,93.26034 10.354852,93.406174 9.6230845,93.406174 C 9.3470408,93.406174 9.0527702,93.374924 8.740272,93.312424 C 8.430375,93.249924 8.1087607,93.157476 7.7754283,93.03508 L 7.7754283,92.22258 C 8.0957399,92.402268 8.4095417,92.537685 8.7168345,92.62883 C 9.0241244,92.719976 9.3262074,92.765549 9.6230845,92.765549 C 10.073603,92.765549 10.421258,92.677008 10.666053,92.499924 C 10.910841,92.322841 11.033237,92.070237 11.033241,91.742111 C 11.033237,91.455655 10.944695,91.231697 10.767616,91.070236 C 10.593133,90.90878 10.305373,90.787687 9.9043345,90.706955 L 9.4238658,90.613205 C 8.8353225,90.49602 8.4095417,90.312427 8.146522,90.062424 C 7.8835006,89.812427 7.7519903,89.464771 7.7519908,89.019455 C 7.7519903,88.503835 7.9329797,88.097585 8.2949595,87.800705 C 8.6595414,87.503836 9.160843,87.355398 9.7988658,87.355392 C 10.0723,87.355398 10.350946,87.380138 10.634803,87.429611 C 10.918654,87.479096 11.209018,87.553315 11.505897,87.652267 M 13.072303,88.917892 L 13.791053,88.917892 L 13.791053,93.292892 L 13.072303,93.292892 L 13.072303,88.917892 M 13.072303,87.214767 L 13.791053,87.214767 L 13.791053,88.124924 L 13.072303,88.124924 L 13.072303,87.214767 M 15.291053,87.214767 L 16.009803,87.214767 L 16.009803,93.292892 L 15.291053,93.292892 L 15.291053,87.214767 M 16.994178,88.917892 L 17.755897,88.917892 L 19.123085,92.589767 L 20.490272,88.917892 L 21.251991,88.917892 L 19.611366,93.292892 L 18.634803,93.292892 L 16.994178,88.917892 M 25.986366,90.925705 L 25.986366,91.277267 L 22.681678,91.277267 C 22.712927,91.772061 22.861364,92.149664 23.126991,92.41008 C 23.395218,92.667893 23.767614,92.796799 24.244178,92.796799 C 24.520217,92.796799 24.787144,92.762945 25.04496,92.695236 C 25.305372,92.627529 25.563185,92.525966 25.818397,92.390549 L 25.818397,93.070236 C 25.56058,93.179611 25.296258,93.262945 25.025428,93.320236 C 24.754592,93.377528 24.479852,93.406174 24.20121,93.406174 C 23.503291,93.406174 22.949906,93.203049 22.541053,92.796799 C 22.134803,92.39055 21.931678,91.841071 21.931678,91.148361 C 21.931678,90.432218 22.124386,89.86451 22.509803,89.445236 C 22.897823,89.023365 23.419958,88.812428 24.07621,88.812424 C 24.664748,88.812428 25.129591,89.002532 25.470741,89.382736 C 25.814486,89.760344 25.986361,90.274666 25.986366,90.925705 M 25.267616,90.714767 C 25.262404,90.321541 25.151727,90.007739 24.935585,89.773361 C 24.72204,89.53899 24.438186,89.421803 24.084022,89.421799 C 23.682978,89.421803 23.361364,89.535084 23.119178,89.761642 C 22.879594,89.988208 22.741573,90.307218 22.705116,90.718674 L 25.267616,90.714767 M 29.939491,89.046799 L 29.939491,89.726486 C 29.736362,89.622323 29.525425,89.544198 29.306678,89.492111 C 29.087926,89.440032 28.861363,89.41399 28.626991,89.413986 C 28.270218,89.41399 28.001989,89.468678 27.822303,89.578049 C 27.645219,89.687427 27.556677,89.85149 27.556678,90.070236 C 27.556677,90.236906 27.620479,90.368416 27.748085,90.464767 C 27.875687,90.55852 28.132197,90.648364 28.517616,90.734299 L 28.76371,90.788986 C 29.274123,90.898364 29.636102,91.053311 29.849647,91.25383 C 30.065789,91.451748 30.173862,91.729092 30.173866,92.085861 C 30.173862,92.492112 30.012404,92.813726 29.689491,93.050705 C 29.369175,93.287684 28.92777,93.406174 28.365272,93.406174 C 28.130895,93.406174 27.886104,93.382736 27.630897,93.335861 C 27.378292,93.29159 27.111365,93.223882 26.830116,93.132736 L 26.830116,92.390549 C 27.09574,92.52857 27.357459,92.632737 27.615272,92.703049 C 27.873083,92.770758 28.128291,92.804612 28.380897,92.804611 C 28.719436,92.804612 28.979853,92.74732 29.162147,92.632736 C 29.344436,92.515549 29.435582,92.351487 29.435585,92.140549 C 29.435582,91.945238 29.369175,91.795498 29.236366,91.69133 C 29.106155,91.587165 28.818395,91.486905 28.373085,91.390549 L 28.123085,91.331955 C 27.677771,91.238207 27.356157,91.094978 27.158241,90.902267 C 26.960324,90.706958 26.861365,90.440031 26.861366,90.101486 C 26.861365,89.690031 27.007199,89.372323 27.298866,89.148361 C 27.590531,88.924407 28.004593,88.812428 28.541053,88.812424 C 28.806676,88.812428 29.056676,88.831959 29.291053,88.871017 C 29.525425,88.910084 29.741571,88.968678 29.939491,89.046799 M 32.017616,87.675705 L 32.017616,88.917892 L 33.498085,88.917892 L 33.498085,89.476486 L 32.017616,89.476486 L 32.017616,91.851486 C 32.017614,92.208258 32.065791,92.437425 32.162147,92.538986 C 32.261104,92.640549 32.460322,92.691331 32.759803,92.69133 L 33.498085,92.69133 L 33.498085,93.292892 L 32.759803,93.292892 C 32.205114,93.292892 31.822302,93.190028 31.611366,92.984299 C 31.400427,92.775966 31.294959,92.398362 31.29496,91.851486 L 31.29496,89.476486 L 30.767616,89.476486 L 30.767616,88.917892 L 31.29496,88.917892 L 31.29496,87.675705 L 32.017616,87.675705 M 36.98246,89.589767 C 36.901727,89.542896 36.813186,89.509042 36.716835,89.488205 C 36.623082,89.464771 36.518915,89.453053 36.404335,89.453049 C 35.998082,89.453053 35.685583,89.585865 35.466835,89.851486 C 35.250687,90.11451 35.142614,90.493416 35.142616,90.988205 L 35.142616,93.292892 L 34.41996,93.292892 L 34.41996,88.917892 L 35.142616,88.917892 L 35.142616,89.59758 C 35.293656,89.331959 35.49027,89.135345 35.73246,89.007736 C 35.974645,88.877532 36.268915,88.812428 36.615272,88.812424 C 36.664748,88.812428 36.719436,88.816334 36.779335,88.824142 C 36.839227,88.829355 36.905633,88.83847 36.978553,88.851486 L 36.98246,89.589767 M 41.470741,90.925705 L 41.470741,91.277267 L 38.166053,91.277267 C 38.197302,91.772061 38.345739,92.149664 38.611366,92.41008 C 38.879593,92.667893 39.251989,92.796799 39.728553,92.796799 C 40.004592,92.796799 40.271519,92.762945 40.529335,92.695236 C 40.789747,92.627529 41.04756,92.525966 41.302772,92.390549 L 41.302772,93.070236 C 41.044955,93.179611 40.780633,93.262945 40.509803,93.320236 C 40.238967,93.377528 39.964227,93.406174 39.685585,93.406174 C 38.987666,93.406174 38.434281,93.203049 38.025428,92.796799 C 37.619178,92.39055 37.416053,91.841071 37.416053,91.148361 C 37.416053,90.432218 37.608761,89.86451 37.994178,89.445236 C 38.382198,89.023365 38.904333,88.812428 39.560585,88.812424 C 40.149123,88.812428 40.613966,89.002532 40.955116,89.382736 C 41.298861,89.760344 41.470736,90.274666 41.470741,90.925705 M 40.751991,90.714767 C 40.746779,90.321541 40.636102,90.007739 40.41996,89.773361 C 40.206415,89.53899 39.922561,89.421803 39.568397,89.421799 C 39.167353,89.421803 38.845739,89.535084 38.603553,89.761642 C 38.363969,89.988208 38.225948,90.307218 38.189491,90.718674 L 40.751991,90.714767 M 45.212928,87.460861 L 46.001991,87.460861 L 46.001991,89.851486 L 48.869178,89.851486 L 48.869178,87.460861 L 49.658241,87.460861 L 49.658241,93.292892 L 48.869178,93.292892 L 48.869178,90.515549 L 46.001991,90.515549 L 46.001991,93.292892 L 45.212928,93.292892 L 45.212928,87.460861 M 54.939491,90.925705 L 54.939491,91.277267 L 51.634803,91.277267 C 51.666052,91.772061 51.814489,92.149664 52.080116,92.41008 C 52.348343,92.667893 52.720739,92.796799 53.197303,92.796799 C 53.473342,92.796799 53.740269,92.762945 53.998085,92.695236 C 54.258497,92.627529 54.51631,92.525966 54.771522,92.390549 L 54.771522,93.070236 C 54.513705,93.179611 54.249383,93.262945 53.978553,93.320236 C 53.707717,93.377528 53.432977,93.406174 53.154335,93.406174 C 52.456416,93.406174 51.903031,93.203049 51.494178,92.796799 C 51.087928,92.39055 50.884803,91.841071 50.884803,91.148361 C 50.884803,90.432218 51.077511,89.86451 51.462928,89.445236 C 51.850948,89.023365 52.373083,88.812428 53.029335,88.812424 C 53.617873,88.812428 54.082716,89.002532 54.423866,89.382736 C 54.767611,89.760344 54.939486,90.274666 54.939491,90.925705 M 54.220741,90.714767 C 54.215529,90.321541 54.104852,90.007739 53.88871,89.773361 C 53.675165,89.53899 53.391311,89.421803 53.037147,89.421799 C 52.636103,89.421803 52.314489,89.535084 52.072303,89.761642 C 51.832719,89.988208 51.694698,90.307218 51.658241,90.718674 L 54.220741,90.714767 M 58.63871,89.589767 C 58.557977,89.542896 58.469436,89.509042 58.373085,89.488205 C 58.279332,89.464771 58.175165,89.453053 58.060585,89.453049 C 57.654332,89.453053 57.341833,89.585865 57.123085,89.851486 C 56.906937,90.11451 56.798864,90.493416 56.798866,90.988205 L 56.798866,93.292892 L 56.07621,93.292892 L 56.07621,88.917892 L 56.798866,88.917892 L 56.798866,89.59758 C 56.949906,89.331959 57.14652,89.135345 57.38871,89.007736 C 57.630895,88.877532 57.925165,88.812428 58.271522,88.812424 C 58.320998,88.812428 58.375686,88.816334 58.435585,88.824142 C 58.495477,88.829355 58.561883,88.83847 58.634803,88.851486 L 58.63871,89.589767 M 61.91996,89.589767 C 61.839227,89.542896 61.750686,89.509042 61.654335,89.488205 C 61.560582,89.464771 61.456415,89.453053 61.341835,89.453049 C 60.935582,89.453053 60.623083,89.585865 60.404335,89.851486 C 60.188187,90.11451 60.080114,90.493416 60.080116,90.988205 L 60.080116,93.292892 L 59.35746,93.292892 L 59.35746,88.917892 L 60.080116,88.917892 L 60.080116,89.59758 C 60.231156,89.331959 60.42777,89.135345 60.66996,89.007736 C 60.912145,88.877532 61.206415,88.812428 61.552772,88.812424 C 61.602248,88.812428 61.656936,88.816334 61.716835,88.824142 C 61.776727,88.829355 61.843133,88.83847 61.916053,88.851486 L 61.91996,89.589767 M 66.408241,90.925705 L 66.408241,91.277267 L 63.103553,91.277267 C 63.134802,91.772061 63.283239,92.149664 63.548866,92.41008 C 63.817093,92.667893 64.189489,92.796799 64.666053,92.796799 C 64.942092,92.796799 65.209019,92.762945 65.466835,92.695236 C 65.727247,92.627529 65.98506,92.525966 66.240272,92.390549 L 66.240272,93.070236 C 65.982455,93.179611 65.718133,93.262945 65.447303,93.320236 C 65.176467,93.377528 64.901727,93.406174 64.623085,93.406174 C 63.925166,93.406174 63.371781,93.203049 62.962928,92.796799 C 62.556678,92.39055 62.353553,91.841071 62.353553,91.148361 C 62.353553,90.432218 62.546261,89.86451 62.931678,89.445236 C 63.319698,89.023365 63.841833,88.812428 64.498085,88.812424 C 65.086623,88.812428 65.551466,89.002532 65.892616,89.382736 C 66.236361,89.760344 66.408236,90.274666 66.408241,90.925705 M 65.689491,90.714767 C 65.684279,90.321541 65.573602,90.007739 65.35746,89.773361 C 65.143915,89.53899 64.860061,89.421803 64.505897,89.421799 C 64.104853,89.421803 63.783239,89.535084 63.541053,89.761642 C 63.301469,89.988208 63.163448,90.307218 63.126991,90.718674 L 65.689491,90.714767 M 70.10746,89.589767 C 70.026727,89.542896 69.938186,89.509042 69.841835,89.488205 C 69.748082,89.464771 69.643915,89.453053 69.529335,89.453049 C 69.123082,89.453053 68.810583,89.585865 68.591835,89.851486 C 68.375687,90.11451 68.267614,90.493416 68.267616,90.988205 L 68.267616,93.292892 L 67.54496,93.292892 L 67.54496,88.917892 L 68.267616,88.917892 L 68.267616,89.59758 C 68.418656,89.331959 68.61527,89.135345 68.85746,89.007736 C 69.099645,88.877532 69.393915,88.812428 69.740272,88.812424 C 69.789748,88.812428 69.844436,88.816334 69.904335,88.824142 C 69.964227,88.829355 70.030633,88.83847 70.103553,88.851486 L 70.10746,89.589767 M 72.841835,91.093674 C 72.261103,91.093676 71.85876,91.160082 71.634803,91.292892 C 71.410844,91.425707 71.298865,91.652269 71.298866,91.97258 C 71.298865,92.227789 71.382198,92.430914 71.548866,92.581955 C 71.718135,92.730393 71.947301,92.804612 72.236366,92.804611 C 72.634801,92.804612 72.953811,92.663987 73.193397,92.382736 C 73.435581,92.098883 73.556675,91.722582 73.556678,91.25383 L 73.556678,91.093674 L 72.841835,91.093674 M 74.275428,90.796799 L 74.275428,93.292892 L 73.556678,93.292892 L 73.556678,92.62883 C 73.392613,92.894455 73.188186,93.09107 72.943397,93.218674 C 72.698603,93.343674 72.399124,93.406174 72.04496,93.406174 C 71.597041,93.406174 71.240271,93.281174 70.974647,93.031174 C 70.711626,92.77857 70.580115,92.441331 70.580116,92.019455 C 70.580115,91.527269 70.744178,91.156176 71.072303,90.906174 C 71.403031,90.656176 71.895218,90.531176 72.548866,90.531174 L 73.556678,90.531174 L 73.556678,90.460861 C 73.556675,90.130135 73.4473,89.874927 73.228553,89.695236 C 73.012405,89.512948 72.707717,89.421803 72.314491,89.421799 C 72.064489,89.421803 71.820999,89.45175 71.584022,89.511642 C 71.347042,89.571542 71.119177,89.661386 70.900428,89.781174 L 70.900428,89.117111 C 71.163448,89.015553 71.418656,88.940032 71.666053,88.890549 C 71.913447,88.83847 72.154332,88.812428 72.38871,88.812424 C 73.021519,88.812428 73.494175,88.976491 73.806678,89.304611 C 74.119174,89.63274 74.275424,90.130135 74.275428,90.796799"
         style="font-size:8px;font-style:normal;font-variant:normal;font-weight:normal;font-stretch:normal;text-align:start;line-height:125%;writing-mode:lr-tb;text-anchor:start;fill:#646464;fill-opacity:1;stroke:none;stroke-width:1px;stroke-linecap:butt;stroke-linejoin:miter;stroke-opacity:1;font-family:Bitstream Vera Sans" />
    </g>
    <path
       style="font-size:8px;font-style:normal;font-variant:normal;font-weight:bold;font-stretch:normal;text-align:start;line-height:125%;writing-mode:lr-tb;text-anchor:start;fill:#000000;fill-opacity:1;stroke:none;stroke-width:1px;stroke-linecap:butt;stroke-linejoin:miter;stroke-opacity:1;font-family:Bitstream Vera Sans"
       d="M -0.8566153,49.94614 L 0.64729095,49.94614 L 0.64729095,55.778172 L -0.8566153,55.778172 L -0.8566153,49.94614 M 6.4480722,53.114109 L 6.4480722,55.778172 L 5.0418222,55.778172 L 5.0418222,55.344578 L 5.0418222,53.739109 C 5.0418185,53.361507 5.032704,53.101091 5.0144784,52.957859 C 4.9988498,52.814633 4.970204,52.709164 4.9285409,52.641453 C 4.8738499,52.55031 4.7996313,52.479998 4.7058847,52.430515 C 4.6121315,52.378435 4.5053607,52.352394 4.3855722,52.35239 C 4.0939028,52.352394 3.8647364,52.465675 3.6980722,52.692234 C 3.5314034,52.916195 3.4480701,53.227393 3.4480722,53.625828 L 3.4480722,55.778172 L 2.0496347,55.778172 L 2.0496347,51.403172 L 3.4480722,51.403172 L 3.4480722,52.043797 C 3.6590074,51.788592 3.8829655,51.601092 4.1199472,51.481297 C 4.3569234,51.358905 4.6186419,51.297707 4.9051034,51.297703 C 5.4103077,51.297707 5.7931199,51.452655 6.0535409,51.762547 C 6.3165568,52.072446 6.4480671,52.522966 6.4480722,53.114109 M 9.2801034,50.160984 L 9.2801034,51.403172 L 10.72151,51.403172 L 10.72151,52.403172 L 9.2801034,52.403172 L 9.2801034,54.25864 C 9.2801012,54.461767 9.3204658,54.599787 9.4011972,54.672703 C 9.481924,54.743016 9.6420801,54.778173 9.8816659,54.778172 L 10.600416,54.778172 L 10.600416,55.778172 L 9.4011972,55.778172 C 8.8491121,55.778172 8.4571854,55.663588 8.2254159,55.434422 C 7.9962484,55.202651 7.8816651,54.810725 7.8816659,54.25864 L 7.8816659,52.403172 L 7.1863534,52.403172 L 7.1863534,51.403172 L 7.8816659,51.403172 L 7.8816659,50.160984 L 9.2801034,50.160984 M 15.948072,53.578953 L 15.948072,53.97739 L 12.678541,53.97739 C 12.712393,54.305517 12.830883,54.55161 13.03401,54.715672 C 13.237132,54.879735 13.520986,54.961766 13.885572,54.961765 C 14.17984,54.961766 14.480621,54.918797 14.787916,54.832859 C 15.097808,54.744318 15.415516,54.611506 15.741041,54.434422 L 15.741041,55.512547 C 15.410307,55.637547 15.079578,55.731297 14.748853,55.793797 C 14.418121,55.858901 14.087392,55.891453 13.756666,55.891453 C 12.964997,55.891453 12.349112,55.690932 11.90901,55.28989 C 11.471509,54.886245 11.252759,54.321142 11.25276,53.594578 C 11.252759,52.881039 11.467603,52.319842 11.897291,51.910984 C 12.329581,51.502134 12.923331,51.297707 13.678541,51.297703 C 14.366037,51.297707 14.915516,51.504738 15.326978,51.918797 C 15.741036,52.332862 15.948067,52.886247 15.948072,53.578953 M 14.510572,53.114109 C 14.510569,52.848487 14.432444,52.634946 14.276197,52.473484 C 14.122548,52.309425 13.920725,52.227394 13.670728,52.22739 C 13.399893,52.227394 13.179841,52.304217 13.010572,52.457859 C 12.841299,52.608904 12.735831,52.827654 12.694166,53.114109 L 14.510572,53.114109 M 20.268385,52.594578 C 20.145985,52.537289 20.023589,52.495623 19.901197,52.469578 C 19.781402,52.440935 19.660308,52.426612 19.537916,52.426609 C 19.178538,52.426612 18.901195,52.542498 18.705885,52.774265 C 18.513174,53.003435 18.41682,53.332861 18.416822,53.762547 L 18.416822,55.778172 L 17.018385,55.778172 L 17.018385,51.403172 L 18.416822,51.403172 L 18.416822,52.121922 C 18.596507,51.835467 18.802236,51.627134 19.03401,51.496922 C 19.268382,51.364113 19.548329,51.297707 19.873853,51.297703 C 19.920725,51.297707 19.971506,51.300311 20.026197,51.305515 C 20.080881,51.308124 20.160308,51.315936 20.264478,51.328953 L 20.268385,52.594578 M 25.369947,53.114109 L 25.369947,55.778172 L 23.963697,55.778172 L 23.963697,55.344578 L 23.963697,53.739109 C 23.963694,53.361507 23.954579,53.101091 23.936353,52.957859 C 23.920725,52.814633 23.892079,52.709164 23.850416,52.641453 C 23.795725,52.55031 23.721506,52.479998 23.62776,52.430515 C 23.534006,52.378435 23.427236,52.352394 23.307447,52.35239 C 23.015778,52.352394 22.786611,52.465675 22.619947,52.692234 C 22.453278,52.916195 22.369945,53.227393 22.369947,53.625828 L 22.369947,55.778172 L 20.97151,55.778172 L 20.97151,51.403172 L 22.369947,51.403172 L 22.369947,52.043797 C 22.580882,51.788592 22.804841,51.601092 23.041822,51.481297 C 23.278798,51.358905 23.540517,51.297707 23.826978,51.297703 C 24.332183,51.297707 24.714995,51.452655 24.975416,51.762547 C 25.238432,52.072446 25.369942,52.522966 25.369947,53.114109 M 31.041822,53.578953 L 31.041822,53.97739 L 27.772291,53.97739 C 27.806143,54.305517 27.924633,54.55161 28.12776,54.715672 C 28.330882,54.879735 28.614736,54.961766 28.979322,54.961765 C 29.27359,54.961766 29.574371,54.918797 29.881666,54.832859 C 30.191558,54.744318 30.509266,54.611506 30.834791,54.434422 L 30.834791,55.512547 C 30.504057,55.637547 30.173328,55.731297 29.842603,55.793797 C 29.511871,55.858901 29.181142,55.891453 28.850416,55.891453 C 28.058747,55.891453 27.442862,55.690932 27.00276,55.28989 C 26.565259,54.886245 26.346509,54.321142 26.34651,53.594578 C 26.346509,52.881039 26.561353,52.319842 26.991041,51.910984 C 27.423331,51.502134 28.017081,51.297707 28.772291,51.297703 C 29.459787,51.297707 30.009266,51.504738 30.420728,51.918797 C 30.834786,52.332862 31.041817,52.886247 31.041822,53.578953 M 29.604322,53.114109 C 29.604319,52.848487 29.526194,52.634946 29.369947,52.473484 C 29.216298,52.309425 29.014475,52.227394 28.764478,52.22739 C 28.493643,52.227394 28.273591,52.304217 28.104322,52.457859 C 27.935049,52.608904 27.829581,52.827654 27.787916,53.114109 L 29.604322,53.114109 M 33.639478,50.160984 L 33.639478,51.403172 L 35.080885,51.403172 L 35.080885,52.403172 L 33.639478,52.403172 L 33.639478,54.25864 C 33.639476,54.461767 33.679841,54.599787 33.760572,54.672703 C 33.841299,54.743016 34.001455,54.778173 34.241041,54.778172 L 34.959791,54.778172 L 34.959791,55.778172 L 33.760572,55.778172 C 33.208487,55.778172 32.81656,55.663588 32.584791,55.434422 C 32.355623,55.202651 32.24104,54.810725 32.241041,54.25864 L 32.241041,52.403172 L 31.545728,52.403172 L 31.545728,51.403172 L 32.241041,51.403172 L 32.241041,50.160984 L 33.639478,50.160984 M 40.682447,53.809422 C 40.390778,53.809424 40.170726,53.858903 40.022291,53.957859 C 39.876456,54.056819 39.803539,54.202652 39.803541,54.395359 C 39.803539,54.572444 39.862133,54.711766 39.979322,54.813328 C 40.099112,54.912287 40.264476,54.961766 40.475416,54.961765 C 40.738434,54.961766 40.959788,54.868016 41.139478,54.680515 C 41.319163,54.490412 41.409006,54.253433 41.40901,53.969578 L 41.40901,53.809422 L 40.682447,53.809422 M 42.819166,53.282078 L 42.819166,55.778172 L 41.40901,55.778172 L 41.40901,55.129734 C 41.221507,55.395359 41.010569,55.58937 40.776197,55.711765 C 40.54182,55.831557 40.256664,55.891453 39.920728,55.891453 C 39.467602,55.891453 39.099113,55.759942 38.81526,55.496922 C 38.534009,55.231297 38.393384,54.887547 38.393385,54.465672 C 38.393384,53.952653 38.569165,53.576351 38.920728,53.336765 C 39.274894,53.097185 39.829581,52.977393 40.584791,52.97739 L 41.40901,52.97739 L 41.40901,52.868015 C 41.409006,52.646664 41.321767,52.485206 41.147291,52.38364 C 40.972809,52.279477 40.700674,52.227394 40.330885,52.22739 C 40.031404,52.227394 39.752758,52.257342 39.494947,52.317234 C 39.237134,52.377133 38.99755,52.466977 38.776197,52.586765 L 38.776197,51.520359 C 39.075675,51.447447 39.376456,51.392759 39.678541,51.356297 C 39.980622,51.317239 40.282705,51.297707 40.584791,51.297703 C 41.37385,51.297707 41.94286,51.453957 42.291822,51.766453 C 42.64338,52.076352 42.819161,52.58156 42.819166,53.282078 M 45.510572,55.145359 L 45.510572,57.442234 L 44.112135,57.442234 L 44.112135,51.403172 L 45.510572,51.403172 L 45.510572,52.043797 C 45.703278,51.788592 45.91682,51.601092 46.151197,51.481297 C 46.385569,51.358905 46.6551,51.297707 46.959791,51.297703 C 47.498849,51.297707 47.941557,51.512551 48.287916,51.942234 C 48.634265,52.369321 48.807442,52.920101 48.807447,53.594578 C 48.807442,54.269058 48.634265,54.821141 48.287916,55.250828 C 47.941557,55.677911 47.498849,55.891453 46.959791,55.891453 C 46.6551,55.891453 46.385569,55.831557 46.151197,55.711765 C 45.91682,55.58937 45.703278,55.400568 45.510572,55.145359 M 46.44026,52.313328 C 46.140778,52.313331 45.910309,52.424008 45.748853,52.645359 C 45.589997,52.864112 45.51057,53.180518 45.510572,53.594578 C 45.51057,54.008642 45.589997,54.32635 45.748853,54.547703 C 45.910309,54.766454 46.140778,54.875829 46.44026,54.875828 C 46.739736,54.875829 46.9676,54.766454 47.123853,54.547703 C 47.282704,54.328954 47.362131,54.011246 47.362135,53.594578 C 47.362131,53.177914 47.282704,52.860206 47.123853,52.641453 C 46.9676,52.422706 46.739736,52.313331 46.44026,52.313328 M 51.244947,55.145359 L 51.244947,57.442234 L 49.84651,57.442234 L 49.84651,51.403172 L 51.244947,51.403172 L 51.244947,52.043797 C 51.437653,51.788592 51.651195,51.601092 51.885572,51.481297 C 52.119944,51.358905 52.389475,51.297707 52.694166,51.297703 C 53.233224,51.297707 53.675932,51.512551 54.022291,51.942234 C 54.36864,52.369321 54.541817,52.920101 54.541822,53.594578 C 54.541817,54.269058 54.36864,54.821141 54.022291,55.250828 C 53.675932,55.677911 53.233224,55.891453 52.694166,55.891453 C 52.389475,55.891453 52.119944,55.831557 51.885572,55.711765 C 51.651195,55.58937 51.437653,55.400568 51.244947,55.145359 M 52.174635,52.313328 C 51.875153,52.313331 51.644684,52.424008 51.483228,52.645359 C 51.324372,52.864112 51.244945,53.180518 51.244947,53.594578 C 51.244945,54.008642 51.324372,54.32635 51.483228,54.547703 C 51.644684,54.766454 51.875153,54.875829 52.174635,54.875828 C 52.474111,54.875829 52.701975,54.766454 52.858228,54.547703 C 53.017079,54.328954 53.096506,54.011246 53.09651,53.594578 C 53.096506,53.177914 53.017079,52.860206 52.858228,52.641453 C 52.701975,52.422706 52.474111,52.313331 52.174635,52.313328 M 55.580885,49.700047 L 56.979322,49.700047 L 56.979322,55.778172 L 55.580885,55.778172 L 55.580885,49.700047 M 58.330885,51.403172 L 59.729322,51.403172 L 59.729322,55.778172 L 58.330885,55.778172 L 58.330885,51.403172 M 58.330885,49.700047 L 59.729322,49.700047 L 59.729322,50.840672 L 58.330885,50.840672 L 58.330885,49.700047 M 64.616041,51.53989 L 64.616041,52.680515 C 64.425933,52.55031 64.234527,52.453956 64.041822,52.391453 C 63.851715,52.328956 63.653798,52.297706 63.448072,52.297703 C 63.057445,52.297706 62.752757,52.412289 62.53401,52.641453 C 62.317862,52.868018 62.209789,53.185726 62.209791,53.594578 C 62.209789,54.003434 62.317862,54.322444 62.53401,54.551609 C 62.752757,54.778173 63.057445,54.891454 63.448072,54.891453 C 63.666819,54.891454 63.87385,54.858902 64.069166,54.793797 C 64.267079,54.728693 64.44937,54.632339 64.616041,54.504734 L 64.616041,55.649265 C 64.397287,55.729995 64.174631,55.78989 63.948072,55.828953 C 63.724111,55.870619 63.49885,55.891453 63.272291,55.891453 C 62.483226,55.891453 61.866039,55.68963 61.420728,55.285984 C 60.975415,54.879735 60.752759,54.315933 60.75276,53.594578 C 60.752759,52.873227 60.975415,52.310727 61.420728,51.907078 C 61.866039,51.500832 62.483226,51.297707 63.272291,51.297703 C 63.501455,51.297707 63.726715,51.318541 63.948072,51.360203 C 64.172027,51.39927 64.394683,51.459165 64.616041,51.53989 M 67.791822,53.809422 C 67.500153,53.809424 67.280101,53.858903 67.131666,53.957859 C 66.985831,54.056819 66.912914,54.202652 66.912916,54.395359 C 66.912914,54.572444 66.971508,54.711766 67.088697,54.813328 C 67.208487,54.912287 67.373851,54.961766 67.584791,54.961765 C 67.847809,54.961766 68.069163,54.868016 68.248853,54.680515 C 68.428538,54.490412 68.518381,54.253433 68.518385,53.969578 L 68.518385,53.809422 L 67.791822,53.809422 M 69.928541,53.282078 L 69.928541,55.778172 L 68.518385,55.778172 L 68.518385,55.129734 C 68.330882,55.395359 68.119944,55.58937 67.885572,55.711765 C 67.651195,55.831557 67.366039,55.891453 67.030103,55.891453 C 66.576977,55.891453 66.208488,55.759942 65.924635,55.496922 C 65.643384,55.231297 65.502759,54.887547 65.50276,54.465672 C 65.502759,53.952653 65.67854,53.576351 66.030103,53.336765 C 66.384269,53.097185 66.938956,52.977393 67.694166,52.97739 L 68.518385,52.97739 L 68.518385,52.868015 C 68.518381,52.646664 68.431142,52.485206 68.256666,52.38364 C 68.082184,52.279477 67.810049,52.227394 67.44026,52.22739 C 67.140779,52.227394 66.862133,52.257342 66.604322,52.317234 C 66.346509,52.377133 66.106925,52.466977 65.885572,52.586765 L 65.885572,51.520359 C 66.18505,51.447447 66.485831,51.392759 66.787916,51.356297 C 67.089997,51.317239 67.39208,51.297707 67.694166,51.297703 C 68.483225,51.297707 69.052235,51.453957 69.401197,51.766453 C 69.752755,52.076352 69.928536,52.58156 69.928541,53.282078 M 72.748853,50.160984 L 72.748853,51.403172 L 74.19026,51.403172 L 74.19026,52.403172 L 72.748853,52.403172 L 72.748853,54.25864 C 72.748851,54.461767 72.789216,54.599787 72.869947,54.672703 C 72.950674,54.743016 73.11083,54.778173 73.350416,54.778172 L 74.069166,54.778172 L 74.069166,55.778172 L 72.869947,55.778172 C 72.317862,55.778172 71.925935,55.663588 71.694166,55.434422 C 71.464998,55.202651 71.350415,54.810725 71.350416,54.25864 L 71.350416,52.403172 L 70.655103,52.403172 L 70.655103,51.403172 L 71.350416,51.403172 L 71.350416,50.160984 L 72.748853,50.160984 M 75.049635,51.403172 L 76.448072,51.403172 L 76.448072,55.778172 L 75.049635,55.778172 L 75.049635,51.403172 M 75.049635,49.700047 L 76.448072,49.700047 L 76.448072,50.840672 L 75.049635,50.840672 L 75.049635,49.700047 M 79.881666,52.297703 C 79.571768,52.297706 79.334789,52.409685 79.170728,52.63364 C 79.009268,52.854997 78.928539,53.17531 78.928541,53.594578 C 78.928539,54.01385 79.009268,54.335465 79.170728,54.559422 C 79.334789,54.780777 79.571768,54.891454 79.881666,54.891453 C 80.18635,54.891454 80.419423,54.780777 80.580885,54.559422 C 80.742339,54.335465 80.823068,54.01385 80.823072,53.594578 C 80.823068,53.17531 80.742339,52.854997 80.580885,52.63364 C 80.419423,52.409685 80.18635,52.297706 79.881666,52.297703 M 79.881666,51.297703 C 80.634267,51.297707 81.221506,51.500832 81.643385,51.907078 C 82.067859,52.313331 82.280098,52.875831 82.280103,53.594578 C 82.280098,54.313329 82.067859,54.875829 81.643385,55.282078 C 81.221506,55.688328 80.634267,55.891453 79.881666,55.891453 C 79.126456,55.891453 78.53531,55.688328 78.108228,55.282078 C 77.683749,54.875829 77.471509,54.313329 77.47151,53.594578 C 77.471509,52.875831 77.683749,52.313331 78.108228,51.907078 C 78.53531,51.500832 79.126456,51.297707 79.881666,51.297703 M 87.698072,53.114109 L 87.698072,55.778172 L 86.291822,55.778172 L 86.291822,55.344578 L 86.291822,53.739109 C 86.291819,53.361507 86.282704,53.101091 86.264478,52.957859 C 86.24885,52.814633 86.220204,52.709164 86.178541,52.641453 C 86.12385,52.55031 86.049631,52.479998 85.955885,52.430515 C 85.862131,52.378435 85.755361,52.352394 85.635572,52.35239 C 85.343903,52.352394 85.114736,52.465675 84.948072,52.692234 C 84.781403,52.916195 84.69807,53.227393 84.698072,53.625828 L 84.698072,55.778172 L 83.299635,55.778172 L 83.299635,51.403172 L 84.698072,51.403172 L 84.698072,52.043797 C 84.909007,51.788592 85.132966,51.601092 85.369947,51.481297 C 85.606923,51.358905 85.868642,51.297707 86.155103,51.297703 C 86.660308,51.297707 87.04312,51.452655 87.303541,51.762547 C 87.566557,52.072446 87.698067,52.522966 87.698072,53.114109 M 92.420728,51.53989 L 92.420728,52.60239 C 92.121245,52.477394 91.832183,52.383644 91.553541,52.32114 C 91.274892,52.258644 91.011872,52.227394 90.764478,52.22739 C 90.498851,52.227394 90.300935,52.261248 90.170728,52.328953 C 90.043123,52.39406 89.979321,52.495623 89.979322,52.63364 C 89.979321,52.745622 90.027498,52.83156 90.123853,52.891453 C 90.22281,52.951351 90.398591,52.995622 90.651197,53.024265 L 90.897291,53.059422 C 91.613433,53.15057 92.095204,53.300309 92.342603,53.50864 C 92.589995,53.716976 92.713693,54.043798 92.713697,54.489109 C 92.713693,54.955256 92.541818,55.305516 92.198072,55.53989 C 91.854319,55.774265 91.341298,55.891453 90.65901,55.891453 C 90.369945,55.891453 90.070466,55.868015 89.760572,55.82114 C 89.453279,55.776869 89.136873,55.709161 88.811353,55.618015 L 88.811353,54.555515 C 89.089999,54.690933 89.375154,54.792495 89.666822,54.860203 C 89.961091,54.927912 90.259268,54.961766 90.561353,54.961765 C 90.834788,54.961766 91.040517,54.924006 91.178541,54.848484 C 91.316559,54.772964 91.385569,54.660985 91.385572,54.512547 C 91.385569,54.387548 91.337392,54.2951 91.241041,54.235203 C 91.147288,54.172704 90.958486,54.124527 90.674635,54.090672 L 90.428541,54.059422 C 89.806144,53.981298 89.369946,53.836767 89.119947,53.625828 C 88.869947,53.414893 88.744947,53.09458 88.744947,52.66489 C 88.744947,52.201352 88.903801,51.857603 89.22151,51.63364 C 89.539217,51.409686 90.026195,51.297707 90.682447,51.297703 C 90.940257,51.297707 91.21109,51.317239 91.494947,51.356297 C 91.778798,51.395363 92.087391,51.456561 92.420728,51.53989"
       id="text2338" />
  </g>
  <g
     inkscape:groupmode="layer"
     id="layer2"
     inkscape:label="earth">
    <path
       sodipodi:nodetypes="csssssccccccccsssccccccscccscccccccccsscccssssscccssssssccccccsssccccccccccccc"
       id="path1341"
       d="M 26.690136,2.0357282 C 17.717764,1.4944363 12.75734,4.5694242 9.218896,8.0594408 C 8.407291,8.8599378 10.071399,9.3403913 10.653782,9.2427592 C 11.029773,9.1797363 10.900315,9.472107 11.231835,9.2446497 C 12.077298,8.6645557 12.779212,8.8136159 14.122198,9.8978851 C 15.107469,10.693343 15.218398,10.873764 15.515767,11.950912 C 15.794698,12.961297 15.815416,13.366343 15.644803,14.773819 L 15.438348,16.406913 L 16.470624,18.133322 C 17.475579,19.822588 17.506577,19.853707 17.993229,19.696418 L 18.483555,19.533112 L 17.941612,18.529928 L 17.373864,17.503408 L 18.612591,18.529928 C 20.077224,19.743188 20.590708,19.997835 22.844914,20.512962 C 24.512141,20.893961 24.573669,20.907927 25.167531,21.702785 C 25.501418,22.149665 25.761086,22.581544 25.761086,22.635978 C 25.761096,22.690415 25.04942,23.504194 24.161061,24.455709 L 22.535229,26.182119 L 23.36105,26.882011 C 23.815111,27.264061 24.662664,27.960466 25.24495,28.421782 L 26.30303,29.261653 L 26.690136,31.944589 C 26.904517,33.421804 27.169271,34.957484 27.283691,35.374073 C 27.502532,36.170783 28.676006,38.865825 29.657919,40.833259 L 30.251481,41.999746 L 30.638582,41.649798 C 30.933822,41.382903 31.094986,40.876456 31.283754,39.643437 C 31.421209,38.745653 31.709389,37.406447 31.928924,36.657217 L 32.316025,35.304084 L 35.541883,32.36452 L 38.741931,29.424967 L 38.870964,27.231961 L 39,25.015623 L 37.683851,24.152418 L 36.367704,23.289214 L 32.032148,22.84595 C 27.898824,22.420434 27.678027,22.373162 26.922395,21.889421 C 26.165167,21.404639 26.148183,21.356331 26.14819,20.512962 C 26.148201,19.750862 26.051181,19.524249 25.477211,18.903203 L 24.806236,18.179977 L 25.657859,17.43342 C 26.452918,16.714705 26.510429,16.695263 26.999816,16.896836 C 27.458408,17.085729 27.547399,17.067484 27.825635,16.756864 C 28.08576,16.466459 28.352044,16.406913 29.374044,16.406913 C 30.192794,16.406913 30.638357,16.477151 30.690199,16.616884 C 30.733055,16.732358 30.862891,17.134135 30.974068,17.526744 C 31.16229,18.191464 31.209287,18.249969 31.799889,18.249969 L 32.445062,18.249969 L 32.161184,17.456755 C 32.01391,17.01794 31.904205,16.5982 31.903117,16.523559 C 31.90201,16.44892 32.687182,16.044352 33.657981,15.637025 C 34.628792,15.229704 35.438655,14.850957 35.438655,14.797154 C 35.438662,14.743355 35.303988,14.498078 35.154779,14.237238 C 34.825904,13.662275 34.933313,13.53734 35.774141,13.53734 C 36.412345,13.53734 36.41781,13.54436 36.083826,13.210724 C 35.75327,12.880506 35.747232,12.858909 36.264475,12.370849 L 36.80642,11.857588 L 36.445123,11.227687 C 36.24871,10.881141 36.03308,10.333749 35.980598,9.9912088 L 35.903178,9.361297 L 34.587032,10.107854 C 33.87172,10.524758 33.195435,11.071808 33.064426,11.297677 C 32.822749,11.714376 32.501512,11.783444 31.748277,11.600962 C 31.426519,11.523008 31.335374,11.379896 31.335365,10.971061 C 31.335374,10.541333 31.563713,10.220353 32.522481,9.361297 L 33.709598,8.3114553 L 33.296685,7.3549298 L 32.909587,6.3984084 L 30.948264,6.2817582 L 29.012749,6.1651079 L 27.954667,7.1216374 L 26.896587,8.0548278 L 25.606247,7.844861 L 24.315901,7.6348913 L 25.528828,5.3252328 L 26.741748,3.0155794 C 26.741748,3.0155794 27.161146,2.4539037 26.690136,2.0357282 z "
       style="fill:#4d6e96;fill-opacity:1" />
  </g>
  <g
     inkscape:groupmode="layer"
     id="layer3"
     inkscape:label="earth-light"
     sodipodi:insensitive="true">
    <path
       sodipodi:nodetypes="csssssccccccccsssccccccscccscccccccccsscccssssscccssssssccccccsssccccccccccccc"
       id="path2217"
       d="M 26.690136,2.0357282 C 17.717764,1.4944363 12.75734,4.5694242 9.218896,8.0594408 C 8.407291,8.8599378 10.071399,9.3403913 10.653782,9.2427592 C 11.029773,9.1797363 10.900315,9.472107 11.231835,9.2446497 C 12.077298,8.6645557 12.779212,8.8136159 14.122198,9.8978851 C 15.107469,10.693343 15.218398,10.873764 15.515767,11.950912 C 15.794698,12.961297 15.815416,13.366343 15.644803,14.773819 L 15.438348,16.406913 L 16.470624,18.133322 C 17.475579,19.822588 17.506577,19.853707 17.993229,19.696418 L 18.483555,19.533112 L 17.941612,18.529928 L 17.373864,17.503408 L 18.612591,18.529928 C 20.077224,19.743188 20.590708,19.997835 22.844914,20.512962 C 24.512141,20.893961 24.573669,20.907927 25.167531,21.702785 C 25.501418,22.149665 25.761086,22.581544 25.761086,22.635978 C 25.761096,22.690415 25.04942,23.504194 24.161061,24.455709 L 22.535229,26.182119 L 23.36105,26.882011 C 23.815111,27.264061 24.662664,27.960466 25.24495,28.421782 L 26.30303,29.261653 L 26.690136,31.944589 C 26.904517,33.421804 27.169271,34.957484 27.283691,35.374073 C 27.502532,36.170783 28.676006,38.865825 29.657919,40.833259 L 30.251481,41.999746 L 30.638582,41.649798 C 30.933822,41.382903 31.094986,40.876456 31.283754,39.643437 C 31.421209,38.745653 31.709389,37.406447 31.928924,36.657217 L 32.316025,35.304084 L 35.541883,32.36452 L 38.741931,29.424967 L 38.870964,27.231961 L 39,25.015623 L 37.683851,24.152418 L 36.367704,23.289214 L 32.032148,22.84595 C 27.898824,22.420434 27.678027,22.373162 26.922395,21.889421 C 26.165167,21.404639 26.148183,21.356331 26.14819,20.512962 C 26.148201,19.750862 26.051181,19.524249 25.477211,18.903203 L 24.806236,18.179977 L 25.657859,17.43342 C 26.452918,16.714705 26.510429,16.695263 26.999816,16.896836 C 27.458408,17.085729 27.547399,17.067484 27.825635,16.756864 C 28.08576,16.466459 28.352044,16.406913 29.374044,16.406913 C 30.192794,16.406913 30.638357,16.477151 30.690199,16.616884 C 30.733055,16.732358 30.862891,17.134135 30.974068,17.526744 C 31.16229,18.191464 31.209287,18.249969 31.799889,18.249969 L 32.445062,18.249969 L 32.161184,17.456755 C 32.01391,17.01794 31.904205,16.5982 31.903117,16.523559 C 31.90201,16.44892 32.687182,16.044352 33.657981,15.637025 C 34.628792,15.229704 35.438655,14.850957 35.438655,14.797154 C 35.438662,14.743355 35.303988,14.498078 35.154779,14.237238 C 34.825904,13.662275 34.933313,13.53734 35.774141,13.53734 C 36.412345,13.53734 36.41781,13.54436 36.083826,13.210724 C 35.75327,12.880506 35.747232,12.858909 36.264475,12.370849 L 36.80642,11.857588 L 36.445123,11.227687 C 36.24871,10.881141 36.03308,10.333749 35.980598,9.9912088 L 35.903178,9.361297 L 34.587032,10.107854 C 33.87172,10.524758 33.195435,11.071808 33.064426,11.297677 C 32.822749,11.714376 32.501512,11.783444 31.748277,11.600962 C 31.426519,11.523008 31.335374,11.379896 31.335365,10.971061 C 31.335374,10.541333 31.563713,10.220353 32.522481,9.361297 L 33.709598,8.3114553 L 33.296685,7.3549298 L 32.909587,6.3984084 L 30.948264,6.2817582 L 29.012749,6.1651079 L 27.954667,7.1216374 L 26.896587,8.0548278 L 25.606247,7.844861 L 24.315901,7.6348913 L 25.528828,5.3252328 L 26.741748,3.0155794 C 26.741748,3.0155794 27.161146,2.4539037 26.690136,2.0357282 z "
       style="fill:url(#radialGradient2239);fill-opacity:1" />
  </g>
  <g
     inkscape:groupmode="layer"
     id="layer4"
     inkscape:label="lights">
    <path
       style="opacity:0.85714285;fill:url(#radialGradient2244);fill-opacity:1;stroke:url(#linearGradient2246);stroke-width:0.99999994;stroke-linecap:round;stroke-linejoin:round;stroke-miterlimit:4;stroke-dashoffset:0;stroke-opacity:1"
       d="M 44.506221,22.996968 C 44.506221,34.317928 35.318082,43.505952 23.996984,43.505952 C 12.675886,43.505952 3.487748,34.317928 3.487748,22.996968 C 3.487748,11.676009 12.675886,2.4879843 23.996984,2.4879843 C 35.318082,2.4879843 44.506221,11.676009 44.506221,22.996968 z "
       id="path3164" />
    <path
       transform="matrix(1.357142,0,0,1.625016,-10.94642,-10.18787)"
       style="fill:url(#radialGradient2250);fill-opacity:1.0;stroke:none;stroke-width:1;stroke-linecap:round;stroke-linejoin:round;stroke-miterlimit:4;stroke-dashoffset:0;stroke-opacity:1"
       d="M 39.75,16.653835 C 39.75,21.069835 33.478,23.5 25.75,23.5 C 18.022,23.5 11.75,21.069835 11.75,16.653835 C 11.75,12.237835 18.022,7.5 25.75,7.5 C 33.478,7.5 39.75,12.237835 39.75,16.653835 z "
       id="path3154"
       sodipodi:nodetypes="csssc" />
    <g
       id="g2303"
       transform="matrix(0.964938,-0.262476,0.262476,0.964938,-5.186544,7.184917)">
      <g
         id="g2249"
         style="opacity:0.9">
        <path
           sodipodi:type="arc"
           style="opacity:1;fill:none;fill-opacity:1;stroke:url(#linearGradient2322);stroke-width:1.04513669;stroke-linecap:round;stroke-linejoin:miter;stroke-miterlimit:4;stroke-dasharray:none;stroke-dashoffset:0;stroke-opacity:1"
           id="path2218"
           sodipodi:cx="28.5"
           sodipodi:cy="24.25"
           sodipodi:rx="17.5"
           sodipodi:ry="17.5"
           d="M 46 24.25 A 17.5 17.5 0 1 1  11,24.25 A 17.5 17.5 0 1 1  46 24.25 z"
           transform="matrix(1.171511,0,0,0.781461,-9.392214,4.874003)" />
        <path
           sodipodi:type="arc"
           style="opacity:1;fill:none;fill-opacity:1;stroke:url(#linearGradient2324);stroke-width:1.04040241;stroke-linecap:round;stroke-linejoin:miter;stroke-miterlimit:4;stroke-dasharray:none;stroke-dashoffset:0;stroke-opacity:1"
           id="path2230"
           sodipodi:cx="28.5"
           sodipodi:cy="24.25"
           sodipodi:rx="17.5"
           sodipodi:ry="17.5"
           d="M 46 24.25 A 17.5 17.5 0 1 1  11,24.25 A 17.5 17.5 0 1 1  46 24.25 z"
           transform="matrix(1.141915,0.303209,-0.204102,0.754833,-2.791894,-6.208034)" />
        <path
           sodipodi:type="arc"
           style="opacity:1;fill:none;fill-opacity:1;stroke:url(#linearGradient2326);stroke-width:1.07725382;stroke-linecap:round;stroke-linejoin:miter;stroke-miterlimit:4;stroke-dasharray:none;stroke-dashoffset:0;stroke-opacity:1"
           id="path2234"
           sodipodi:cx="28.5"
           sodipodi:cy="24.25"
           sodipodi:rx="17.5"
           sodipodi:ry="17.5"
           d="M 46 24.25 A 17.5 17.5 0 1 1  11,24.25 A 17.5 17.5 0 1 1  46 24.25 z"
           transform="matrix(0.207638,-1.161161,0.715107,0.151036,-1.259019,52.43655)" />
        <path
           sodipodi:type="arc"
           style="opacity:1;fill:none;fill-opacity:1;stroke:url(#linearGradient2328);stroke-width:1.30457115;stroke-linecap:round;stroke-linejoin:miter;stroke-miterlimit:4;stroke-dasharray:none;stroke-dashoffset:0;stroke-opacity:1"
           id="path2240"
           sodipodi:cx="28.5"
           sodipodi:cy="24.25"
           sodipodi:rx="17.5"
           sodipodi:ry="17.5"
           d="M 46 24.25 A 17.5 17.5 0 1 1  11,24.25 A 17.5 17.5 0 1 1  46 24.25 z"
           transform="matrix(0.141582,-1.161161,0.487609,0.151036,8.278152,52.43655)" />
      </g>
      <g
         id="g2267">
        <path
           sodipodi:type="arc"
           style="opacity:0.74025975;fill:url(#radialGradient2330);fill-opacity:1;stroke:none;stroke-width:1;stroke-linecap:round;stroke-linejoin:miter;stroke-miterlimit:4;stroke-dasharray:none;stroke-dashoffset:0;stroke-opacity:1"
           id="path2257"
           sodipodi:cx="29.625"
           sodipodi:cy="37.875"
           sodipodi:rx="1.75"
           sodipodi:ry="1.75"
           d="M 31.375 37.875 A 1.75 1.75 0 1 1  27.875,37.875 A 1.75 1.75 0 1 1  31.375 37.875 z"
           transform="matrix(1.999996,0,0,2,-29.74987,-38.24998)" />
        <path
           sodipodi:type="arc"
           style="opacity:1;fill:#ffffff;fill-opacity:1;stroke:none;stroke-width:1;stroke-linecap:round;stroke-linejoin:miter;stroke-miterlimit:4;stroke-dasharray:none;stroke-dashoffset:0;stroke-opacity:1"
           id="path2255"
           sodipodi:cx="29.625"
           sodipodi:cy="37.875"
           sodipodi:rx="1.75"
           sodipodi:ry="1.75"
           d="M 31.375 37.875 A 1.75 1.75 0 1 1  27.875,37.875 A 1.75 1.75 0 1 1  31.375 37.875 z"
           transform="matrix(0.857144,0,0,0.857144,4.107111,5.035669)" />
      </g>
      <g
         transform="matrix(0.857143,0,0,1,-15.28573,-3.50002)"
         id="g2271">
        <path
           sodipodi:type="arc"
           style="opacity:0.74025975;fill:url(#radialGradient2332);fill-opacity:1;stroke:none;stroke-width:1;stroke-linecap:round;stroke-linejoin:miter;stroke-miterlimit:4;stroke-dasharray:none;stroke-dashoffset:0;stroke-opacity:1"
           id="path2273"
           sodipodi:cx="29.625"
           sodipodi:cy="37.875"
           sodipodi:rx="1.75"
           sodipodi:ry="1.75"
           d="M 31.375 37.875 A 1.75 1.75 0 1 1  27.875,37.875 A 1.75 1.75 0 1 1  31.375 37.875 z"
           transform="matrix(1.999996,0,0,2,-29.74987,-38.24998)" />
        <path
           sodipodi:type="arc"
           style="opacity:1;fill:#ffffff;fill-opacity:1;stroke:none;stroke-width:1;stroke-linecap:round;stroke-linejoin:miter;stroke-miterlimit:4;stroke-dasharray:none;stroke-dashoffset:0;stroke-opacity:1"
           id="path2275"
           sodipodi:cx="29.625"
           sodipodi:cy="37.875"
           sodipodi:rx="1.75"
           sodipodi:ry="1.75"
           d="M 31.375 37.875 A 1.75 1.75 0 1 1  27.875,37.875 A 1.75 1.75 0 1 1  31.375 37.875 z"
           transform="matrix(0.857144,0,0,0.857144,4.107111,5.035669)" />
      </g>
      <g
         transform="matrix(1,0,0.178571,0.857143,-4.752311,-23.64287)"
         id="g2279">
        <path
           sodipodi:type="arc"
           style="opacity:0.74025975;fill:url(#radialGradient2334);fill-opacity:1;stroke:none;stroke-width:1;stroke-linecap:round;stroke-linejoin:miter;stroke-miterlimit:4;stroke-dasharray:none;stroke-dashoffset:0;stroke-opacity:1"
           id="path2281"
           sodipodi:cx="29.625"
           sodipodi:cy="37.875"
           sodipodi:rx="1.75"
           sodipodi:ry="1.75"
           d="M 31.375 37.875 A 1.75 1.75 0 1 1  27.875,37.875 A 1.75 1.75 0 1 1  31.375 37.875 z"
           transform="matrix(1.999996,0,0,2,-29.74987,-38.24998)" />
        <path
           sodipodi:type="arc"
           style="opacity:1;fill:#ffffff;fill-opacity:1;stroke:none;stroke-width:1;stroke-linecap:round;stroke-linejoin:miter;stroke-miterlimit:4;stroke-dasharray:none;stroke-dashoffset:0;stroke-opacity:1"
           id="path2283"
           sodipodi:cx="29.625"
           sodipodi:cy="37.875"
           sodipodi:rx="1.75"
           sodipodi:ry="1.75"
           d="M 31.375 37.875 A 1.75 1.75 0 1 1  27.875,37.875 A 1.75 1.75 0 1 1  31.375 37.875 z"
           transform="matrix(0.857144,0,0,0.857144,4.107111,5.035669)" />
      </g>
      <g
         transform="matrix(1,0,-0.249999,0.857143,-4.733467,-25.14288)"
         id="g2287">
        <path
           sodipodi:type="arc"
           style="opacity:0.74025975;fill:url(#radialGradient2336);fill-opacity:1;stroke:none;stroke-width:1;stroke-linecap:round;stroke-linejoin:miter;stroke-miterlimit:4;stroke-dasharray:none;stroke-dashoffset:0;stroke-opacity:1"
           id="path2289"
           sodipodi:cx="29.625"
           sodipodi:cy="37.875"
           sodipodi:rx="1.75"
           sodipodi:ry="1.75"
           d="M 31.375 37.875 A 1.75 1.75 0 1 1  27.875,37.875 A 1.75 1.75 0 1 1  31.375 37.875 z"
           transform="matrix(1.999996,0,0,2,-29.74987,-38.24998)" />
        <path
           sodipodi:type="arc"
           style="opacity:1;fill:#ffffff;fill-opacity:1;stroke:none;stroke-width:1;stroke-linecap:round;stroke-linejoin:miter;stroke-miterlimit:4;stroke-dasharray:none;stroke-dashoffset:0;stroke-opacity:1"
           id="path2291"
           sodipodi:cx="29.625"
           sodipodi:cy="37.875"
           sodipodi:rx="1.75"
           sodipodi:ry="1.75"
           d="M 31.375 37.875 A 1.75 1.75 0 1 1  27.875,37.875 A 1.75 1.75 0 1 1  31.375 37.875 z"
           transform="matrix(0.857144,0,0,0.857144,4.107111,5.035669)" />
      </g>
    </g>
  </g>
</svg>
