<?xml version="1.0" encoding="UTF-8" standalone="no"?>
<!-- Created with Inkscape (http://www.inkscape.org/) -->
<svg
   xmlns:dc="http://purl.org/dc/elements/1.1/"
   xmlns:cc="http://web.resource.org/cc/"
   xmlns:rdf="http://www.w3.org/1999/02/22-rdf-syntax-ns#"
   xmlns:svg="http://www.w3.org/2000/svg"
   xmlns="http://www.w3.org/2000/svg"
   xmlns:xlink="http://www.w3.org/1999/xlink"
   xmlns:sodipodi="http://inkscape.sourceforge.net/DTD/sodipodi-0.dtd"
   xmlns:inkscape="http://www.inkscape.org/namespaces/inkscape"
   width="72.000000px"
   height="72.000000px"
   id="svg2"
   sodipodi:version="0.32"
   inkscape:version="0.43"
   sodipodi:docbase="/home/silvestre/Desktop/Nuovo!/scalable/emblems"
   sodipodi:docname="emblem-anime.svg">
  <defs
     id="defs4">
    <linearGradient
       inkscape:collect="always"
       id="linearGradient3867">
      <stop
         style="stop-color:#000000;stop-opacity:1;"
         offset="0"
         id="stop3869" />
      <stop
         style="stop-color:#000000;stop-opacity:0;"
         offset="1"
         id="stop3871" />
    </linearGradient>
    <linearGradient
       inkscape:collect="always"
       id="linearGradient2986">
      <stop
         style="stop-color:#000000;stop-opacity:0.1557789"
         offset="0"
         id="stop2988" />
      <stop
         style="stop-color:#000000;stop-opacity:0;"
         offset="1"
         id="stop2990" />
    </linearGradient>
    <linearGradient
       inkscape:collect="always"
       id="linearGradient4856">
      <stop
         style="stop-color:#ffffff;stop-opacity:1;"
         offset="0"
         id="stop4858" />
      <stop
         style="stop-color:#ffffff;stop-opacity:0;"
         offset="1"
         id="stop4860" />
    </linearGradient>
    <linearGradient
       inkscape:collect="always"
       id="linearGradient4846">
      <stop
         style="stop-color:#f0f0f0;stop-opacity:1.0000000"
         offset="0"
         id="stop4848" />
      <stop
         style="stop-color:#e6e6e6;stop-opacity:1.0000000"
         offset="1"
         id="stop4850" />
    </linearGradient>
    <linearGradient
       inkscape:collect="always"
       id="linearGradient4101">
      <stop
         style="stop-color:#000000;stop-opacity:1;"
         offset="0"
         id="stop4103" />
      <stop
         style="stop-color:#000000;stop-opacity:0;"
         offset="1"
         id="stop4105" />
    </linearGradient>
    <linearGradient
       inkscape:collect="always"
       id="linearGradient6127">
      <stop
         style="stop-color:#ffffff;stop-opacity:1;"
         offset="0"
         id="stop6129" />
      <stop
         style="stop-color:#ffffff;stop-opacity:0;"
         offset="1"
         id="stop6131" />
    </linearGradient>
    <linearGradient
       inkscape:collect="always"
       id="linearGradient4661">
      <stop
         style="stop-color:#000000;stop-opacity:1;"
         offset="0"
         id="stop4663" />
      <stop
         style="stop-color:#000000;stop-opacity:0;"
         offset="1"
         id="stop4665" />
    </linearGradient>
    <linearGradient
       inkscape:collect="always"
       id="linearGradient4653">
      <stop
         style="stop-color:#ded6ad;stop-opacity:1;"
         offset="0"
         id="stop4655" />
      <stop
         style="stop-color:#ded6ad;stop-opacity:0;"
         offset="1"
         id="stop4657" />
    </linearGradient>
    <linearGradient
       id="linearGradient4645">
      <stop
         style="stop-color:#000000;stop-opacity:0.47524753;"
         offset="0.0000000"
         id="stop4647" />
      <stop
         style="stop-color:#000000;stop-opacity:0.16831683;"
         offset="1.0000000"
         id="stop4649" />
    </linearGradient>
    <linearGradient
       inkscape:collect="always"
       id="linearGradient4637">
      <stop
         style="stop-color:#000000;stop-opacity:1;"
         offset="0"
         id="stop4639" />
      <stop
         style="stop-color:#000000;stop-opacity:0.15920398"
         offset="1"
         id="stop4641" />
    </linearGradient>
    <linearGradient
       inkscape:collect="always"
       id="linearGradient4611">
      <stop
         style="stop-color:#ffffff;stop-opacity:1;"
         offset="0"
         id="stop4613" />
      <stop
         style="stop-color:#ffffff;stop-opacity:0;"
         offset="1"
         id="stop4615" />
    </linearGradient>
    <linearGradient
       inkscape:collect="always"
       id="linearGradient4603">
      <stop
         style="stop-color:#3e3b36;stop-opacity:1.0000000"
         offset="0"
         id="stop4605" />
      <stop
         style="stop-color:#120e04;stop-opacity:1.0000000"
         offset="1"
         id="stop4607" />
    </linearGradient>
    <linearGradient
       inkscape:collect="always"
       id="linearGradient4584">
      <stop
         style="stop-color:#000000;stop-opacity:1;"
         offset="0"
         id="stop4586" />
      <stop
         style="stop-color:#000000;stop-opacity:0;"
         offset="1"
         id="stop4588" />
    </linearGradient>
    <linearGradient
       inkscape:collect="always"
       id="linearGradient4551">
      <stop
         style="stop-color:#454440;stop-opacity:1.0000000"
         offset="0"
         id="stop4553" />
      <stop
         style="stop-color:#1a1506;stop-opacity:1.0000000"
         offset="1"
         id="stop4555" />
    </linearGradient>
    <radialGradient
       inkscape:collect="always"
       xlink:href="#linearGradient4551"
       id="radialGradient4567"
       gradientUnits="userSpaceOnUse"
       gradientTransform="matrix(0.759812,1.220467e-14,-1.337547e-14,0.707899,62.39709,141.4945)"
       cx="259.78424"
       cy="484.07202"
       fx="259.78424"
       fy="484.07202"
       r="7.1875000" />
    <linearGradient
       inkscape:collect="always"
       xlink:href="#linearGradient4584"
       id="linearGradient4590"
       x1="262.56210"
       y1="501.31766"
       x2="262.56210"
       y2="485.37439"
       gradientUnits="userSpaceOnUse"
       gradientTransform="matrix(0.413988,0.000000,0.000000,0.472539,-76.63614,-195.2818)" />
    <radialGradient
       inkscape:collect="always"
       xlink:href="#linearGradient4611"
       id="radialGradient4617"
       cx="269.95535"
       cy="480.88898"
       fx="269.95535"
       fy="480.88898"
       r="2.1875000"
       gradientUnits="userSpaceOnUse" />
    <linearGradient
       inkscape:collect="always"
       xlink:href="#linearGradient4661"
       id="linearGradient6159"
       gradientUnits="userSpaceOnUse"
       x1="322.23865"
       y1="551.83160"
       x2="319.09854"
       y2="578.83820" />
    <linearGradient
       inkscape:collect="always"
       xlink:href="#linearGradient6127"
       id="linearGradient6161"
       gradientUnits="userSpaceOnUse"
       x1="230.71429"
       y1="405.21933"
       x2="254.93427"
       y2="446.33752"
       gradientTransform="matrix(0.971364,0.000000,0.000000,0.971364,7.828397,13.99342)" />
    <linearGradient
       inkscape:collect="always"
       xlink:href="#linearGradient4653"
       id="linearGradient6163"
       gradientUnits="userSpaceOnUse"
       x1="238.90108"
       y1="547.28595"
       x2="235.36555"
       y2="556.88239" />
    <radialGradient
       inkscape:collect="always"
       xlink:href="#linearGradient4603"
       id="radialGradient6165"
       gradientUnits="userSpaceOnUse"
       gradientTransform="matrix(0.928599,0,0,0.875676,23.23267,61.1957)"
       cx="315.72775"
       cy="495.31534"
       fx="315.72775"
       fy="495.31534"
       r="7.2456300" />
    <radialGradient
       inkscape:collect="always"
       xlink:href="#linearGradient4611"
       id="radialGradient6167"
       gradientUnits="userSpaceOnUse"
       gradientTransform="translate(45.04465,13.25891)"
       cx="269.95535"
       cy="480.88898"
       fx="269.95535"
       fy="480.88898"
       r="2.1875000" />
    <radialGradient
       inkscape:collect="always"
       xlink:href="#linearGradient4645"
       id="radialGradient6169"
       gradientUnits="userSpaceOnUse"
       gradientTransform="matrix(1,0,0,0.933333,8.67084e-14,34.53844)"
       cx="287.76785"
       cy="518.07648"
       fx="287.76785"
       fy="518.07648"
       r="1.3392857" />
    <linearGradient
       inkscape:collect="always"
       xlink:href="#linearGradient4637"
       id="linearGradient6171"
       gradientUnits="userSpaceOnUse"
       x1="285.02814"
       y1="525.15131"
       x2="281.06259"
       y2="535.75964" />
    <linearGradient
       inkscape:collect="always"
       xlink:href="#linearGradient4101"
       id="linearGradient4107"
       x1="317.55676"
       y1="512.11847"
       x2="317.55676"
       y2="499.08835"
       gradientUnits="userSpaceOnUse"
       gradientTransform="translate(-3.460521e-6,-4.596324e-14)" />
    <linearGradient
       inkscape:collect="always"
       xlink:href="#linearGradient4846"
       id="linearGradient4881"
       gradientUnits="userSpaceOnUse"
       x1="146.93021"
       y1="17.581377"
       x2="146.93021"
       y2="59.980007" />
    <linearGradient
       inkscape:collect="always"
       xlink:href="#linearGradient4856"
       id="linearGradient4883"
       gradientUnits="userSpaceOnUse"
       x1="153.26668"
       y1="9.5061522"
       x2="153.26668"
       y2="39.651562" />
    <linearGradient
       inkscape:collect="always"
       xlink:href="#linearGradient2986"
       id="linearGradient2992"
       x1="325.32715"
       y1="506.56702"
       x2="309.79318"
       y2="504.68765"
       gradientUnits="userSpaceOnUse" />
    <linearGradient
       inkscape:collect="always"
       xlink:href="#linearGradient3867"
       id="linearGradient3873"
       x1="296.28198"
       y1="517.62073"
       x2="296.28198"
       y2="511.27313"
       gradientUnits="userSpaceOnUse" />
  </defs>
  <sodipodi:namedview
     id="base"
     pagecolor="#ffffff"
     bordercolor="#666666"
     borderopacity="1.0"
     inkscape:pageopacity="0.0"
     inkscape:pageshadow="2"
     inkscape:zoom="3.6197864"
     inkscape:cx="104.87004"
     inkscape:cy="60.52045"
     inkscape:document-units="px"
     inkscape:current-layer="layer4"
     inkscape:window-width="816"
     inkscape:window-height="543"
     inkscape:window-x="72"
     inkscape:window-y="89" />
  <metadata
     id="metadata7">
    <rdf:RDF>
      <cc:Work
         rdf:about="">
        <dc:format>image/svg+xml</dc:format>
        <dc:type
           rdf:resource="http://purl.org/dc/dcmitype/StillImage" />
      </cc:Work>
    </rdf:RDF>
  </metadata>
  <g
     inkscape:label="lain"
     inkscape:groupmode="layer"
     id="layer1"
     style="display:inline" />
  <g
     inkscape:groupmode="layer"
     id="layer3"
     inkscape:label="cara">
    <g
       id="g6140"
       transform="matrix(0.360622,0,0,0.360622,-62.7308,-140.1303)">
      <path
         sodipodi:nodetypes="cccccccccccccccccccccc"
         id="path4534"
         d="M 205.06096,549.81129 L 217.68787,509.91027 L 207.58635,505.86966 L 201.02036,488.19199 L 215.16249,473.0397 L 230.31478,479.10061 L 239.91123,445.76558 L 258.59905,438.69451 L 256.57875,454.35188 L 267.69042,452.83665 L 278.8021,435.66405 L 306.07622,439.70466 L 316.68282,454.35188 L 336.88587,463.94832 L 337.89603,487.68691 L 328.80465,512.94072 L 320.72343,536.17423 L 313.14729,540.71992 C 302.433,551.07706 279.33863,560.92297 275.26657,560.92297 C 273.12371,560.92297 268.70058,559.91282 268.70058,559.91282 L 263.64982,571.52957 C 237.38585,560.92296 222.99117,557.1349 205.06096,549.81129 z "
         style="fill:url(#linearGradient6163);fill-opacity:1;fill-rule:evenodd;stroke:none;stroke-width:1px;stroke-linecap:butt;stroke-linejoin:miter;stroke-opacity:1" />
      <path
         sodipodi:nodetypes="cccc"
         id="path4592"
         d="M 241.96428,470.21932 C 271.25,459.50504 285,475.3979 285,475.3979 C 285,475.3979 280.51694,463.81331 263.39286,463.79075 C 252.65483,463.76281 241.96428,470.21932 241.96428,470.21932 z "
         style="fill:#000000;fill-opacity:1;fill-rule:evenodd;stroke:none;stroke-width:1px;stroke-linecap:butt;stroke-linejoin:miter;stroke-opacity:1" />
      <path
         sodipodi:nodetypes="cccc"
         id="path4594"
         d="M 308.92857,480.04075 C 325,475.39789 335.17858,489.86218 335.17858,489.86218 C 335.17858,489.86218 330.83587,479.54755 321.42857,477.00504 C 314.82143,475.21933 308.92857,480.04075 308.92857,480.04075 z "
         style="fill:#000000;fill-opacity:1;fill-rule:evenodd;stroke:none;stroke-width:1px;stroke-linecap:butt;stroke-linejoin:miter;stroke-opacity:1" />
      <path
         sodipodi:nodetypes="csssc"
         id="path4598"
         d="M 326.0091,498.46595 C 326.0091,501.85423 321.46316,504.77928 317.44955,504.77928 C 313.43596,504.77928 310.17855,500.62831 310.17855,497.24003 C 310.17855,493.85175 312.69966,490.57645 316.71325,490.57645 C 320.72685,490.57645 326.0091,495.07766 326.0091,498.46595 z "
         style="color:#000000;fill:#ffffff;fill-opacity:1;fill-rule:evenodd;stroke:none;stroke-width:0.5;stroke-linecap:round;stroke-linejoin:round;marker:none;marker-start:none;marker-mid:none;marker-end:none;stroke-miterlimit:4;stroke-dashoffset:0;stroke-opacity:1;visibility:visible;display:inline;overflow:visible" />
      <path
         sodipodi:nodetypes="csssc"
         id="path4601"
         d="M 324.80377,497.6253 C 324.80377,500.6526 320.93956,503.266 317.52783,503.266 C 314.11612,503.266 311.3472,499.55729 311.3472,496.53 C 311.3472,493.50269 313.49068,490.63124 316.90195,490.57635 C 322.1377,490.49344 324.80377,494.598 324.80377,497.6253 z "
         style="color:#000000;fill:url(#radialGradient6165);fill-opacity:1;fill-rule:evenodd;stroke:none;stroke-width:0.5;stroke-linecap:round;stroke-linejoin:round;marker:none;marker-start:none;marker-mid:none;marker-end:none;stroke-miterlimit:4;stroke-dashoffset:0;stroke-opacity:1;visibility:visible;display:inline;overflow:visible" />
      <path
         id="path4619"
         d="M 317.1875,494.14789 C 317.1875,495.35539 316.2075,496.33539 315,496.33539 C 313.7925,496.33539 312.8125,495.35539 312.8125,494.14789 C 312.8125,492.94039 313.7925,491.96039 315,491.96039 C 316.2075,491.96039 317.1875,492.94039 317.1875,494.14789 z "
         style="opacity:0.57073215;color:#000000;fill:url(#radialGradient6167);fill-opacity:1;fill-rule:evenodd;stroke:none;stroke-width:3;stroke-linecap:round;stroke-linejoin:round;marker:none;marker-start:none;marker-mid:none;marker-end:none;stroke-miterlimit:4;stroke-dashoffset:0;stroke-opacity:1;visibility:visible;display:inline;overflow:visible" />
      <path
         sodipodi:nodetypes="cccccc"
         id="path4596"
         d="M 308.92857,493.96932 C 324.46428,484.14789 325.80357,502.22825 325.80357,502.22825 L 328.39286,502.00504 L 326.42857,501.29075 C 326.42857,501.29075 327.19716,492.5584 320,490.21932 C 315.12999,488.52924 310.22007,492.03207 308.92857,493.96932 z "
         style="fill:#000000;fill-opacity:1;fill-rule:evenodd;stroke:none;stroke-width:0.5;stroke-linecap:butt;stroke-linejoin:miter;stroke-miterlimit:4;stroke-dasharray:none;stroke-opacity:1" />
      <path
         sodipodi:nodetypes="cccc"
         id="path4623"
         d="M 308.75,500.31975 C 316.96627,509.89184 325.89286,504.42689 325.89286,504.42689 C 325.89286,504.42689 323.86367,509.26216 315.35714,507.10546 C 310.53571,505.67689 308.21429,503.35546 308.75,500.31975 z "
         style="fill:url(#linearGradient2992);fill-opacity:1;fill-rule:evenodd;stroke:none;stroke-width:1px;stroke-linecap:butt;stroke-linejoin:miter;stroke-opacity:1" />
      <path
         sodipodi:nodetypes="cccc"
         id="path4625"
         d="M 271.60714,475.04075 C 271.60714,475.04075 277.32142,476.82647 278.03571,479.86218 C 278.91005,483.57812 273.75,487.54075 273.75,487.54075 C 274.82143,481.11218 271.60714,475.04075 271.60714,475.04075 z "
         style="fill:#000000;fill-opacity:0.25870649;fill-rule:evenodd;stroke:none;stroke-width:1px;stroke-linecap:butt;stroke-linejoin:miter;stroke-opacity:1" />
      <path
         id="path4627"
         d="M 309.10714,488.43361 L 311.96429,485.57647 L 312.32143,487.54075 L 309.10714,488.43361 z "
         style="fill:#000000;fill-opacity:0.25870649;fill-rule:evenodd;stroke:none;stroke-width:1px;stroke-linecap:butt;stroke-linejoin:miter;stroke-opacity:1" />
      <path
         sodipodi:nodetypes="ccc"
         id="path4631"
         d="M 294.64286,511.29075 C 294.64286,511.29075 297.05992,515.19394 296.42857,517.71932 C 295.87393,519.93787 292.85714,520.57647 292.85714,520.57647"
         style="fill:none;fill-opacity:1;fill-rule:evenodd;stroke:url(#linearGradient3873);stroke-width:1px;stroke-linecap:round;stroke-linejoin:miter;stroke-opacity:0.43781092" />
      <path
         transform="matrix(1.142857,0,0,1.142857,-40.91837,-73.83235)"
         d="M 289.10714 518.07648 A 1.3392857 1.25 0 1 1  286.42857,518.07648 A 1.3392857 1.25 0 1 1  289.10714 518.07648 z"
         sodipodi:ry="1.25"
         sodipodi:rx="1.3392857"
         sodipodi:cy="518.07648"
         sodipodi:cx="287.76785"
         id="path4633"
         style="opacity:0.57073215;color:#000000;fill:url(#radialGradient6169);fill-opacity:1;fill-rule:evenodd;stroke:none;stroke-width:0.5;stroke-linecap:round;stroke-linejoin:round;marker:none;marker-start:none;marker-mid:none;marker-end:none;stroke-miterlimit:4;stroke-dasharray:none;stroke-dashoffset:0;stroke-opacity:0.6268657;visibility:visible;display:inline;overflow:visible"
         sodipodi:type="arc" />
      <path
         transform="matrix(1.052573,5.780715e-2,0.258803,0.964267,-152.5308,2.713725)"
         d="M 287.14287 532.0943 A 5.1785712 2.9464285 0 1 1  276.78572,532.0943 A 5.1785712 2.9464285 0 1 1  287.14287 532.0943 z"
         sodipodi:ry="2.9464285"
         sodipodi:rx="5.1785712"
         sodipodi:cy="532.0943"
         sodipodi:cx="281.96429"
         id="path4635"
         style="opacity:0.57073215;color:#000000;fill:url(#linearGradient6171);fill-opacity:1;fill-rule:evenodd;stroke:none;stroke-width:0.5;stroke-linecap:round;stroke-linejoin:round;marker:none;marker-start:none;marker-mid:none;marker-end:none;stroke-miterlimit:4;stroke-dasharray:none;stroke-dashoffset:0;stroke-opacity:0.43781092;visibility:visible;display:inline;overflow:visible"
         sodipodi:type="arc" />
      <path
         sodipodi:nodetypes="csssc"
         id="path3373"
         d="M 326.0091,498.46595 C 326.0091,501.85423 321.46316,504.77928 317.44955,504.77928 C 313.43596,504.77928 310.17855,500.62831 310.17855,497.24003 C 310.17855,493.85175 312.69966,490.57645 316.71325,490.57645 C 320.72685,490.57645 326.0091,495.07766 326.0091,498.46595 z "
         style="color:#000000;fill:url(#linearGradient4107);fill-opacity:1;fill-rule:evenodd;stroke:none;stroke-width:0.5;stroke-linecap:round;stroke-linejoin:round;marker:none;marker-start:none;marker-mid:none;marker-end:none;stroke-miterlimit:4;stroke-dashoffset:0;stroke-opacity:1;visibility:visible;display:inline;overflow:visible" />
      <g
         id="g4893">
        <path
           id="path4118"
           transform="matrix(2.772987,0,0,2.772987,173.9517,388.5795)"
           d="M 139.59375,-47.71875 C 104.78062,-47.71875 76.531253,-35.065961 76.53125,-19.46875 C 76.53125,-11.971865 83.197814,-5.2159608 93.84375,-0.15625 C 89.75532,4.7601502 77.4375,9.2187499 77.4375,9.21875 C 93.865399,10.550742 104.01308,6.8217709 108.0625,4.875 C 117.37334,7.3046437 128.04917,8.78125 139.59375,8.78125 C 174.40688,8.78125 202.68751,-3.8715391 202.6875,-19.46875 C 202.6875,-35.065961 174.40688,-47.718752 139.59375,-47.71875 z "
           style="color:#000000;fill:url(#linearGradient4881);fill-opacity:1;fill-rule:evenodd;stroke:#bfbfbf;stroke-width:1.49999976;stroke-linecap:round;stroke-linejoin:round;marker:none;marker-start:none;marker-mid:none;marker-end:none;stroke-miterlimit:4;stroke-dashoffset:0;stroke-opacity:1;visibility:visible;display:inline;overflow:visible" />
        <path
           id="text4109"
           d="M 434.755,302.96628 L 434.755,311.1358 L 431.48494,311.1358 L 431.48494,303.47195 C 431.48494,302.56549 431.35384,301.91747 431.09164,301.52789 C 430.83692,301.13835 430.4174,300.94357 429.83306,300.94356 C 429.23374,300.94357 428.76551,301.20952 428.4284,301.74141 C 428.09127,302.26582 427.92272,302.99625 427.92272,303.93268 L 427.92272,311.1358 L 424.65266,311.1358 L 424.65266,293.65055 L 427.92272,293.65055 L 427.92272,300.43788 C 428.15495,299.74118 428.552,299.20179 429.11388,298.81971 C 429.67573,298.43765 430.35371,298.24662 431.14783,298.24661 C 432.33897,298.24662 433.23796,298.64367 433.84478,299.43776 C 434.45159,300.22438 434.75499,301.40055 434.755,302.96628 M 448.94771,310.51774 C 448.18357,310.83239 447.40445,311.06837 446.61035,311.22569 C 445.81626,311.38302 444.9772,311.46168 444.0932,311.46168 C 441.98808,311.46168 440.37739,310.89981 439.26116,309.77608 C 438.15241,308.64486 437.59804,307.0192 437.59804,304.89909 C 437.59804,302.84641 438.13368,301.2245 439.20498,300.03334 C 440.27626,298.8422 441.73711,298.24662 443.58752,298.24661 C 445.4529,298.24662 446.89877,298.80099 447.92512,299.90973 C 448.95895,301.011 449.47586,302.56549 449.47586,304.5732 L 449.47586,305.91045 L 440.94676,305.91045 C 440.95425,306.89934 441.24641,307.63725 441.82326,308.1242 C 442.40011,308.61115 443.26164,308.85462 444.40785,308.85462 C 445.16447,308.85462 445.90989,308.746 446.64407,308.52874 C 447.37824,308.31148 448.14612,307.96688 448.94771,307.49491 L 448.94771,310.51774 M 446.16087,303.43824 C 446.14587,302.56923 445.92112,301.91372 445.48663,301.47171 C 445.05959,301.02223 444.42657,300.79748 443.58752,300.79747 C 442.83087,300.79748 442.22781,301.02972 441.77831,301.49419 C 441.32882,301.95118 441.06287,302.60295 440.98047,303.44948 L 446.16087,303.43824 M 458.39829,312.4955 C 457.95627,313.67917 457.42438,314.54069 456.8026,315.08009 C 456.18828,315.62697 455.43914,315.90041 454.55513,315.90042 L 451.8357,315.90042 L 451.8357,313.39449 L 453.17295,313.39449 C 453.84718,313.39449 454.34162,313.27837 454.65628,313.04613 C 454.97092,312.82139 455.2893,312.29323 455.61143,311.46168 L 455.85866,310.78744 L 451.07156,298.55001 L 454.53265,298.55001 L 457.40941,306.71954 L 460.16255,298.55001 L 463.62364,298.55001 L 458.39829,312.4955 M 469.43332,307.0117 L 472.95061,307.0117 L 472.95061,310.05701 L 470.74809,314.3609 L 468.32084,314.3609 L 469.43332,310.05701 L 469.43332,307.0117 M 500.83036,300.33674 L 500.83036,293.65055 L 504.11164,293.65055 L 504.11164,311.1358 L 500.83036,311.1358 L 500.83036,309.2704 C 500.47825,309.99709 500.02126,310.54396 499.45939,310.91105 C 498.90502,311.27814 498.24951,311.46168 497.49287,311.46168 C 496.0545,311.46168 494.93826,310.88483 494.14416,309.73113 C 493.35006,308.57744 492.95299,306.95178 492.95301,304.85414 C 492.95299,302.72655 493.3538,301.0934 494.1554,299.95468 C 494.96447,298.81597 496.11443,298.24662 497.60525,298.24661 C 498.27948,298.24662 498.88255,298.42267 499.41446,298.77476 C 499.95383,299.11938 500.42581,299.64005 500.83036,300.33674 M 496.24552,304.87661 C 496.24552,306.09025 496.4478,307.04168 496.85235,307.73089 C 497.25688,308.42012 497.81501,308.76472 498.52672,308.76472 C 499.2384,308.76472 499.80025,308.42012 500.2123,307.73089 C 500.62433,307.04168 500.83034,306.09025 500.83036,304.87661 C 500.83034,303.663 500.62433,302.71157 500.2123,302.02234 C 499.80025,301.33313 499.2384,300.98852 498.52672,300.98851 C 497.81501,300.98852 497.25688,301.33313 496.85235,302.02234 C 496.4478,302.71157 496.24552,303.663 496.24552,304.87661 M 512.70819,300.92109 C 511.92158,300.9211 511.30351,301.26946 510.85403,301.96615 C 510.40453,302.65539 510.17978,303.61805 510.1798,304.85414 C 510.17978,306.09025 510.40453,307.05666 510.85403,307.75337 C 511.30351,308.44259 511.92158,308.7872 512.70819,308.7872 C 513.50229,308.7872 514.12407,308.44259 514.57357,307.75337 C 515.02305,307.05666 515.2478,306.09025 515.24782,304.85414 C 515.2478,303.61805 515.02305,302.65539 514.57357,301.96615 C 514.12407,301.26946 513.50229,300.9211 512.70819,300.92109 M 506.88726,304.85414 C 506.88726,302.82394 507.41167,301.21701 508.46048,300.03334 C 509.51678,298.8422 510.93268,298.24662 512.70819,298.24661 C 514.49116,298.24662 515.90706,298.8422 516.95589,300.03334 C 518.01219,301.21701 518.54034,302.82394 518.54034,304.85414 C 518.54034,306.88435 518.01219,308.49503 516.95589,309.68618 C 515.90706,310.86984 514.49116,311.46168 512.70819,311.46168 C 510.93268,311.46168 509.51678,310.86984 508.46048,309.68618 C 507.41167,308.49503 506.88726,306.88435 506.88726,304.85414 M 531.66551,302.96628 L 531.66551,311.1358 L 528.39545,311.1358 L 528.39545,303.47195 C 528.39545,302.558 528.26435,301.90623 528.00216,301.51666 C 527.74744,301.11962 527.32791,300.9211 526.74358,300.92109 C 526.15174,300.9211 525.68352,301.18704 525.33891,301.71893 C 525.00179,302.25084 524.83323,302.98876 524.83323,303.93268 L 524.83323,311.1358 L 521.56317,311.1358 L 521.56317,298.55001 L 524.83323,298.55001 L 524.83323,300.43788 C 525.06546,299.74118 525.46251,299.20179 526.02439,298.81971 C 526.58624,298.43765 527.26424,298.24662 528.05834,298.24661 C 529.24948,298.24662 530.14847,298.64367 530.75529,299.43776 C 531.3621,300.22438 531.66551,301.40055 531.66551,302.96628 M 541.82404,294.3585 L 541.82404,300.5952 L 538.9473,300.5952 L 538.9473,294.3585 L 541.82404,294.3585 M 555.07282,294.97656 L 555.07282,298.55001 L 559.37671,298.55001 L 559.37671,301.07841 L 555.07282,301.07841 L 555.07282,307.03418 C 555.07282,307.59604 555.20767,308.00059 555.47737,308.24781 C 555.75453,308.48754 556.21154,308.6074 556.84831,308.6074 L 559.37671,308.6074 L 559.37671,311.1358 L 556.61233,311.1358 C 554.72447,311.1358 553.44715,310.83613 552.78042,310.23681 C 552.11366,309.63 551.78029,308.51001 551.78029,306.87686 L 551.78029,301.07841 L 548.56642,301.07841 L 548.56642,298.55001 L 551.78029,298.55001 L 551.78029,294.97656 L 555.07282,294.97656 M 587.3913,310.51774 C 586.62717,310.83239 585.84804,311.06837 585.05394,311.22569 C 584.25984,311.38302 583.4208,311.46168 582.53679,311.46168 C 580.43166,311.46168 578.82099,310.89981 577.70475,309.77608 C 576.59601,308.64486 576.04163,307.0192 576.04163,304.89909 C 576.04163,302.84641 576.57728,301.2245 577.64856,300.03334 C 578.71986,298.8422 580.18069,298.24662 582.03111,298.24661 C 583.8965,298.24662 585.34237,298.80099 586.36872,299.90973 C 587.40255,301.011 587.91946,302.56549 587.91946,304.5732 L 587.91946,305.91045 L 579.39035,305.91045 C 579.39784,306.89934 579.69002,307.63725 580.26686,308.1242 C 580.84371,308.61115 581.70523,308.85462 582.85145,308.85462 C 583.60807,308.85462 584.35347,308.746 585.08766,308.52874 C 585.82182,308.31148 586.58971,307.96688 587.3913,307.49491 L 587.3913,310.51774 M 584.60447,303.43824 C 584.58947,302.56923 584.36472,301.91372 583.93023,301.47171 C 583.50318,301.02223 582.87017,300.79748 582.03111,300.79747 C 581.27447,300.79748 580.67139,301.02972 580.2219,301.49419 C 579.77241,301.95118 579.50646,302.60295 579.42407,303.44948 L 584.60447,303.43824 M 601.71888,298.55001 L 597.4824,304.5732 L 602.08972,311.1358 L 598.24655,311.1358 L 595.77435,306.89933 L 593.31336,311.1358 L 589.47022,311.1358 L 594.12246,304.5732 L 589.84105,298.55001 L 593.68419,298.55001 L 595.77435,302.30328 L 597.87572,298.55001 L 601.71888,298.55001 M 607.66341,309.3603 L 607.66341,315.92289 L 604.38212,315.92289 L 604.38212,298.55001 L 607.66341,298.55001 L 607.66341,300.43788 C 608.00801,299.71121 608.46126,299.16433 609.02312,298.79724 C 609.58497,298.43016 610.24422,298.24662 611.00089,298.24661 C 612.43924,298.24662 613.5555,298.82347 614.3496,299.97715 C 615.14369,301.13086 615.54075,302.75652 615.54076,304.85414 C 615.54075,306.98174 615.13619,308.61489 614.32712,309.75361 C 613.52552,310.89232 612.37931,311.46168 610.88852,311.46168 C 610.21427,311.46168 609.60745,311.28937 609.06808,310.94476 C 608.53617,310.59266 608.06795,310.06451 607.66341,309.3603 M 612.24822,304.83167 C 612.24822,303.61805 612.04595,302.66662 611.64141,301.97739 C 611.23686,301.28818 610.67875,300.94357 609.96706,300.94356 C 609.25535,300.94357 608.69349,301.28818 608.28146,301.97739 C 607.86941,302.66662 607.6634,303.61805 607.66341,304.83167 C 607.6634,306.0453 607.86941,306.99673 608.28146,307.68594 C 608.69349,308.37517 609.25535,308.71977 609.96706,308.71977 C 610.67875,308.71977 611.23686,308.37517 611.64141,307.68594 C 612.04595,306.99673 612.24822,306.0453 612.24822,304.83167 M 628.92438,310.51774 C 628.16024,310.83239 627.38112,311.06837 626.58702,311.22569 C 625.79292,311.38302 624.95388,311.46168 624.06987,311.46168 C 621.96473,311.46168 620.35407,310.89981 619.23783,309.77608 C 618.12909,308.64486 617.57471,307.0192 617.57471,304.89909 C 617.57471,302.84641 618.11036,301.2245 619.18164,300.03334 C 620.25294,298.8422 621.71377,298.24662 623.56419,298.24661 C 625.42958,298.24662 626.87545,298.80099 627.90179,299.90973 C 628.93562,301.011 629.45254,302.56549 629.45254,304.5732 L 629.45254,305.91045 L 620.92343,305.91045 C 620.93091,306.89934 621.22309,307.63725 621.79994,308.1242 C 622.37678,308.61115 623.23831,308.85462 624.38453,308.85462 C 625.14115,308.85462 625.88655,308.746 626.62074,308.52874 C 627.3549,308.31148 628.12278,307.96688 628.92438,307.49491 L 628.92438,310.51774 M 626.13754,303.43824 C 626.12255,302.56923 625.8978,301.91372 625.46331,301.47171 C 625.03626,301.02223 624.40325,300.79748 623.56419,300.79747 C 622.80755,300.79748 622.20447,301.02972 621.75498,301.49419 C 621.30548,301.95118 621.03954,302.60295 620.95715,303.44948 L 626.13754,303.43824 M 642.30802,310.49527 C 641.75363,310.81741 641.15805,311.05713 640.52129,311.21445 C 639.88449,311.37927 639.19902,311.46168 638.46485,311.46168 C 636.52455,311.46168 635.00752,310.87734 633.91376,309.70866 C 632.81998,308.53998 632.27311,306.92181 632.27311,304.85414 C 632.27311,302.77899 632.82372,301.15708 633.92498,299.98839 C 635.02623,298.81223 636.54703,298.22415 638.48733,298.22413 C 639.16157,298.22415 639.80958,298.30281 640.43138,298.46011 C 641.06066,298.61745 641.6862,298.86092 642.30802,299.19054 L 642.30802,302.20214 C 641.82854,301.79011 641.30039,301.47547 640.72356,301.2582 C 640.1542,301.03347 639.56236,300.9211 638.94807,300.92109 C 637.87677,300.9211 637.0527,301.26196 636.47585,301.94368 C 635.89901,302.62542 635.61058,303.59557 635.61058,304.85414 C 635.61058,306.11272 635.89901,307.07913 636.47585,307.75337 C 637.0527,308.42761 637.87677,308.76472 638.94807,308.76472 C 639.58483,308.76472 640.18042,308.65984 640.7348,308.45008 C 641.28916,308.23283 641.81357,307.90695 642.30802,307.47244 L 642.30802,310.49527 M 651.98334,294.97656 L 651.98334,298.55001 L 656.28723,298.55001 L 656.28723,301.07841 L 651.98334,301.07841 L 651.98334,307.03418 C 651.98334,307.59604 652.11818,308.00059 652.38789,308.24781 C 652.66505,308.48754 653.12205,308.6074 653.75883,308.6074 L 656.28723,308.6074 L 656.28723,311.1358 L 653.52284,311.1358 C 651.63498,311.1358 650.35766,310.83613 649.69093,310.23681 C 649.02417,309.63 648.6908,308.51001 648.6908,306.87686 L 648.6908,301.07841 L 645.47694,301.07841 L 645.47694,298.55001 L 648.6908,298.55001 L 648.6908,294.97656 L 651.98334,294.97656 M 433.85602,327.71082 L 433.85602,330.58757 C 433.24919,330.19802 432.61616,329.90585 431.95691,329.71106 C 431.30514,329.5088 430.64963,329.40766 429.99038,329.40766 C 429.25621,329.40766 428.70183,329.51629 428.32726,329.73353 C 427.95268,329.9433 427.7654,330.25795 427.7654,330.67747 C 427.7654,331.2768 428.56698,331.76375 430.17018,332.13831 L 430.29379,332.17203 L 431.23773,332.39678 C 432.43636,332.68146 433.31287,333.14219 433.86726,333.77897 C 434.42911,334.40826 434.71004,335.2623 434.71005,336.34107 C 434.71004,337.63711 434.28302,338.61101 433.429,339.26277 C 432.58245,339.90704 431.30514,340.22918 429.59708,340.22918 C 428.84043,340.22918 428.06506,340.16175 427.27095,340.02691 C 426.47685,339.89955 425.67151,339.70477 424.85494,339.44256 L 424.85494,336.56582 C 425.58161,336.97785 426.31952,337.2925 427.06869,337.50975 C 427.82533,337.72701 428.55575,337.83563 429.25996,337.83563 C 430.03158,337.83563 430.61592,337.72326 431.01298,337.49851 C 431.41002,337.27377 431.60855,336.94788 431.60856,336.52087 C 431.60855,336.10135 431.46621,335.77921 431.18154,335.55446 C 430.90434,335.32972 430.2376,335.08999 429.1813,334.83527 L 428.27107,334.63299 C 427.01249,334.34833 426.09478,333.90258 425.51794,333.29576 C 424.94108,332.68895 424.65266,331.87612 424.65266,330.85726 C 424.65266,329.64364 425.09091,328.69971 425.96743,328.02546 C 426.84394,327.35124 428.07629,327.01412 429.66451,327.0141 C 430.37619,327.01412 431.08414,327.07405 431.78835,327.1939 C 432.50004,327.30629 433.18926,327.47859 433.85602,327.71082 M 438.36218,335.50951 L 438.36218,327.31751 L 441.65471,327.31751 L 441.65471,335.00383 C 441.6547,335.91031 441.78206,336.55833 442.03677,336.94788 C 442.29148,337.33745 442.71475,337.53223 443.30659,337.53223 C 443.89841,337.53223 444.35914,337.27002 444.68878,336.74561 C 445.0259,336.22121 445.19445,335.48704 445.19445,334.5431 L 445.19445,327.31751 L 448.48699,327.31751 L 448.48699,339.90329 L 445.19445,339.90329 L 445.19445,338.03791 C 444.9622,338.73461 444.56516,339.27401 444.0033,339.65607 C 443.44892,340.03814 442.77843,340.22918 441.99183,340.22918 C 440.79317,340.22918 439.8867,339.83213 439.2724,339.03802 C 438.66558,338.24392 438.36218,337.06775 438.36218,335.50951 M 462.33135,339.26277 C 461.77696,339.5849 461.18138,339.82464 460.54462,339.98196 C 459.90782,340.14677 459.22235,340.22918 458.48819,340.22918 C 456.54787,340.22918 455.03085,339.64483 453.93709,338.47616 C 452.84331,337.30748 452.29644,335.68931 452.29644,333.62164 C 452.29644,331.5465 452.84705,329.92458 453.94831,328.75589 C 455.04957,327.57973 456.57035,326.99165 458.51067,326.99163 C 459.18489,326.99165 459.83291,327.07031 460.45471,327.22762 C 461.08399,327.38495 461.70953,327.62842 462.33135,327.95804 L 462.33135,330.96963 C 461.85187,330.55761 461.32372,330.24297 460.7469,330.02571 C 460.17752,329.80096 459.58568,329.68859 458.9714,329.68858 C 457.9001,329.68859 457.07603,330.02946 456.49918,330.71118 C 455.92233,331.39292 455.63391,332.36307 455.63391,333.62164 C 455.63391,334.88023 455.92233,335.84663 456.49918,336.52087 C 457.07603,337.1951 457.9001,337.53223 458.9714,337.53223 C 459.60816,337.53223 460.20374,337.42735 460.75813,337.21758 C 461.31248,337.00033 461.83689,336.67445 462.33135,336.23993 L 462.33135,339.26277 M 476.28807,331.73377 L 476.28807,339.90329 L 473.01802,339.90329 L 473.01802,332.23945 C 473.01802,331.33299 472.88691,330.68497 472.62473,330.2954 C 472.37,329.90585 471.95048,329.71107 471.36615,329.71106 C 470.76681,329.71107 470.29859,329.97702 469.96147,330.50891 C 469.62435,331.03333 469.4558,331.76375 469.4558,332.70019 L 469.4558,339.90329 L 466.18573,339.90329 L 466.18573,322.41805 L 469.4558,322.41805 L 469.4558,329.20538 C 469.68803,328.50868 470.08507,327.96929 470.64696,327.58721 C 471.20881,327.20516 471.8868,327.01412 472.6809,327.0141 C 473.87205,327.01412 474.77103,327.41117 475.37785,328.20526 C 475.98466,328.99189 476.28807,330.16806 476.28807,331.73377 M 499.80775,333.99247 C 498.57915,333.99248 497.72136,334.1498 497.23442,334.46444 C 496.74747,334.77909 496.504,335.31847 496.504,336.08261 C 496.504,336.65197 496.67256,337.1052 497.00967,337.44233 C 497.34678,337.77945 497.80377,337.94801 498.38061,337.94801 C 499.24962,337.94801 499.92387,337.62213 500.40334,336.97035 C 500.88279,336.31111 501.12252,335.39339 501.12252,334.21722 L 501.12252,333.99247 L 499.80775,333.99247 M 504.39258,332.72266 L 504.39258,339.90329 L 501.12252,339.90329 L 501.12252,338.49863 C 500.72547,339.05301 500.21604,339.48002 499.59426,339.77969 C 498.97244,340.07935 498.28697,340.22918 497.53782,340.22918 C 496.10693,340.22918 494.99069,339.85085 494.18911,339.09421 C 493.395,338.33757 492.99794,337.28126 492.99794,335.92529 C 492.99794,334.45696 493.47366,333.37443 494.42508,332.67771 C 495.37652,331.97351 496.84859,331.62141 498.84136,331.6214 L 501.12252,331.6214 L 501.12252,331.07077 C 501.12252,330.53888 500.92772,330.13809 500.53818,329.86838 C 500.15611,329.5912 499.5905,329.45261 498.84136,329.4526 C 498.05473,329.45261 497.2906,329.55375 496.54895,329.756 C 495.81476,329.95079 495.04688,330.26544 494.24529,330.69994 L 494.24529,327.89062 C 494.97197,327.59096 495.70988,327.36997 496.45904,327.22762 C 497.20819,327.08529 498.00228,327.01412 498.84136,327.0141 C 500.88653,327.01412 502.32116,327.4299 503.14524,328.26145 C 503.9768,329.09302 504.39256,330.58009 504.39258,332.72266 M 528.51908,329.10425 L 528.51908,322.41805 L 531.80035,322.41805 L 531.80035,339.90329 L 528.51908,339.90329 L 528.51908,338.03791 C 528.16696,338.76458 527.70998,339.31147 527.14812,339.67855 C 526.59374,340.04563 525.93823,340.22918 525.18158,340.22918 C 523.74321,340.22918 522.62697,339.65233 521.83288,338.49863 C 521.03878,337.34494 520.64171,335.71927 520.64173,333.62164 C 520.64171,331.49406 521.04252,329.8609 521.84411,328.72218 C 522.65319,327.58347 523.80314,327.01412 525.29397,327.0141 C 525.96821,327.01412 526.57127,327.19017 527.10318,327.54226 C 527.64255,327.88688 528.11453,328.40754 528.51908,329.10425 M 523.93425,333.64412 C 523.93425,334.85775 524.13652,335.80917 524.54107,336.49839 C 524.9456,337.18761 525.50373,337.53223 526.21543,337.53223 C 526.92712,337.53223 527.48897,337.18761 527.90102,336.49839 C 528.31304,335.80917 528.51906,334.85775 528.51908,333.64412 C 528.51906,332.43049 528.31304,331.47907 527.90102,330.78984 C 527.48897,330.10063 526.92712,329.75602 526.21543,329.756 C 525.50373,329.75602 524.9456,330.10063 524.54107,330.78984 C 524.13652,331.47907 523.93425,332.43049 523.93425,333.64412 M 545.85822,339.28524 C 545.09409,339.59988 544.31496,339.83587 543.52086,339.99319 C 542.72677,340.15051 541.88772,340.22918 541.00371,340.22918 C 538.89859,340.22918 537.28791,339.66731 536.17167,338.54359 C 535.06293,337.41236 534.50855,335.7867 534.50855,333.66659 C 534.50855,331.61392 535.0442,329.992 536.11548,328.80084 C 537.18679,327.6097 538.64761,327.01412 540.49803,327.0141 C 542.36342,327.01412 543.80929,327.56849 544.83564,328.67723 C 545.86947,329.77849 546.38638,331.33299 546.38638,333.34071 L 546.38638,334.67794 L 537.85728,334.67794 C 537.86476,335.66683 538.15694,336.40475 538.73378,336.8917 C 539.31063,337.37865 540.17216,337.62213 541.31837,337.62212 C 542.07499,337.62213 542.82039,337.5135 543.55458,337.29624 C 544.28875,337.07899 545.05663,336.73438 545.85822,336.26241 L 545.85822,339.28524 M 543.07139,332.20574 C 543.05639,331.33674 542.83164,330.68122 542.39715,330.23921 C 541.9701,329.78973 541.33709,329.56499 540.49803,329.56498 C 539.7414,329.56499 539.13831,329.79722 538.68882,330.26168 C 538.23933,330.71868 537.97338,331.37044 537.89099,332.21698 L 543.07139,332.20574 M 555.07282,323.74405 L 555.07282,327.31751 L 559.37671,327.31751 L 559.37671,329.84591 L 555.07282,329.84591 L 555.07282,335.80167 C 555.07282,336.36355 555.20767,336.76809 555.47737,337.0153 C 555.75453,337.25504 556.21154,337.37491 556.84831,337.37491 L 559.37671,337.37491 L 559.37671,339.90329 L 556.61233,339.90329 C 554.72447,339.90329 553.44715,339.60363 552.78042,339.00431 C 552.11366,338.3975 551.78029,337.27751 551.78029,335.64435 L 551.78029,329.84591 L 548.56642,329.84591 L 548.56642,327.31751 L 551.78029,327.31751 L 551.78029,323.74405 L 555.07282,323.74405 M 569.02954,333.99247 C 567.80094,333.99248 566.94316,334.1498 566.45621,334.46444 C 565.96926,334.77909 565.72579,335.31847 565.72579,336.08261 C 565.72579,336.65197 565.89435,337.1052 566.23146,337.44233 C 566.56859,337.77945 567.02556,337.94801 567.60241,337.94801 C 568.47142,337.94801 569.14567,337.62213 569.62513,336.97035 C 570.10459,336.31111 570.34432,335.39339 570.34432,334.21722 L 570.34432,333.99247 L 569.02954,333.99247 M 573.61438,332.72266 L 573.61438,339.90329 L 570.34432,339.90329 L 570.34432,338.49863 C 569.94727,339.05301 569.43783,339.48002 568.81605,339.77969 C 568.19423,340.07935 567.50876,340.22918 566.75962,340.22918 C 565.32872,340.22918 564.21248,339.85085 563.4109,339.09421 C 562.61679,338.33757 562.21975,337.28126 562.21975,335.92529 C 562.21975,334.45696 562.69546,333.37443 563.64688,332.67771 C 564.59832,331.97351 566.07039,331.62141 568.06315,331.6214 L 570.34432,331.6214 L 570.34432,331.07077 C 570.34432,330.53888 570.14953,330.13809 569.75997,329.86838 C 569.3779,329.5912 568.81229,329.45261 568.06315,329.4526 C 567.27654,329.45261 566.51239,329.55375 565.77074,329.756 C 565.03656,329.95079 564.26868,330.26544 563.46708,330.69994 L 563.46708,327.89062 C 564.19377,327.59096 564.93168,327.36997 565.68083,327.22762 C 566.42998,327.08529 567.22408,327.01412 568.06315,327.0141 C 570.10833,327.01412 571.54297,327.4299 572.36703,328.26145 C 573.19859,329.09302 573.61436,330.58009 573.61438,332.72266 M 577.49124,327.31751 L 584.00888,327.31751 L 584.00888,337.37491 L 588.09925,337.37491 L 588.09925,339.90329 L 576.61473,339.90329 L 576.61473,337.37491 L 580.71635,337.37491 L 580.71635,329.84591 L 577.49124,329.84591 L 577.49124,327.31751 M 580.71635,321.19318 L 584.00888,321.19318 L 584.00888,325.03635 L 580.71635,325.03635 L 580.71635,321.19318 M 593.20099,334.65547 L 593.20099,324.94644 L 589.86353,324.94644 L 589.86353,322.41805 L 596.49353,322.41805 L 596.49353,334.65547 C 596.49352,335.64436 596.64709,336.34482 596.95425,336.75685 C 597.2614,337.16889 597.78207,337.37491 598.51623,337.37491 L 601.14577,337.37491 L 601.14577,339.90329 L 597.59479,339.90329 C 596.02905,339.90329 594.90532,339.49875 594.22359,338.68966 C 593.54185,337.88058 593.20099,336.53585 593.20099,334.65547 M 615.08003,339.28524 C 614.31588,339.59988 613.53676,339.83587 612.74267,339.99319 C 611.94857,340.15051 611.10951,340.22918 610.22551,340.22918 C 608.12038,340.22918 606.50971,339.66731 605.39347,338.54359 C 604.28473,337.41236 603.73034,335.7867 603.73034,333.66659 C 603.73034,331.61392 604.26599,329.992 605.33727,328.80084 C 606.40858,327.6097 607.86941,327.01412 609.71984,327.0141 C 611.58521,327.01412 613.03109,327.56849 614.05743,328.67723 C 615.09126,329.77849 615.60818,331.33299 615.60818,333.34071 L 615.60818,334.67794 L 607.07907,334.67794 C 607.08655,335.66683 607.37873,336.40475 607.95558,336.8917 C 608.53242,337.37865 609.39396,337.62213 610.54017,337.62212 C 611.29679,337.62213 612.0422,337.5135 612.77638,337.29624 C 613.51055,337.07899 614.27843,336.73438 615.08003,336.26241 L 615.08003,339.28524 M 612.29318,332.20574 C 612.27818,331.33674 612.05343,330.68122 611.61895,330.23921 C 611.19191,329.78973 610.55888,329.56499 609.71984,329.56498 C 608.96319,329.56499 608.36011,329.79722 607.91063,330.26168 C 607.46113,330.71868 607.19518,331.37044 607.11278,332.21698 L 612.29318,332.20574 M 625.42959,329.10425 L 625.42959,322.41805 L 628.71087,322.41805 L 628.71087,339.90329 L 625.42959,339.90329 L 625.42959,338.03791 C 625.07747,338.76458 624.6205,339.31147 624.05863,339.67855 C 623.50426,340.04563 622.84874,340.22918 622.0921,340.22918 C 620.65372,340.22918 619.53749,339.65233 618.74339,338.49863 C 617.9493,337.34494 617.55223,335.71927 617.55224,333.62164 C 617.55223,331.49406 617.95303,329.8609 618.75463,328.72218 C 619.56371,327.58347 620.71366,327.01412 622.20448,327.0141 C 622.87872,327.01412 623.48178,327.19017 624.01369,327.54226 C 624.55307,327.88688 625.02504,328.40754 625.42959,329.10425 M 620.84476,333.64412 C 620.84476,334.85775 621.04704,335.80917 621.45158,336.49839 C 621.85611,337.18761 622.41424,337.53223 623.12595,337.53223 C 623.83764,337.53223 624.39948,337.18761 624.81153,336.49839 C 625.22356,335.80917 625.42958,334.85775 625.42959,333.64412 C 625.42958,332.43049 625.22356,331.47907 624.81153,330.78984 C 624.39948,330.10063 623.83764,329.75602 623.12595,329.756 C 622.41424,329.75602 621.85611,330.10063 621.45158,330.78984 C 621.04704,331.47907 620.84476,332.43049 620.84476,333.64412 M 652.53397,326.21626 L 652.53397,327.31751 L 656.39959,327.31751 L 656.39959,329.84591 L 652.53397,329.84591 L 652.53397,339.90329 L 649.24143,339.90329 L 649.24143,329.84591 L 646.18488,329.84591 L 646.18488,327.31751 L 649.24143,327.31751 L 649.24143,326.441 C 649.24143,324.92773 649.55607,323.87892 650.18537,323.29456 C 650.81465,322.71024 651.98334,322.41807 653.69142,322.41805 L 656.39959,322.41805 L 656.39959,324.94644 L 653.82626,324.94644 C 653.33181,324.94645 652.99469,325.03635 652.81489,325.21614 C 652.64259,325.39595 652.54895,325.72932 652.53397,326.21626 M 665.94006,333.99247 C 664.71146,333.99248 663.85367,334.1498 663.36673,334.46444 C 662.87978,334.77909 662.6363,335.31847 662.6363,336.08261 C 662.6363,336.65197 662.80487,337.1052 663.14198,337.44233 C 663.4791,337.77945 663.93608,337.94801 664.51292,337.94801 C 665.38193,337.94801 666.05619,337.62213 666.53565,336.97035 C 667.0151,336.31111 667.25484,335.39339 667.25484,334.21722 L 667.25484,333.99247 L 665.94006,333.99247 M 670.52489,332.72266 L 670.52489,339.90329 L 667.25484,339.90329 L 667.25484,338.49863 C 666.85778,339.05301 666.34835,339.48002 665.72657,339.77969 C 665.10475,340.07935 664.41928,340.22918 663.67013,340.22918 C 662.23924,340.22918 661.123,339.85085 660.32142,339.09421 C 659.52731,338.33757 659.13026,337.28126 659.13026,335.92529 C 659.13026,334.45696 659.60597,333.37443 660.55739,332.67771 C 661.50883,331.97351 662.98091,331.62141 664.97366,331.6214 L 667.25484,331.6214 L 667.25484,331.07077 C 667.25484,330.53888 667.06004,330.13809 666.67049,329.86838 C 666.28842,329.5912 665.72281,329.45261 664.97366,329.4526 C 664.18705,329.45261 663.42291,329.55375 662.68126,329.756 C 661.94708,329.95079 661.1792,330.26544 660.3776,330.69994 L 660.3776,327.89062 C 661.10428,327.59096 661.84219,327.36997 662.59135,327.22762 C 663.3405,327.08529 664.1346,327.01412 664.97366,327.0141 C 667.01884,327.01412 668.45348,327.4299 669.27755,328.26145 C 670.10911,329.09302 670.52487,330.58009 670.52489,332.72266 M 683.8411,339.26277 C 683.28671,339.5849 682.69113,339.82464 682.05437,339.98196 C 681.41757,340.14677 680.7321,340.22918 679.99793,340.22918 C 678.05762,340.22918 676.5406,339.64483 675.44684,338.47616 C 674.35306,337.30748 673.80619,335.68931 673.80619,333.62164 C 673.80619,331.5465 674.3568,329.92458 675.45805,328.75589 C 676.55931,327.57973 678.0801,326.99165 680.02041,326.99163 C 680.69465,326.99165 681.34266,327.07031 681.96446,327.22762 C 682.59374,327.38495 683.21928,327.62842 683.8411,327.95804 L 683.8411,330.96963 C 683.36162,330.55761 682.83347,330.24297 682.25664,330.02571 C 681.68728,329.80096 681.09543,329.68859 680.48115,329.68858 C 679.40985,329.68859 678.58577,330.02946 678.00893,330.71118 C 677.43208,331.39292 677.14366,332.36307 677.14366,333.62164 C 677.14366,334.88023 677.43208,335.84663 678.00893,336.52087 C 678.58577,337.1951 679.40985,337.53223 680.48115,337.53223 C 681.11791,337.53223 681.71349,337.42735 682.26788,337.21758 C 682.82223,337.00033 683.34665,336.67445 683.8411,336.23993 L 683.8411,339.26277 M 698.14618,339.28524 C 697.38204,339.59988 696.60292,339.83587 695.80882,339.99319 C 695.01473,340.15051 694.17567,340.22918 693.29166,340.22918 C 691.18654,340.22918 689.57586,339.66731 688.45962,338.54359 C 687.35088,337.41236 686.7965,335.7867 686.7965,333.66659 C 686.7965,331.61392 687.33215,329.992 688.40343,328.80084 C 689.47474,327.6097 690.93557,327.01412 692.78599,327.0141 C 694.65137,327.01412 696.09724,327.56849 697.12359,328.67723 C 698.15742,329.77849 698.67433,331.33299 698.67433,333.34071 L 698.67433,334.67794 L 690.14523,334.67794 C 690.15271,335.66683 690.44489,336.40475 691.02173,336.8917 C 691.59858,337.37865 692.46011,337.62213 693.60632,337.62212 C 694.36294,337.62213 695.10835,337.5135 695.84254,337.29624 C 696.5767,337.07899 697.34459,336.73438 698.14618,336.26241 L 698.14618,339.28524 M 695.35934,332.20574 C 695.34434,331.33674 695.11959,330.68122 694.6851,330.23921 C 694.25806,329.78973 693.62504,329.56499 692.78599,329.56498 C 692.02935,329.56499 691.42626,329.79722 690.97678,330.26168 C 690.52728,330.71868 690.26133,331.37044 690.17894,332.21698 L 695.35934,332.20574 M 425.20329,356.08501 L 431.72093,356.08501 L 431.72093,366.1424 L 435.81131,366.1424 L 435.81131,368.6708 L 424.32678,368.6708 L 424.32678,366.1424 L 428.4284,366.1424 L 428.4284,358.61341 L 425.20329,358.61341 L 425.20329,356.08501 M 428.4284,349.96068 L 431.72093,349.96068 L 431.72093,353.80384 L 428.4284,353.80384 L 428.4284,349.96068 M 444.31795,352.51155 L 444.31795,356.08501 L 448.62184,356.08501 L 448.62184,358.61341 L 444.31795,358.61341 L 444.31795,364.56918 C 444.31794,365.13105 444.45279,365.53559 444.7225,365.78281 C 444.99966,366.02254 445.45666,366.1424 446.09344,366.1424 L 448.62184,366.1424 L 448.62184,368.6708 L 445.85745,368.6708 C 443.96959,368.6708 442.69228,368.37113 442.02554,367.77181 C 441.35878,367.16499 441.02541,366.04501 441.02541,364.41186 L 441.02541,358.61341 L 437.81155,358.61341 L 437.81155,356.08501 L 441.02541,356.08501 L 441.02541,352.51155 L 444.31795,352.51155 M 458.75789,351.89349 L 458.75789,358.1302 L 455.88114,358.1302 L 455.88114,351.89349 L 458.75789,351.89349 M 475.38909,356.47832 L 475.38909,359.35507 C 474.78227,358.96552 474.14923,358.67335 473.48999,358.47856 C 472.83822,358.2763 472.1827,358.17516 471.52347,358.17515 C 470.78929,358.17516 470.23491,358.28379 469.86034,358.50104 C 469.48575,358.71081 469.29847,359.02545 469.29847,359.44497 C 469.29847,360.0443 470.10007,360.53125 471.70326,360.90582 L 471.82687,360.93953 L 472.77081,361.16427 C 473.96944,361.44896 474.84594,361.90969 475.40033,362.54646 C 475.96218,363.17576 476.24312,364.02979 476.24312,365.10857 C 476.24312,366.40461 475.8161,367.37851 474.96209,368.03027 C 474.11552,368.67454 472.83822,368.99667 471.13016,368.99667 C 470.3735,368.99667 469.59814,368.92925 468.80404,368.7944 C 468.00992,368.66705 467.20458,368.47227 466.38801,368.21007 L 466.38801,365.33331 C 467.11469,365.74536 467.8526,366.06 468.60177,366.27725 C 469.3584,366.4945 470.08883,366.60313 470.79304,366.60313 C 471.56467,366.60313 472.14898,366.49076 472.54606,366.26602 C 472.94311,366.04126 473.14162,365.71539 473.14164,365.28836 C 473.14162,364.86884 472.99928,364.54671 472.71461,364.32196 C 472.43743,364.09721 471.77067,363.85749 470.71438,363.60277 L 469.80415,363.4005 C 468.54557,363.11583 467.62787,362.67008 467.05102,362.06326 C 466.47416,361.45646 466.18573,360.64362 466.18573,359.62477 C 466.18573,358.41115 466.624,357.46721 467.50051,356.79296 C 468.37702,356.11874 469.60937,355.78162 471.19759,355.78161 C 471.90928,355.78162 472.61723,355.84155 473.32144,355.96141 C 474.03312,356.07379 474.72234,356.2461 475.38909,356.47832 M 501.49335,368.18759 C 501.49335,370.07545 501.15247,371.42019 500.47077,372.22178 C 499.79651,373.03086 498.67277,373.43541 497.09956,373.43541 L 493.54857,373.43541 L 493.54857,370.90702 L 496.17812,370.90702 C 496.91228,370.90702 497.43294,370.701 497.7401,370.28897 C 498.04723,369.87694 498.20082,369.17647 498.20082,368.18759 L 498.20082,358.61341 L 494.86335,358.61341 L 494.86335,356.08501 L 501.49335,356.08501 L 501.49335,368.18759 M 501.49335,353.80384 L 498.20082,353.80384 L 498.20082,349.96068 L 501.49335,349.96068 L 501.49335,353.80384 M 507.58397,364.27701 L 507.58397,356.08501 L 510.8765,356.08501 L 510.8765,363.77133 C 510.8765,364.67781 511.00385,365.32582 511.25857,365.71539 C 511.51329,366.10495 511.93655,366.29972 512.52839,366.29972 C 513.12022,366.29972 513.58094,366.03752 513.91058,365.51311 C 514.24769,364.98871 514.41625,364.25453 514.41625,363.3106 L 514.41625,356.08501 L 517.70879,356.08501 L 517.70879,368.6708 L 514.41625,368.6708 L 514.41625,366.8054 C 514.18401,367.50212 513.78695,368.0415 513.22511,368.42357 C 512.67071,368.80565 512.00022,368.99667 511.21362,368.99667 C 510.01498,368.99667 509.1085,368.59963 508.49419,367.80552 C 507.88737,367.01142 507.58397,365.83525 507.58397,364.27701 M 530.76653,356.47832 L 530.76653,359.35507 C 530.15971,358.96552 529.52667,358.67335 528.86743,358.47856 C 528.21566,358.2763 527.56014,358.17516 526.9009,358.17515 C 526.16672,358.17516 525.61235,358.28379 525.23778,358.50104 C 524.86319,358.71081 524.67591,359.02545 524.67591,359.44497 C 524.67591,360.0443 525.47751,360.53125 527.0807,360.90582 L 527.20431,360.93953 L 528.14825,361.16427 C 529.34687,361.44896 530.22338,361.90969 530.77777,362.54646 C 531.33962,363.17576 531.62056,364.02979 531.62056,365.10857 C 531.62056,366.40461 531.19353,367.37851 530.33952,368.03027 C 529.49296,368.67454 528.21566,368.99667 526.50759,368.99667 C 525.75093,368.99667 524.97558,368.92925 524.18147,368.7944 C 523.38736,368.66705 522.58202,368.47227 521.76545,368.21007 L 521.76545,365.33331 C 522.49213,365.74536 523.23003,366.06 523.9792,366.27725 C 524.73584,366.4945 525.46627,366.60313 526.17048,366.60313 C 526.9421,366.60313 527.52643,366.49076 527.9235,366.26602 C 528.32054,366.04126 528.51906,365.71539 528.51908,365.28836 C 528.51906,364.86884 528.37672,364.54671 528.09205,364.32196 C 527.81487,364.09721 527.14812,363.85749 526.09181,363.60277 L 525.18158,363.4005 C 523.923,363.11583 523.00531,362.67008 522.42846,362.06326 C 521.85159,361.45646 521.56317,360.64362 521.56317,359.62477 C 521.56317,358.41115 522.00143,357.46721 522.87794,356.79296 C 523.75445,356.11874 524.98681,355.78162 526.57502,355.78161 C 527.28671,355.78162 527.99466,355.84155 528.69888,355.96141 C 529.41056,356.07379 530.09977,356.2461 530.76653,356.47832 M 541.22846,352.51155 L 541.22846,356.08501 L 545.53234,356.08501 L 545.53234,358.61341 L 541.22846,358.61341 L 541.22846,364.56918 C 541.22846,365.13105 541.36331,365.53559 541.63301,365.78281 C 541.91017,366.02254 542.36717,366.1424 543.00395,366.1424 L 545.53234,366.1424 L 545.53234,368.6708 L 542.76796,368.6708 C 540.88011,368.6708 539.60279,368.37113 538.93606,367.77181 C 538.2693,367.16499 537.93592,366.04501 537.93592,364.41186 L 537.93592,358.61341 L 534.72206,358.61341 L 534.72206,356.08501 L 537.93592,356.08501 L 537.93592,352.51155 L 541.22846,352.51155 M 569.02954,362.75997 C 567.80094,362.75998 566.94316,362.9173 566.45621,363.23194 C 565.96926,363.54659 565.72579,364.08598 565.72579,364.85011 C 565.72579,365.41947 565.89435,365.87271 566.23146,366.20982 C 566.56859,366.54694 567.02556,366.71551 567.60241,366.7155 C 568.47142,366.71551 569.14567,366.38962 569.62513,365.73786 C 570.10459,365.07861 570.34432,364.1609 570.34432,362.98472 L 570.34432,362.75997 L 569.02954,362.75997 M 573.61438,361.49015 L 573.61438,368.6708 L 570.34432,368.6708 L 570.34432,367.26613 C 569.94727,367.8205 569.43783,368.24753 568.81605,368.54718 C 568.19423,368.84684 567.50876,368.99667 566.75962,368.99667 C 565.32872,368.99667 564.21248,368.61836 563.4109,367.86171 C 562.61679,367.10506 562.21975,366.04876 562.21975,364.69278 C 562.21975,363.22445 562.69546,362.14193 563.64688,361.44521 C 564.59832,360.74101 566.07039,360.38891 568.06315,360.3889 L 570.34432,360.3889 L 570.34432,359.83827 C 570.34432,359.30638 570.14953,358.90559 569.75997,358.63588 C 569.3779,358.35871 568.81229,358.22011 568.06315,358.2201 C 567.27654,358.22011 566.51239,358.32125 565.77074,358.52351 C 565.03656,358.7183 564.26868,359.03294 563.46708,359.46745 L 563.46708,356.65811 C 564.19377,356.35847 564.93168,356.13746 565.68083,355.99511 C 566.42998,355.85279 567.22408,355.78162 568.06315,355.78161 C 570.10833,355.78162 571.54297,356.1974 572.36703,357.02895 C 573.19859,357.86052 573.61436,359.34758 573.61438,361.49015 M 587.04295,360.50127 L 587.04295,368.6708 L 583.77289,368.6708 L 583.77289,361.00695 C 583.77289,360.09299 583.64179,359.44123 583.3796,359.05166 C 583.12487,358.65462 582.70535,358.4561 582.12102,358.45609 C 581.52918,358.4561 581.06096,358.72204 580.71635,359.25393 C 580.37922,359.78584 580.21067,360.52375 580.21067,361.46768 L 580.21067,368.6708 L 576.94061,368.6708 L 576.94061,356.08501 L 580.21067,356.08501 L 580.21067,357.97288 C 580.4429,357.27618 580.83994,356.73679 581.40184,356.35471 C 581.96368,355.97265 582.64167,355.78162 583.43577,355.78161 C 584.62692,355.78162 585.52591,356.17867 586.13273,356.97277 C 586.73953,357.75938 587.04295,358.93555 587.04295,360.50127 M 615.08003,368.05275 C 614.31588,368.36739 613.53676,368.60337 612.74267,368.7607 C 611.94857,368.91802 611.10951,368.99667 610.22551,368.99667 C 608.12038,368.99667 606.50971,368.43481 605.39347,367.31108 C 604.28473,366.17986 603.73034,364.5542 603.73034,362.43409 C 603.73034,360.38142 604.26599,358.7595 605.33727,357.56834 C 606.40858,356.37719 607.86941,355.78162 609.71984,355.78161 C 611.58521,355.78162 613.03109,356.33599 614.05743,357.44473 C 615.09126,358.546 615.60818,360.10049 615.60818,362.10821 L 615.60818,363.44545 L 607.07907,363.44545 C 607.08655,364.43434 607.37873,365.17225 607.95558,365.6592 C 608.53242,366.14615 609.39396,366.38962 610.54017,366.38962 C 611.29679,366.38962 612.0422,366.281 612.77638,366.06374 C 613.51055,365.84648 614.27843,365.50188 615.08003,365.02991 L 615.08003,368.05275 M 612.29318,360.97324 C 612.27818,360.10423 612.05343,359.44872 611.61895,359.00672 C 611.19191,358.55723 610.55888,358.33248 609.71984,358.33247 C 608.96319,358.33248 608.36011,358.56472 607.91063,359.02919 C 607.46113,359.48618 607.19518,360.13795 607.11278,360.98448 L 612.29318,360.97324 M 624.29462,357.34359 C 624.54182,356.81171 624.85647,356.4184 625.23856,356.16368 C 625.6206,355.90898 626.08883,355.78162 626.64321,355.78161 C 627.72948,355.78162 628.47862,356.1562 628.89066,356.90534 C 629.3102,357.6545 629.51995,359.21274 629.51997,361.58005 L 629.51997,368.6708 L 626.82302,368.6708 L 626.82302,360.59117 C 626.82299,359.65474 626.75184,359.0292 626.6095,358.71454 C 626.46716,358.39991 626.20869,358.24259 625.83412,358.24257 C 625.45955,358.24259 625.19734,358.40366 625.04752,358.72578 C 624.89768,359.04792 624.82277,359.66973 624.82277,360.59117 L 624.82277,368.6708 L 622.15953,368.6708 L 622.15953,360.59117 C 622.15953,359.66973 622.0846,359.04792 621.93478,358.72578 C 621.78494,358.40366 621.52276,358.24259 621.14818,358.24257 C 620.77359,358.24259 620.51514,358.39991 620.3728,358.71454 C 620.23046,359.0292 620.15929,359.65474 620.15929,360.59117 L 620.15929,368.6708 L 617.46234,368.6708 L 617.46234,356.08501 L 619.85589,356.08501 L 619.85589,357.38854 C 620.04316,356.89411 620.34282,356.50455 620.75488,356.21986 C 621.1669,355.9277 621.62762,355.78162 622.13705,355.78161 C 622.64647,355.78162 623.11095,355.9352 623.53048,356.24233 C 623.95,356.54201 624.20471,356.9091 624.29462,357.34359 M 639.93695,362.41162 C 639.93695,361.198 639.73468,360.24657 639.33012,359.55734 C 638.92558,358.86813 638.36747,358.52352 637.65578,358.52351 C 636.94407,358.52352 636.38221,358.86813 635.97018,359.55734 C 635.55813,360.24657 635.35211,361.198 635.35214,362.41162 C 635.35211,363.62525 635.55813,364.57668 635.97018,365.26589 C 636.38221,365.95512 636.94407,366.29972 637.65578,366.29972 C 638.36747,366.29972 638.92558,365.95512 639.33012,365.26589 C 639.73468,364.57668 639.93695,363.62525 639.93695,362.41162 M 635.35214,357.87174 C 635.75666,357.17505 636.22488,356.65439 636.7568,356.30976 C 637.29616,355.95767 637.90299,355.78162 638.57724,355.78161 C 640.06803,355.78162 641.21424,356.35098 642.01584,357.48968 C 642.82492,358.6284 643.22946,360.26155 643.22948,362.38914 C 643.22946,364.48678 642.83242,366.11244 642.03832,367.26613 C 641.24421,368.41983 640.12797,368.99667 638.6896,368.99667 C 637.93295,368.99667 637.27369,368.81314 636.71184,368.44605 C 636.14997,368.07896 635.69673,367.53209 635.35214,366.8054 L 635.35214,368.6708 L 632.07083,368.6708 L 632.07083,351.18555 L 635.35214,351.18555 L 635.35214,357.87174 M 648.57843,363.42298 L 648.57843,353.71394 L 645.24096,353.71394 L 645.24096,351.18555 L 651.87097,351.18555 L 651.87097,363.42298 C 651.87095,364.41186 652.02453,365.11232 652.33169,365.52435 C 652.63883,365.93638 653.15951,366.1424 653.89367,366.1424 L 656.52321,366.1424 L 656.52321,368.6708 L 652.97223,368.6708 C 651.40649,368.6708 650.28275,368.26625 649.60103,367.45717 C 648.91929,366.64808 648.57843,365.30335 648.57843,363.42298 M 670.45746,368.05275 C 669.69332,368.36739 668.9142,368.60337 668.1201,368.7607 C 667.326,368.91802 666.48695,368.99667 665.60295,368.99667 C 663.49781,368.99667 661.88715,368.43481 660.77091,367.31108 C 659.66217,366.17986 659.10778,364.5542 659.10778,362.43409 C 659.10778,360.38142 659.64343,358.7595 660.71471,357.56834 C 661.78602,356.37719 663.24685,355.78162 665.09727,355.78161 C 666.96265,355.78162 668.40853,356.33599 669.43487,357.44473 C 670.4687,358.546 670.98562,360.10049 670.98562,362.10821 L 670.98562,363.44545 L 662.45651,363.44545 C 662.46399,364.43434 662.75617,365.17225 663.33302,365.6592 C 663.90986,366.14615 664.77139,366.38962 665.91761,366.38962 C 666.67423,366.38962 667.41963,366.281 668.15381,366.06374 C 668.88798,365.84648 669.65586,365.50188 670.45746,365.02991 L 670.45746,368.05275 M 667.67062,360.97324 C 667.65562,360.10423 667.43087,359.44872 666.99639,359.00672 C 666.56934,358.55723 665.93632,358.33248 665.09727,358.33247 C 664.34063,358.33248 663.73754,358.56472 663.28806,359.02919 C 662.83856,359.48618 662.57262,360.13795 662.49023,360.98448 L 667.67062,360.97324 M 679.67205,357.34359 C 679.91927,356.81171 680.23391,356.4184 680.616,356.16368 C 680.99804,355.90898 681.46626,355.78162 682.02066,355.78161 C 683.10692,355.78162 683.85605,356.1562 684.26811,356.90534 C 684.68763,357.6545 684.89738,359.21274 684.8974,361.58005 L 684.8974,368.6708 L 682.20045,368.6708 L 682.20045,360.59117 C 682.20043,359.65474 682.12928,359.0292 681.98694,358.71454 C 681.8446,358.39991 681.58613,358.24259 681.21156,358.24257 C 680.83699,358.24259 680.57478,358.40366 680.42496,358.72578 C 680.27512,359.04792 680.20021,359.66973 680.20021,360.59117 L 680.20021,368.6708 L 677.53697,368.6708 L 677.53697,360.59117 C 677.53697,359.66973 677.46204,359.04792 677.31222,358.72578 C 677.16238,358.40366 676.90019,358.24259 676.52562,358.24257 C 676.15102,358.24259 675.89258,358.39991 675.75024,358.71454 C 675.60789,359.0292 675.53673,359.65474 675.53673,360.59117 L 675.53673,368.6708 L 672.83978,368.6708 L 672.83978,356.08501 L 675.23333,356.08501 L 675.23333,357.38854 C 675.4206,356.89411 675.72027,356.50455 676.13231,356.21986 C 676.54434,355.9277 677.00506,355.78162 677.51449,355.78161 C 678.02391,355.78162 678.48839,355.9352 678.90792,356.24233 C 679.32744,356.54201 679.58215,356.9091 679.67205,357.34359 M 691.19029,365.49064 L 694.19065,365.49064 L 694.19065,368.6708 L 691.19029,368.6708 L 691.19029,365.49064 M 691.19029,351.89349 L 694.19065,351.89349 L 694.19065,359.25393 L 693.81981,363.26565 L 691.58361,363.26565 L 691.19029,359.25393 L 691.19029,351.89349"
           style="font-size:12px;font-style:normal;font-variant:normal;font-weight:bold;font-stretch:normal;text-align:start;line-height:125%;writing-mode:lr-tb;text-anchor:start;fill:#000000;fill-opacity:1;stroke:none;stroke-width:1px;stroke-linecap:butt;stroke-linejoin:miter;stroke-opacity:1;font-family:Bitstream Vera Sans Mono" />
        <path
           id="path4854"
           d="M 198.41861,31.39535 C 198.41861,38.327443 178.35238,43.953489 153.62791,43.953489 C 128.90345,43.953489 108.83722,38.327443 108.83722,31.39535 C 108.83722,24.463256 128.90345,18.83721 153.62791,18.83721 C 178.35238,18.83721 198.41861,24.463256 198.41861,31.39535 z "
           style="color:#000000;fill:url(#linearGradient4883);fill-opacity:1;fill-rule:evenodd;stroke:none;stroke-width:1.49999976;stroke-linecap:round;stroke-linejoin:round;marker:none;marker-start:none;marker-mid:none;marker-end:none;stroke-miterlimit:4;stroke-dashoffset:0;stroke-opacity:1;visibility:visible;display:inline;overflow:visible"
           transform="matrix(3.213555,0,0,3.235151,70.28379,204.5951)" />
      </g>
    </g>
    <path
       style="opacity:0.6268657;color:#000000;fill:#000000;fill-opacity:0.15577889;fill-rule:nonzero;stroke:none;stroke-width:1.00399995;stroke-linecap:round;stroke-linejoin:miter;marker:none;marker-start:none;marker-mid:none;marker-end:none;stroke-miterlimit:4;stroke-dashoffset:0;stroke-opacity:1;visibility:visible;display:inline;overflow:visible"
       d="M 39.001118,53.593073 C 39.001118,53.802663 38.766495,53.972764 38.477406,53.972764 C 38.188317,53.972764 37.953694,53.802663 37.953694,53.593073 C 37.953694,53.383483 38.188317,53.213382 38.477406,53.213382 C 38.766495,53.213382 39.001118,53.383483 39.001118,53.593073 z "
       id="path3875" />
  </g>
  <g
     inkscape:groupmode="layer"
     id="layer4"
     inkscape:label="rostro">
    <path
       style="color:#000000;fill:#fcfaf4;fill-opacity:1.0000000;fill-rule:evenodd;stroke:none;stroke-width:3.0000000;stroke-linecap:round;stroke-linejoin:round;marker:none;marker-start:none;marker-mid:none;marker-end:none;stroke-miterlimit:4.0000000;stroke-dashoffset:0.0000000;stroke-opacity:1.0000000;visibility:visible;display:inline;overflow:visible"
       d="M 35.731807,34.657162 C 35.731807,36.345648 33.885423,37.716010 31.610416,37.716010 C 29.335409,37.716010 27.489025,36.345648 27.489025,34.657162 C 27.489025,32.968681 29.335409,31.598319 31.610416,31.598319 C 33.885423,31.598319 35.731807,32.968681 35.731807,34.657162 z "
       id="path4539" />
    <g
       id="g4563"
       transform="matrix(0.342212,0.000000,0.000000,0.342212,-60.97906,-131.3783)">
      <path
         transform="matrix(1.186335,0.000000,0.000000,1.286667,-38.05734,-140.6461)"
         style="color:#000000;fill:url(#radialGradient4567);fill-opacity:1.0000000;fill-rule:evenodd;stroke:none;stroke-width:3.0000000;stroke-linecap:round;stroke-linejoin:round;marker:none;marker-start:none;marker-mid:none;marker-end:none;stroke-miterlimit:4.0000000;stroke-dashoffset:0.0000000;stroke-opacity:1.0000000;visibility:visible;display:inline;overflow:visible"
         d="M 268.92856,485.48718 C 268.92856,489.18361 265.70856,492.18361 261.74106,492.18361 C 257.77356,492.18361 254.55356,489.18361 254.55356,485.48718 C 254.55356,481.79075 257.77356,478.79075 261.74106,478.79075 C 265.70856,478.79075 268.92856,481.79075 268.92856,485.48718 z "
         id="path4541" />
      <path
         transform="translate(-0.178571,-0.446429)"
         style="opacity:0.57073170;color:#000000;fill:url(#radialGradient4617);fill-opacity:1.0000000;fill-rule:evenodd;stroke:none;stroke-width:3.0000000;stroke-linecap:round;stroke-linejoin:round;marker:none;marker-start:none;marker-mid:none;marker-end:none;stroke-miterlimit:4.0000000;stroke-dashoffset:0.0000000;stroke-opacity:1.0000000;visibility:visible;display:inline;overflow:visible"
         d="M 272.14285,480.88898 C 272.14285,482.09648 271.16285,483.07648 269.95535,483.07648 C 268.74785,483.07648 267.76785,482.09648 267.76785,480.88898 C 267.76785,479.68148 268.74785,478.70148 269.95535,478.70148 C 271.16285,478.70148 272.14285,479.68148 272.14285,480.88898 z "
         id="path4559" />
    </g>
    <path
       style="fill:#000000;fill-opacity:1.0000000;fill-rule:evenodd;stroke:none;stroke-width:1.0000000px;stroke-linecap:butt;stroke-linejoin:miter;stroke-opacity:1.0000000"
       d="M 26.265494,33.820000 L 27.553428,35.365524 C 28.519383,29.763011 35.925007,31.567305 35.731818,34.528362 C 35.731818,33.626808 35.152695,31.188916 31.288443,31.372927 C 28.583779,31.501719 27.295844,33.948793 27.295844,33.948793 L 26.265494,33.820000 z "
       id="path4537"
       sodipodi:nodetypes="cccccc" />
    <path
       style="fill:#000000;fill-opacity:0.22885568;fill-rule:evenodd;stroke:none;stroke-width:1.0000000px;stroke-linecap:butt;stroke-linejoin:miter;stroke-opacity:1.0000000"
       d="M 27.875414,36.717855 C 30.741068,38.714153 34.572675,37.361822 34.572675,37.361822 L 34.443879,37.651606 C 31.642624,38.971741 28.841364,37.973591 27.875414,36.975440 L 27.875414,36.717855 z "
       id="path4569"
       sodipodi:nodetypes="ccccc" />
    <path
       style="color:#000000;fill:url(#linearGradient4590);fill-opacity:1.0000000;fill-rule:evenodd;stroke:none;stroke-width:3.0000000;stroke-linecap:round;stroke-linejoin:round;marker:none;marker-start:none;marker-mid:none;marker-end:none;stroke-miterlimit:4.0000000;stroke-dashoffset:0.0000000;stroke-opacity:1.0000000;visibility:visible;display:inline;overflow:visible"
       d="M 35.731803,34.657162 C 35.731803,36.345648 33.885421,37.716010 31.610416,37.716010 C 29.335406,37.716010 27.489022,36.345648 27.489022,34.657162 C 27.489022,32.968681 29.335406,31.598319 31.610416,31.598319 C 33.885421,31.598319 35.731803,32.968681 35.731803,34.657162 z "
       id="path4574" />
  </g>
  <g
     inkscape:groupmode="layer"
     id="layer2"
     inkscape:label="pelo">
    <g
       id="g6135"
       transform="matrix(0.360622,0.000000,0.000000,0.360622,-62.73080,-140.1303)">
      <path
         sodipodi:nodetypes="ccccccccccccccccccccccccccccccccccccccccccc"
         id="path3803"
         d="M 211.55112,536.41331 C 210.83684,529.98474 216.01015,527.53550 216.01015,527.53550 L 222.43872,536.82121 C 218.15301,520.74978 220.29586,509.67836 220.29586,509.67836 C 220.29586,509.67836 214.54568,510.60928 211.01015,506.82121 C 211.01015,506.82121 205.67512,500.07646 205.29586,493.24978 C 201.50779,487.69394 213.27555,472.60729 213.27555,472.60729 L 219.87744,493.54565 C 219.87744,493.54565 221.80366,482.28296 225.33919,482.53550 L 225.29586,494.67836 L 228.86729,484.67836 L 232.43872,486.10693 C 232.43872,486.10693 238.10225,460.78260 243.15301,453.96407 L 245.29586,466.82121 L 253.15301,448.96407 L 254.58158,448.24978 L 250.29586,466.10693 L 253.86729,458.24978 L 254.58158,466.82121 C 254.58158,466.82121 257.84971,460.39264 263.15301,460.39264 C 266.47463,460.39264 270.29586,464.67836 270.29586,464.67836 C 270.29586,464.67836 278.92936,442.85048 281.72444,443.24978 C 283.49221,443.50232 276.89032,463.06903 278.15301,470.39264 L 286.01015,446.10693 C 288.28299,443.83409 295.29586,446.10693 295.29586,446.10693 C 295.29586,446.10693 295.17332,467.01556 293.15301,476.10693 C 297.76140,471.49854 298.86729,446.82121 298.86729,446.82121 C 298.86729,446.82121 301.17603,445.26266 302.43872,447.53550 C 306.06034,454.05441 305.29586,484.67836 305.29586,484.67836 C 308.83139,478.61744 310.20921,454.17328 311.72444,454.67836 C 313.33158,455.21407 311.24144,471.02625 312.43872,473.24978 C 320.51994,469.71425 326.51523,482.83136 326.51523,482.83136 C 328.03045,470.07819 328.86729,466.82121 328.86729,466.82121 C 328.86729,466.82121 331.72444,477.14554 331.21936,486.23691 L 334.58158,481.10693 L 336.01015,489.67836 L 336.27013,446.85456 C 336.27013,446.85456 315.64520,395.34565 288.86729,393.96407 C 198.94592,389.01645 195.29587,456.46407 194.58158,458.96407 C 190.21024,474.26375 196.01015,494.67836 196.01015,494.67836 L 203.15301,536.10693 L 204.24982,531.59714 C 209.24982,528.74000 211.55112,536.41331 211.55112,536.41331 z "
         style="fill:#000000;fill-opacity:0.31343284;fill-rule:evenodd;stroke:none;stroke-width:1.0000000px;stroke-linecap:butt;stroke-linejoin:miter;stroke-opacity:1.0000000" />
      <path
         sodipodi:nodetypes="ccccccccccccccccccccccccccccccccccccccccccccccccccccccccc"
         id="path4669"
         d="M 213.57143,538.43361 C 212.85715,532.00504 215.00000,524.50504 215.00000,524.50504 L 221.42857,533.79075 C 217.14286,517.71932 219.28571,506.64790 219.28571,506.64790 C 219.28571,506.64790 213.53553,507.57882 210.00000,503.79075 C 210.00000,503.79075 204.66497,497.04600 204.28571,490.21932 C 204.03317,485.67363 214.28571,476.64790 214.28571,476.64790 L 218.86729,490.51519 C 218.86729,490.51519 220.79351,479.25250 224.32904,479.50504 L 224.28571,491.64790 L 227.85714,481.64790 L 231.42857,483.07647 C 231.42857,483.07647 237.09210,457.75214 242.14286,450.93361 L 244.28571,463.79075 L 252.14286,445.93361 L 253.57143,445.21932 L 249.28571,463.07647 L 252.85714,455.21932 L 253.57143,463.79075 C 253.57143,463.79075 256.83956,457.36218 262.14286,457.36218 C 265.46448,457.36218 269.28571,461.64790 269.28571,461.64790 C 269.28571,461.64790 277.91921,439.82002 280.71429,440.21932 C 282.48206,440.47186 275.88017,460.03857 277.14286,467.36218 L 285.00000,443.07647 C 287.27284,440.80363 294.28571,443.07647 294.28571,443.07647 C 294.28571,443.07647 294.16317,463.98510 292.14286,473.07647 C 296.75125,468.46808 297.85714,443.79075 297.85714,443.79075 C 297.85714,443.79075 300.16588,442.23220 301.42857,444.50504 C 305.05019,451.02395 304.28571,481.64790 304.28571,481.64790 C 307.82124,475.58698 309.19906,451.14282 310.71429,451.64790 C 312.32143,452.18361 310.23129,467.99579 311.42857,470.21932 C 319.50979,466.68379 325.50508,479.80090 325.50508,479.80090 C 326.01015,470.70953 327.85714,463.79075 327.85714,463.79075 C 327.85714,463.79075 330.71429,474.11508 330.20921,483.20645 L 333.57143,478.07647 L 335.00000,486.64790 L 330.71429,497.36218 L 329.28571,512.36218 C 329.28571,512.36218 319.64286,537.54076 312.85714,540.66575 C 314.83461,551.24281 312.14286,586.64790 312.14286,586.64790 L 322.14286,585.93361 C 325.00000,579.14790 328.92858,553.79075 330.71429,513.79075 L 333.57143,507.36218 L 335.00000,510.93361 C 340.55584,498.30670 349.28571,505.21932 349.28571,505.21932 L 353.57143,491.64790 C 365.35714,429.14790 314.63505,392.31519 287.85714,390.93361 C 197.93577,385.98599 194.28572,453.43361 193.57143,455.93361 C 189.20009,471.23329 195.00000,491.64790 195.00000,491.64790 C 195.00000,499.50504 191.42857,513.07647 191.42857,513.07647 L 195.00000,511.64790 C 195.71429,514.86219 192.85714,528.07647 192.85714,528.07647 L 197.14286,520.93361 C 198.92857,523.07647 197.14286,532.36218 197.14286,532.36218 L 202.14286,533.07647 L 200.71429,536.64790 C 205.71429,533.79076 213.57143,538.43361 213.57143,538.43361 z "
         style="fill:url(#linearGradient6159);fill-opacity:1.0000000;fill-rule:evenodd;stroke:none;stroke-width:1.0000000px;stroke-linecap:butt;stroke-linejoin:miter;stroke-opacity:1.0000000" />
      <path
         sodipodi:nodetypes="ccccccccccccccccccccccccccccccccccccccccccccccccccccccccc"
         id="path5399"
         d="M 217.02799,535.55677 C 216.35499,529.49977 218.37398,522.43327 218.37398,522.43327 L 224.43098,531.18227 C 220.39297,516.03976 222.41196,505.60827 222.41196,505.60827 C 222.41196,505.60827 216.99415,506.48538 213.66297,502.91626 C 213.66297,502.91626 208.63631,496.56136 208.27896,490.12925 C 208.04103,485.84631 217.70098,477.34226 217.70098,477.34226 L 222.01774,490.40803 C 222.01774,490.40803 223.83261,479.79632 227.16380,480.03425 L 227.12297,491.47527 L 230.48798,482.05325 L 233.85299,483.39926 C 233.85299,483.39926 239.18916,459.53867 243.94799,453.11424 L 245.96698,465.22825 L 253.37000,448.40324 L 254.71599,447.73024 L 250.67798,464.55525 L 254.04299,457.15225 L 254.71599,465.22825 C 254.71599,465.22825 257.79522,459.17124 262.79199,459.17124 C 265.92163,459.17124 269.52199,463.20924 269.52199,463.20924 C 269.52199,463.20924 277.65648,442.64302 280.29000,443.01924 C 281.95560,443.25718 275.73529,461.69294 276.92499,468.59325 L 284.32800,445.71124 C 286.46947,443.56977 293.07700,445.71124 293.07700,445.71124 C 293.07700,445.71124 292.96155,465.41135 291.05801,473.97725 C 295.40003,469.63524 296.44199,446.38423 296.44199,446.38423 C 296.44199,446.38423 298.61730,444.91577 299.80701,447.05725 C 303.21929,453.19937 302.49900,482.05325 302.49900,482.05325 C 305.83018,476.34265 307.12835,453.31137 308.55602,453.78725 C 310.07027,454.29201 308.10093,469.19024 309.22901,471.28525 C 316.84314,467.95406 322.49190,480.31301 322.49190,480.31301 C 322.96778,471.74712 324.70801,465.22825 324.70801,465.22825 C 324.70801,465.22825 327.40003,474.95584 326.92414,483.52173 L 330.09202,478.68826 L 331.43801,486.76426 L 327.40003,496.85925 L 326.05402,510.99228 C 326.05402,510.99228 316.96851,534.71552 310.57501,537.65990 C 312.43818,547.62561 309.90201,580.98430 309.90201,580.98430 L 319.32402,580.31129 C 322.01601,573.91779 325.71753,550.02628 327.40003,512.33827 L 330.09202,506.28127 L 331.43801,509.64626 C 336.67273,497.74918 344.89802,504.26227 344.89802,504.26227 L 348.93603,491.47527 C 360.04053,432.58774 312.25015,397.88395 287.02000,396.58223 C 202.29605,391.92058 198.85698,455.46975 198.18398,457.82525 C 194.06529,472.24060 199.52997,491.47527 199.52997,491.47527 C 199.52997,498.87826 196.16497,511.66528 196.16497,511.66528 L 199.52997,510.31926 C 200.20297,513.34777 197.51097,525.79828 197.51097,525.79828 L 201.54896,519.06827 C 203.23147,521.08728 201.54896,529.83628 201.54896,529.83628 L 206.25997,530.50928 L 204.91397,533.87428 C 209.62498,531.18228 217.02799,535.55677 217.02799,535.55677 z "
         style="fill:none;fill-opacity:1.0000000;fill-rule:evenodd;stroke:url(#linearGradient6161);stroke-width:5.3871574;stroke-linecap:butt;stroke-linejoin:miter;stroke-miterlimit:4.0000000;stroke-dasharray:none;stroke-opacity:1.0000000" />
    </g>
  </g>
</svg>
