<?xml version="1.0" encoding="UTF-8" standalone="no"?>
<!-- Created with Inkscape (http://www.inkscape.org/) -->
<svg
   xmlns:dc="http://purl.org/dc/elements/1.1/"
   xmlns:cc="http://web.resource.org/cc/"
   xmlns:rdf="http://www.w3.org/1999/02/22-rdf-syntax-ns#"
   xmlns:svg="http://www.w3.org/2000/svg"
   xmlns="http://www.w3.org/2000/svg"
   xmlns:xlink="http://www.w3.org/1999/xlink"
   xmlns:sodipodi="http://inkscape.sourceforge.net/DTD/sodipodi-0.dtd"
   xmlns:inkscape="http://www.inkscape.org/namespaces/inkscape"
   width="72.000000px"
   height="72.000000px"
   id="svg2"
   sodipodi:version="0.32"
   inkscape:version="0.42.2"
   sodipodi:docbase="/home/silvestre/Desktop/Nuovo!/scalable/emblems"
   sodipodi:docname="emblem-sales.svg">
  <defs
     id="defs4">
    <linearGradient
       inkscape:collect="always"
       id="linearGradient4051">
      <stop
         style="stop-color:#ffffff;stop-opacity:1;"
         offset="0"
         id="stop4053" />
      <stop
         style="stop-color:#ffffff;stop-opacity:0;"
         offset="1"
         id="stop4055" />
    </linearGradient>
    <linearGradient
       inkscape:collect="always"
       id="linearGradient4039">
      <stop
         style="stop-color:#e1e1e1;stop-opacity:1;"
         offset="0"
         id="stop4041" />
      <stop
         style="stop-color:#f1f1f1;stop-opacity:1.0000000"
         offset="1"
         id="stop4043" />
    </linearGradient>
    <linearGradient
       inkscape:collect="always"
       xlink:href="#linearGradient4039"
       id="linearGradient4094"
       gradientUnits="userSpaceOnUse"
       x1="34.855980"
       y1="16.010866"
       x2="34.855980"
       y2="45.988255"
       gradientTransform="matrix(1.000000,0.000000,0.000000,1.395617,0.000000,-11.23398)" />
    <linearGradient
       inkscape:collect="always"
       xlink:href="#linearGradient4051"
       id="linearGradient4096"
       gradientUnits="userSpaceOnUse"
       x1="9.8804359"
       y1="19.578800"
       x2="21.133154"
       y2="47.575222"
       gradientTransform="matrix(0.980614,0.000000,0.000000,1.427206,0.702338,-12.28376)" />
  </defs>
  <sodipodi:namedview
     id="base"
     pagecolor="#ffffff"
     bordercolor="#666666"
     borderopacity="1.0"
     inkscape:pageopacity="0.0"
     inkscape:pageshadow="2"
     inkscape:zoom="3.6435642"
     inkscape:cx="63.911247"
     inkscape:cy="21.310903"
     inkscape:document-units="px"
     inkscape:current-layer="g4082"
     showguides="true"
     inkscape:guide-bbox="true"
     inkscape:window-width="773"
     inkscape:window-height="543"
     inkscape:window-x="145"
     inkscape:window-y="155" />
  <metadata
     id="metadata7">
    <rdf:RDF>
      <cc:Work
         rdf:about="">
        <dc:format>image/svg+xml</dc:format>
        <dc:type
           rdf:resource="http://purl.org/dc/dcmitype/StillImage" />
      </cc:Work>
    </rdf:RDF>
  </metadata>
  <g
     inkscape:label="Layer 1"
     inkscape:groupmode="layer"
     id="layer1">
    <g
       id="g4082"
       transform="translate(0.000000,1.552561)">
      <rect
         ry="3.0000002"
         rx="3.0000000"
         y="6.5146213"
         x="3.8423915"
         height="57.455414"
         width="64.771744"
         id="rect3311"
         style="opacity:1.0000000;color:#000000;fill:url(#linearGradient4094);fill-opacity:1.0000000;fill-rule:evenodd;stroke:#adadad;stroke-width:2.3627243;stroke-linecap:round;stroke-linejoin:round;marker:none;marker-start:none;marker-mid:none;marker-end:none;stroke-miterlimit:4.0000000;stroke-dasharray:none;stroke-dashoffset:0.0000000;stroke-opacity:1.0000000;visibility:visible;display:inline;overflow:visible" />
      <rect
         ry="1.3532608"
         rx="1.3532608"
         y="8.4801941"
         x="6.0366855"
         height="53.332752"
         width="60.383152"
         id="rect4047"
         style="opacity:1.0000000;color:#000000;fill:none;fill-opacity:1.0000000;fill-rule:evenodd;stroke:url(#linearGradient4096);stroke-width:2.1979089;stroke-linecap:round;stroke-linejoin:round;marker:none;marker-start:none;marker-mid:none;marker-end:none;stroke-miterlimit:4.0000000;stroke-dasharray:none;stroke-dashoffset:0.0000000;stroke-opacity:1.0000000;visibility:visible;display:inline;overflow:visible" />
      <g
         id="g4060"
         transform="translate(0.411684,1.646739)">
        <rect
           y="17.733210"
           x="10.154892"
           height="31.705439"
           width="2.7583575"
           id="rect4061"
           style="opacity:1.0000000;color:#000000;fill:#5b5b5b;fill-opacity:1.0000000;fill-rule:evenodd;stroke:none;stroke-width:2.0000000;stroke-linecap:round;stroke-linejoin:round;marker:none;marker-start:none;marker-mid:none;marker-end:none;stroke-miterlimit:4.0000000;stroke-dasharray:none;stroke-dashoffset:0.0000000;stroke-opacity:1.0000000;visibility:visible;display:inline;overflow:visible" />
        <rect
           style="opacity:1.0000000;color:#000000;fill:#5b5b5b;fill-opacity:1.0000000;fill-rule:evenodd;stroke:none;stroke-width:2.0000000;stroke-linecap:round;stroke-linejoin:round;marker:none;marker-start:none;marker-mid:none;marker-end:none;stroke-miterlimit:4.0000000;stroke-dasharray:none;stroke-dashoffset:0.0000000;stroke-opacity:1.0000000;visibility:visible;display:inline;overflow:visible"
           id="rect3321"
           width="4.1168480"
           height="20.348202"
           x="18.823145"
           y="17.733210" />
        <rect
           y="17.733210"
           x="14.941744"
           height="20.348202"
           width="1.5939369"
           id="rect4063"
           style="opacity:1.0000000;color:#000000;fill:#5b5b5b;fill-opacity:1.0000000;fill-rule:evenodd;stroke:none;stroke-width:2.0000000;stroke-linecap:round;stroke-linejoin:round;marker:none;marker-start:none;marker-mid:none;marker-end:none;stroke-miterlimit:4.0000000;stroke-dasharray:none;stroke-dashoffset:0.0000000;stroke-opacity:1.0000000;visibility:visible;display:inline;overflow:visible" />
        <rect
           y="17.733210"
           x="25.000923"
           height="20.348202"
           width="1.8319186"
           id="rect3323"
           style="opacity:1.0000000;color:#000000;fill:#5b5b5b;fill-opacity:1.0000000;fill-rule:evenodd;stroke:none;stroke-width:2.0000000;stroke-linecap:round;stroke-linejoin:round;marker:none;marker-start:none;marker-mid:none;marker-end:none;stroke-miterlimit:4.0000000;stroke-dasharray:none;stroke-dashoffset:0.0000000;stroke-opacity:1.0000000;visibility:visible;display:inline;overflow:visible" />
        <rect
           style="opacity:1.0000000;color:#000000;fill:#5b5b5b;fill-opacity:1.0000000;fill-rule:evenodd;stroke:none;stroke-width:2.0000000;stroke-linecap:round;stroke-linejoin:round;marker:none;marker-start:none;marker-mid:none;marker-end:none;stroke-miterlimit:4.0000000;stroke-dasharray:none;stroke-dashoffset:0.0000000;stroke-opacity:1.0000000;visibility:visible;display:inline;overflow:visible"
           id="rect3320"
           width="1.8319186"
           height="20.348202"
           x="28.294401"
           y="17.733210" />
        <rect
           style="opacity:1.0000000;color:#000000;fill:#5b5b5b;fill-opacity:1.0000000;fill-rule:evenodd;stroke:none;stroke-width:2.0000000;stroke-linecap:round;stroke-linejoin:round;marker:none;marker-start:none;marker-mid:none;marker-end:none;stroke-miterlimit:4.0000000;stroke-dasharray:none;stroke-dashoffset:0.0000000;stroke-opacity:1.0000000;visibility:visible;display:inline;overflow:visible"
           id="rect3325"
           width="3.7531142"
           height="20.348202"
           x="31.826677"
           y="17.733210" />
        <rect
           style="opacity:1.0000000;color:#000000;fill:#5b5b5b;fill-opacity:1.0000000;fill-rule:evenodd;stroke:none;stroke-width:2.0000000;stroke-linecap:round;stroke-linejoin:round;marker:none;marker-start:none;marker-mid:none;marker-end:none;stroke-miterlimit:4.0000000;stroke-dasharray:none;stroke-dashoffset:0.0000000;stroke-opacity:1.0000000;visibility:visible;display:inline;overflow:visible"
           id="rect3327"
           width="1.5574620"
           height="20.348202"
           x="36.766895"
           y="17.733210" />
        <rect
           y="17.733210"
           x="40.060371"
           height="20.348202"
           width="1.5574620"
           id="rect4065"
           style="opacity:1.0000000;color:#000000;fill:#5b5b5b;fill-opacity:1.0000000;fill-rule:evenodd;stroke:none;stroke-width:2.0000000;stroke-linecap:round;stroke-linejoin:round;marker:none;marker-start:none;marker-mid:none;marker-end:none;stroke-miterlimit:4.0000000;stroke-dasharray:none;stroke-dashoffset:0.0000000;stroke-opacity:1.0000000;visibility:visible;display:inline;overflow:visible" />
        <rect
           y="17.733210"
           x="43.777164"
           height="20.348202"
           width="5.1204958"
           id="rect4069"
           style="opacity:1.0000000;color:#000000;fill:#5b5b5b;fill-opacity:1.0000000;fill-rule:evenodd;stroke:none;stroke-width:2.0000000;stroke-linecap:round;stroke-linejoin:round;marker:none;marker-start:none;marker-mid:none;marker-end:none;stroke-miterlimit:4.0000000;stroke-dasharray:none;stroke-dashoffset:0.0000000;stroke-opacity:1.0000000;visibility:visible;display:inline;overflow:visible" />
        <rect
           style="opacity:1.0000000;color:#000000;fill:#5b5b5b;fill-opacity:1.0000000;fill-rule:evenodd;stroke:none;stroke-width:2.0000000;stroke-linecap:round;stroke-linejoin:round;marker:none;marker-start:none;marker-mid:none;marker-end:none;stroke-miterlimit:4.0000000;stroke-dasharray:none;stroke-dashoffset:0.0000000;stroke-opacity:1.0000000;visibility:visible;display:inline;overflow:visible"
           id="rect3322"
           width="1.6467394"
           height="20.348202"
           x="51.163277"
           y="17.733210" />
        <rect
           y="17.733210"
           x="55.554581"
           height="20.348202"
           width="1.6467394"
           id="rect4073"
           style="opacity:1.0000000;color:#000000;fill:#5b5b5b;fill-opacity:1.0000000;fill-rule:evenodd;stroke:none;stroke-width:2.0000000;stroke-linecap:round;stroke-linejoin:round;marker:none;marker-start:none;marker-mid:none;marker-end:none;stroke-miterlimit:4.0000000;stroke-dasharray:none;stroke-dashoffset:0.0000000;stroke-opacity:1.0000000;visibility:visible;display:inline;overflow:visible" />
        <rect
           style="opacity:1.0000000;color:#000000;fill:#5b5b5b;fill-opacity:1.0000000;fill-rule:evenodd;stroke:none;stroke-width:2.0000000;stroke-linecap:round;stroke-linejoin:round;marker:none;marker-start:none;marker-mid:none;marker-end:none;stroke-miterlimit:4.0000000;stroke-dasharray:none;stroke-dashoffset:0.0000000;stroke-opacity:1.0000000;visibility:visible;display:inline;overflow:visible"
           id="rect4059"
           width="1.0978264"
           height="31.608295"
           x="60.380440"
           y="17.733210" />
        <path
           id="text3329"
           d="M 14.393547,46.340493 L 15.747849,46.340493 L 15.747849,42.363770 L 14.487938,42.675670 L 14.487938,41.584021 L 15.756057,41.280329 L 16.925682,41.280329 L 16.925682,46.340493 L 18.279984,46.340493 L 18.279984,47.407519 L 14.393547,47.407519 L 14.393547,46.340493 M 20.459179,46.340493 L 23.040560,46.340493 L 23.040560,47.407519 L 19.150020,47.407519 L 19.150020,46.373325 L 19.806651,45.675654 C 20.586399,44.846660 21.059720,44.336403 21.226616,44.144883 C 21.431811,43.909593 21.579553,43.701660 21.669843,43.521083 C 21.760126,43.337777 21.805270,43.157204 21.805273,42.979362 C 21.805270,42.705770 21.721823,42.495101 21.554932,42.347354 C 21.390772,42.196882 21.156847,42.121643 20.853157,42.121637 C 20.637014,42.121643 20.393514,42.165418 20.122655,42.252964 C 19.854529,42.337784 19.574093,42.462270 19.281346,42.626423 L 19.281346,41.497838 C 19.574093,41.391141 19.860001,41.310430 20.139071,41.255705 C 20.420873,41.198256 20.690366,41.169528 20.947548,41.169522 C 21.595969,41.169528 22.104857,41.321374 22.474216,41.625060 C 22.846303,41.926022 23.032348,42.337784 23.032353,42.860348 C 23.032348,43.101117 22.991309,43.326834 22.909234,43.537499 C 22.829887,43.748172 22.691721,43.982096 22.494736,44.239273 C 22.349726,44.425322 21.951644,44.843924 21.300487,45.495081 C 20.947546,45.848022 20.667110,46.129826 20.459179,46.340493 M 25.987193,44.666084 L 25.338770,44.666084 L 25.338770,43.599058 L 25.987193,43.599058 C 26.288147,43.599062 26.520703,43.540239 26.684864,43.422588 C 26.851755,43.302210 26.935201,43.133948 26.935205,42.917803 C 26.935201,42.690723 26.851755,42.514253 26.684864,42.388394 C 26.520703,42.259809 26.288147,42.195514 25.987193,42.195508 C 25.757370,42.195514 25.511134,42.224241 25.248483,42.281691 C 24.985829,42.339152 24.713601,42.422598 24.431798,42.532032 L 24.431798,41.432175 C 24.713601,41.347366 24.991301,41.283071 25.264899,41.239289 C 25.538493,41.192784 25.801146,41.169528 26.052856,41.169522 C 26.698541,41.169528 27.201958,41.310430 27.563108,41.592228 C 27.924251,41.874038 28.104825,42.262545 28.104829,42.757749 C 28.104825,43.121636 28.000858,43.419856 27.792929,43.652409 C 27.584992,43.882234 27.288140,44.032711 26.902373,44.103843 C 27.340124,44.180453 27.673911,44.355555 27.903736,44.629148 C 28.133552,44.900011 28.248463,45.257054 28.248467,45.700278 C 28.248463,46.293983 28.058313,46.746785 27.678019,47.058684 C 27.297716,47.370584 26.745052,47.526534 26.020025,47.526534 C 25.710859,47.526534 25.405799,47.500542 25.104845,47.448559 C 24.806624,47.396576 24.520716,47.321337 24.247120,47.222842 L 24.247120,46.098361 C 24.504300,46.226952 24.782000,46.325447 25.080221,46.393845 C 25.378440,46.459509 25.691707,46.492340 26.020025,46.492339 C 26.348338,46.492340 26.608254,46.417101 26.799774,46.266622 C 26.991289,46.113410 27.087047,45.908213 27.087051,45.651031 C 27.087047,45.336397 26.991289,45.094264 26.799774,44.924632 C 26.608254,44.752269 26.337394,44.666086 25.987193,44.666084 M 31.638326,42.626423 L 30.091139,45.047751 L 31.638326,45.047751 L 31.638326,42.626423 M 31.531623,41.280329 L 32.799743,41.280329 L 32.799743,45.047751 L 33.472790,45.047751 L 33.472790,46.086049 L 32.799743,46.086049 L 32.799743,47.407519 L 31.638326,47.407519 L 31.638326,46.086049 L 29.208790,46.086049 L 29.208790,44.912320 L 31.531623,41.280329 M 34.638310,41.280329 L 37.966610,41.280329 L 37.966610,42.347354 L 35.619153,42.347354 L 35.619153,43.484147 C 35.717646,43.445848 35.822980,43.418488 35.935157,43.402068 C 36.047329,43.382921 36.166344,43.373345 36.292200,43.373341 C 36.899581,43.373345 37.392054,43.564862 37.769621,43.947893 C 38.147179,44.330931 38.335961,44.828876 38.335965,45.441729 C 38.335961,46.084682 38.130764,46.593571 37.720373,46.968397 C 37.312711,47.340488 36.755943,47.526534 36.050067,47.526534 C 35.787413,47.526534 35.522025,47.504646 35.253902,47.460871 C 34.985776,47.417095 34.712180,47.351432 34.433113,47.263881 L 34.433113,46.172232 C 34.660197,46.284407 34.892754,46.369222 35.130784,46.426676 C 35.371547,46.481397 35.612311,46.508756 35.853078,46.508755 C 36.279886,46.508756 36.604097,46.418469 36.825713,46.237895 C 37.047323,46.054587 37.158129,45.789198 37.158133,45.441729 C 37.158129,45.121624 37.047323,44.865812 36.825713,44.674292 C 36.606833,44.480041 36.314085,44.382914 35.947469,44.382911 C 35.731326,44.382914 35.513817,44.410274 35.294941,44.464990 C 35.078799,44.516977 34.859922,44.596319 34.638310,44.703019 L 34.638310,41.280329 M 41.541146,44.337768 C 41.278492,44.337771 41.077398,44.433530 40.937866,44.625044 C 40.801066,44.813828 40.732667,45.088792 40.732669,45.449937 C 40.732667,45.808350 40.801066,46.083314 40.937866,46.274830 C 41.077398,46.463613 41.278492,46.558003 41.541146,46.558003 C 41.803796,46.558003 42.004889,46.463613 42.144426,46.274830 C 42.286693,46.083314 42.357828,45.808350 42.357832,45.449937 C 42.357828,45.091528 42.286693,44.816564 42.144426,44.625044 C 42.004889,44.433530 41.803796,44.337771 41.541146,44.337768 M 43.129373,41.423967 L 43.129373,42.523824 C 42.913228,42.400711 42.705295,42.309056 42.505574,42.248860 C 42.308581,42.185938 42.118432,42.154474 41.935125,42.154469 C 41.497368,42.154474 41.163581,42.302216 40.933762,42.597695 C 40.706676,42.890448 40.587661,43.324098 40.576719,43.898646 C 40.705308,43.720812 40.869465,43.588118 41.069193,43.500563 C 41.268916,43.410280 41.504208,43.365137 41.775071,43.365133 C 42.327733,43.365137 42.754542,43.540239 43.055502,43.890438 C 43.356454,44.237909 43.506932,44.731750 43.506936,45.371962 C 43.506932,46.058691 43.337302,46.590835 42.998047,46.968397 C 42.661520,47.345960 42.186831,47.534742 41.573978,47.534742 C 40.827058,47.534742 40.283970,47.284401 39.944712,46.783720 C 39.608187,46.283039 39.439926,45.474563 39.439926,44.358288 C 39.439926,43.296738 39.646491,42.501941 40.059622,41.973895 C 40.472751,41.443124 41.092446,41.177736 41.918709,41.177730 C 42.110224,41.177736 42.307213,41.198256 42.509678,41.239289 C 42.714871,41.280335 42.921436,41.341894 43.129373,41.423967 M 44.512403,41.280329 L 48.386527,41.280329 L 48.386527,42.138053 L 46.309931,47.407519 L 45.074643,47.407519 L 47.069161,42.347354 L 44.512403,42.347354 L 44.512403,41.280329 M 51.542461,44.674292 C 51.271599,44.674294 51.052722,44.760477 50.885830,44.932840 C 50.718935,45.102472 50.635488,45.328189 50.635489,45.609991 C 50.635488,45.891797 50.718935,46.118882 50.885830,46.291246 C 51.052722,46.463613 51.271599,46.549796 51.542461,46.549795 C 51.813319,46.549796 52.032196,46.462245 52.199093,46.287142 C 52.368719,46.112042 52.453534,45.886325 52.453537,45.609991 C 52.453534,45.328189 52.370087,45.102472 52.203197,44.932840 C 52.036300,44.760477 51.816055,44.674294 51.542461,44.674292 M 50.643697,44.161298 C 50.334532,44.054599 50.099240,43.887706 49.937819,43.660617 C 49.776396,43.430800 49.695685,43.150364 49.695686,42.819308 C 49.695685,42.310424 49.861211,41.908238 50.192263,41.612748 C 50.523313,41.317270 50.973379,41.169528 51.542461,41.169522 C 52.114275,41.169528 52.565708,41.317270 52.896764,41.612748 C 53.227811,41.908238 53.393337,42.310424 53.393341,42.819308 C 53.393337,43.147628 53.313994,43.426696 53.155312,43.656513 C 52.996622,43.883602 52.765433,44.051863 52.461745,44.161298 C 52.801001,44.265268 53.066389,44.451314 53.257911,44.719435 C 53.449424,44.987562 53.545182,45.309037 53.545187,45.683862 C 53.545182,46.272096 53.371449,46.726265 53.023986,47.046372 C 52.676515,47.366480 52.182674,47.526534 51.542461,47.526534 C 50.904980,47.526534 50.412507,47.366480 50.065041,47.046372 C 49.717573,46.726265 49.543839,46.272096 49.543840,45.683862 C 49.543839,45.306301 49.640966,44.983458 49.835220,44.715331 C 50.029473,44.447210 50.298965,44.262532 50.643697,44.161298 M 50.770920,42.917803 C 50.770918,43.158572 50.839317,43.350089 50.976117,43.492355 C 51.115649,43.631893 51.304430,43.701660 51.542461,43.701656 C 51.783224,43.701660 51.972005,43.631893 52.108806,43.492355 C 52.248337,43.350089 52.318104,43.158572 52.318107,42.917803 C 52.318104,42.679779 52.248337,42.492365 52.108806,42.355562 C 51.972005,42.216033 51.783224,42.146266 51.542461,42.146261 C 51.307166,42.146266 51.119753,42.216033 50.980221,42.355562 C 50.840685,42.495101 50.770918,42.682515 50.770920,42.917803 M 56.089633,44.350080 C 56.089631,44.205077 56.138878,44.083327 56.237375,43.984829 C 56.335867,43.886338 56.456250,43.837090 56.598522,43.837087 C 56.743526,43.837090 56.865276,43.886338 56.963773,43.984829 C 57.062265,44.083327 57.111512,44.205077 57.111515,44.350080 C 57.111512,44.492353 57.062265,44.612735 56.963773,44.711227 C 56.865276,44.809724 56.743526,44.858972 56.598522,44.858969 C 56.456250,44.858972 56.335867,44.811092 56.237375,44.715331 C 56.138878,44.616839 56.089631,44.495089 56.089633,44.350080 M 56.598522,42.195508 C 56.319452,42.195514 56.115623,42.366511 55.987034,42.708502 C 55.858442,43.050501 55.794147,43.597694 55.794149,44.350080 C 55.794147,45.099736 55.858442,45.645560 55.987034,45.987554 C 56.115623,46.329551 56.319452,46.500548 56.598522,46.500547 C 56.880324,46.500548 57.085521,46.329551 57.214114,45.987554 C 57.342701,45.645560 57.406996,45.099736 57.407000,44.350080 C 57.406996,43.597694 57.342701,43.050501 57.214114,42.708502 C 57.085521,42.366511 56.880324,42.195514 56.598522,42.195508 M 54.575277,44.350080 C 54.575277,43.288530 54.743538,42.493733 55.080062,41.965688 C 55.416585,41.434917 55.922737,41.169528 56.598522,41.169522 C 57.277038,41.169528 57.784559,41.433549 58.121086,41.961584 C 58.457605,42.489629 58.625867,43.285794 58.625871,44.350080 C 58.625867,45.411636 58.457605,46.206432 58.121086,46.734472 C 57.784559,47.262513 57.277038,47.526534 56.598522,47.526534 C 55.922737,47.526534 55.416585,47.262513 55.080062,46.734472 C 54.743538,46.203697 54.575277,45.408900 54.575277,44.350080"
           style="font-size:8.4048805px;font-style:normal;font-variant:normal;font-weight:bold;font-stretch:normal;text-align:start;line-height:125.00000%;writing-mode:lr-tb;text-anchor:start;fill:#393939;fill-opacity:1.0000000;stroke:none;stroke-width:1.0000000px;stroke-linecap:butt;stroke-linejoin:miter;stroke-opacity:1.0000000;font-family:Bitstream Vera Sans Mono" />
      </g>
    </g>
  </g>
</svg>
