<?xml version="1.0" encoding="UTF-8" standalone="no"?>
<!-- Created with Inkscape (http://www.inkscape.org/) -->
<svg
   xmlns:dc="http://purl.org/dc/elements/1.1/"
   xmlns:cc="http://web.resource.org/cc/"
   xmlns:rdf="http://www.w3.org/1999/02/22-rdf-syntax-ns#"
   xmlns:svg="http://www.w3.org/2000/svg"
   xmlns="http://www.w3.org/2000/svg"
   xmlns:xlink="http://www.w3.org/1999/xlink"
   xmlns:sodipodi="http://sodipodi.sourceforge.net/DTD/sodipodi-0.dtd"
   xmlns:inkscape="http://www.inkscape.org/namespaces/inkscape"
   width="22"
   height="22"
   id="svg2"
   sodipodi:version="0.32"
   inkscape:version="0.45+devel"
   version="1.0"
   sodipodi:docbase="/home/silvestre/.icons/Gion/22x22/places/SVGs"
   sodipodi:docname="user-trash.svg"
   inkscape:output_extension="org.inkscape.output.svg.inkscape"
   sodipodi:modified="true">
  <defs
     id="defs4">
    <linearGradient
       id="linearGradient2805">
      <stop
         style="stop-color:#ebebe9;stop-opacity:1"
         offset="0"
         id="stop2807" />
      <stop
         style="stop-color:#dfdfdc;stop-opacity:1"
         offset="1"
         id="stop2809" />
    </linearGradient>
    <linearGradient
       inkscape:collect="always"
       id="linearGradient9036">
      <stop
         style="stop-color:black;stop-opacity:1;"
         offset="0"
         id="stop9038" />
      <stop
         style="stop-color:black;stop-opacity:0;"
         offset="1"
         id="stop9040" />
    </linearGradient>
    <linearGradient
       inkscape:collect="always"
       id="linearGradient9026">
      <stop
         style="stop-color:black;stop-opacity:0.11330049"
         offset="0"
         id="stop9028" />
      <stop
         style="stop-color:black;stop-opacity:0;"
         offset="1"
         id="stop9030" />
    </linearGradient>
    <linearGradient
       inkscape:collect="always"
       id="linearGradient8133">
      <stop
         style="stop-color:white;stop-opacity:0.64532018"
         offset="0"
         id="stop8135" />
      <stop
         style="stop-color:white;stop-opacity:0;"
         offset="1"
         id="stop8137" />
    </linearGradient>
    <linearGradient
       inkscape:collect="always"
       id="linearGradient8119">
      <stop
         style="stop-color:white;stop-opacity:1;"
         offset="0"
         id="stop8121" />
      <stop
         style="stop-color:white;stop-opacity:0;"
         offset="1"
         id="stop8123" />
    </linearGradient>
    <linearGradient
       id="linearGradient8107">
      <stop
         style="stop-color:white;stop-opacity:0.08866995"
         offset="0"
         id="stop8109" />
      <stop
         id="stop8115"
         offset="0.2"
         style="stop-color:white;stop-opacity:0.4742268;" />
      <stop
         style="stop-color:white;stop-opacity:0;"
         offset="1"
         id="stop8111" />
    </linearGradient>
    <linearGradient
       inkscape:collect="always"
       id="linearGradient7214">
      <stop
         style="stop-color:white;stop-opacity:0.07881773"
         offset="0"
         id="stop7216" />
      <stop
         style="stop-color:white;stop-opacity:0.03448276"
         offset="1"
         id="stop7218" />
    </linearGradient>
    <linearGradient
       id="linearGradient2772">
      <stop
         style="stop-color:#eeeeec;stop-opacity:1;"
         offset="0"
         id="stop2774" />
      <stop
         id="stop2780"
         offset="0.23333333"
         style="stop-color:#fbfbfa;stop-opacity:1;" />
      <stop
         style="stop-color:#dcdcd8;stop-opacity:1"
         offset="1"
         id="stop2776" />
    </linearGradient>
    <linearGradient
       inkscape:collect="always"
       xlink:href="#linearGradient2772"
       id="linearGradient2778"
       x1="14.494118"
       y1="43.356861"
       x2="36.147198"
       y2="43.356861"
       gradientUnits="userSpaceOnUse"
       gradientTransform="matrix(0.4546197,0,0,0.4999998,9.0351078e-2,-2.249998)" />
    <linearGradient
       inkscape:collect="always"
       xlink:href="#linearGradient7214"
       id="linearGradient7220"
       x1="5"
       y1="24.078245"
       x2="43"
       y2="24.078245"
       gradientUnits="userSpaceOnUse"
       gradientTransform="matrix(0.4054057,0,0,0.4977744,1.27027,-2.2355336)" />
    <linearGradient
       inkscape:collect="always"
       xlink:href="#linearGradient8107"
       id="linearGradient8113"
       x1="11.20447"
       y1="27.45505"
       x2="33.721012"
       y2="26.074657"
       gradientUnits="userSpaceOnUse"
       gradientTransform="matrix(0.3513513,0,0,0.4607437,2.5675675,-1.6896602)" />
    <linearGradient
       inkscape:collect="always"
       xlink:href="#linearGradient8119"
       id="linearGradient8125"
       x1="19.768768"
       y1="13.543887"
       x2="19.768768"
       y2="10.447059"
       gradientUnits="userSpaceOnUse" />
    <linearGradient
       inkscape:collect="always"
       xlink:href="#linearGradient8133"
       id="linearGradient8139"
       x1="11.851103"
       y1="27.545099"
       x2="19.505198"
       y2="27.545099"
       gradientUnits="userSpaceOnUse"
       gradientTransform="matrix(0.853334,0,0,1,3.493334,0)" />
    <linearGradient
       inkscape:collect="always"
       xlink:href="#linearGradient9026"
       id="linearGradient9032"
       x1="24.720047"
       y1="13.868154"
       x2="24.720047"
       y2="10.088897"
       gradientUnits="userSpaceOnUse" />
    <radialGradient
       inkscape:collect="always"
       xlink:href="#linearGradient9036"
       id="radialGradient9042"
       cx="22.870588"
       cy="44.047058"
       fx="22.870588"
       fy="44.047058"
       r="19.105883"
       gradientTransform="matrix(1,0,0,0.210181,0,34.78922)"
       gradientUnits="userSpaceOnUse" />
    <linearGradient
       inkscape:collect="always"
       xlink:href="#linearGradient2772"
       id="linearGradient2811"
       x1="12.548147"
       y1="14.996078"
       x2="36.395988"
       y2="14.996078"
       gradientUnits="userSpaceOnUse"
       gradientTransform="matrix(0.53125,0,0,0.5454545,-1.4843754,-2.5)" />
    <linearGradient
       inkscape:collect="always"
       xlink:href="#linearGradient8133"
       id="linearGradient1915"
       gradientUnits="userSpaceOnUse"
       gradientTransform="matrix(0.446512,0,0,0.96732,15.4093,1.522876)"
       x1="11.402786"
       y1="27.545099"
       x2="19.505198"
       y2="27.545099" />
    <linearGradient
       inkscape:collect="always"
       xlink:href="#linearGradient8133"
       id="linearGradient1918"
       gradientUnits="userSpaceOnUse"
       gradientTransform="matrix(0.465455,0,0,0.4776119,0.3600003,-1.089551)"
       x1="9.9687414"
       y1="27.545099"
       x2="34.740086"
       y2="27.545099" />
  </defs>
  <sodipodi:namedview
     id="base"
     pagecolor="#ffffff"
     bordercolor="#666666"
     borderopacity="1.0"
     inkscape:pageopacity="0"
     inkscape:pageshadow="2"
     inkscape:zoom="1"
     inkscape:cx="11"
     inkscape:cy="11"
     inkscape:document-units="px"
     inkscape:current-layer="layer1"
     width="22px"
     height="22px"
     inkscape:showpageshadow="false"
     showgrid="false"
     showborder="false"
     inkscape:window-width="872"
     inkscape:window-height="618"
     inkscape:window-x="0"
     inkscape:window-y="25" />
  <metadata
     id="metadata7">
    <rdf:RDF>
      <cc:Work
         rdf:about="">
        <dc:format>image/svg+xml</dc:format>
        <dc:type
           rdf:resource="http://purl.org/dc/dcmitype/StillImage" />
      </cc:Work>
    </rdf:RDF>
  </metadata>
  <g
     inkscape:label="Capa 1"
     inkscape:groupmode="layer"
     id="layer1">
    <path
       sodipodi:type="arc"
       style="opacity:0.4;fill:url(#radialGradient9042);fill-opacity:1;stroke:none;stroke-width:1;stroke-linecap:round;stroke-linejoin:round;stroke-miterlimit:4;stroke-dasharray:none;stroke-opacity:0.08866996"
       id="path9034"
       sodipodi:cx="22.870588"
       sodipodi:cy="44.047058"
       sodipodi:rx="19.105883"
       sodipodi:ry="4.0156865"
       d="M 41.976471,44.047058 A 19.105883,4.0156865 0 1 1 3.7647057,44.047058 A 19.105883,4.0156865 0 1 1 41.976471,44.047058 z"
       transform="matrix(0.523399,0,0,0.6225593,-0.9704429,-7.9219027)" />
    <path
       style="opacity:1;fill:url(#linearGradient2778);fill-opacity:1;stroke:#babdb6;stroke-width:1.00000048;stroke-linecap:round;stroke-linejoin:round;stroke-miterlimit:4;stroke-dasharray:none;stroke-opacity:1"
       d="M 11.001229,15.499994 C 6.8605495,15.499994 3.5,16.283994 3.5,17.249994 L 3.5,18.749993 C 3.5,19.715993 6.8605484,20.499992 11.001229,20.499992 C 15.141907,20.499992 18.502456,19.715993 18.502457,18.749993 L 18.502457,17.249994 C 18.502457,16.283994 15.141907,15.499994 11.001229,15.499994 z"
       id="path1876"
       sodipodi:nodetypes="cccsccc" />
    <path
       style="fill:#eeeeec;fill-opacity:1;stroke:#babdb6;stroke-width:1.00000024;stroke-linecap:round;stroke-linejoin:round;stroke-miterlimit:4;stroke-opacity:1"
       d="M 18.499999,17.000004 C 18.499999,17.828006 15.139999,18.500007 11,18.500007 C 6.8599995,18.500007 3.4999999,17.828006 3.4999999,17.000004 C 3.4999999,16.172002 6.8599995,15.5 11,15.5 C 15.139999,15.5 18.499999,16.172002 18.499999,17.000004 z"
       id="path1878" />
    <path
       style="fill:#000000;fill-opacity:0.19211821;stroke:none;stroke-width:1.00000024;stroke-linecap:round;stroke-linejoin:round;stroke-miterlimit:4;stroke-opacity:1"
       d="M 18,16.821336 C 18,17.373335 14.864,18 11.000001,18 C 7.1360005,18 4,17.373335 4,16.821336 C 4,16.448001 7.1360005,16 11.000001,16 C 14.864,16 18,16.422477 18,16.821336 z"
       id="path2769"
       sodipodi:nodetypes="csssc" />
    <path
       style="fill:url(#linearGradient7220);fill-opacity:1;stroke:#c9c9c4;stroke-width:0.99999988;stroke-linecap:round;stroke-linejoin:round;stroke-miterlimit:4;stroke-opacity:1"
       d="M 11,0.99999998 C 6.859999,0.99999998 3.5,1.892012 3.5,2.9910972 L 4.67821,17.30211 C 4.782616,17.923118 7.670603,18.490709 10.657939,18.49988 C 13.864632,18.509724 17.190464,17.914351 17.309122,17.208777 L 18.5,2.9910972 C 18.5,1.892012 15.139999,0.99999998 11,0.99999998 z"
       id="path3667"
       sodipodi:nodetypes="cccsccc" />
    <path
       style="fill:url(#linearGradient8113);fill-opacity:1;fill-rule:evenodd;stroke:#ffffff;stroke-width:1.00000024px;stroke-linecap:butt;stroke-linejoin:miter;stroke-opacity:0.60098524"
       d="M 5.5202247,16.39227 L 4.5000003,4.9999981 C 4.83951,6.3498035 8.090668,4.9821752 11.033274,5.0036537 C 14.132083,5.0262722 17.294721,6.161569 17.500001,4.9999981 L 16.463062,16.305776 C 16.360225,16.958861 13.481245,17.509 10.702111,17.499888 C 8.1130843,17.4914 5.6107108,16.96708 5.5202247,16.39227 z"
       id="path3669"
       sodipodi:nodetypes="ccsccsc" />
    <path
       sodipodi:type="arc"
       style="opacity:1;fill:url(#linearGradient9032);fill-opacity:1;stroke:url(#linearGradient8125);stroke-width:1.38814342;stroke-linecap:round;stroke-linejoin:round;stroke-miterlimit:4;stroke-dasharray:none;stroke-opacity:1"
       id="path8117"
       sodipodi:cx="20.423529"
       sodipodi:cy="10.447059"
       sodipodi:rx="12.454902"
       sodipodi:ry="2.4784315"
       d="M 32.87843,10.447059 A 12.454902,2.4784315 0 1 1 7.968627,10.447059 A 12.454902,2.4784315 0 1 1 32.87843,10.447059 z"
       transform="matrix(0.6006986,0,0,0.8639232,-0.7487911,-5.884282)" />
    <path
       style="fill:url(#linearGradient1918);fill-opacity:1;stroke:none;stroke-width:1;stroke-linecap:round;stroke-linejoin:round;stroke-miterlimit:4;stroke-opacity:0.08866996"
       d="M 5,7 L 5.1534091,8.9402982 L 8.2727274,9.1194027 L 8.2727274,7.4477614 C 6.8732666,7.4219598 5.9598446,7.1705963 5,7 z M 11,7.4626867 C 10.267724,7.4377286 10.071228,7.5826983 9.3636369,7.4776121 L 9.3636369,9.1940296 L 11,9.2388057 L 11,7.4626867 z M 5.2386363,10.373134 L 5.528409,15.149254 L 8.2727274,15.567164 L 8.2727274,10.597015 L 5.2386363,10.373134 z M 11,10.671642 L 9.3636369,10.701493 L 9.3636369,15.61194 L 11,16 L 11,10.671642 z"
       id="rect8127" />
    <path
       style="opacity:1;fill:url(#linearGradient2811);fill-opacity:1;stroke:#babdb6;stroke-width:0.99999988;stroke-linecap:round;stroke-linejoin:round;stroke-miterlimit:4;stroke-dasharray:none;stroke-opacity:1"
       d="M 11,0.49999994 C 6.3080051,0.49999994 2.5,1.5996357 2.5,2.9545453 L 2.5,4.0454548 C 2.5,5.4003644 6.3080045,6.5000001 11,6.5000001 C 15.691996,6.5000001 19.500001,5.4003644 19.500001,4.0454548 L 19.500001,2.9545453 C 19.500001,1.5996357 15.691996,0.49999994 11,0.49999994 z M 11,1.5909095 C 15.105495,1.5909095 18.437501,2.3240007 18.437501,3.2272727 C 18.437501,4.1305446 15.105495,4.8636358 11,4.8636358 C 6.8945063,4.8636358 3.5625,4.1305446 3.5625,3.2272727 C 3.5625,2.3240007 6.8945063,1.5909095 11,1.5909095 z"
       id="path2796" />
    <path
       style="opacity:1;fill:#000000;fill-opacity:0.11330046;stroke:none;stroke-width:1;stroke-linecap:round;stroke-linejoin:round;stroke-miterlimit:4;stroke-dasharray:none;stroke-opacity:1"
       d="M 11,1 C 6.5840011,1 3,1.9719314 3,3.1694921 C 3,3.8148097 4.0589032,4.3821482 5.7096774,4.7796609 C 4.3550972,4.4360676 3.516129,3.96461 3.516129,3.4406787 C 3.5161291,2.392814 6.8689042,1.5423731 11,1.5423731 C 15.131095,1.5423731 18.48387,2.392814 18.48387,3.4406787 C 18.483872,3.96461 17.644902,4.4360676 16.290323,4.7796609 C 17.941097,4.3821482 19,3.8148097 19,3.1694921 C 19,1.9719325 15.415998,1 11,1 z M 5.7419354,4.7796609 C 6.047696,4.8525624 6.3652996,4.9402771 6.7096774,5 C 6.3673254,4.9388496 6.0387628,4.8541581 5.7419354,4.7796609 z M 16.258064,4.7796609 C 15.961237,4.8541581 15.632674,4.9388496 15.290323,5 C 15.634701,4.9402771 15.952304,4.8525624 16.258064,4.7796609 z"
       id="path3698" />
  </g>
</svg>
