<?xml version="1.0" encoding="UTF-8" standalone="no"?>
<!-- Created with Inkscape (http://www.inkscape.org/) -->
<svg
   xmlns:dc="http://purl.org/dc/elements/1.1/"
   xmlns:cc="http://web.resource.org/cc/"
   xmlns:rdf="http://www.w3.org/1999/02/22-rdf-syntax-ns#"
   xmlns:svg="http://www.w3.org/2000/svg"
   xmlns="http://www.w3.org/2000/svg"
   xmlns:sodipodi="http://sodipodi.sourceforge.net/DTD/sodipodi-0.dtd"
   xmlns:inkscape="http://www.inkscape.org/namespaces/inkscape"
   width="22"
   height="22"
   id="svg2"
   sodipodi:version="0.32"
   inkscape:version="0.43+0.44pre3"
   version="1.0"
   sodipodi:docbase="/home/silvestre/candido/22x22"
   sodipodi:docname="help.svg">
  <defs
     id="defs4" />
  <sodipodi:namedview
     id="base"
     pagecolor="#ffffff"
     bordercolor="#666666"
     borderopacity="1.0"
     inkscape:pageopacity="0.0"
     inkscape:pageshadow="2"
     inkscape:zoom="1"
     inkscape:cx="11"
     inkscape:cy="11"
     inkscape:document-units="px"
     inkscape:current-layer="layer1"
     inkscape:showpageshadow="false"
     width="22px"
     height="22px"
     showgrid="false"
     showborder="false"
     inkscape:window-width="836"
     inkscape:window-height="572"
     inkscape:window-x="27"
     inkscape:window-y="120" />
  <metadata
     id="metadata7">
    <rdf:RDF>
      <cc:Work
         rdf:about="">
        <dc:format>image/svg+xml</dc:format>
        <dc:type
           rdf:resource="http://purl.org/dc/dcmitype/StillImage" />
      </cc:Work>
    </rdf:RDF>
  </metadata>
  <g
     inkscape:label="Capa 1"
     inkscape:groupmode="layer"
     id="layer1">
    <path
       sodipodi:type="arc"
       style="opacity:1;fill:#7b98b6;fill-opacity:1;stroke:#435775;stroke-width:0.99818492;stroke-linecap:round;stroke-linejoin:miter;stroke-miterlimit:4;stroke-dasharray:none;stroke-opacity:1"
       id="path1889"
       sodipodi:cx="11.525199"
       sodipodi:cy="11.525199"
       sodipodi:rx="9.4827585"
       sodipodi:ry="9.4827585"
       d="M 21.007957 11.525199 A 9.4827585 9.4827585 0 1 1  2.0424404,11.525199 A 9.4827585 9.4827585 0 1 1  21.007957 11.525199 z"
       transform="matrix(1.001818,0,0,1.001818,-0.546154,-0.54615)" />
    <path
       sodipodi:type="arc"
       style="opacity:1;fill:none;fill-opacity:1;stroke:white;stroke-width:1.11561763;stroke-linecap:round;stroke-linejoin:miter;stroke-miterlimit:4;stroke-dasharray:none;stroke-opacity:0.5865922"
       id="path2779"
       sodipodi:cx="11.525199"
       sodipodi:cy="11.525199"
       sodipodi:rx="9.4827585"
       sodipodi:ry="9.4827585"
       d="M 21.007957 11.525199 A 9.4827585 9.4827585 0 1 1  2.0424404,11.525199 A 9.4827585 9.4827585 0 1 1  21.007957 11.525199 z"
       transform="matrix(0.896364,0,0,0.896364,0.66923,0.66923)" />
    <path
       style="font-size:15.01810074px;font-style:normal;font-variant:normal;font-weight:bold;font-stretch:normal;text-align:start;line-height:125%;writing-mode:lr-tb;text-anchor:start;fill:white;fill-opacity:1;stroke:none;stroke-width:1px;stroke-linecap:butt;stroke-linejoin:miter;stroke-opacity:1;font-family:Bitstream Vera Sans"
       d="M 11.831552,12.694499 L 9.0039927,12.694499 L 9.0079013,12.361408 C 9.0211826,12.000287 9.0881612,11.679915 9.2568912,11.40126 C 9.4289374,11.117128 9.7786868,10.757165 10.302885,10.320635 L 10.765465,9.9343402 C 11.03145,9.7044388 11.21981,9.4881361 11.336552,9.2866891 C 11.453781,9.0844029 11.630193,8.9122878 11.630196,8.7105263 C 11.630193,8.4035165 11.525159,8.1644816 11.315099,7.9934211 C 11.105029,7.8179907 10.811813,7.7302714 10.435449,7.7302632 C 10.080959,7.7302714 9.6980279,7.8048327 9.286652,7.9539474 C 8.8752718,8.0986922 8.4463881,8.3157972 8,8.6052632 L 8,6.5394737 C 8.529539,6.3552728 9.0131272,6.2193081 9.4507658,6.131579 C 9.8883997,6.0438697 10.310718,6.0000101 10.717724,6 C 11.785553,6.0000101 12.599557,6.2193081 13.159738,6.6578947 C 13.719905,7.0921142 14.249431,7.7292177 14.254053,8.5666303 C 14.256424,8.9963233 14.173662,9.3826444 14.003703,9.724171 C 13.835448,10.062272 13.545077,10.425737 13.135366,10.815979 L 12.716531,11.190899 C 12.419642,11.462787 12.226241,11.682592 12.1336,11.84871 C 12.042807,12.011515 11.996025,12.190802 11.996119,12.388161 L 11.996169,12.694499 M 9.0387563,14.007101 L 11.990571,14.007101 L 11.990571,16 L 9.0387563,16 L 9.0387563,14.007101"
       id="text2781"
       sodipodi:nodetypes="cccsccsssssccsssssccsccccccc" />
  </g>
</svg>
