<?xml version="1.0" encoding="UTF-8" standalone="no"?>
<!-- Created with Inkscape (http://www.inkscape.org/) -->
<svg
   xmlns:dc="http://purl.org/dc/elements/1.1/"
   xmlns:cc="http://web.resource.org/cc/"
   xmlns:rdf="http://www.w3.org/1999/02/22-rdf-syntax-ns#"
   xmlns:svg="http://www.w3.org/2000/svg"
   xmlns="http://www.w3.org/2000/svg"
   xmlns:xlink="http://www.w3.org/1999/xlink"
   xmlns:sodipodi="http://sodipodi.sourceforge.net/DTD/sodipodi-0.dtd"
   xmlns:inkscape="http://www.inkscape.org/namespaces/inkscape"
   width="48"
   height="48"
   id="svg2"
   sodipodi:version="0.32"
   inkscape:version="0.45.1"
   version="1.0"
   sodipodi:docbase="/home/silvestre/.icons/Gion/scalable/apps"
   sodipodi:docname="ftp-client.svg"
   inkscape:export-filename="/home/silvestre/Gion/folder-remote.png"
   inkscape:export-xdpi="90"
   inkscape:export-ydpi="90"
   inkscape:output_extension="org.inkscape.output.svg.inkscape">
  <defs
     id="defs4">
    <linearGradient
       inkscape:collect="always"
       id="linearGradient2363">
      <stop
         style="stop-color:#000000;stop-opacity:1;"
         offset="0"
         id="stop2365" />
      <stop
         style="stop-color:#000000;stop-opacity:0;"
         offset="1"
         id="stop2367" />
    </linearGradient>
    <linearGradient
       inkscape:collect="always"
       id="linearGradient2350">
      <stop
         style="stop-color:#ffffff;stop-opacity:0.85407728"
         offset="0"
         id="stop2352" />
      <stop
         style="stop-color:#ffffff;stop-opacity:0;"
         offset="1"
         id="stop2354" />
    </linearGradient>
    <linearGradient
       id="linearGradient2338">
      <stop
         id="stop2340"
         offset="0"
         style="stop-color:#e6e6e6;stop-opacity:0;" />
      <stop
         style="stop-color:#e6e6e6;stop-opacity:1;"
         offset="0.1570248"
         id="stop2342" />
      <stop
         id="stop2344"
         offset="0.86363637"
         style="stop-color:#e6e6e6;stop-opacity:1;" />
      <stop
         id="stop2346"
         offset="1"
         style="stop-color:#e6e6e6;stop-opacity:0;" />
    </linearGradient>
    <linearGradient
       id="linearGradient2322">
      <stop
         style="stop-color:#adadad;stop-opacity:0;"
         offset="0"
         id="stop2324" />
      <stop
         id="stop2330"
         offset="0.1570248"
         style="stop-color:#adadad;stop-opacity:1;" />
      <stop
         style="stop-color:#adadad;stop-opacity:1;"
         offset="0.86363637"
         id="stop2332" />
      <stop
         style="stop-color:#adadad;stop-opacity:0;"
         offset="1"
         id="stop2326" />
    </linearGradient>
    <linearGradient
       id="linearGradient2291">
      <stop
         style="stop-color:#8c8c8c;stop-opacity:1;"
         offset="0"
         id="stop2293" />
      <stop
         id="stop2299"
         offset="0.5"
         style="stop-color:#dbdbdb;stop-opacity:1;" />
      <stop
         style="stop-color:#6f6f6f;stop-opacity:1;"
         offset="1"
         id="stop2295" />
    </linearGradient>
    <linearGradient
       id="linearGradient2272">
      <stop
         style="stop-color:#000000;stop-opacity:0;"
         offset="0"
         id="stop2274" />
      <stop
         id="stop2238"
         offset="0.47"
         style="stop-color:#000000;stop-opacity:0.16470588;" />
      <stop
         style="stop-color:#000000;stop-opacity:0.66666669;"
         offset="1"
         id="stop2276" />
    </linearGradient>
    <linearGradient
       inkscape:collect="always"
       id="linearGradient2240">
      <stop
         style="stop-color:#ffffff;stop-opacity:0.3004292"
         offset="0"
         id="stop2242" />
      <stop
         style="stop-color:#ffffff;stop-opacity:0;"
         offset="1"
         id="stop2244" />
    </linearGradient>
    <linearGradient
       inkscape:collect="always"
       id="linearGradient3104">
      <stop
         style="stop-color:#ffffff;stop-opacity:0.70980394"
         offset="0"
         id="stop3106" />
      <stop
         style="stop-color:#ffffff;stop-opacity:0.10729614"
         offset="1"
         id="stop3108" />
    </linearGradient>
    <linearGradient
       inkscape:collect="always"
       id="linearGradient3132">
      <stop
         style="stop-color:#636363;stop-opacity:1;"
         offset="0"
         id="stop3134" />
      <stop
         style="stop-color:#636363;stop-opacity:0;"
         offset="1"
         id="stop3136" />
    </linearGradient>
    <linearGradient
       inkscape:collect="always"
       id="linearGradient2211">
      <stop
         style="stop-color:#000000;stop-opacity:1;"
         offset="0"
         id="stop2213" />
      <stop
         style="stop-color:#000000;stop-opacity:0;"
         offset="1"
         id="stop2215" />
    </linearGradient>
    <linearGradient
       id="linearGradient2233">
      <stop
         style="stop-color:#ffffff;stop-opacity:0.84848487;"
         offset="0"
         id="stop2235" />
      <stop
         style="stop-color:#ffffff;stop-opacity:0.32323232;"
         offset="1"
         id="stop2237" />
    </linearGradient>
    <linearGradient
       inkscape:collect="always"
       id="linearGradient2223">
      <stop
         style="stop-color:#000000;stop-opacity:0.68240345"
         offset="0"
         id="stop2225" />
      <stop
         style="stop-color:#000000;stop-opacity:0;"
         offset="1"
         id="stop2227" />
    </linearGradient>
    <linearGradient
       id="linearGradient2196">
      <stop
         style="stop-color:#1475ce;stop-opacity:1;"
         offset="0"
         id="stop2198" />
      <stop
         style="stop-color:#1772c6;stop-opacity:0;"
         offset="1"
         id="stop2200" />
    </linearGradient>
    <linearGradient
       id="linearGradient2228">
      <stop
         style="stop-color:#898989;stop-opacity:1;"
         offset="0"
         id="stop2230" />
      <stop
         style="stop-color:#b2b2b2;stop-opacity:1;"
         offset="1"
         id="stop2232" />
    </linearGradient>
    <linearGradient
       inkscape:collect="always"
       xlink:href="#linearGradient2228"
       id="linearGradient2234"
       x1="34.39695"
       y1="4.1508341"
       x2="20.559042"
       y2="4.1508341"
       gradientUnits="userSpaceOnUse"
       gradientTransform="matrix(0.921296,0,0,0.928725,-6.254559,1.104305)" />
    <linearGradient
       inkscape:collect="always"
       xlink:href="#linearGradient2196"
       id="linearGradient2202"
       x1="11.856057"
       y1="34.258842"
       x2="13.001899"
       y2="34.258842"
       gradientUnits="userSpaceOnUse"
       gradientTransform="matrix(1.333333,0,0,0.928571,-10.33333,1.071429)" />
    <linearGradient
       inkscape:collect="always"
       xlink:href="#linearGradient2223"
       id="linearGradient2229"
       x1="22.563639"
       y1="22.793297"
       x2="14.300235"
       y2="22.793297"
       gradientUnits="userSpaceOnUse"
       gradientTransform="matrix(0.925454,0,0,0.933617,-6.454331,1.199148)" />
    <linearGradient
       inkscape:collect="always"
       xlink:href="#linearGradient2233"
       id="linearGradient2239"
       x1="17.697422"
       y1="2.6187558"
       x2="22.121777"
       y2="38.438679"
       gradientUnits="userSpaceOnUse"
       gradientTransform="matrix(0.918735,0,0,0.928038,-6.138115,1.052257)" />
    <radialGradient
       inkscape:collect="always"
       xlink:href="#linearGradient2211"
       id="radialGradient2217"
       cx="24.523569"
       cy="43.954876"
       fx="19.014454"
       fy="49.215107"
       r="22.501007"
       gradientTransform="matrix(1,0,0,0.174157,-4.817804e-16,36.29981)"
       gradientUnits="userSpaceOnUse" />
    <linearGradient
       inkscape:collect="always"
       xlink:href="#linearGradient3132"
       id="linearGradient3138"
       x1="11.292813"
       y1="27.083799"
       x2="8.5740976"
       y2="27.083799"
       gradientUnits="userSpaceOnUse" />
    <radialGradient
       inkscape:collect="always"
       xlink:href="#linearGradient2272"
       id="radialGradient1372"
       gradientUnits="userSpaceOnUse"
       gradientTransform="matrix(2.269526,3.525726e-16,-2.762291e-16,2.908744,-35.27978,-42.95346)"
       cx="24.026768"
       cy="20.767532"
       fx="24.026768"
       fy="20.767532"
       r="13.026767" />
    <radialGradient
       inkscape:collect="always"
       xlink:href="#linearGradient2240"
       id="radialGradient1374"
       gradientUnits="userSpaceOnUse"
       gradientTransform="matrix(0.959074,-1.451735e-18,-2.413824e-18,1.612845,-3.79381,-15.59879)"
       cx="24.651768"
       cy="19.102621"
       fx="24.651768"
       fy="19.102621"
       r="13.026767" />
    <linearGradient
       inkscape:collect="always"
       xlink:href="#linearGradient3104"
       id="linearGradient1376"
       gradientUnits="userSpaceOnUse"
       x1="17.718407"
       y1="10.078797"
       x2="24.218407"
       y2="43.104637"
       gradientTransform="matrix(0.921346,0,0,0.929593,-2.704428,1.254813)" />
    <linearGradient
       inkscape:collect="always"
       xlink:href="#linearGradient3132"
       id="linearGradient1371"
       gradientUnits="userSpaceOnUse"
       x1="11.292813"
       y1="27.083799"
       x2="8.5740976"
       y2="27.083799" />
    <linearGradient
       inkscape:collect="always"
       xlink:href="#linearGradient3132"
       id="linearGradient1373"
       gradientUnits="userSpaceOnUse"
       x1="11.292813"
       y1="27.083799"
       x2="8.5740976"
       y2="27.083799" />
    <linearGradient
       inkscape:collect="always"
       xlink:href="#linearGradient3132"
       id="linearGradient1375"
       gradientUnits="userSpaceOnUse"
       x1="11.292813"
       y1="27.083799"
       x2="8.5740976"
       y2="27.083799" />
    <linearGradient
       inkscape:collect="always"
       xlink:href="#linearGradient3132"
       id="linearGradient1377"
       gradientUnits="userSpaceOnUse"
       x1="11.292813"
       y1="27.083799"
       x2="8.5740976"
       y2="27.083799" />
    <linearGradient
       inkscape:collect="always"
       xlink:href="#linearGradient3132"
       id="linearGradient1379"
       gradientUnits="userSpaceOnUse"
       x1="11.292813"
       y1="27.083799"
       x2="8.5740976"
       y2="27.083799" />
    <linearGradient
       inkscape:collect="always"
       xlink:href="#linearGradient3132"
       id="linearGradient1381"
       gradientUnits="userSpaceOnUse"
       x1="11.292813"
       y1="27.083799"
       x2="8.5740976"
       y2="27.083799" />
    <linearGradient
       inkscape:collect="always"
       xlink:href="#linearGradient3132"
       id="linearGradient1383"
       gradientUnits="userSpaceOnUse"
       x1="11.292813"
       y1="27.083799"
       x2="8.5740976"
       y2="27.083799" />
    <linearGradient
       inkscape:collect="always"
       xlink:href="#linearGradient3132"
       id="linearGradient1385"
       gradientUnits="userSpaceOnUse"
       x1="11.292813"
       y1="27.083799"
       x2="8.5740976"
       y2="27.083799" />
    <linearGradient
       inkscape:collect="always"
       xlink:href="#linearGradient3132"
       id="linearGradient1387"
       gradientUnits="userSpaceOnUse"
       x1="11.292813"
       y1="27.083799"
       x2="8.5740976"
       y2="27.083799" />
    <linearGradient
       inkscape:collect="always"
       xlink:href="#linearGradient3132"
       id="linearGradient1389"
       gradientUnits="userSpaceOnUse"
       x1="11.292813"
       y1="27.083799"
       x2="8.5740976"
       y2="27.083799" />
    <linearGradient
       inkscape:collect="always"
       xlink:href="#linearGradient3132"
       id="linearGradient1391"
       gradientUnits="userSpaceOnUse"
       x1="11.292813"
       y1="27.083799"
       x2="8.5740976"
       y2="27.083799" />
    <linearGradient
       inkscape:collect="always"
       xlink:href="#linearGradient3132"
       id="linearGradient1393"
       gradientUnits="userSpaceOnUse"
       x1="11.292813"
       y1="27.083799"
       x2="8.5740976"
       y2="27.083799" />
    <linearGradient
       inkscape:collect="always"
       xlink:href="#linearGradient2291"
       id="linearGradient2297"
       x1="45.078808"
       y1="22.013826"
       x2="39.862206"
       y2="22.013826"
       gradientUnits="userSpaceOnUse"
       gradientTransform="translate(1,0)" />
    <linearGradient
       inkscape:collect="always"
       xlink:href="#linearGradient2322"
       id="linearGradient2328"
       x1="43.875"
       y1="2.9947853"
       x2="43.875"
       y2="43.001759"
       gradientUnits="userSpaceOnUse"
       gradientTransform="translate(1,0)" />
    <linearGradient
       inkscape:collect="always"
       xlink:href="#linearGradient2338"
       id="linearGradient2336"
       gradientUnits="userSpaceOnUse"
       x1="43.875"
       y1="2.9947853"
       x2="43.875"
       y2="43.001759"
       gradientTransform="matrix(0.4,0,0,1,26.6,0)" />
    <linearGradient
       inkscape:collect="always"
       xlink:href="#linearGradient2350"
       id="linearGradient2356"
       x1="39.50959"
       y1="17.858757"
       x2="39.50959"
       y2="22.996201"
       gradientUnits="userSpaceOnUse" />
    <linearGradient
       inkscape:collect="always"
       xlink:href="#linearGradient2363"
       id="linearGradient2369"
       x1="36.999077"
       y1="23.074486"
       x2="40.001789"
       y2="23.074486"
       gradientUnits="userSpaceOnUse" />
    <radialGradient
       gradientUnits="userSpaceOnUse"
       gradientTransform="matrix(0.607142,0,0,0.428573,-4.133929,0.357142)"
       r="14"
       fy="7.2080207"
       fx="25.75"
       cy="13.969933"
       cx="25.75"
       id="radialGradient2354"
       xlink:href="#linearGradient3156"
       inkscape:collect="always" />
    <linearGradient
       id="linearGradient2183">
      <stop
         id="stop2185"
         offset="0"
         style="stop-color:#d2e7f4;stop-opacity:1;" />
      <stop
         style="stop-color:#79b6de;stop-opacity:1;"
         offset="0"
         id="stop2191" />
      <stop
         id="stop2193"
         offset="0.75"
         style="stop-color:#3a8cc2;stop-opacity:1;" />
      <stop
         style="stop-color:#327fb0;stop-opacity:1;"
         offset="0.85227275"
         id="stop2195" />
      <stop
         id="stop2187"
         offset="1"
         style="stop-color:#216089;stop-opacity:1;" />
    </linearGradient>
    <linearGradient
       id="linearGradient3156"
       inkscape:collect="always">
      <stop
         id="stop3158"
         offset="0"
         style="stop-color:#ffffff;stop-opacity:1;" />
      <stop
         id="stop3160"
         offset="1"
         style="stop-color:#ffffff;stop-opacity:0;" />
    </linearGradient>
    <linearGradient
       id="linearGradient3166"
       inkscape:collect="always">
      <stop
         id="stop3168"
         offset="0"
         style="stop-color:#ffffff;stop-opacity:0.65665233" />
      <stop
         id="stop3170"
         offset="1"
         style="stop-color:#ffffff;stop-opacity:0;" />
    </linearGradient>
    <linearGradient
       id="linearGradient4047"
       inkscape:collect="always">
      <stop
         id="stop4049"
         offset="0"
         style="stop-color:#ffffff;stop-opacity:0.92156863" />
      <stop
         id="stop4051"
         offset="1"
         style="stop-color:#ffffff;stop-opacity:0.16078432" />
    </linearGradient>
    <linearGradient
       id="linearGradient4930"
       inkscape:collect="always">
      <stop
         id="stop4932"
         offset="0"
         style="stop-color:#000000;stop-opacity:1;" />
      <stop
         id="stop4934"
         offset="1"
         style="stop-color:#000000;stop-opacity:0;" />
    </linearGradient>
    <linearGradient
       id="linearGradient2219">
      <stop
         style="stop-color:#000000;stop-opacity:0;"
         offset="0"
         id="stop2229" />
      <stop
         style="stop-color:#000000;stop-opacity:0.16078431;"
         offset="0.54545456"
         id="stop2328" />
      <stop
         id="stop2223"
         offset="1"
         style="stop-color:#000000;stop-opacity:0.4040404;" />
    </linearGradient>
    <radialGradient
       inkscape:collect="always"
       xlink:href="#linearGradient4930"
       id="radialGradient2388"
       gradientUnits="userSpaceOnUse"
       gradientTransform="matrix(1,0,0,0.250712,0,31.09544)"
       cx="23.6875"
       cy="41.5"
       fx="23.6875"
       fy="47.352863"
       r="21.9375" />
    <radialGradient
       inkscape:collect="always"
       xlink:href="#linearGradient2183"
       id="radialGradient2390"
       gradientUnits="userSpaceOnUse"
       gradientTransform="matrix(0.485785,0,0,0.48546,-0.243069,-0.815716)"
       cx="21.449108"
       cy="19.917389"
       fx="21.449108"
       fy="19.917389"
       r="22.463524" />
    <radialGradient
       inkscape:collect="always"
       xlink:href="#linearGradient2219"
       id="radialGradient2392"
       gradientUnits="userSpaceOnUse"
       gradientTransform="matrix(0.615393,0,0,0.708773,-2.502488,-4.905457)"
       cx="21.75"
       cy="16.740391"
       fx="21.75"
       fy="16.740391"
       r="15" />
    <radialGradient
       inkscape:collect="always"
       xlink:href="#linearGradient3166"
       id="radialGradient2394"
       gradientUnits="userSpaceOnUse"
       gradientTransform="matrix(0.2736259,2.8284443e-3,-1.7783213e-3,0.1722065,5.5882028,9.9837025)"
       cx="21.857351"
       cy="38.774254"
       fx="21.902714"
       fy="45.754158"
       r="21.021248" />
    <linearGradient
       inkscape:collect="always"
       xlink:href="#linearGradient4047"
       id="linearGradient2396"
       gradientUnits="userSpaceOnUse"
       gradientTransform="matrix(0.4473601,0,0,0.4473636,0.7646865,0.2119647)"
       x1="24"
       y1="-1.4128544e-07"
       x2="24"
       y2="33.061165" />
    <radialGradient
       inkscape:collect="always"
       xlink:href="#linearGradient2211"
       id="radialGradient2398"
       gradientUnits="userSpaceOnUse"
       gradientTransform="matrix(1,0,0,0.174157,0,36.29981)"
       cx="24.523569"
       cy="43.954876"
       fx="19.014454"
       fy="49.215107"
       r="22.501007" />
  </defs>
  <sodipodi:namedview
     id="base"
     pagecolor="#ffffff"
     bordercolor="#666666"
     borderopacity="1.0"
     inkscape:pageopacity="0.0"
     inkscape:pageshadow="2"
     inkscape:zoom="1"
     inkscape:cx="24"
     inkscape:cy="24"
     inkscape:document-units="px"
     inkscape:current-layer="layer5"
     showgrid="false"
     inkscape:grid-bbox="true"
     inkscape:window-width="872"
     inkscape:window-height="621"
     inkscape:window-x="256"
     inkscape:window-y="151"
     showguides="true"
     inkscape:guide-bbox="true"
     showborder="false"
     inkscape:showpageshadow="false" />
  <metadata
     id="metadata7">
    <rdf:RDF>
      <cc:Work
         rdf:about="">
        <dc:format>image/svg+xml</dc:format>
        <dc:type
           rdf:resource="http://purl.org/dc/dcmitype/StillImage" />
        <dc:title>FTP Client</dc:title>
        <dc:creator>
          <cc:Agent>
            <dc:title>Silvestre Herrera</dc:title>
          </cc:Agent>
        </dc:creator>
        <dc:subject>
          <rdf:Bag />
        </dc:subject>
        <cc:license
           rdf:resource="http://creativecommons.org/licenses/GPL/2.0/" />
      </cc:Work>
      <cc:License
         rdf:about="http://creativecommons.org/licenses/GPL/2.0/">
        <cc:permits
           rdf:resource="http://web.resource.org/cc/Reproduction" />
        <cc:permits
           rdf:resource="http://web.resource.org/cc/Distribution" />
        <cc:requires
           rdf:resource="http://web.resource.org/cc/Notice" />
        <cc:permits
           rdf:resource="http://web.resource.org/cc/DerivativeWorks" />
        <cc:requires
           rdf:resource="http://web.resource.org/cc/ShareAlike" />
        <cc:requires
           rdf:resource="http://web.resource.org/cc/SourceCode" />
      </cc:License>
    </rdf:RDF>
  </metadata>
  <g
     inkscape:label="back-folder"
     inkscape:groupmode="layer"
     id="layer1">
    <path
       sodipodi:type="arc"
       style="opacity:0.77922076;fill:url(#radialGradient2217);fill-opacity:1;stroke:none;stroke-width:1;stroke-linecap:round;stroke-linejoin:round;stroke-miterlimit:4;stroke-dasharray:none;stroke-dashoffset:0;stroke-opacity:1"
       id="path1336"
       sodipodi:cx="24.523569"
       sodipodi:cy="43.954876"
       sodipodi:rx="22.501007"
       sodipodi:ry="3.9187145"
       d="M 47.024576 43.954876 A 22.501007 3.9187145 0 1 1  2.022562,43.954876 A 22.501007 3.9187145 0 1 1  47.024576 43.954876 z"
       transform="matrix(0.864029,0,0,1.548599,-1.747553,-28.12422)" />
    <path
       style="fill:url(#linearGradient2234);fill-opacity:1;fill-rule:evenodd;stroke:#636363;stroke-width:0.99999964px;stroke-linecap:butt;stroke-linejoin:round;stroke-opacity:1"
       d="M 37.507006,2.4973882 C 30.389868,3.8297223 15.967732,4.6227152 5.2681325,4.3476581 L 5.2681325,27.571493 L 2.497754,27.571493 L 2.497754,41.446759 C 15.226686,41.576454 27.95054,41.701938 37.507006,39.201838 L 37.507006,2.4973882 z "
       id="path1307"
       sodipodi:nodetypes="ccccccc" />
    <path
       style="fill:url(#linearGradient2229);fill-opacity:1;fill-rule:evenodd;stroke:none;stroke-width:0.99999958px;stroke-linecap:butt;stroke-linejoin:round;stroke-opacity:1"
       d="M 35.480318,4 C 32.127646,8.5925351 18.139478,9.6123317 6.4915902,10.681199 L 6.4915902,42.278308 C 6.499985,42.278209 6.5214972,42.278308 6.5214972,42.278308 L 11.496381,46.03364 L 32.280262,42.278308 C 32.431833,42.278308 32.587435,42.306306 32.728868,42.336659 C 32.744582,42.340032 32.74321,42.332935 32.758774,42.336659 C 33.317248,41.983142 33.814661,41.590804 34.224221,41.169637 L 35.480318,4 z "
       id="path2236"
       sodipodi:nodetypes="ccccccsscc" />
    <rect
       style="opacity:0.58008656;fill:url(#linearGradient2202);fill-opacity:1;stroke:none;stroke-width:1;stroke-linecap:round;stroke-linejoin:round;stroke-miterlimit:4;stroke-dasharray:none;stroke-dashoffset:0;stroke-opacity:1"
       id="rect2194"
       width="4"
       height="13"
       x="3"
       y="28" />
    <path
       style="fill:none;fill-opacity:1;fill-rule:evenodd;stroke:url(#linearGradient2239);stroke-width:0.99999946px;stroke-linecap:butt;stroke-linejoin:round;stroke-opacity:1"
       d="M 36.607099,3.4970321 C 29.875916,4.7661148 16.383442,5.475835 6.264072,5.213836 L 6.264072,28.436585 L 3.4963681,28.436585 L 3.4963681,40.45067 C 15.535022,40.574209 27.56887,40.693735 36.607099,38.312326 L 36.607099,3.4970321 z "
       id="path2231"
       sodipodi:nodetypes="ccccccc" />
    <g
       id="g3118"
       style="opacity:0.18614717;fill-opacity:1;stroke:url(#linearGradient3138)"
       transform="matrix(0.925454,0,0,0.933617,-2.769367,1.199148)">
      <path
         sodipodi:nodetypes="cc"
         id="path3092"
         d="M 9.5147102,6.4664942 C 24.575507,6.6445419 34.622174,5.7153718 43.492644,4.5264746"
         style="fill:none;fill-opacity:1;fill-rule:evenodd;stroke:url(#linearGradient1371);stroke-width:1.07581604px;stroke-linecap:butt;stroke-linejoin:miter;stroke-opacity:1" />
      <path
         style="fill:none;fill-opacity:1;fill-rule:evenodd;stroke:url(#linearGradient1373);stroke-width:1.07581604px;stroke-linecap:butt;stroke-linejoin:miter;stroke-opacity:1"
         d="M 9.4999999,9.4400195 C 24.560797,9.6180672 34.607464,8.6888971 43.477934,7.4999999"
         id="path3096"
         sodipodi:nodetypes="cc" />
      <path
         style="fill:none;fill-opacity:1;fill-rule:evenodd;stroke:url(#linearGradient1375);stroke-width:1.07581604px;stroke-linecap:butt;stroke-linejoin:miter;stroke-opacity:1"
         d="M 9.5147102,12.440019 C 24.575507,12.618067 34.622174,11.688897 43.492644,10.5"
         id="path3098"
         sodipodi:nodetypes="cc" />
      <path
         style="fill:none;fill-opacity:1;fill-rule:evenodd;stroke:url(#linearGradient1377);stroke-width:1.07581604px;stroke-linecap:butt;stroke-linejoin:miter;stroke-opacity:1"
         d="M 9.5147102,15.440019 C 24.575507,15.618067 34.622174,14.688897 43.492644,13.5"
         id="path3100"
         sodipodi:nodetypes="cc" />
      <path
         style="fill:none;fill-opacity:1;fill-rule:evenodd;stroke:url(#linearGradient1379);stroke-width:1.07581604px;stroke-linecap:butt;stroke-linejoin:miter;stroke-opacity:1"
         d="M 9.5147102,18.440019 C 24.575507,18.618067 34.622174,17.688897 43.492644,16.5"
         id="path3102"
         sodipodi:nodetypes="cc" />
      <path
         style="fill:none;fill-opacity:1;fill-rule:evenodd;stroke:url(#linearGradient1381);stroke-width:1.07581604px;stroke-linecap:butt;stroke-linejoin:miter;stroke-opacity:1"
         d="M 9.5147102,21.440019 C 24.575507,21.618067 34.622174,20.688897 43.492644,19.5"
         id="path3104"
         sodipodi:nodetypes="cc" />
      <path
         style="fill:none;fill-opacity:1;fill-rule:evenodd;stroke:url(#linearGradient1383);stroke-width:1.07581604px;stroke-linecap:butt;stroke-linejoin:miter;stroke-opacity:1"
         d="M 9.5147102,24.478064 C 24.575507,24.656112 34.622174,23.726942 43.492644,22.538045"
         id="path3106"
         sodipodi:nodetypes="cc" />
      <path
         style="fill:none;fill-opacity:1;fill-rule:evenodd;stroke:url(#linearGradient1385);stroke-width:1.07581604px;stroke-linecap:butt;stroke-linejoin:miter;stroke-opacity:1"
         d="M 9.5147102,27.478064 C 24.575507,27.656112 34.622174,26.726942 43.492644,25.538045"
         id="path3108"
         sodipodi:nodetypes="cc" />
      <path
         style="fill:none;fill-opacity:1;fill-rule:evenodd;stroke:url(#linearGradient1387);stroke-width:1.07581604px;stroke-linecap:butt;stroke-linejoin:miter;stroke-opacity:1"
         d="M 5.5075372,30.903706 C 22.319088,31.081754 33.533639,30.152584 43.435264,28.963687"
         id="path3110"
         sodipodi:nodetypes="cc" />
      <path
         style="fill:none;fill-opacity:1;fill-rule:evenodd;stroke:url(#linearGradient1389);stroke-width:1.07581592px;stroke-linecap:butt;stroke-linejoin:miter;stroke-opacity:1"
         d="M 5.5573856,33.478064 C 22.346831,33.656112 33.546634,32.726942 43.435239,31.538045"
         id="path3112"
         sodipodi:nodetypes="cc" />
      <path
         style="fill:none;fill-opacity:1;fill-rule:evenodd;stroke:url(#linearGradient1391);stroke-width:1.07581592px;stroke-linecap:butt;stroke-linejoin:miter;stroke-opacity:1"
         d="M 5.5573856,36.440019 C 22.346831,36.618067 33.546634,35.688897 43.435239,34.5"
         id="path3114"
         sodipodi:nodetypes="cc" />
      <path
         sodipodi:nodetypes="cc"
         id="path3094"
         d="M 5.5573856,39.440019 C 22.346831,39.618067 33.546634,38.688897 43.435239,37.5"
         style="fill:none;fill-opacity:1;fill-rule:evenodd;stroke:url(#linearGradient1393);stroke-width:1.07581592px;stroke-linecap:butt;stroke-linejoin:miter;stroke-opacity:1" />
    </g>
  </g>
  <g
     inkscape:groupmode="layer"
     id="layer4"
     inkscape:label="tubes">
    <rect
       style="opacity:1;fill:url(#linearGradient2328);fill-opacity:1;stroke:none;stroke-width:0.99999988;stroke-linecap:round;stroke-linejoin:round;stroke-miterlimit:4;stroke-dasharray:none;stroke-dashoffset:0;stroke-opacity:1"
       id="rect2301"
       width="5"
       height="40"
       x="42"
       y="3" />
    <rect
       style="opacity:1;fill:url(#linearGradient2336);fill-opacity:1;stroke:none;stroke-width:0.99999988;stroke-linecap:round;stroke-linejoin:round;stroke-miterlimit:4;stroke-dasharray:none;stroke-dashoffset:0;stroke-opacity:1"
       id="rect2334"
       width="2"
       height="40"
       x="43"
       y="3" />
    <path
       style="opacity:1;fill:url(#linearGradient2297);fill-opacity:1;stroke:#787878;stroke-width:0.99999976;stroke-linecap:round;stroke-linejoin:round;stroke-miterlimit:4;stroke-dasharray:none;stroke-dashoffset:0;stroke-opacity:1"
       d="M 41.5,15.5 L 41.5,19.5 L 35.5,19.5 L 35.5,26.5 L 41.5,26.5 L 41.5,30.5 C 41.5,33.177522 47.5,33.127456 47.5,30.5 L 47.5,15.5 C 47.5,18.0935 41.5,17.939469 41.5,15.5 z "
       id="rect1402"
       sodipodi:nodetypes="ccccccccc" />
    <path
       style="fill:url(#linearGradient2356);fill-opacity:1;stroke:none;stroke-width:1;stroke-linecap:round;stroke-linejoin:round;stroke-miterlimit:4;stroke-dashoffset:0;stroke-opacity:1"
       d="M 37,20 L 41,20 L 41,24 L 37,24 L 37,20 z "
       id="rect2348" />
    <path
       style="opacity:0.54112555;fill:url(#linearGradient2369);fill-opacity:1;stroke:none;stroke-width:1;stroke-linecap:round;stroke-linejoin:round;stroke-miterlimit:4;stroke-dashoffset:0;stroke-opacity:1"
       d="M 37,19 L 40,19 L 40,27 L 37,27 L 37,19 z "
       id="path2361" />
    <rect
       style="opacity:1;fill:#ffffff;fill-opacity:1;stroke:none;stroke-width:1;stroke-linecap:round;stroke-linejoin:round;stroke-miterlimit:4;stroke-dasharray:none;stroke-dashoffset:0;stroke-opacity:1"
       id="rect1421"
       width="1.0625"
       height="8"
       x="42.9375"
       y="22" />
    <rect
       style="opacity:1;fill:#ffffff;fill-opacity:1;stroke:none;stroke-width:1;stroke-linecap:round;stroke-linejoin:round;stroke-miterlimit:4;stroke-dasharray:none;stroke-dashoffset:0;stroke-opacity:1"
       id="rect2296"
       width="1.0625"
       height="2"
       x="42.9375"
       y="19" />
  </g>
  <g
     inkscape:groupmode="layer"
     id="layer3"
     inkscape:label="folder-color">
    <path
       style="fill:#debc79;fill-opacity:1;fill-rule:evenodd;stroke:#7f7048;stroke-width:0.99999911px;stroke-linecap:butt;stroke-linejoin:round;stroke-opacity:1"
       d="M 37.498594,2.5011355 C 34.245768,7.0992938 22.802263,8.1069997 11.501269,9.1771753 L 11.501269,45.49936 C 22.265791,44.559648 33.586109,43.880493 37.498594,39.728545 L 37.498594,2.5011355 z "
       id="path2182"
       sodipodi:nodetypes="ccccc" />
  </g>
  <g
     inkscape:groupmode="layer"
     id="layer2"
     inkscape:label="lights">
    <path
       style="fill:url(#radialGradient1372);fill-opacity:1;fill-rule:evenodd;stroke:none;stroke-width:0.99999905px;stroke-linecap:butt;stroke-linejoin:round;stroke-opacity:1"
       d="M 37.018172,4 C 32.800489,7.4101969 22.89283,8.7552232 12.030906,9.8751973 L 12.030906,45 C 22.3772,44.09153 33.257695,43.434957 37.018172,39.421055 L 37.018172,4 z "
       id="path2252"
       sodipodi:nodetypes="ccccc" />
    <path
       style="fill:url(#radialGradient1374);fill-opacity:1;fill-rule:evenodd;stroke:none;stroke-width:0.99999905px;stroke-linecap:butt;stroke-linejoin:round;stroke-opacity:1"
       d="M 37.018172,4 C 32.800488,7.9675357 22.89283,8.6766011 12.030906,9.7812546 L 12.030906,45 C 22.377199,44.103957 33.257695,43.456364 37.018172,39.497368 L 37.018172,4 z "
       id="path1364"
       sodipodi:nodetypes="ccccc" />
    <path
       style="fill:none;fill-opacity:1;fill-rule:evenodd;stroke:url(#linearGradient1376);stroke-width:0.99999869px;stroke-linecap:butt;stroke-linejoin:round;stroke-opacity:1"
       d="M 36.502091,4.4978426 C 32.450323,8.3689743 22.932413,9.060811 12.497776,10.138623 L 12.497776,44.501617 C 22.437065,43.627349 32.889542,42.995491 36.502091,39.132691 L 36.502091,4.4978426 z "
       id="path2204"
       sodipodi:nodetypes="ccccc" />
  </g>
  <g
     inkscape:groupmode="layer"
     id="layer5">
    <g
       id="g2356"
       transform="matrix(1.5039094,0,0,1.511918,13.91396,14.737835)">
      <g
         id="g2358"
         inkscape:label="water">
        <path
           transform="matrix(0.501425,0,0,0.454545,-0.877493,0.636364)"
           d="M 45.625 41.5 A 21.9375 5.5 0 1 1  1.75,41.5 A 21.9375 5.5 0 1 1  45.625 41.5 z"
           sodipodi:ry="5.5"
           sodipodi:rx="21.9375"
           sodipodi:cy="41.5"
           sodipodi:cx="23.6875"
           id="path4055"
           style="opacity:0.38095236;fill:url(#radialGradient2388);fill-opacity:1;stroke:none;stroke-width:1;stroke-linecap:round;stroke-linejoin:round;stroke-miterlimit:4;stroke-dasharray:none;stroke-dashoffset:0;stroke-opacity:0.16078431"
           sodipodi:type="arc" />
        <path
           id="path2362"
           d="M 21.499989,10.493291 C 21.499989,16.009588 17.019993,20.486582 11.499996,20.486582 C 5.9799979,20.486582 1.4999999,16.009588 1.4999999,10.493291 C 1.4999999,4.9769953 5.9799979,0.50000074 11.499996,0.50000074 C 17.019993,0.50000074 21.499989,4.9769953 21.499989,10.493291 z "
           style="fill:url(#radialGradient2390);fill-opacity:1;stroke:#486a7f;stroke-width:0.66317093;stroke-linecap:round;stroke-linejoin:round;stroke-miterlimit:4;stroke-dashoffset:0;stroke-opacity:1" />
      </g>
      <g
         style="opacity:1"
         inkscape:label="earth"
         id="g2364">
        <path
           style="fill:#ffffff;fill-opacity:1"
           d="M 13.154651,1.0284768 C 9.0101695,0.78057773 6.7188702,2.1888505 5.0844063,3.7871966 C 4.7095129,4.1538059 5.4781911,4.3738422 5.7472032,4.329129 C 5.9208794,4.300266 5.8610806,4.4341649 6.014215,4.3299948 C 6.404748,4.0643253 6.7289733,4.1325914 7.3493199,4.6291614 C 7.8044325,4.9934627 7.8556724,5.0760912 7.9930318,5.5693997 C 8.1218745,6.0321327 8.1314444,6.2176342 8.0526356,6.8622254 L 7.9572706,7.6101444 L 8.4340956,8.4007995 C 8.8983003,9.174444 8.9126187,9.1886958 9.1374111,9.1166611 L 9.3639005,9.0418708 L 9.1135685,8.5824358 L 8.8513166,8.1123136 L 9.4235042,8.5824358 C 10.100042,9.1380806 10.337228,9.254703 11.378482,9.4906192 C 12.148601,9.6651077 12.177022,9.671504 12.451337,10.03553 C 12.605564,10.240191 12.725508,10.437981 12.725508,10.462911 C 12.725513,10.487842 12.396779,10.860534 11.986431,11.296305 L 11.235434,12.086961 L 11.616894,12.407495 C 11.826632,12.582464 12.21813,12.901402 12.487097,13.112674 L 12.975842,13.497317 L 13.154651,14.726037 C 13.253677,15.402569 13.375972,16.105873 13.428824,16.296663 C 13.529911,16.661536 14.071957,17.895803 14.525518,18.796842 L 14.799693,19.331066 L 14.978502,19.170798 C 15.114879,19.048566 15.189322,18.816626 15.276518,18.25193 C 15.340009,17.840766 15.473124,17.227441 15.574532,16.884312 L 15.75334,16.264609 L 17.243415,14.918356 L 18.721569,13.57211 L 18.781171,12.567763 L 18.840775,11.552733 L 18.232825,11.157405 L 17.624875,10.762077 L 15.622213,10.559073 C 13.712963,10.364197 13.610974,10.342547 13.261936,10.121006 C 12.912161,9.8989865 12.904315,9.8768625 12.904319,9.4906192 C 12.904323,9.1415951 12.859508,9.0378117 12.594381,8.7533871 L 12.284448,8.4221664 L 12.677826,8.0802607 C 13.045077,7.751106 13.071642,7.7422021 13.297697,7.8345178 C 13.509528,7.9210263 13.550636,7.9126705 13.679157,7.7704138 C 13.799312,7.6374151 13.922314,7.6101444 14.394393,7.6101444 C 14.772585,7.6101444 14.978399,7.6423118 15.002345,7.7063063 C 15.022141,7.7591907 15.082114,7.9431951 15.133468,8.1230009 C 15.220411,8.4274273 15.24212,8.4542211 15.514928,8.4542211 L 15.812943,8.4542211 L 15.681815,8.0909476 C 15.613788,7.8899805 15.563113,7.6977494 15.562611,7.6635657 C 15.5621,7.6293826 15.924783,7.4440999 16.373212,7.2575535 C 16.821643,7.0710102 17.195733,6.8975528 17.195733,6.8729124 C 17.195736,6.8482737 17.133526,6.7359425 17.064606,6.6164839 C 16.912694,6.3531642 16.962307,6.295947 17.3507,6.295947 C 17.645496,6.295947 17.64802,6.2991618 17.493747,6.1463644 C 17.341058,5.9951322 17.338268,5.9852413 17.577192,5.7617213 L 17.827525,5.5266596 L 17.660635,5.2381797 C 17.56991,5.0794696 17.470308,4.8287769 17.446063,4.6719014 L 17.410303,4.3834165 L 16.802354,4.7253222 C 16.47194,4.9162546 16.159553,5.1667907 16.099038,5.2702334 C 15.987404,5.4610718 15.839019,5.4927034 15.491089,5.4091309 C 15.342462,5.3734298 15.300362,5.3078877 15.300358,5.120651 C 15.300362,4.9238455 15.405836,4.7768442 15.848705,4.3834165 L 16.397054,3.9026135 L 16.206322,3.4645472 L 16.027516,3.0264827 L 15.12155,2.9730596 L 14.227503,2.9196364 L 13.738759,3.3577047 L 13.250014,3.7850841 L 12.653987,3.6889242 L 12.057954,3.592763 L 12.618225,2.5349933 L 13.178492,1.4772257 C 13.178492,1.4772257 13.372218,1.2199915 13.154651,1.0284768 z "
           id="path1341"
           sodipodi:nodetypes="csssssccccccccsssccccccscccscccccccccsscccssssscccssssssccccccsssccccccccccccc" />
      </g>
      <g
         inkscape:label="earth-light"
         id="g2367">
        <path
           style="fill:url(#radialGradient2392);fill-opacity:1"
           d="M 13.161506,1.0284768 C 9.0220203,0.78057773 6.7334832,2.1888505 5.1009896,3.7871966 C 4.7265482,4.1538059 5.4942997,4.3738422 5.7629875,4.329129 C 5.9364543,4.300266 5.8767276,4.4341649 6.0296774,4.3299948 C 6.4197396,4.0643253 6.7435741,4.1325914 7.3631729,4.6291614 C 7.8177368,4.9934627 7.868915,5.0760912 8.0061088,5.5693997 C 8.1347961,6.0321327 8.1443545,6.2176342 8.0656407,6.8622254 L 7.9703907,7.6101444 L 8.4466409,8.4007995 C 8.910286,9.174444 8.9245871,9.1886958 9.1491085,9.1166611 L 9.3753249,9.0418708 L 9.1252947,8.5824358 L 8.8633589,8.1123136 L 9.4348567,8.5824358 C 10.110579,9.1380806 10.347479,9.254703 11.387478,9.4906192 C 12.156668,9.6651077 12.185055,9.671504 12.459039,10.03553 C 12.613081,10.240191 12.73288,10.437981 12.73288,10.462911 C 12.732885,10.487842 12.404547,10.860534 11.994694,11.296305 L 11.244602,12.086961 L 11.625602,12.407495 C 11.835088,12.582464 12.226114,12.901402 12.494756,13.112674 L 12.982912,13.497317 L 13.161506,14.726037 C 13.260412,15.402569 13.38256,16.105873 13.435348,16.296663 C 13.536313,16.661536 14.077706,17.895803 14.53072,18.796842 L 14.804565,19.331066 L 14.983158,19.170798 C 15.119371,19.048566 15.193724,18.816626 15.280815,18.25193 C 15.344229,17.840766 15.477184,17.227441 15.578469,16.884312 L 15.757062,16.264609 L 17.245341,14.918356 L 18.721713,13.57211 L 18.781243,12.567763 L 18.840775,11.552733 L 18.233558,11.157405 L 17.626341,10.762077 L 15.626093,10.559073 C 13.719145,10.364197 13.617279,10.342547 13.268661,10.121006 C 12.919308,9.8989865 12.911471,9.8768625 12.911475,9.4906192 C 12.911479,9.1415951 12.866718,9.0378117 12.601911,8.7533871 L 12.292352,8.4221664 L 12.685255,8.0802607 C 13.052064,7.751106 13.078597,7.7422021 13.304379,7.8345178 C 13.515955,7.9210263 13.557013,7.9126705 13.685379,7.7704138 C 13.805389,7.6374151 13.928243,7.6101444 14.399753,7.6101444 C 14.777489,7.6101444 14.983055,7.6423118 15.006972,7.7063063 C 15.026744,7.7591907 15.086645,7.9431951 15.137937,8.1230009 C 15.224775,8.4274273 15.246458,8.4542211 15.518937,8.4542211 L 15.816593,8.4542211 L 15.685623,8.0909476 C 15.617678,7.8899805 15.567064,7.6977494 15.566563,7.6635657 C 15.566052,7.6293826 15.928298,7.4440999 16.376187,7.2575535 C 16.824077,7.0710102 17.197716,6.8975528 17.197716,6.8729124 C 17.197719,6.8482737 17.135584,6.7359425 17.066747,6.6164839 C 16.915018,6.3531642 16.964571,6.295947 17.352496,6.295947 C 17.646937,6.295947 17.649458,6.2991618 17.495371,6.1463644 C 17.342866,5.9951322 17.340079,5.9852413 17.578715,5.7617213 L 17.828746,5.5266596 L 17.662058,5.2381797 C 17.571442,5.0794696 17.47196,4.8287769 17.447744,4.6719014 L 17.412027,4.3834165 L 16.804811,4.7253222 C 16.474796,4.9162546 16.162785,5.1667907 16.102343,5.2702334 C 15.990844,5.4610718 15.842638,5.4927034 15.495127,5.4091309 C 15.346679,5.3734298 15.30463,5.3078877 15.304626,5.120651 C 15.30463,4.9238455 15.409977,4.7768442 15.852312,4.3834165 L 16.4,3.9026135 L 16.209498,3.4645472 L 16.030907,3.0264827 L 15.126034,2.9730596 L 14.233064,2.9196364 L 13.744909,3.3577047 L 13.256754,3.7850841 L 12.661445,3.6889242 L 12.066131,3.592763 L 12.625726,2.5349933 L 13.185318,1.4772257 C 13.185318,1.4772257 13.37881,1.2199915 13.161506,1.0284768 z "
           id="path2217"
           sodipodi:nodetypes="csssssccccccccsssccccccscccscccccccccsscccssssscccssssssccccccsssccccccccccccc" />
      </g>
      <g
         inkscape:label="lights"
         id="g2370"
         transform="matrix(1.0175447,0,0,1.0175447,-0.2017646,-0.1827342)">
        <path
           id="path3164"
           d="M 20.675022,10.499996 C 20.675022,15.564591 16.564608,19.674987 11.499997,19.674987 C 6.4353821,19.674987 2.3249714,15.564591 2.3249714,10.499996 C 2.3249714,5.4354001 6.4353821,1.3250039 11.499997,1.3250039 C 16.564608,1.3250039 20.675022,5.4354001 20.675022,10.499996 z "
           style="opacity:0.85714285;fill:url(#radialGradient2394);fill-opacity:1;stroke:url(#linearGradient2396);stroke-width:0.65173626;stroke-linecap:round;stroke-linejoin:round;stroke-miterlimit:4;stroke-dashoffset:0;stroke-opacity:1" />
        <path
           sodipodi:nodetypes="cszsc"
           id="path3154"
           d="M 20,7.7218176 C 20,11.033818 16.192,13 11.5,13 C 6.8080002,13 3,11.033818 3,7.7218176 C 3,4.4098175 6.8080002,1 11.5,1 C 16.192,1 20,4.4098175 20,7.7218176 z "
           style="fill:url(#radialGradient2398);fill-opacity:1;stroke:none;stroke-width:1;stroke-linecap:round;stroke-linejoin:round;stroke-miterlimit:4;stroke-dashoffset:0;stroke-opacity:1" />
      </g>
    </g>
  </g>
</svg>
