<?xml version="1.0" encoding="UTF-8" standalone="no"?>
<!-- Created with Inkscape (http://www.inkscape.org/) -->
<svg
   xmlns:dc="http://purl.org/dc/elements/1.1/"
   xmlns:cc="http://web.resource.org/cc/"
   xmlns:rdf="http://www.w3.org/1999/02/22-rdf-syntax-ns#"
   xmlns:svg="http://www.w3.org/2000/svg"
   xmlns="http://www.w3.org/2000/svg"
   xmlns:xlink="http://www.w3.org/1999/xlink"
   xmlns:sodipodi="http://inkscape.sourceforge.net/DTD/sodipodi-0.dtd"
   xmlns:inkscape="http://www.inkscape.org/namespaces/inkscape"
   width="48"
   height="48"
   id="svg2"
   sodipodi:version="0.32"
   inkscape:version="0.43"
   version="1.0"
   sodipodi:docbase="/home/silvestre/Desktop/Gion/scalable/apps"
   sodipodi:docname="internet-web-browser.svg"
   inkscape:export-filename="/home/silvestre/Gion/PNGs/internet-web-browser.png"
   inkscape:export-xdpi="90"
   inkscape:export-ydpi="90">
  <defs
     id="defs4">
    <linearGradient
       id="linearGradient2219">
      <stop
         id="stop2229"
         offset="0"
         style="stop-color:#000000;stop-opacity:0;" />
      <stop
         id="stop2227"
         offset="0.54545456"
         style="stop-color:#000000;stop-opacity:0.16078431;" />
      <stop
         style="stop-color:#000000;stop-opacity:0.4040404;"
         offset="1"
         id="stop2223" />
    </linearGradient>
    <linearGradient
       inkscape:collect="always"
       id="linearGradient4930">
      <stop
         style="stop-color:#000000;stop-opacity:1;"
         offset="0"
         id="stop4932" />
      <stop
         style="stop-color:#000000;stop-opacity:0;"
         offset="1"
         id="stop4934" />
    </linearGradient>
    <linearGradient
       inkscape:collect="always"
       id="linearGradient4047">
      <stop
         style="stop-color:#ffffff;stop-opacity:0.92156863"
         offset="0"
         id="stop4049" />
      <stop
         style="stop-color:#ffffff;stop-opacity:0.16078432"
         offset="1"
         id="stop4051" />
    </linearGradient>
    <linearGradient
       inkscape:collect="always"
       id="linearGradient3166">
      <stop
         style="stop-color:#ffffff;stop-opacity:0.65665233"
         offset="0"
         id="stop3168" />
      <stop
         style="stop-color:#ffffff;stop-opacity:0;"
         offset="1"
         id="stop3170" />
    </linearGradient>
    <linearGradient
       inkscape:collect="always"
       id="linearGradient3156">
      <stop
         style="stop-color:#ffffff;stop-opacity:1;"
         offset="0"
         id="stop3158" />
      <stop
         style="stop-color:#ffffff;stop-opacity:0;"
         offset="1"
         id="stop3160" />
    </linearGradient>
    <linearGradient
       id="linearGradient2183">
      <stop
         style="stop-color:#d2e7f4;stop-opacity:1;"
         offset="0"
         id="stop2185" />
      <stop
         id="stop2191"
         offset="0"
         style="stop-color:#79b6de;stop-opacity:1;" />
      <stop
         style="stop-color:#3a8cc2;stop-opacity:1;"
         offset="0.75"
         id="stop2193" />
      <stop
         id="stop2195"
         offset="0.85227275"
         style="stop-color:#327fb0;stop-opacity:1;" />
      <stop
         style="stop-color:#216089;stop-opacity:1;"
         offset="1"
         id="stop2187" />
    </linearGradient>
    <radialGradient
       inkscape:collect="always"
       xlink:href="#linearGradient2183"
       id="radialGradient2189"
       cx="21.449108"
       cy="19.917389"
       fx="21.449108"
       fy="19.917389"
       r="22.463523"
       gradientUnits="userSpaceOnUse"
       gradientTransform="matrix(1.045495,-6.636715e-32,-3.632232e-32,1.044979,-1.27313,-1.354386)" />
    <radialGradient
       inkscape:collect="always"
       xlink:href="#linearGradient4930"
       id="radialGradient4936"
       cx="23.6875"
       cy="41.5"
       fx="23.6875"
       fy="47.352863"
       r="21.9375"
       gradientTransform="matrix(1,0,0,0.250712,0,31.09544)"
       gradientUnits="userSpaceOnUse" />
    <radialGradient
       inkscape:collect="always"
       xlink:href="#linearGradient2219"
       id="radialGradient2239"
       gradientUnits="userSpaceOnUse"
       gradientTransform="matrix(1.333871,-4.978853e-23,-2.22274e-22,1.54762,-7.26171,-10.92112)"
       cx="21.75"
       cy="16.740391"
       fx="21.75"
       fy="16.740391"
       r="15" />
    <radialGradient
       inkscape:collect="always"
       xlink:href="#linearGradient3166"
       id="radialGradient2244"
       gradientUnits="userSpaceOnUse"
       gradientTransform="matrix(0.611646,6.322461e-3,-3.975138e-3,0.384933,10.78215,21.84289)"
       cx="21.857351"
       cy="38.774254"
       fx="21.902714"
       fy="45.754158"
       r="21.021248" />
    <linearGradient
       inkscape:collect="always"
       xlink:href="#linearGradient4047"
       id="linearGradient2246"
       gradientUnits="userSpaceOnUse"
       x1="24"
       y1="-1.4128544e-07"
       x2="24"
       y2="33.061165" />
    <radialGradient
       inkscape:collect="always"
       xlink:href="#linearGradient3156"
       id="radialGradient2217"
       cx="25.75"
       cy="13.969933"
       fx="25.75"
       fy="7.2080207"
       r="14"
       gradientTransform="matrix(1,0,0,0.571429,4.007428e-15,6.642857)"
       gradientUnits="userSpaceOnUse" />
  </defs>
  <sodipodi:namedview
     id="base"
     pagecolor="#ffffff"
     bordercolor="#666666"
     borderopacity="1.0"
     inkscape:pageopacity="0.0"
     inkscape:pageshadow="2"
     inkscape:zoom="1"
     inkscape:cx="24"
     inkscape:cy="24"
     inkscape:document-units="px"
     inkscape:current-layer="layer2"
     showgrid="false"
     inkscape:grid-bbox="false"
     showguides="true"
     inkscape:guide-bbox="true"
     inkscape:window-width="889"
     inkscape:window-height="582"
     inkscape:window-x="12"
     inkscape:window-y="67"
     showborder="false"
     inkscape:showpageshadow="false" />
  <metadata
     id="metadata7">
    <rdf:RDF>
      <cc:Work
         rdf:about="">
        <dc:format>image/svg+xml</dc:format>
        <dc:type
           rdf:resource="http://purl.org/dc/dcmitype/StillImage" />
        <dc:title>Web Browser</dc:title>
        <dc:creator>
          <cc:Agent>
            <dc:title>Silvestre Herrera</dc:title>
          </cc:Agent>
        </dc:creator>
        <cc:license
           rdf:resource="http://creativecommons.org/licenses/GPL/2.0/" />
        <dc:subject>
          <rdf:Bag>
            <rdf:li>Web</rdf:li>
          </rdf:Bag>
        </dc:subject>
      </cc:Work>
      <cc:License
         rdf:about="http://creativecommons.org/licenses/GPL/2.0/">
        <cc:permits
           rdf:resource="http://web.resource.org/cc/Reproduction" />
        <cc:permits
           rdf:resource="http://web.resource.org/cc/Distribution" />
        <cc:requires
           rdf:resource="http://web.resource.org/cc/Notice" />
        <cc:permits
           rdf:resource="http://web.resource.org/cc/DerivativeWorks" />
        <cc:requires
           rdf:resource="http://web.resource.org/cc/ShareAlike" />
        <cc:requires
           rdf:resource="http://web.resource.org/cc/SourceCode" />
      </cc:License>
    </rdf:RDF>
  </metadata>
  <g
     inkscape:label="water"
     inkscape:groupmode="layer"
     id="layer1">
    <path
       sodipodi:type="arc"
       style="opacity:0.38095236;fill:url(#radialGradient4936);fill-opacity:1;stroke:none;stroke-width:1;stroke-linecap:round;stroke-linejoin:round;stroke-miterlimit:4;stroke-dasharray:none;stroke-dashoffset:0;stroke-opacity:0.16078431"
       id="path4055"
       sodipodi:cx="23.6875"
       sodipodi:cy="41.5"
       sodipodi:rx="21.9375"
       sodipodi:ry="5.5"
       d="M 45.625 41.5 A 21.9375 5.5 0 1 1  1.75,41.5 A 21.9375 5.5 0 1 1  45.625 41.5 z"
       transform="matrix(1.045584,0,0,1.090909,-0.704772,-3.272727)" />
    <path
       style="fill:url(#radialGradient2189);fill-opacity:1;stroke:#486a7f;stroke-width:0.99999994;stroke-linecap:round;stroke-linejoin:round;stroke-miterlimit:4;stroke-dashoffset:0;stroke-opacity:1"
       d="M 45.52176,22.988883 C 45.52176,34.863021 35.880016,44.5 24.000011,44.5 C 12.120005,44.5 2.478261,34.863021 2.478261,22.988883 C 2.478261,11.114747 12.120005,1.4777665 24.000011,1.4777665 C 35.880016,1.4777665 45.52176,11.114747 45.52176,22.988883 z "
       id="path1307" />
    <g
       id="g2224"
       transform="translate(3.535534,-29.52171)">
      <path
         id="text1341"
         d="M -4.7617188,80.167969 L -3.3203125,80.167969 L -2.3125,84.40625 L -1.3125,80.167969 L 0.13671875,80.167969 L 1.1367188,84.40625 L 2.1445312,80.167969 L 3.5742188,80.167969 L 2.1992188,86 L 0.46484375,86 L -0.59375,81.566406 L -1.640625,86 L -3.375,86 L -4.7617188,80.167969 M 8.8671875,83.800781 L 8.8671875,84.199219 L 5.5976562,84.199219 C 5.6315086,84.527345 5.7499981,84.773439 5.953125,84.9375 C 6.1562477,85.101563 6.4401016,85.183595 6.8046875,85.183594 C 7.0989551,85.183595 7.399736,85.140626 7.7070312,85.054688 C 8.0169229,84.966147 8.3346309,84.833335 8.6601562,84.65625 L 8.6601562,85.734375 C 8.3294226,85.859375 7.9986937,85.953125 7.6679688,86.015625 C 7.3372361,86.080729 7.0065072,86.113281 6.6757812,86.113281 C 5.8841125,86.113281 5.2682277,85.912761 4.828125,85.511719 C 4.3906244,85.108074 4.1718747,84.54297 4.171875,83.816406 C 4.1718747,83.102867 4.3867182,82.54167 4.8164062,82.132812 C 5.2486965,81.723963 5.8424459,81.519536 6.5976562,81.519531 C 7.2851528,81.519536 7.8346314,81.726567 8.2460938,82.140625 C 8.6601514,82.554691 8.8671825,83.108076 8.8671875,83.800781 M 7.4296875,83.335938 C 7.4296839,83.070315 7.351559,82.856774 7.1953125,82.695312 C 7.0416635,82.531253 6.8398407,82.449222 6.5898438,82.449219 C 6.3190079,82.449222 6.0989561,82.526045 5.9296875,82.679688 C 5.7604147,82.830732 5.6549461,83.049482 5.6132812,83.335938 L 7.4296875,83.335938 M 12.265625,85.097656 C 12.565101,85.097657 12.792965,84.988282 12.949219,84.769531 C 13.108069,84.550783 13.187496,84.233075 13.1875,83.816406 C 13.187496,83.399742 13.108069,83.082034 12.949219,82.863281 C 12.792965,82.644535 12.565101,82.53516 12.265625,82.535156 C 11.966143,82.53516 11.735675,82.645837 11.574219,82.867188 C 11.415362,83.08594 11.335935,83.402346 11.335938,83.816406 C 11.335935,84.230471 11.415362,84.548179 11.574219,84.769531 C 11.735675,84.988282 11.966143,85.097657 12.265625,85.097656 M 11.335938,82.265625 C 11.528644,82.010421 11.742185,81.822921 11.976562,81.703125 C 12.210935,81.580734 12.480466,81.519536 12.785156,81.519531 C 13.324215,81.519536 13.766923,81.734379 14.113281,82.164062 C 14.45963,82.591149 14.632807,83.14193 14.632812,83.816406 C 14.632807,84.490887 14.45963,85.04297 14.113281,85.472656 C 13.766923,85.89974 13.324215,86.113281 12.785156,86.113281 C 12.480466,86.113281 12.210935,86.053385 11.976562,85.933594 C 11.742185,85.811198 11.528644,85.622396 11.335938,85.367188 L 11.335938,86 L 9.9375,86 L 9.9375,79.921875 L 11.335938,79.921875 L 11.335938,82.265625 M 20.851562,82.425781 C 21.088538,82.425785 21.268226,82.373702 21.390625,82.269531 C 21.513017,82.165368 21.574215,82.011723 21.574219,81.808594 C 21.574215,81.608077 21.513017,81.455734 21.390625,81.351562 C 21.268226,81.244796 21.088538,81.191411 20.851562,81.191406 L 20.019531,81.191406 L 20.019531,82.425781 L 20.851562,82.425781 M 20.902344,84.976562 C 21.204424,84.976564 21.430986,84.912762 21.582031,84.785156 C 21.735673,84.657553 21.812496,84.464845 21.8125,84.207031 C 21.812496,83.954429 21.736975,83.765627 21.585938,83.640625 C 21.434892,83.513023 21.207028,83.449221 20.902344,83.449219 L 20.019531,83.449219 L 20.019531,84.976562 L 20.902344,84.976562 M 22.300781,82.878906 C 22.623693,82.972659 22.873693,83.145836 23.050781,83.398438 C 23.227859,83.651044 23.316401,83.96094 23.316406,84.328125 C 23.316401,84.890626 23.126297,85.309897 22.746094,85.585938 C 22.365881,85.861979 21.787756,86 21.011719,86 L 18.515625,86 L 18.515625,80.167969 L 20.773438,80.167969 C 21.58333,80.167975 22.169266,80.29037 22.53125,80.535156 C 22.895828,80.779953 23.07812,81.17188 23.078125,81.710938 C 23.07812,81.994796 23.011714,82.236983 22.878906,82.4375 C 22.746089,82.63542 22.553381,82.782555 22.300781,82.878906 M 27.796875,82.816406 C 27.674475,82.759118 27.55208,82.717451 27.429688,82.691406 C 27.309892,82.662764 27.188799,82.648441 27.066406,82.648438 C 26.707028,82.648441 26.429685,82.764326 26.234375,82.996094 C 26.041664,83.225263 25.94531,83.55469 25.945312,83.984375 L 25.945312,86 L 24.546875,86 L 24.546875,81.625 L 25.945312,81.625 L 25.945312,82.34375 C 26.124998,82.057296 26.330727,81.848962 26.5625,81.71875 C 26.796872,81.585942 27.07682,81.519536 27.402344,81.519531 C 27.449215,81.519536 27.499996,81.52214 27.554688,81.527344 C 27.609371,81.529952 27.688798,81.537765 27.792969,81.550781 L 27.796875,82.816406 M 30.582031,82.519531 C 30.272133,82.519535 30.035154,82.631514 29.871094,82.855469 C 29.709634,83.076826 29.628904,83.397138 29.628906,83.816406 C 29.628904,84.235679 29.709634,84.557293 29.871094,84.78125 C 30.035154,85.002605 30.272133,85.113282 30.582031,85.113281 C 30.886716,85.113282 31.119788,85.002605 31.28125,84.78125 C 31.442705,84.557293 31.523434,84.235679 31.523438,83.816406 C 31.523434,83.397138 31.442705,83.076826 31.28125,82.855469 C 31.119788,82.631514 30.886716,82.519535 30.582031,82.519531 M 30.582031,81.519531 C 31.334632,81.519536 31.921871,81.722661 32.34375,82.128906 C 32.768224,82.53516 32.980464,83.097659 32.980469,83.816406 C 32.980464,84.535158 32.768224,85.097657 32.34375,85.503906 C 31.921871,85.910156 31.334632,86.113281 30.582031,86.113281 C 29.826821,86.113281 29.235676,85.910156 28.808594,85.503906 C 28.384114,85.097657 28.171875,84.535158 28.171875,83.816406 C 28.171875,83.097659 28.384114,82.53516 28.808594,82.128906 C 29.235676,81.722661 29.826821,81.519536 30.582031,81.519531 M 33.609375,81.625 L 34.96875,81.625 L 35.703125,84.640625 L 36.441406,81.625 L 37.609375,81.625 L 38.34375,84.609375 L 39.082031,81.625 L 40.441406,81.625 L 39.289062,86 L 37.761719,86 L 37.023438,82.992188 L 36.289062,86 L 34.761719,86 L 33.609375,81.625 M 44.808594,81.761719 L 44.808594,82.824219 C 44.509111,82.699222 44.220049,82.605472 43.941406,82.542969 C 43.662757,82.480472 43.399737,82.449222 43.152344,82.449219 C 42.886717,82.449222 42.6888,82.483076 42.558594,82.550781 C 42.430988,82.615889 42.367186,82.717451 42.367188,82.855469 C 42.367186,82.967451 42.415363,83.053388 42.511719,83.113281 C 42.610675,83.17318 42.786456,83.217451 43.039062,83.246094 L 43.285156,83.28125 C 44.001299,83.372398 44.483069,83.522138 44.730469,83.730469 C 44.97786,83.938804 45.101558,84.265627 45.101562,84.710938 C 45.101558,85.177084 44.929683,85.527344 44.585938,85.761719 C 44.242184,85.996094 43.729164,86.113281 43.046875,86.113281 C 42.75781,86.113281 42.458332,86.089844 42.148438,86.042969 C 41.841145,85.998698 41.524739,85.93099 41.199219,85.839844 L 41.199219,84.777344 C 41.477864,84.912762 41.76302,85.014324 42.054688,85.082031 C 42.348957,85.14974 42.647133,85.183595 42.949219,85.183594 C 43.222654,85.183595 43.428383,85.145834 43.566406,85.070312 C 43.704424,84.994793 43.773434,84.882814 43.773438,84.734375 C 43.773434,84.609376 43.725257,84.516929 43.628906,84.457031 C 43.535153,84.394533 43.346352,84.346356 43.0625,84.3125 L 42.816406,84.28125 C 42.194009,84.203127 41.757811,84.058596 41.507812,83.847656 C 41.257812,83.636721 41.132812,83.316409 41.132812,82.886719 C 41.132812,82.423181 41.291666,82.079431 41.609375,81.855469 C 41.927082,81.631515 42.414061,81.519536 43.070312,81.519531 C 43.328122,81.519536 43.598955,81.539067 43.882812,81.578125 C 44.166663,81.617192 44.475257,81.67839 44.808594,81.761719 M 50.507812,83.800781 L 50.507812,84.199219 L 47.238281,84.199219 C 47.272134,84.527345 47.390623,84.773439 47.59375,84.9375 C 47.796873,85.101563 48.080727,85.183595 48.445312,85.183594 C 48.73958,85.183595 49.040361,85.140626 49.347656,85.054688 C 49.657548,84.966147 49.975256,84.833335 50.300781,84.65625 L 50.300781,85.734375 C 49.970048,85.859375 49.639319,85.953125 49.308594,86.015625 C 48.977861,86.080729 48.647132,86.113281 48.316406,86.113281 C 47.524738,86.113281 46.908853,85.912761 46.46875,85.511719 C 46.031249,85.108074 45.8125,84.54297 45.8125,83.816406 C 45.8125,83.102867 46.027343,82.54167 46.457031,82.132812 C 46.889321,81.723963 47.483071,81.519536 48.238281,81.519531 C 48.925778,81.519536 49.475256,81.726567 49.886719,82.140625 C 50.300776,82.554691 50.507807,83.108076 50.507812,83.800781 M 49.070312,83.335938 C 49.070309,83.070315 48.992184,82.856774 48.835938,82.695312 C 48.682288,82.531253 48.480466,82.449222 48.230469,82.449219 C 47.959633,82.449222 47.739581,82.526045 47.570312,82.679688 C 47.40104,82.830732 47.295571,83.049482 47.253906,83.335938 L 49.070312,83.335938 M 54.828125,82.816406 C 54.705725,82.759118 54.58333,82.717451 54.460938,82.691406 C 54.341142,82.662764 54.220049,82.648441 54.097656,82.648438 C 53.738278,82.648441 53.460935,82.764326 53.265625,82.996094 C 53.072915,83.225263 52.97656,83.55469 52.976562,83.984375 L 52.976562,86 L 51.578125,86 L 51.578125,81.625 L 52.976562,81.625 L 52.976562,82.34375 C 53.156248,82.057296 53.361977,81.848962 53.59375,81.71875 C 53.828122,81.585942 54.10807,81.519536 54.433594,81.519531 C 54.480465,81.519536 54.531246,81.52214 54.585938,81.527344 C 54.640621,81.529952 54.720048,81.537765 54.824219,81.550781 L 54.828125,82.816406"
         style="font-size:8px;font-style:normal;font-variant:normal;font-weight:bold;font-stretch:normal;text-align:start;line-height:125%;writing-mode:lr-tb;text-anchor:start;fill:#000000;fill-opacity:1;stroke:none;stroke-width:1px;stroke-linecap:butt;stroke-linejoin:miter;stroke-opacity:1;font-family:Bitstream Vera Sans" />
      <path
         id="text1345"
         d="M -1.2401967,91.109299 C -1.2402006,90.580656 -1.3495755,90.166593 -1.5683217,89.867111 C -1.7844709,89.565032 -2.0826477,89.41399 -2.462853,89.413986 C -2.8430636,89.41399 -3.1425424,89.565032 -3.3612905,89.867111 C -3.5774378,90.166593 -3.6855107,90.580656 -3.6855092,91.109299 C -3.6855107,91.637946 -3.5774378,92.05331 -3.3612905,92.355392 C -3.1425424,92.654872 -2.8430636,92.804612 -2.462853,92.804611 C -2.0826477,92.804612 -1.7844709,92.654872 -1.5683217,92.355392 C -1.3495755,92.05331 -1.2402006,91.637946 -1.2401967,91.109299 M -3.6855092,89.581955 C -3.5344691,89.321542 -3.3443652,89.128834 -3.1151967,89.00383 C -2.8834281,88.87623 -2.6073867,88.812428 -2.2870717,88.812424 C -1.7558251,88.812428 -1.3248359,89.023365 -0.99410295,89.445236 C -0.6607741,89.867115 -0.4941076,90.421802 -0.49410295,91.109299 C -0.4941076,91.7968 -0.6607741,92.351487 -0.99410295,92.773361 C -1.3248359,93.195236 -1.7558251,93.406174 -2.2870717,93.406174 C -2.6073867,93.406174 -2.8834281,93.343674 -3.1151967,93.218674 C -3.3443652,93.09107 -3.5344691,92.89706 -3.6855092,92.636642 L -3.6855092,93.292892 L -4.4081655,93.292892 L -4.4081655,87.214767 L -3.6855092,87.214767 L -3.6855092,89.581955 M 2.5176158,93.699142 C 2.3144884,94.219975 2.116572,94.559818 1.9238658,94.718674 C 1.7311557,94.877526 1.4733434,94.956953 1.1504283,94.956955 L 0.57620955,94.956955 L 0.57620955,94.355392 L 0.99808455,94.355392 C 1.196,94.355391 1.3496456,94.308516 1.459022,94.214767 C 1.5683954,94.121017 1.689489,93.899663 1.8223033,93.550705 L 1.9512095,93.22258 L 0.1816783,88.917892 L 0.94339705,88.917892 L 2.3105845,92.339767 L 3.677772,88.917892 L 4.4394908,88.917892 L 2.5176158,93.699142 M 11.505897,87.652267 L 11.505897,88.421799 C 11.206414,88.278575 10.923862,88.171804 10.658241,88.101486 C 10.392613,88.031179 10.136102,87.996023 9.8887095,87.996017 C 9.4590198,87.996023 9.1269889,88.079356 8.8926158,88.246017 C 8.6608435,88.412689 8.5449582,88.649668 8.5449595,88.956955 C 8.5449582,89.214772 8.6217811,89.410084 8.7754283,89.542892 C 8.9316766,89.673104 9.2259471,89.778573 9.6582408,89.859299 L 10.134803,89.956955 C 10.723341,90.068937 11.156935,90.266854 11.435585,90.550705 C 11.71683,90.831957 11.857455,91.209561 11.85746,91.683517 C 11.857455,92.248623 11.667351,92.677008 11.287147,92.968674 C 10.909539,93.26034 10.354852,93.406174 9.6230845,93.406174 C 9.3470408,93.406174 9.0527702,93.374924 8.740272,93.312424 C 8.430375,93.249924 8.1087607,93.157476 7.7754283,93.03508 L 7.7754283,92.22258 C 8.0957399,92.402268 8.4095417,92.537685 8.7168345,92.62883 C 9.0241244,92.719976 9.3262074,92.765549 9.6230845,92.765549 C 10.073603,92.765549 10.421258,92.677008 10.666053,92.499924 C 10.910841,92.322841 11.033237,92.070237 11.033241,91.742111 C 11.033237,91.455655 10.944695,91.231697 10.767616,91.070236 C 10.593133,90.90878 10.305373,90.787687 9.9043345,90.706955 L 9.4238658,90.613205 C 8.8353225,90.49602 8.4095417,90.312427 8.146522,90.062424 C 7.8835006,89.812427 7.7519903,89.464771 7.7519908,89.019455 C 7.7519903,88.503835 7.9329797,88.097585 8.2949595,87.800705 C 8.6595414,87.503836 9.160843,87.355398 9.7988658,87.355392 C 10.0723,87.355398 10.350946,87.380138 10.634803,87.429611 C 10.918654,87.479096 11.209018,87.553315 11.505897,87.652267 M 13.072303,88.917892 L 13.791053,88.917892 L 13.791053,93.292892 L 13.072303,93.292892 L 13.072303,88.917892 M 13.072303,87.214767 L 13.791053,87.214767 L 13.791053,88.124924 L 13.072303,88.124924 L 13.072303,87.214767 M 15.291053,87.214767 L 16.009803,87.214767 L 16.009803,93.292892 L 15.291053,93.292892 L 15.291053,87.214767 M 16.994178,88.917892 L 17.755897,88.917892 L 19.123085,92.589767 L 20.490272,88.917892 L 21.251991,88.917892 L 19.611366,93.292892 L 18.634803,93.292892 L 16.994178,88.917892 M 25.986366,90.925705 L 25.986366,91.277267 L 22.681678,91.277267 C 22.712927,91.772061 22.861364,92.149664 23.126991,92.41008 C 23.395218,92.667893 23.767614,92.796799 24.244178,92.796799 C 24.520217,92.796799 24.787144,92.762945 25.04496,92.695236 C 25.305372,92.627529 25.563185,92.525966 25.818397,92.390549 L 25.818397,93.070236 C 25.56058,93.179611 25.296258,93.262945 25.025428,93.320236 C 24.754592,93.377528 24.479852,93.406174 24.20121,93.406174 C 23.503291,93.406174 22.949906,93.203049 22.541053,92.796799 C 22.134803,92.39055 21.931678,91.841071 21.931678,91.148361 C 21.931678,90.432218 22.124386,89.86451 22.509803,89.445236 C 22.897823,89.023365 23.419958,88.812428 24.07621,88.812424 C 24.664748,88.812428 25.129591,89.002532 25.470741,89.382736 C 25.814486,89.760344 25.986361,90.274666 25.986366,90.925705 M 25.267616,90.714767 C 25.262404,90.321541 25.151727,90.007739 24.935585,89.773361 C 24.72204,89.53899 24.438186,89.421803 24.084022,89.421799 C 23.682978,89.421803 23.361364,89.535084 23.119178,89.761642 C 22.879594,89.988208 22.741573,90.307218 22.705116,90.718674 L 25.267616,90.714767 M 29.939491,89.046799 L 29.939491,89.726486 C 29.736362,89.622323 29.525425,89.544198 29.306678,89.492111 C 29.087926,89.440032 28.861363,89.41399 28.626991,89.413986 C 28.270218,89.41399 28.001989,89.468678 27.822303,89.578049 C 27.645219,89.687427 27.556677,89.85149 27.556678,90.070236 C 27.556677,90.236906 27.620479,90.368416 27.748085,90.464767 C 27.875687,90.55852 28.132197,90.648364 28.517616,90.734299 L 28.76371,90.788986 C 29.274123,90.898364 29.636102,91.053311 29.849647,91.25383 C 30.065789,91.451748 30.173862,91.729092 30.173866,92.085861 C 30.173862,92.492112 30.012404,92.813726 29.689491,93.050705 C 29.369175,93.287684 28.92777,93.406174 28.365272,93.406174 C 28.130895,93.406174 27.886104,93.382736 27.630897,93.335861 C 27.378292,93.29159 27.111365,93.223882 26.830116,93.132736 L 26.830116,92.390549 C 27.09574,92.52857 27.357459,92.632737 27.615272,92.703049 C 27.873083,92.770758 28.128291,92.804612 28.380897,92.804611 C 28.719436,92.804612 28.979853,92.74732 29.162147,92.632736 C 29.344436,92.515549 29.435582,92.351487 29.435585,92.140549 C 29.435582,91.945238 29.369175,91.795498 29.236366,91.69133 C 29.106155,91.587165 28.818395,91.486905 28.373085,91.390549 L 28.123085,91.331955 C 27.677771,91.238207 27.356157,91.094978 27.158241,90.902267 C 26.960324,90.706958 26.861365,90.440031 26.861366,90.101486 C 26.861365,89.690031 27.007199,89.372323 27.298866,89.148361 C 27.590531,88.924407 28.004593,88.812428 28.541053,88.812424 C 28.806676,88.812428 29.056676,88.831959 29.291053,88.871017 C 29.525425,88.910084 29.741571,88.968678 29.939491,89.046799 M 32.017616,87.675705 L 32.017616,88.917892 L 33.498085,88.917892 L 33.498085,89.476486 L 32.017616,89.476486 L 32.017616,91.851486 C 32.017614,92.208258 32.065791,92.437425 32.162147,92.538986 C 32.261104,92.640549 32.460322,92.691331 32.759803,92.69133 L 33.498085,92.69133 L 33.498085,93.292892 L 32.759803,93.292892 C 32.205114,93.292892 31.822302,93.190028 31.611366,92.984299 C 31.400427,92.775966 31.294959,92.398362 31.29496,91.851486 L 31.29496,89.476486 L 30.767616,89.476486 L 30.767616,88.917892 L 31.29496,88.917892 L 31.29496,87.675705 L 32.017616,87.675705 M 36.98246,89.589767 C 36.901727,89.542896 36.813186,89.509042 36.716835,89.488205 C 36.623082,89.464771 36.518915,89.453053 36.404335,89.453049 C 35.998082,89.453053 35.685583,89.585865 35.466835,89.851486 C 35.250687,90.11451 35.142614,90.493416 35.142616,90.988205 L 35.142616,93.292892 L 34.41996,93.292892 L 34.41996,88.917892 L 35.142616,88.917892 L 35.142616,89.59758 C 35.293656,89.331959 35.49027,89.135345 35.73246,89.007736 C 35.974645,88.877532 36.268915,88.812428 36.615272,88.812424 C 36.664748,88.812428 36.719436,88.816334 36.779335,88.824142 C 36.839227,88.829355 36.905633,88.83847 36.978553,88.851486 L 36.98246,89.589767 M 41.470741,90.925705 L 41.470741,91.277267 L 38.166053,91.277267 C 38.197302,91.772061 38.345739,92.149664 38.611366,92.41008 C 38.879593,92.667893 39.251989,92.796799 39.728553,92.796799 C 40.004592,92.796799 40.271519,92.762945 40.529335,92.695236 C 40.789747,92.627529 41.04756,92.525966 41.302772,92.390549 L 41.302772,93.070236 C 41.044955,93.179611 40.780633,93.262945 40.509803,93.320236 C 40.238967,93.377528 39.964227,93.406174 39.685585,93.406174 C 38.987666,93.406174 38.434281,93.203049 38.025428,92.796799 C 37.619178,92.39055 37.416053,91.841071 37.416053,91.148361 C 37.416053,90.432218 37.608761,89.86451 37.994178,89.445236 C 38.382198,89.023365 38.904333,88.812428 39.560585,88.812424 C 40.149123,88.812428 40.613966,89.002532 40.955116,89.382736 C 41.298861,89.760344 41.470736,90.274666 41.470741,90.925705 M 40.751991,90.714767 C 40.746779,90.321541 40.636102,90.007739 40.41996,89.773361 C 40.206415,89.53899 39.922561,89.421803 39.568397,89.421799 C 39.167353,89.421803 38.845739,89.535084 38.603553,89.761642 C 38.363969,89.988208 38.225948,90.307218 38.189491,90.718674 L 40.751991,90.714767 M 45.212928,87.460861 L 46.001991,87.460861 L 46.001991,89.851486 L 48.869178,89.851486 L 48.869178,87.460861 L 49.658241,87.460861 L 49.658241,93.292892 L 48.869178,93.292892 L 48.869178,90.515549 L 46.001991,90.515549 L 46.001991,93.292892 L 45.212928,93.292892 L 45.212928,87.460861 M 54.939491,90.925705 L 54.939491,91.277267 L 51.634803,91.277267 C 51.666052,91.772061 51.814489,92.149664 52.080116,92.41008 C 52.348343,92.667893 52.720739,92.796799 53.197303,92.796799 C 53.473342,92.796799 53.740269,92.762945 53.998085,92.695236 C 54.258497,92.627529 54.51631,92.525966 54.771522,92.390549 L 54.771522,93.070236 C 54.513705,93.179611 54.249383,93.262945 53.978553,93.320236 C 53.707717,93.377528 53.432977,93.406174 53.154335,93.406174 C 52.456416,93.406174 51.903031,93.203049 51.494178,92.796799 C 51.087928,92.39055 50.884803,91.841071 50.884803,91.148361 C 50.884803,90.432218 51.077511,89.86451 51.462928,89.445236 C 51.850948,89.023365 52.373083,88.812428 53.029335,88.812424 C 53.617873,88.812428 54.082716,89.002532 54.423866,89.382736 C 54.767611,89.760344 54.939486,90.274666 54.939491,90.925705 M 54.220741,90.714767 C 54.215529,90.321541 54.104852,90.007739 53.88871,89.773361 C 53.675165,89.53899 53.391311,89.421803 53.037147,89.421799 C 52.636103,89.421803 52.314489,89.535084 52.072303,89.761642 C 51.832719,89.988208 51.694698,90.307218 51.658241,90.718674 L 54.220741,90.714767 M 58.63871,89.589767 C 58.557977,89.542896 58.469436,89.509042 58.373085,89.488205 C 58.279332,89.464771 58.175165,89.453053 58.060585,89.453049 C 57.654332,89.453053 57.341833,89.585865 57.123085,89.851486 C 56.906937,90.11451 56.798864,90.493416 56.798866,90.988205 L 56.798866,93.292892 L 56.07621,93.292892 L 56.07621,88.917892 L 56.798866,88.917892 L 56.798866,89.59758 C 56.949906,89.331959 57.14652,89.135345 57.38871,89.007736 C 57.630895,88.877532 57.925165,88.812428 58.271522,88.812424 C 58.320998,88.812428 58.375686,88.816334 58.435585,88.824142 C 58.495477,88.829355 58.561883,88.83847 58.634803,88.851486 L 58.63871,89.589767 M 61.91996,89.589767 C 61.839227,89.542896 61.750686,89.509042 61.654335,89.488205 C 61.560582,89.464771 61.456415,89.453053 61.341835,89.453049 C 60.935582,89.453053 60.623083,89.585865 60.404335,89.851486 C 60.188187,90.11451 60.080114,90.493416 60.080116,90.988205 L 60.080116,93.292892 L 59.35746,93.292892 L 59.35746,88.917892 L 60.080116,88.917892 L 60.080116,89.59758 C 60.231156,89.331959 60.42777,89.135345 60.66996,89.007736 C 60.912145,88.877532 61.206415,88.812428 61.552772,88.812424 C 61.602248,88.812428 61.656936,88.816334 61.716835,88.824142 C 61.776727,88.829355 61.843133,88.83847 61.916053,88.851486 L 61.91996,89.589767 M 66.408241,90.925705 L 66.408241,91.277267 L 63.103553,91.277267 C 63.134802,91.772061 63.283239,92.149664 63.548866,92.41008 C 63.817093,92.667893 64.189489,92.796799 64.666053,92.796799 C 64.942092,92.796799 65.209019,92.762945 65.466835,92.695236 C 65.727247,92.627529 65.98506,92.525966 66.240272,92.390549 L 66.240272,93.070236 C 65.982455,93.179611 65.718133,93.262945 65.447303,93.320236 C 65.176467,93.377528 64.901727,93.406174 64.623085,93.406174 C 63.925166,93.406174 63.371781,93.203049 62.962928,92.796799 C 62.556678,92.39055 62.353553,91.841071 62.353553,91.148361 C 62.353553,90.432218 62.546261,89.86451 62.931678,89.445236 C 63.319698,89.023365 63.841833,88.812428 64.498085,88.812424 C 65.086623,88.812428 65.551466,89.002532 65.892616,89.382736 C 66.236361,89.760344 66.408236,90.274666 66.408241,90.925705 M 65.689491,90.714767 C 65.684279,90.321541 65.573602,90.007739 65.35746,89.773361 C 65.143915,89.53899 64.860061,89.421803 64.505897,89.421799 C 64.104853,89.421803 63.783239,89.535084 63.541053,89.761642 C 63.301469,89.988208 63.163448,90.307218 63.126991,90.718674 L 65.689491,90.714767 M 70.10746,89.589767 C 70.026727,89.542896 69.938186,89.509042 69.841835,89.488205 C 69.748082,89.464771 69.643915,89.453053 69.529335,89.453049 C 69.123082,89.453053 68.810583,89.585865 68.591835,89.851486 C 68.375687,90.11451 68.267614,90.493416 68.267616,90.988205 L 68.267616,93.292892 L 67.54496,93.292892 L 67.54496,88.917892 L 68.267616,88.917892 L 68.267616,89.59758 C 68.418656,89.331959 68.61527,89.135345 68.85746,89.007736 C 69.099645,88.877532 69.393915,88.812428 69.740272,88.812424 C 69.789748,88.812428 69.844436,88.816334 69.904335,88.824142 C 69.964227,88.829355 70.030633,88.83847 70.103553,88.851486 L 70.10746,89.589767 M 72.841835,91.093674 C 72.261103,91.093676 71.85876,91.160082 71.634803,91.292892 C 71.410844,91.425707 71.298865,91.652269 71.298866,91.97258 C 71.298865,92.227789 71.382198,92.430914 71.548866,92.581955 C 71.718135,92.730393 71.947301,92.804612 72.236366,92.804611 C 72.634801,92.804612 72.953811,92.663987 73.193397,92.382736 C 73.435581,92.098883 73.556675,91.722582 73.556678,91.25383 L 73.556678,91.093674 L 72.841835,91.093674 M 74.275428,90.796799 L 74.275428,93.292892 L 73.556678,93.292892 L 73.556678,92.62883 C 73.392613,92.894455 73.188186,93.09107 72.943397,93.218674 C 72.698603,93.343674 72.399124,93.406174 72.04496,93.406174 C 71.597041,93.406174 71.240271,93.281174 70.974647,93.031174 C 70.711626,92.77857 70.580115,92.441331 70.580116,92.019455 C 70.580115,91.527269 70.744178,91.156176 71.072303,90.906174 C 71.403031,90.656176 71.895218,90.531176 72.548866,90.531174 L 73.556678,90.531174 L 73.556678,90.460861 C 73.556675,90.130135 73.4473,89.874927 73.228553,89.695236 C 73.012405,89.512948 72.707717,89.421803 72.314491,89.421799 C 72.064489,89.421803 71.820999,89.45175 71.584022,89.511642 C 71.347042,89.571542 71.119177,89.661386 70.900428,89.781174 L 70.900428,89.117111 C 71.163448,89.015553 71.418656,88.940032 71.666053,88.890549 C 71.913447,88.83847 72.154332,88.812428 72.38871,88.812424 C 73.021519,88.812428 73.494175,88.976491 73.806678,89.304611 C 74.119174,89.63274 74.275424,90.130135 74.275428,90.796799"
         style="font-size:8px;font-style:normal;font-variant:normal;font-weight:normal;font-stretch:normal;text-align:start;line-height:125%;writing-mode:lr-tb;text-anchor:start;fill:#646464;fill-opacity:1;stroke:none;stroke-width:1px;stroke-linecap:butt;stroke-linejoin:miter;stroke-opacity:1;font-family:Bitstream Vera Sans" />
    </g>
  </g>
  <g
     inkscape:groupmode="layer"
     id="layer2"
     inkscape:label="earth">
    <path
       sodipodi:nodetypes="csssssccccccccsssccccccscccscccccccccsscccssssscccssssssccccccsssccccccccccccc"
       id="path1341"
       d="M 26.690136,2.0357282 C 17.717764,1.4944363 12.75734,4.5694242 9.218896,8.0594408 C 8.407291,8.8599378 10.071399,9.3403913 10.653782,9.2427592 C 11.029773,9.1797363 10.900315,9.472107 11.231835,9.2446497 C 12.077298,8.6645557 12.779212,8.8136159 14.122198,9.8978851 C 15.107469,10.693343 15.218398,10.873764 15.515767,11.950912 C 15.794698,12.961297 15.815416,13.366343 15.644803,14.773819 L 15.438348,16.406913 L 16.470624,18.133322 C 17.475579,19.822588 17.506577,19.853707 17.993229,19.696418 L 18.483555,19.533112 L 17.941612,18.529928 L 17.373864,17.503408 L 18.612591,18.529928 C 20.077224,19.743188 20.590708,19.997835 22.844914,20.512962 C 24.512141,20.893961 24.573669,20.907927 25.167531,21.702785 C 25.501418,22.149665 25.761086,22.581544 25.761086,22.635978 C 25.761096,22.690415 25.04942,23.504194 24.161061,24.455709 L 22.535229,26.182119 L 23.36105,26.882011 C 23.815111,27.264061 24.662664,27.960466 25.24495,28.421782 L 26.30303,29.261653 L 26.690136,31.944589 C 26.904517,33.421804 27.169271,34.957484 27.283691,35.374073 C 27.502532,36.170783 28.676006,38.865825 29.657919,40.833259 L 30.251481,41.999746 L 30.638582,41.649798 C 30.933822,41.382903 31.094986,40.876456 31.283754,39.643437 C 31.421209,38.745653 31.709389,37.406447 31.928924,36.657217 L 32.316025,35.304084 L 35.541883,32.36452 L 38.741931,29.424967 L 38.870964,27.231961 L 39,25.015623 L 37.683851,24.152418 L 36.367704,23.289214 L 32.032148,22.84595 C 27.898824,22.420434 27.678027,22.373162 26.922395,21.889421 C 26.165167,21.404639 26.148183,21.356331 26.14819,20.512962 C 26.148201,19.750862 26.051181,19.524249 25.477211,18.903203 L 24.806236,18.179977 L 25.657859,17.43342 C 26.452918,16.714705 26.510429,16.695263 26.999816,16.896836 C 27.458408,17.085729 27.547399,17.067484 27.825635,16.756864 C 28.08576,16.466459 28.352044,16.406913 29.374044,16.406913 C 30.192794,16.406913 30.638357,16.477151 30.690199,16.616884 C 30.733055,16.732358 30.862891,17.134135 30.974068,17.526744 C 31.16229,18.191464 31.209287,18.249969 31.799889,18.249969 L 32.445062,18.249969 L 32.161184,17.456755 C 32.01391,17.01794 31.904205,16.5982 31.903117,16.523559 C 31.90201,16.44892 32.687182,16.044352 33.657981,15.637025 C 34.628792,15.229704 35.438655,14.850957 35.438655,14.797154 C 35.438662,14.743355 35.303988,14.498078 35.154779,14.237238 C 34.825904,13.662275 34.933313,13.53734 35.774141,13.53734 C 36.412345,13.53734 36.41781,13.54436 36.083826,13.210724 C 35.75327,12.880506 35.747232,12.858909 36.264475,12.370849 L 36.80642,11.857588 L 36.445123,11.227687 C 36.24871,10.881141 36.03308,10.333749 35.980598,9.9912088 L 35.903178,9.361297 L 34.587032,10.107854 C 33.87172,10.524758 33.195435,11.071808 33.064426,11.297677 C 32.822749,11.714376 32.501512,11.783444 31.748277,11.600962 C 31.426519,11.523008 31.335374,11.379896 31.335365,10.971061 C 31.335374,10.541333 31.563713,10.220353 32.522481,9.361297 L 33.709598,8.3114553 L 33.296685,7.3549298 L 32.909587,6.3984084 L 30.948264,6.2817582 L 29.012749,6.1651079 L 27.954667,7.1216374 L 26.896587,8.0548278 L 25.606247,7.844861 L 24.315901,7.6348913 L 25.528828,5.3252328 L 26.741748,3.0155794 C 26.741748,3.0155794 27.161146,2.4539037 26.690136,2.0357282 z "
       style="fill:#ffffff;fill-opacity:1" />
  </g>
  <g
     inkscape:groupmode="layer"
     id="layer3"
     inkscape:label="earth-light"
     sodipodi:insensitive="true">
    <path
       sodipodi:nodetypes="csssssccccccccsssccccccscccscccccccccsscccssssscccssssssccccccsssccccccccccccc"
       id="path2217"
       d="M 26.690136,2.0357282 C 17.717764,1.4944363 12.75734,4.5694242 9.218896,8.0594408 C 8.407291,8.8599378 10.071399,9.3403913 10.653782,9.2427592 C 11.029773,9.1797363 10.900315,9.472107 11.231835,9.2446497 C 12.077298,8.6645557 12.779212,8.8136159 14.122198,9.8978851 C 15.107469,10.693343 15.218398,10.873764 15.515767,11.950912 C 15.794698,12.961297 15.815416,13.366343 15.644803,14.773819 L 15.438348,16.406913 L 16.470624,18.133322 C 17.475579,19.822588 17.506577,19.853707 17.993229,19.696418 L 18.483555,19.533112 L 17.941612,18.529928 L 17.373864,17.503408 L 18.612591,18.529928 C 20.077224,19.743188 20.590708,19.997835 22.844914,20.512962 C 24.512141,20.893961 24.573669,20.907927 25.167531,21.702785 C 25.501418,22.149665 25.761086,22.581544 25.761086,22.635978 C 25.761096,22.690415 25.04942,23.504194 24.161061,24.455709 L 22.535229,26.182119 L 23.36105,26.882011 C 23.815111,27.264061 24.662664,27.960466 25.24495,28.421782 L 26.30303,29.261653 L 26.690136,31.944589 C 26.904517,33.421804 27.169271,34.957484 27.283691,35.374073 C 27.502532,36.170783 28.676006,38.865825 29.657919,40.833259 L 30.251481,41.999746 L 30.638582,41.649798 C 30.933822,41.382903 31.094986,40.876456 31.283754,39.643437 C 31.421209,38.745653 31.709389,37.406447 31.928924,36.657217 L 32.316025,35.304084 L 35.541883,32.36452 L 38.741931,29.424967 L 38.870964,27.231961 L 39,25.015623 L 37.683851,24.152418 L 36.367704,23.289214 L 32.032148,22.84595 C 27.898824,22.420434 27.678027,22.373162 26.922395,21.889421 C 26.165167,21.404639 26.148183,21.356331 26.14819,20.512962 C 26.148201,19.750862 26.051181,19.524249 25.477211,18.903203 L 24.806236,18.179977 L 25.657859,17.43342 C 26.452918,16.714705 26.510429,16.695263 26.999816,16.896836 C 27.458408,17.085729 27.547399,17.067484 27.825635,16.756864 C 28.08576,16.466459 28.352044,16.406913 29.374044,16.406913 C 30.192794,16.406913 30.638357,16.477151 30.690199,16.616884 C 30.733055,16.732358 30.862891,17.134135 30.974068,17.526744 C 31.16229,18.191464 31.209287,18.249969 31.799889,18.249969 L 32.445062,18.249969 L 32.161184,17.456755 C 32.01391,17.01794 31.904205,16.5982 31.903117,16.523559 C 31.90201,16.44892 32.687182,16.044352 33.657981,15.637025 C 34.628792,15.229704 35.438655,14.850957 35.438655,14.797154 C 35.438662,14.743355 35.303988,14.498078 35.154779,14.237238 C 34.825904,13.662275 34.933313,13.53734 35.774141,13.53734 C 36.412345,13.53734 36.41781,13.54436 36.083826,13.210724 C 35.75327,12.880506 35.747232,12.858909 36.264475,12.370849 L 36.80642,11.857588 L 36.445123,11.227687 C 36.24871,10.881141 36.03308,10.333749 35.980598,9.9912088 L 35.903178,9.361297 L 34.587032,10.107854 C 33.87172,10.524758 33.195435,11.071808 33.064426,11.297677 C 32.822749,11.714376 32.501512,11.783444 31.748277,11.600962 C 31.426519,11.523008 31.335374,11.379896 31.335365,10.971061 C 31.335374,10.541333 31.563713,10.220353 32.522481,9.361297 L 33.709598,8.3114553 L 33.296685,7.3549298 L 32.909587,6.3984084 L 30.948264,6.2817582 L 29.012749,6.1651079 L 27.954667,7.1216374 L 26.896587,8.0548278 L 25.606247,7.844861 L 24.315901,7.6348913 L 25.528828,5.3252328 L 26.741748,3.0155794 C 26.741748,3.0155794 27.161146,2.4539037 26.690136,2.0357282 z "
       style="fill:url(#radialGradient2239);fill-opacity:1" />
  </g>
  <g
     inkscape:groupmode="layer"
     id="layer4"
     inkscape:label="lights"
     sodipodi:insensitive="true">
    <path
       style="opacity:0.85714285;fill:url(#radialGradient2244);fill-opacity:1;stroke:url(#linearGradient2246);stroke-width:0.99999994;stroke-linecap:round;stroke-linejoin:round;stroke-miterlimit:4;stroke-dashoffset:0;stroke-opacity:1"
       d="M 44.506221,22.996968 C 44.506221,34.317928 35.318082,43.505952 23.996984,43.505952 C 12.675886,43.505952 3.487748,34.317928 3.487748,22.996968 C 3.487748,11.676009 12.675886,2.4879843 23.996984,2.4879843 C 35.318082,2.4879843 44.506221,11.676009 44.506221,22.996968 z "
       id="path3164" />
    <path
       transform="matrix(1.357143,0,0,1.653109,-10.94643,-10.39832)"
       style="fill:url(#radialGradient2217);fill-opacity:1;stroke:none;stroke-width:1;stroke-linecap:round;stroke-linejoin:round;stroke-miterlimit:4;stroke-dashoffset:0;stroke-opacity:1"
       d="M 39.75,16.462423 C 39.75,20.878423 33.478,23.5 25.75,23.5 C 18.022,23.5 11.75,20.878423 11.75,16.462423 C 11.75,12.046423 18.022,7.5 25.75,7.5 C 33.478,7.5 39.75,12.046423 39.75,16.462423 z "
       id="path3154"
       sodipodi:nodetypes="cszsc" />
  </g>
</svg>
