<?xml version="1.0" encoding="UTF-8" standalone="no"?>
<!-- Created with Inkscape (http://www.inkscape.org/) -->
<svg
   xmlns:dc="http://purl.org/dc/elements/1.1/"
   xmlns:cc="http://web.resource.org/cc/"
   xmlns:rdf="http://www.w3.org/1999/02/22-rdf-syntax-ns#"
   xmlns:svg="http://www.w3.org/2000/svg"
   xmlns="http://www.w3.org/2000/svg"
   xmlns:xlink="http://www.w3.org/1999/xlink"
   xmlns:sodipodi="http://sodipodi.sourceforge.net/DTD/sodipodi-0.dtd"
   xmlns:inkscape="http://www.inkscape.org/namespaces/inkscape"
   width="22"
   height="22"
   id="svg1371"
   sodipodi:version="0.32"
   inkscape:version="0.45+devel"
   sodipodi:docbase="/home/silvestre/.icons/Gion/22x22/mimetypes/SVGs"
   sodipodi:docname="x-office-spreadsheet.svg"
   inkscape:export-filename="/home/silvestre/Gion/PNGs/text-x-generic.png"
   inkscape:export-xdpi="90"
   inkscape:export-ydpi="90"
   inkscape:output_extension="org.inkscape.output.svg.inkscape"
   version="1.0"
   sodipodi:modified="true">
  <defs
     id="defs1373">
    <linearGradient
       inkscape:collect="always"
       id="linearGradient3332">
      <stop
         style="stop-color:#ffffff;stop-opacity:0.44351464"
         offset="0"
         id="stop3334" />
      <stop
         style="stop-color:#ffffff;stop-opacity:0;"
         offset="1"
         id="stop3336" />
    </linearGradient>
    <linearGradient
       inkscape:collect="always"
       id="linearGradient2258">
      <stop
         style="stop-color:#000000;stop-opacity:0"
         offset="0"
         id="stop2260" />
      <stop
         style="stop-color:#000000;stop-opacity:0.22317597"
         offset="1"
         id="stop2262" />
    </linearGradient>
    <radialGradient
       inkscape:collect="always"
       xlink:href="#linearGradient2258"
       id="radialGradient2205"
       cx="22.533945"
       cy="24.63522"
       fx="22.533945"
       fy="24.63522"
       r="17"
       gradientTransform="matrix(0.8496346,0,0,0.708146,-7.0309321,-3.7936822)"
       gradientUnits="userSpaceOnUse" />
    <radialGradient
       inkscape:collect="always"
       xlink:href="#linearGradient3332"
       id="radialGradient3338"
       cx="16.58564"
       cy="17.20435"
       fx="16.58564"
       fy="17.20435"
       r="4.772059"
       gradientUnits="userSpaceOnUse" />
  </defs>
  <sodipodi:namedview
     id="base"
     pagecolor="#ffffff"
     bordercolor="#666666"
     borderopacity="1.0"
     inkscape:pageopacity="0.0"
     inkscape:pageshadow="2"
     inkscape:zoom="1"
     inkscape:cx="11"
     inkscape:cy="10.5"
     inkscape:current-layer="layer4"
     showgrid="false"
     inkscape:grid-bbox="true"
     inkscape:document-units="px"
     inkscape:window-width="872"
     inkscape:window-height="621"
     inkscape:window-x="322"
     inkscape:window-y="152"
     inkscape:showpageshadow="false"
     showborder="false"
     width="22px"
     height="22px" />
  <metadata
     id="metadata1376">
    <rdf:RDF>
      <cc:Work
         rdf:about="">
        <dc:format>image/svg+xml</dc:format>
        <dc:type
           rdf:resource="http://purl.org/dc/dcmitype/StillImage" />
        <dc:title>Text Generic</dc:title>
        <dc:creator>
          <cc:Agent>
            <dc:title>Silvestre Herrera</dc:title>
          </cc:Agent>
        </dc:creator>
        <cc:license
           rdf:resource="http://creativecommons.org/licenses/GPL/2.0/" />
      </cc:Work>
      <cc:License
         rdf:about="http://creativecommons.org/licenses/GPL/2.0/">
        <cc:permits
           rdf:resource="http://web.resource.org/cc/Reproduction" />
        <cc:permits
           rdf:resource="http://web.resource.org/cc/Distribution" />
        <cc:requires
           rdf:resource="http://web.resource.org/cc/Notice" />
        <cc:permits
           rdf:resource="http://web.resource.org/cc/DerivativeWorks" />
        <cc:requires
           rdf:resource="http://web.resource.org/cc/ShareAlike" />
        <cc:requires
           rdf:resource="http://web.resource.org/cc/SourceCode" />
      </cc:License>
    </rdf:RDF>
  </metadata>
  <g
     id="layer1"
     inkscape:label="Layer 1"
     inkscape:groupmode="layer"
     sodipodi:insensitive="true">
    <rect
       style="opacity:1;fill:#fcfcfc;fill-opacity:1;stroke:#969696;stroke-width:1.00000036;stroke-linecap:round;stroke-linejoin:round;stroke-miterlimit:4;stroke-dasharray:none;stroke-dashoffset:0;stroke-opacity:1"
       id="rect1379"
       width="19"
       height="21"
       x="1.5000002"
       y="0.49999982" />
  </g>
  <g
     inkscape:groupmode="layer"
     id="layer3"
     inkscape:label="contents"
     style="display:inline"
     sodipodi:insensitive="true">
    <path
       style="opacity:1;fill:#7b7d78;fill-opacity:1;stroke:none;stroke-width:1;stroke-linecap:square;stroke-linejoin:round;stroke-miterlimit:4;stroke-dasharray:none;stroke-dashoffset:0;stroke-opacity:1"
       d="M 4,3 L 4,5 L 8,5 L 8,3 L 4,3 z M 9,3 L 9,5 L 13,5 L 13,3 L 9,3 z M 14,3 L 14,5 L 18,5 L 18,3 L 14,3 z M 4,6 L 4,8 L 8,8 L 8,6 L 4,6 z M 4,9 L 4,11 L 8,11 L 8,9 L 4,9 z M 4,12 L 4,14 L 8,14 L 8,12 L 4,12 z M 4,15 L 4,17 L 8,17 L 8,15 L 4,15 z"
       id="rect2179" />
    <path
       style="opacity:1;fill:#babdb6;fill-opacity:1;stroke:none;stroke-width:1;stroke-linecap:square;stroke-linejoin:round;stroke-miterlimit:4;stroke-dasharray:none;stroke-dashoffset:0;stroke-opacity:1"
       d="M 9,6 L 9,8 L 13,8 L 13,6 L 9,6 z M 13.96875,6 L 13.96875,8 L 17.96875,8 L 17.96875,6 L 13.96875,6 z"
       id="rect2215" />
    <path
       style="opacity:1;fill:#babdb6;fill-opacity:1;stroke:none;stroke-width:1;stroke-linecap:square;stroke-linejoin:round;stroke-miterlimit:4;stroke-dasharray:none;stroke-dashoffset:0;stroke-opacity:1;display:inline"
       d="M 9,9 L 9,11 L 13,11 L 13,9 L 9,9 z M 13.96875,9 L 13.96875,11 L 17.96875,11 L 17.96875,9 L 13.96875,9 z"
       id="path2220" />
    <path
       style="opacity:1;fill:#babdb6;fill-opacity:1;stroke:none;stroke-width:1;stroke-linecap:square;stroke-linejoin:round;stroke-miterlimit:4;stroke-dasharray:none;stroke-dashoffset:0;stroke-opacity:1;display:inline"
       d="M 9,12 L 9,14 L 13,14 L 13,12 L 9,12 z M 13.96875,12 L 13.96875,14 L 17.96875,14 L 17.96875,12 L 13.96875,12 z"
       id="path2222" />
    <path
       style="opacity:1;fill:#babdb6;fill-opacity:1;stroke:none;stroke-width:1;stroke-linecap:square;stroke-linejoin:round;stroke-miterlimit:4;stroke-dasharray:none;stroke-dashoffset:0;stroke-opacity:1;display:inline"
       d="M 9,15 L 9,17 L 13,17 L 13,15 L 9,15 z M 13.96875,15 L 13.96875,17 L 17.96875,17 L 17.96875,15 L 13.96875,15 z"
       id="path2224" />
  </g>
  <g
     inkscape:groupmode="layer"
     id="layer2"
     inkscape:label="lights"
     sodipodi:insensitive="true">
    <rect
       style="opacity:0.76623374;fill:url(#radialGradient2205);fill-opacity:1;stroke:none;stroke-width:1.00000036;stroke-linecap:round;stroke-linejoin:round;stroke-miterlimit:4;stroke-dasharray:none;stroke-dashoffset:0;stroke-opacity:1"
       id="rect2256"
       width="17.985123"
       height="20"
       x="2"
       y="1" />
    <rect
       style="opacity:1;fill:none;fill-opacity:1;stroke:#ffffff;stroke-width:1.00000036;stroke-linecap:round;stroke-linejoin:round;stroke-miterlimit:4;stroke-dasharray:none;stroke-dashoffset:0;stroke-opacity:0.73390557"
       id="rect2254"
       width="17"
       height="19"
       x="2.5000002"
       y="1.5000001" />
  </g>
  <g
     inkscape:groupmode="layer"
     id="layer4">
    <path
       transform="matrix(1.5716486,0,0,1.5716486,-10.449151,-9.6016934)"
       style="fill:#3465a4;fill-opacity:1;stroke:#204a87;stroke-width:0.63627452;stroke-linecap:square;stroke-linejoin:round;stroke-miterlimit:4;stroke-dashoffset:0;stroke-opacity:1"
       d="M 20.328432,15.017157 C 20.328432,17.651333 18.190549,19.789216 15.556373,19.789216 C 12.922196,19.789216 10.784314,17.651333 10.784314,15.017157 C 10.784314,12.38298 12.922196,10.245098 15.556373,10.245098 C 18.190549,10.245098 20.328432,12.38298 20.328432,15.017157 z"
       id="path2353" />
    <path
       transform="matrix(1.6764252,0,0,1.6764252,-12.079094,-11.17514)"
       style="fill:#000000;fill-opacity:0.48101268;stroke:none;stroke-width:0.63627452;stroke-linecap:square;stroke-linejoin:round;stroke-miterlimit:4;stroke-dashoffset:0;stroke-opacity:1"
       d="M 20.328432,15.017157 C 20.328432,17.651333 18.190549,19.789216 15.556373,19.789216 C 14.638287,19.789216 13.856294,19.569646 13.072391,19.091758 L 15.556373,15.017157 L 20.328432,15.017157 z"
       id="path2355" />
    <path
       transform="matrix(1.6764252,0,0,1.6764252,-12.079094,-11.17514)"
       style="fill:#ffffff;fill-opacity:0.21097047;stroke:none;stroke-width:0.63627452;stroke-linecap:square;stroke-linejoin:round;stroke-miterlimit:4;stroke-dashoffset:0;stroke-opacity:1"
       d="M 13.100489,19.108756 C 10.841926,17.753108 10.109126,14.819836 11.464774,12.561273 C 11.8083,11.988945 12.198083,11.561725 12.736596,11.167299 L 15.556373,15.017157 L 13.100489,19.108756 z"
       id="path3326" />
    <path
       transform="matrix(1.3620956,0,0,1.3620955,-7.1892657,-6.4548024)"
       style="opacity:0.36401672;fill:none;fill-opacity:1;stroke:#ffffff;stroke-width:0.73416287;stroke-linecap:square;stroke-linejoin:round;stroke-miterlimit:4;stroke-dashoffset:0;stroke-opacity:1"
       d="M 20.328432,15.017157 C 20.328432,17.651333 18.190549,19.789216 15.556373,19.789216 C 12.922196,19.789216 10.784314,17.651333 10.784314,15.017157 C 10.784314,12.38298 12.922196,10.245098 15.556373,10.245098 C 18.190549,10.245098 20.328432,12.38298 20.328432,15.017157 z"
       id="path3328" />
    <path
       transform="matrix(1.6764252,0,0,1.6764252,-12.079094,-11.17514)"
       style="fill:url(#radialGradient3338);fill-opacity:1;stroke:none;stroke-width:0.63627452;stroke-linecap:square;stroke-linejoin:round;stroke-miterlimit:4;stroke-dashoffset:0;stroke-opacity:1"
       d="M 20.328432,15.017157 C 20.328432,17.651333 18.190549,19.789216 15.556373,19.789216 C 12.922196,19.789216 10.784314,17.651333 10.784314,15.017157 C 10.784314,12.38298 12.922196,10.245098 15.556373,10.245098 C 18.190549,10.245098 20.328432,12.38298 20.328432,15.017157 z"
       id="path3330" />
  </g>
</svg>
