<?xml version="1.0" encoding="UTF-8" standalone="no"?>
<!-- Created with Inkscape (http://www.inkscape.org/) -->
<svg
   xmlns:dc="http://purl.org/dc/elements/1.1/"
   xmlns:cc="http://web.resource.org/cc/"
   xmlns:rdf="http://www.w3.org/1999/02/22-rdf-syntax-ns#"
   xmlns:svg="http://www.w3.org/2000/svg"
   xmlns="http://www.w3.org/2000/svg"
   xmlns:xlink="http://www.w3.org/1999/xlink"
   xmlns:sodipodi="http://sodipodi.sourceforge.net/DTD/sodipodi-0.dtd"
   xmlns:inkscape="http://www.inkscape.org/namespaces/inkscape"
   width="16"
   height="16"
   id="svg1371"
   sodipodi:version="0.32"
   inkscape:version="0.45.1"
   sodipodi:docbase="/home/silvestre/.icons/Gion/16x16/mimetypes/SVGs"
   sodipodi:docname="x-office-spreadsheet.svg"
   inkscape:export-filename="/home/silvestre/Gion/PNGs/text-x-generic.png"
   inkscape:export-xdpi="90"
   inkscape:export-ydpi="90"
   inkscape:output_extension="org.inkscape.output.svg.inkscape"
   version="1.0">
  <defs
     id="defs1373">
    <linearGradient
       id="linearGradient3332"
       inkscape:collect="always">
      <stop
         id="stop3334"
         offset="0"
         style="stop-color:#ffffff;stop-opacity:0.44351464" />
      <stop
         id="stop3336"
         offset="1"
         style="stop-color:#ffffff;stop-opacity:0;" />
    </linearGradient>
    <radialGradient
       inkscape:collect="always"
       xlink:href="#linearGradient3332"
       id="radialGradient3256"
       gradientUnits="userSpaceOnUse"
       cx="16.58564"
       cy="17.20435"
       fx="16.58564"
       fy="17.20435"
       r="4.772059"
       gradientTransform="matrix(1.7145239,0,0,1.7145239,-12.671772,-11.747274)" />
    <linearGradient
       inkscape:collect="always"
       id="linearGradient2258">
      <stop
         style="stop-color:#000000;stop-opacity:0"
         offset="0"
         id="stop2260" />
      <stop
         style="stop-color:#000000;stop-opacity:0.22317597"
         offset="1"
         id="stop2262" />
    </linearGradient>
    <radialGradient
       inkscape:collect="always"
       xlink:href="#linearGradient2258"
       id="radialGradient2205"
       cx="22.533945"
       cy="24.63522"
       fx="22.533945"
       fy="24.63522"
       r="17"
       gradientTransform="matrix(0.5668917,0,0,0.4957022,-4.0256018,-2.3555777)"
       gradientUnits="userSpaceOnUse" />
  </defs>
  <sodipodi:namedview
     id="base"
     pagecolor="#ffffff"
     bordercolor="#666666"
     borderopacity="1.0"
     inkscape:pageopacity="0.0"
     inkscape:pageshadow="2"
     inkscape:zoom="1"
     inkscape:cx="8"
     inkscape:cy="8"
     inkscape:current-layer="g3230"
     showgrid="false"
     inkscape:grid-bbox="true"
     inkscape:document-units="px"
     inkscape:window-width="872"
     inkscape:window-height="621"
     inkscape:window-x="322"
     inkscape:window-y="152"
     inkscape:showpageshadow="false"
     showborder="false"
     width="16px"
     height="16px" />
  <metadata
     id="metadata1376">
    <rdf:RDF>
      <cc:Work
         rdf:about="">
        <dc:format>image/svg+xml</dc:format>
        <dc:type
           rdf:resource="http://purl.org/dc/dcmitype/StillImage" />
        <dc:title>Text Generic</dc:title>
        <dc:creator>
          <cc:Agent>
            <dc:title>Silvestre Herrera</dc:title>
          </cc:Agent>
        </dc:creator>
        <cc:license
           rdf:resource="http://creativecommons.org/licenses/GPL/2.0/" />
      </cc:Work>
      <cc:License
         rdf:about="http://creativecommons.org/licenses/GPL/2.0/">
        <cc:permits
           rdf:resource="http://web.resource.org/cc/Reproduction" />
        <cc:permits
           rdf:resource="http://web.resource.org/cc/Distribution" />
        <cc:requires
           rdf:resource="http://web.resource.org/cc/Notice" />
        <cc:permits
           rdf:resource="http://web.resource.org/cc/DerivativeWorks" />
        <cc:requires
           rdf:resource="http://web.resource.org/cc/ShareAlike" />
        <cc:requires
           rdf:resource="http://web.resource.org/cc/SourceCode" />
      </cc:License>
    </rdf:RDF>
  </metadata>
  <g
     id="layer1"
     inkscape:label="Layer 1"
     inkscape:groupmode="layer">
    <rect
       style="opacity:1;fill:#fcfcfc;fill-opacity:1;stroke:#969696;stroke-width:1.0000006;stroke-linecap:round;stroke-linejoin:round;stroke-miterlimit:4;stroke-dasharray:none;stroke-dashoffset:0;stroke-opacity:1"
       id="rect1379"
       width="12.999998"
       height="15"
       x="1.5000001"
       y="0.50000024" />
  </g>
  <g
     inkscape:groupmode="layer"
     id="layer3"
     inkscape:label="contents" />
  <g
     inkscape:groupmode="layer"
     id="layer2"
     inkscape:label="lights">
    <rect
       style="opacity:0.76623374;fill:url(#radialGradient2205);fill-opacity:1;stroke:none;stroke-width:1.00000036;stroke-linecap:round;stroke-linejoin:round;stroke-miterlimit:4;stroke-dasharray:none;stroke-dashoffset:0;stroke-opacity:1"
       id="rect2256"
       width="12"
       height="14"
       x="2"
       y="1" />
    <rect
       style="opacity:1;fill:none;fill-opacity:1;stroke:#ffffff;stroke-width:1.0000006;stroke-linecap:round;stroke-linejoin:round;stroke-miterlimit:4;stroke-dasharray:none;stroke-dashoffset:0;stroke-opacity:0.73390557"
       id="rect2254"
       width="10.999999"
       height="13.083158"
       x="2.5000002"
       y="1.5000002" />
  </g>
  <g
     inkscape:groupmode="layer"
     id="layer4">
    <path
       style="fill:#2e3436;fill-opacity:0.63414636;fill-rule:evenodd;stroke:none;stroke-width:0.99999994px;stroke-linecap:square;stroke-linejoin:miter;stroke-opacity:1"
       d="M 4 3 L 4 4 L 4.5 4 L 6 4 L 6 3 L 4.5 3 L 4 3 z M 7 3 L 7 4 L 9 4 L 9 3 L 7 3 z M 10 3 L 10 4 L 11.5 4 L 12 4 L 12 3 L 11.5 3 L 10 3 z M 4 5 L 4 6 L 4.5 6 L 6 6 L 6 5 L 4.5 5 L 4 5 z M 7 5 L 7 6 L 9 6 L 9 5 L 7 5 z M 10 5 L 10 6 L 11.5 6 L 12 6 L 12 5 L 11.5 5 L 10 5 z M 4 7 L 4 8 L 4.5 8 L 6 8 L 6 7 L 4.5 7 L 4 7 z M 7 7 L 7 8 L 9 8 L 9 7 L 7 7 z M 10 7 L 10 8 L 11.5 8 L 12 8 L 12 7 L 11.5 7 L 10 7 z M 4 9 L 4 10 L 4.5 10 L 6 10 L 6 9 L 4.5 9 L 4 9 z M 7 9 L 7 10 L 9 10 L 9 9 L 7 9 z M 10 9 L 10 10 L 11.5 10 L 12 10 L 12 9 L 11.5 9 L 10 9 z M 4 11 L 4 12 L 4.5 12 L 6 12 L 6 11 L 4.5 11 L 4 11 z M 7 11 L 7 12 L 9 12 L 9 11 L 7 11 z M 10 11 L 10 12 L 11.5 12 L 12 12 L 12 11 L 11.5 11 L 10 11 z "
       id="path2171" />
    <g
       id="g3230"
       transform="matrix(0.7333343,0,0,0.7333428,-0.2666879,-0.2667286)">
      <path
         transform="matrix(1.5716486,0,0,1.5716486,-10.449151,-9.6016934)"
         style="fill:#3465a4;fill-opacity:1;stroke:#204a87;stroke-width:0.86764091;stroke-linecap:square;stroke-linejoin:round;stroke-miterlimit:4;stroke-dashoffset:0;stroke-opacity:1"
         d="M 20.328432,15.017157 C 20.328432,17.651333 18.190549,19.789216 15.556373,19.789216 C 12.922196,19.789216 10.784314,17.651333 10.784314,15.017157 C 10.784314,12.38298 12.922196,10.245098 15.556373,10.245098 C 18.190549,10.245098 20.328432,12.38298 20.328432,15.017157 z "
         id="path2353" />
      <path
         transform="matrix(1.6764252,0,0,1.6764252,-12.079094,-11.17514)"
         style="fill:#000000;fill-opacity:0.48101268;stroke:none;stroke-width:0.63627452;stroke-linecap:square;stroke-linejoin:round;stroke-miterlimit:4;stroke-dashoffset:0;stroke-opacity:1"
         d="M 20.328432,15.017157 C 20.328432,17.651333 18.190549,19.789216 15.556373,19.789216 C 14.638287,19.789216 13.856294,19.569646 13.072391,19.091758 L 15.556373,15.017157 L 20.328432,15.017157 z "
         id="path2355" />
      <path
         style="fill:#ffffff;fill-opacity:0.21097047;stroke:none;stroke-width:0.63627452;stroke-linecap:square;stroke-linejoin:round;stroke-miterlimit:4;stroke-dashoffset:0;stroke-opacity:1"
         d="M 9.7894616,20.817998 C 5.9172225,18.552399 4.6608587,13.650229 6.9850769,9.8756517 C 7.574042,8.9191604 8.2423133,8.2051777 9.1655779,7.5460015 L 14.000002,13.979997 L 9.7894616,20.817998 z "
         id="path3326" />
      <path
         style="opacity:0.36401672;fill:none;fill-opacity:1;stroke:#ffffff;stroke-width:1.3636266;stroke-linecap:square;stroke-linejoin:round;stroke-miterlimit:4;stroke-dashoffset:0;stroke-opacity:1"
         d="M 20.136381,13.999999 C 20.136381,17.38728 17.387282,20.136379 14.000001,20.136379 C 10.612719,20.136379 7.8636207,17.38728 7.8636207,13.999999 C 7.8636207,10.612717 10.612719,7.863619 14.000001,7.863619 C 17.387282,7.863619 20.136381,10.612717 20.136381,13.999999 z "
         id="path3328" />
      <path
         style="fill:url(#radialGradient3256);fill-opacity:1;stroke:none;stroke-width:0.63627452;stroke-linecap:square;stroke-linejoin:round;stroke-miterlimit:4;stroke-dashoffset:0;stroke-opacity:1"
         d="M 22.181811,14 C 22.181811,18.516358 18.516359,22.18181 14.000002,22.18181 C 9.4836423,22.18181 5.8181923,18.516358 5.8181923,14 C 5.8181923,9.483641 9.4836423,5.8181912 14.000002,5.8181912 C 18.516359,5.8181912 22.181811,9.483641 22.181811,14 z "
         id="path3330" />
    </g>
  </g>
</svg>
