<?xml version="1.0" encoding="UTF-8" standalone="no"?>
<!-- Created with Inkscape (http://www.inkscape.org/) -->
<svg
   xmlns:dc="http://purl.org/dc/elements/1.1/"
   xmlns:cc="http://web.resource.org/cc/"
   xmlns:rdf="http://www.w3.org/1999/02/22-rdf-syntax-ns#"
   xmlns:svg="http://www.w3.org/2000/svg"
   xmlns="http://www.w3.org/2000/svg"
   xmlns:xlink="http://www.w3.org/1999/xlink"
   xmlns:sodipodi="http://inkscape.sourceforge.net/DTD/sodipodi-0.dtd"
   xmlns:inkscape="http://www.inkscape.org/namespaces/inkscape"
   width="128.00000px"
   height="128.00000px"
   id="svg2"
   sodipodi:version="0.32"
   inkscape:version="0.42.2"
   sodipodi:docbase="/home/silvestre/Desktop/Nuovo!/scalable/filesystems"
   sodipodi:docname="gnome-fs-trash-empty.svg">
  <defs
     id="defs4">
    <linearGradient
       inkscape:collect="always"
       id="linearGradient4804">
      <stop
         style="stop-color:#ffffff;stop-opacity:1;"
         offset="0"
         id="stop4806" />
      <stop
         style="stop-color:#ffffff;stop-opacity:0;"
         offset="1"
         id="stop4808" />
    </linearGradient>
    <linearGradient
       id="linearGradient8101">
      <stop
         style="stop-color:#000000;stop-opacity:0.23232323;"
         offset="0.0000000"
         id="stop8103" />
      <stop
         style="stop-color:#000000;stop-opacity:0;"
         offset="1"
         id="stop8105" />
    </linearGradient>
    <linearGradient
       inkscape:collect="always"
       id="linearGradient8083">
      <stop
         style="stop-color:#9c9c9c;stop-opacity:1.0000000"
         offset="0"
         id="stop8085" />
      <stop
         style="stop-color:#ababab;stop-opacity:0;"
         offset="1"
         id="stop8087" />
    </linearGradient>
    <linearGradient
       id="linearGradient7347">
      <stop
         style="stop-color:#e2e2e2;stop-opacity:1;"
         offset="0"
         id="stop7349" />
      <stop
         id="stop7355"
         offset="0.50000000"
         style="stop-color:#ffffff;stop-opacity:1.0000000;" />
      <stop
         style="stop-color:#e2e2e2;stop-opacity:1.0000000;"
         offset="1.0000000"
         id="stop7351" />
    </linearGradient>
    <linearGradient
       id="linearGradient6613">
      <stop
         style="stop-color:#aeaeae;stop-opacity:1;"
         offset="0"
         id="stop6615" />
      <stop
         style="stop-color:#6f6f6f;stop-opacity:1.0000000;"
         offset="1.0000000"
         id="stop6617" />
    </linearGradient>
    <radialGradient
       inkscape:collect="always"
       xlink:href="#linearGradient8101"
       id="radialGradient10333"
       gradientUnits="userSpaceOnUse"
       gradientTransform="matrix(1.000000,0.000000,0.000000,0.259259,-2.220446e-16,80.24758)"
       cx="52.097034"
       cy="108.33423"
       fx="52.097034"
       fy="108.33423"
       r="46.576820" />
    <linearGradient
       inkscape:collect="always"
       xlink:href="#linearGradient7347"
       id="linearGradient1337"
       gradientUnits="userSpaceOnUse"
       gradientTransform="matrix(0.929775,0.000000,0.000000,0.929775,12.21175,10.76835)"
       x1="15.268878"
       y1="62.316693"
       x2="96.195437"
       y2="62.316693" />
    <linearGradient
       inkscape:collect="always"
       xlink:href="#linearGradient6613"
       id="linearGradient1340"
       gradientUnits="userSpaceOnUse"
       x1="45.840580"
       y1="11.386465"
       x2="45.840580"
       y2="26.514444" />
    <linearGradient
       inkscape:collect="always"
       xlink:href="#linearGradient8083"
       id="linearGradient1342"
       gradientUnits="userSpaceOnUse"
       x1="72.980698"
       y1="8.8240576"
       x2="73.235039"
       y2="20.485434" />
    <linearGradient
       y2="97.595169"
       x2="-50.630741"
       y1="82.493759"
       x1="-87.652122"
       gradientUnits="userSpaceOnUse"
       id="linearGradient1329"
       xlink:href="#linearGradient1311"
       inkscape:collect="always" />
    <linearGradient
       y2="79.840210"
       x2="-28.356623"
       y1="71.472862"
       x1="-8.0010834"
       gradientUnits="userSpaceOnUse"
       id="linearGradient1325"
       xlink:href="#linearGradient1311"
       inkscape:collect="always" />
    <linearGradient
       y2="61.806011"
       x2="-34.868973"
       y1="52.937717"
       x1="-31.545731"
       gradientUnits="userSpaceOnUse"
       id="linearGradient1321"
       xlink:href="#linearGradient1311"
       inkscape:collect="always" />
    <linearGradient
       gradientUnits="userSpaceOnUse"
       y2="64.310760"
       x2="-68.432617"
       y1="53.044029"
       x1="-79.636925"
       id="linearGradient1317"
       xlink:href="#linearGradient1311"
       inkscape:collect="always" />
    <linearGradient
       inkscape:collect="always"
       id="linearGradient2985">
      <stop
         style="stop-color:#6fb037;stop-opacity:1.0000000"
         offset="0"
         id="stop2987" />
      <stop
         style="stop-color:#5a8f2b;stop-opacity:1.0000000"
         offset="1"
         id="stop2989" />
    </linearGradient>
    <linearGradient
       gradientTransform="matrix(1.022962,0.000000,0.000000,1.022962,1.196273,-1.858265)"
       y2="97.576836"
       x2="-42.188931"
       y1="66.235695"
       x1="-66.390816"
       gradientUnits="userSpaceOnUse"
       id="linearGradient3267"
       xlink:href="#linearGradient2985"
       inkscape:collect="always" />
    <linearGradient
       id="linearGradient1311"
       inkscape:collect="always">
      <stop
         id="stop1313"
         offset="0"
         style="stop-color:#ffffff;stop-opacity:1;" />
      <stop
         id="stop1315"
         offset="1"
         style="stop-color:#ffffff;stop-opacity:0;" />
    </linearGradient>
    <linearGradient
       inkscape:collect="always"
       xlink:href="#linearGradient4804"
       id="linearGradient4810"
       x1="94.535667"
       y1="32.086258"
       x2="62.445618"
       y2="32.086258"
       gradientUnits="userSpaceOnUse" />
  </defs>
  <sodipodi:namedview
     id="base"
     pagecolor="#ffffff"
     bordercolor="#666666"
     borderopacity="1.0"
     inkscape:pageopacity="0.0"
     inkscape:pageshadow="2"
     inkscape:zoom="1.4492187"
     inkscape:cx="214.31401"
     inkscape:cy="83.864345"
     inkscape:document-units="px"
     inkscape:current-layer="layer1"
     showguides="true"
     inkscape:guide-bbox="true"
     inkscape:window-width="766"
     inkscape:window-height="512"
     inkscape:window-x="278"
     inkscape:window-y="36" />
  <metadata
     id="metadata7">
    <rdf:RDF>
      <cc:Work
         rdf:about="">
        <dc:format>image/svg+xml</dc:format>
        <dc:type
           rdf:resource="http://purl.org/dc/dcmitype/StillImage" />
      </cc:Work>
    </rdf:RDF>
  </metadata>
  <g
     inkscape:label="Layer 1"
     inkscape:groupmode="layer"
     id="layer1">
    <path
       sodipodi:type="arc"
       style="fill:url(#radialGradient10333);fill-opacity:1.0000000;stroke:none;stroke-width:3.0000000;stroke-linecap:round;stroke-linejoin:round;stroke-miterlimit:4.0000000;stroke-dasharray:none;stroke-opacity:1.0000000"
       id="path8091"
       sodipodi:cx="52.097034"
       sodipodi:cy="108.33423"
       sodipodi:rx="46.576820"
       sodipodi:ry="12.075472"
       d="M 98.673855 108.33423 A 46.576820 12.075472 0 1 1  5.5202141,108.33423 A 46.576820 12.075472 0 1 1  98.673855 108.33423 z"
       transform="matrix(1.095319,0.000000,0.000000,1.251793,6.764602,-23.41811)" />
    <path
       style="fill:url(#linearGradient1337);fill-opacity:1.0000000;stroke:#aaaaaa;stroke-width:2.7893240;stroke-linecap:round;stroke-linejoin:round;stroke-miterlimit:4.0000000;stroke-dasharray:none;stroke-opacity:1.0000000"
       d="M 27.220427,27.179123 C 27.220427,14.564766 100.83976,14.507117 100.83976,27.179123 C 100.83976,54.386548 100.83976,78.345718 100.83976,105.55314 C 100.83976,125.57960 27.220427,123.27231 27.220427,105.55314 C 27.220427,78.345718 27.220427,54.386548 27.220427,27.179123 z "
       id="rect5882"
       sodipodi:nodetypes="ccccc" />
    <path
       sodipodi:type="arc"
       style="fill:url(#linearGradient1340);fill-opacity:1.0000000;stroke:url(#linearGradient1342);stroke-width:2.8133686;stroke-linecap:round;stroke-linejoin:round;stroke-miterlimit:4.0000000;stroke-dasharray:none;stroke-opacity:1.0000000"
       id="path5885"
       sodipodi:cx="55.379230"
       sodipodi:cy="15.289847"
       sodipodi:rx="39.277782"
       sodipodi:ry="7.3188410"
       d="M 94.657013 15.289847 A 39.277782 7.3188410 0 1 1  16.101448,15.289847 A 39.277782 7.3188410 0 1 1  94.657013 15.289847 z"
       transform="matrix(0.792312,0.000000,0.000000,0.892789,19.93536,14.71538)" />
    <g
       id="g1371"
       inkscape:label="Layer 1"
       transform="matrix(0.422798,0.000000,0.000000,0.422798,35.85800,57.86100)">
      <g
         transform="matrix(1.377437,0.000000,0.000000,1.377437,136.6059,-47.18880)"
         id="g1373">
        <path
           style="fill:url(#linearGradient3267);fill-opacity:1.0000000;stroke:#5f7c31;stroke-width:3.6299300;stroke-linecap:round;stroke-linejoin:round;stroke-miterlimit:4.0000000;stroke-dasharray:none;stroke-opacity:1.0000000"
           d="M -77.321179,40.005818 L -90.736772,78.325297 L -51.303591,74.991910 L -58.733503,66.175038 C -54.783030,65.286777 -52.570141,66.543847 -49.451080,66.623139 C -39.634257,66.872701 -34.932513,77.498380 -35.275265,85.564837 C -35.683903,95.181875 -44.015332,100.82661 -53.218711,100.73891 C -61.727404,100.65783 -64.843669,96.648512 -68.933779,90.032350 L -88.655284,102.32757 C -81.440009,113.68132 -71.094458,121.84790 -53.468274,121.84790 C -31.013568,121.84790 -14.520499,105.35483 -14.520499,82.900121 C -14.520499,60.445414 -32.510947,44.733003 -53.468274,44.483440 C -60.661960,44.397776 -64.326542,45.205268 -70.165539,48.510273 L -77.321179,40.005818 z "
           id="path1375"
           sodipodi:nodetypes="ccccsssccssscc" />
        <path
           sodipodi:nodetypes="ccccsssccssscc"
           style="fill:none;fill-opacity:1.0000000;stroke:url(#linearGradient1317);stroke-width:4.1992130;stroke-linecap:round;stroke-linejoin:round;stroke-miterlimit:4.0000000;stroke-dasharray:none;stroke-opacity:1.0000000"
           d="M -75.749230,46.521176 L -85.738190,74.974578 L -55.716273,72.195281 L -61.467493,64.820511 C -59.141037,63.841068 -56.259158,62.543547 -53.573391,62.543547 C -37.585986,62.543546 -32.178570,72.910114 -32.178570,83.938368 C -32.178569,94.966622 -39.711336,104.27052 -53.927616,104.27052 C -61.110906,104.27052 -66.649349,100.44457 -70.170130,94.749356 L -82.364020,102.65047 C -76.153087,112.42381 -66.356034,118.26007 -53.927616,118.26007 C -34.598526,118.26007 -18.897460,102.55901 -18.897460,83.229918 C -18.897460,63.900828 -34.598526,48.227280 -53.927616,48.227280 C -60.120405,48.227280 -65.852350,49.922756 -70.878580,52.767716 L -75.749230,46.521176 z "
           id="path1377" />
      </g>
      <path
         sodipodi:nodetypes="ccccsssccssscc"
         style="fill:none;fill-opacity:1.0000000;stroke:url(#linearGradient1321);stroke-width:4.1992130;stroke-linecap:round;stroke-linejoin:round;stroke-miterlimit:4.0000000;stroke-dasharray:none;stroke-opacity:1.0000000"
         d="M -75.749230,46.521176 L -85.738190,74.974578 L -55.716273,72.195281 L -61.467493,64.820511 C -59.141037,63.841068 -56.259158,62.543547 -53.573391,62.543547 C -37.585986,62.543546 -32.178570,72.910114 -32.178570,83.938368 C -32.178569,94.966622 -39.711336,104.27052 -53.927616,104.27052 C -61.110906,104.27052 -66.649349,100.44457 -70.170130,94.749356 L -82.364020,102.65047 C -76.153087,112.42381 -66.356034,118.26007 -53.927616,118.26007 C -34.598526,118.26007 -18.897460,102.55901 -18.897460,83.229918 C -18.897460,63.900828 -34.598526,48.227280 -53.927616,48.227280 C -60.120405,48.227280 -65.852350,49.922756 -70.878580,52.767716 L -75.749230,46.521176 z "
         id="path1319"
         transform="matrix(1.377437,0.000000,0.000000,1.377437,136.6059,-47.18880)" />
      <path
         sodipodi:nodetypes="ccccsssccssscc"
         style="fill:none;fill-opacity:1.0000000;stroke:url(#linearGradient1325);stroke-width:4.1992130;stroke-linecap:round;stroke-linejoin:round;stroke-miterlimit:4.0000000;stroke-dasharray:none;stroke-opacity:1.0000000"
         d="M -75.749230,46.521176 L -85.738190,74.974578 L -55.716273,72.195281 L -61.467493,64.820511 C -59.141037,63.841068 -56.259158,62.543547 -53.573391,62.543547 C -37.585986,62.543546 -32.178570,72.910114 -32.178570,83.938368 C -32.178569,94.966622 -39.711336,104.27052 -53.927616,104.27052 C -61.110906,104.27052 -66.649349,100.44457 -70.170130,94.749356 L -82.364020,102.65047 C -76.153087,112.42381 -66.356034,118.26007 -53.927616,118.26007 C -34.598526,118.26007 -18.897460,102.55901 -18.897460,83.229918 C -18.897460,63.900828 -34.598526,48.227280 -53.927616,48.227280 C -60.120405,48.227280 -65.852350,49.922756 -70.878580,52.767716 L -75.749230,46.521176 z "
         id="path1323"
         transform="matrix(1.377437,0.000000,0.000000,1.377437,136.6059,-47.18880)" />
      <path
         sodipodi:nodetypes="csccsss"
         style="fill:none;fill-opacity:1.0000000;stroke:url(#linearGradient1329);stroke-width:4.1992130;stroke-linecap:round;stroke-linejoin:round;stroke-miterlimit:4.0000000;stroke-dasharray:none;stroke-opacity:1.0000000"
         d="M -32.178570,83.938368 C -32.178569,94.966622 -39.711336,104.27052 -53.927616,104.27052 C -61.110906,104.27052 -66.649349,100.44457 -70.170130,94.749356 L -82.364020,102.65047 C -76.153087,112.42381 -66.356034,118.26007 -53.927616,118.26007 C -34.598526,118.26007 -18.897460,102.55901 -18.897460,83.229918 C -18.897460,63.900828 -32.178570,72.910114 -32.178570,83.938368 z "
         id="path1327"
         transform="matrix(1.377437,0.000000,0.000000,1.377437,136.6059,-47.18880)" />
    </g>
    <path
       style="fill:none;fill-opacity:1.0000000;stroke:#aaaaaa;stroke-width:2.0000000;stroke-linecap:round;stroke-linejoin:round;stroke-miterlimit:4.0000000;stroke-dasharray:none;stroke-opacity:1.0000000"
       d="M 27.220427,27.179123 C 27.220427,14.564766 100.83976,14.507117 100.83976,27.179123 C 100.83976,54.386548 100.83976,78.345718 100.83976,105.55314 C 100.83976,125.57960 27.220427,123.27231 27.220427,105.55314 C 27.220427,78.345718 27.220427,54.386548 27.220427,27.179123 z "
       id="path3340"
       sodipodi:nodetypes="ccccc" />
  </g>
</svg>
