<?xml version="1.0" encoding="UTF-8" standalone="no"?>
<!-- Created with Inkscape (http://www.inkscape.org/) -->
<svg
   xmlns:dc="http://purl.org/dc/elements/1.1/"
   xmlns:cc="http://web.resource.org/cc/"
   xmlns:rdf="http://www.w3.org/1999/02/22-rdf-syntax-ns#"
   xmlns:svg="http://www.w3.org/2000/svg"
   xmlns="http://www.w3.org/2000/svg"
   xmlns:xlink="http://www.w3.org/1999/xlink"
   xmlns:sodipodi="http://inkscape.sourceforge.net/DTD/sodipodi-0.dtd"
   xmlns:inkscape="http://www.inkscape.org/namespaces/inkscape"
   width="16"
   height="16"
   id="svg2"
   sodipodi:version="0.32"
   inkscape:version="0.43"
   version="1.0"
   sodipodi:docbase="/home/silvestre/Gion/16x16/actions/SVGs"
   sodipodi:docname="document-open.svg"
   inkscape:export-filename="/home/silvestre/Gion/16x16/actions/document-open.png"
   inkscape:export-xdpi="90"
   inkscape:export-ydpi="90">
  <defs
     id="defs4">
    <linearGradient
       id="linearGradient2272">
      <stop
         style="stop-color:#000000;stop-opacity:0;"
         offset="0"
         id="stop2274" />
      <stop
         id="stop2238"
         offset="0.47"
         style="stop-color:#000000;stop-opacity:0.16470588;" />
      <stop
         style="stop-color:#000000;stop-opacity:0.66666669;"
         offset="1"
         id="stop2276" />
    </linearGradient>
    <linearGradient
       inkscape:collect="always"
       id="linearGradient2240">
      <stop
         style="stop-color:#ffffff;stop-opacity:0.3004292"
         offset="0"
         id="stop2242" />
      <stop
         style="stop-color:#ffffff;stop-opacity:0;"
         offset="1"
         id="stop2244" />
    </linearGradient>
    <linearGradient
       inkscape:collect="always"
       id="linearGradient3104">
      <stop
         style="stop-color:#ffffff;stop-opacity:0.70980394"
         offset="0"
         id="stop3106" />
      <stop
         style="stop-color:#ffffff;stop-opacity:0.10729614"
         offset="1"
         id="stop3108" />
    </linearGradient>
    <linearGradient
       inkscape:collect="always"
       id="linearGradient3132">
      <stop
         style="stop-color:#636363;stop-opacity:1;"
         offset="0"
         id="stop3134" />
      <stop
         style="stop-color:#636363;stop-opacity:0;"
         offset="1"
         id="stop3136" />
    </linearGradient>
    <linearGradient
       id="linearGradient2233">
      <stop
         style="stop-color:#ffffff;stop-opacity:0.84848487;"
         offset="0"
         id="stop2235" />
      <stop
         style="stop-color:#ffffff;stop-opacity:0.32323232;"
         offset="1"
         id="stop2237" />
    </linearGradient>
    <linearGradient
       inkscape:collect="always"
       id="linearGradient2223">
      <stop
         style="stop-color:#000000;stop-opacity:0.38626608"
         offset="0"
         id="stop2225" />
      <stop
         style="stop-color:#000000;stop-opacity:0;"
         offset="1"
         id="stop2227" />
    </linearGradient>
    <linearGradient
       id="linearGradient2196">
      <stop
         style="stop-color:#1475ce;stop-opacity:1;"
         offset="0"
         id="stop2198" />
      <stop
         style="stop-color:#1772c6;stop-opacity:0;"
         offset="1"
         id="stop2200" />
    </linearGradient>
    <linearGradient
       id="linearGradient2228">
      <stop
         style="stop-color:#898989;stop-opacity:1;"
         offset="0"
         id="stop2230" />
      <stop
         style="stop-color:#b2b2b2;stop-opacity:1;"
         offset="1"
         id="stop2232" />
    </linearGradient>
    <linearGradient
       inkscape:collect="always"
       xlink:href="#linearGradient2228"
       id="linearGradient2234"
       x1="34.39695"
       y1="4.1508341"
       x2="20.559042"
       y2="4.1508341"
       gradientUnits="userSpaceOnUse"
       gradientTransform="matrix(0.335865,0,0,0.310405,-1.464322,1.574065e-2)" />
    <linearGradient
       inkscape:collect="always"
       xlink:href="#linearGradient2196"
       id="linearGradient2202"
       x1="11.856057"
       y1="34.258842"
       x2="13.001899"
       y2="34.258842"
       gradientUnits="userSpaceOnUse"
       gradientTransform="matrix(0.717996,0,0,0.357145,-5.17997,-2.357141)" />
    <linearGradient
       inkscape:collect="always"
       xlink:href="#linearGradient2223"
       id="linearGradient2229"
       x1="22.442478"
       y1="22.793297"
       x2="11.689369"
       y2="22.793297"
       gradientUnits="userSpaceOnUse"
       gradientTransform="matrix(0.287323,0,0,0.333526,0.980738,-1.670636e-2)" />
    <linearGradient
       inkscape:collect="always"
       xlink:href="#linearGradient2233"
       id="linearGradient2239"
       x1="17.697422"
       y1="2.6187558"
       x2="22.121777"
       y2="38.438679"
       gradientUnits="userSpaceOnUse"
       gradientTransform="matrix(0.316692,0,0,0.277792,-0.826301,0.723375)" />
    <linearGradient
       inkscape:collect="always"
       xlink:href="#linearGradient3132"
       id="linearGradient3138"
       x1="11.292813"
       y1="27.083799"
       x2="8.5740976"
       y2="27.083799"
       gradientUnits="userSpaceOnUse" />
    <radialGradient
       inkscape:collect="always"
       xlink:href="#linearGradient2272"
       id="radialGradient1372"
       gradientUnits="userSpaceOnUse"
       gradientTransform="matrix(0.544963,1.117914e-16,-6.632874e-17,0.922284,-3.360352,-12.88768)"
       cx="24.026768"
       cy="20.767532"
       fx="24.026768"
       fy="20.767532"
       r="13.026767" />
    <radialGradient
       inkscape:collect="always"
       xlink:href="#linearGradient2240"
       id="radialGradient1374"
       gradientUnits="userSpaceOnUse"
       gradientTransform="matrix(0.230296,-4.603062e-19,-5.796125e-19,0.511389,4.20013,-4.21425)"
       cx="24.651768"
       cy="19.102621"
       fx="24.651768"
       fy="19.102621"
       r="13.026767" />
    <linearGradient
       inkscape:collect="always"
       xlink:href="#linearGradient3104"
       id="linearGradient1376"
       gradientUnits="userSpaceOnUse"
       x1="17.718407"
       y1="10.078797"
       x2="24.218407"
       y2="43.104637"
       gradientTransform="matrix(0.19507,0,0,0.294893,5.224256,0.791307)" />
    <linearGradient
       id="linearGradient2258"
       inkscape:collect="always">
      <stop
         id="stop2260"
         offset="0"
         style="stop-color:#000000;stop-opacity:0.13733906" />
      <stop
         id="stop2262"
         offset="1"
         style="stop-color:#000000;stop-opacity:0;" />
    </linearGradient>
    <linearGradient
       inkscape:collect="always"
       xlink:href="#linearGradient2258"
       id="linearGradient1521"
       gradientUnits="userSpaceOnUse"
       x1="10.390993"
       y1="6.396131"
       x2="29.327063"
       y2="39.194366"
       gradientTransform="matrix(1.005238,1.266071e-17,0,1.004673,-0.214764,-0.200918)" />
    <linearGradient
       inkscape:collect="always"
       xlink:href="#linearGradient3132"
       id="linearGradient1411"
       gradientUnits="userSpaceOnUse"
       x1="11.292813"
       y1="27.083799"
       x2="8.5740976"
       y2="27.083799" />
    <linearGradient
       inkscape:collect="always"
       xlink:href="#linearGradient3132"
       id="linearGradient1415"
       gradientUnits="userSpaceOnUse"
       x1="11.292813"
       y1="27.083799"
       x2="8.5740976"
       y2="27.083799" />
    <linearGradient
       inkscape:collect="always"
       xlink:href="#linearGradient3132"
       id="linearGradient1419"
       gradientUnits="userSpaceOnUse"
       x1="11.292813"
       y1="27.083799"
       x2="8.5740976"
       y2="27.083799" />
    <linearGradient
       inkscape:collect="always"
       xlink:href="#linearGradient3132"
       id="linearGradient1423"
       gradientUnits="userSpaceOnUse"
       x1="11.292813"
       y1="27.083799"
       x2="8.5740976"
       y2="27.083799" />
    <linearGradient
       inkscape:collect="always"
       xlink:href="#linearGradient3132"
       id="linearGradient1427"
       gradientUnits="userSpaceOnUse"
       x1="11.292813"
       y1="27.083799"
       x2="8.5740976"
       y2="27.083799" />
    <linearGradient
       inkscape:collect="always"
       xlink:href="#linearGradient3132"
       id="linearGradient1431"
       gradientUnits="userSpaceOnUse"
       x1="11.292813"
       y1="27.083799"
       x2="8.5740976"
       y2="27.083799" />
    <linearGradient
       inkscape:collect="always"
       xlink:href="#linearGradient2258"
       id="linearGradient2293"
       gradientUnits="userSpaceOnUse"
       gradientTransform="matrix(1.005238,3.748275e-17,0,1.004673,-0.214764,-0.200918)"
       x1="10.390993"
       y1="6.396131"
       x2="29.327063"
       y2="39.194366" />
  </defs>
  <sodipodi:namedview
     id="base"
     pagecolor="#ffffff"
     bordercolor="#666666"
     borderopacity="1.0"
     inkscape:pageopacity="0.0"
     inkscape:pageshadow="2"
     inkscape:zoom="1"
     inkscape:cx="8"
     inkscape:cy="8"
     inkscape:document-units="px"
     inkscape:current-layer="layer1"
     showgrid="false"
     inkscape:grid-bbox="false"
     inkscape:window-width="897"
     inkscape:window-height="593"
     inkscape:window-x="6"
     inkscape:window-y="46"
     showguides="true"
     inkscape:guide-bbox="true"
     showborder="false"
     inkscape:showpageshadow="false" />
  <metadata
     id="metadata7">
    <rdf:RDF>
      <cc:Work
         rdf:about="">
        <dc:format>image/svg+xml</dc:format>
        <dc:type
           rdf:resource="http://purl.org/dc/dcmitype/StillImage" />
        <dc:title>Document Open</dc:title>
        <dc:creator>
          <cc:Agent>
            <dc:title>Silvestre Herrera</dc:title>
          </cc:Agent>
        </dc:creator>
        <dc:subject>
          <rdf:Bag>
            <rdf:li>directory folder</rdf:li>
          </rdf:Bag>
        </dc:subject>
        <cc:license
           rdf:resource="http://creativecommons.org/licenses/GPL/2.0/" />
      </cc:Work>
      <cc:License
         rdf:about="http://creativecommons.org/licenses/GPL/2.0/">
        <cc:permits
           rdf:resource="http://web.resource.org/cc/Reproduction" />
        <cc:permits
           rdf:resource="http://web.resource.org/cc/Distribution" />
        <cc:requires
           rdf:resource="http://web.resource.org/cc/Notice" />
        <cc:permits
           rdf:resource="http://web.resource.org/cc/DerivativeWorks" />
        <cc:requires
           rdf:resource="http://web.resource.org/cc/ShareAlike" />
        <cc:requires
           rdf:resource="http://web.resource.org/cc/SourceCode" />
      </cc:License>
    </rdf:RDF>
  </metadata>
  <g
     inkscape:label="back-folder"
     inkscape:groupmode="layer"
     id="layer1"
     sodipodi:insensitive="true">
    <path
       style="fill:url(#linearGradient2234);fill-opacity:1;fill-rule:evenodd;stroke:#636363;stroke-width:1.00000048px;stroke-linecap:butt;stroke-linejoin:round;stroke-opacity:1"
       d="M 14.489277,0.48134841 C 11.894672,0.9266525 7.4238038,1.1916933 3.5231863,1.0997614 L 3.5231863,7.5045969 L 1.5185033,7.5045969 L 1.5185033,13.499339 C 6.1589288,13.542689 11.005398,13.584629 14.489277,12.749023 L 14.489277,0.48134841 z "
       id="path1307"
       sodipodi:nodetypes="ccccccc" />
    <rect
       style="opacity:0.58008656;fill:url(#linearGradient2202);fill-opacity:1;stroke:none;stroke-width:1;stroke-linecap:round;stroke-linejoin:round;stroke-miterlimit:4;stroke-dasharray:none;stroke-dashoffset:0;stroke-opacity:1"
       id="rect2194"
       width="2.1539912"
       height="5"
       x="2"
       y="8" />
    <g
       id="g3118"
       style="opacity:0.18614717;fill-opacity:1;stroke:url(#linearGradient3138)"
       transform="matrix(0.323775,0,0,0.323775,0.124,1.254572e-2)">
      <path
         sodipodi:nodetypes="cc"
         id="path3092"
         d="M 9.5147102,6.4664942 C 24.575507,6.6445419 34.622174,5.7153718 43.492644,4.5264746"
         style="fill:none;fill-opacity:1;fill-rule:evenodd;stroke:url(#linearGradient1411);stroke-width:3.08856034px;stroke-linecap:butt;stroke-linejoin:miter;stroke-opacity:1" />
      <path
         style="fill:none;fill-opacity:1;fill-rule:evenodd;stroke:url(#linearGradient1415);stroke-width:3.08856034px;stroke-linecap:butt;stroke-linejoin:miter;stroke-opacity:1"
         d="M 9.5147102,12.440019 C 24.575507,12.618067 34.622174,11.688897 43.492644,10.5"
         id="path3098"
         sodipodi:nodetypes="cc" />
      <path
         style="fill:none;fill-opacity:1;fill-rule:evenodd;stroke:url(#linearGradient1419);stroke-width:3.08856034px;stroke-linecap:butt;stroke-linejoin:miter;stroke-opacity:1"
         d="M 9.5147102,18.440019 C 24.575507,18.618067 34.622174,17.688897 43.492644,16.5"
         id="path3102"
         sodipodi:nodetypes="cc" />
      <path
         style="fill:none;fill-opacity:1;fill-rule:evenodd;stroke:url(#linearGradient1423);stroke-width:3.08856034px;stroke-linecap:butt;stroke-linejoin:miter;stroke-opacity:1"
         d="M 9.5147102,24.478064 C 24.575507,24.656112 34.622174,23.726942 43.492644,22.538045"
         id="path3106"
         sodipodi:nodetypes="cc" />
      <path
         style="fill:none;fill-opacity:1;fill-rule:evenodd;stroke:url(#linearGradient1427);stroke-width:3.08855987px;stroke-linecap:butt;stroke-linejoin:miter;stroke-opacity:1"
         d="M 5.5075372,30.903706 C 22.319088,31.081754 33.533639,30.152584 43.435264,28.963687"
         id="path3110"
         sodipodi:nodetypes="cc" />
      <path
         style="fill:none;fill-opacity:1;fill-rule:evenodd;stroke:url(#linearGradient1431);stroke-width:3.08855963px;stroke-linecap:butt;stroke-linejoin:miter;stroke-opacity:1"
         d="M 5.5573856,36.440019 C 22.346831,36.618067 33.546634,35.688897 43.435239,34.5"
         id="path3114"
         sodipodi:nodetypes="cc" />
    </g>
    <path
       style="opacity:0.66233766;fill:none;fill-opacity:1;fill-rule:evenodd;stroke:url(#linearGradient2239);stroke-width:1.00000048px;stroke-linecap:butt;stroke-linejoin:round;stroke-opacity:1"
       d="M 13.908182,1.455176 C 11.58791,1.835054 8.0062606,2.2063053 4.5180648,2.1278804 L 4.5180648,8.5177759 L 2.4947525,8.5177759 L 2.4947525,12.516606 C 6.6445346,12.553586 10.79266,12.589364 13.908182,11.876531 L 13.908182,1.455176 z "
       id="path2231"
       sodipodi:nodetypes="ccccccc" />
    <g
       id="g3126"
       transform="translate(-0.185282,-34.23941)">
      <path
         sodipodi:nodetypes="csssssssccssssssscccccccsccccsccccccccccsssssccsssssccsssssccssssscccccccccccccccccccccccccccsssccsssssssccsssccccsssssccsssssccsssssccssssscccccccsccccsccccccccsssccccccssscccccsssccsssssssccsssccccccccccccccccccsssccsssssssccssscccsssccccccssscccsssccccccssscccccsssccsssssssccssscccsssccccccssscccssssscccccccssssscccsssccsssc"
         id="path3124"
         d="M 2.6696575,62.133942 C 2.6696536,61.605299 2.5602787,61.191237 2.3415325,60.891754 C 2.1253833,60.589675 1.8272065,60.438633 1.4470012,60.438629 C 1.0667906,60.438633 0.76731173,60.589675 0.54856372,60.891754 C 0.33241633,61.191237 0.22434352,61.605299 0.22434497,62.133942 C 0.22434352,62.662589 0.33241633,63.077953 0.54856372,63.380035 C 0.76731173,63.679515 1.0667906,63.829255 1.4470012,63.829254 C 1.8272065,63.829255 2.1253833,63.679515 2.3415325,63.380035 C 2.5602787,63.077953 2.6696536,62.662589 2.6696575,62.133942 M 0.22434497,60.606598 C 0.37538504,60.346185 0.56548901,60.153477 0.79465747,60.028473 C 1.0264261,59.900873 1.3024674,59.837071 1.6227825,59.837067 C 2.1540291,59.837071 2.5850182,60.048009 2.9157512,60.469879 C 3.2490801,60.891758 3.4157466,61.446445 3.4157512,62.133942 C 3.4157466,62.821443 3.2490801,63.37613 2.9157512,63.798004 C 2.5850182,64.219879 2.1540291,64.430817 1.6227825,64.430817 C 1.3024674,64.430817 1.0264261,64.368317 0.79465747,64.243317 C 0.56548901,64.115713 0.37538504,63.921703 0.22434497,63.661285 L 0.22434497,64.317535 L -0.49831128,64.317535 L -0.49831128,58.23941 L 0.22434497,58.23941 L 0.22434497,60.606598 M 6.42747,64.723785 C 6.2243426,65.244618 6.0264261,65.584461 5.83372,65.743317 C 5.6410098,65.902169 5.3831976,65.981596 5.0602825,65.981598 L 4.4860637,65.981598 L 4.4860637,65.380035 L 4.9079387,65.380035 C 5.1058541,65.380034 5.2594998,65.333159 5.3688762,65.23941 C 5.4782496,65.14566 5.5993432,64.924306 5.7321575,64.575348 L 5.8610637,64.247223 L 4.0915325,59.942535 L 4.8532512,59.942535 L 6.2204387,63.36441 L 7.5876262,59.942535 L 8.349345,59.942535 L 6.42747,64.723785 M 15.415751,58.67691 L 15.415751,59.446442 C 15.116268,59.303218 14.833716,59.196447 14.568095,59.126129 C 14.302467,59.055822 14.045957,59.020666 13.798564,59.02066 C 13.368874,59.020666 13.036843,59.103999 12.80247,59.27066 C 12.570698,59.437332 12.454812,59.674311 12.454814,59.981598 C 12.454812,60.239415 12.531635,60.434727 12.685282,60.567535 C 12.841531,60.697747 13.135801,60.803216 13.568095,60.883942 L 14.044657,60.981598 C 14.633196,61.09358 15.066789,61.291497 15.345439,61.575348 C 15.626684,61.8566 15.767309,62.234204 15.767314,62.70816 C 15.767309,63.273266 15.577205,63.701651 15.197001,63.993317 C 14.819393,64.284983 14.264706,64.430817 13.532939,64.430817 C 13.256895,64.430817 12.962624,64.399567 12.650126,64.337067 C 12.340229,64.274567 12.018615,64.182119 11.685282,64.059723 L 11.685282,63.247223 C 12.005594,63.426911 12.319396,63.562328 12.626689,63.653473 C 12.933979,63.744619 13.236062,63.790192 13.532939,63.790192 C 13.983457,63.790192 14.331113,63.701651 14.575907,63.524567 C 14.820695,63.347484 14.943091,63.09488 14.943095,62.766754 C 14.943091,62.480298 14.85455,62.25634 14.67747,62.094879 C 14.502987,61.933423 14.215227,61.81233 13.814189,61.731598 L 13.33372,61.637848 C 12.745177,61.520663 12.319396,61.33707 12.056376,61.087067 C 11.793355,60.83707 11.661844,60.489414 11.661845,60.044098 C 11.661844,59.528478 11.842834,59.122228 12.204814,58.825348 C 12.569396,58.528479 13.070697,58.380041 13.70872,58.380035 C 13.982155,58.380041 14.2608,58.404781 14.544657,58.454254 C 14.828508,58.503739 15.118872,58.577958 15.415751,58.67691 M 16.982157,59.942535 L 17.700907,59.942535 L 17.700907,64.317535 L 16.982157,64.317535 L 16.982157,59.942535 M 16.982157,58.23941 L 17.700907,58.23941 L 17.700907,59.149567 L 16.982157,59.149567 L 16.982157,58.23941 M 19.200907,58.23941 L 19.919657,58.23941 L 19.919657,64.317535 L 19.200907,64.317535 L 19.200907,58.23941 M 20.904032,59.942535 L 21.665751,59.942535 L 23.032939,63.61441 L 24.400126,59.942535 L 25.161845,59.942535 L 23.52122,64.317535 L 22.544657,64.317535 L 20.904032,59.942535 M 29.89622,61.950348 L 29.89622,62.30191 L 26.591532,62.30191 C 26.622781,62.796704 26.771219,63.174307 27.036845,63.434723 C 27.305072,63.692536 27.677468,63.821442 28.154032,63.821442 C 28.430071,63.821442 28.696998,63.787588 28.954814,63.719879 C 29.215227,63.652172 29.473039,63.550609 29.728251,63.415192 L 29.728251,64.094879 C 29.470435,64.204254 29.206112,64.287588 28.935282,64.344879 C 28.664446,64.402171 28.389707,64.430817 28.111064,64.430817 C 27.413145,64.430817 26.85976,64.227692 26.450907,63.821442 C 26.044657,63.415193 25.841532,62.865714 25.841532,62.173004 C 25.841532,61.456861 26.03424,60.889154 26.419657,60.469879 C 26.807677,60.048009 27.329812,59.837071 27.986064,59.837067 C 28.574602,59.837071 29.039445,60.027175 29.380595,60.407379 C 29.724341,60.784987 29.896215,61.299309 29.89622,61.950348 M 29.17747,61.73941 C 29.172258,61.346184 29.061581,61.032383 28.845439,60.798004 C 28.631894,60.563633 28.34804,60.446446 27.993876,60.446442 C 27.592832,60.446446 27.271218,60.559727 27.029032,60.786285 C 26.789448,61.012851 26.651427,61.331861 26.61497,61.743317 L 29.17747,61.73941 M 33.849345,60.071442 L 33.849345,60.751129 C 33.646217,60.646966 33.435279,60.568841 33.216532,60.516754 C 32.99778,60.464675 32.771218,60.438633 32.536845,60.438629 C 32.180072,60.438633 31.911843,60.493321 31.732157,60.602692 C 31.555073,60.71207 31.466531,60.876133 31.466532,61.094879 C 31.466531,61.261549 31.530333,61.393059 31.657939,61.48941 C 31.785541,61.583163 32.042052,61.673007 32.42747,61.758942 L 32.673564,61.813629 C 33.183978,61.923007 33.545956,62.077954 33.759501,62.278473 C 33.975643,62.476392 34.083716,62.753735 34.08372,63.110504 C 34.083716,63.516755 33.922258,63.838369 33.599345,64.075348 C 33.279029,64.312327 32.837624,64.430817 32.275126,64.430817 C 32.040749,64.430817 31.795958,64.407379 31.540751,64.360504 C 31.288146,64.316233 31.021219,64.248525 30.73997,64.157379 L 30.73997,63.415192 C 31.005594,63.553213 31.267313,63.65738 31.525126,63.727692 C 31.782937,63.795401 32.038145,63.829255 32.290751,63.829254 C 32.629291,63.829255 32.889707,63.771963 33.072001,63.657379 C 33.25429,63.540193 33.345436,63.37613 33.345439,63.165192 C 33.345436,62.969881 33.279029,62.820141 33.14622,62.715973 C 33.016009,62.611808 32.728249,62.511548 32.282939,62.415192 L 32.032939,62.356598 C 31.587625,62.26285 31.266011,62.119621 31.068095,61.92691 C 30.870178,61.731601 30.77122,61.464674 30.77122,61.126129 C 30.77122,60.714675 30.917053,60.396966 31.20872,60.173004 C 31.500385,59.94905 31.914448,59.837071 32.450907,59.837067 C 32.71653,59.837071 32.96653,59.856602 33.200907,59.89566 C 33.435279,59.934727 33.651425,59.993321 33.849345,60.071442 M 35.92747,58.700348 L 35.92747,59.942535 L 37.407939,59.942535 L 37.407939,60.501129 L 35.92747,60.501129 L 35.92747,62.876129 C 35.927469,63.232901 35.975646,63.462068 36.072001,63.563629 C 36.170958,63.665192 36.370176,63.715974 36.669657,63.715973 L 37.407939,63.715973 L 37.407939,64.317535 L 36.669657,64.317535 C 36.114968,64.317535 35.732156,64.214671 35.52122,64.008942 C 35.310282,63.800609 35.204813,63.423005 35.204814,62.876129 L 35.204814,60.501129 L 34.67747,60.501129 L 34.67747,59.942535 L 35.204814,59.942535 L 35.204814,58.700348 L 35.92747,58.700348 M 40.892314,60.61441 C 40.811581,60.567539 40.72304,60.533685 40.626689,60.512848 C 40.532936,60.489414 40.428769,60.477696 40.314189,60.477692 C 39.907936,60.477696 39.595437,60.610508 39.376689,60.876129 C 39.160541,61.139153 39.052469,61.518059 39.05247,62.012848 L 39.05247,64.317535 L 38.329814,64.317535 L 38.329814,59.942535 L 39.05247,59.942535 L 39.05247,60.622223 C 39.20351,60.356602 39.400124,60.159988 39.642314,60.032379 C 39.884499,59.902175 40.178769,59.837071 40.525126,59.837067 C 40.574602,59.837071 40.62929,59.840977 40.689189,59.848785 C 40.749081,59.853998 40.815488,59.863113 40.888407,59.876129 L 40.892314,60.61441 M 45.380595,61.950348 L 45.380595,62.30191 L 42.075907,62.30191 C 42.107156,62.796704 42.255594,63.174307 42.52122,63.434723 C 42.789447,63.692536 43.161843,63.821442 43.638407,63.821442 C 43.914446,63.821442 44.181373,63.787588 44.439189,63.719879 C 44.699602,63.652172 44.957414,63.550609 45.212626,63.415192 L 45.212626,64.094879 C 44.95481,64.204254 44.690487,64.287588 44.419657,64.344879 C 44.148821,64.402171 43.874082,64.430817 43.595439,64.430817 C 42.89752,64.430817 42.344135,64.227692 41.935282,63.821442 C 41.529032,63.415193 41.325907,62.865714 41.325907,62.173004 C 41.325907,61.456861 41.518615,60.889154 41.904032,60.469879 C 42.292052,60.048009 42.814187,59.837071 43.470439,59.837067 C 44.058977,59.837071 44.52382,60.027175 44.86497,60.407379 C 45.208716,60.784987 45.38059,61.299309 45.380595,61.950348 M 44.661845,61.73941 C 44.656633,61.346184 44.545956,61.032383 44.329814,60.798004 C 44.116269,60.563633 43.832415,60.446446 43.478251,60.446442 C 43.077207,60.446446 42.755593,60.559727 42.513407,60.786285 C 42.273823,61.012851 42.135802,61.331861 42.099345,61.743317 L 44.661845,61.73941 M 49.122782,58.485504 L 49.911845,58.485504 L 49.911845,60.876129 L 52.779032,60.876129 L 52.779032,58.485504 L 53.568095,58.485504 L 53.568095,64.317535 L 52.779032,64.317535 L 52.779032,61.540192 L 49.911845,61.540192 L 49.911845,64.317535 L 49.122782,64.317535 L 49.122782,58.485504 M 58.849345,61.950348 L 58.849345,62.30191 L 55.544657,62.30191 C 55.575906,62.796704 55.724344,63.174307 55.98997,63.434723 C 56.258197,63.692536 56.630593,63.821442 57.107157,63.821442 C 57.383196,63.821442 57.650123,63.787588 57.907939,63.719879 C 58.168352,63.652172 58.426164,63.550609 58.681376,63.415192 L 58.681376,64.094879 C 58.42356,64.204254 58.159237,64.287588 57.888407,64.344879 C 57.617571,64.402171 57.342832,64.430817 57.064189,64.430817 C 56.36627,64.430817 55.812885,64.227692 55.404032,63.821442 C 54.997782,63.415193 54.794657,62.865714 54.794657,62.173004 C 54.794657,61.456861 54.987365,60.889154 55.372782,60.469879 C 55.760802,60.048009 56.282937,59.837071 56.939189,59.837067 C 57.527727,59.837071 57.99257,60.027175 58.33372,60.407379 C 58.677466,60.784987 58.84934,61.299309 58.849345,61.950348 M 58.130595,61.73941 C 58.125383,61.346184 58.014706,61.032383 57.798564,60.798004 C 57.585019,60.563633 57.301165,60.446446 56.947001,60.446442 C 56.545957,60.446446 56.224343,60.559727 55.982157,60.786285 C 55.742573,61.012851 55.604552,61.331861 55.568095,61.743317 L 58.130595,61.73941 M 62.548564,60.61441 C 62.467831,60.567539 62.37929,60.533685 62.282939,60.512848 C 62.189186,60.489414 62.085019,60.477696 61.970439,60.477692 C 61.564186,60.477696 61.251687,60.610508 61.032939,60.876129 C 60.816791,61.139153 60.708719,61.518059 60.70872,62.012848 L 60.70872,64.317535 L 59.986064,64.317535 L 59.986064,59.942535 L 60.70872,59.942535 L 60.70872,60.622223 C 60.85976,60.356602 61.056374,60.159988 61.298564,60.032379 C 61.540749,59.902175 61.835019,59.837071 62.181376,59.837067 C 62.230852,59.837071 62.28554,59.840977 62.345439,59.848785 C 62.405331,59.853998 62.471738,59.863113 62.544657,59.876129 L 62.548564,60.61441 M 65.829814,60.61441 C 65.749081,60.567539 65.66054,60.533685 65.564189,60.512848 C 65.470436,60.489414 65.366269,60.477696 65.251689,60.477692 C 64.845436,60.477696 64.532937,60.610508 64.314189,60.876129 C 64.098041,61.139153 63.989969,61.518059 63.98997,62.012848 L 63.98997,64.317535 L 63.267314,64.317535 L 63.267314,59.942535 L 63.98997,59.942535 L 63.98997,60.622223 C 64.14101,60.356602 64.337624,60.159988 64.579814,60.032379 C 64.821999,59.902175 65.116269,59.837071 65.462626,59.837067 C 65.512102,59.837071 65.56679,59.840977 65.626689,59.848785 C 65.686581,59.853998 65.752988,59.863113 65.825907,59.876129 L 65.829814,60.61441 M 70.318095,61.950348 L 70.318095,62.30191 L 67.013407,62.30191 C 67.044656,62.796704 67.193094,63.174307 67.45872,63.434723 C 67.726947,63.692536 68.099343,63.821442 68.575907,63.821442 C 68.851946,63.821442 69.118873,63.787588 69.376689,63.719879 C 69.637102,63.652172 69.894914,63.550609 70.150126,63.415192 L 70.150126,64.094879 C 69.89231,64.204254 69.627987,64.287588 69.357157,64.344879 C 69.086321,64.402171 68.811582,64.430817 68.532939,64.430817 C 67.83502,64.430817 67.281635,64.227692 66.872782,63.821442 C 66.466532,63.415193 66.263407,62.865714 66.263407,62.173004 C 66.263407,61.456861 66.456115,60.889154 66.841532,60.469879 C 67.229552,60.048009 67.751687,59.837071 68.407939,59.837067 C 68.996477,59.837071 69.46132,60.027175 69.80247,60.407379 C 70.146216,60.784987 70.31809,61.299309 70.318095,61.950348 M 69.599345,61.73941 C 69.594133,61.346184 69.483456,61.032383 69.267314,60.798004 C 69.053769,60.563633 68.769915,60.446446 68.415751,60.446442 C 68.014707,60.446446 67.693093,60.559727 67.450907,60.786285 C 67.211323,61.012851 67.073302,61.331861 67.036845,61.743317 L 69.599345,61.73941 M 74.017314,60.61441 C 73.936581,60.567539 73.84804,60.533685 73.751689,60.512848 C 73.657936,60.489414 73.553769,60.477696 73.439189,60.477692 C 73.032936,60.477696 72.720437,60.610508 72.501689,60.876129 C 72.285541,61.139153 72.177469,61.518059 72.17747,62.012848 L 72.17747,64.317535 L 71.454814,64.317535 L 71.454814,59.942535 L 72.17747,59.942535 L 72.17747,60.622223 C 72.32851,60.356602 72.525124,60.159988 72.767314,60.032379 C 73.009499,59.902175 73.303769,59.837071 73.650126,59.837067 C 73.699602,59.837071 73.75429,59.840977 73.814189,59.848785 C 73.874081,59.853998 73.940488,59.863113 74.013407,59.876129 L 74.017314,60.61441 M 76.751689,62.118317 C 76.170957,62.118319 75.768614,62.184725 75.544657,62.317535 C 75.320698,62.45035 75.208719,62.676912 75.20872,62.997223 C 75.208719,63.252432 75.292052,63.455557 75.45872,63.606598 C 75.627989,63.755036 75.857156,63.829255 76.14622,63.829254 C 76.544655,63.829255 76.863665,63.68863 77.103251,63.407379 C 77.345435,63.123526 77.466529,62.747225 77.466532,62.278473 L 77.466532,62.118317 L 76.751689,62.118317 M 78.185282,61.821442 L 78.185282,64.317535 L 77.466532,64.317535 L 77.466532,63.653473 C 77.302467,63.919098 77.09804,64.115713 76.853251,64.243317 C 76.608457,64.368317 76.308978,64.430817 75.954814,64.430817 C 75.506896,64.430817 75.150125,64.305817 74.884501,64.055817 C 74.62148,63.803213 74.489969,63.465974 74.48997,63.044098 C 74.489969,62.551912 74.654032,62.180819 74.982157,61.930817 C 75.312885,61.680819 75.805072,61.55582 76.45872,61.555817 L 77.466532,61.555817 L 77.466532,61.485504 C 77.466529,61.154778 77.357154,60.89957 77.138407,60.719879 C 76.922259,60.537591 76.617572,60.446446 76.224345,60.446442 C 75.974343,60.446446 75.730854,60.476394 75.493876,60.536285 C 75.256896,60.596185 75.029031,60.686029 74.810282,60.805817 L 74.810282,60.141754 C 75.073302,60.040196 75.32851,59.964675 75.575907,59.915192 C 75.823301,59.863113 76.064187,59.837071 76.298564,59.837067 C 76.931373,59.837071 77.404029,60.001134 77.716532,60.329254 C 78.029028,60.657383 78.185278,61.154778 78.185282,61.821442"
         style="font-size:12px;font-style:normal;font-weight:normal;line-height:125%;fill:#646464;fill-opacity:1;stroke:none;stroke-width:1px;stroke-linecap:butt;stroke-linejoin:miter;stroke-opacity:1;font-family:Bitstream Vera Sans" />
    </g>
    <path
       style="font-size:8px;font-style:normal;font-variant:normal;font-weight:bold;font-stretch:normal;text-align:start;line-height:125%;writing-mode:lr-tb;text-anchor:start;fill:#000000;fill-opacity:1;stroke:none;stroke-width:1px;stroke-linecap:butt;stroke-linejoin:miter;stroke-opacity:1;font-family:Bitstream Vera Sans"
       d="M 0.98828125,18.382814 L 0.98828125,21.941408 L 1.5273438,21.941408 C 2.1419237,21.941409 2.6106732,21.789065 2.9335938,21.484377 C 3.2591101,21.179691 3.4218703,20.736983 3.421875,20.156251 C 3.4218703,19.57813 3.2604122,19.138026 2.9375,18.835939 C 2.6145795,18.53386 2.1445279,18.382819 1.5273438,18.382814 L 0.98828125,18.382814 M -0.515625,17.246095 L 1.0703125,17.246095 C 1.955726,17.246101 2.6145795,17.309903 3.046875,17.437501 C 3.4817661,17.562507 3.8541616,17.776048 4.1640625,18.078127 C 4.4374943,18.341152 4.6406191,18.644537 4.7734375,18.988283 C 4.9062438,19.332036 4.97265,19.721359 4.9726562,20.156251 C 4.97265,20.596358 4.9062438,20.989587 4.7734375,21.335939 C 4.6406191,21.67969 4.4374943,21.983076 4.1640625,22.246095 C 3.8515574,22.548179 3.4765578,22.763023 3.0390625,22.890627 C 2.6015586,23.015627 1.9453093,23.078127 1.0703125,23.078127 L -0.515625,23.078127 L -0.515625,17.246095 M 8.1445312,19.597658 C 7.834633,19.597661 7.597654,19.70964 7.4335938,19.933595 C 7.2721335,20.154952 7.1914044,20.475265 7.1914062,20.894533 C 7.1914044,21.313805 7.2721335,21.63542 7.4335938,21.859377 C 7.597654,22.080732 7.834633,22.191409 8.1445312,22.191408 C 8.4492157,22.191409 8.6822884,22.080732 8.84375,21.859377 C 9.0052047,21.63542 9.0859338,21.313805 9.0859375,20.894533 C 9.0859338,20.475265 9.0052047,20.154952 8.84375,19.933595 C 8.6822884,19.70964 8.4492157,19.597661 8.1445312,19.597658 M 8.1445312,18.597658 C 8.8971319,18.597662 9.4843709,18.800787 9.90625,19.207033 C 10.330724,19.613286 10.542964,20.175786 10.542969,20.894533 C 10.542964,21.613284 10.330724,22.175784 9.90625,22.582033 C 9.4843709,22.988283 8.8971319,23.191408 8.1445312,23.191408 C 7.3893209,23.191408 6.7981757,22.988283 6.3710938,22.582033 C 5.946614,22.175784 5.7343747,21.613284 5.734375,20.894533 C 5.7343747,20.175786 5.946614,19.613286 6.3710938,19.207033 C 6.7981757,18.800787 7.3893209,18.597662 8.1445312,18.597658 M 15.097656,18.839845 L 15.097656,19.98047 C 14.907548,19.850265 14.716142,19.753911 14.523438,19.691408 C 14.33333,19.628911 14.135413,19.597661 13.929688,19.597658 C 13.53906,19.597661 13.234373,19.712244 13.015625,19.941408 C 12.799477,20.167973 12.691404,20.485681 12.691406,20.894533 C 12.691404,21.303389 12.799477,21.622399 13.015625,21.851564 C 13.234373,22.078127 13.53906,22.191409 13.929688,22.191408 C 14.148434,22.191409 14.355465,22.158857 14.550781,22.093751 C 14.748694,22.028648 14.930986,21.932294 15.097656,21.804689 L 15.097656,22.94922 C 14.878902,23.029949 14.656246,23.089845 14.429688,23.128908 C 14.205726,23.170574 13.980466,23.191408 13.753906,23.191408 C 12.964842,23.191408 12.347655,22.989585 11.902344,22.585939 C 11.457031,22.17969 11.234375,21.615888 11.234375,20.894533 C 11.234375,20.173181 11.457031,19.610682 11.902344,19.207033 C 12.347655,18.800787 12.964842,18.597662 13.753906,18.597658 C 13.98307,18.597662 14.20833,18.618496 14.429688,18.660158 C 14.653642,18.699225 14.876298,18.75912 15.097656,18.839845 M 16.265625,21.375001 L 16.265625,18.703127 L 17.671875,18.703127 L 17.671875,19.140627 C 17.671873,19.377609 17.670571,19.675786 17.667969,20.035158 C 17.665363,20.391931 17.66406,20.630212 17.664062,20.750001 C 17.66406,21.101566 17.673175,21.355472 17.691406,21.51172 C 17.709633,21.665367 17.740883,21.777347 17.785156,21.847658 C 17.842446,21.938805 17.916664,22.009117 18.007812,22.058595 C 18.10156,22.108075 18.208331,22.132815 18.328125,22.132814 C 18.619789,22.132815 18.848955,22.020836 19.015625,21.796877 C 19.182288,21.57292 19.265621,21.261722 19.265625,20.863283 L 19.265625,18.703127 L 20.664062,18.703127 L 20.664062,23.078127 L 19.265625,23.078127 L 19.265625,22.445314 C 19.054684,22.700523 18.830726,22.889325 18.59375,23.01172 C 18.359372,23.131512 18.100258,23.191408 17.816406,23.191408 C 17.311196,23.191408 16.92578,23.03646 16.660156,22.726564 C 16.397135,22.416669 16.265624,21.966148 16.265625,21.375001 M 26.070312,19.429689 C 26.247391,19.15886 26.457026,18.953131 26.699219,18.812501 C 26.944005,18.669277 27.212234,18.597662 27.503906,18.597658 C 28.006504,18.597662 28.389316,18.75261 28.652344,19.062501 C 28.915357,19.372401 29.046867,19.822921 29.046875,20.414064 L 29.046875,23.078127 L 27.640625,23.078127 L 27.640625,20.796877 C 27.643223,20.763025 27.644525,20.727868 27.644531,20.691408 C 27.647129,20.654952 27.648431,20.602869 27.648438,20.535158 C 27.648431,20.225265 27.602858,20.001307 27.511719,19.863283 C 27.420567,19.722661 27.273432,19.652349 27.070312,19.652345 C 26.804682,19.652349 26.598953,19.761724 26.453125,19.98047 C 26.309891,20.199223 26.235672,20.515629 26.230469,20.929689 L 26.230469,23.078127 L 24.824219,23.078127 L 24.824219,20.796877 C 24.824215,20.312504 24.782549,20.001307 24.699219,19.863283 C 24.615882,19.722661 24.467445,19.652349 24.253906,19.652345 C 23.985674,19.652349 23.778643,19.763026 23.632812,19.984377 C 23.486977,20.203129 23.41406,20.516931 23.414062,20.925783 L 23.414062,23.078127 L 22.007812,23.078127 L 22.007812,18.703127 L 23.414062,18.703127 L 23.414062,19.343751 C 23.585935,19.09636 23.78255,18.910162 24.003906,18.785158 C 24.227862,18.660162 24.473955,18.597662 24.742188,18.597658 C 25.044267,18.597662 25.311194,18.670579 25.542969,18.816408 C 25.774735,18.962245 25.950516,19.166672 26.070312,19.429689 M 34.726562,20.878908 L 34.726562,21.277345 L 31.457031,21.277345 C 31.490884,21.605472 31.609373,21.851565 31.8125,22.015627 C 32.015623,22.17969 32.299477,22.261721 32.664062,22.26172 C 32.95833,22.261721 33.259111,22.218752 33.566406,22.132814 C 33.876298,22.044273 34.194006,21.911461 34.519531,21.734377 L 34.519531,22.812501 C 34.188798,22.937502 33.858069,23.031252 33.527344,23.093751 C 33.196611,23.158856 32.865882,23.191408 32.535156,23.191408 C 31.743488,23.191408 31.127603,22.990887 30.6875,22.589845 C 30.249999,22.1862 30.03125,21.621097 30.03125,20.894533 C 30.03125,20.180994 30.246093,19.619797 30.675781,19.210939 C 31.108071,18.802089 31.701821,18.597662 32.457031,18.597658 C 33.144528,18.597662 33.694006,18.804693 34.105469,19.218751 C 34.519526,19.632817 34.726557,20.186202 34.726562,20.878908 M 33.289062,20.414064 C 33.289059,20.148442 33.210934,19.9349 33.054688,19.773439 C 32.901038,19.60938 32.699216,19.527349 32.449219,19.527345 C 32.178383,19.527349 31.958331,19.604172 31.789062,19.757814 C 31.61979,19.908859 31.514321,20.127609 31.472656,20.414064 L 33.289062,20.414064 M 40.195312,20.414064 L 40.195312,23.078127 L 38.789062,23.078127 L 38.789062,22.644533 L 38.789062,21.039064 C 38.789059,20.661462 38.779944,20.401046 38.761719,20.257814 C 38.74609,20.114588 38.717444,20.009119 38.675781,19.941408 C 38.62109,19.850265 38.546872,19.779953 38.453125,19.73047 C 38.359372,19.67839 38.252601,19.652349 38.132812,19.652345 C 37.841143,19.652349 37.611977,19.76563 37.445312,19.992189 C 37.278644,20.21615 37.19531,20.527348 37.195312,20.925783 L 37.195312,23.078127 L 35.796875,23.078127 L 35.796875,18.703127 L 37.195312,18.703127 L 37.195312,19.343751 C 37.406248,19.088547 37.630206,18.901047 37.867188,18.781251 C 38.104164,18.65886 38.365882,18.597662 38.652344,18.597658 C 39.157548,18.597662 39.54036,18.75261 39.800781,19.062501 C 40.063797,19.372401 40.195307,19.822921 40.195312,20.414064 M 43.027344,17.460939 L 43.027344,18.703127 L 44.46875,18.703127 L 44.46875,19.703127 L 43.027344,19.703127 L 43.027344,21.558595 C 43.027342,21.761722 43.067706,21.899742 43.148438,21.972658 C 43.229164,22.042971 43.38932,22.078127 43.628906,22.078127 L 44.347656,22.078127 L 44.347656,23.078127 L 43.148438,23.078127 C 42.596352,23.078127 42.204426,22.963543 41.972656,22.734377 C 41.743489,22.502606 41.628905,22.11068 41.628906,21.558595 L 41.628906,19.703127 L 40.933594,19.703127 L 40.933594,18.703127 L 41.628906,18.703127 L 41.628906,17.460939 L 43.027344,17.460939 M 50.835938,18.23047 C 50.377601,18.230475 50.022133,18.399746 49.769531,18.738283 C 49.516925,19.076828 49.390623,19.55339 49.390625,20.16797 C 49.390623,20.779952 49.516925,21.255212 49.769531,21.593751 C 50.022133,21.932294 50.377601,22.101565 50.835938,22.101564 C 51.296871,22.101565 51.653642,21.932294 51.90625,21.593751 C 52.158849,21.255212 52.285151,20.779952 52.285156,20.16797 C 52.285151,19.55339 52.158849,19.076828 51.90625,18.738283 C 51.653642,18.399746 51.296871,18.230475 50.835938,18.23047 M 50.835938,17.140627 C 51.773433,17.140632 52.507807,17.408861 53.039062,17.945314 C 53.570306,18.481777 53.835931,19.222662 53.835938,20.16797 C 53.835931,21.110681 53.570306,21.850263 53.039062,22.38672 C 52.507807,22.923179 51.773433,23.191408 50.835938,23.191408 C 49.901039,23.191408 49.166665,22.923179 48.632812,22.38672 C 48.101562,21.850263 47.835937,21.110681 47.835938,20.16797 C 47.835937,19.222662 48.101562,18.481777 48.632812,17.945314 C 49.166665,17.408861 49.901039,17.140632 50.835938,17.140627 M 56.304688,22.445314 L 56.304688,24.742189 L 54.90625,24.742189 L 54.90625,18.703127 L 56.304688,18.703127 L 56.304688,19.343751 C 56.497394,19.088547 56.710935,18.901047 56.945312,18.781251 C 57.179685,18.65886 57.449216,18.597662 57.753906,18.597658 C 58.292965,18.597662 58.735673,18.812506 59.082031,19.242189 C 59.42838,19.669276 59.601557,20.220056 59.601562,20.894533 C 59.601557,21.569013 59.42838,22.121096 59.082031,22.550783 C 58.735673,22.977866 58.292965,23.191408 57.753906,23.191408 C 57.449216,23.191408 57.179685,23.131512 56.945312,23.01172 C 56.710935,22.889325 56.497394,22.700523 56.304688,22.445314 M 57.234375,19.613283 C 56.934893,19.613286 56.704425,19.723963 56.542969,19.945314 C 56.384112,20.164067 56.304685,20.480473 56.304688,20.894533 C 56.304685,21.308597 56.384112,21.626305 56.542969,21.847658 C 56.704425,22.066409 56.934893,22.175784 57.234375,22.175783 C 57.533851,22.175784 57.761715,22.066409 57.917969,21.847658 C 58.076819,21.628909 58.156246,21.311201 58.15625,20.894533 C 58.156246,20.477869 58.076819,20.160161 57.917969,19.941408 C 57.761715,19.722661 57.533851,19.613286 57.234375,19.613283 M 65.007812,20.878908 L 65.007812,21.277345 L 61.738281,21.277345 C 61.772134,21.605472 61.890623,21.851565 62.09375,22.015627 C 62.296873,22.17969 62.580727,22.261721 62.945312,22.26172 C 63.23958,22.261721 63.540361,22.218752 63.847656,22.132814 C 64.157548,22.044273 64.475256,21.911461 64.800781,21.734377 L 64.800781,22.812501 C 64.470048,22.937502 64.139319,23.031252 63.808594,23.093751 C 63.477861,23.158856 63.147132,23.191408 62.816406,23.191408 C 62.024738,23.191408 61.408853,22.990887 60.96875,22.589845 C 60.531249,22.1862 60.3125,21.621097 60.3125,20.894533 C 60.3125,20.180994 60.527343,19.619797 60.957031,19.210939 C 61.389321,18.802089 61.983071,18.597662 62.738281,18.597658 C 63.425778,18.597662 63.975256,18.804693 64.386719,19.218751 C 64.800776,19.632817 65.007807,20.186202 65.007812,20.878908 M 63.570312,20.414064 C 63.570309,20.148442 63.492184,19.9349 63.335938,19.773439 C 63.182288,19.60938 62.980466,19.527349 62.730469,19.527345 C 62.459633,19.527349 62.239581,19.604172 62.070312,19.757814 C 61.90104,19.908859 61.795571,20.127609 61.753906,20.414064 L 63.570312,20.414064 M 70.476562,20.414064 L 70.476562,23.078127 L 69.070312,23.078127 L 69.070312,22.644533 L 69.070312,21.039064 C 69.070309,20.661462 69.061194,20.401046 69.042969,20.257814 C 69.02734,20.114588 68.998694,20.009119 68.957031,19.941408 C 68.90234,19.850265 68.828122,19.779953 68.734375,19.73047 C 68.640622,19.67839 68.533851,19.652349 68.414062,19.652345 C 68.122393,19.652349 67.893227,19.76563 67.726562,19.992189 C 67.559894,20.21615 67.47656,20.527348 67.476562,20.925783 L 67.476562,23.078127 L 66.078125,23.078127 L 66.078125,18.703127 L 67.476562,18.703127 L 67.476562,19.343751 C 67.687498,19.088547 67.911456,18.901047 68.148438,18.781251 C 68.385414,18.65886 68.647132,18.597662 68.933594,18.597658 C 69.438798,18.597662 69.82161,18.75261 70.082031,19.062501 C 70.345047,19.372401 70.476557,19.822921 70.476562,20.414064"
       id="text1399" />
  </g>
  <g
     inkscape:groupmode="layer"
     id="layer4"
     inkscape:label="sheet"
     sodipodi:insensitive="true">
    <g
       id="g1475"
       transform="matrix(0.241598,-4.212948e-2,0,0.240813,2.8875,3.88351)">
      <g
         inkscape:label="Layer 1"
         id="g1477"
         transform="matrix(1.009412,7.140163e-8,0,1.01033,0.140184,-0.903695)">
        <rect
           y="2.4883716"
           x="6.4731984"
           height="41.023247"
           width="35.040318"
           id="rect1379"
           style="opacity:1;fill:#fcfcfc;fill-opacity:1;stroke:#969696;stroke-width:4.10533905;stroke-linecap:round;stroke-linejoin:round;stroke-miterlimit:4;stroke-dasharray:none;stroke-dashoffset:0;stroke-opacity:1" />
      </g>
      <rect
         transform="matrix(0.999997,-2.273229e-3,0,1,0,0)"
         y="6.0914378"
         x="14.047098"
         height="2.8873167"
         width="20.646112"
         id="rect2270"
         style="fill:#000000;fill-opacity:0.17647059;stroke:none;stroke-width:1;stroke-linecap:round;stroke-linejoin:round;stroke-miterlimit:4;stroke-dasharray:none;stroke-dashoffset:0;stroke-opacity:1" />
      <rect
         transform="matrix(0.999997,-2.273229e-3,0,1,0,0)"
         y="12.009543"
         x="14.047098"
         height="2.8873167"
         width="20.646112"
         id="rect2272"
         style="fill:#000000;fill-opacity:0.17647059;stroke:none;stroke-width:1;stroke-linecap:round;stroke-linejoin:round;stroke-miterlimit:4;stroke-dasharray:none;stroke-dashoffset:0;stroke-opacity:1" />
      <rect
         transform="matrix(0.999997,-2.273229e-3,0,1,0,0)"
         y="17.927649"
         x="14.047098"
         height="2.8873167"
         width="20.646112"
         id="rect2274"
         style="fill:#000000;fill-opacity:0.17647059;stroke:none;stroke-width:1;stroke-linecap:round;stroke-linejoin:round;stroke-miterlimit:4;stroke-dasharray:none;stroke-dashoffset:0;stroke-opacity:1" />
      <rect
         transform="matrix(0.999997,-2.273229e-3,0,1,0,0)"
         y="23.845755"
         x="14.047098"
         height="2.8873167"
         width="20.646112"
         id="rect2276"
         style="fill:#000000;fill-opacity:0.17647059;stroke:none;stroke-width:1;stroke-linecap:round;stroke-linejoin:round;stroke-miterlimit:4;stroke-dasharray:none;stroke-dashoffset:0;stroke-opacity:1" />
      <rect
         transform="matrix(0.999997,-2.273229e-3,0,1,0,0)"
         y="29.763859"
         x="14.047098"
         height="2.8873167"
         width="20.646112"
         id="rect2278"
         style="fill:#000000;fill-opacity:0.17647059;stroke:none;stroke-width:1;stroke-linecap:round;stroke-linejoin:round;stroke-miterlimit:4;stroke-dasharray:none;stroke-dashoffset:0;stroke-opacity:1" />
      <rect
         style="fill:#000000;fill-opacity:0.17647059;stroke:none;stroke-width:1;stroke-linecap:round;stroke-linejoin:round;stroke-miterlimit:4;stroke-dasharray:none;stroke-dashoffset:0;stroke-opacity:1"
         id="rect1535"
         width="20.646112"
         height="2.8873167"
         x="14.047098"
         y="35.681965"
         transform="matrix(0.999997,-2.273229e-3,0,1,0,0)" />
      <g
         inkscape:label="lights"
         id="g1495"
         transform="matrix(0.898235,-1.43089e-5,0,0.912342,2.775458,1.324479)">
        <rect
           y="2.8130999"
           x="6.8219028"
           height="40.186901"
           width="34.178097"
           id="rect2256"
           style="opacity:1;fill:url(#linearGradient2293);fill-opacity:1;stroke:none;stroke-width:1.00000036;stroke-linecap:round;stroke-linejoin:round;stroke-miterlimit:4;stroke-dasharray:none;stroke-dashoffset:0;stroke-opacity:1" />
        <rect
           y="3.4996946"
           x="7.4918699"
           height="39.013073"
           width="33.022804"
           id="rect2254"
           style="opacity:1;fill:none;fill-opacity:1;stroke:#ffffff;stroke-width:4.57974195;stroke-linecap:round;stroke-linejoin:round;stroke-miterlimit:4;stroke-dasharray:none;stroke-dashoffset:0;stroke-opacity:1" />
      </g>
    </g>
    <path
       style="fill:url(#linearGradient2229);fill-opacity:1;fill-rule:evenodd;stroke:none;stroke-width:0.99999958px;stroke-linecap:butt;stroke-linejoin:round;stroke-opacity:1"
       d="M 14,0.98387204 C 12.959112,2.6245125 8.6162671,2.9888253 5,3.3706683 L 5,14.658443 C 5.0026065,14.658407 5.0092851,14.658443 5.0092851,14.658443 L 7.9904234,16 L 13.006493,14.658443 C 13.053551,14.658443 13.101859,14.668445 13.14577,14.679288 C 13.150648,14.680492 13.150223,14.677958 13.155055,14.679288 C 13.328441,14.552998 13.482871,14.412838 13.610026,14.26238 L 14,0.98387204 z "
       id="path2236"
       sodipodi:nodetypes="ccccccsscc" />
  </g>
  <g
     inkscape:groupmode="layer"
     id="layer3"
     inkscape:label="folder-color">
    <path
       style="fill:#dfbc7a;fill-opacity:1;fill-rule:evenodd;stroke:#807148;stroke-width:1.00000036px;stroke-linecap:butt;stroke-linejoin:round;stroke-opacity:1"
       d="M 14.500642,0.50133474 C 13.623337,2.1051237 10.536958,2.4566008 7.4890138,2.8298669 L 7.4890138,15.498661 C 9.405892,15.191276 12.364205,14.567227 14.500642,13.485862 L 14.500642,0.50133474 z "
       id="path2182"
       sodipodi:nodetypes="ccccc" />
  </g>
  <g
     inkscape:groupmode="layer"
     id="layer2"
     inkscape:label="lights"
     sodipodi:insensitive="true">
    <path
       style="fill:url(#radialGradient1372);fill-opacity:1;fill-rule:evenodd;stroke:none;stroke-width:0.99999905px;stroke-linecap:butt;stroke-linejoin:round;stroke-opacity:1"
       d="M 14,2 C 12.987241,3.0812821 10.608192,3.5077537 8,3.8628673 L 8,14.900744 C 10.586648,14.4465 12.722027,13.850533 14,13.13181 L 14,2 z "
       id="path2252"
       sodipodi:nodetypes="ccccc" />
    <path
       style="fill:url(#radialGradient1374);fill-opacity:1;fill-rule:evenodd;stroke:none;stroke-width:0.99999905px;stroke-linecap:butt;stroke-linejoin:round;stroke-opacity:1"
       d="M 14,2 C 12.987241,3.257999 10.608191,3.4828246 8,3.8330807 L 8,15 C 10.571368,14.508203 12.818648,13.849735 14,13.255262 L 14,2 z "
       id="path1364"
       sodipodi:nodetypes="ccccc" />
    <path
       style="fill:none;fill-opacity:1;fill-rule:evenodd;stroke:url(#linearGradient1376);stroke-width:0.99999928px;stroke-linecap:butt;stroke-linejoin:round;stroke-opacity:1"
       d="M 13.52514,2.4686257 C 12.311492,3.1910963 10.631844,3.2900419 8.4428981,3.6588603 L 8.4428981,14.510386 C 10.682515,14.030306 12.534866,13.424384 13.52514,12.807214 L 13.52514,2.4686257 z "
       id="path2204"
       sodipodi:nodetypes="ccccc" />
  </g>
</svg>
