<?xml version="1.0" encoding="UTF-8" standalone="no"?>
<!-- Created with Inkscape (http://www.inkscape.org/) -->
<svg
   xmlns:dc="http://purl.org/dc/elements/1.1/"
   xmlns:cc="http://web.resource.org/cc/"
   xmlns:rdf="http://www.w3.org/1999/02/22-rdf-syntax-ns#"
   xmlns:svg="http://www.w3.org/2000/svg"
   xmlns="http://www.w3.org/2000/svg"
   xmlns:xlink="http://www.w3.org/1999/xlink"
   xmlns:sodipodi="http://sodipodi.sourceforge.net/DTD/sodipodi-0.dtd"
   xmlns:inkscape="http://www.inkscape.org/namespaces/inkscape"
   width="16"
   height="16"
   id="svg2"
   sodipodi:version="0.32"
   inkscape:version="0.45+devel"
   version="1.0"
   sodipodi:docbase="/home/silvestre/.icons/Gion/16x16/actions/SVGs"
   sodipodi:docname="go-previous.svg"
   inkscape:export-filename="/home/silvestre/.icons/Gion/16x16/actions/go-previous.png"
   inkscape:export-xdpi="90"
   inkscape:export-ydpi="90"
   inkscape:output_extension="org.inkscape.output.svg.inkscape"
   sodipodi:modified="TRUE">
  <defs
     id="defs4">
    <linearGradient
       inkscape:collect="always"
       id="linearGradient2218">
      <stop
         style="stop-color:#000000;stop-opacity:1;"
         offset="0"
         id="stop2220" />
      <stop
         style="stop-color:#000000;stop-opacity:0;"
         offset="1"
         id="stop2222" />
    </linearGradient>
    <linearGradient
       id="linearGradient2204">
      <stop
         style="stop-color:#000000;stop-opacity:0"
         offset="0"
         id="stop2206" />
      <stop
         id="stop2212"
         offset="0.5"
         style="stop-color:#000000;stop-opacity:0;" />
      <stop
         style="stop-color:#000000;stop-opacity:0.06060606;"
         offset="0.75"
         id="stop2214" />
      <stop
         style="stop-color:#000000;stop-opacity:0.24892704"
         offset="1"
         id="stop2208" />
    </linearGradient>
    <linearGradient
       id="linearGradient2196"
       inkscape:collect="always">
      <stop
         id="stop2198"
         offset="0"
         style="stop-color:#ffffff;stop-opacity:1;" />
      <stop
         id="stop2200"
         offset="1"
         style="stop-color:#ffffff;stop-opacity:0" />
    </linearGradient>
    <linearGradient
       inkscape:collect="always"
       id="linearGradient2184">
      <stop
         style="stop-color:#ffffff;stop-opacity:1;"
         offset="0"
         id="stop2186" />
      <stop
         style="stop-color:#ffffff;stop-opacity:0;"
         offset="1"
         id="stop2188" />
    </linearGradient>
    <radialGradient
       inkscape:collect="always"
       xlink:href="#linearGradient2196"
       id="radialGradient2190"
       cx="23.821341"
       cy="19.220688"
       fx="23.821341"
       fy="11.559587"
       r="20.724566"
       gradientUnits="userSpaceOnUse" />
    <radialGradient
       inkscape:collect="always"
       xlink:href="#linearGradient2184"
       id="radialGradient2194"
       gradientUnits="userSpaceOnUse"
       cx="21.955513"
       cy="41.559357"
       fx="21.955513"
       fy="43.898674"
       r="20.724566"
       gradientTransform="matrix(0.592713,-6.494147e-8,6.494147e-8,0.592713,10.80802,15.56962)" />
    <radialGradient
       inkscape:collect="always"
       xlink:href="#linearGradient2204"
       id="radialGradient2210"
       cx="20.053436"
       cy="19.070505"
       fx="20.053436"
       fy="19.070505"
       r="20.724566"
       gradientUnits="userSpaceOnUse"
       gradientTransform="matrix(1.602242,0,0,1.602242,-13.98654,-13.89271)" />
    <radialGradient
       inkscape:collect="always"
       xlink:href="#linearGradient2218"
       id="radialGradient2224"
       cx="24.416874"
       cy="42.401985"
       fx="24.416874"
       fy="60.86256"
       r="23.702232"
       gradientTransform="matrix(1,0,0,0.226131,3.447627e-16,32.8136)"
       gradientUnits="userSpaceOnUse" />
  </defs>
  <sodipodi:namedview
     id="base"
     pagecolor="#ffffff"
     bordercolor="#666666"
     borderopacity="1.0"
     inkscape:pageopacity="0.0"
     inkscape:pageshadow="2"
     inkscape:zoom="1"
     inkscape:cx="8"
     inkscape:cy="7.5"
     inkscape:document-units="px"
     inkscape:current-layer="layer2"
     inkscape:showpageshadow="false"
     showgrid="false"
     inkscape:grid-bbox="false"
     inkscape:window-width="897"
     inkscape:window-height="619"
     inkscape:window-x="83"
     inkscape:window-y="129"
     showborder="false"
     showguides="true"
     inkscape:guide-bbox="true" />
  <metadata
     id="metadata7">
    <rdf:RDF>
      <cc:Work
         rdf:about="">
        <dc:format>image/svg+xml</dc:format>
        <dc:type
           rdf:resource="http://purl.org/dc/dcmitype/StillImage" />
        <dc:title>Go Previous</dc:title>
        <dc:creator>
          <cc:Agent>
            <dc:title>Silvestre Herrera</dc:title>
          </cc:Agent>
        </dc:creator>
        <cc:license
           rdf:resource="http://creativecommons.org/licenses/GPL/2.0/" />
      </cc:Work>
      <cc:License
         rdf:about="http://creativecommons.org/licenses/GPL/2.0/">
        <cc:permits
           rdf:resource="http://web.resource.org/cc/Reproduction" />
        <cc:permits
           rdf:resource="http://web.resource.org/cc/Distribution" />
        <cc:requires
           rdf:resource="http://web.resource.org/cc/Notice" />
        <cc:permits
           rdf:resource="http://web.resource.org/cc/DerivativeWorks" />
        <cc:requires
           rdf:resource="http://web.resource.org/cc/ShareAlike" />
        <cc:requires
           rdf:resource="http://web.resource.org/cc/SourceCode" />
      </cc:License>
    </rdf:RDF>
  </metadata>
  <g
     inkscape:label="Capa 1"
     inkscape:groupmode="layer"
     id="layer1">
    <path
       sodipodi:type="arc"
       style="opacity:0.37229435;fill:url(#radialGradient2224);fill-opacity:1;stroke:none;stroke-width:1;stroke-linecap:round;stroke-linejoin:miter;stroke-miterlimit:4;stroke-dasharray:none;stroke-dashoffset:0;stroke-opacity:1"
       id="path2216"
       sodipodi:cx="24.416874"
       sodipodi:cy="42.401985"
       sodipodi:rx="23.702232"
       sodipodi:ry="5.3598013"
       d="M 48.119106 42.401985 A 23.702232 5.3598013 0 1 1  0.71464157,42.401985 A 23.702232 5.3598013 0 1 1  48.119106 42.401985 z"
       transform="matrix(0.337521,0,0,0.364091,-0.241204,-1.389632)" />
    <path
       sodipodi:type="arc"
       style="opacity:1;fill:#75c922;fill-opacity:1;stroke:#4c8b3c;stroke-width:2.76129818;stroke-linecap:round;stroke-linejoin:miter;stroke-miterlimit:4;stroke-dasharray:none;stroke-dashoffset:0;stroke-opacity:1"
       id="path1307"
       sodipodi:cx="23.821341"
       sodipodi:cy="23.821341"
       sodipodi:rx="20.724566"
       sodipodi:ry="20.724566"
       d="M 44.545906 23.821341 A 20.724566 20.724566 0 1 1  3.0967751,23.821341 A 20.724566 20.724566 0 1 1  44.545906 23.821341 z"
       transform="matrix(0.362004,0,0,0.362294,-0.625405,-0.630329)" />
    <path
       style="opacity:1;fill:#ffffff;fill-opacity:1;stroke:none;stroke-width:1;stroke-linecap:round;stroke-linejoin:miter;stroke-miterlimit:4;stroke-dasharray:none;stroke-dashoffset:0;stroke-opacity:0.63948502"
       d="M 2.999176,8.004979 C 2.999176,8.3831345 3.408783,8.7655713 3.408783,8.7655713 L 4.485873,9.7714427 L 7.9536855,13.009958 L 9.8452207,11.243494 L 8.1605714,9.670237 L 11.298743,9.6702378 C 13.569543,9.670237 13.588965,6.3514102 11.298743,6.3514104 L 8.1605721,6.3514103 L 9.84522,4.766464 L 7.9536855,3 L 4.377504,6.3397195 L 3.408783,7.2529508 C 3.408783,7.2529508 2.999176,7.6268235 2.999176,8.004979 z "
       id="rect2226"
       sodipodi:nodetypes="cccccccccccccs" />
    <path
       style="font-size:8px;font-style:normal;font-variant:normal;font-weight:bold;font-stretch:normal;text-align:start;line-height:125%;writing-mode:lr-tb;text-anchor:start;fill:#000000;fill-opacity:1;stroke:none;stroke-width:1px;stroke-linecap:butt;stroke-linejoin:miter;stroke-opacity:1;font-family:Bitstream Vera Sans"
       d="M 5.578125,23.343749 C 5.2031194,23.526041 4.8137969,23.66276 4.4101562,23.753905 C 4.006506,23.845051 3.5898398,23.890624 3.1601562,23.890624 C 2.1887995,23.890624 1.419269,23.619791 0.8515625,23.078124 C 0.28385348,22.533854 -3.984375e-07,21.796876 0,20.867186 C -3.984375e-07,19.927086 0.28906181,19.187504 0.8671875,18.648436 C 1.4453107,18.10938 2.2369765,17.839849 3.2421875,17.839843 C 3.6302043,17.839849 4.0012977,17.876307 4.3554688,17.949218 C 4.7122345,18.02214 5.0481716,18.130213 5.3632812,18.273436 L 5.3632812,19.480468 C 5.037755,19.295576 4.7135366,19.157556 4.390625,19.066405 C 4.070308,18.975264 3.7486938,18.929691 3.4257812,18.929686 C 2.8268197,18.929691 2.3645806,19.09766 2.0390625,19.433593 C 1.7161437,19.76693 1.5546855,20.244794 1.5546875,20.867186 C 1.5546855,21.484376 1.7109354,21.960938 2.0234375,22.296874 C 2.3359348,22.632813 2.7799447,22.800781 3.3554688,22.80078 C 3.5117148,22.800781 3.6562459,22.791667 3.7890625,22.773436 C 3.9244748,22.752604 4.0455685,22.721354 4.1523438,22.679686 L 4.1523438,21.546874 L 3.234375,21.546874 L 3.234375,20.539062 L 5.578125,20.539062 L 5.578125,23.343749 M 8.9179688,20.296874 C 8.6080705,20.296877 8.3710915,20.408857 8.2070312,20.632812 C 8.045571,20.854169 7.9648419,21.174481 7.9648438,21.593749 C 7.9648419,22.013022 8.045571,22.334636 8.2070312,22.558593 C 8.3710915,22.779948 8.6080705,22.890625 8.9179688,22.890624 C 9.2226532,22.890625 9.4557259,22.779948 9.6171875,22.558593 C 9.7786422,22.334636 9.8593713,22.013022 9.859375,21.593749 C 9.8593713,21.174481 9.7786422,20.854169 9.6171875,20.632812 C 9.4557259,20.408857 9.2226532,20.296877 8.9179688,20.296874 M 8.9179688,19.296874 C 9.6705694,19.296878 10.257808,19.500003 10.679688,19.906249 C 11.104162,20.312502 11.316401,20.875002 11.316406,21.593749 C 11.316401,22.3125 11.104162,22.875 10.679688,23.281249 C 10.257808,23.687499 9.6705694,23.890624 8.9179688,23.890624 C 8.1627584,23.890624 7.5716132,23.687499 7.1445312,23.281249 C 6.7200515,22.875 6.5078122,22.3125 6.5078125,21.593749 C 6.5078122,20.875002 6.7200515,20.312502 7.1445312,19.906249 C 7.5716132,19.500003 8.1627584,19.296878 8.9179688,19.296874"
       id="text2253"
       sodipodi:nodetypes="csssssssccssssssscccccccsssssssccsssssssc" />
    <path
       style="font-size:8px;font-style:normal;font-variant:normal;font-weight:normal;font-stretch:normal;text-align:start;line-height:125%;writing-mode:lr-tb;text-anchor:start;fill:#646464;fill-opacity:1;stroke:none;stroke-width:1px;stroke-linecap:butt;stroke-linejoin:miter;stroke-opacity:1;font-family:Bitstream Vera Sans"
       d="M 3.4960938,28.593749 C 3.4960899,28.065106 3.386715,27.651044 3.1679688,27.351562 C 2.9518196,27.049482 2.6536428,26.89844 2.2734375,26.898436 C 1.8932269,26.89844 1.593748,27.049482 1.375,27.351562 C 1.1588526,27.651044 1.0507798,28.065106 1.0507812,28.593749 C 1.0507798,29.122396 1.1588526,29.537761 1.375,29.839843 C 1.593748,30.139323 1.8932269,30.289062 2.2734375,30.289062 C 2.6536428,30.289062 2.9518196,30.139323 3.1679688,29.839843 C 3.386715,29.537761 3.4960899,29.122396 3.4960938,28.593749 M 1.0507812,27.066405 C 1.2018213,26.805993 1.3919253,26.613284 1.6210938,26.48828 C 1.8528623,26.36068 2.1289037,26.296878 2.4492188,26.296874 C 2.9804654,26.296878 3.4114545,26.507816 3.7421875,26.929686 C 4.0755164,27.351565 4.2421829,27.906252 4.2421875,28.593749 C 4.2421829,29.28125 4.0755164,29.835937 3.7421875,30.257812 C 3.4114545,30.679687 2.9804654,30.890624 2.4492188,30.890624 C 2.1289037,30.890624 1.8528623,30.828124 1.6210938,30.703124 C 1.3919253,30.57552 1.2018213,30.38151 1.0507812,30.121093 L 1.0507812,30.777343 L 0.328125,30.777343 L 0.328125,24.699218 L 1.0507812,24.699218 L 1.0507812,27.066405 M 7.2539062,31.183593 C 7.0507789,31.704425 6.8528624,32.044269 6.6601562,32.203124 C 6.4674461,32.361977 6.2096339,32.441404 5.8867188,32.441405 L 5.3125,32.441405 L 5.3125,31.839843 L 5.734375,31.839843 C 5.9322904,31.839842 6.0859361,31.792967 6.1953125,31.699218 C 6.3046859,31.605467 6.4257795,31.384113 6.5585938,31.035155 L 6.6875,30.70703 L 4.9179688,26.402343 L 5.6796875,26.402343 L 7.046875,29.824218 L 8.4140625,26.402343 L 9.1757812,26.402343 L 7.2539062,31.183593 M 16.242188,25.136718 L 16.242188,25.906249 C 15.942704,25.763025 15.660153,25.656254 15.394531,25.585936 C 15.128903,25.515629 14.872393,25.480473 14.625,25.480468 C 14.19531,25.480473 13.863279,25.563806 13.628906,25.730468 C 13.397134,25.897139 13.281249,26.134118 13.28125,26.441405 C 13.281249,26.699222 13.358072,26.894534 13.511719,27.027343 C 13.667967,27.157555 13.962238,27.263023 14.394531,27.343749 L 14.871094,27.441405 C 15.459632,27.553388 15.893225,27.751304 16.171875,28.035155 C 16.453121,28.316408 16.593745,28.694011 16.59375,29.167968 C 16.593745,29.733073 16.403641,30.161458 16.023438,30.453124 C 15.64583,30.744791 15.091143,30.890624 14.359375,30.890624 C 14.083331,30.890624 13.789061,30.859374 13.476562,30.796874 C 13.166665,30.734374 12.845051,30.641926 12.511719,30.51953 L 12.511719,29.70703 C 12.83203,29.886719 13.145832,30.022135 13.453125,30.11328 C 13.760415,30.204427 14.062498,30.25 14.359375,30.249999 C 14.809893,30.25 15.157549,30.161458 15.402344,29.984374 C 15.647132,29.807292 15.769527,29.554688 15.769531,29.226562 C 15.769527,28.940105 15.680986,28.716147 15.503906,28.554686 C 15.329424,28.393231 15.041664,28.272137 14.640625,28.191405 L 14.160156,28.097655 C 13.571613,27.980471 13.145832,27.796877 12.882812,27.546874 C 12.619791,27.296877 12.488281,26.949222 12.488281,26.503905 C 12.488281,25.988285 12.66927,25.582035 13.03125,25.285155 C 13.395832,24.988286 13.897133,24.839849 14.535156,24.839843 C 14.808591,24.839849 15.087236,24.864588 15.371094,24.914062 C 15.654944,24.963546 15.945309,25.037765 16.242188,25.136718 M 17.808594,26.402343 L 18.527344,26.402343 L 18.527344,30.777343 L 17.808594,30.777343 L 17.808594,26.402343 M 17.808594,24.699218 L 18.527344,24.699218 L 18.527344,25.609374 L 17.808594,25.609374 L 17.808594,24.699218 M 20.027344,24.699218 L 20.746094,24.699218 L 20.746094,30.777343 L 20.027344,30.777343 L 20.027344,24.699218 M 21.730469,26.402343 L 22.492188,26.402343 L 23.859375,30.074218 L 25.226562,26.402343 L 25.988281,26.402343 L 24.347656,30.777343 L 23.371094,30.777343 L 21.730469,26.402343 M 30.722656,28.410155 L 30.722656,28.761718 L 27.417969,28.761718 C 27.449218,29.256511 27.597655,29.634115 27.863281,29.89453 C 28.131509,30.152343 28.503904,30.281249 28.980469,30.281249 C 29.256507,30.281249 29.523434,30.247395 29.78125,30.179686 C 30.041663,30.111979 30.299475,30.010416 30.554688,29.874999 L 30.554688,30.554686 C 30.296871,30.664062 30.032548,30.747395 29.761719,30.804686 C 29.490882,30.861978 29.216143,30.890624 28.9375,30.890624 C 28.239581,30.890624 27.686196,30.687499 27.277344,30.281249 C 26.871093,29.875 26.667968,29.325521 26.667969,28.632812 C 26.667968,27.916669 26.860676,27.348961 27.246094,26.929686 C 27.634113,26.507816 28.156248,26.296878 28.8125,26.296874 C 29.401038,26.296878 29.865882,26.486982 30.207031,26.867186 C 30.550777,27.244794 30.722652,27.759117 30.722656,28.410155 M 30.003906,28.199218 C 29.998694,27.805992 29.888017,27.49219 29.671875,27.257812 C 29.45833,27.02344 29.174476,26.906253 28.820312,26.906249 C 28.419269,26.906253 28.097654,27.019534 27.855469,27.246093 C 27.615884,27.472659 27.477863,27.791669 27.441406,28.203124 L 30.003906,28.199218 M 34.675781,26.531249 L 34.675781,27.210936 C 34.472653,27.106774 34.261716,27.028649 34.042969,26.976562 C 33.824216,26.924482 33.597654,26.89844 33.363281,26.898436 C 33.006509,26.89844 32.73828,26.953128 32.558594,27.062499 C 32.381509,27.171878 32.292968,27.33594 32.292969,27.554686 C 32.292968,27.721356 32.35677,27.852867 32.484375,27.949218 C 32.611978,28.04297 32.868488,28.132814 33.253906,28.218749 L 33.5,28.273436 C 34.010414,28.382814 34.372393,28.537762 34.585938,28.73828 C 34.80208,28.936199 34.910152,29.213542 34.910156,29.570312 C 34.910152,29.976562 34.748694,30.298177 34.425781,30.535155 C 34.105466,30.772134 33.66406,30.890624 33.101562,30.890624 C 32.867186,30.890624 32.622394,30.867186 32.367188,30.820312 C 32.114582,30.776041 31.847656,30.708332 31.566406,30.617186 L 31.566406,29.874999 C 31.832031,30.013021 32.093749,30.117187 32.351562,30.187499 C 32.609374,30.255208 32.864582,30.289062 33.117188,30.289062 C 33.455727,30.289062 33.716143,30.23177 33.898438,30.117186 C 34.080726,30 34.171872,29.835937 34.171875,29.624999 C 34.171872,29.429688 34.105466,29.279948 33.972656,29.17578 C 33.842445,29.071615 33.554685,28.971355 33.109375,28.874999 L 32.859375,28.816405 C 32.414061,28.722657 32.092447,28.579428 31.894531,28.386718 C 31.696614,28.191408 31.597656,27.924481 31.597656,27.585936 C 31.597656,27.174482 31.743489,26.856774 32.035156,26.632812 C 32.326822,26.408858 32.740884,26.296878 33.277344,26.296874 C 33.542966,26.296878 33.792966,26.31641 34.027344,26.355468 C 34.261716,26.394535 34.477861,26.453128 34.675781,26.531249 M 36.753906,25.160155 L 36.753906,26.402343 L 38.234375,26.402343 L 38.234375,26.960936 L 36.753906,26.960936 L 36.753906,29.335936 C 36.753905,29.692708 36.802082,29.921875 36.898438,30.023436 C 36.997394,30.125 37.196613,30.175781 37.496094,30.17578 L 38.234375,30.17578 L 38.234375,30.777343 L 37.496094,30.777343 C 36.941405,30.777343 36.558592,30.674478 36.347656,30.468749 C 36.136718,30.260416 36.031249,29.882812 36.03125,29.335936 L 36.03125,26.960936 L 35.503906,26.960936 L 35.503906,26.402343 L 36.03125,26.402343 L 36.03125,25.160155 L 36.753906,25.160155 M 41.71875,27.074218 C 41.638018,27.027346 41.549476,26.993492 41.453125,26.972655 C 41.359372,26.949222 41.255206,26.937503 41.140625,26.937499 C 40.734373,26.937503 40.421873,27.070315 40.203125,27.335936 C 39.986978,27.598961 39.878905,27.977866 39.878906,28.472655 L 39.878906,30.777343 L 39.15625,30.777343 L 39.15625,26.402343 L 39.878906,26.402343 L 39.878906,27.08203 C 40.029946,26.816409 40.226561,26.619795 40.46875,26.492186 C 40.710935,26.361983 41.005206,26.296878 41.351562,26.296874 C 41.401039,26.296878 41.455726,26.300785 41.515625,26.308593 C 41.575518,26.313806 41.641924,26.32292 41.714844,26.335936 L 41.71875,27.074218 M 46.207031,28.410155 L 46.207031,28.761718 L 42.902344,28.761718 C 42.933593,29.256511 43.08203,29.634115 43.347656,29.89453 C 43.615884,30.152343 43.988279,30.281249 44.464844,30.281249 C 44.740882,30.281249 45.007809,30.247395 45.265625,30.179686 C 45.526038,30.111979 45.78385,30.010416 46.039062,29.874999 L 46.039062,30.554686 C 45.781246,30.664062 45.516923,30.747395 45.246094,30.804686 C 44.975257,30.861978 44.700518,30.890624 44.421875,30.890624 C 43.723956,30.890624 43.170571,30.687499 42.761719,30.281249 C 42.355468,29.875 42.152343,29.325521 42.152344,28.632812 C 42.152343,27.916669 42.345051,27.348961 42.730469,26.929686 C 43.118488,26.507816 43.640623,26.296878 44.296875,26.296874 C 44.885413,26.296878 45.350257,26.486982 45.691406,26.867186 C 46.035152,27.244794 46.207027,27.759117 46.207031,28.410155 M 45.488281,28.199218 C 45.483069,27.805992 45.372392,27.49219 45.15625,27.257812 C 44.942705,27.02344 44.658851,26.906253 44.304688,26.906249 C 43.903644,26.906253 43.582029,27.019534 43.339844,27.246093 C 43.100259,27.472659 42.962238,27.791669 42.925781,28.203124 L 45.488281,28.199218 M 49.949219,24.945312 L 50.738281,24.945312 L 50.738281,27.335936 L 53.605469,27.335936 L 53.605469,24.945312 L 54.394531,24.945312 L 54.394531,30.777343 L 53.605469,30.777343 L 53.605469,27.999999 L 50.738281,27.999999 L 50.738281,30.777343 L 49.949219,30.777343 L 49.949219,24.945312 M 59.675781,28.410155 L 59.675781,28.761718 L 56.371094,28.761718 C 56.402343,29.256511 56.55078,29.634115 56.816406,29.89453 C 57.084634,30.152343 57.457029,30.281249 57.933594,30.281249 C 58.209632,30.281249 58.476559,30.247395 58.734375,30.179686 C 58.994788,30.111979 59.2526,30.010416 59.507812,29.874999 L 59.507812,30.554686 C 59.249996,30.664062 58.985673,30.747395 58.714844,30.804686 C 58.444007,30.861978 58.169268,30.890624 57.890625,30.890624 C 57.192706,30.890624 56.639321,30.687499 56.230469,30.281249 C 55.824218,29.875 55.621093,29.325521 55.621094,28.632812 C 55.621093,27.916669 55.813801,27.348961 56.199219,26.929686 C 56.587238,26.507816 57.109373,26.296878 57.765625,26.296874 C 58.354163,26.296878 58.819007,26.486982 59.160156,26.867186 C 59.503902,27.244794 59.675777,27.759117 59.675781,28.410155 M 58.957031,28.199218 C 58.951819,27.805992 58.841142,27.49219 58.625,27.257812 C 58.411455,27.02344 58.127601,26.906253 57.773438,26.906249 C 57.372394,26.906253 57.050779,27.019534 56.808594,27.246093 C 56.569009,27.472659 56.430988,27.791669 56.394531,28.203124 L 58.957031,28.199218 M 63.375,27.074218 C 63.294268,27.027346 63.205726,26.993492 63.109375,26.972655 C 63.015622,26.949222 62.911456,26.937503 62.796875,26.937499 C 62.390623,26.937503 62.078123,27.070315 61.859375,27.335936 C 61.643228,27.598961 61.535155,27.977866 61.535156,28.472655 L 61.535156,30.777343 L 60.8125,30.777343 L 60.8125,26.402343 L 61.535156,26.402343 L 61.535156,27.08203 C 61.686196,26.816409 61.882811,26.619795 62.125,26.492186 C 62.367185,26.361983 62.661456,26.296878 63.007812,26.296874 C 63.057289,26.296878 63.111976,26.300785 63.171875,26.308593 C 63.231768,26.313806 63.298174,26.32292 63.371094,26.335936 L 63.375,27.074218 M 66.65625,27.074218 C 66.575518,27.027346 66.486976,26.993492 66.390625,26.972655 C 66.296872,26.949222 66.192706,26.937503 66.078125,26.937499 C 65.671873,26.937503 65.359373,27.070315 65.140625,27.335936 C 64.924478,27.598961 64.816405,27.977866 64.816406,28.472655 L 64.816406,30.777343 L 64.09375,30.777343 L 64.09375,26.402343 L 64.816406,26.402343 L 64.816406,27.08203 C 64.967446,26.816409 65.164061,26.619795 65.40625,26.492186 C 65.648435,26.361983 65.942706,26.296878 66.289062,26.296874 C 66.338539,26.296878 66.393226,26.300785 66.453125,26.308593 C 66.513018,26.313806 66.579424,26.32292 66.652344,26.335936 L 66.65625,27.074218 M 71.144531,28.410155 L 71.144531,28.761718 L 67.839844,28.761718 C 67.871093,29.256511 68.01953,29.634115 68.285156,29.89453 C 68.553384,30.152343 68.925779,30.281249 69.402344,30.281249 C 69.678382,30.281249 69.945309,30.247395 70.203125,30.179686 C 70.463538,30.111979 70.72135,30.010416 70.976562,29.874999 L 70.976562,30.554686 C 70.718746,30.664062 70.454423,30.747395 70.183594,30.804686 C 69.912757,30.861978 69.638018,30.890624 69.359375,30.890624 C 68.661456,30.890624 68.108071,30.687499 67.699219,30.281249 C 67.292968,29.875 67.089843,29.325521 67.089844,28.632812 C 67.089843,27.916669 67.282551,27.348961 67.667969,26.929686 C 68.055988,26.507816 68.578123,26.296878 69.234375,26.296874 C 69.822913,26.296878 70.287757,26.486982 70.628906,26.867186 C 70.972652,27.244794 71.144527,27.759117 71.144531,28.410155 M 70.425781,28.199218 C 70.420569,27.805992 70.309892,27.49219 70.09375,27.257812 C 69.880205,27.02344 69.596351,26.906253 69.242188,26.906249 C 68.841144,26.906253 68.519529,27.019534 68.277344,27.246093 C 68.037759,27.472659 67.899738,27.791669 67.863281,28.203124 L 70.425781,28.199218 M 74.84375,27.074218 C 74.763018,27.027346 74.674476,26.993492 74.578125,26.972655 C 74.484372,26.949222 74.380206,26.937503 74.265625,26.937499 C 73.859373,26.937503 73.546873,27.070315 73.328125,27.335936 C 73.111978,27.598961 73.003905,27.977866 73.003906,28.472655 L 73.003906,30.777343 L 72.28125,30.777343 L 72.28125,26.402343 L 73.003906,26.402343 L 73.003906,27.08203 C 73.154946,26.816409 73.351561,26.619795 73.59375,26.492186 C 73.835935,26.361983 74.130206,26.296878 74.476562,26.296874 C 74.526039,26.296878 74.580726,26.300785 74.640625,26.308593 C 74.700518,26.313806 74.766924,26.32292 74.839844,26.335936 L 74.84375,27.074218 M 77.578125,28.578124 C 76.997394,28.578126 76.59505,28.644532 76.371094,28.777343 C 76.147134,28.910157 76.035155,29.136719 76.035156,29.45703 C 76.035155,29.71224 76.118488,29.915364 76.285156,30.066405 C 76.454425,30.214843 76.683592,30.289062 76.972656,30.289062 C 77.371091,30.289062 77.690101,30.148437 77.929688,29.867186 C 78.171872,29.583334 78.292965,29.207032 78.292969,28.73828 L 78.292969,28.578124 L 77.578125,28.578124 M 79.011719,28.281249 L 79.011719,30.777343 L 78.292969,30.777343 L 78.292969,30.11328 C 78.128903,30.378906 77.924476,30.57552 77.679688,30.703124 C 77.434893,30.828124 77.135414,30.890624 76.78125,30.890624 C 76.333332,30.890624 75.976561,30.765624 75.710938,30.515624 C 75.447916,30.26302 75.316406,29.925781 75.316406,29.503905 C 75.316406,29.01172 75.480468,28.640626 75.808594,28.390624 C 76.139322,28.140627 76.631509,28.015627 77.285156,28.015624 L 78.292969,28.015624 L 78.292969,27.945312 C 78.292965,27.614585 78.18359,27.359377 77.964844,27.179686 C 77.748695,26.997399 77.444008,26.906253 77.050781,26.906249 C 76.800779,26.906253 76.55729,26.936201 76.320312,26.996093 C 76.083332,27.055992 75.855468,27.145836 75.636719,27.265624 L 75.636719,26.601562 C 75.899739,26.500003 76.154947,26.424483 76.402344,26.374999 C 76.649738,26.32292 76.890623,26.296878 77.125,26.296874 C 77.75781,26.296878 78.230465,26.460941 78.542969,26.789062 C 78.855465,27.11719 79.011715,27.614585 79.011719,28.281249"
       id="text2257" />
    <path
       style="font-size:8px;font-style:normal;font-variant:normal;font-weight:bold;font-stretch:normal;text-align:start;line-height:125%;writing-mode:lr-tb;text-anchor:start;fill:#000000;fill-opacity:1;stroke:none;stroke-width:1px;stroke-linecap:butt;stroke-linejoin:miter;stroke-opacity:1;font-family:Bitstream Vera Sans"
       d="M 14.859375,18.042969 L 17.355469,18.042969 C 18.097652,18.042975 18.666662,18.208339 19.0625,18.539062 C 19.460932,18.867193 19.660151,19.335942 19.660156,19.945312 C 19.660151,20.557295 19.460932,21.028649 19.0625,21.359375 C 18.666662,21.687502 18.097652,21.851565 17.355469,21.851562 L 16.363281,21.851562 L 16.363281,23.875 L 14.859375,23.875 L 14.859375,18.042969 M 16.363281,19.132812 L 16.363281,20.761719 L 17.195312,20.761719 C 17.486976,20.761722 17.712236,20.691409 17.871094,20.550781 C 18.029944,20.407556 18.109371,20.205733 18.109375,19.945312 C 18.109371,19.6849 18.029944,19.484379 17.871094,19.34375 C 17.712236,19.20313 17.486976,19.132817 17.195312,19.132812 L 16.363281,19.132812 M 23.90625,20.691406 C 23.78385,20.634118 23.661455,20.592451 23.539062,20.566406 C 23.419267,20.537764 23.298174,20.523441 23.175781,20.523438 C 22.816403,20.523441 22.53906,20.639326 22.34375,20.871094 C 22.151039,21.100263 22.054685,21.42969 22.054688,21.859375 L 22.054688,23.875 L 20.65625,23.875 L 20.65625,19.5 L 22.054688,19.5 L 22.054688,20.21875 C 22.234373,19.932296 22.440102,19.723962 22.671875,19.59375 C 22.906247,19.460942 23.186195,19.394536 23.511719,19.394531 C 23.55859,19.394536 23.609371,19.39714 23.664062,19.402344 C 23.718746,19.404952 23.798173,19.412765 23.902344,19.425781 L 23.90625,20.691406 M 28.976562,21.675781 L 28.976562,22.074219 L 25.707031,22.074219 C 25.740884,22.402345 25.859373,22.648439 26.0625,22.8125 C 26.265623,22.976563 26.549477,23.058595 26.914062,23.058594 C 27.20833,23.058595 27.509111,23.015626 27.816406,22.929688 C 28.126298,22.841147 28.444006,22.708334 28.769531,22.53125 L 28.769531,23.609375 C 28.438798,23.734375 28.108069,23.828125 27.777344,23.890625 C 27.446611,23.955729 27.115882,23.988281 26.785156,23.988281 C 25.993488,23.988281 25.377603,23.787761 24.9375,23.386719 C 24.499999,22.983074 24.28125,22.41797 24.28125,21.691406 C 24.28125,20.977867 24.496093,20.41667 24.925781,20.007812 C 25.358071,19.598963 25.951821,19.394536 26.707031,19.394531 C 27.394528,19.394536 27.944006,19.601567 28.355469,20.015625 C 28.769526,20.429691 28.976557,20.983076 28.976562,21.675781 M 27.539062,21.210938 C 27.539059,20.945315 27.460934,20.731774 27.304688,20.570312 C 27.151038,20.406253 26.949216,20.324222 26.699219,20.324219 C 26.428383,20.324222 26.208331,20.401045 26.039062,20.554688 C 25.86979,20.705732 25.764321,20.924482 25.722656,21.210938 L 27.539062,21.210938 M 29.496094,19.5 L 30.894531,19.5 L 31.984375,22.523438 L 33.070312,19.5 L 34.472656,19.5 L 32.75,23.875 L 31.214844,23.875 L 29.496094,19.5 M 35.265625,19.5 L 36.664062,19.5 L 36.664062,23.875 L 35.265625,23.875 L 35.265625,19.5 M 35.265625,17.796875 L 36.664062,17.796875 L 36.664062,18.9375 L 35.265625,18.9375 L 35.265625,17.796875 M 40.097656,20.394531 C 39.787758,20.394535 39.550779,20.506514 39.386719,20.730469 C 39.225259,20.951826 39.144529,21.272138 39.144531,21.691406 C 39.144529,22.110679 39.225259,22.432293 39.386719,22.65625 C 39.550779,22.877605 39.787758,22.988282 40.097656,22.988281 C 40.402341,22.988282 40.635413,22.877605 40.796875,22.65625 C 40.95833,22.432293 41.039059,22.110679 41.039062,21.691406 C 41.039059,21.272138 40.95833,20.951826 40.796875,20.730469 C 40.635413,20.506514 40.402341,20.394535 40.097656,20.394531 M 40.097656,19.394531 C 40.850257,19.394536 41.437496,19.597661 41.859375,20.003906 C 42.283849,20.41016 42.496089,20.972659 42.496094,21.691406 C 42.496089,22.410158 42.283849,22.972657 41.859375,23.378906 C 41.437496,23.785156 40.850257,23.988281 40.097656,23.988281 C 39.342446,23.988281 38.751301,23.785156 38.324219,23.378906 C 37.899739,22.972657 37.6875,22.410158 37.6875,21.691406 C 37.6875,20.972659 37.899739,20.41016 38.324219,20.003906 C 38.751301,19.597661 39.342446,19.394536 40.097656,19.394531 M 43.46875,22.171875 L 43.46875,19.5 L 44.875,19.5 L 44.875,19.9375 C 44.874998,20.174483 44.873696,20.47266 44.871094,20.832031 C 44.868488,21.188805 44.867185,21.427086 44.867188,21.546875 C 44.867185,21.898439 44.8763,22.152345 44.894531,22.308594 C 44.912758,22.462241 44.944008,22.57422 44.988281,22.644531 C 45.045571,22.735678 45.119789,22.805991 45.210938,22.855469 C 45.304685,22.904949 45.411456,22.929688 45.53125,22.929688 C 45.822914,22.929688 46.05208,22.817709 46.21875,22.59375 C 46.385413,22.369793 46.468746,22.058596 46.46875,21.660156 L 46.46875,19.5 L 47.867188,19.5 L 47.867188,23.875 L 46.46875,23.875 L 46.46875,23.242188 C 46.257809,23.497396 46.033851,23.686198 45.796875,23.808594 C 45.562497,23.928385 45.303383,23.988281 45.019531,23.988281 C 44.514321,23.988281 44.128905,23.833333 43.863281,23.523438 C 43.60026,23.213542 43.468749,22.763022 43.46875,22.171875 M 52.636719,19.636719 L 52.636719,20.699219 C 52.337236,20.574222 52.048174,20.480472 51.769531,20.417969 C 51.490882,20.355472 51.227862,20.324222 50.980469,20.324219 C 50.714842,20.324222 50.516925,20.358076 50.386719,20.425781 C 50.259113,20.490889 50.195311,20.592451 50.195312,20.730469 C 50.195311,20.842451 50.243488,20.928388 50.339844,20.988281 C 50.4388,21.04818 50.614581,21.092451 50.867188,21.121094 L 51.113281,21.15625 C 51.829424,21.247398 52.311194,21.397138 52.558594,21.605469 C 52.805985,21.813804 52.929683,22.140627 52.929688,22.585938 C 52.929683,23.052084 52.757808,23.402344 52.414062,23.636719 C 52.070309,23.871094 51.557289,23.988281 50.875,23.988281 C 50.585935,23.988281 50.286457,23.964844 49.976562,23.917969 C 49.66927,23.873698 49.352864,23.80599 49.027344,23.714844 L 49.027344,22.652344 C 49.305989,22.787762 49.591145,22.889324 49.882812,22.957031 C 50.177082,23.02474 50.475258,23.058595 50.777344,23.058594 C 51.050779,23.058595 51.256508,23.020834 51.394531,22.945312 C 51.532549,22.869793 51.601559,22.757814 51.601562,22.609375 C 51.601559,22.484376 51.553382,22.391929 51.457031,22.332031 C 51.363278,22.269533 51.174477,22.221356 50.890625,22.1875 L 50.644531,22.15625 C 50.022134,22.078127 49.585936,21.933596 49.335938,21.722656 C 49.085937,21.511721 48.960937,21.191409 48.960938,20.761719 C 48.960937,20.298181 49.119791,19.954431 49.4375,19.730469 C 49.755207,19.506515 50.242186,19.394536 50.898438,19.394531 C 51.156247,19.394536 51.42708,19.414067 51.710938,19.453125 C 51.994788,19.492192 52.303382,19.55339 52.636719,19.636719"
       id="text1435" />
  </g>
  <g
     inkscape:groupmode="layer"
     id="layer2"
     inkscape:label="lights">
    <path
       sodipodi:type="arc"
       style="opacity:0.7;fill:url(#radialGradient2190);fill-opacity:1;stroke:none;stroke-width:1.06165099;stroke-linecap:round;stroke-linejoin:miter;stroke-miterlimit:4;stroke-dasharray:none;stroke-dashoffset:0;stroke-opacity:1"
       id="path2182"
       sodipodi:cx="23.821341"
       sodipodi:cy="23.821341"
       sodipodi:rx="20.724566"
       sodipodi:ry="20.724566"
       d="M 44.545906,23.821341 A 20.724566,20.724566 0 1 1 3.0967751,23.821341 A 20.724566,20.724566 0 1 1 44.545906,23.821341 z"
       transform="matrix(0.337763,0,0,0.337763,-4.597783e-2,-4.597883e-2)" />
    <path
       sodipodi:type="arc"
       style="opacity:1;fill:url(#radialGradient2210);fill-opacity:1;stroke:none;stroke-width:1.06165099;stroke-linecap:round;stroke-linejoin:miter;stroke-miterlimit:4;stroke-dasharray:none;stroke-dashoffset:0;stroke-opacity:1"
       id="path2202"
       sodipodi:cx="23.821341"
       sodipodi:cy="23.821341"
       sodipodi:rx="20.724566"
       sodipodi:ry="20.724566"
       d="M 44.545906,23.821341 A 20.724566,20.724566 0 1 1 3.0967751,23.821341 A 20.724566,20.724566 0 1 1 44.545906,23.821341 z"
       transform="matrix(0.337763,0,0,0.337763,-4.5976e-2,-4.597721e-2)" />
    <path
       sodipodi:type="arc"
       style="opacity:1;fill:none;fill-opacity:1;stroke:#ffffff;stroke-width:3.19151568;stroke-linecap:round;stroke-linejoin:miter;stroke-miterlimit:4;stroke-dasharray:none;stroke-dashoffset:0;stroke-opacity:0.63948502"
       id="path2233"
       sodipodi:cx="23.821341"
       sodipodi:cy="23.821341"
       sodipodi:rx="20.724566"
       sodipodi:ry="20.724566"
       d="M 44.545906,23.821341 A 20.724566,20.724566 0 1 1 3.0967751,23.821341 A 20.724566,20.724566 0 1 1 44.545906,23.821341 z"
       transform="matrix(0.313526,0,0,0.313135,0.527072,0.535957)" />
  </g>
</svg>
