<?xml version="1.0" encoding="UTF-8" standalone="no"?>
<!-- Created with Inkscape (http://www.inkscape.org/) -->
<svg
   xmlns:dc="http://purl.org/dc/elements/1.1/"
   xmlns:cc="http://web.resource.org/cc/"
   xmlns:rdf="http://www.w3.org/1999/02/22-rdf-syntax-ns#"
   xmlns:svg="http://www.w3.org/2000/svg"
   xmlns="http://www.w3.org/2000/svg"
   xmlns:xlink="http://www.w3.org/1999/xlink"
   xmlns:sodipodi="http://sodipodi.sourceforge.net/DTD/sodipodi-0.dtd"
   xmlns:inkscape="http://www.inkscape.org/namespaces/inkscape"
   width="16"
   height="16"
   id="svg2"
   sodipodi:version="0.32"
   inkscape:version="0.45+devel"
   version="1.0"
   sodipodi:docbase="/home/silvestre/.icons/Gion/16x16/actions/SVGs"
   sodipodi:docname="go-up.svg"
   inkscape:export-filename="/home/silvestre/.icons/Gion/16x16/actions/go-up.png"
   inkscape:export-xdpi="90"
   inkscape:export-ydpi="90"
   inkscape:output_extension="org.inkscape.output.svg.inkscape"
   sodipodi:modified="TRUE">
  <defs
     id="defs4">
    <linearGradient
       inkscape:collect="always"
       id="linearGradient2218">
      <stop
         style="stop-color:#000000;stop-opacity:1;"
         offset="0"
         id="stop2220" />
      <stop
         style="stop-color:#000000;stop-opacity:0;"
         offset="1"
         id="stop2222" />
    </linearGradient>
    <linearGradient
       id="linearGradient2204">
      <stop
         style="stop-color:#000000;stop-opacity:0"
         offset="0"
         id="stop2206" />
      <stop
         id="stop2212"
         offset="0.5"
         style="stop-color:#000000;stop-opacity:0;" />
      <stop
         style="stop-color:#000000;stop-opacity:0.06060606;"
         offset="0.75"
         id="stop2214" />
      <stop
         style="stop-color:#000000;stop-opacity:0.24892704"
         offset="1"
         id="stop2208" />
    </linearGradient>
    <linearGradient
       id="linearGradient2196"
       inkscape:collect="always">
      <stop
         id="stop2198"
         offset="0"
         style="stop-color:#ffffff;stop-opacity:1;" />
      <stop
         id="stop2200"
         offset="1"
         style="stop-color:#ffffff;stop-opacity:0" />
    </linearGradient>
    <linearGradient
       inkscape:collect="always"
       id="linearGradient2184">
      <stop
         style="stop-color:#ffffff;stop-opacity:1;"
         offset="0"
         id="stop2186" />
      <stop
         style="stop-color:#ffffff;stop-opacity:0;"
         offset="1"
         id="stop2188" />
    </linearGradient>
    <radialGradient
       inkscape:collect="always"
       xlink:href="#linearGradient2196"
       id="radialGradient2190"
       cx="23.821341"
       cy="19.220688"
       fx="23.821341"
       fy="11.559587"
       r="20.724566"
       gradientUnits="userSpaceOnUse" />
    <radialGradient
       inkscape:collect="always"
       xlink:href="#linearGradient2184"
       id="radialGradient2194"
       gradientUnits="userSpaceOnUse"
       cx="21.955513"
       cy="41.559357"
       fx="21.955513"
       fy="43.898674"
       r="20.724566"
       gradientTransform="matrix(0.592713,-6.494147e-8,6.494147e-8,0.592713,10.80802,15.56962)" />
    <radialGradient
       inkscape:collect="always"
       xlink:href="#linearGradient2204"
       id="radialGradient2210"
       cx="20.053436"
       cy="19.070505"
       fx="20.053436"
       fy="19.070505"
       r="20.724566"
       gradientUnits="userSpaceOnUse"
       gradientTransform="matrix(1.602242,0,0,1.602242,-13.98654,-13.89271)" />
    <radialGradient
       inkscape:collect="always"
       xlink:href="#linearGradient2218"
       id="radialGradient2224"
       cx="24.416874"
       cy="42.401985"
       fx="24.416874"
       fy="60.86256"
       r="23.702232"
       gradientTransform="matrix(1,0,0,0.226131,3.447627e-16,32.8136)"
       gradientUnits="userSpaceOnUse" />
  </defs>
  <sodipodi:namedview
     id="base"
     pagecolor="#ffffff"
     bordercolor="#666666"
     borderopacity="1.0"
     inkscape:pageopacity="0.0"
     inkscape:pageshadow="2"
     inkscape:zoom="1"
     inkscape:cx="8"
     inkscape:cy="7.5"
     inkscape:document-units="px"
     inkscape:current-layer="layer2"
     inkscape:showpageshadow="false"
     showgrid="false"
     inkscape:grid-bbox="false"
     inkscape:window-width="897"
     inkscape:window-height="619"
     inkscape:window-x="6"
     inkscape:window-y="44"
     showborder="false" />
  <metadata
     id="metadata7">
    <rdf:RDF>
      <cc:Work
         rdf:about="">
        <dc:format>image/svg+xml</dc:format>
        <dc:type
           rdf:resource="http://purl.org/dc/dcmitype/StillImage" />
        <dc:title>Go Up</dc:title>
        <dc:creator>
          <cc:Agent>
            <dc:title>Silvestre Herrera</dc:title>
          </cc:Agent>
        </dc:creator>
        <cc:license
           rdf:resource="http://creativecommons.org/licenses/GPL/2.0/" />
      </cc:Work>
      <cc:License
         rdf:about="http://creativecommons.org/licenses/GPL/2.0/">
        <cc:permits
           rdf:resource="http://web.resource.org/cc/Reproduction" />
        <cc:permits
           rdf:resource="http://web.resource.org/cc/Distribution" />
        <cc:requires
           rdf:resource="http://web.resource.org/cc/Notice" />
        <cc:permits
           rdf:resource="http://web.resource.org/cc/DerivativeWorks" />
        <cc:requires
           rdf:resource="http://web.resource.org/cc/ShareAlike" />
        <cc:requires
           rdf:resource="http://web.resource.org/cc/SourceCode" />
      </cc:License>
    </rdf:RDF>
  </metadata>
  <g
     inkscape:label="Capa 1"
     inkscape:groupmode="layer"
     id="layer1">
    <path
       sodipodi:type="arc"
       style="opacity:0.37229435;fill:url(#radialGradient2224);fill-opacity:1;stroke:none;stroke-width:1;stroke-linecap:round;stroke-linejoin:miter;stroke-miterlimit:4;stroke-dasharray:none;stroke-dashoffset:0;stroke-opacity:1"
       id="path2216"
       sodipodi:cx="24.416874"
       sodipodi:cy="42.401985"
       sodipodi:rx="23.702232"
       sodipodi:ry="5.3598013"
       d="M 48.119106 42.401985 A 23.702232 5.3598013 0 1 1  0.71464157,42.401985 A 23.702232 5.3598013 0 1 1  48.119106 42.401985 z"
       transform="matrix(0.337521,0,0,0.364091,-0.241204,-1.389632)" />
    <path
       sodipodi:type="arc"
       style="opacity:1;fill:#75c922;fill-opacity:1;stroke:#4c8b3c;stroke-width:2.76129818;stroke-linecap:round;stroke-linejoin:miter;stroke-miterlimit:4;stroke-dasharray:none;stroke-dashoffset:0;stroke-opacity:1"
       id="path1307"
       sodipodi:cx="23.821341"
       sodipodi:cy="23.821341"
       sodipodi:rx="20.724566"
       sodipodi:ry="20.724566"
       d="M 44.545906 23.821341 A 20.724566 20.724566 0 1 1  3.0967751,23.821341 A 20.724566 20.724566 0 1 1  44.545906 23.821341 z"
       transform="matrix(0.362004,0,0,0.362294,-0.625405,-0.630329)" />
    <path
       style="opacity:1;fill:#ffffff;fill-opacity:1;stroke:none;stroke-width:1;stroke-linecap:round;stroke-linejoin:miter;stroke-miterlimit:4;stroke-dasharray:none;stroke-dashoffset:0;stroke-opacity:0.63948502"
       d="M 8.004155,3 C 7.6259995,3 7.2435627,3.409607 7.2435627,3.409607 L 6.2376913,4.486697 L 2.999176,7.9545095 L 4.76564,9.8460447 L 6.338897,8.1613954 L 6.3388962,11.299567 C 6.338897,13.570367 9.6577238,13.589789 9.6577236,11.299567 L 9.6577237,8.1613961 L 11.24267,9.846044 L 13.009134,7.9545095 L 9.6694145,4.378328 L 8.7561832,3.409607 C 8.7561832,3.409607 8.3823105,3 8.004155,3 z "
       id="rect2226"
       sodipodi:nodetypes="cccccccccccccs" />
    <path
       style="font-size:8px;font-style:normal;font-variant:normal;font-weight:bold;font-stretch:normal;text-align:start;line-height:125%;writing-mode:lr-tb;text-anchor:start;fill:#000000;fill-opacity:1;stroke:none;stroke-width:1px;stroke-linecap:butt;stroke-linejoin:miter;stroke-opacity:1;font-family:Bitstream Vera Sans"
       d="M 5.578125,23.343749 C 5.2031194,23.526041 4.8137969,23.66276 4.4101562,23.753905 C 4.006506,23.845051 3.5898398,23.890624 3.1601562,23.890624 C 2.1887995,23.890624 1.419269,23.619791 0.8515625,23.078124 C 0.28385348,22.533854 -3.984375e-07,21.796876 0,20.867186 C -3.984375e-07,19.927086 0.28906181,19.187504 0.8671875,18.648436 C 1.4453107,18.10938 2.2369765,17.839849 3.2421875,17.839843 C 3.6302043,17.839849 4.0012977,17.876307 4.3554688,17.949218 C 4.7122345,18.02214 5.0481716,18.130213 5.3632812,18.273436 L 5.3632812,19.480468 C 5.037755,19.295576 4.7135366,19.157556 4.390625,19.066405 C 4.070308,18.975264 3.7486938,18.929691 3.4257812,18.929686 C 2.8268197,18.929691 2.3645806,19.09766 2.0390625,19.433593 C 1.7161437,19.76693 1.5546855,20.244794 1.5546875,20.867186 C 1.5546855,21.484376 1.7109354,21.960938 2.0234375,22.296874 C 2.3359348,22.632813 2.7799447,22.800781 3.3554688,22.80078 C 3.5117148,22.800781 3.6562459,22.791667 3.7890625,22.773436 C 3.9244748,22.752604 4.0455685,22.721354 4.1523438,22.679686 L 4.1523438,21.546874 L 3.234375,21.546874 L 3.234375,20.539062 L 5.578125,20.539062 L 5.578125,23.343749 M 8.9179688,20.296874 C 8.6080705,20.296877 8.3710915,20.408857 8.2070312,20.632812 C 8.045571,20.854169 7.9648419,21.174481 7.9648438,21.593749 C 7.9648419,22.013022 8.045571,22.334636 8.2070312,22.558593 C 8.3710915,22.779948 8.6080705,22.890625 8.9179688,22.890624 C 9.2226532,22.890625 9.4557259,22.779948 9.6171875,22.558593 C 9.7786422,22.334636 9.8593713,22.013022 9.859375,21.593749 C 9.8593713,21.174481 9.7786422,20.854169 9.6171875,20.632812 C 9.4557259,20.408857 9.2226532,20.296877 8.9179688,20.296874 M 8.9179688,19.296874 C 9.6705694,19.296878 10.257808,19.500003 10.679688,19.906249 C 11.104162,20.312502 11.316401,20.875002 11.316406,21.593749 C 11.316401,22.3125 11.104162,22.875 10.679688,23.281249 C 10.257808,23.687499 9.6705694,23.890624 8.9179688,23.890624 C 8.1627584,23.890624 7.5716132,23.687499 7.1445312,23.281249 C 6.7200515,22.875 6.5078122,22.3125 6.5078125,21.593749 C 6.5078122,20.875002 6.7200515,20.312502 7.1445312,19.906249 C 7.5716132,19.500003 8.1627584,19.296878 8.9179688,19.296874"
       id="text2253"
       sodipodi:nodetypes="csssssssccssssssscccccccsssssssccsssssssc" />
    <path
       style="font-size:8px;font-style:normal;font-variant:normal;font-weight:normal;font-stretch:normal;text-align:start;line-height:125%;writing-mode:lr-tb;text-anchor:start;fill:#646464;fill-opacity:1;stroke:none;stroke-width:1px;stroke-linecap:butt;stroke-linejoin:miter;stroke-opacity:1;font-family:Bitstream Vera Sans"
       d="M 3.4960938,28.593749 C 3.4960899,28.065106 3.386715,27.651044 3.1679688,27.351562 C 2.9518196,27.049482 2.6536428,26.89844 2.2734375,26.898436 C 1.8932269,26.89844 1.593748,27.049482 1.375,27.351562 C 1.1588526,27.651044 1.0507798,28.065106 1.0507812,28.593749 C 1.0507798,29.122396 1.1588526,29.537761 1.375,29.839843 C 1.593748,30.139323 1.8932269,30.289062 2.2734375,30.289062 C 2.6536428,30.289062 2.9518196,30.139323 3.1679688,29.839843 C 3.386715,29.537761 3.4960899,29.122396 3.4960938,28.593749 M 1.0507812,27.066405 C 1.2018213,26.805993 1.3919253,26.613284 1.6210938,26.48828 C 1.8528623,26.36068 2.1289037,26.296878 2.4492188,26.296874 C 2.9804654,26.296878 3.4114545,26.507816 3.7421875,26.929686 C 4.0755164,27.351565 4.2421829,27.906252 4.2421875,28.593749 C 4.2421829,29.28125 4.0755164,29.835937 3.7421875,30.257812 C 3.4114545,30.679687 2.9804654,30.890624 2.4492188,30.890624 C 2.1289037,30.890624 1.8528623,30.828124 1.6210938,30.703124 C 1.3919253,30.57552 1.2018213,30.38151 1.0507812,30.121093 L 1.0507812,30.777343 L 0.328125,30.777343 L 0.328125,24.699218 L 1.0507812,24.699218 L 1.0507812,27.066405 M 7.2539062,31.183593 C 7.0507789,31.704425 6.8528624,32.044269 6.6601562,32.203124 C 6.4674461,32.361977 6.2096339,32.441404 5.8867188,32.441405 L 5.3125,32.441405 L 5.3125,31.839843 L 5.734375,31.839843 C 5.9322904,31.839842 6.0859361,31.792967 6.1953125,31.699218 C 6.3046859,31.605467 6.4257795,31.384113 6.5585938,31.035155 L 6.6875,30.70703 L 4.9179688,26.402343 L 5.6796875,26.402343 L 7.046875,29.824218 L 8.4140625,26.402343 L 9.1757812,26.402343 L 7.2539062,31.183593 M 16.242188,25.136718 L 16.242188,25.906249 C 15.942704,25.763025 15.660153,25.656254 15.394531,25.585936 C 15.128903,25.515629 14.872393,25.480473 14.625,25.480468 C 14.19531,25.480473 13.863279,25.563806 13.628906,25.730468 C 13.397134,25.897139 13.281249,26.134118 13.28125,26.441405 C 13.281249,26.699222 13.358072,26.894534 13.511719,27.027343 C 13.667967,27.157555 13.962238,27.263023 14.394531,27.343749 L 14.871094,27.441405 C 15.459632,27.553388 15.893225,27.751304 16.171875,28.035155 C 16.453121,28.316408 16.593745,28.694011 16.59375,29.167968 C 16.593745,29.733073 16.403641,30.161458 16.023438,30.453124 C 15.64583,30.744791 15.091143,30.890624 14.359375,30.890624 C 14.083331,30.890624 13.789061,30.859374 13.476562,30.796874 C 13.166665,30.734374 12.845051,30.641926 12.511719,30.51953 L 12.511719,29.70703 C 12.83203,29.886719 13.145832,30.022135 13.453125,30.11328 C 13.760415,30.204427 14.062498,30.25 14.359375,30.249999 C 14.809893,30.25 15.157549,30.161458 15.402344,29.984374 C 15.647132,29.807292 15.769527,29.554688 15.769531,29.226562 C 15.769527,28.940105 15.680986,28.716147 15.503906,28.554686 C 15.329424,28.393231 15.041664,28.272137 14.640625,28.191405 L 14.160156,28.097655 C 13.571613,27.980471 13.145832,27.796877 12.882812,27.546874 C 12.619791,27.296877 12.488281,26.949222 12.488281,26.503905 C 12.488281,25.988285 12.66927,25.582035 13.03125,25.285155 C 13.395832,24.988286 13.897133,24.839849 14.535156,24.839843 C 14.808591,24.839849 15.087236,24.864588 15.371094,24.914062 C 15.654944,24.963546 15.945309,25.037765 16.242188,25.136718 M 17.808594,26.402343 L 18.527344,26.402343 L 18.527344,30.777343 L 17.808594,30.777343 L 17.808594,26.402343 M 17.808594,24.699218 L 18.527344,24.699218 L 18.527344,25.609374 L 17.808594,25.609374 L 17.808594,24.699218 M 20.027344,24.699218 L 20.746094,24.699218 L 20.746094,30.777343 L 20.027344,30.777343 L 20.027344,24.699218 M 21.730469,26.402343 L 22.492188,26.402343 L 23.859375,30.074218 L 25.226562,26.402343 L 25.988281,26.402343 L 24.347656,30.777343 L 23.371094,30.777343 L 21.730469,26.402343 M 30.722656,28.410155 L 30.722656,28.761718 L 27.417969,28.761718 C 27.449218,29.256511 27.597655,29.634115 27.863281,29.89453 C 28.131509,30.152343 28.503904,30.281249 28.980469,30.281249 C 29.256507,30.281249 29.523434,30.247395 29.78125,30.179686 C 30.041663,30.111979 30.299475,30.010416 30.554688,29.874999 L 30.554688,30.554686 C 30.296871,30.664062 30.032548,30.747395 29.761719,30.804686 C 29.490882,30.861978 29.216143,30.890624 28.9375,30.890624 C 28.239581,30.890624 27.686196,30.687499 27.277344,30.281249 C 26.871093,29.875 26.667968,29.325521 26.667969,28.632812 C 26.667968,27.916669 26.860676,27.348961 27.246094,26.929686 C 27.634113,26.507816 28.156248,26.296878 28.8125,26.296874 C 29.401038,26.296878 29.865882,26.486982 30.207031,26.867186 C 30.550777,27.244794 30.722652,27.759117 30.722656,28.410155 M 30.003906,28.199218 C 29.998694,27.805992 29.888017,27.49219 29.671875,27.257812 C 29.45833,27.02344 29.174476,26.906253 28.820312,26.906249 C 28.419269,26.906253 28.097654,27.019534 27.855469,27.246093 C 27.615884,27.472659 27.477863,27.791669 27.441406,28.203124 L 30.003906,28.199218 M 34.675781,26.531249 L 34.675781,27.210936 C 34.472653,27.106774 34.261716,27.028649 34.042969,26.976562 C 33.824216,26.924482 33.597654,26.89844 33.363281,26.898436 C 33.006509,26.89844 32.73828,26.953128 32.558594,27.062499 C 32.381509,27.171878 32.292968,27.33594 32.292969,27.554686 C 32.292968,27.721356 32.35677,27.852867 32.484375,27.949218 C 32.611978,28.04297 32.868488,28.132814 33.253906,28.218749 L 33.5,28.273436 C 34.010414,28.382814 34.372393,28.537762 34.585938,28.73828 C 34.80208,28.936199 34.910152,29.213542 34.910156,29.570312 C 34.910152,29.976562 34.748694,30.298177 34.425781,30.535155 C 34.105466,30.772134 33.66406,30.890624 33.101562,30.890624 C 32.867186,30.890624 32.622394,30.867186 32.367188,30.820312 C 32.114582,30.776041 31.847656,30.708332 31.566406,30.617186 L 31.566406,29.874999 C 31.832031,30.013021 32.093749,30.117187 32.351562,30.187499 C 32.609374,30.255208 32.864582,30.289062 33.117188,30.289062 C 33.455727,30.289062 33.716143,30.23177 33.898438,30.117186 C 34.080726,30 34.171872,29.835937 34.171875,29.624999 C 34.171872,29.429688 34.105466,29.279948 33.972656,29.17578 C 33.842445,29.071615 33.554685,28.971355 33.109375,28.874999 L 32.859375,28.816405 C 32.414061,28.722657 32.092447,28.579428 31.894531,28.386718 C 31.696614,28.191408 31.597656,27.924481 31.597656,27.585936 C 31.597656,27.174482 31.743489,26.856774 32.035156,26.632812 C 32.326822,26.408858 32.740884,26.296878 33.277344,26.296874 C 33.542966,26.296878 33.792966,26.31641 34.027344,26.355468 C 34.261716,26.394535 34.477861,26.453128 34.675781,26.531249 M 36.753906,25.160155 L 36.753906,26.402343 L 38.234375,26.402343 L 38.234375,26.960936 L 36.753906,26.960936 L 36.753906,29.335936 C 36.753905,29.692708 36.802082,29.921875 36.898438,30.023436 C 36.997394,30.125 37.196613,30.175781 37.496094,30.17578 L 38.234375,30.17578 L 38.234375,30.777343 L 37.496094,30.777343 C 36.941405,30.777343 36.558592,30.674478 36.347656,30.468749 C 36.136718,30.260416 36.031249,29.882812 36.03125,29.335936 L 36.03125,26.960936 L 35.503906,26.960936 L 35.503906,26.402343 L 36.03125,26.402343 L 36.03125,25.160155 L 36.753906,25.160155 M 41.71875,27.074218 C 41.638018,27.027346 41.549476,26.993492 41.453125,26.972655 C 41.359372,26.949222 41.255206,26.937503 41.140625,26.937499 C 40.734373,26.937503 40.421873,27.070315 40.203125,27.335936 C 39.986978,27.598961 39.878905,27.977866 39.878906,28.472655 L 39.878906,30.777343 L 39.15625,30.777343 L 39.15625,26.402343 L 39.878906,26.402343 L 39.878906,27.08203 C 40.029946,26.816409 40.226561,26.619795 40.46875,26.492186 C 40.710935,26.361983 41.005206,26.296878 41.351562,26.296874 C 41.401039,26.296878 41.455726,26.300785 41.515625,26.308593 C 41.575518,26.313806 41.641924,26.32292 41.714844,26.335936 L 41.71875,27.074218 M 46.207031,28.410155 L 46.207031,28.761718 L 42.902344,28.761718 C 42.933593,29.256511 43.08203,29.634115 43.347656,29.89453 C 43.615884,30.152343 43.988279,30.281249 44.464844,30.281249 C 44.740882,30.281249 45.007809,30.247395 45.265625,30.179686 C 45.526038,30.111979 45.78385,30.010416 46.039062,29.874999 L 46.039062,30.554686 C 45.781246,30.664062 45.516923,30.747395 45.246094,30.804686 C 44.975257,30.861978 44.700518,30.890624 44.421875,30.890624 C 43.723956,30.890624 43.170571,30.687499 42.761719,30.281249 C 42.355468,29.875 42.152343,29.325521 42.152344,28.632812 C 42.152343,27.916669 42.345051,27.348961 42.730469,26.929686 C 43.118488,26.507816 43.640623,26.296878 44.296875,26.296874 C 44.885413,26.296878 45.350257,26.486982 45.691406,26.867186 C 46.035152,27.244794 46.207027,27.759117 46.207031,28.410155 M 45.488281,28.199218 C 45.483069,27.805992 45.372392,27.49219 45.15625,27.257812 C 44.942705,27.02344 44.658851,26.906253 44.304688,26.906249 C 43.903644,26.906253 43.582029,27.019534 43.339844,27.246093 C 43.100259,27.472659 42.962238,27.791669 42.925781,28.203124 L 45.488281,28.199218 M 49.949219,24.945312 L 50.738281,24.945312 L 50.738281,27.335936 L 53.605469,27.335936 L 53.605469,24.945312 L 54.394531,24.945312 L 54.394531,30.777343 L 53.605469,30.777343 L 53.605469,27.999999 L 50.738281,27.999999 L 50.738281,30.777343 L 49.949219,30.777343 L 49.949219,24.945312 M 59.675781,28.410155 L 59.675781,28.761718 L 56.371094,28.761718 C 56.402343,29.256511 56.55078,29.634115 56.816406,29.89453 C 57.084634,30.152343 57.457029,30.281249 57.933594,30.281249 C 58.209632,30.281249 58.476559,30.247395 58.734375,30.179686 C 58.994788,30.111979 59.2526,30.010416 59.507812,29.874999 L 59.507812,30.554686 C 59.249996,30.664062 58.985673,30.747395 58.714844,30.804686 C 58.444007,30.861978 58.169268,30.890624 57.890625,30.890624 C 57.192706,30.890624 56.639321,30.687499 56.230469,30.281249 C 55.824218,29.875 55.621093,29.325521 55.621094,28.632812 C 55.621093,27.916669 55.813801,27.348961 56.199219,26.929686 C 56.587238,26.507816 57.109373,26.296878 57.765625,26.296874 C 58.354163,26.296878 58.819007,26.486982 59.160156,26.867186 C 59.503902,27.244794 59.675777,27.759117 59.675781,28.410155 M 58.957031,28.199218 C 58.951819,27.805992 58.841142,27.49219 58.625,27.257812 C 58.411455,27.02344 58.127601,26.906253 57.773438,26.906249 C 57.372394,26.906253 57.050779,27.019534 56.808594,27.246093 C 56.569009,27.472659 56.430988,27.791669 56.394531,28.203124 L 58.957031,28.199218 M 63.375,27.074218 C 63.294268,27.027346 63.205726,26.993492 63.109375,26.972655 C 63.015622,26.949222 62.911456,26.937503 62.796875,26.937499 C 62.390623,26.937503 62.078123,27.070315 61.859375,27.335936 C 61.643228,27.598961 61.535155,27.977866 61.535156,28.472655 L 61.535156,30.777343 L 60.8125,30.777343 L 60.8125,26.402343 L 61.535156,26.402343 L 61.535156,27.08203 C 61.686196,26.816409 61.882811,26.619795 62.125,26.492186 C 62.367185,26.361983 62.661456,26.296878 63.007812,26.296874 C 63.057289,26.296878 63.111976,26.300785 63.171875,26.308593 C 63.231768,26.313806 63.298174,26.32292 63.371094,26.335936 L 63.375,27.074218 M 66.65625,27.074218 C 66.575518,27.027346 66.486976,26.993492 66.390625,26.972655 C 66.296872,26.949222 66.192706,26.937503 66.078125,26.937499 C 65.671873,26.937503 65.359373,27.070315 65.140625,27.335936 C 64.924478,27.598961 64.816405,27.977866 64.816406,28.472655 L 64.816406,30.777343 L 64.09375,30.777343 L 64.09375,26.402343 L 64.816406,26.402343 L 64.816406,27.08203 C 64.967446,26.816409 65.164061,26.619795 65.40625,26.492186 C 65.648435,26.361983 65.942706,26.296878 66.289062,26.296874 C 66.338539,26.296878 66.393226,26.300785 66.453125,26.308593 C 66.513018,26.313806 66.579424,26.32292 66.652344,26.335936 L 66.65625,27.074218 M 71.144531,28.410155 L 71.144531,28.761718 L 67.839844,28.761718 C 67.871093,29.256511 68.01953,29.634115 68.285156,29.89453 C 68.553384,30.152343 68.925779,30.281249 69.402344,30.281249 C 69.678382,30.281249 69.945309,30.247395 70.203125,30.179686 C 70.463538,30.111979 70.72135,30.010416 70.976562,29.874999 L 70.976562,30.554686 C 70.718746,30.664062 70.454423,30.747395 70.183594,30.804686 C 69.912757,30.861978 69.638018,30.890624 69.359375,30.890624 C 68.661456,30.890624 68.108071,30.687499 67.699219,30.281249 C 67.292968,29.875 67.089843,29.325521 67.089844,28.632812 C 67.089843,27.916669 67.282551,27.348961 67.667969,26.929686 C 68.055988,26.507816 68.578123,26.296878 69.234375,26.296874 C 69.822913,26.296878 70.287757,26.486982 70.628906,26.867186 C 70.972652,27.244794 71.144527,27.759117 71.144531,28.410155 M 70.425781,28.199218 C 70.420569,27.805992 70.309892,27.49219 70.09375,27.257812 C 69.880205,27.02344 69.596351,26.906253 69.242188,26.906249 C 68.841144,26.906253 68.519529,27.019534 68.277344,27.246093 C 68.037759,27.472659 67.899738,27.791669 67.863281,28.203124 L 70.425781,28.199218 M 74.84375,27.074218 C 74.763018,27.027346 74.674476,26.993492 74.578125,26.972655 C 74.484372,26.949222 74.380206,26.937503 74.265625,26.937499 C 73.859373,26.937503 73.546873,27.070315 73.328125,27.335936 C 73.111978,27.598961 73.003905,27.977866 73.003906,28.472655 L 73.003906,30.777343 L 72.28125,30.777343 L 72.28125,26.402343 L 73.003906,26.402343 L 73.003906,27.08203 C 73.154946,26.816409 73.351561,26.619795 73.59375,26.492186 C 73.835935,26.361983 74.130206,26.296878 74.476562,26.296874 C 74.526039,26.296878 74.580726,26.300785 74.640625,26.308593 C 74.700518,26.313806 74.766924,26.32292 74.839844,26.335936 L 74.84375,27.074218 M 77.578125,28.578124 C 76.997394,28.578126 76.59505,28.644532 76.371094,28.777343 C 76.147134,28.910157 76.035155,29.136719 76.035156,29.45703 C 76.035155,29.71224 76.118488,29.915364 76.285156,30.066405 C 76.454425,30.214843 76.683592,30.289062 76.972656,30.289062 C 77.371091,30.289062 77.690101,30.148437 77.929688,29.867186 C 78.171872,29.583334 78.292965,29.207032 78.292969,28.73828 L 78.292969,28.578124 L 77.578125,28.578124 M 79.011719,28.281249 L 79.011719,30.777343 L 78.292969,30.777343 L 78.292969,30.11328 C 78.128903,30.378906 77.924476,30.57552 77.679688,30.703124 C 77.434893,30.828124 77.135414,30.890624 76.78125,30.890624 C 76.333332,30.890624 75.976561,30.765624 75.710938,30.515624 C 75.447916,30.26302 75.316406,29.925781 75.316406,29.503905 C 75.316406,29.01172 75.480468,28.640626 75.808594,28.390624 C 76.139322,28.140627 76.631509,28.015627 77.285156,28.015624 L 78.292969,28.015624 L 78.292969,27.945312 C 78.292965,27.614585 78.18359,27.359377 77.964844,27.179686 C 77.748695,26.997399 77.444008,26.906253 77.050781,26.906249 C 76.800779,26.906253 76.55729,26.936201 76.320312,26.996093 C 76.083332,27.055992 75.855468,27.145836 75.636719,27.265624 L 75.636719,26.601562 C 75.899739,26.500003 76.154947,26.424483 76.402344,26.374999 C 76.649738,26.32292 76.890623,26.296878 77.125,26.296874 C 77.75781,26.296878 78.230465,26.460941 78.542969,26.789062 C 78.855465,27.11719 79.011715,27.614585 79.011719,28.281249"
       id="text2257" />
    <path
       style="font-size:8px;font-style:normal;font-variant:normal;font-weight:bold;font-stretch:normal;text-align:start;line-height:125%;writing-mode:lr-tb;text-anchor:start;fill:#000000;fill-opacity:1;stroke:none;stroke-width:1px;stroke-linecap:butt;stroke-linejoin:miter;stroke-opacity:1;font-family:Bitstream Vera Sans"
       d="M 14.984375,18.042969 L 16.488281,18.042969 L 16.488281,21.539062 C 16.488279,22.020835 16.566404,22.365887 16.722656,22.574219 C 16.881508,22.779949 17.13932,22.882813 17.496094,22.882812 C 17.855465,22.882813 18.113277,22.779949 18.269531,22.574219 C 18.428381,22.365887 18.507808,22.020835 18.507812,21.539062 L 18.507812,18.042969 L 20.011719,18.042969 L 20.011719,21.539062 C 20.011713,22.364585 19.804682,22.979168 19.390625,23.382812 C 18.976558,23.786458 18.345048,23.988281 17.496094,23.988281 C 16.649737,23.988281 16.019529,23.786458 15.605469,23.382812 C 15.191405,22.979168 14.984374,22.364585 14.984375,21.539062 L 14.984375,18.042969 M 22.820312,23.242188 L 22.820312,25.539062 L 21.421875,25.539062 L 21.421875,19.5 L 22.820312,19.5 L 22.820312,20.140625 C 23.013019,19.885421 23.22656,19.697921 23.460938,19.578125 C 23.69531,19.455734 23.964841,19.394536 24.269531,19.394531 C 24.80859,19.394536 25.251298,19.609379 25.597656,20.039062 C 25.944005,20.466149 26.117182,21.01693 26.117188,21.691406 C 26.117182,22.365887 25.944005,22.91797 25.597656,23.347656 C 25.251298,23.77474 24.80859,23.988281 24.269531,23.988281 C 23.964841,23.988281 23.69531,23.928385 23.460938,23.808594 C 23.22656,23.686198 23.013019,23.497396 22.820312,23.242188 M 23.75,20.410156 C 23.450518,20.41016 23.22005,20.520837 23.058594,20.742188 C 22.899737,20.96094 22.82031,21.277346 22.820312,21.691406 C 22.82031,22.105471 22.899737,22.423179 23.058594,22.644531 C 23.22005,22.863282 23.450518,22.972657 23.75,22.972656 C 24.049476,22.972657 24.27734,22.863282 24.433594,22.644531 C 24.592444,22.425783 24.671871,22.108075 24.671875,21.691406 C 24.671871,21.274742 24.592444,20.957034 24.433594,20.738281 C 24.27734,20.519535 24.049476,20.41016 23.75,20.410156"
       id="text1333" />
  </g>
  <g
     inkscape:groupmode="layer"
     id="layer2"
     inkscape:label="lights">
    <path
       sodipodi:type="arc"
       style="opacity:0.7;fill:url(#radialGradient2190);fill-opacity:1;stroke:none;stroke-width:1.06165099;stroke-linecap:round;stroke-linejoin:miter;stroke-miterlimit:4;stroke-dasharray:none;stroke-dashoffset:0;stroke-opacity:1"
       id="path2182"
       sodipodi:cx="23.821341"
       sodipodi:cy="23.821341"
       sodipodi:rx="20.724566"
       sodipodi:ry="20.724566"
       d="M 44.545906,23.821341 A 20.724566,20.724566 0 1 1 3.0967751,23.821341 A 20.724566,20.724566 0 1 1 44.545906,23.821341 z"
       transform="matrix(0.337763,0,0,0.337763,-4.597783e-2,-4.597883e-2)" />
    <path
       sodipodi:type="arc"
       style="opacity:1;fill:url(#radialGradient2210);fill-opacity:1;stroke:none;stroke-width:1.06165099;stroke-linecap:round;stroke-linejoin:miter;stroke-miterlimit:4;stroke-dasharray:none;stroke-dashoffset:0;stroke-opacity:1"
       id="path2202"
       sodipodi:cx="23.821341"
       sodipodi:cy="23.821341"
       sodipodi:rx="20.724566"
       sodipodi:ry="20.724566"
       d="M 44.545906,23.821341 A 20.724566,20.724566 0 1 1 3.0967751,23.821341 A 20.724566,20.724566 0 1 1 44.545906,23.821341 z"
       transform="matrix(0.337763,0,0,0.337763,-4.5976e-2,-4.597721e-2)" />
    <path
       sodipodi:type="arc"
       style="opacity:1;fill:none;fill-opacity:1;stroke:#ffffff;stroke-width:3.19151568;stroke-linecap:round;stroke-linejoin:miter;stroke-miterlimit:4;stroke-dasharray:none;stroke-dashoffset:0;stroke-opacity:0.63948502"
       id="path2233"
       sodipodi:cx="23.821341"
       sodipodi:cy="23.821341"
       sodipodi:rx="20.724566"
       sodipodi:ry="20.724566"
       d="M 44.545906,23.821341 A 20.724566,20.724566 0 1 1 3.0967751,23.821341 A 20.724566,20.724566 0 1 1 44.545906,23.821341 z"
       transform="matrix(0.313526,0,0,0.313135,0.527072,0.535957)" />
  </g>
</svg>
