<?xml version="1.0" encoding="UTF-8" standalone="no"?>
<!-- Created with Inkscape (http://www.inkscape.org/) -->
<svg
   xmlns:dc="http://purl.org/dc/elements/1.1/"
   xmlns:cc="http://web.resource.org/cc/"
   xmlns:rdf="http://www.w3.org/1999/02/22-rdf-syntax-ns#"
   xmlns:svg="http://www.w3.org/2000/svg"
   xmlns="http://www.w3.org/2000/svg"
   xmlns:xlink="http://www.w3.org/1999/xlink"
   xmlns:sodipodi="http://sodipodi.sourceforge.net/DTD/sodipodi-0.dtd"
   xmlns:inkscape="http://www.inkscape.org/namespaces/inkscape"
   width="16"
   height="16"
   id="svg2"
   sodipodi:version="0.32"
   inkscape:version="0.45+devel"
   version="1.0"
   sodipodi:docbase="/home/silvestre/.icons/Gion/16x16/actions/SVGs"
   sodipodi:docname="process-stop.svg"
   inkscape:export-filename="/home/silvestre/.icons/Gion/16x16/actions/process-stop.png"
   inkscape:export-xdpi="90"
   inkscape:export-ydpi="90"
   inkscape:output_extension="org.inkscape.output.svg.inkscape"
   sodipodi:modified="TRUE">
  <defs
     id="defs4">
    <linearGradient
       inkscape:collect="always"
       id="linearGradient2210">
      <stop
         style="stop-color:#ffffff;stop-opacity:1;"
         offset="0"
         id="stop2213" />
      <stop
         style="stop-color:#ffffff;stop-opacity:0.89121339"
         offset="1"
         id="stop2215" />
    </linearGradient>
    <linearGradient
       inkscape:collect="always"
       id="linearGradient2218">
      <stop
         style="stop-color:#000000;stop-opacity:1;"
         offset="0"
         id="stop2220" />
      <stop
         style="stop-color:#000000;stop-opacity:0;"
         offset="1"
         id="stop2222" />
    </linearGradient>
    <linearGradient
       id="linearGradient2204">
      <stop
         style="stop-color:#000000;stop-opacity:0"
         offset="0"
         id="stop2206" />
      <stop
         id="stop2212"
         offset="0.5"
         style="stop-color:#000000;stop-opacity:0;" />
      <stop
         style="stop-color:#000000;stop-opacity:0.06060606;"
         offset="0.75"
         id="stop2214" />
      <stop
         style="stop-color:#000000;stop-opacity:0.24892704"
         offset="1"
         id="stop2208" />
    </linearGradient>
    <linearGradient
       id="linearGradient2196"
       inkscape:collect="always">
      <stop
         id="stop2198"
         offset="0"
         style="stop-color:#ffffff;stop-opacity:1;" />
      <stop
         id="stop2200"
         offset="1"
         style="stop-color:#ffffff;stop-opacity:0" />
    </linearGradient>
    <linearGradient
       inkscape:collect="always"
       id="linearGradient2184">
      <stop
         style="stop-color:#ffffff;stop-opacity:1;"
         offset="0"
         id="stop2186" />
      <stop
         style="stop-color:#ffffff;stop-opacity:0;"
         offset="1"
         id="stop2188" />
    </linearGradient>
    <radialGradient
       inkscape:collect="always"
       xlink:href="#linearGradient2196"
       id="radialGradient2190"
       cx="23.821341"
       cy="19.220688"
       fx="23.821341"
       fy="11.559587"
       r="20.724566"
       gradientUnits="userSpaceOnUse" />
    <radialGradient
       inkscape:collect="always"
       xlink:href="#linearGradient2184"
       id="radialGradient2194"
       gradientUnits="userSpaceOnUse"
       cx="21.955513"
       cy="41.559357"
       fx="21.955513"
       fy="43.898674"
       r="20.724566"
       gradientTransform="matrix(0.592713,-6.494147e-8,6.494147e-8,0.592713,10.80802,15.56962)" />
    <radialGradient
       inkscape:collect="always"
       xlink:href="#linearGradient2204"
       id="radialGradient2210"
       cx="20.053436"
       cy="19.070505"
       fx="20.053436"
       fy="19.070505"
       r="20.724566"
       gradientUnits="userSpaceOnUse"
       gradientTransform="matrix(1.602242,0,0,1.602242,-13.98654,-13.89271)" />
    <radialGradient
       inkscape:collect="always"
       xlink:href="#linearGradient2218"
       id="radialGradient2224"
       cx="24.416874"
       cy="42.401985"
       fx="24.416874"
       fy="63.068226"
       r="23.702232"
       gradientTransform="matrix(1,0,0,0.226131,-3.463213e-16,32.8136)"
       gradientUnits="userSpaceOnUse" />
    <radialGradient
       inkscape:collect="always"
       xlink:href="#linearGradient2210"
       id="radialGradient2217"
       cx="21.625"
       cy="20.75"
       fx="21.625"
       fy="20.75"
       r="11"
       gradientUnits="userSpaceOnUse"
       gradientTransform="matrix(0.3636367,0,0,0.3636366,-0.7272727,-0.7272721)" />
    <radialGradient
       inkscape:collect="always"
       xlink:href="#linearGradient2218"
       id="radialGradient1337"
       gradientUnits="userSpaceOnUse"
       gradientTransform="matrix(1,0,0,0.226131,-4.300217e-16,32.8136)"
       cx="24.416874"
       cy="42.401985"
       fx="24.416874"
       fy="63.068226"
       r="23.702232" />
  </defs>
  <sodipodi:namedview
     id="base"
     pagecolor="#ffffff"
     bordercolor="#666666"
     borderopacity="1.0"
     inkscape:pageopacity="0.0"
     inkscape:pageshadow="2"
     inkscape:zoom="1"
     inkscape:cx="8"
     inkscape:cy="7.5"
     inkscape:document-units="px"
     inkscape:current-layer="layer2"
     inkscape:showpageshadow="false"
     showgrid="false"
     inkscape:grid-bbox="true"
     inkscape:window-width="897"
     inkscape:window-height="619"
     inkscape:window-x="60"
     inkscape:window-y="208"
     showborder="false"
     showguides="true"
     inkscape:guide-bbox="true" />
  <metadata
     id="metadata7">
    <rdf:RDF>
      <cc:Work
         rdf:about="">
        <dc:format>image/svg+xml</dc:format>
        <dc:type
           rdf:resource="http://purl.org/dc/dcmitype/StillImage" />
        <dc:title>Process Stop</dc:title>
        <dc:creator>
          <cc:Agent>
            <dc:title>Silvestre Herrera</dc:title>
          </cc:Agent>
        </dc:creator>
        <cc:license
           rdf:resource="http://creativecommons.org/licenses/GPL/2.0/" />
      </cc:Work>
      <cc:License
         rdf:about="http://creativecommons.org/licenses/GPL/2.0/">
        <cc:permits
           rdf:resource="http://web.resource.org/cc/Reproduction" />
        <cc:permits
           rdf:resource="http://web.resource.org/cc/Distribution" />
        <cc:requires
           rdf:resource="http://web.resource.org/cc/Notice" />
        <cc:permits
           rdf:resource="http://web.resource.org/cc/DerivativeWorks" />
        <cc:requires
           rdf:resource="http://web.resource.org/cc/ShareAlike" />
        <cc:requires
           rdf:resource="http://web.resource.org/cc/SourceCode" />
      </cc:License>
    </rdf:RDF>
  </metadata>
  <g
     inkscape:label="Capa 1"
     inkscape:groupmode="layer"
     id="layer1">
    <path
       sodipodi:type="arc"
       style="opacity:0.37229435;fill:url(#radialGradient1337);fill-opacity:1;stroke:none;stroke-width:1;stroke-linecap:round;stroke-linejoin:miter;stroke-miterlimit:4;stroke-dasharray:none;stroke-dashoffset:0;stroke-opacity:1"
       id="path2216"
       sodipodi:cx="24.416874"
       sodipodi:cy="42.401985"
       sodipodi:rx="23.702232"
       sodipodi:ry="5.3598013"
       d="M 48.119106 42.401985 A 23.702232 5.3598013 0 1 1  0.71464157,42.401985 A 23.702232 5.3598013 0 1 1  48.119106 42.401985 z"
       transform="matrix(0.337749,0,0,0.37315,-0.241369,-1.822273)" />
    <path
       sodipodi:type="arc"
       style="opacity:1;fill:#c92222;fill-opacity:1;stroke:#8b3c3c;stroke-width:2.76114297;stroke-linecap:round;stroke-linejoin:miter;stroke-miterlimit:4;stroke-dasharray:none;stroke-dashoffset:0;stroke-opacity:1"
       id="path1307"
       sodipodi:cx="23.821341"
       sodipodi:cy="23.821341"
       sodipodi:rx="20.724566"
       sodipodi:ry="20.724566"
       d="M 44.545906,23.821341 A 20.724566,20.724566 0 1 1 3.0967751,23.821341 A 20.724566,20.724566 0 1 1 44.545906,23.821341 z"
       transform="matrix(0.362171,0,0,0.362166,-0.6332348,-0.6215471)" />
    <path
       style="font-size:8px;font-style:normal;font-variant:normal;font-weight:normal;font-stretch:normal;text-align:start;line-height:125%;writing-mode:lr-tb;text-anchor:start;fill:#646464;fill-opacity:1;stroke:none;stroke-width:1px;stroke-linecap:butt;stroke-linejoin:miter;stroke-opacity:1;font-family:Bitstream Vera Sans"
       d="M 3.4960938,27.703125 C 3.4960899,27.174482 3.386715,26.76042 3.1679688,26.460938 C 2.9518196,26.158858 2.6536428,26.007816 2.2734375,26.007812 C 1.8932269,26.007816 1.593748,26.158858 1.375,26.460938 C 1.1588526,26.76042 1.0507798,27.174482 1.0507812,27.703125 C 1.0507798,28.231772 1.1588526,28.647137 1.375,28.949219 C 1.593748,29.248699 1.8932269,29.398438 2.2734375,29.398438 C 2.6536428,29.398438 2.9518196,29.248699 3.1679688,28.949219 C 3.386715,28.647137 3.4960899,28.231772 3.4960938,27.703125 M 1.0507812,26.175781 C 1.2018213,25.915369 1.3919253,25.72266 1.6210938,25.597656 C 1.8528623,25.470056 2.1289037,25.406254 2.4492188,25.40625 C 2.9804654,25.406254 3.4114545,25.617192 3.7421875,26.039062 C 4.0755164,26.460941 4.2421829,27.015628 4.2421875,27.703125 C 4.2421829,28.390626 4.0755164,28.945313 3.7421875,29.367188 C 3.4114545,29.789063 2.9804654,30 2.4492188,30 C 2.1289037,30 1.8528623,29.9375 1.6210938,29.8125 C 1.3919253,29.684896 1.2018213,29.490886 1.0507812,29.230469 L 1.0507812,29.886719 L 0.328125,29.886719 L 0.328125,23.808594 L 1.0507812,23.808594 L 1.0507812,26.175781 M 7.2539062,30.292969 C 7.0507789,30.813801 6.8528624,31.153645 6.6601562,31.3125 C 6.4674461,31.471353 6.2096339,31.55078 5.8867188,31.550781 L 5.3125,31.550781 L 5.3125,30.949219 L 5.734375,30.949219 C 5.9322904,30.949218 6.0859361,30.902343 6.1953125,30.808594 C 6.3046859,30.714843 6.4257795,30.493489 6.5585938,30.144531 L 6.6875,29.816406 L 4.9179688,25.511719 L 5.6796875,25.511719 L 7.046875,28.933594 L 8.4140625,25.511719 L 9.1757812,25.511719 L 7.2539062,30.292969 M 16.242188,24.246094 L 16.242188,25.015625 C 15.942704,24.872401 15.660153,24.76563 15.394531,24.695312 C 15.128903,24.625005 14.872393,24.589849 14.625,24.589844 C 14.19531,24.589849 13.863279,24.673182 13.628906,24.839844 C 13.397134,25.006515 13.281249,25.243494 13.28125,25.550781 C 13.281249,25.808598 13.358072,26.00391 13.511719,26.136719 C 13.667967,26.266931 13.962238,26.372399 14.394531,26.453125 L 14.871094,26.550781 C 15.459632,26.662764 15.893225,26.86068 16.171875,27.144531 C 16.453121,27.425784 16.593745,27.803387 16.59375,28.277344 C 16.593745,28.842449 16.403641,29.270834 16.023438,29.5625 C 15.64583,29.854167 15.091143,30 14.359375,30 C 14.083331,30 13.789061,29.96875 13.476562,29.90625 C 13.166665,29.84375 12.845051,29.751302 12.511719,29.628906 L 12.511719,28.816406 C 12.83203,28.996095 13.145832,29.131511 13.453125,29.222656 C 13.760415,29.313803 14.062498,29.359376 14.359375,29.359375 C 14.809893,29.359376 15.157549,29.270834 15.402344,29.09375 C 15.647132,28.916668 15.769527,28.664064 15.769531,28.335938 C 15.769527,28.049481 15.680986,27.825523 15.503906,27.664062 C 15.329424,27.502607 15.041664,27.381513 14.640625,27.300781 L 14.160156,27.207031 C 13.571613,27.089847 13.145832,26.906253 12.882812,26.65625 C 12.619791,26.406253 12.488281,26.058598 12.488281,25.613281 C 12.488281,25.097661 12.66927,24.691411 13.03125,24.394531 C 13.395832,24.097662 13.897133,23.949225 14.535156,23.949219 C 14.808591,23.949225 15.087236,23.973964 15.371094,24.023438 C 15.654944,24.072922 15.945309,24.147141 16.242188,24.246094 M 17.808594,25.511719 L 18.527344,25.511719 L 18.527344,29.886719 L 17.808594,29.886719 L 17.808594,25.511719 M 17.808594,23.808594 L 18.527344,23.808594 L 18.527344,24.71875 L 17.808594,24.71875 L 17.808594,23.808594 M 20.027344,23.808594 L 20.746094,23.808594 L 20.746094,29.886719 L 20.027344,29.886719 L 20.027344,23.808594 M 21.730469,25.511719 L 22.492188,25.511719 L 23.859375,29.183594 L 25.226562,25.511719 L 25.988281,25.511719 L 24.347656,29.886719 L 23.371094,29.886719 L 21.730469,25.511719 M 30.722656,27.519531 L 30.722656,27.871094 L 27.417969,27.871094 C 27.449218,28.365887 27.597655,28.743491 27.863281,29.003906 C 28.131509,29.261719 28.503904,29.390625 28.980469,29.390625 C 29.256507,29.390625 29.523434,29.356771 29.78125,29.289062 C 30.041663,29.221355 30.299475,29.119792 30.554688,28.984375 L 30.554688,29.664062 C 30.296871,29.773438 30.032548,29.856771 29.761719,29.914062 C 29.490882,29.971354 29.216143,30 28.9375,30 C 28.239581,30 27.686196,29.796875 27.277344,29.390625 C 26.871093,28.984376 26.667968,28.434897 26.667969,27.742188 C 26.667968,27.026045 26.860676,26.458337 27.246094,26.039062 C 27.634113,25.617192 28.156248,25.406254 28.8125,25.40625 C 29.401038,25.406254 29.865882,25.596358 30.207031,25.976562 C 30.550777,26.35417 30.722652,26.868493 30.722656,27.519531 M 30.003906,27.308594 C 29.998694,26.915368 29.888017,26.601566 29.671875,26.367188 C 29.45833,26.132816 29.174476,26.015629 28.820312,26.015625 C 28.419269,26.015629 28.097654,26.12891 27.855469,26.355469 C 27.615884,26.582035 27.477863,26.901045 27.441406,27.3125 L 30.003906,27.308594 M 34.675781,25.640625 L 34.675781,26.320312 C 34.472653,26.21615 34.261716,26.138025 34.042969,26.085938 C 33.824216,26.033858 33.597654,26.007816 33.363281,26.007812 C 33.006509,26.007816 32.73828,26.062504 32.558594,26.171875 C 32.381509,26.281254 32.292968,26.445316 32.292969,26.664062 C 32.292968,26.830732 32.35677,26.962243 32.484375,27.058594 C 32.611978,27.152346 32.868488,27.24219 33.253906,27.328125 L 33.5,27.382812 C 34.010414,27.49219 34.372393,27.647138 34.585938,27.847656 C 34.80208,28.045575 34.910152,28.322918 34.910156,28.679688 C 34.910152,29.085938 34.748694,29.407553 34.425781,29.644531 C 34.105466,29.88151 33.66406,30 33.101562,30 C 32.867186,30 32.622394,29.976562 32.367188,29.929688 C 32.114582,29.885417 31.847656,29.817708 31.566406,29.726562 L 31.566406,28.984375 C 31.832031,29.122397 32.093749,29.226563 32.351562,29.296875 C 32.609374,29.364584 32.864582,29.398438 33.117188,29.398438 C 33.455727,29.398438 33.716143,29.341146 33.898438,29.226562 C 34.080726,29.109376 34.171872,28.945313 34.171875,28.734375 C 34.171872,28.539064 34.105466,28.389324 33.972656,28.285156 C 33.842445,28.180991 33.554685,28.080731 33.109375,27.984375 L 32.859375,27.925781 C 32.414061,27.832033 32.092447,27.688804 31.894531,27.496094 C 31.696614,27.300784 31.597656,27.033857 31.597656,26.695312 C 31.597656,26.283858 31.743489,25.96615 32.035156,25.742188 C 32.326822,25.518234 32.740884,25.406254 33.277344,25.40625 C 33.542966,25.406254 33.792966,25.425786 34.027344,25.464844 C 34.261716,25.503911 34.477861,25.562504 34.675781,25.640625 M 36.753906,24.269531 L 36.753906,25.511719 L 38.234375,25.511719 L 38.234375,26.070312 L 36.753906,26.070312 L 36.753906,28.445312 C 36.753905,28.802084 36.802082,29.031251 36.898438,29.132812 C 36.997394,29.234376 37.196613,29.285157 37.496094,29.285156 L 38.234375,29.285156 L 38.234375,29.886719 L 37.496094,29.886719 C 36.941405,29.886719 36.558592,29.783854 36.347656,29.578125 C 36.136718,29.369792 36.031249,28.992188 36.03125,28.445312 L 36.03125,26.070312 L 35.503906,26.070312 L 35.503906,25.511719 L 36.03125,25.511719 L 36.03125,24.269531 L 36.753906,24.269531 M 41.71875,26.183594 C 41.638018,26.136722 41.549476,26.102868 41.453125,26.082031 C 41.359372,26.058598 41.255206,26.046879 41.140625,26.046875 C 40.734373,26.046879 40.421873,26.179691 40.203125,26.445312 C 39.986978,26.708337 39.878905,27.087242 39.878906,27.582031 L 39.878906,29.886719 L 39.15625,29.886719 L 39.15625,25.511719 L 39.878906,25.511719 L 39.878906,26.191406 C 40.029946,25.925785 40.226561,25.729171 40.46875,25.601562 C 40.710935,25.471359 41.005206,25.406254 41.351562,25.40625 C 41.401039,25.406254 41.455726,25.410161 41.515625,25.417969 C 41.575518,25.423182 41.641924,25.432296 41.714844,25.445312 L 41.71875,26.183594 M 46.207031,27.519531 L 46.207031,27.871094 L 42.902344,27.871094 C 42.933593,28.365887 43.08203,28.743491 43.347656,29.003906 C 43.615884,29.261719 43.988279,29.390625 44.464844,29.390625 C 44.740882,29.390625 45.007809,29.356771 45.265625,29.289062 C 45.526038,29.221355 45.78385,29.119792 46.039062,28.984375 L 46.039062,29.664062 C 45.781246,29.773438 45.516923,29.856771 45.246094,29.914062 C 44.975257,29.971354 44.700518,30 44.421875,30 C 43.723956,30 43.170571,29.796875 42.761719,29.390625 C 42.355468,28.984376 42.152343,28.434897 42.152344,27.742188 C 42.152343,27.026045 42.345051,26.458337 42.730469,26.039062 C 43.118488,25.617192 43.640623,25.406254 44.296875,25.40625 C 44.885413,25.406254 45.350257,25.596358 45.691406,25.976562 C 46.035152,26.35417 46.207027,26.868493 46.207031,27.519531 M 45.488281,27.308594 C 45.483069,26.915368 45.372392,26.601566 45.15625,26.367188 C 44.942705,26.132816 44.658851,26.015629 44.304688,26.015625 C 43.903644,26.015629 43.582029,26.12891 43.339844,26.355469 C 43.100259,26.582035 42.962238,26.901045 42.925781,27.3125 L 45.488281,27.308594 M 49.949219,24.054688 L 50.738281,24.054688 L 50.738281,26.445312 L 53.605469,26.445312 L 53.605469,24.054688 L 54.394531,24.054688 L 54.394531,29.886719 L 53.605469,29.886719 L 53.605469,27.109375 L 50.738281,27.109375 L 50.738281,29.886719 L 49.949219,29.886719 L 49.949219,24.054688 M 59.675781,27.519531 L 59.675781,27.871094 L 56.371094,27.871094 C 56.402343,28.365887 56.55078,28.743491 56.816406,29.003906 C 57.084634,29.261719 57.457029,29.390625 57.933594,29.390625 C 58.209632,29.390625 58.476559,29.356771 58.734375,29.289062 C 58.994788,29.221355 59.2526,29.119792 59.507812,28.984375 L 59.507812,29.664062 C 59.249996,29.773438 58.985673,29.856771 58.714844,29.914062 C 58.444007,29.971354 58.169268,30 57.890625,30 C 57.192706,30 56.639321,29.796875 56.230469,29.390625 C 55.824218,28.984376 55.621093,28.434897 55.621094,27.742188 C 55.621093,27.026045 55.813801,26.458337 56.199219,26.039062 C 56.587238,25.617192 57.109373,25.406254 57.765625,25.40625 C 58.354163,25.406254 58.819007,25.596358 59.160156,25.976562 C 59.503902,26.35417 59.675777,26.868493 59.675781,27.519531 M 58.957031,27.308594 C 58.951819,26.915368 58.841142,26.601566 58.625,26.367188 C 58.411455,26.132816 58.127601,26.015629 57.773438,26.015625 C 57.372394,26.015629 57.050779,26.12891 56.808594,26.355469 C 56.569009,26.582035 56.430988,26.901045 56.394531,27.3125 L 58.957031,27.308594 M 63.375,26.183594 C 63.294268,26.136722 63.205726,26.102868 63.109375,26.082031 C 63.015622,26.058598 62.911456,26.046879 62.796875,26.046875 C 62.390623,26.046879 62.078123,26.179691 61.859375,26.445312 C 61.643228,26.708337 61.535155,27.087242 61.535156,27.582031 L 61.535156,29.886719 L 60.8125,29.886719 L 60.8125,25.511719 L 61.535156,25.511719 L 61.535156,26.191406 C 61.686196,25.925785 61.882811,25.729171 62.125,25.601562 C 62.367185,25.471359 62.661456,25.406254 63.007812,25.40625 C 63.057289,25.406254 63.111976,25.410161 63.171875,25.417969 C 63.231768,25.423182 63.298174,25.432296 63.371094,25.445312 L 63.375,26.183594 M 66.65625,26.183594 C 66.575518,26.136722 66.486976,26.102868 66.390625,26.082031 C 66.296872,26.058598 66.192706,26.046879 66.078125,26.046875 C 65.671873,26.046879 65.359373,26.179691 65.140625,26.445312 C 64.924478,26.708337 64.816405,27.087242 64.816406,27.582031 L 64.816406,29.886719 L 64.09375,29.886719 L 64.09375,25.511719 L 64.816406,25.511719 L 64.816406,26.191406 C 64.967446,25.925785 65.164061,25.729171 65.40625,25.601562 C 65.648435,25.471359 65.942706,25.406254 66.289062,25.40625 C 66.338539,25.406254 66.393226,25.410161 66.453125,25.417969 C 66.513018,25.423182 66.579424,25.432296 66.652344,25.445312 L 66.65625,26.183594 M 71.144531,27.519531 L 71.144531,27.871094 L 67.839844,27.871094 C 67.871093,28.365887 68.01953,28.743491 68.285156,29.003906 C 68.553384,29.261719 68.925779,29.390625 69.402344,29.390625 C 69.678382,29.390625 69.945309,29.356771 70.203125,29.289062 C 70.463538,29.221355 70.72135,29.119792 70.976562,28.984375 L 70.976562,29.664062 C 70.718746,29.773438 70.454423,29.856771 70.183594,29.914062 C 69.912757,29.971354 69.638018,30 69.359375,30 C 68.661456,30 68.108071,29.796875 67.699219,29.390625 C 67.292968,28.984376 67.089843,28.434897 67.089844,27.742188 C 67.089843,27.026045 67.282551,26.458337 67.667969,26.039062 C 68.055988,25.617192 68.578123,25.406254 69.234375,25.40625 C 69.822913,25.406254 70.287757,25.596358 70.628906,25.976562 C 70.972652,26.35417 71.144527,26.868493 71.144531,27.519531 M 70.425781,27.308594 C 70.420569,26.915368 70.309892,26.601566 70.09375,26.367188 C 69.880205,26.132816 69.596351,26.015629 69.242188,26.015625 C 68.841144,26.015629 68.519529,26.12891 68.277344,26.355469 C 68.037759,26.582035 67.899738,26.901045 67.863281,27.3125 L 70.425781,27.308594 M 74.84375,26.183594 C 74.763018,26.136722 74.674476,26.102868 74.578125,26.082031 C 74.484372,26.058598 74.380206,26.046879 74.265625,26.046875 C 73.859373,26.046879 73.546873,26.179691 73.328125,26.445312 C 73.111978,26.708337 73.003905,27.087242 73.003906,27.582031 L 73.003906,29.886719 L 72.28125,29.886719 L 72.28125,25.511719 L 73.003906,25.511719 L 73.003906,26.191406 C 73.154946,25.925785 73.351561,25.729171 73.59375,25.601562 C 73.835935,25.471359 74.130206,25.406254 74.476562,25.40625 C 74.526039,25.406254 74.580726,25.410161 74.640625,25.417969 C 74.700518,25.423182 74.766924,25.432296 74.839844,25.445312 L 74.84375,26.183594 M 77.578125,27.6875 C 76.997394,27.687502 76.59505,27.753908 76.371094,27.886719 C 76.147134,28.019533 76.035155,28.246095 76.035156,28.566406 C 76.035155,28.821616 76.118488,29.02474 76.285156,29.175781 C 76.454425,29.324219 76.683592,29.398438 76.972656,29.398438 C 77.371091,29.398438 77.690101,29.257813 77.929688,28.976562 C 78.171872,28.69271 78.292965,28.316408 78.292969,27.847656 L 78.292969,27.6875 L 77.578125,27.6875 M 79.011719,27.390625 L 79.011719,29.886719 L 78.292969,29.886719 L 78.292969,29.222656 C 78.128903,29.488282 77.924476,29.684896 77.679688,29.8125 C 77.434893,29.9375 77.135414,30 76.78125,30 C 76.333332,30 75.976561,29.875 75.710938,29.625 C 75.447916,29.372396 75.316406,29.035157 75.316406,28.613281 C 75.316406,28.121096 75.480468,27.750002 75.808594,27.5 C 76.139322,27.250003 76.631509,27.125003 77.285156,27.125 L 78.292969,27.125 L 78.292969,27.054688 C 78.292965,26.723961 78.18359,26.468753 77.964844,26.289062 C 77.748695,26.106775 77.444008,26.015629 77.050781,26.015625 C 76.800779,26.015629 76.55729,26.045577 76.320312,26.105469 C 76.083332,26.165368 75.855468,26.255212 75.636719,26.375 L 75.636719,25.710938 C 75.899739,25.609379 76.154947,25.533859 76.402344,25.484375 C 76.649738,25.432296 76.890623,25.406254 77.125,25.40625 C 77.75781,25.406254 78.230465,25.570317 78.542969,25.898438 C 78.855465,26.226566 79.011715,26.723961 79.011719,27.390625"
       id="text2257" />
    <path
       style="opacity:1;fill:url(#radialGradient2217);fill-opacity:1;stroke:none;stroke-width:1;stroke-linecap:round;stroke-linejoin:miter;stroke-miterlimit:4;stroke-dasharray:none;stroke-dashoffset:0;stroke-opacity:1"
       d="M 5.4353593,4.0037784 C 5.2402029,4.0225223 5.0537527,4.1142263 4.9036653,4.2641788 L 4.2572925,4.9099787 C 3.9142361,5.2527266 3.9142357,5.8067429 4.2572925,6.149491 L 6.1130086,8.0035589 L 4.2572925,9.8576238 C 3.9142357,10.200376 3.9142361,10.754388 4.2572925,11.09714 L 4.9036653,11.742936 C 5.2467221,12.085688 5.8012278,12.085688 6.1442845,11.742936 L 8.0000004,9.8888713 L 9.8557165,11.742936 C 10.198773,12.085688 10.753279,12.085688 11.096335,11.742936 L 11.742708,11.09714 C 12.085765,10.754388 12.085765,10.200376 11.742708,9.8576238 L 9.8869923,8.0035589 L 11.742708,6.149491 C 12.085765,5.8067429 12.085765,5.2527266 11.742708,4.9099787 L 11.096335,4.2641788 C 10.753279,3.9214264 10.198774,3.9214264 9.8557165,4.2641788 L 8.0000004,6.1182427 L 6.1442845,4.2641788 C 5.951315,4.0713823 5.6862746,3.9796783 5.4353593,4.0037784 z"
       id="rect1332" />
    <path
       style="font-size:8px;font-style:normal;font-variant:normal;font-weight:bold;font-stretch:normal;text-align:start;line-height:125%;writing-mode:lr-tb;text-anchor:start;fill:#000000;fill-opacity:1;stroke:none;stroke-width:1px;stroke-linecap:butt;stroke-linejoin:miter;stroke-opacity:1;font-family:Bitstream Vera Sans"
       d="M 0,17.105469 L 2.496094,17.105469 C 3.238277,17.105475 3.807287,17.270839 4.203125,17.601562 C 4.601557,17.929693 4.800776,18.398442 4.800781,19.007812 C 4.800776,19.619795 4.601557,20.091149 4.203125,20.421875 C 3.807287,20.750002 3.238277,20.914065 2.496094,20.914062 L 1.503906,20.914062 L 1.503906,22.9375 L 0,22.9375 L 0,17.105469 M 1.503906,18.195312 L 1.503906,19.824219 L 2.335938,19.824219 C 2.627601,19.824222 2.852861,19.753909 3.011719,19.613281 C 3.170569,19.470056 3.249996,19.268233 3.25,19.007812 C 3.249996,18.7474 3.170569,18.546879 3.011719,18.40625 C 2.852861,18.26563 2.627601,18.195317 2.335938,18.195312 L 1.503906,18.195312 M 9.046875,19.753906 C 8.924475,19.696618 8.80208,19.654951 8.679688,19.628906 C 8.559892,19.600264 8.438799,19.585941 8.316406,19.585938 C 7.957028,19.585941 7.679685,19.701826 7.484375,19.933594 C 7.291664,20.162763 7.19531,20.49219 7.195312,20.921875 L 7.195312,22.9375 L 5.796875,22.9375 L 5.796875,18.5625 L 7.195312,18.5625 L 7.195312,19.28125 C 7.374998,18.994796 7.580727,18.786462 7.8125,18.65625 C 8.046872,18.523442 8.32682,18.457036 8.652344,18.457031 C 8.699215,18.457036 8.749996,18.45964 8.804688,18.464844 C 8.859371,18.467452 8.938798,18.475265 9.042969,18.488281 L 9.046875,19.753906 M 11.832031,19.457031 C 11.522133,19.457035 11.285154,19.569014 11.121094,19.792969 C 10.959634,20.014326 10.878904,20.334638 10.878906,20.753906 C 10.878904,21.173179 10.959634,21.494793 11.121094,21.71875 C 11.285154,21.940105 11.522133,22.050782 11.832031,22.050781 C 12.136716,22.050782 12.369788,21.940105 12.53125,21.71875 C 12.692705,21.494793 12.773434,21.173179 12.773438,20.753906 C 12.773434,20.334638 12.692705,20.014326 12.53125,19.792969 C 12.369788,19.569014 12.136716,19.457035 11.832031,19.457031 M 11.832031,18.457031 C 12.584632,18.457036 13.171871,18.660161 13.59375,19.066406 C 14.018224,19.47266 14.230464,20.035159 14.230469,20.753906 C 14.230464,21.472658 14.018224,22.035157 13.59375,22.441406 C 13.171871,22.847656 12.584632,23.050781 11.832031,23.050781 C 11.076821,23.050781 10.485676,22.847656 10.058594,22.441406 C 9.634114,22.035157 9.421875,21.472658 9.421875,20.753906 C 9.421875,20.035159 9.634114,19.47266 10.058594,19.066406 C 10.485676,18.660161 11.076821,18.457036 11.832031,18.457031 M 18.785156,18.699219 L 18.785156,19.839844 C 18.595048,19.709639 18.403642,19.613285 18.210938,19.550781 C 18.02083,19.488285 17.822913,19.457035 17.617188,19.457031 C 17.22656,19.457035 16.921873,19.571618 16.703125,19.800781 C 16.486977,20.027347 16.378904,20.345055 16.378906,20.753906 C 16.378904,21.162762 16.486977,21.481772 16.703125,21.710938 C 16.921873,21.937501 17.22656,22.050782 17.617188,22.050781 C 17.835934,22.050782 18.042965,22.01823 18.238281,21.953125 C 18.436194,21.888022 18.618486,21.791668 18.785156,21.664062 L 18.785156,22.808594 C 18.566402,22.889323 18.343746,22.949219 18.117188,22.988281 C 17.893226,23.029948 17.667966,23.050781 17.441406,23.050781 C 16.652342,23.050781 16.035155,22.848958 15.589844,22.445312 C 15.144531,22.039063 14.921875,21.475262 14.921875,20.753906 C 14.921875,20.032555 15.144531,19.470056 15.589844,19.066406 C 16.035155,18.660161 16.652342,18.457036 17.441406,18.457031 C 17.67057,18.457036 17.89583,18.477869 18.117188,18.519531 C 18.341142,18.558598 18.563798,18.618494 18.785156,18.699219 M 24.367188,20.738281 L 24.367188,21.136719 L 21.097656,21.136719 C 21.131509,21.464845 21.249998,21.710939 21.453125,21.875 C 21.656248,22.039063 21.940102,22.121095 22.304688,22.121094 C 22.598955,22.121095 22.899736,22.078126 23.207031,21.992188 C 23.516923,21.903647 23.834631,21.770834 24.160156,21.59375 L 24.160156,22.671875 C 23.829423,22.796875 23.498694,22.890625 23.167969,22.953125 C 22.837236,23.018229 22.506507,23.050781 22.175781,23.050781 C 21.384113,23.050781 20.768228,22.850261 20.328125,22.449219 C 19.890624,22.045574 19.671875,21.48047 19.671875,20.753906 C 19.671875,20.040367 19.886718,19.47917 20.316406,19.070312 C 20.748696,18.661463 21.342446,18.457036 22.097656,18.457031 C 22.785153,18.457036 23.334631,18.664067 23.746094,19.078125 C 24.160151,19.492191 24.367182,20.045576 24.367188,20.738281 M 22.929688,20.273438 C 22.929684,20.007815 22.851559,19.794274 22.695312,19.632812 C 22.541663,19.468753 22.339841,19.386722 22.089844,19.386719 C 21.819008,19.386722 21.598956,19.463545 21.429688,19.617188 C 21.260415,19.768232 21.154946,19.986982 21.113281,20.273438 L 22.929688,20.273438 M 28.855469,18.699219 L 28.855469,19.761719 C 28.555986,19.636722 28.266924,19.542972 27.988281,19.480469 C 27.709632,19.417972 27.446612,19.386722 27.199219,19.386719 C 26.933592,19.386722 26.735675,19.420576 26.605469,19.488281 C 26.477863,19.553389 26.414061,19.654951 26.414062,19.792969 C 26.414061,19.904951 26.462238,19.990888 26.558594,20.050781 C 26.65755,20.11068 26.833331,20.154951 27.085938,20.183594 L 27.332031,20.21875 C 28.048174,20.309898 28.529944,20.459638 28.777344,20.667969 C 29.024735,20.876304 29.148433,21.203127 29.148438,21.648438 C 29.148433,22.114584 28.976558,22.464844 28.632812,22.699219 C 28.289059,22.933594 27.776039,23.050781 27.09375,23.050781 C 26.804685,23.050781 26.505207,23.027344 26.195312,22.980469 C 25.88802,22.936198 25.571614,22.86849 25.246094,22.777344 L 25.246094,21.714844 C 25.524739,21.850262 25.809895,21.951824 26.101562,22.019531 C 26.395832,22.08724 26.694008,22.121095 26.996094,22.121094 C 27.269529,22.121095 27.475258,22.083334 27.613281,22.007812 C 27.751299,21.932293 27.820309,21.820314 27.820312,21.671875 C 27.820309,21.546876 27.772132,21.454429 27.675781,21.394531 C 27.582028,21.332033 27.393227,21.283856 27.109375,21.25 L 26.863281,21.21875 C 26.240884,21.140627 25.804686,20.996096 25.554688,20.785156 C 25.304687,20.574221 25.179687,20.253909 25.179688,19.824219 C 25.179687,19.360681 25.338541,19.016931 25.65625,18.792969 C 25.973957,18.569015 26.460936,18.457036 27.117188,18.457031 C 27.374997,18.457036 27.64583,18.476567 27.929688,18.515625 C 28.213538,18.554692 28.522132,18.61589 28.855469,18.699219 M 33.605469,18.699219 L 33.605469,19.761719 C 33.305986,19.636722 33.016924,19.542972 32.738281,19.480469 C 32.459632,19.417972 32.196612,19.386722 31.949219,19.386719 C 31.683592,19.386722 31.485675,19.420576 31.355469,19.488281 C 31.227863,19.553389 31.164061,19.654951 31.164062,19.792969 C 31.164061,19.904951 31.212238,19.990888 31.308594,20.050781 C 31.40755,20.11068 31.583331,20.154951 31.835938,20.183594 L 32.082031,20.21875 C 32.798174,20.309898 33.279944,20.459638 33.527344,20.667969 C 33.774735,20.876304 33.898433,21.203127 33.898438,21.648438 C 33.898433,22.114584 33.726558,22.464844 33.382812,22.699219 C 33.039059,22.933594 32.526039,23.050781 31.84375,23.050781 C 31.554685,23.050781 31.255207,23.027344 30.945312,22.980469 C 30.63802,22.936198 30.321614,22.86849 29.996094,22.777344 L 29.996094,21.714844 C 30.274739,21.850262 30.559895,21.951824 30.851562,22.019531 C 31.145832,22.08724 31.444008,22.121095 31.746094,22.121094 C 32.019529,22.121095 32.225258,22.083334 32.363281,22.007812 C 32.501299,21.932293 32.570309,21.820314 32.570312,21.671875 C 32.570309,21.546876 32.522132,21.454429 32.425781,21.394531 C 32.332028,21.332033 32.143227,21.283856 31.859375,21.25 L 31.613281,21.21875 C 30.990884,21.140627 30.554686,20.996096 30.304688,20.785156 C 30.054687,20.574221 29.929687,20.253909 29.929688,19.824219 C 29.929687,19.360681 30.088541,19.016931 30.40625,18.792969 C 30.723957,18.569015 31.210936,18.457036 31.867188,18.457031 C 32.124997,18.457036 32.39583,18.476567 32.679688,18.515625 C 32.963538,18.554692 33.272132,18.61589 33.605469,18.699219 M 41.839844,17.289062 L 41.839844,18.523438 C 41.519527,18.380213 41.207027,18.27214 40.902344,18.199219 C 40.597653,18.126307 40.309893,18.089849 40.039062,18.089844 C 39.679685,18.089849 39.41406,18.139328 39.242188,18.238281 C 39.07031,18.337244 38.984373,18.49089 38.984375,18.699219 C 38.984373,18.855473 39.041665,18.977869 39.15625,19.066406 C 39.273435,19.152348 39.484373,19.226566 39.789062,19.289062 L 40.429688,19.417969 C 41.078121,19.54818 41.539058,19.746097 41.8125,20.011719 C 42.085932,20.277346 42.222651,20.65495 42.222656,21.144531 C 42.222651,21.787762 42.031245,22.266928 41.648438,22.582031 C 41.268225,22.894531 40.686194,23.050781 39.902344,23.050781 C 39.53255,23.050781 39.161456,23.015625 38.789062,22.945312 C 38.416665,22.875 38.04427,22.770834 37.671875,22.632812 L 37.671875,21.363281 C 38.04427,21.561199 38.403644,21.710939 38.75,21.8125 C 39.098956,21.911459 39.434893,21.960938 39.757812,21.960938 C 40.085934,21.960938 40.337236,21.906251 40.511719,21.796875 C 40.686194,21.687501 40.773434,21.531251 40.773438,21.328125 C 40.773434,21.145835 40.713538,21.00521 40.59375,20.90625 C 40.476559,20.807294 40.240882,20.718752 39.886719,20.640625 L 39.304688,20.511719 C 38.721352,20.386721 38.29427,20.187503 38.023438,19.914062 C 37.755208,19.640628 37.621093,19.272139 37.621094,18.808594 C 37.621093,18.227869 37.808593,17.781255 38.183594,17.46875 C 38.558592,17.156256 39.097654,17.000006 39.800781,17 C 40.121091,17.000006 40.450517,17.024745 40.789062,17.074219 C 41.1276,17.1211 41.47786,17.192714 41.839844,17.289062 M 45.027344,17.320312 L 45.027344,18.5625 L 46.46875,18.5625 L 46.46875,19.5625 L 45.027344,19.5625 L 45.027344,21.417969 C 45.027342,21.621095 45.067706,21.759116 45.148438,21.832031 C 45.229164,21.902345 45.38932,21.937501 45.628906,21.9375 L 46.347656,21.9375 L 46.347656,22.9375 L 45.148438,22.9375 C 44.596352,22.9375 44.204426,22.822917 43.972656,22.59375 C 43.743489,22.36198 43.628905,21.970053 43.628906,21.417969 L 43.628906,19.5625 L 42.933594,19.5625 L 42.933594,18.5625 L 43.628906,18.5625 L 43.628906,17.320312 L 45.027344,17.320312 M 49.410156,19.457031 C 49.100258,19.457035 48.863279,19.569014 48.699219,19.792969 C 48.537759,20.014326 48.457029,20.334638 48.457031,20.753906 C 48.457029,21.173179 48.537759,21.494793 48.699219,21.71875 C 48.863279,21.940105 49.100258,22.050782 49.410156,22.050781 C 49.714841,22.050782 49.947913,21.940105 50.109375,21.71875 C 50.27083,21.494793 50.351559,21.173179 50.351562,20.753906 C 50.351559,20.334638 50.27083,20.014326 50.109375,19.792969 C 49.947913,19.569014 49.714841,19.457035 49.410156,19.457031 M 49.410156,18.457031 C 50.162757,18.457036 50.749996,18.660161 51.171875,19.066406 C 51.596349,19.47266 51.808589,20.035159 51.808594,20.753906 C 51.808589,21.472658 51.596349,22.035157 51.171875,22.441406 C 50.749996,22.847656 50.162757,23.050781 49.410156,23.050781 C 48.654946,23.050781 48.063801,22.847656 47.636719,22.441406 C 47.212239,22.035157 47,21.472658 47,20.753906 C 47,20.035159 47.212239,19.47266 47.636719,19.066406 C 48.063801,18.660161 48.654946,18.457036 49.410156,18.457031 M 54.226562,22.304688 L 54.226562,24.601562 L 52.828125,24.601562 L 52.828125,18.5625 L 54.226562,18.5625 L 54.226562,19.203125 C 54.419269,18.947921 54.63281,18.760421 54.867188,18.640625 C 55.10156,18.518234 55.371091,18.457036 55.675781,18.457031 C 56.21484,18.457036 56.657548,18.671879 57.003906,19.101562 C 57.350255,19.528649 57.523432,20.07943 57.523438,20.753906 C 57.523432,21.428387 57.350255,21.98047 57.003906,22.410156 C 56.657548,22.83724 56.21484,23.050781 55.675781,23.050781 C 55.371091,23.050781 55.10156,22.990885 54.867188,22.871094 C 54.63281,22.748698 54.419269,22.559896 54.226562,22.304688 M 55.15625,19.472656 C 54.856768,19.47266 54.6263,19.583337 54.464844,19.804688 C 54.305987,20.02344 54.22656,20.339846 54.226562,20.753906 C 54.22656,21.167971 54.305987,21.485679 54.464844,21.707031 C 54.6263,21.925782 54.856768,22.035157 55.15625,22.035156 C 55.455726,22.035157 55.68359,21.925782 55.839844,21.707031 C 55.998694,21.488283 56.078121,21.170575 56.078125,20.753906 C 56.078121,20.337242 55.998694,20.019534 55.839844,19.800781 C 55.68359,19.582035 55.455726,19.47266 55.15625,19.472656"
       id="text2219" />
  </g>
  <g
     inkscape:groupmode="layer"
     id="layer2"
     inkscape:label="lights">
    <path
       sodipodi:type="arc"
       style="opacity:1;fill:url(#radialGradient2210);fill-opacity:1;stroke:none;stroke-width:1.06165099;stroke-linecap:round;stroke-linejoin:miter;stroke-miterlimit:4;stroke-dasharray:none;stroke-dashoffset:0;stroke-opacity:1"
       id="path2202"
       sodipodi:cx="23.821341"
       sodipodi:cy="23.821341"
       sodipodi:rx="20.724566"
       sodipodi:ry="20.724566"
       d="M 44.545906,23.821341 A 20.724566,20.724566 0 1 1 3.0967751,23.821341 A 20.724566,20.724566 0 1 1 44.545906,23.821341 z"
       transform="matrix(0.337196,0,0,0.337196,-2.7065e-2,-2.071522e-2)" />
    <path
       sodipodi:type="arc"
       style="opacity:0.5;fill:url(#radialGradient2190);fill-opacity:1;stroke:none;stroke-width:1.06165099;stroke-linecap:round;stroke-linejoin:miter;stroke-miterlimit:4;stroke-dasharray:none;stroke-dashoffset:0;stroke-opacity:1"
       id="path2182"
       sodipodi:cx="23.821341"
       sodipodi:cy="23.821341"
       sodipodi:rx="20.724566"
       sodipodi:ry="20.724566"
       d="M 44.545906,23.821341 A 20.724566,20.724566 0 1 1 3.0967751,23.821341 A 20.724566,20.724566 0 1 1 44.545906,23.821341 z"
       transform="matrix(0.337196,0,0,0.337196,-4.422e-2,-2.0701342e-2)" />
    <path
       sodipodi:type="arc"
       style="opacity:1;fill:none;fill-opacity:1;stroke:#ffffff;stroke-width:3.18779492;stroke-linecap:round;stroke-linejoin:miter;stroke-miterlimit:4;stroke-dasharray:none;stroke-dashoffset:0;stroke-opacity:0.63948502"
       id="path2233"
       sodipodi:cx="23.821341"
       sodipodi:cy="23.821341"
       sodipodi:rx="20.724566"
       sodipodi:ry="20.724566"
       d="M 44.545906 23.821341 A 20.724566 20.724566 0 1 1  3.0967751,23.821341 A 20.724566 20.724566 0 1 1  44.545906 23.821341 z"
       transform="matrix(0.313701,0,0,0.313691,0.526961,0.526913)" />
  </g>
</svg>
