<?xml version="1.0" encoding="UTF-8" standalone="no"?>
<!-- Created with Inkscape (http://www.inkscape.org/) -->
<svg
   xmlns:dc="http://purl.org/dc/elements/1.1/"
   xmlns:cc="http://web.resource.org/cc/"
   xmlns:rdf="http://www.w3.org/1999/02/22-rdf-syntax-ns#"
   xmlns:svg="http://www.w3.org/2000/svg"
   xmlns="http://www.w3.org/2000/svg"
   xmlns:xlink="http://www.w3.org/1999/xlink"
   xmlns:sodipodi="http://sodipodi.sourceforge.net/DTD/sodipodi-0.dtd"
   xmlns:inkscape="http://www.inkscape.org/namespaces/inkscape"
   width="16"
   height="16"
   id="svg2"
   sodipodi:version="0.32"
   inkscape:version="0.45+devel"
   version="1.0"
   sodipodi:docbase="/home/silvestre/.icons/Gion/16x16/actions/SVGs"
   sodipodi:docname="view-refresh.svg"
   inkscape:export-filename="/home/silvestre/.icons/Gion/16x16/actions/view-refresh.png"
   inkscape:export-xdpi="90"
   inkscape:export-ydpi="90"
   inkscape:output_extension="org.inkscape.output.svg.inkscape"
   sodipodi:modified="TRUE">
  <defs
     id="defs4">
    <linearGradient
       inkscape:collect="always"
       id="linearGradient2218">
      <stop
         style="stop-color:#000000;stop-opacity:1;"
         offset="0"
         id="stop2220" />
      <stop
         style="stop-color:#000000;stop-opacity:0;"
         offset="1"
         id="stop2222" />
    </linearGradient>
    <linearGradient
       id="linearGradient2204">
      <stop
         style="stop-color:#000000;stop-opacity:0"
         offset="0"
         id="stop2206" />
      <stop
         id="stop2212"
         offset="0.5"
         style="stop-color:#000000;stop-opacity:0;" />
      <stop
         style="stop-color:#000000;stop-opacity:0.06060606;"
         offset="0.75"
         id="stop2214" />
      <stop
         style="stop-color:#000000;stop-opacity:0.24892704"
         offset="1"
         id="stop2208" />
    </linearGradient>
    <linearGradient
       id="linearGradient2196"
       inkscape:collect="always">
      <stop
         id="stop2198"
         offset="0"
         style="stop-color:#ffffff;stop-opacity:1;" />
      <stop
         id="stop2200"
         offset="1"
         style="stop-color:#ffffff;stop-opacity:0" />
    </linearGradient>
    <linearGradient
       inkscape:collect="always"
       id="linearGradient2184">
      <stop
         style="stop-color:#ffffff;stop-opacity:1;"
         offset="0"
         id="stop2186" />
      <stop
         style="stop-color:#ffffff;stop-opacity:0;"
         offset="1"
         id="stop2188" />
    </linearGradient>
    <radialGradient
       inkscape:collect="always"
       xlink:href="#linearGradient2196"
       id="radialGradient2190"
       cx="23.821341"
       cy="19.220688"
       fx="23.821341"
       fy="11.559587"
       r="20.724566"
       gradientUnits="userSpaceOnUse" />
    <radialGradient
       inkscape:collect="always"
       xlink:href="#linearGradient2184"
       id="radialGradient2194"
       gradientUnits="userSpaceOnUse"
       cx="21.955513"
       cy="41.559357"
       fx="21.955513"
       fy="43.898674"
       r="20.724566"
       gradientTransform="matrix(0.592713,-6.494147e-8,6.494147e-8,0.592713,10.80802,15.56962)" />
    <radialGradient
       inkscape:collect="always"
       xlink:href="#linearGradient2204"
       id="radialGradient2210"
       cx="20.053436"
       cy="19.070505"
       fx="20.053436"
       fy="19.070505"
       r="20.724566"
       gradientUnits="userSpaceOnUse"
       gradientTransform="matrix(1.602242,0,0,1.602242,-13.98654,-13.89271)" />
    <radialGradient
       inkscape:collect="always"
       xlink:href="#linearGradient2218"
       id="radialGradient2224"
       cx="24.416874"
       cy="42.401985"
       fx="24.416874"
       fy="63.068226"
       r="23.702232"
       gradientTransform="matrix(1,0,0,0.226131,-4.300217e-16,32.8136)"
       gradientUnits="userSpaceOnUse" />
  </defs>
  <sodipodi:namedview
     id="base"
     pagecolor="#ffffff"
     bordercolor="#666666"
     borderopacity="1.0"
     inkscape:pageopacity="0.0"
     inkscape:pageshadow="2"
     inkscape:zoom="1"
     inkscape:cx="8"
     inkscape:cy="7.5"
     inkscape:document-units="px"
     inkscape:current-layer="layer2"
     inkscape:showpageshadow="false"
     showgrid="false"
     inkscape:grid-bbox="true"
     inkscape:window-width="897"
     inkscape:window-height="619"
     inkscape:window-x="6"
     inkscape:window-y="44"
     showborder="false"
     showguides="true"
     inkscape:guide-bbox="true" />
  <metadata
     id="metadata7">
    <rdf:RDF>
      <cc:Work
         rdf:about="">
        <dc:format>image/svg+xml</dc:format>
        <dc:type
           rdf:resource="http://purl.org/dc/dcmitype/StillImage" />
        <dc:title>Process Stop</dc:title>
        <dc:creator>
          <cc:Agent>
            <dc:title>Silvestre Herrera</dc:title>
          </cc:Agent>
        </dc:creator>
        <cc:license
           rdf:resource="http://creativecommons.org/licenses/GPL/2.0/" />
      </cc:Work>
      <cc:License
         rdf:about="http://creativecommons.org/licenses/GPL/2.0/">
        <cc:permits
           rdf:resource="http://web.resource.org/cc/Reproduction" />
        <cc:permits
           rdf:resource="http://web.resource.org/cc/Distribution" />
        <cc:requires
           rdf:resource="http://web.resource.org/cc/Notice" />
        <cc:permits
           rdf:resource="http://web.resource.org/cc/DerivativeWorks" />
        <cc:requires
           rdf:resource="http://web.resource.org/cc/ShareAlike" />
        <cc:requires
           rdf:resource="http://web.resource.org/cc/SourceCode" />
      </cc:License>
    </rdf:RDF>
  </metadata>
  <g
     inkscape:label="Capa 1"
     inkscape:groupmode="layer"
     id="layer1">
    <path
       sodipodi:type="arc"
       style="opacity:0.37229435;fill:url(#radialGradient2224);fill-opacity:1;stroke:none;stroke-width:1;stroke-linecap:round;stroke-linejoin:miter;stroke-miterlimit:4;stroke-dasharray:none;stroke-dashoffset:0;stroke-opacity:1"
       id="path2216"
       sodipodi:cx="24.416874"
       sodipodi:cy="42.401985"
       sodipodi:rx="23.702232"
       sodipodi:ry="5.3598013"
       d="M 48.119106 42.401985 A 23.702232 5.3598013 0 1 1  0.71464157,42.401985 A 23.702232 5.3598013 0 1 1  48.119106 42.401985 z"
       transform="matrix(0.337749,0,0,0.37315,-0.241369,-1.822273)" />
    <path
       sodipodi:type="arc"
       style="opacity:1;fill:#2269c9;fill-opacity:1;stroke:#304b70;stroke-width:2.76248479;stroke-linecap:round;stroke-linejoin:miter;stroke-miterlimit:4;stroke-dasharray:none;stroke-dashoffset:0;stroke-opacity:1"
       id="path1307"
       sodipodi:cx="23.821341"
       sodipodi:cy="23.821341"
       sodipodi:rx="20.724566"
       sodipodi:ry="20.724566"
       d="M 44.545906,23.821341 A 20.724566,20.724566 0 1 1 3.0967751,23.821341 A 20.724566,20.724566 0 1 1 44.545906,23.821341 z"
       transform="matrix(0.361916,0,0,0.362069,-0.6218755,-0.6212469)" />
    <path
       style="font-size:8px;font-style:normal;font-variant:normal;font-weight:normal;font-stretch:normal;text-align:start;line-height:125%;writing-mode:lr-tb;text-anchor:start;fill:#646464;fill-opacity:1;stroke:none;stroke-width:1px;stroke-linecap:butt;stroke-linejoin:miter;stroke-opacity:1;font-family:Bitstream Vera Sans"
       d="M 3.4960938,29.152344 C 3.4960899,28.623701 3.386715,28.209639 3.1679688,27.910157 C 2.9518196,27.608077 2.6536428,27.457035 2.2734375,27.457031 C 1.8932269,27.457035 1.593748,27.608077 1.375,27.910157 C 1.1588526,28.209639 1.0507798,28.623701 1.0507812,29.152344 C 1.0507798,29.680991 1.1588526,30.096356 1.375,30.398438 C 1.593748,30.697918 1.8932269,30.847657 2.2734375,30.847657 C 2.6536428,30.847657 2.9518196,30.697918 3.1679688,30.398438 C 3.386715,30.096356 3.4960899,29.680991 3.4960938,29.152344 M 1.0507812,27.625 C 1.2018213,27.364588 1.3919253,27.171879 1.6210938,27.046875 C 1.8528623,26.919275 2.1289037,26.855473 2.4492188,26.855469 C 2.9804654,26.855473 3.4114545,27.066411 3.7421875,27.488281 C 4.0755164,27.91016 4.2421829,28.464847 4.2421875,29.152344 C 4.2421829,29.839845 4.0755164,30.394532 3.7421875,30.816407 C 3.4114545,31.238282 2.9804654,31.449219 2.4492188,31.449219 C 2.1289037,31.449219 1.8528623,31.386719 1.6210938,31.261719 C 1.3919253,31.134115 1.2018213,30.940105 1.0507812,30.679688 L 1.0507812,31.335938 L 0.328125,31.335938 L 0.328125,25.257813 L 1.0507812,25.257813 L 1.0507812,27.625 M 7.2539062,31.742188 C 7.0507789,32.26302 6.8528624,32.602864 6.6601562,32.761719 C 6.4674461,32.920572 6.2096339,32.999999 5.8867188,33 L 5.3125,33 L 5.3125,32.398438 L 5.734375,32.398438 C 5.9322904,32.398437 6.0859361,32.351562 6.1953125,32.257813 C 6.3046859,32.164062 6.4257795,31.942708 6.5585938,31.59375 L 6.6875,31.265625 L 4.9179688,26.960938 L 5.6796875,26.960938 L 7.046875,30.382813 L 8.4140625,26.960938 L 9.1757812,26.960938 L 7.2539062,31.742188 M 16.242188,25.695313 L 16.242188,26.464844 C 15.942704,26.32162 15.660153,26.214849 15.394531,26.144531 C 15.128903,26.074224 14.872393,26.039068 14.625,26.039063 C 14.19531,26.039068 13.863279,26.122401 13.628906,26.289063 C 13.397134,26.455734 13.281249,26.692713 13.28125,27 C 13.281249,27.257817 13.358072,27.453129 13.511719,27.585938 C 13.667967,27.71615 13.962238,27.821618 14.394531,27.902344 L 14.871094,28 C 15.459632,28.111983 15.893225,28.309899 16.171875,28.59375 C 16.453121,28.875003 16.593745,29.252606 16.59375,29.726563 C 16.593745,30.291668 16.403641,30.720053 16.023438,31.011719 C 15.64583,31.303386 15.091143,31.449219 14.359375,31.449219 C 14.083331,31.449219 13.789061,31.417969 13.476562,31.355469 C 13.166665,31.292969 12.845051,31.200521 12.511719,31.078125 L 12.511719,30.265625 C 12.83203,30.445314 13.145832,30.58073 13.453125,30.671875 C 13.760415,30.763022 14.062498,30.808595 14.359375,30.808594 C 14.809893,30.808595 15.157549,30.720053 15.402344,30.542969 C 15.647132,30.365887 15.769527,30.113283 15.769531,29.785157 C 15.769527,29.4987 15.680986,29.274742 15.503906,29.113281 C 15.329424,28.951826 15.041664,28.830732 14.640625,28.75 L 14.160156,28.65625 C 13.571613,28.539066 13.145832,28.355472 12.882812,28.105469 C 12.619791,27.855472 12.488281,27.507817 12.488281,27.0625 C 12.488281,26.54688 12.66927,26.14063 13.03125,25.84375 C 13.395832,25.546881 13.897133,25.398444 14.535156,25.398438 C 14.808591,25.398444 15.087236,25.423183 15.371094,25.472657 C 15.654944,25.522141 15.945309,25.59636 16.242188,25.695313 M 17.808594,26.960938 L 18.527344,26.960938 L 18.527344,31.335938 L 17.808594,31.335938 L 17.808594,26.960938 M 17.808594,25.257813 L 18.527344,25.257813 L 18.527344,26.167969 L 17.808594,26.167969 L 17.808594,25.257813 M 20.027344,25.257813 L 20.746094,25.257813 L 20.746094,31.335938 L 20.027344,31.335938 L 20.027344,25.257813 M 21.730469,26.960938 L 22.492188,26.960938 L 23.859375,30.632813 L 25.226562,26.960938 L 25.988281,26.960938 L 24.347656,31.335938 L 23.371094,31.335938 L 21.730469,26.960938 M 30.722656,28.96875 L 30.722656,29.320313 L 27.417969,29.320313 C 27.449218,29.815106 27.597655,30.19271 27.863281,30.453125 C 28.131509,30.710938 28.503904,30.839844 28.980469,30.839844 C 29.256507,30.839844 29.523434,30.80599 29.78125,30.738281 C 30.041663,30.670574 30.299475,30.569011 30.554688,30.433594 L 30.554688,31.113281 C 30.296871,31.222657 30.032548,31.30599 29.761719,31.363281 C 29.490882,31.420573 29.216143,31.449219 28.9375,31.449219 C 28.239581,31.449219 27.686196,31.246094 27.277344,30.839844 C 26.871093,30.433595 26.667968,29.884116 26.667969,29.191407 C 26.667968,28.475264 26.860676,27.907556 27.246094,27.488281 C 27.634113,27.066411 28.156248,26.855473 28.8125,26.855469 C 29.401038,26.855473 29.865882,27.045577 30.207031,27.425781 C 30.550777,27.803389 30.722652,28.317712 30.722656,28.96875 M 30.003906,28.757813 C 29.998694,28.364587 29.888017,28.050785 29.671875,27.816407 C 29.45833,27.582035 29.174476,27.464848 28.820312,27.464844 C 28.419269,27.464848 28.097654,27.578129 27.855469,27.804688 C 27.615884,28.031254 27.477863,28.350264 27.441406,28.761719 L 30.003906,28.757813 M 34.675781,27.089844 L 34.675781,27.769531 C 34.472653,27.665369 34.261716,27.587244 34.042969,27.535157 C 33.824216,27.483077 33.597654,27.457035 33.363281,27.457031 C 33.006509,27.457035 32.73828,27.511723 32.558594,27.621094 C 32.381509,27.730473 32.292968,27.894535 32.292969,28.113281 C 32.292968,28.279951 32.35677,28.411462 32.484375,28.507813 C 32.611978,28.601565 32.868488,28.691409 33.253906,28.777344 L 33.5,28.832031 C 34.010414,28.941409 34.372393,29.096357 34.585938,29.296875 C 34.80208,29.494794 34.910152,29.772137 34.910156,30.128907 C 34.910152,30.535157 34.748694,30.856772 34.425781,31.09375 C 34.105466,31.330729 33.66406,31.449219 33.101562,31.449219 C 32.867186,31.449219 32.622394,31.425781 32.367188,31.378907 C 32.114582,31.334636 31.847656,31.266927 31.566406,31.175781 L 31.566406,30.433594 C 31.832031,30.571616 32.093749,30.675782 32.351562,30.746094 C 32.609374,30.813803 32.864582,30.847657 33.117188,30.847657 C 33.455727,30.847657 33.716143,30.790365 33.898438,30.675781 C 34.080726,30.558595 34.171872,30.394532 34.171875,30.183594 C 34.171872,29.988283 34.105466,29.838543 33.972656,29.734375 C 33.842445,29.63021 33.554685,29.52995 33.109375,29.433594 L 32.859375,29.375 C 32.414061,29.281252 32.092447,29.138023 31.894531,28.945313 C 31.696614,28.750003 31.597656,28.483076 31.597656,28.144531 C 31.597656,27.733077 31.743489,27.415369 32.035156,27.191407 C 32.326822,26.967453 32.740884,26.855473 33.277344,26.855469 C 33.542966,26.855473 33.792966,26.875005 34.027344,26.914063 C 34.261716,26.95313 34.477861,27.011723 34.675781,27.089844 M 36.753906,25.71875 L 36.753906,26.960938 L 38.234375,26.960938 L 38.234375,27.519531 L 36.753906,27.519531 L 36.753906,29.894531 C 36.753905,30.251303 36.802082,30.48047 36.898438,30.582031 C 36.997394,30.683595 37.196613,30.734376 37.496094,30.734375 L 38.234375,30.734375 L 38.234375,31.335938 L 37.496094,31.335938 C 36.941405,31.335938 36.558592,31.233073 36.347656,31.027344 C 36.136718,30.819011 36.031249,30.441407 36.03125,29.894531 L 36.03125,27.519531 L 35.503906,27.519531 L 35.503906,26.960938 L 36.03125,26.960938 L 36.03125,25.71875 L 36.753906,25.71875 M 41.71875,27.632813 C 41.638018,27.585941 41.549476,27.552087 41.453125,27.53125 C 41.359372,27.507817 41.255206,27.496098 41.140625,27.496094 C 40.734373,27.496098 40.421873,27.62891 40.203125,27.894531 C 39.986978,28.157556 39.878905,28.536461 39.878906,29.03125 L 39.878906,31.335938 L 39.15625,31.335938 L 39.15625,26.960938 L 39.878906,26.960938 L 39.878906,27.640625 C 40.029946,27.375004 40.226561,27.17839 40.46875,27.050781 C 40.710935,26.920578 41.005206,26.855473 41.351562,26.855469 C 41.401039,26.855473 41.455726,26.85938 41.515625,26.867188 C 41.575518,26.872401 41.641924,26.881515 41.714844,26.894531 L 41.71875,27.632813 M 46.207031,28.96875 L 46.207031,29.320313 L 42.902344,29.320313 C 42.933593,29.815106 43.08203,30.19271 43.347656,30.453125 C 43.615884,30.710938 43.988279,30.839844 44.464844,30.839844 C 44.740882,30.839844 45.007809,30.80599 45.265625,30.738281 C 45.526038,30.670574 45.78385,30.569011 46.039062,30.433594 L 46.039062,31.113281 C 45.781246,31.222657 45.516923,31.30599 45.246094,31.363281 C 44.975257,31.420573 44.700518,31.449219 44.421875,31.449219 C 43.723956,31.449219 43.170571,31.246094 42.761719,30.839844 C 42.355468,30.433595 42.152343,29.884116 42.152344,29.191407 C 42.152343,28.475264 42.345051,27.907556 42.730469,27.488281 C 43.118488,27.066411 43.640623,26.855473 44.296875,26.855469 C 44.885413,26.855473 45.350257,27.045577 45.691406,27.425781 C 46.035152,27.803389 46.207027,28.317712 46.207031,28.96875 M 45.488281,28.757813 C 45.483069,28.364587 45.372392,28.050785 45.15625,27.816407 C 44.942705,27.582035 44.658851,27.464848 44.304688,27.464844 C 43.903644,27.464848 43.582029,27.578129 43.339844,27.804688 C 43.100259,28.031254 42.962238,28.350264 42.925781,28.761719 L 45.488281,28.757813 M 49.949219,25.503907 L 50.738281,25.503907 L 50.738281,27.894531 L 53.605469,27.894531 L 53.605469,25.503907 L 54.394531,25.503907 L 54.394531,31.335938 L 53.605469,31.335938 L 53.605469,28.558594 L 50.738281,28.558594 L 50.738281,31.335938 L 49.949219,31.335938 L 49.949219,25.503907 M 59.675781,28.96875 L 59.675781,29.320313 L 56.371094,29.320313 C 56.402343,29.815106 56.55078,30.19271 56.816406,30.453125 C 57.084634,30.710938 57.457029,30.839844 57.933594,30.839844 C 58.209632,30.839844 58.476559,30.80599 58.734375,30.738281 C 58.994788,30.670574 59.2526,30.569011 59.507812,30.433594 L 59.507812,31.113281 C 59.249996,31.222657 58.985673,31.30599 58.714844,31.363281 C 58.444007,31.420573 58.169268,31.449219 57.890625,31.449219 C 57.192706,31.449219 56.639321,31.246094 56.230469,30.839844 C 55.824218,30.433595 55.621093,29.884116 55.621094,29.191407 C 55.621093,28.475264 55.813801,27.907556 56.199219,27.488281 C 56.587238,27.066411 57.109373,26.855473 57.765625,26.855469 C 58.354163,26.855473 58.819007,27.045577 59.160156,27.425781 C 59.503902,27.803389 59.675777,28.317712 59.675781,28.96875 M 58.957031,28.757813 C 58.951819,28.364587 58.841142,28.050785 58.625,27.816407 C 58.411455,27.582035 58.127601,27.464848 57.773438,27.464844 C 57.372394,27.464848 57.050779,27.578129 56.808594,27.804688 C 56.569009,28.031254 56.430988,28.350264 56.394531,28.761719 L 58.957031,28.757813 M 63.375,27.632813 C 63.294268,27.585941 63.205726,27.552087 63.109375,27.53125 C 63.015622,27.507817 62.911456,27.496098 62.796875,27.496094 C 62.390623,27.496098 62.078123,27.62891 61.859375,27.894531 C 61.643228,28.157556 61.535155,28.536461 61.535156,29.03125 L 61.535156,31.335938 L 60.8125,31.335938 L 60.8125,26.960938 L 61.535156,26.960938 L 61.535156,27.640625 C 61.686196,27.375004 61.882811,27.17839 62.125,27.050781 C 62.367185,26.920578 62.661456,26.855473 63.007812,26.855469 C 63.057289,26.855473 63.111976,26.85938 63.171875,26.867188 C 63.231768,26.872401 63.298174,26.881515 63.371094,26.894531 L 63.375,27.632813 M 66.65625,27.632813 C 66.575518,27.585941 66.486976,27.552087 66.390625,27.53125 C 66.296872,27.507817 66.192706,27.496098 66.078125,27.496094 C 65.671873,27.496098 65.359373,27.62891 65.140625,27.894531 C 64.924478,28.157556 64.816405,28.536461 64.816406,29.03125 L 64.816406,31.335938 L 64.09375,31.335938 L 64.09375,26.960938 L 64.816406,26.960938 L 64.816406,27.640625 C 64.967446,27.375004 65.164061,27.17839 65.40625,27.050781 C 65.648435,26.920578 65.942706,26.855473 66.289062,26.855469 C 66.338539,26.855473 66.393226,26.85938 66.453125,26.867188 C 66.513018,26.872401 66.579424,26.881515 66.652344,26.894531 L 66.65625,27.632813 M 71.144531,28.96875 L 71.144531,29.320313 L 67.839844,29.320313 C 67.871093,29.815106 68.01953,30.19271 68.285156,30.453125 C 68.553384,30.710938 68.925779,30.839844 69.402344,30.839844 C 69.678382,30.839844 69.945309,30.80599 70.203125,30.738281 C 70.463538,30.670574 70.72135,30.569011 70.976562,30.433594 L 70.976562,31.113281 C 70.718746,31.222657 70.454423,31.30599 70.183594,31.363281 C 69.912757,31.420573 69.638018,31.449219 69.359375,31.449219 C 68.661456,31.449219 68.108071,31.246094 67.699219,30.839844 C 67.292968,30.433595 67.089843,29.884116 67.089844,29.191407 C 67.089843,28.475264 67.282551,27.907556 67.667969,27.488281 C 68.055988,27.066411 68.578123,26.855473 69.234375,26.855469 C 69.822913,26.855473 70.287757,27.045577 70.628906,27.425781 C 70.972652,27.803389 71.144527,28.317712 71.144531,28.96875 M 70.425781,28.757813 C 70.420569,28.364587 70.309892,28.050785 70.09375,27.816407 C 69.880205,27.582035 69.596351,27.464848 69.242188,27.464844 C 68.841144,27.464848 68.519529,27.578129 68.277344,27.804688 C 68.037759,28.031254 67.899738,28.350264 67.863281,28.761719 L 70.425781,28.757813 M 74.84375,27.632813 C 74.763018,27.585941 74.674476,27.552087 74.578125,27.53125 C 74.484372,27.507817 74.380206,27.496098 74.265625,27.496094 C 73.859373,27.496098 73.546873,27.62891 73.328125,27.894531 C 73.111978,28.157556 73.003905,28.536461 73.003906,29.03125 L 73.003906,31.335938 L 72.28125,31.335938 L 72.28125,26.960938 L 73.003906,26.960938 L 73.003906,27.640625 C 73.154946,27.375004 73.351561,27.17839 73.59375,27.050781 C 73.835935,26.920578 74.130206,26.855473 74.476562,26.855469 C 74.526039,26.855473 74.580726,26.85938 74.640625,26.867188 C 74.700518,26.872401 74.766924,26.881515 74.839844,26.894531 L 74.84375,27.632813 M 77.578125,29.136719 C 76.997394,29.136721 76.59505,29.203127 76.371094,29.335938 C 76.147134,29.468752 76.035155,29.695314 76.035156,30.015625 C 76.035155,30.270835 76.118488,30.473959 76.285156,30.625 C 76.454425,30.773438 76.683592,30.847657 76.972656,30.847657 C 77.371091,30.847657 77.690101,30.707032 77.929688,30.425781 C 78.171872,30.141929 78.292965,29.765627 78.292969,29.296875 L 78.292969,29.136719 L 77.578125,29.136719 M 79.011719,28.839844 L 79.011719,31.335938 L 78.292969,31.335938 L 78.292969,30.671875 C 78.128903,30.937501 77.924476,31.134115 77.679688,31.261719 C 77.434893,31.386719 77.135414,31.449219 76.78125,31.449219 C 76.333332,31.449219 75.976561,31.324219 75.710938,31.074219 C 75.447916,30.821615 75.316406,30.484376 75.316406,30.0625 C 75.316406,29.570315 75.480468,29.199221 75.808594,28.949219 C 76.139322,28.699222 76.631509,28.574222 77.285156,28.574219 L 78.292969,28.574219 L 78.292969,28.503907 C 78.292965,28.17318 78.18359,27.917972 77.964844,27.738281 C 77.748695,27.555994 77.444008,27.464848 77.050781,27.464844 C 76.800779,27.464848 76.55729,27.494796 76.320312,27.554688 C 76.083332,27.614587 75.855468,27.704431 75.636719,27.824219 L 75.636719,27.160157 C 75.899739,27.058598 76.154947,26.983078 76.402344,26.933594 C 76.649738,26.881515 76.890623,26.855473 77.125,26.855469 C 77.75781,26.855473 78.230465,27.019536 78.542969,27.347657 C 78.855465,27.675785 79.011715,28.17318 79.011719,28.839844"
       id="text2257" />
    <path
       sodipodi:nodetypes="ccccccssccsssccccsccsccc"
       id="path2209"
       d="M 7.6875001,3.4915216 C 6.1859929,3.604183 4.8846686,4.5089471 4.1816406,5.7914063 L 3,5.0984277 L 3.4492187,8.3122405 L 6.7500003,7.2978803 L 5.5390628,6.5848164 C 5.9972722,5.7378607 6.8582689,5.1503666 7.8535156,5.0984277 C 7.9014303,5.0959274 7.9514854,5.0984277 8.0000009,5.0984277 C 9.1037302,5.0984277 10.059131,5.6459106 10.519533,6.5982654 L 12.189454,6.5982654 C 11.651507,4.7398495 9.9810552,3.4915216 8.0000009,3.4915216 C 7.9339655,3.4915216 7.8700125,3.4885392 7.8046879,3.4915216 C 7.7774564,3.492765 7.7536627,3.4897668 7.7265634,3.4915216 C 7.7120454,3.4924621 7.7019795,3.4904353 7.6875001,3.4915216 z M 12.199219,7.3480961 L 9.2500004,8.8043559 L 10.470704,9.3768163 C 9.9936643,10.276255 9.0657899,10.88329 8.0000009,10.88329 C 6.8962697,10.88329 5.940869,10.335807 5.4804687,9.3834527 L 3.8105467,9.3834527 C 4.3484935,11.241868 6.0189457,12.490196 8.0000009,12.490196 C 9.6978254,12.490196 11.162551,11.494184 11.886719,10.039663 L 13,10.561909 L 12.199219,7.3480961 z"
       style="fill:#ffffff;fill-opacity:1;stroke:none;stroke-width:1;stroke-linecap:round;stroke-linejoin:miter;stroke-miterlimit:4;stroke-dasharray:none;stroke-dashoffset:0;stroke-opacity:1" />
    <path
       style="font-size:8px;font-style:normal;font-variant:normal;font-weight:bold;font-stretch:normal;text-align:start;line-height:125%;writing-mode:lr-tb;text-anchor:start;fill:#000000;fill-opacity:1;stroke:none;stroke-width:1px;stroke-linecap:butt;stroke-linejoin:miter;stroke-opacity:1;font-family:Bitstream Vera Sans"
       d="M 0,18.503907 L 1.5117188,18.503907 L 3.0585938,22.808594 L 4.6015625,18.503907 L 6.1132812,18.503907 L 3.953125,24.335938 L 2.1601562,24.335938 L 0,18.503907 M 6.8203125,19.960938 L 8.21875,19.960938 L 8.21875,24.335938 L 6.8203125,24.335938 L 6.8203125,19.960938 M 6.8203125,18.257813 L 8.21875,18.257813 L 8.21875,19.398438 L 6.8203125,19.398438 L 6.8203125,18.257813 M 13.9375,22.136719 L 13.9375,22.535157 L 10.667969,22.535157 C 10.701821,22.863283 10.820311,23.109376 11.023438,23.273438 C 11.22656,23.437501 11.510414,23.519532 11.875,23.519531 C 12.169268,23.519532 12.470049,23.476564 12.777344,23.390625 C 13.087235,23.302085 13.404943,23.169272 13.730469,22.992188 L 13.730469,24.070313 C 13.399735,24.195313 13.069006,24.289063 12.738281,24.351563 C 12.407549,24.416667 12.07682,24.449219 11.746094,24.449219 C 10.954425,24.449219 10.33854,24.248698 9.8984375,23.847657 C 9.4609369,23.444012 9.2421872,22.878908 9.2421875,22.152344 C 9.2421872,21.438805 9.4570307,20.877608 9.8867188,20.46875 C 10.319009,20.0599 10.912758,19.855473 11.667969,19.855469 C 12.355465,19.855473 12.904944,20.062505 13.316406,20.476563 C 13.730464,20.890629 13.937495,21.444014 13.9375,22.136719 M 12.5,21.671875 C 12.499996,21.406253 12.421871,21.192712 12.265625,21.03125 C 12.111976,20.867191 11.910153,20.78516 11.660156,20.785157 C 11.38932,20.78516 11.169269,20.861983 11,21.015625 C 10.830727,21.16667 10.725259,21.38542 10.683594,21.671875 L 12.5,21.671875 M 14.617188,19.960938 L 15.976562,19.960938 L 16.710938,22.976563 L 17.449219,19.960938 L 18.617188,19.960938 L 19.351562,22.945313 L 20.089844,19.960938 L 21.449219,19.960938 L 20.296875,24.335938 L 18.769531,24.335938 L 18.03125,21.328125 L 17.296875,24.335938 L 15.769531,24.335938 L 14.617188,19.960938 M 27.378906,21.089844 C 27.694007,21.089847 27.919267,21.031254 28.054688,20.914063 C 28.192705,20.796879 28.261715,20.604171 28.261719,20.335938 C 28.261715,20.070317 28.192705,19.880213 28.054688,19.765625 C 27.919267,19.651047 27.694007,19.593755 27.378906,19.59375 L 26.746094,19.59375 L 26.746094,21.089844 L 27.378906,21.089844 M 26.746094,22.128907 L 26.746094,24.335938 L 25.242188,24.335938 L 25.242188,18.503907 L 27.539062,18.503907 C 28.307288,18.503912 28.869787,18.632818 29.226562,18.890625 C 29.585932,19.148443 29.76562,19.555995 29.765625,20.113281 C 29.76562,20.498702 29.67187,20.815108 29.484375,21.0625 C 29.299474,21.309899 29.019527,21.492191 28.644531,21.609375 C 28.850256,21.656253 29.03385,21.763024 29.195312,21.929688 C 29.35937,22.093752 29.524735,22.343752 29.691406,22.679688 L 30.507812,24.335938 L 28.90625,24.335938 L 28.195312,22.886719 C 28.05208,22.595054 27.906247,22.395836 27.757812,22.289063 C 27.611976,22.182294 27.416664,22.128909 27.171875,22.128907 L 26.746094,22.128907 M 35.703125,22.136719 L 35.703125,22.535157 L 32.433594,22.535157 C 32.467446,22.863283 32.585936,23.109376 32.789062,23.273438 C 32.992185,23.437501 33.276039,23.519532 33.640625,23.519531 C 33.934893,23.519532 34.235674,23.476564 34.542969,23.390625 C 34.85286,23.302085 35.170568,23.169272 35.496094,22.992188 L 35.496094,24.070313 C 35.16536,24.195313 34.834631,24.289063 34.503906,24.351563 C 34.173174,24.416667 33.842445,24.449219 33.511719,24.449219 C 32.72005,24.449219 32.104165,24.248698 31.664062,23.847657 C 31.226562,23.444012 31.007812,22.878908 31.007812,22.152344 C 31.007812,21.438805 31.222656,20.877608 31.652344,20.46875 C 32.084634,20.0599 32.678383,19.855473 33.433594,19.855469 C 34.12109,19.855473 34.670569,20.062505 35.082031,20.476563 C 35.496089,20.890629 35.70312,21.444014 35.703125,22.136719 M 34.265625,21.671875 C 34.265621,21.406253 34.187496,21.192712 34.03125,21.03125 C 33.877601,20.867191 33.675778,20.78516 33.425781,20.785157 C 33.154945,20.78516 32.934894,20.861983 32.765625,21.015625 C 32.596352,21.16667 32.490884,21.38542 32.449219,21.671875 L 34.265625,21.671875 M 39.652344,18.257813 L 39.652344,19.175781 L 38.878906,19.175781 C 38.680987,19.175787 38.542966,19.212245 38.464844,19.285157 C 38.386716,19.355474 38.347654,19.479172 38.347656,19.65625 L 38.347656,19.960938 L 39.542969,19.960938 L 39.542969,20.960938 L 38.347656,20.960938 L 38.347656,24.335938 L 36.949219,24.335938 L 36.949219,20.960938 L 36.253906,20.960938 L 36.253906,19.960938 L 36.949219,19.960938 L 36.949219,19.65625 C 36.949218,19.179693 37.08203,18.828131 37.347656,18.601563 C 37.61328,18.372402 38.024738,18.257819 38.582031,18.257813 L 39.652344,18.257813 M 43.507812,21.152344 C 43.385413,21.095056 43.263017,21.053389 43.140625,21.027344 C 43.02083,20.998702 42.899736,20.984379 42.777344,20.984375 C 42.417966,20.984379 42.140622,21.100264 41.945312,21.332031 C 41.752602,21.561201 41.656248,21.890628 41.65625,22.320313 L 41.65625,24.335938 L 40.257812,24.335938 L 40.257812,19.960938 L 41.65625,19.960938 L 41.65625,20.679688 C 41.835935,20.393233 42.041664,20.1849 42.273438,20.054688 C 42.50781,19.92188 42.787757,19.855473 43.113281,19.855469 C 43.160153,19.855473 43.210934,19.858078 43.265625,19.863281 C 43.320309,19.86589 43.399736,19.873703 43.503906,19.886719 L 43.507812,21.152344 M 48.578125,22.136719 L 48.578125,22.535157 L 45.308594,22.535157 C 45.342446,22.863283 45.460936,23.109376 45.664062,23.273438 C 45.867185,23.437501 46.151039,23.519532 46.515625,23.519531 C 46.809893,23.519532 47.110674,23.476564 47.417969,23.390625 C 47.72786,23.302085 48.045568,23.169272 48.371094,22.992188 L 48.371094,24.070313 C 48.04036,24.195313 47.709631,24.289063 47.378906,24.351563 C 47.048174,24.416667 46.717445,24.449219 46.386719,24.449219 C 45.59505,24.449219 44.979165,24.248698 44.539062,23.847657 C 44.101562,23.444012 43.882812,22.878908 43.882812,22.152344 C 43.882812,21.438805 44.097656,20.877608 44.527344,20.46875 C 44.959634,20.0599 45.553383,19.855473 46.308594,19.855469 C 46.99609,19.855473 47.545569,20.062505 47.957031,20.476563 C 48.371089,20.890629 48.57812,21.444014 48.578125,22.136719 M 47.140625,21.671875 C 47.140621,21.406253 47.062496,21.192712 46.90625,21.03125 C 46.752601,20.867191 46.550778,20.78516 46.300781,20.785157 C 46.029945,20.78516 45.809894,20.861983 45.640625,21.015625 C 45.471352,21.16667 45.365884,21.38542 45.324219,21.671875 L 47.140625,21.671875 M 53.066406,20.097657 L 53.066406,21.160157 C 52.766923,21.03516 52.477861,20.94141 52.199219,20.878907 C 51.92057,20.81641 51.657549,20.78516 51.410156,20.785157 C 51.144529,20.78516 50.946613,20.819014 50.816406,20.886719 C 50.6888,20.951827 50.624998,21.053389 50.625,21.191407 C 50.624998,21.303389 50.673175,21.389326 50.769531,21.449219 C 50.868488,21.509118 51.044269,21.553388 51.296875,21.582031 L 51.542969,21.617188 C 52.259111,21.708336 52.740882,21.858076 52.988281,22.066407 C 53.235673,22.274742 53.359371,22.601564 53.359375,23.046875 C 53.359371,23.513022 53.187496,23.863282 52.84375,24.097657 C 52.499996,24.332032 51.986976,24.449219 51.304688,24.449219 C 51.015623,24.449219 50.716144,24.425781 50.40625,24.378907 C 50.098957,24.334636 49.782551,24.266927 49.457031,24.175781 L 49.457031,23.113281 C 49.735676,23.248699 50.020832,23.350262 50.3125,23.417969 C 50.606769,23.485678 50.904946,23.519532 51.207031,23.519531 C 51.480466,23.519532 51.686195,23.481772 51.824219,23.40625 C 51.962237,23.33073 52.031247,23.218751 52.03125,23.070313 C 52.031247,22.945314 51.98307,22.852866 51.886719,22.792969 C 51.792966,22.730471 51.604164,22.682294 51.320312,22.648438 L 51.074219,22.617188 C 50.451821,22.539065 50.015624,22.394533 49.765625,22.183594 C 49.515624,21.972659 49.390625,21.652347 49.390625,21.222657 C 49.390625,20.759118 49.549479,20.415369 49.867188,20.191407 C 50.184895,19.967453 50.671873,19.855473 51.328125,19.855469 C 51.585935,19.855473 51.856768,19.875005 52.140625,19.914063 C 52.424476,19.95313 52.733069,20.014327 53.066406,20.097657 M 58.796875,21.671875 L 58.796875,24.335938 L 57.390625,24.335938 L 57.390625,23.902344 L 57.390625,22.304688 C 57.390621,21.921878 57.381507,21.658857 57.363281,21.515625 C 57.347653,21.372399 57.319007,21.26693 57.277344,21.199219 C 57.222653,21.108076 57.148434,21.037764 57.054688,20.988281 C 56.960934,20.936202 56.854164,20.91016 56.734375,20.910157 C 56.442706,20.91016 56.213539,21.023441 56.046875,21.25 C 55.880206,21.473961 55.796873,21.785159 55.796875,22.183594 L 55.796875,24.335938 L 54.398438,24.335938 L 54.398438,18.257813 L 55.796875,18.257813 L 55.796875,20.601563 C 56.00781,20.346358 56.231768,20.158859 56.46875,20.039063 C 56.705726,19.916671 56.967445,19.855473 57.253906,19.855469 C 57.759111,19.855473 58.141923,20.010421 58.402344,20.320313 C 58.66536,20.630212 58.79687,21.080733 58.796875,21.671875"
       id="text2329" />
  </g>
  <g
     inkscape:groupmode="layer"
     id="layer2"
     inkscape:label="lights">
    <path
       sodipodi:type="arc"
       style="opacity:0.5;fill:url(#radialGradient2190);fill-opacity:1;stroke:none;stroke-width:1.06165099;stroke-linecap:round;stroke-linejoin:miter;stroke-miterlimit:4;stroke-dasharray:none;stroke-dashoffset:0;stroke-opacity:1"
       id="path2182"
       sodipodi:cx="23.821341"
       sodipodi:cy="23.821341"
       sodipodi:rx="20.724566"
       sodipodi:ry="20.724566"
       d="M 44.545906,23.821341 A 20.724566,20.724566 0 1 1 3.0967751,23.821341 A 20.724566,20.724566 0 1 1 44.545906,23.821341 z"
       transform="matrix(0.337196,0,0,0.337196,-2.7066e-2,-2.071522e-2)" />
    <path
       sodipodi:type="arc"
       style="opacity:1;fill:url(#radialGradient2210);fill-opacity:1;stroke:none;stroke-width:1.06165099;stroke-linecap:round;stroke-linejoin:miter;stroke-miterlimit:4;stroke-dasharray:none;stroke-dashoffset:0;stroke-opacity:1"
       id="path2202"
       sodipodi:cx="23.821341"
       sodipodi:cy="23.821341"
       sodipodi:rx="20.724566"
       sodipodi:ry="20.724566"
       d="M 44.545906,23.821341 A 20.724566,20.724566 0 1 1 3.0967751,23.821341 A 20.724566,20.724566 0 1 1 44.545906,23.821341 z"
       transform="matrix(0.337196,0,0,0.337196,-2.7065e-2,-2.071522e-2)" />
    <path
       sodipodi:type="arc"
       style="opacity:1;fill:none;fill-opacity:1;stroke:#ffffff;stroke-width:3.18802762;stroke-linecap:round;stroke-linejoin:miter;stroke-miterlimit:4;stroke-dasharray:none;stroke-dashoffset:0;stroke-opacity:0.63948502"
       id="path2233"
       sodipodi:cx="23.821341"
       sodipodi:cy="23.821341"
       sodipodi:rx="20.724566"
       sodipodi:ry="20.724566"
       d="M 44.545906 23.821341 A 20.724566 20.724566 0 1 1  3.0967751,23.821341 A 20.724566 20.724566 0 1 1  44.545906 23.821341 z"
       transform="matrix(0.313647,0,0,0.3137,0.528785,0.527465)" />
  </g>
</svg>
