<?xml version="1.0" encoding="UTF-8" standalone="no"?>
<!-- Created with Inkscape (http://www.inkscape.org/) -->
<svg
   xmlns:dc="http://purl.org/dc/elements/1.1/"
   xmlns:cc="http://web.resource.org/cc/"
   xmlns:rdf="http://www.w3.org/1999/02/22-rdf-syntax-ns#"
   xmlns:svg="http://www.w3.org/2000/svg"
   xmlns="http://www.w3.org/2000/svg"
   xmlns:xlink="http://www.w3.org/1999/xlink"
   xmlns:sodipodi="http://inkscape.sourceforge.net/DTD/sodipodi-0.dtd"
   xmlns:inkscape="http://www.inkscape.org/namespaces/inkscape"
   width="128.00000px"
   height="128.00000px"
   id="svg2"
   sodipodi:version="0.32"
   inkscape:version="0.42.2"
   sodipodi:docbase="/home/silvestre/Desktop/Nuovo!/scalable/apps"
   sodipodi:docname="bmp.svg">
  <defs
     id="defs4">
    <linearGradient
       inkscape:collect="always"
       id="linearGradient2071">
      <stop
         style="stop-color:#656565;stop-opacity:1.0000000"
         offset="0"
         id="stop2073" />
      <stop
         style="stop-color:#383838;stop-opacity:1.0000000"
         offset="1"
         id="stop2075" />
    </linearGradient>
    <linearGradient
       inkscape:collect="always"
       id="linearGradient2790">
      <stop
         style="stop-color:#ffffff;stop-opacity:1;"
         offset="0"
         id="stop2792" />
      <stop
         style="stop-color:#ffffff;stop-opacity:0;"
         offset="1"
         id="stop2794" />
    </linearGradient>
    <linearGradient
       inkscape:collect="always"
       id="linearGradient5826">
      <stop
         style="stop-color:#ffffff;stop-opacity:1;"
         offset="0"
         id="stop5828" />
      <stop
         style="stop-color:#ffffff;stop-opacity:0;"
         offset="1"
         id="stop5830" />
    </linearGradient>
    <linearGradient
       id="linearGradient4261">
      <stop
         id="stop4263"
         offset="0.0000000"
         style="stop-color:#ffffff;stop-opacity:1.0000000;" />
      <stop
         id="stop4265"
         offset="1.0000000"
         style="stop-color:#ffffff;stop-opacity:0.0000000;" />
    </linearGradient>
    <linearGradient
       id="linearGradient4249">
      <stop
         style="stop-color:#636363;stop-opacity:1;"
         offset="0"
         id="stop4251" />
      <stop
         style="stop-color:#636363;stop-opacity:0;"
         offset="1"
         id="stop4253" />
    </linearGradient>
    <linearGradient
       id="linearGradient4241"
       inkscape:collect="always">
      <stop
         id="stop4243"
         offset="0"
         style="stop-color:#a8a8a8;stop-opacity:1.0000000" />
      <stop
         id="stop4245"
         offset="1"
         style="stop-color:#cfcfcf;stop-opacity:1.0000000" />
    </linearGradient>
    <linearGradient
       inkscape:collect="always"
       xlink:href="#linearGradient4241"
       id="linearGradient6572"
       gradientUnits="userSpaceOnUse"
       gradientTransform="translate(1.380054,2.070081)"
       x1="80.995178"
       y1="75.796539"
       x2="80.995178"
       y2="47.958538" />
    <linearGradient
       inkscape:collect="always"
       xlink:href="#linearGradient4249"
       id="linearGradient6574"
       gradientUnits="userSpaceOnUse"
       gradientTransform="translate(1.380054,2.070081)"
       x1="85.873764"
       y1="52.006653"
       x2="85.873764"
       y2="67.877274" />
    <linearGradient
       inkscape:collect="always"
       xlink:href="#linearGradient4261"
       id="linearGradient6576"
       gradientUnits="userSpaceOnUse"
       gradientTransform="translate(3.450134,2.070081)"
       x1="85.873764"
       y1="52.006653"
       x2="85.873764"
       y2="67.877274" />
    <linearGradient
       inkscape:collect="always"
       xlink:href="#linearGradient4249"
       id="linearGradient6578"
       gradientUnits="userSpaceOnUse"
       gradientTransform="translate(5.419163,3.307225)"
       x1="51.354507"
       y1="25.185986"
       x2="46.281116"
       y2="74.867928" />
    <linearGradient
       inkscape:collect="always"
       xlink:href="#linearGradient4261"
       id="linearGradient6580"
       gradientUnits="userSpaceOnUse"
       gradientTransform="translate(4.687279,4.283071)"
       x1="54.010155"
       y1="20.355801"
       x2="50.905033"
       y2="76.247986" />
    <linearGradient
       inkscape:collect="always"
       xlink:href="#linearGradient5826"
       id="linearGradient6582"
       gradientUnits="userSpaceOnUse"
       x1="28.634653"
       y1="71.801712"
       x2="50.641205"
       y2="67.316536" />
    <linearGradient
       inkscape:collect="always"
       xlink:href="#linearGradient2790"
       id="linearGradient2807"
       gradientUnits="userSpaceOnUse"
       x1="29.326145"
       y1="10.984456"
       x2="31.741240"
       y2="18.975740" />
    <linearGradient
       inkscape:collect="always"
       xlink:href="#linearGradient2790"
       id="linearGradient2809"
       gradientUnits="userSpaceOnUse"
       x1="18.975740"
       y1="90.682564"
       x2="30.706200"
       y2="101.43396" />
    <linearGradient
       inkscape:collect="always"
       xlink:href="#linearGradient2790"
       id="linearGradient2831"
       gradientUnits="userSpaceOnUse"
       x1="29.326145"
       y1="10.984456"
       x2="31.741240"
       y2="18.975740" />
    <linearGradient
       inkscape:collect="always"
       xlink:href="#linearGradient2790"
       id="linearGradient2833"
       gradientUnits="userSpaceOnUse"
       x1="18.975740"
       y1="90.682564"
       x2="30.706200"
       y2="101.43396" />
    <radialGradient
       inkscape:collect="always"
       xlink:href="#linearGradient2071"
       id="radialGradient2077"
       cx="18.637295"
       cy="78.758736"
       fx="18.637295"
       fy="78.758736"
       r="38.494951"
       gradientTransform="matrix(0.431143,-4.082687e-25,1.035331e-25,0.411696,11.17435,60.56879)"
       gradientUnits="userSpaceOnUse" />
    <radialGradient
       inkscape:collect="always"
       xlink:href="#linearGradient2071"
       id="radialGradient2087"
       gradientUnits="userSpaceOnUse"
       gradientTransform="matrix(0.431143,-4.082687e-25,1.035331e-25,0.411696,11.17435,60.56879)"
       cx="18.637295"
       cy="78.758736"
       fx="18.637295"
       fy="78.758736"
       r="38.494951" />
    <linearGradient
       inkscape:collect="always"
       xlink:href="#linearGradient2790"
       id="linearGradient2089"
       gradientUnits="userSpaceOnUse"
       x1="29.326145"
       y1="10.984456"
       x2="31.741240"
       y2="18.975740" />
    <linearGradient
       inkscape:collect="always"
       xlink:href="#linearGradient2790"
       id="linearGradient2091"
       gradientUnits="userSpaceOnUse"
       x1="18.975740"
       y1="90.682564"
       x2="30.706200"
       y2="101.43396" />
  </defs>
  <sodipodi:namedview
     id="base"
     pagecolor="#ffffff"
     bordercolor="#666666"
     borderopacity="1.0"
     inkscape:pageopacity="0.0"
     inkscape:pageshadow="2"
     inkscape:zoom="2.8984375"
     inkscape:cx="30.555717"
     inkscape:cy="87.749236"
     inkscape:document-units="px"
     inkscape:current-layer="layer1"
     showguides="true"
     inkscape:guide-bbox="true"
     inkscape:window-width="772"
     inkscape:window-height="543"
     inkscape:window-x="123"
     inkscape:window-y="82" />
  <metadata
     id="metadata7">
    <rdf:RDF>
      <cc:Work
         rdf:about="">
        <dc:format>image/svg+xml</dc:format>
        <dc:type
           rdf:resource="http://purl.org/dc/dcmitype/StillImage" />
      </cc:Work>
    </rdf:RDF>
  </metadata>
  <g
     inkscape:label="Layer 1"
     inkscape:groupmode="layer"
     id="layer1">
    <g
       id="g6562"
       transform="matrix(0.861939,0.230956,-0.230956,0.861939,34.08912,7.177913)">
      <path
         sodipodi:nodetypes="ccccccccc"
         id="path1308"
         d="M 58.799335,14.082055 C 39.308784,-5.4084966 36.974625,140.96059 57.586927,120.34829 C 58.529256,119.45826 60.894767,117.61944 59.767015,115.65124 L 88.815027,86.415094 L 114.00252,86.415094 C 126.77332,86.415094 126.42361,46.415094 114.00252,46.415094 L 88.877527,46.415094 L 59.490902,17.272430 C 60.451931,15.737044 59.649627,15.013667 58.799335,14.082055 z "
         style="fill:url(#linearGradient6572);fill-opacity:1.0000000;fill-rule:evenodd;stroke:#7f7f7f;stroke-width:3.0000000;stroke-linecap:round;stroke-linejoin:round;stroke-miterlimit:4.0000000;stroke-dasharray:none;stroke-opacity:1.0000000" />
      <path
         sodipodi:nodetypes="ccccc"
         id="path5834"
         d="M 88.349804,85.035040 L 112.99039,85.035040 C 125.42137,85.035040 125.08097,47.795148 112.99039,47.795148 L 89.100669,47.795148 C 84.406269,62.677198 85.738502,76.737912 88.349804,85.035040 z "
         style="fill:#000000;fill-opacity:0.35175881;fill-rule:evenodd;stroke:none;stroke-width:3.0000000;stroke-linecap:round;stroke-linejoin:round;stroke-miterlimit:4.0000000;stroke-dasharray:none;stroke-opacity:1.0000000" />
      <g
         id="g4307">
        <path
           style="fill:none;fill-opacity:0.75000000;fill-rule:evenodd;stroke:url(#linearGradient6574);stroke-width:2.0000000;stroke-linecap:round;stroke-linejoin:miter;stroke-miterlimit:4.0000000;stroke-dasharray:none;stroke-opacity:1.0000000"
           d="M 88.718224,47.855099 C 84.977483,56.800349 84.652201,75.504054 88.718224,84.449305"
           id="path4247"
           sodipodi:nodetypes="cc" />
        <path
           style="fill:none;fill-opacity:0.75000000;fill-rule:evenodd;stroke:url(#linearGradient6576);stroke-width:2.0000000;stroke-linecap:round;stroke-linejoin:miter;stroke-miterlimit:4.0000000;stroke-dasharray:none;stroke-opacity:1.0000000"
           d="M 90.788304,47.855099 C 87.047563,56.800349 86.722281,75.504054 90.788304,84.449305"
           id="path4257"
           sodipodi:nodetypes="cc" />
      </g>
      <path
         sodipodi:nodetypes="cc"
         id="path4326"
         d="M 58.290577,19.511474 C 47.994580,32.941899 46.979271,99.947487 58.290577,122.34827"
         style="fill:none;fill-opacity:0.75000000;fill-rule:evenodd;stroke:url(#linearGradient6578);stroke-width:2.0000000;stroke-linecap:round;stroke-linejoin:miter;stroke-miterlimit:4.0000000;stroke-dasharray:none;stroke-opacity:1.0000000" />
      <path
         sodipodi:nodetypes="cc"
         id="path4328"
         d="M 59.628773,20.487320 C 51.402857,34.952786 46.592400,84.362685 59.628773,122.63409"
         style="fill:none;fill-opacity:1.0000000;fill-rule:evenodd;stroke:url(#linearGradient6580);stroke-width:2.0000000;stroke-linecap:round;stroke-linejoin:miter;stroke-miterlimit:4.0000000;stroke-dasharray:none;stroke-opacity:1.0000000" />
      <path
         sodipodi:nodetypes="ccccccccc"
         id="path5824"
         d="M 58.799335,14.082055 C 39.308784,-5.4084966 36.974625,140.96059 57.586927,120.34829 C 58.529256,119.45826 60.894767,117.61944 59.767015,115.65124 L 88.815027,86.415094 L 114.00252,86.415094 C 126.77332,86.415094 126.42361,46.415094 114.00252,46.415094 L 88.877527,46.415094 L 59.490902,17.272430 C 60.451931,15.737044 59.649627,15.013667 58.799335,14.082055 z "
         style="fill:url(#linearGradient6582);fill-opacity:1.0000000;fill-rule:evenodd;stroke:none;stroke-width:3.0000000;stroke-linecap:round;stroke-linejoin:round;stroke-miterlimit:4.0000000;stroke-dasharray:none;stroke-opacity:1.0000000" />
    </g>
    <g
       id="g2802"
       transform="matrix(0.562359,0.000000,0.000000,0.562359,-1.056636,-1.454982)">
      <path
         sodipodi:nodetypes="cccssssccc"
         id="path1330"
         d="M 30.377114,9.1817638 C 27.329607,9.8975937 24.454607,10.785931 21.924621,12.105534 L 36.233415,84.798004 C 33.096972,84.443390 28.386148,84.800725 24.845864,85.525514 C 13.058490,87.938695 4.7402415,95.890650 6.2521137,103.27551 C 7.7639862,110.66037 18.558491,114.68869 30.345864,112.27551 C 42.133239,109.86233 50.349692,101.93049 48.939614,94.525514 L 35.187500,22.306764 C 48.988320,18.276749 68.678888,30.462368 80.064614,43.338014 C 75.232572,26.777395 50.044735,5.7316010 30.377114,9.1817638 z "
         style="color:#000000;fill:url(#radialGradient2077);fill-opacity:1.0;fill-rule:evenodd;stroke:#000000;stroke-width:3.0000000;stroke-linecap:round;stroke-linejoin:round;marker:none;marker-start:none;marker-mid:none;marker-end:none;stroke-miterlimit:4.0000000;stroke-dasharray:none;stroke-dashoffset:0.0000000;stroke-opacity:1.0000000;visibility:visible;display:inline;overflow:visible" />
      <path
         sodipodi:nodetypes="cccssssccc"
         id="path2788"
         d="M 29.679607,12.479963 C 26.795981,13.157299 27.870733,12.790319 25.476798,14.038959 L 39.878665,86.962526 C 36.910885,86.626981 30.555814,87.482620 27.205910,88.168434 C 16.052406,90.451845 8.0089682,95.733592 9.4395389,102.72133 C 10.870110,109.70907 19.876589,111.79569 31.030091,109.51228 C 42.183596,107.22887 47.465274,100.96607 46.036354,93.579334 L 31.816217,20.068973 C 44.874893,16.255674 62.816567,22.783311 73.245007,33.586510 C 64.187635,22.746633 48.289594,9.2153343 29.679607,12.479963 z "
         style="color:#000000;fill:none;fill-opacity:1.0000000;fill-rule:evenodd;stroke:url(#linearGradient2807);stroke-width:2.0000000;stroke-linecap:round;stroke-linejoin:round;marker:none;marker-start:none;marker-mid:none;marker-end:none;stroke-miterlimit:4.0000000;stroke-dasharray:none;stroke-dashoffset:0.0000000;stroke-opacity:1.0000000;visibility:visible;display:inline;overflow:visible" />
      <path
         sodipodi:nodetypes="cssssc"
         id="path2798"
         d="M 39.878665,86.962526 C 36.910885,86.626981 30.555814,87.482620 27.205910,88.168434 C 16.052406,90.451845 8.0089682,95.733592 9.4395389,102.72133 C 10.870110,109.70907 19.876589,111.79569 31.030091,109.51228 C 42.183596,107.22887 47.465274,100.96607 46.036354,93.579334 L 39.878665,86.962526 z "
         style="color:#000000;fill:none;fill-opacity:1.0000000;fill-rule:evenodd;stroke:url(#linearGradient2809);stroke-width:2.0000000;stroke-linecap:round;stroke-linejoin:round;marker:none;marker-start:none;marker-mid:none;marker-end:none;stroke-miterlimit:4.0000000;stroke-dasharray:none;stroke-dashoffset:0.0000000;stroke-opacity:1.0000000;visibility:visible;display:inline;overflow:visible" />
    </g>
    <g
       id="g2079"
       transform="matrix(0.562359,0.000000,0.000000,0.562359,18.95415,20.97089)">
      <path
         sodipodi:nodetypes="cccssssccc"
         id="path2081"
         d="M 30.377114,9.1817638 C 27.329607,9.8975937 24.454607,10.785931 21.924621,12.105534 L 36.233415,84.798004 C 33.096972,84.443390 28.386148,84.800725 24.845864,85.525514 C 13.058490,87.938695 4.7402415,95.890650 6.2521137,103.27551 C 7.7639862,110.66037 18.558491,114.68869 30.345864,112.27551 C 42.133239,109.86233 50.349692,101.93049 48.939614,94.525514 L 35.187500,22.306764 C 48.988320,18.276749 68.678888,30.462368 80.064614,43.338014 C 75.232572,26.777395 50.044735,5.7316010 30.377114,9.1817638 z "
         style="color:#000000;fill:url(#radialGradient2087);fill-opacity:1.0000000;fill-rule:evenodd;stroke:#000000;stroke-width:3.0000000;stroke-linecap:round;stroke-linejoin:round;marker:none;marker-start:none;marker-mid:none;marker-end:none;stroke-miterlimit:4.0000000;stroke-dasharray:none;stroke-dashoffset:0.0000000;stroke-opacity:1.0000000;visibility:visible;display:inline;overflow:visible" />
      <path
         sodipodi:nodetypes="cccssssccc"
         id="path2083"
         d="M 29.679607,12.479963 C 26.795981,13.157299 27.870733,12.790319 25.476798,14.038959 L 39.878665,86.962526 C 36.910885,86.626981 30.555814,87.482620 27.205910,88.168434 C 16.052406,90.451845 8.0089682,95.733592 9.4395389,102.72133 C 10.870110,109.70907 19.876589,111.79569 31.030091,109.51228 C 42.183596,107.22887 47.465274,100.96607 46.036354,93.579334 L 31.816217,20.068973 C 44.874893,16.255674 62.816567,22.783311 73.245007,33.586510 C 64.187635,22.746633 48.289594,9.2153343 29.679607,12.479963 z "
         style="color:#000000;fill:none;fill-opacity:1.0000000;fill-rule:evenodd;stroke:url(#linearGradient2089);stroke-width:2.0000000;stroke-linecap:round;stroke-linejoin:round;marker:none;marker-start:none;marker-mid:none;marker-end:none;stroke-miterlimit:4.0000000;stroke-dasharray:none;stroke-dashoffset:0.0000000;stroke-opacity:1.0000000;visibility:visible;display:inline;overflow:visible" />
      <path
         sodipodi:nodetypes="cssssc"
         id="path2085"
         d="M 39.878665,86.962526 C 36.910885,86.626981 30.555814,87.482620 27.205910,88.168434 C 16.052406,90.451845 8.0089682,95.733592 9.4395389,102.72133 C 10.870110,109.70907 19.876589,111.79569 31.030091,109.51228 C 42.183596,107.22887 47.465274,100.96607 46.036354,93.579334 L 39.878665,86.962526 z "
         style="color:#000000;fill:none;fill-opacity:1.0000000;fill-rule:evenodd;stroke:url(#linearGradient2091);stroke-width:2.0000000;stroke-linecap:round;stroke-linejoin:round;marker:none;marker-start:none;marker-mid:none;marker-end:none;stroke-miterlimit:4.0000000;stroke-dasharray:none;stroke-dashoffset:0.0000000;stroke-opacity:1.0000000;visibility:visible;display:inline;overflow:visible" />
    </g>
  </g>
</svg>
