<?xml version="1.0" encoding="UTF-8" standalone="no"?>
<!-- Created with Inkscape (http://www.inkscape.org/) -->
<svg
   xmlns:dc="http://purl.org/dc/elements/1.1/"
   xmlns:cc="http://web.resource.org/cc/"
   xmlns:rdf="http://www.w3.org/1999/02/22-rdf-syntax-ns#"
   xmlns:svg="http://www.w3.org/2000/svg"
   xmlns="http://www.w3.org/2000/svg"
   xmlns:xlink="http://www.w3.org/1999/xlink"
   xmlns:sodipodi="http://inkscape.sourceforge.net/DTD/sodipodi-0.dtd"
   xmlns:inkscape="http://www.inkscape.org/namespaces/inkscape"
   width="128.00000px"
   height="128.00000px"
   id="svg2"
   sodipodi:version="0.32"
   inkscape:version="0.42.2"
   sodipodi:docbase="/home/silvestre/Desktop/Nuovo!/scalable/apps"
   sodipodi:docname="dog.svg">
  <defs
     id="defs4">
    <linearGradient
       inkscape:collect="always"
       id="linearGradient2058">
      <stop
         style="stop-color:#ffffff;stop-opacity:1;"
         offset="0"
         id="stop2060" />
      <stop
         style="stop-color:#ffffff;stop-opacity:0;"
         offset="1"
         id="stop2062" />
    </linearGradient>
    <linearGradient
       inkscape:collect="always"
       id="linearGradient6502">
      <stop
         style="stop-color:#000000;stop-opacity:0.080402009"
         offset="0"
         id="stop6504" />
      <stop
         style="stop-color:#000000;stop-opacity:0;"
         offset="1"
         id="stop6506" />
    </linearGradient>
    <linearGradient
       inkscape:collect="always"
       id="linearGradient4259">
      <stop
         style="stop-color:#d8c2a6;stop-opacity:1.0000000"
         offset="0"
         id="stop4261" />
      <stop
         style="stop-color:#b39b7e;stop-opacity:1.0000000"
         offset="1"
         id="stop4263" />
    </linearGradient>
    <radialGradient
       inkscape:collect="always"
       xlink:href="#linearGradient6502"
       id="radialGradient2089"
       gradientUnits="userSpaceOnUse"
       gradientTransform="matrix(1.000000,0.000000,0.000000,0.103175,9.644521e-16,108.2959)"
       cx="58.652290"
       cy="120.75471"
       fx="58.652290"
       fy="120.75471"
       r="43.471699" />
    <linearGradient
       inkscape:collect="always"
       xlink:href="#linearGradient2058"
       id="linearGradient2091"
       gradientUnits="userSpaceOnUse"
       x1="28.248055"
       y1="27.946093"
       x2="55.202156"
       y2="35.536388" />
    <linearGradient
       inkscape:collect="always"
       xlink:href="#linearGradient2058"
       id="linearGradient2093"
       gradientUnits="userSpaceOnUse"
       x1="66.889565"
       y1="23.115904"
       x2="56.582211"
       y2="53.477089" />
    <linearGradient
       inkscape:collect="always"
       xlink:href="#linearGradient4259"
       id="linearGradient2095"
       gradientUnits="userSpaceOnUse"
       gradientTransform="matrix(0.849860,0.000000,0.000000,0.904589,145.1250,10.67559)"
       x1="-109.71429"
       y1="52.097034"
       x2="-101.08895"
       y2="96.258759" />
  </defs>
  <sodipodi:namedview
     id="base"
     pagecolor="#ffffff"
     bordercolor="#666666"
     borderopacity="1.0"
     inkscape:pageopacity="0.0"
     inkscape:pageshadow="2"
     inkscape:zoom="1.0247524"
     inkscape:cx="116.49692"
     inkscape:cy="117.91746"
     inkscape:document-units="px"
     inkscape:current-layer="layer1"
     inkscape:window-width="772"
     inkscape:window-height="543"
     inkscape:window-x="122"
     inkscape:window-y="82" />
  <metadata
     id="metadata7">
    <rdf:RDF>
      <cc:Work
         rdf:about="">
        <dc:format>image/svg+xml</dc:format>
        <dc:type
           rdf:resource="http://purl.org/dc/dcmitype/StillImage" />
      </cc:Work>
    </rdf:RDF>
  </metadata>
  <g
     inkscape:label="Layer 1"
     inkscape:groupmode="layer"
     id="layer1">
    <g
       id="g2077"
       transform="matrix(0.963430,0.000000,0.000000,0.963430,2.327289,4.264739)">
      <path
         sodipodi:nodetypes="csssssszsc"
         id="path5025"
         d="M 51.371702,121.17596 C 50.648626,119.01029 29.649158,7.1205470 29.818323,6.9653179 C 30.389061,6.4416405 49.806656,3.4534710 50.128588,3.8397788 C 50.303986,4.0502645 51.857073,11.658785 53.579874,20.747602 C 55.302674,29.836422 56.887742,37.433749 57.102222,37.630554 C 57.316715,37.827361 60.339595,37.502513 63.819713,36.908676 C 71.846372,35.539029 81.328668,35.261108 91.763261,40.525656 C 100.01803,44.690421 115.29086,56.972819 112.72006,76.515436 C 110.10464,96.397248 97.928273,110.52603 64.587739,120.37484 C 56.792562,122.67754 51.941366,122.88208 51.371702,121.17596 z "
         style="fill:none;fill-opacity:1.0000000;stroke:#752525;stroke-width:8.0000000;stroke-linecap:round;stroke-linejoin:round;stroke-miterlimit:4.0000000;stroke-dasharray:none;stroke-opacity:1.0000000" />
      <path
         transform="matrix(0.902682,0.000000,0.000000,0.949929,8.717979,7.725339)"
         d="M 102.12399 120.75471 A 43.471699 4.4851751 0 1 1  15.180592,120.75471 A 43.471699 4.4851751 0 1 1  102.12399 120.75471 z"
         sodipodi:ry="4.4851751"
         sodipodi:rx="43.471699"
         sodipodi:cy="120.75471"
         sodipodi:cx="58.652290"
         id="path6500"
         style="opacity:1.0000000;color:#000000;fill:url(#radialGradient2089);fill-opacity:1.0000000;fill-rule:nonzero;stroke:none;stroke-width:2.0000000;stroke-linecap:round;stroke-linejoin:round;marker:none;marker-start:none;marker-mid:none;marker-end:none;stroke-miterlimit:4.0000000;stroke-dasharray:none;stroke-dashoffset:0.0000000;stroke-opacity:1.0000000;visibility:visible;display:inline;overflow:visible"
         sodipodi:type="arc" />
      <path
         style="fill:#c22222;fill-opacity:1.0000000;stroke:none;stroke-width:3.1385021;stroke-linecap:round;stroke-linejoin:round;stroke-miterlimit:4.0000000;stroke-dasharray:none;stroke-opacity:1.0000000"
         d="M 51.371700,121.17596 C 50.648630,119.01029 29.649158,7.1205470 29.818323,6.9653179 C 30.389061,6.4416405 49.806660,3.4534710 50.128590,3.8397788 C 50.303990,4.0502645 51.857070,11.658785 53.579870,20.747602 C 55.302670,29.836422 56.887740,37.433749 57.102220,37.630554 C 57.316720,37.827361 60.339600,37.502513 63.819710,36.908676 C 71.846370,35.539029 81.328670,35.261108 91.763260,40.525656 C 100.01803,44.690421 115.29086,56.972819 112.72006,76.515436 C 110.10464,96.397248 97.928270,110.52603 64.587740,120.37484 C 56.792560,122.67754 51.941370,122.88208 51.371700,121.17596 z "
         id="path1319"
         sodipodi:nodetypes="csssssszsc" />
      <path
         style="fill:none;fill-opacity:1.0000000;stroke:url(#linearGradient2091);stroke-width:3.1385021;stroke-linecap:round;stroke-linejoin:round;stroke-miterlimit:4.0000000;stroke-dasharray:none;stroke-opacity:1.0000000"
         d="M 51.371700,121.17596 C 50.648630,119.01029 29.649158,7.1205470 29.818323,6.9653179 C 30.389061,6.4416405 49.806660,3.4534710 50.128590,3.8397788 C 50.303990,4.0502645 51.857070,11.658785 53.579870,20.747602 C 55.302670,29.836422 56.887740,37.433749 57.102220,37.630554 C 57.316720,37.827361 60.339600,37.502513 63.819710,36.908676 C 71.846370,35.539029 81.328670,35.261108 91.763260,40.525656 C 100.01803,44.690421 115.29086,56.972819 112.72006,76.515436 C 110.10464,96.397248 97.928270,110.52603 64.587740,120.37484 C 56.792560,122.67754 51.941370,122.88208 51.371700,121.17596 z "
         id="path2048"
         sodipodi:nodetypes="csssssszsc" />
      <path
         style="fill:none;fill-opacity:1.0000000;stroke:url(#linearGradient2093);stroke-width:3.1385021;stroke-linecap:round;stroke-linejoin:round;stroke-miterlimit:4.0000000;stroke-dasharray:none;stroke-opacity:1.0000000"
         d="M 51.371700,121.17596 C 50.648630,119.01029 29.649158,7.1205470 29.818323,6.9653179 C 30.389061,6.4416405 49.806660,3.4534710 50.128590,3.8397788 C 50.303990,4.0502645 51.857070,11.658785 53.579870,20.747602 C 55.302670,29.836422 56.887740,37.433749 57.102220,37.630554 C 57.316720,37.827361 60.339600,37.502513 63.819710,36.908676 C 71.846370,35.539029 81.328670,35.261108 91.763260,40.525656 C 100.01803,44.690421 115.29086,56.972819 112.72006,76.515436 C 110.10464,96.397248 97.928270,110.52603 64.587740,120.37484 C 56.792560,122.67754 51.941370,122.88208 51.371700,121.17596 z "
         id="path2066"
         sodipodi:nodetypes="csssssszsc" />
      <path
         style="fill:#ffffff;fill-opacity:1.0000000;stroke:#ffffff;stroke-width:3.1629040;stroke-miterlimit:4.0000000;stroke-dasharray:none;stroke-opacity:1.0000000"
         d="M 63.306824,114.37175 C 59.648849,112.29736 56.159543,105.31514 56.651292,101.05378 L 57.032524,97.750248 L 50.409289,100.57573 C 35.746067,106.83109 30.334402,105.85138 20.496405,95.160460 C 13.516972,87.575923 11.852121,84.779256 11.852121,80.639553 C 11.852121,77.254449 14.445893,75.348334 24.469217,71.367475 C 35.408828,67.022704 37.196518,65.503032 37.196518,60.548301 C 37.196518,56.907508 39.527884,53.369150 41.926745,53.369150 C 42.489044,53.369150 45.646507,51.407704 48.943353,49.010382 C 54.751637,44.786835 55.173474,44.653426 62.540915,44.710264 C 71.643942,44.780497 80.231448,48.225485 83.934565,53.292600 C 85.224128,55.057164 88.207488,57.644099 90.564239,59.041356 C 97.302627,63.036338 99.543739,66.996009 99.543739,74.906602 C 99.543739,80.185667 99.016314,82.468830 97.009297,85.877891 C 93.998211,90.992451 85.316736,101.93848 78.254446,109.52493 C 72.522805,115.68195 68.129343,117.10656 63.306824,114.37175 z M 72.642290,111.33418 C 75.506254,109.83590 90.465112,91.895505 94.243881,85.427040 C 95.312223,83.598243 96.400044,79.444594 96.661255,76.196705 C 97.377681,67.288630 95.302439,64.039655 85.857763,59.282975 C 81.675932,57.176859 78.880544,55.446171 79.645793,55.437002 C 80.796271,55.423219 80.808015,55.141037 79.713620,53.806986 C 77.098245,50.618942 70.169416,47.935673 63.256119,47.433643 C 56.825247,46.966651 56.085002,47.139043 52.104592,50.030620 C 49.759706,51.734059 46.130413,53.850821 44.039505,54.734522 C 40.710611,56.141451 40.237841,56.771924 40.237841,59.804396 C 40.237841,63.835940 38.107678,66.124183 30.570566,70.189048 L 25.465288,72.942396 L 24.165019,81.302373 C 23.449861,85.900362 22.459380,90.428591 21.963940,91.365111 C 20.984109,93.217291 24.304056,97.051227 29.086306,99.590159 C 36.130903,103.33019 55.070208,99.171565 58.345645,93.165518 C 59.259103,91.490551 61.893664,87.169718 64.200243,83.563683 C 68.247737,77.235928 68.375887,76.778739 67.874242,70.456502 C 67.534521,66.174959 67.749869,63.658556 68.495900,63.192104 C 69.238737,62.727654 69.637342,63.486839 69.637342,65.366105 C 69.637342,66.954328 70.082628,69.824471 70.626851,71.744206 C 71.741792,75.677077 69.999139,80.328901 64.639637,87.726512 C 58.810699,95.772055 58.156097,104.85288 63.022178,110.16466 C 65.815554,113.21390 68.439443,113.53289 72.642290,111.33418 z M 45.015344,67.090804 C 44.618021,66.688864 44.292944,65.009876 44.292944,63.359738 L 44.292944,60.359489 L 47.587718,62.306166 C 49.399838,63.376835 50.882491,64.919255 50.882491,65.733750 C 50.882491,67.287821 46.265640,68.355678 45.015344,67.090804 z M 18.235545,78.463943 C 19.237335,77.071485 19.729462,75.932194 19.329153,75.932194 C 18.270453,75.932194 14.893444,79.176442 14.893444,80.193522 C 14.893444,81.795109 16.399835,81.015535 18.235545,78.463943 z "
         id="path1339"
         sodipodi:nodetypes="ccccssssssssssssccssssssssscccsssssssssscccccsccssc" />
      <g
         transform="matrix(1.169808,0.000000,0.000000,1.111843,9.015974,-7.950897)"
         id="g1330">
        <path
           style="fill:#ffffff;fill-opacity:1.0000000;fill-rule:evenodd;stroke:none;stroke-width:1.0000000px;stroke-linecap:butt;stroke-linejoin:miter;stroke-opacity:1.0000000"
           d="M 4.9326490,78.574387 L 7.0291607,75.705485 L 13.539361,72.505555 L 18.835793,69.857338 L 23.249491,67.429806 L 26.008044,64.009191 L 27.221812,62.243713 L 40.242213,79.457125 L 39.690504,94.574032 L 31.966536,97.773962 L 21.484013,98.987728 L 16.077231,96.449853 L 10.780799,90.491364 L 4.9326490,78.574387 z "
           id="path5028" />
        <path
           style="fill:url(#linearGradient2095);fill-opacity:1.0000000;fill-rule:evenodd;stroke:none;stroke-width:1.0000000px;stroke-linecap:butt;stroke-linejoin:miter;stroke-opacity:1.0000000"
           d="M 26.982178,64.450561 C 26.567514,75.815827 36.674994,75.815827 38.592831,83.870821 C 40.510650,91.925816 33.616832,94.463690 34.653500,96.670538 C 35.690168,98.877386 42.739476,92.698212 42.739476,92.698212 L 42.946808,100.86355 L 46.056812,107.04272 L 51.240134,109.24957 L 54.972115,107.26341 L 61.814110,100.64286 L 74.046750,84.091506 L 76.327413,75.484800 L 75.498080,67.981518 L 70.729424,61.581659 L 62.850778,57.388648 L 59.740783,52.533583 L 45.642139,48.340573 L 37.970826,50.547421 L 28.018846,57.388648 L 26.152851,61.360974 C 26.152851,61.360974 23.872192,58.823099 26.982178,64.450561 z "
           id="path2079"
           sodipodi:nodetypes="czzccccccccccccccccc" />
        <path
           style="fill:#000000"
           d="M 46.938289,109.23859 C 43.871768,107.40895 40.946644,101.25051 41.358883,97.491939 L 41.678474,94.578167 L 36.126143,97.070292 C 23.833801,102.58761 19.297142,101.72350 11.049842,92.293935 C 5.1989058,85.604255 3.8032425,83.137550 3.8032425,79.486267 C 3.8032425,76.500553 5.9776302,74.819329 14.380294,71.308149 C 23.551090,67.475993 25.049731,66.135619 25.049731,61.765468 C 25.049731,58.554231 27.004141,55.433345 29.015133,55.433345 C 29.486514,55.433345 32.133450,53.703318 34.897232,51.588842 C 39.766381,47.863608 40.120012,47.745939 46.296220,47.796072 C 53.927387,47.858018 61.126387,50.896551 64.230756,55.365826 C 65.311811,56.922199 67.812786,59.203916 69.788480,60.436319 C 75.437343,63.959955 77.316091,67.452447 77.316091,74.429714 C 77.316091,79.085932 76.873946,81.099719 75.191445,84.106564 C 72.667218,88.617686 65.389437,98.272246 59.469044,104.96362 C 54.664148,110.39421 50.981060,111.65073 46.938289,109.23859 z M 54.764313,106.55941 C 57.165210,105.23790 69.705381,89.414194 72.873165,83.708906 C 73.768772,82.095879 74.680705,78.432294 74.899680,75.567605 C 75.500267,67.710544 73.760562,64.844897 65.842990,60.649431 C 62.337315,58.791803 59.993914,57.265309 60.635430,57.257222 C 61.599885,57.245065 61.609727,56.996176 60.692284,55.819523 C 58.499795,53.007617 52.691276,50.640932 46.895782,50.198135 C 41.504712,49.786240 40.884155,49.938292 37.547334,52.488709 C 35.581590,53.991168 32.539113,55.858185 30.786282,56.637624 C 27.995634,57.878557 27.599306,58.434644 27.599306,61.109333 C 27.599306,64.665218 25.813566,66.683483 19.495121,70.268758 L 15.215311,72.697254 L 14.125281,80.070885 C 13.525756,84.126383 12.695425,88.120352 12.280092,88.946377 C 11.458689,90.580029 14.241838,93.961618 18.250850,96.201000 C 24.156414,99.499756 40.033443,95.831792 42.779278,90.534365 C 43.545040,89.057017 45.753621,85.245975 47.687252,82.065395 C 51.080311,76.484216 51.187740,76.080969 50.767206,70.504657 C 50.482414,66.728269 50.662943,64.508761 51.288349,64.097344 C 51.911077,63.687692 52.245232,64.357305 52.245232,66.014847 C 52.245232,67.415684 52.618520,69.947195 53.074749,71.640432 C 54.009416,75.109286 52.548531,79.212267 48.055601,85.737076 C 43.169138,92.833369 42.620378,100.84280 46.699667,105.52787 C 49.041386,108.21735 51.241020,108.49870 54.764313,106.55941 z M 31.604338,67.536058 C 31.271259,67.181541 30.998743,65.700647 30.998743,64.245200 L 30.998743,61.598933 L 33.760788,63.315933 C 35.279909,64.260279 36.522833,65.620718 36.522833,66.339115 C 36.522833,67.709830 32.652476,68.651697 31.604338,67.536058 z M 9.1545378,77.567344 C 9.9943492,76.339175 10.406905,75.334303 10.071321,75.334303 C 9.1838012,75.334303 6.3528176,78.195780 6.3528176,79.092861 C 6.3528176,80.505485 7.6156419,79.817889 9.1545378,77.567344 z "
           id="path1349"
           sodipodi:nodetypes="ccccssssssssssssccssssssssscccsssssssssscccccsccssc" />
      </g>
    </g>
  </g>
</svg>
