<?xml version="1.0" encoding="UTF-8" standalone="no"?>
<!-- Created with Inkscape (http://www.inkscape.org/) -->
<svg
   xmlns:dc="http://purl.org/dc/elements/1.1/"
   xmlns:cc="http://web.resource.org/cc/"
   xmlns:rdf="http://www.w3.org/1999/02/22-rdf-syntax-ns#"
   xmlns:svg="http://www.w3.org/2000/svg"
   xmlns="http://www.w3.org/2000/svg"
   xmlns:xlink="http://www.w3.org/1999/xlink"
   xmlns:sodipodi="http://inkscape.sourceforge.net/DTD/sodipodi-0.dtd"
   xmlns:inkscape="http://www.inkscape.org/namespaces/inkscape"
   width="128.00000px"
   height="128.00000px"
   id="svg2"
   sodipodi:version="0.32"
   inkscape:version="0.42.2"
   sodipodi:docbase="/home/silvestre/Desktop/Nuovo!/scalable/apps"
   sodipodi:docname="gconf-editor.svg">
  <defs
     id="defs4">
    <linearGradient
       inkscape:collect="always"
       id="linearGradient2930">
      <stop
         style="stop-color:#494949;stop-opacity:1.0000000"
         offset="0"
         id="stop2932" />
      <stop
         style="stop-color:#545454;stop-opacity:1.0000000"
         offset="1"
         id="stop2934" />
    </linearGradient>
    <linearGradient
       id="linearGradient2166"
       inkscape:collect="always">
      <stop
         id="stop2168"
         offset="0"
         style="stop-color:#66a1bc;stop-opacity:1.0000000" />
      <stop
         id="stop2170"
         offset="1"
         style="stop-color:#4b7f96;stop-opacity:1.0000000" />
    </linearGradient>
    <linearGradient
       id="linearGradient2154"
       inkscape:collect="always">
      <stop
         id="stop2156"
         offset="0"
         style="stop-color:#ffffff;stop-opacity:1;" />
      <stop
         id="stop2158"
         offset="1"
         style="stop-color:#ffffff;stop-opacity:0;" />
    </linearGradient>
    <linearGradient
       id="linearGradient2142"
       inkscape:collect="always">
      <stop
         id="stop2144"
         offset="0"
         style="stop-color:#c2c2c2;stop-opacity:1.0000000" />
      <stop
         id="stop2146"
         offset="1"
         style="stop-color:#939393;stop-opacity:1.0000000" />
    </linearGradient>
    <linearGradient
       id="linearGradient2130"
       inkscape:collect="always">
      <stop
         id="stop2132"
         offset="0"
         style="stop-color:#cdcdcd;stop-opacity:1.0000000" />
      <stop
         id="stop2134"
         offset="1"
         style="stop-color:#b0b0b0;stop-opacity:1.0000000" />
    </linearGradient>
    <linearGradient
       inkscape:collect="always"
       id="linearGradient4389">
      <stop
         style="stop-color:#ffffff;stop-opacity:1;"
         offset="0"
         id="stop4391" />
      <stop
         style="stop-color:#ffffff;stop-opacity:0;"
         offset="1"
         id="stop4393" />
    </linearGradient>
    <linearGradient
       inkscape:collect="always"
       id="linearGradient4381">
      <stop
         style="stop-color:#ffffff;stop-opacity:1;"
         offset="0"
         id="stop4383" />
      <stop
         style="stop-color:#ffffff;stop-opacity:0;"
         offset="1"
         id="stop4385" />
    </linearGradient>
    <linearGradient
       inkscape:collect="always"
       id="linearGradient4373">
      <stop
         style="stop-color:#ffffff;stop-opacity:1;"
         offset="0"
         id="stop4375" />
      <stop
         style="stop-color:#ffffff;stop-opacity:0;"
         offset="1"
         id="stop4377" />
    </linearGradient>
    <linearGradient
       inkscape:collect="always"
       id="linearGradient4365">
      <stop
         style="stop-color:#ffffff;stop-opacity:1;"
         offset="0"
         id="stop4367" />
      <stop
         style="stop-color:#ffffff;stop-opacity:0;"
         offset="1"
         id="stop4369" />
    </linearGradient>
    <linearGradient
       inkscape:collect="always"
       id="linearGradient4315">
      <stop
         style="stop-color:#ffffff;stop-opacity:1;"
         offset="0"
         id="stop4317" />
      <stop
         style="stop-color:#ffffff;stop-opacity:0;"
         offset="1"
         id="stop4319" />
    </linearGradient>
    <linearGradient
       inkscape:collect="always"
       id="linearGradient2839">
      <stop
         style="stop-color:#538ba9;stop-opacity:1.0000000"
         offset="0"
         id="stop2841" />
      <stop
         style="stop-color:#426b83;stop-opacity:1.0000000"
         offset="1"
         id="stop2843" />
    </linearGradient>
    <linearGradient
       inkscape:collect="always"
       xlink:href="#linearGradient4315"
       id="linearGradient4321"
       x1="18.110895"
       y1="23.090612"
       x2="86.247612"
       y2="91.937088"
       gradientUnits="userSpaceOnUse" />
    <linearGradient
       inkscape:collect="always"
       xlink:href="#linearGradient2839"
       id="linearGradient4345"
       gradientUnits="userSpaceOnUse"
       x1="56.382717"
       y1="60.479004"
       x2="81.978630"
       y2="116.38586" />
    <linearGradient
       inkscape:collect="always"
       xlink:href="#linearGradient2839"
       id="linearGradient4353"
       gradientUnits="userSpaceOnUse"
       x1="56.382717"
       y1="60.479004"
       x2="81.978630"
       y2="116.38586" />
    <linearGradient
       inkscape:collect="always"
       xlink:href="#linearGradient2839"
       id="linearGradient4361"
       gradientUnits="userSpaceOnUse"
       x1="56.382717"
       y1="60.479004"
       x2="81.978630"
       y2="116.38586" />
    <linearGradient
       y2="114.88949"
       x2="-33.711666"
       y1="114.88949"
       x1="-55.262047"
       gradientUnits="userSpaceOnUse"
       id="linearGradient5009"
       xlink:href="#linearGradient2166"
       inkscape:collect="always" />
    <linearGradient
       y2="39.353680"
       x2="-41.321972"
       y1="39.353680"
       x1="-50.500015"
       gradientUnits="userSpaceOnUse"
       id="linearGradient5007"
       xlink:href="#linearGradient2130"
       inkscape:collect="always" />
    <linearGradient
       y2="41.799503"
       x2="71.583138"
       y1="42.834541"
       x1="66.061050"
       gradientUnits="userSpaceOnUse"
       id="linearGradient3523"
       xlink:href="#linearGradient2154"
       inkscape:collect="always" />
    <linearGradient
       y2="84.528305"
       x2="111.09434"
       y1="58.307278"
       x1="75.212936"
       gradientUnits="userSpaceOnUse"
       id="linearGradient3521"
       xlink:href="#linearGradient2142"
       inkscape:collect="always" />
    <linearGradient
       inkscape:collect="always"
       xlink:href="#linearGradient2839"
       id="linearGradient2188"
       gradientUnits="userSpaceOnUse"
       x1="56.382717"
       y1="60.479004"
       x2="81.978630"
       y2="116.38586" />
    <linearGradient
       inkscape:collect="always"
       xlink:href="#linearGradient2839"
       id="linearGradient2190"
       gradientUnits="userSpaceOnUse"
       x1="56.382717"
       y1="60.479004"
       x2="81.978630"
       y2="116.38586" />
    <linearGradient
       inkscape:collect="always"
       xlink:href="#linearGradient4315"
       id="linearGradient2192"
       gradientUnits="userSpaceOnUse"
       x1="18.110895"
       y1="23.090612"
       x2="86.247612"
       y2="91.937088" />
    <linearGradient
       inkscape:collect="always"
       xlink:href="#linearGradient4365"
       id="linearGradient2194"
       gradientUnits="userSpaceOnUse"
       x1="158.51176"
       y1="50.021992"
       x2="168.83064"
       y2="58.331173" />
    <linearGradient
       inkscape:collect="always"
       xlink:href="#linearGradient4373"
       id="linearGradient2196"
       gradientUnits="userSpaceOnUse"
       x1="237.41637"
       y1="29.469933"
       x2="253.37210"
       y2="41.377197" />
    <linearGradient
       inkscape:collect="always"
       xlink:href="#linearGradient4389"
       id="linearGradient2198"
       gradientUnits="userSpaceOnUse"
       x1="249.77263"
       y1="-188.78352"
       x2="267.40604"
       y2="-168.42320" />
    <linearGradient
       inkscape:collect="always"
       xlink:href="#linearGradient4389"
       id="linearGradient2200"
       gradientUnits="userSpaceOnUse"
       x1="249.77263"
       y1="-188.78352"
       x2="267.40604"
       y2="-168.42320" />
    <linearGradient
       inkscape:collect="always"
       xlink:href="#linearGradient4381"
       id="linearGradient2202"
       gradientUnits="userSpaceOnUse"
       x1="248.39299"
       y1="-97.279381"
       x2="259.37277"
       y2="-86.030548" />
    <linearGradient
       inkscape:collect="always"
       xlink:href="#linearGradient2930"
       id="linearGradient2936"
       x1="54.807159"
       y1="57.608532"
       x2="116.78003"
       y2="84.619659"
       gradientUnits="userSpaceOnUse" />
    <linearGradient
       inkscape:collect="always"
       xlink:href="#linearGradient2130"
       id="linearGradient1379"
       gradientUnits="userSpaceOnUse"
       x1="-50.500015"
       y1="39.353680"
       x2="-41.321972"
       y2="39.353680" />
    <linearGradient
       inkscape:collect="always"
       xlink:href="#linearGradient2166"
       id="linearGradient1381"
       gradientUnits="userSpaceOnUse"
       x1="-55.262047"
       y1="114.88949"
       x2="-33.711666"
       y2="114.88949" />
    <linearGradient
       inkscape:collect="always"
       xlink:href="#linearGradient2142"
       id="linearGradient1383"
       gradientUnits="userSpaceOnUse"
       x1="75.212936"
       y1="58.307278"
       x2="111.09434"
       y2="84.528305" />
    <linearGradient
       inkscape:collect="always"
       xlink:href="#linearGradient2930"
       id="linearGradient1385"
       gradientUnits="userSpaceOnUse"
       x1="54.807159"
       y1="57.608532"
       x2="116.78003"
       y2="84.619659" />
    <linearGradient
       inkscape:collect="always"
       xlink:href="#linearGradient2154"
       id="linearGradient1387"
       gradientUnits="userSpaceOnUse"
       x1="66.061050"
       y1="42.834541"
       x2="71.583138"
       y2="41.799503" />
  </defs>
  <sodipodi:namedview
     id="base"
     pagecolor="#ffffff"
     bordercolor="#666666"
     borderopacity="1.0"
     inkscape:pageopacity="0.0"
     inkscape:pageshadow="2"
     inkscape:zoom="1.4142136"
     inkscape:cx="31.375533"
     inkscape:cy="14.510793"
     inkscape:document-units="px"
     inkscape:current-layer="layer1"
     showguides="true"
     inkscape:guide-bbox="true"
     inkscape:window-width="772"
     inkscape:window-height="543"
     inkscape:window-x="107"
     inkscape:window-y="121" />
  <metadata
     id="metadata7">
    <rdf:RDF>
      <cc:Work
         rdf:about="">
        <dc:format>image/svg+xml</dc:format>
        <dc:type
           rdf:resource="http://purl.org/dc/dcmitype/StillImage" />
      </cc:Work>
    </rdf:RDF>
  </metadata>
  <g
     inkscape:label="Layer 1"
     inkscape:groupmode="layer"
     id="layer1">
    <g
       id="g2174"
       transform="matrix(1.059472,0.000000,0.000000,1.059472,-16.54328,-3.303592)">
      <g
         style="fill:url(#linearGradient2188);fill-opacity:1.0000000;stroke:#445f74;stroke-opacity:1.0000000"
         transform="matrix(0.742306,0.000000,0.000000,0.742306,15.14677,2.606075)"
         inkscape:label="Layer 1"
         id="g1374">
        <path
           style="fill:url(#linearGradient2190);fill-opacity:1.0000000;stroke:#445f74;stroke-width:3.0000000;stroke-miterlimit:4.0000000;stroke-dasharray:none;stroke-opacity:1.0000000"
           d="M 61.853146,159.28215 C 34.880946,152.49302 11.543736,122.25842 14.426446,97.838350 C 17.137556,74.871890 45.298026,57.339030 78.219416,58.120510 C 97.653546,58.581840 107.67985,64.093350 108.44087,74.733410 C 109.18397,85.123030 101.63384,93.437210 79.733126,106.34628 C 64.820856,115.13612 58.792856,119.86392 56.794176,124.33748 C 55.487456,127.26228 55.502696,128.07478 56.924366,131.26963 C 57.810086,133.26011 60.294016,136.22967 62.444206,137.86869 C 70.540696,144.04033 80.056536,140.89425 80.274156,131.97381 C 80.326736,129.81860 80.880356,127.15470 81.504426,126.05402 C 84.506476,120.75923 102.08883,118.17157 107.88109,122.17205 C 112.29216,125.21861 110.79234,132.91063 103.86860,142.75061 C 93.999346,156.77672 77.574426,163.23934 61.853146,159.28215 z M 12.666426,65.304530 C 8.5078257,62.627570 4.1379457,54.747030 4.7927257,50.151030 C 5.6432257,44.181270 10.346406,40.699200 15.258036,42.653590 C 20.669156,44.806740 24.448236,62.172130 20.290706,66.131620 C 18.201336,68.121470 16.456876,67.744540 12.666426,65.304530 z M 31.333226,47.864340 C 28.911536,44.585500 26.214256,34.850820 27.175726,30.336290 C 28.137196,25.821760 31.558626,22.736930 35.345476,22.328440 C 38.422576,21.996520 40.490036,23.165000 41.697526,24.514810 C 47.657016,31.176790 44.848926,51.566850 38.053876,52.132120 C 35.531886,52.341920 33.754926,51.143180 31.333226,47.864340 z M 94.271126,50.264600 C 85.439336,45.431940 87.969966,25.137510 97.972476,14.242990 C 104.01888,7.6573800 108.81413,5.2145600 116.83312,4.8960700 C 125.86591,4.5373100 130.04179,7.4371400 131.76611,11.864610 C 133.52165,16.372240 131.69172,22.947210 126.60361,30.413550 C 116.77548,44.835440 101.49476,54.217280 94.271126,50.264600 z M 60.098736,41.635600 C 57.035936,37.810030 55.700166,32.728900 55.868206,25.543080 C 56.027276,18.740660 58.570256,13.935750 63.267476,11.562250 C 68.154886,9.0926500 72.723946,9.5134000 75.346726,12.267350 C 77.441076,14.466440 77.333626,16.394820 76.672936,23.366730 C 75.622116,34.455250 69.697216,44.901720 64.530496,44.775670 C 63.454706,44.749440 61.460406,43.336390 60.098736,41.635600 z "
           id="path5565"
           sodipodi:nodetypes="csssssssssssccssscczssszcssssccsssssc" />
      </g>
      <g
         style="fill:none;fill-opacity:1.0000000;stroke:url(#linearGradient4321);stroke-opacity:1.0000000"
         transform="matrix(0.704466,0.000000,0.000000,0.704466,17.74149,6.983449)"
         inkscape:label="Layer 1"
         id="g3573">
        <path
           style="fill:none;fill-opacity:1.0000000;stroke:url(#linearGradient2192);stroke-width:3.0000000;stroke-miterlimit:4.0000000;stroke-dasharray:none;stroke-opacity:1.0000000"
           d="M 61.853146,159.28215 C 34.880946,152.49302 11.543736,122.25842 14.426446,97.838350 C 17.137556,74.871890 45.298026,57.339030 78.219416,58.120510 C 97.653546,58.581840 107.67985,64.093350 108.44087,74.733410 C 109.18397,85.123030 101.63384,93.437210 79.733126,106.34628 C 64.820856,115.13612 58.792856,119.86392 56.794176,124.33748 C 55.487456,127.26228 55.502696,128.07478 56.924366,131.26963 C 57.810086,133.26011 60.294016,136.22967 62.444206,137.86869 C 70.540696,144.04033 80.056536,140.89425 80.274156,131.97381 C 80.326736,129.81860 80.880356,127.15470 81.504426,126.05402 C 84.506476,120.75923 102.08883,118.17157 107.88109,122.17205 C 112.29216,125.21861 110.79234,132.91063 103.86860,142.75061 C 93.999346,156.77672 77.574426,163.23934 61.853146,159.28215 z "
           id="path3575"
           sodipodi:nodetypes="csssssssssssc" />
      </g>
      <g
         style="fill:none;fill-opacity:1.0000000;stroke:#757575;stroke-opacity:1.0000000"
         transform="matrix(0.742306,0.000000,0.000000,0.742306,-98.27717,0.181931)"
         inkscape:label="Layer 1"
         id="g4333">
        <path
           style="fill:none;fill-opacity:1.0000000;stroke:url(#linearGradient2194);stroke-width:2.2931807;stroke-miterlimit:4.0000000;stroke-dasharray:none;stroke-opacity:1.0000000"
           d="M 165.72705,66.392114 C 162.54824,64.345863 159.20793,58.322028 159.70844,54.808875 C 160.35856,50.245629 163.95364,47.583957 167.70806,49.077880 C 171.84428,50.723734 174.73299,63.997727 171.55500,67.024336 C 169.95790,68.545365 168.62444,68.257242 165.72705,66.392114 z "
           id="path4335"
           sodipodi:nodetypes="csssc" />
      </g>
      <g
         style="fill:url(#linearGradient4345);fill-opacity:1.0000000;stroke:#445f74;stroke-opacity:1.0000000"
         transform="matrix(0.742306,0.000000,0.000000,0.742306,-142.8248,2.886702)"
         inkscape:label="Layer 1"
         id="g4341">
        <path
           style="fill:none;fill-opacity:1.0000000;stroke:url(#linearGradient2196);stroke-width:2.4351227;stroke-miterlimit:4.0000000;stroke-dasharray:none;stroke-opacity:1.0000000"
           d="M 244.86928,45.382551 C 242.90358,42.721092 240.71418,34.819378 241.49461,31.154900 C 242.27504,27.490421 245.05224,24.986441 248.12606,24.654867 C 250.62376,24.385445 252.30194,25.333909 253.28207,26.429560 C 258.11943,31.837140 255.84008,48.387907 250.32449,48.846741 C 248.27737,49.017037 246.83500,48.044011 244.86928,45.382551 z "
           id="path4343"
           sodipodi:nodetypes="czsssz" />
      </g>
      <g
         style="fill:url(#linearGradient4353);fill-opacity:1.0000000;stroke:url(#linearGradient2198);stroke-opacity:1.0000000"
         transform="matrix(0.740554,5.096565e-2,-5.096565e-2,0.740554,-107.2639,134.5756)"
         inkscape:label="Layer 1"
         id="g4349">
        <path
           style="fill:none;fill-opacity:1.0000000;stroke:url(#linearGradient2200);stroke-width:2.5981009;stroke-miterlimit:4.0000000;stroke-dasharray:none;stroke-opacity:1.0000000"
           d="M 251.29592,-148.10416 C 243.92433,-152.44669 246.03655,-170.68289 254.38530,-180.47249 C 259.43203,-186.39020 263.43445,-188.58527 270.12762,-188.87146 C 277.66698,-189.19384 281.15244,-186.58810 282.59168,-182.60967 C 284.05696,-178.55919 282.52959,-172.65105 278.28271,-165.94193 C 270.07951,-152.98270 257.32523,-144.55236 251.29592,-148.10416 z "
           id="path4351"
           sodipodi:nodetypes="cssssc" />
      </g>
      <g
         style="fill:url(#linearGradient4361);fill-opacity:1.0000000;stroke:#445f74;stroke-opacity:1.0000000"
         transform="matrix(0.742306,0.000000,0.000000,0.742306,-125.1472,84.91109)"
         inkscape:label="Layer 1"
         id="g4357">
        <path
           style="fill:none;fill-opacity:1.0000000;stroke:url(#linearGradient2202);stroke-width:2.4048579;stroke-miterlimit:4.0000000;stroke-dasharray:none;stroke-opacity:1.0000000"
           d="M 250.55039,-72.303450 C 248.14290,-75.430876 247.09293,-79.584730 247.22501,-85.459180 C 247.35005,-91.020199 249.34894,-94.948241 253.04115,-96.888591 C 256.88285,-98.907503 260.47432,-98.563537 262.53594,-96.312167 C 264.18218,-94.514399 264.09772,-92.937937 263.57839,-87.238359 C 262.75240,-78.173428 258.09519,-69.633377 254.03393,-69.736424 C 253.18832,-69.757868 251.62071,-70.913045 250.55039,-72.303450 z "
           id="path4359"
           sodipodi:nodetypes="csssssc" />
      </g>
    </g>
    <g
       id="g3517"
       transform="matrix(0.792511,-0.212352,0.212352,0.792511,4.944972,47.23233)">
      <path
         id="path1306"
         d="M 62.762314,5.0307452 L 67.388457,26.355960 L 47.988262,37.628837 L 31.935279,23.261755 C 30.539690,29.200645 31.258218,35.651550 34.546919,41.347748 C 39.935880,50.681702 50.458573,55.111569 60.492588,53.286965 L 76.820713,81.568107 C 70.223552,89.345517 68.798585,100.67337 74.187546,110.00733 C 77.563886,115.85532 82.972471,119.79019 89.002788,121.48058 L 84.376645,100.15537 L 103.77684,88.882488 L 119.82982,103.24957 C 121.22541,97.310676 120.50688,90.859773 117.21818,85.163577 C 111.82922,75.829622 101.27946,71.415379 91.245449,73.239982 L 74.917324,44.958840 C 81.514484,37.181431 82.966516,25.837953 77.577556,16.503998 C 74.201218,10.656008 68.792631,6.7211377 62.762314,5.0307452 z "
         style="opacity:1.0000000;color:#000000;fill:url(#linearGradient1383);fill-opacity:1.0000000;fill-rule:nonzero;stroke:url(#linearGradient1385);stroke-width:5.0000000;stroke-linecap:round;stroke-linejoin:round;marker:none;marker-start:none;marker-mid:none;marker-end:none;stroke-miterlimit:4.0000000;stroke-dasharray:none;stroke-dashoffset:0.0000000;stroke-opacity:1.0000000;visibility:visible;display:inline;overflow:visible" />
      <path
         sodipodi:nodetypes="ccccsccsccccsccsc"
         id="path2773"
         d="M 66.766787,8.9248964 L 70.669983,27.990427 L 47.851992,41.274982 L 33.282963,28.426631 C 33.208935,34.225358 38.353938,41.356803 40.166422,43.310022 C 46.898699,50.565044 52.535585,51.629558 61.749871,49.954015 L 80.403491,81.535840 C 74.345285,88.677874 73.275240,98.485827 75.545826,104.96814 C 76.766126,108.45199 81.661376,115.65952 85.003394,117.45578 L 80.755184,98.848578 L 104.18160,85.081174 L 117.94728,97.786616 C 119.22885,92.332900 114.48773,86.769807 112.86542,84.105694 C 110.19187,79.715258 97.496929,73.432346 89.990377,76.571656 L 71.610316,45.019428 C 77.668521,37.877394 79.319372,27.901639 76.749055,21.013402 C 75.248143,16.991081 71.959443,12.029753 66.766787,8.9248964 z "
         style="opacity:1.0000000;color:#000000;fill:none;fill-opacity:1.0000000;fill-rule:nonzero;stroke:url(#linearGradient1387);stroke-width:4.0000000;stroke-linecap:round;stroke-linejoin:round;marker:none;marker-start:none;marker-mid:none;marker-end:none;stroke-miterlimit:4.0000000;stroke-dasharray:none;stroke-dashoffset:0.0000000;stroke-opacity:1.0000000;visibility:visible;display:inline;overflow:visible" />
    </g>
  </g>
</svg>
