<?xml version="1.0" encoding="UTF-8" standalone="no"?>
<!-- Created with Inkscape (http://www.inkscape.org/) -->
<svg
   xmlns:dc="http://purl.org/dc/elements/1.1/"
   xmlns:cc="http://web.resource.org/cc/"
   xmlns:rdf="http://www.w3.org/1999/02/22-rdf-syntax-ns#"
   xmlns:svg="http://www.w3.org/2000/svg"
   xmlns="http://www.w3.org/2000/svg"
   xmlns:xlink="http://www.w3.org/1999/xlink"
   xmlns:sodipodi="http://inkscape.sourceforge.net/DTD/sodipodi-0.dtd"
   xmlns:inkscape="http://www.inkscape.org/namespaces/inkscape"
   width="128.00000px"
   height="128.00000px"
   id="svg2"
   sodipodi:version="0.32"
   inkscape:version="0.42.2"
   sodipodi:docbase="/home/silvestre/Desktop/Nuovo!/scalable/apps"
   sodipodi:docname="gnome-settings-ui-behavior.svg">
  <defs
     id="defs4">
    <linearGradient
       id="linearGradient6585">
      <stop
         style="stop-color:#000000;stop-opacity:0.24242423;"
         offset="0.0000000"
         id="stop6587" />
      <stop
         style="stop-color:#000000;stop-opacity:0;"
         offset="1"
         id="stop6589" />
    </linearGradient>
    <linearGradient
       inkscape:collect="always"
       id="linearGradient6579">
      <stop
         style="stop-color:#000000;stop-opacity:0.43939391"
         offset="0"
         id="stop6581" />
      <stop
         style="stop-color:#000000;stop-opacity:0;"
         offset="1"
         id="stop6583" />
    </linearGradient>
    <linearGradient
       id="linearGradient6573">
      <stop
         style="stop-color:#e0ca86;stop-opacity:1.0000000;"
         offset="0.0000000"
         id="stop6575" />
      <stop
         style="stop-color:#c1ae54;stop-opacity:1.0000000"
         offset="1.0000000"
         id="stop6577" />
    </linearGradient>
    <linearGradient
       id="linearGradient6561">
      <stop
         id="stop6563"
         offset="0.0000000"
         style="stop-color:#ffffff;stop-opacity:0.35353535;" />
      <stop
         id="stop6565"
         offset="1"
         style="stop-color:#ffffff;stop-opacity:0;" />
    </linearGradient>
    <linearGradient
       id="linearGradient6549">
      <stop
         id="stop6551"
         offset="0"
         style="stop-color:#f1d990;stop-opacity:1;" />
      <stop
         id="stop6553"
         offset="1.0000000"
         style="stop-color:#c1ae54;stop-opacity:1.0000000" />
    </linearGradient>
    <linearGradient
       id="linearGradient6537">
      <stop
         id="stop6539"
         offset="0"
         style="stop-color:#f8f8f8;stop-opacity:1.0000000" />
      <stop
         id="stop6541"
         offset="1.0000000"
         style="stop-color:#e6e6e6;stop-opacity:1.0000000" />
    </linearGradient>
    <linearGradient
       inkscape:collect="always"
       id="linearGradient6505">
      <stop
         style="stop-color:#d9d9cf;stop-opacity:1;"
         offset="0"
         id="stop6507" />
      <stop
         style="stop-color:#d9d9cf;stop-opacity:0;"
         offset="1"
         id="stop6509" />
    </linearGradient>
    <linearGradient
       inkscape:collect="always"
       id="linearGradient2766">
      <stop
         style="stop-color:#ffffff;stop-opacity:1;"
         offset="0"
         id="stop2768" />
      <stop
         style="stop-color:#ffffff;stop-opacity:0;"
         offset="1"
         id="stop2770" />
    </linearGradient>
    <linearGradient
       inkscape:collect="always"
       xlink:href="#linearGradient2766"
       id="linearGradient2772"
       x1="40.741550"
       y1="42.613522"
       x2="76.603867"
       y2="75.060379"
       gradientUnits="userSpaceOnUse" />
    <linearGradient
       gradientTransform="matrix(0.931298,0.000000,0.000000,0.931298,4.831677,2.275296)"
       y2="123.48434"
       x2="62.942032"
       y1="35.294682"
       x1="62.942032"
       gradientUnits="userSpaceOnUse"
       id="linearGradient5060"
       xlink:href="#linearGradient6537"
       inkscape:collect="always" />
    <linearGradient
       gradientTransform="matrix(0.992164,0.000000,0.000000,0.992164,-1.863755,1.809591)"
       y2="35.004498"
       x2="85.435616"
       y1="2.5913322"
       x1="93.961632"
       gradientUnits="userSpaceOnUse"
       id="linearGradient5057"
       xlink:href="#linearGradient6579"
       inkscape:collect="always" />
    <radialGradient
       gradientUnits="userSpaceOnUse"
       gradientTransform="matrix(1.000000,0.000000,0.000000,0.123506,-9.080627e-15,101.2859)"
       r="61.234303"
       fy="115.55797"
       fx="62.698071"
       cy="115.55797"
       cx="62.698071"
       id="radialGradient4327"
       xlink:href="#linearGradient6585"
       inkscape:collect="always" />
    <linearGradient
       gradientUnits="userSpaceOnUse"
       y2="51.152168"
       x2="108.07488"
       y1="130.68358"
       x1="101.48793"
       id="linearGradient7491"
       xlink:href="#linearGradient7485"
       inkscape:collect="always" />
    <linearGradient
       gradientTransform="matrix(0.940118,0.000000,0.000000,0.940118,7.410739,2.039832)"
       y2="104.02156"
       x2="66.587608"
       y1="50.544472"
       x1="54.161198"
       gradientUnits="userSpaceOnUse"
       id="linearGradient4286"
       xlink:href="#linearGradient6573"
       inkscape:collect="always" />
    <linearGradient
       gradientTransform="matrix(0.940118,0.000000,0.000000,0.940118,7.410739,2.039832)"
       gradientUnits="userSpaceOnUse"
       y2="91.959572"
       x2="59.514832"
       y1="13.800537"
       x1="52.097038"
       id="linearGradient4263"
       xlink:href="#linearGradient6561"
       inkscape:collect="always" />
    <linearGradient
       gradientTransform="matrix(0.940118,0.000000,0.000000,0.940118,7.410739,2.039832)"
       gradientUnits="userSpaceOnUse"
       y2="119.71968"
       x2="59.514832"
       y1="56.582211"
       x1="59.514832"
       id="linearGradient3527"
       xlink:href="#linearGradient6549"
       inkscape:collect="always" />
    <linearGradient
       id="linearGradient7485"
       inkscape:collect="always">
      <stop
         id="stop7487"
         offset="0"
         style="stop-color:#000000;stop-opacity:0.44949496" />
      <stop
         id="stop7489"
         offset="1"
         style="stop-color:#000000;stop-opacity:0;" />
    </linearGradient>
    <linearGradient
       inkscape:collect="always"
       xlink:href="#linearGradient6505"
       id="linearGradient6511"
       x1="118.34225"
       y1="88.668465"
       x2="101.00062"
       y2="88.668465"
       gradientUnits="userSpaceOnUse" />
  </defs>
  <sodipodi:namedview
     id="base"
     pagecolor="#ffffff"
     bordercolor="#666666"
     borderopacity="1.0"
     inkscape:pageopacity="0.0"
     inkscape:pageshadow="2"
     inkscape:zoom="2.8984375"
     inkscape:cx="57.172207"
     inkscape:cy="83.769722"
     inkscape:document-units="px"
     inkscape:current-layer="layer1"
     borderlayer="top"
     inkscape:window-width="772"
     inkscape:window-height="543"
     inkscape:window-x="6"
     inkscape:window-y="22" />
  <metadata
     id="metadata7">
    <rdf:RDF>
      <cc:Work
         rdf:about="">
        <dc:format>image/svg+xml</dc:format>
        <dc:type
           rdf:resource="http://purl.org/dc/dcmitype/StillImage" />
      </cc:Work>
    </rdf:RDF>
  </metadata>
  <g
     inkscape:label="Layer 1"
     inkscape:groupmode="layer"
     id="layer1">
    <path
       style="color:#000000;fill:#d9d9cf;fill-opacity:1.0000000;fill-rule:nonzero;stroke:#a3a386;stroke-width:5.0865202;stroke-linecap:round;stroke-linejoin:round;marker:none;marker-start:none;marker-mid:none;marker-end:none;stroke-miterlimit:4.0000000;stroke-dasharray:none;stroke-dashoffset:0.0000000;stroke-opacity:1.0000000;visibility:visible;display:inline;overflow:visible"
       d="M 10.092337,9.6603775 L 130.92266,9.6603775 C 130.92266,30.800745 130.92266,92.432679 130.92266,120.06469 L 10.092337,120.06469 C 8.9456592,120.06469 8.0225217,119.17269 8.0225217,118.06469 L 8.0225217,11.660378 C 8.0225217,10.552378 8.9456592,9.6603775 10.092337,9.6603775 z "
       id="rect1306"
       sodipodi:nodetypes="ccccccc" />
    <path
       style="color:#000000;fill:none;fill-opacity:1.0;fill-rule:nonzero;stroke:url(#linearGradient2772);stroke-width:4.0000000;stroke-linecap:round;stroke-linejoin:round;marker:none;marker-start:none;marker-mid:none;marker-end:none;stroke-miterlimit:4.0000000;stroke-dashoffset:0.0000000;stroke-opacity:1.0000000;visibility:visible;display:inline;overflow:visible;stroke-dasharray:none"
       d="M 12.780665,12.596745 L 123.74548,12.596745 C 123.74548,32.596077 123.74548,90.901475 123.74548,117.04207 L 12.780665,117.04207 C 11.727611,117.04207 10.879845,116.19821 10.879845,115.15002 L 10.879845,14.488797 C 10.879845,13.440600 11.727611,12.596745 12.780665,12.596745 z "
       id="path2038"
       sodipodi:nodetypes="ccccccc" />
    <path
       style="fill:none;fill-opacity:0.75000000;fill-rule:evenodd;stroke:#ffffff;stroke-width:3.0000000;stroke-linecap:butt;stroke-linejoin:miter;stroke-miterlimit:4.0000000;stroke-dasharray:none;stroke-opacity:0.81407034"
       d="M 12.765499,56.641406 L 124.89488,56.641406"
       id="path2776" />
    <path
       style="fill:none;fill-opacity:0.75000000;fill-rule:evenodd;stroke:#000000;stroke-width:3.0000000;stroke-linecap:butt;stroke-linejoin:miter;stroke-miterlimit:4.0000000;stroke-dasharray:none;stroke-opacity:0.29648241"
       d="M 12.765499,53.649596 L 124.89488,53.649596"
       id="path3504" />
    <path
       style="font-size:30.495407px;font-style:normal;font-weight:normal;fill:#323232;fill-opacity:1.0000000;stroke:#323232;stroke-width:2.0000000;stroke-linecap:round;stroke-linejoin:round;stroke-opacity:1.0000000;font-family:Bitstream Vera Sans;stroke-miterlimit:4.0000000;stroke-dasharray:none"
       d="M 21.670490,21.756713 L 34.446397,21.756713 L 34.446397,24.288070 L 24.678337,24.288070 L 24.678337,30.839817 L 33.493416,30.839817 L 33.493416,33.371174 L 24.678337,33.371174 L 24.678337,43.987984 L 21.670490,43.987984 L 21.670490,21.756713 M 39.241086,21.756713 L 42.248934,21.756713 L 42.248934,43.987984 L 39.241086,43.987984 L 39.241086,21.756713 M 48.234849,21.756713 L 51.242697,21.756713 L 51.242697,41.456627 L 62.067971,41.456627 L 62.067971,43.987984 L 48.234849,43.987984 L 48.234849,21.756713 M 65.269393,21.756713 L 79.325870,21.756713 L 79.325870,24.288070 L 68.277241,24.288070 L 68.277241,30.869598 L 78.864270,30.869598 L 78.864270,33.400955 L 68.277241,33.400955 L 68.277241,41.456627 L 79.593896,41.456627 L 79.593896,43.987984 L 65.269393,43.987984 L 65.269393,21.756713"
       id="text4232" />
    <g
       id="g4270"
       inkscape:label="Layer 1"
       transform="matrix(0.418100,0.000000,0.000000,0.418100,15.47265,60.71841)">
      <path
         transform="matrix(0.985914,0.000000,0.000000,8.426233,-1.077207,-909.6571)"
         d="M 123.93237 115.55797 A 61.234303 7.5628023 0 1 1  1.4637680,115.55797 A 61.234303 7.5628023 0 1 1  123.93237 115.55797 z"
         sodipodi:ry="7.5628023"
         sodipodi:rx="61.234303"
         sodipodi:cy="115.55797"
         sodipodi:cx="62.698071"
         id="path3593"
         style="fill:url(#radialGradient4327);fill-opacity:1.0;stroke:none;stroke-width:3.0000000;stroke-linecap:round;stroke-linejoin:miter;stroke-miterlimit:4.0000000;stroke-dasharray:none;stroke-opacity:1.0000000"
         sodipodi:type="arc" />
      <path
         sodipodi:nodetypes="ccccccccc"
         id="rect1381"
         d="M 14.405721,8.0588818 C 37.265149,8.0588818 60.124577,8.0588818 82.984005,8.0588818 C 93.655193,10.950675 108.61492,26.471884 108.61492,32.323417 C 108.16052,59.494032 105.88851,87.573449 108.61492,113.83526 C 108.61492,114.86714 107.78420,115.69786 106.75232,115.69786 C 75.970124,115.69786 47.050518,115.69786 16.268317,115.69786 C 15.236439,115.69786 14.405721,114.86714 14.405721,113.83526 C 8.9529036,81.014938 15.723935,45.922610 12.543125,9.9214778 C 12.543125,8.8895996 13.373843,8.0588818 14.405721,8.0588818 z "
         style="fill:url(#linearGradient5060);fill-opacity:1.0;stroke:#878787;stroke-width:2.7938941;stroke-linecap:round;stroke-linejoin:miter;stroke-miterlimit:4.0000000;stroke-opacity:1.0000000" />
      <path
         sodipodi:nodetypes="cccc"
         id="path2840"
         d="M 82.973002,9.4009233 C 77.411401,14.490179 74.513082,26.307311 75.698831,37.628068 C 86.729127,35.140189 96.623353,34.818256 107.16198,35.930807 C 108.99618,27.083386 90.168399,11.141642 82.973002,9.4009233 z "
         style="fill:url(#linearGradient5057);fill-opacity:1.0;fill-rule:evenodd;stroke:none;stroke-width:1.0000000px;stroke-linecap:butt;stroke-linejoin:miter;stroke-opacity:1.0000000" />
      <path
         sodipodi:nodetypes="cccc"
         id="path2112"
         d="M 82.730786,9.3441232 C 78.391328,14.309672 78.113083,23.592036 78.090440,33.442401 C 88.284757,31.322975 97.429108,31.048720 107.16902,31.996504 C 104.94938,23.015961 89.380848,10.827043 82.730786,9.3441232 z "
         style="fill:#ffffff;fill-opacity:1.0000000;fill-rule:evenodd;stroke:none;stroke-width:1.0000000px;stroke-linecap:butt;stroke-linejoin:miter;stroke-opacity:1.0000000" />
    </g>
    <g
       id="g4318"
       inkscape:label="Layer 1"
       transform="matrix(0.499357,0.000000,0.000000,0.499357,66.18976,50.00341)">
      <path
         sodipodi:nodetypes="ccccccccccccccc"
         id="path4265"
         d="M 62.231378,35.205999 L 37.582656,36.354144 C 34.979036,36.405595 32.918749,38.539252 32.970201,41.142870 L 33.058337,45.490917 L 28.974699,45.608431 C 23.495503,45.608431 20.866180,48.237755 20.866180,53.716950 L 24.802925,97.520580 C 24.802925,102.99977 27.755412,105.95226 33.234609,105.95226 L 100.89374,116.70487 C 106.37293,116.70487 111.11158,116.49291 113.70641,109.71630 C 114.54385,91.011075 116.67870,67.764901 121.73273,52.627563 C 124.48973,44.877893 120.90859,42.431971 109.26666,42.756323 L 67.108241,43.902092 L 67.020105,39.818453 C 66.968653,37.214834 64.834999,35.154548 62.231378,35.205999 z "
         style="fill:url(#linearGradient4286);fill-opacity:1.0;stroke:#ad9743;stroke-width:2.2815850;stroke-linecap:round;stroke-linejoin:round;stroke-miterlimit:4.0000000;stroke-opacity:1.0000000" />
      <path
         sodipodi:nodetypes="ccccc"
         id="path4288"
         d="M 30.804698,106.77898 C 31.798559,87.131116 25.717540,69.678904 26.711402,50.031040 C 53.163389,49.342983 92.083927,47.445252 118.53591,46.757194 C 113.28223,64.256638 110.18146,89.973842 109.18760,110.61556 C 82.735613,110.30976 57.256686,107.08478 30.804698,106.77898 z "
         style="fill:#f5f5f5;fill-opacity:1.0000000;fill-rule:evenodd;stroke:#d6d6d6;stroke-width:0.94011813px;stroke-linecap:butt;stroke-linejoin:miter;stroke-opacity:1.0000000" />
      <path
         sodipodi:nodetypes="ccccccccc"
         id="path6029"
         d="M 20.570009,56.312894 L 96.949175,54.840189 C 102.42838,54.840189 109.52301,55.347856 110.49885,66.926087 C 108.00916,83.065056 106.58474,102.15994 111.56075,111.07717 C 110.87269,113.57478 109.81867,116.94133 104.33948,116.94133 L 34.575467,113.26264 C 29.096270,113.26264 27.979632,110.54053 26.144812,104.83199 C 25.471273,92.974803 20.748264,82.873561 15.391244,67.346733 C 13.439553,61.867537 15.090813,56.312894 20.570009,56.312894 z "
         style="fill:url(#linearGradient7491);fill-opacity:1.0000000;stroke:none;stroke-width:2.2815850;stroke-linecap:round;stroke-linejoin:round;stroke-miterlimit:4.0000000;stroke-opacity:1.0000000" />
      <path
         sodipodi:nodetypes="ccccccccc"
         id="rect1308"
         d="M 12.570009,56.312894 L 87.973328,52.644537 C 93.452528,52.644537 100.54716,53.152204 101.52300,64.730435 C 102.20481,81.845249 105.41566,104.11163 110.39167,113.02886 C 109.70361,115.52647 106.20997,117.18529 100.73078,117.18529 L 26.575467,113.26264 C 21.096270,113.26264 19.979632,110.54053 18.144812,104.83199 C 17.471273,92.974803 12.748264,82.873561 7.3912437,67.346733 C 5.4395527,61.867537 7.0908132,56.312894 12.570009,56.312894 z "
         style="fill:url(#linearGradient3527);fill-opacity:1.0;stroke:#ad9743;stroke-width:2.2815850;stroke-linecap:round;stroke-linejoin:round;stroke-miterlimit:4.0000000;stroke-opacity:1.0000000" />
      <path
         sodipodi:nodetypes="ccccccc"
         id="path3529"
         d="M 14.925053,57.610308 C 41.469666,56.821386 58.987708,55.056619 85.532321,54.267697 C 91.011521,54.267697 98.761820,56.240525 98.761820,61.719722 C 97.594490,70.806686 102.28222,80.137611 101.11489,89.224575 C 52.461874,63.241480 27.064531,74.804614 16.036515,87.813572 C 16.036515,87.813572 8.3078544,70.642632 8.4446963,62.794644 C 8.5398543,57.337258 9.4458571,57.610308 14.925053,57.610308 z "
         style="fill:url(#linearGradient4263);fill-opacity:1.0;stroke:none;stroke-width:2.4269130;stroke-linecap:round;stroke-linejoin:round;stroke-miterlimit:4.0000000;stroke-opacity:1.0000000" />
    </g>
    <rect
       style="opacity:1.0000000;color:#000000;fill:url(#linearGradient6511);fill-opacity:1.0;fill-rule:nonzero;stroke:none;stroke-width:2.0000000;stroke-linecap:round;stroke-linejoin:round;marker:none;marker-start:none;marker-mid:none;marker-end:none;stroke-miterlimit:4.0000000;stroke-dasharray:none;stroke-dashoffset:0.0000000;stroke-opacity:1.0000000;visibility:visible;display:inline;overflow:visible"
       id="rect5777"
       width="27.256065"
       height="53.132076"
       x="101.00271"
       y="61.800541" />
  </g>
</svg>
