<?xml version="1.0" encoding="UTF-8" standalone="no"?>
<!-- Created with Inkscape (http://www.inkscape.org/) -->
<!-- 
Created By Andrew Fitzsimon.
Much of this document has been manually cleaned and crafted in a text editor so that only the colour definitions and basic presentation related data remain in the XML. 
Changes to this document may compromise the structure of this palette.
-->
<svg
   xmlns:dc="http://purl.org/dc/elements/1.1/"
   xmlns:cc="http://web.resource.org/cc/"
   xmlns:rdf="http://www.w3.org/1999/02/22-rdf-syntax-ns#"
   xmlns:svg="http://www.w3.org/2000/svg"
   xmlns="http://www.w3.org/2000/svg"
   xmlns:xlink="http://www.w3.org/1999/xlink"
   xmlns:sodipodi="http://inkscape.sourceforge.net/DTD/sodipodi-0.dtd"
   xmlns:inkscape="http://www.inkscape.org/namespaces/inkscape"
   version="1.0"
   x="00"
   y="00"
   width="128"
   height="128"
   id="Etiquette"
   sodipodi:version="0.32"
   inkscape:version="0.42.2"
   sodipodi:docname="gnome-multimedia.svg"
   sodipodi:docbase="/home/silvestre/Desktop/Nuovo!/scalable/apps">
  <metadata
     id="About">
    <rdf:RDF>
      <cc:Work
         rdf:about="">
        <dc:format>image/svg+xml</dc:format>
        <dc:type
           rdf:resource="http://purl.org/dc/dcmitype/StillImage" />
        <dc:creator>
          <cc:Agent>
            <dc:title>Andrew Fitzsimon</dc:title>
          </cc:Agent>
        </dc:creator>
        <dc:date>2004-12-25</dc:date>
        <dc:title>Etiquette Icon</dc:title>
        <cc:license
           rdf:resource="http://creativecommons.org/licenses/by/2.0/" />
        <dc:rights>
          <cc:Agent>
            <dc:title>Andrew Fitzsimon</dc:title>
          </cc:Agent>
        </dc:rights>
      </cc:Work>
      <cc:License
         rdf:about="http://creativecommons.org/licenses/by/2.0/">
        <cc:permits
           rdf:resource="http://web.resource.org/cc/Reproduction" />
        <cc:permits
           rdf:resource="http://web.resource.org/cc/Distribution" />
        <cc:requires
           rdf:resource="http://web.resource.org/cc/Notice" />
        <cc:requires
           rdf:resource="http://web.resource.org/cc/Attribution" />
        <cc:prohibits
           rdf:resource="http://web.resource.org/cc/CommercialUse" />
        <cc:permits
           rdf:resource="http://web.resource.org/cc/DerivativeWorks" />
        <cc:requires
           rdf:resource="http://web.resource.org/cc/ShareAlike" />
      </cc:License>
    </rdf:RDF>
  </metadata>
  <sodipodi:namedview
     inkscape:guide-bbox="true"
     showguides="true"
     id="base"
     pagecolor="#f8f8f8"
     bordercolor="#666666"
     borderopacity="1.0"
     inkscape:pageopacity="0.0000000"
     inkscape:pageshadow="0"
     inkscape:zoom="2.9092392"
     inkscape:cx="75.468786"
     inkscape:cy="50.516919"
     inkscape:window-width="844"
     inkscape:window-height="639"
     inkscape:window-x="142"
     inkscape:window-y="67"
     inkscape:current-layer="Etiquette"
     showgrid="true"
     gridspacingx="4.0000000pt"
     gridspacingy="4.0000000pt"
     gridoriginy="0.0000000pt"
     gridoriginx="0pt"
     inkscape:grid-points="false"
     gridtolerance="40pt"
     showborder="true"
     inkscape:grid-bbox="false"
     gridcolor="#3f3fff"
     gridopacity="0.082352941"
     gridempspacing="2"
     gridempcolor="#3f3fff"
     gridempopacity="0.082352941" />
  <defs
     id="Gradients">
    <linearGradient
       id="linearGradient2961">
      <stop
         id="stop2963"
         offset="0"
         style="stop-color:#88abcf;stop-opacity:1.0000000" />
      <stop
         id="stop2965"
         offset="1.0000000"
         style="stop-color:#547da5;stop-opacity:1.0000000" />
    </linearGradient>
    <linearGradient
       inkscape:collect="always"
       xlink:href="#linearGradient2961"
       id="linearGradient1756"
       gradientUnits="userSpaceOnUse"
       x1="50.444054"
       y1="21.801989"
       x2="51.892208"
       y2="87.451668" />
    <linearGradient
       y2="101.43396"
       x2="30.706200"
       y1="90.682564"
       x1="18.975740"
       gradientUnits="userSpaceOnUse"
       id="linearGradient2833"
       xlink:href="#linearGradient2790"
       inkscape:collect="always" />
    <linearGradient
       y2="18.975740"
       x2="31.741240"
       y1="10.984456"
       x1="29.326145"
       gradientUnits="userSpaceOnUse"
       id="linearGradient2831"
       xlink:href="#linearGradient2790"
       inkscape:collect="always" />
    <linearGradient
       y2="101.43396"
       x2="30.706200"
       y1="90.682564"
       x1="18.975740"
       gradientUnits="userSpaceOnUse"
       id="linearGradient2809"
       xlink:href="#linearGradient2790"
       inkscape:collect="always" />
    <linearGradient
       y2="18.975740"
       x2="31.741240"
       y1="10.984456"
       x1="29.326145"
       gradientUnits="userSpaceOnUse"
       id="linearGradient2807"
       xlink:href="#linearGradient2790"
       inkscape:collect="always" />
    <linearGradient
       inkscape:collect="always"
       id="linearGradient4241">
      <stop
         style="stop-color:#a8a8a8;stop-opacity:1.0000000"
         offset="0"
         id="stop4243" />
      <stop
         style="stop-color:#cfcfcf;stop-opacity:1.0000000"
         offset="1"
         id="stop4245" />
    </linearGradient>
    <linearGradient
       id="linearGradient4249">
      <stop
         id="stop4251"
         offset="0"
         style="stop-color:#636363;stop-opacity:1;" />
      <stop
         id="stop4253"
         offset="1"
         style="stop-color:#636363;stop-opacity:0;" />
    </linearGradient>
    <linearGradient
       id="linearGradient4261">
      <stop
         style="stop-color:#ffffff;stop-opacity:1.0000000;"
         offset="0.0000000"
         id="stop4263" />
      <stop
         style="stop-color:#ffffff;stop-opacity:0.0000000;"
         offset="1.0000000"
         id="stop4265" />
    </linearGradient>
    <linearGradient
       id="linearGradient5826"
       inkscape:collect="always">
      <stop
         id="stop5828"
         offset="0"
         style="stop-color:#ffffff;stop-opacity:1;" />
      <stop
         id="stop5830"
         offset="1"
         style="stop-color:#ffffff;stop-opacity:0;" />
    </linearGradient>
    <linearGradient
       id="linearGradient2790"
       inkscape:collect="always">
      <stop
         id="stop2792"
         offset="0"
         style="stop-color:#ffffff;stop-opacity:1;" />
      <stop
         id="stop2794"
         offset="1"
         style="stop-color:#ffffff;stop-opacity:0;" />
    </linearGradient>
    <linearGradient
       inkscape:collect="always"
       xlink:href="#linearGradient4241"
       id="linearGradient1447"
       gradientUnits="userSpaceOnUse"
       gradientTransform="translate(1.380054,2.070081)"
       x1="80.995178"
       y1="75.796539"
       x2="80.995178"
       y2="47.958538" />
    <linearGradient
       inkscape:collect="always"
       xlink:href="#linearGradient4249"
       id="linearGradient1449"
       gradientUnits="userSpaceOnUse"
       gradientTransform="translate(1.380054,2.070081)"
       x1="85.873764"
       y1="52.006653"
       x2="85.873764"
       y2="67.877274" />
    <linearGradient
       inkscape:collect="always"
       xlink:href="#linearGradient4261"
       id="linearGradient1451"
       gradientUnits="userSpaceOnUse"
       gradientTransform="translate(3.450134,2.070081)"
       x1="85.873764"
       y1="52.006653"
       x2="85.873764"
       y2="67.877274" />
    <linearGradient
       inkscape:collect="always"
       xlink:href="#linearGradient4249"
       id="linearGradient1453"
       gradientUnits="userSpaceOnUse"
       gradientTransform="translate(5.419163,3.307225)"
       x1="51.354507"
       y1="25.185986"
       x2="46.281116"
       y2="74.867928" />
    <linearGradient
       inkscape:collect="always"
       xlink:href="#linearGradient4261"
       id="linearGradient1455"
       gradientUnits="userSpaceOnUse"
       gradientTransform="translate(4.687279,4.283071)"
       x1="54.010155"
       y1="20.355801"
       x2="50.905033"
       y2="76.247986" />
    <linearGradient
       inkscape:collect="always"
       xlink:href="#linearGradient5826"
       id="linearGradient1457"
       gradientUnits="userSpaceOnUse"
       x1="28.634653"
       y1="71.801712"
       x2="50.641205"
       y2="67.316536" />
  </defs>
  <g
     id="g2977"
     transform="matrix(1.199802,0.000000,0.000000,1.199802,0.728782,4.227213)">
    <rect
       y="4.4580388"
       x="19.797333"
       height="91.797966"
       width="60.757332"
       id="rect2233"
       style="fill:url(#linearGradient1756);fill-opacity:1.0000000;stroke:none;stroke-width:3.0000000;stroke-linecap:round;stroke-linejoin:round;stroke-miterlimit:4.0000000;stroke-dasharray:none;stroke-opacity:1.0000000" />
    <path
       id="rect1339"
       d="M 6.2500000,4.4375000 L 6.2500000,96.250000 L 7.7500000,96.250000 L 7.7500000,91.781250 C 7.7500000,91.044062 8.3565607,90.468750 9.0937500,90.468750 L 16.406250,90.468750 C 17.143439,90.468750 17.750000,91.044061 17.750000,91.781250 L 17.750000,96.250000 L 19.968750,96.250000 L 19.968750,86.000000 C 19.968750,83.229999 22.198750,81.000000 24.968750,81.000000 L 75.031250,81.000000 C 77.801252,80.999999 80.031250,83.230000 80.031250,86.000000 L 80.031250,96.250000 L 81.843750,96.250000 L 81.843750,91.781250 C 81.843750,91.044062 82.419061,90.468750 83.156250,90.468750 L 90.500000,90.468750 C 91.237187,90.468750 91.812500,91.044061 91.812500,91.781250 L 91.812500,96.250000 L 93.781250,96.250000 L 93.781250,4.4375000 L 80.031250,4.4375000 L 80.031250,23.000000 C 80.031252,25.770001 77.801250,28.000000 75.031250,28.000000 L 24.968750,28.000000 C 22.198750,28.000001 19.968750,25.770000 19.968750,23.000000 L 19.968750,4.4375000 L 6.2500000,4.4375000 z M 9.0937500,6.5000000 L 16.406250,6.5000000 C 17.143439,6.5000000 17.750000,7.0753107 17.750000,7.8125000 L 17.750000,15.125000 C 17.750001,15.862190 17.143439,16.468750 16.406250,16.468750 L 9.0937500,16.468750 C 8.3565608,16.468750 7.7500000,15.862189 7.7500000,15.125000 L 7.7500000,7.8125000 C 7.7500000,7.0753108 8.3565607,6.5000000 9.0937500,6.5000000 z M 83.156250,6.5000000 L 90.500000,6.5000000 C 91.237187,6.5000000 91.812500,7.0753107 91.812500,7.8125000 L 91.812500,15.125000 C 91.812499,15.862190 91.237189,16.468750 90.500000,16.468750 L 83.156250,16.468750 C 82.419062,16.468750 81.843750,15.862189 81.843750,15.125000 L 81.843750,7.8125000 C 81.843750,7.0753108 82.419061,6.5000000 83.156250,6.5000000 z M 9.0937500,27.468750 L 16.406250,27.468750 C 17.143439,27.468750 17.750000,28.075311 17.750000,28.812500 L 17.750000,36.125000 C 17.750001,36.862191 17.143439,37.468750 16.406250,37.468750 L 9.0937500,37.468750 C 8.3565608,37.468749 7.7500000,36.862189 7.7500000,36.125000 L 7.7500000,28.812500 C 7.7500000,28.075310 8.3565607,27.468750 9.0937500,27.468750 z M 83.156250,27.468750 L 90.500000,27.468750 C 91.237187,27.468750 91.812500,28.075311 91.812500,28.812500 L 91.812500,36.125000 C 91.812499,36.862191 91.237189,37.468750 90.500000,37.468750 L 83.156250,37.468750 C 82.419062,37.468749 81.843750,36.862189 81.843750,36.125000 L 81.843750,28.812500 C 81.843750,28.075310 82.419061,27.468750 83.156250,27.468750 z M 24.968750,33.000000 L 75.031250,33.000000 C 77.801252,32.999999 80.031250,35.230000 80.031250,38.000000 L 80.031250,71.000000 C 80.031252,73.770003 77.801250,76.000000 75.031250,76.000000 L 24.968750,76.000000 C 22.198750,76.000003 19.968750,73.770000 19.968750,71.000000 L 19.968750,38.000000 C 19.968750,35.229999 22.198750,33.000000 24.968750,33.000000 z M 9.0937500,48.468750 L 16.406250,48.468750 C 17.143439,48.468750 17.750000,49.075311 17.750000,49.812500 L 17.750000,57.125000 C 17.750001,57.862191 17.143439,58.468750 16.406250,58.468750 L 9.0937500,58.468750 C 8.3565608,58.468749 7.7500000,57.862189 7.7500000,57.125000 L 7.7500000,49.812500 C 7.7500000,49.075312 8.3565607,48.468750 9.0937500,48.468750 z M 83.156250,48.468750 L 90.500000,48.468750 C 91.237187,48.468750 91.812500,49.075311 91.812500,49.812500 L 91.812500,57.125000 C 91.812499,57.862191 91.237189,58.468750 90.500000,58.468750 L 83.156250,58.468750 C 82.419062,58.468749 81.843750,57.862189 81.843750,57.125000 L 81.843750,49.812500 C 81.843750,49.075312 82.419061,48.468750 83.156250,48.468750 z M 9.0937500,69.468750 L 16.406250,69.468750 C 17.143439,69.468750 17.750000,70.044061 17.750000,70.781250 L 17.750000,78.125000 C 17.750001,78.862187 17.143439,79.437500 16.406250,79.437500 L 9.0937500,79.437500 C 8.3565608,79.437499 7.7500000,78.862189 7.7500000,78.125000 L 7.7500000,70.781250 C 7.7500000,70.044062 8.3565607,69.468750 9.0937500,69.468750 z M 83.156250,69.468750 L 90.500000,69.468750 C 91.237187,69.468750 91.812500,70.044061 91.812500,70.781250 L 91.812500,78.125000 C 91.812499,78.862187 91.237189,79.437500 90.500000,79.437500 L 83.156250,79.437500 C 82.419062,79.437499 81.843750,78.862189 81.843750,78.125000 L 81.843750,70.781250 C 81.843750,70.044062 82.419061,69.468750 83.156250,69.468750 z "
       style="fill:#3f3f3f;fill-opacity:1.0000000;stroke:none;stroke-width:3.0000000;stroke-linecap:round;stroke-linejoin:round;stroke-miterlimit:4.0000000;stroke-dasharray:none;stroke-opacity:1.0000000" />
  </g>
  <g
     id="g6562"
     transform="matrix(0.585624,0.338110,-0.338110,0.585624,73.26458,35.31664)">
    <path
       sodipodi:nodetypes="ccccccccc"
       id="path1308"
       d="M 58.799335,14.082055 C 39.308784,-5.4084966 36.974625,140.96059 57.586927,120.34829 C 58.529256,119.45826 60.894767,117.61944 59.767015,115.65124 L 88.815027,86.415094 L 114.00252,86.415094 C 126.77332,86.415094 126.42361,46.415094 114.00252,46.415094 L 88.877527,46.415094 L 59.490902,17.272430 C 60.451931,15.737044 59.649627,15.013667 58.799335,14.082055 z "
       style="fill:url(#linearGradient1447);fill-opacity:1.0000000;fill-rule:evenodd;stroke:#7f7f7f;stroke-width:3.0000000;stroke-linecap:round;stroke-linejoin:round;stroke-miterlimit:4.0000000;stroke-dasharray:none;stroke-opacity:1.0000000" />
    <path
       sodipodi:nodetypes="ccccc"
       id="path5834"
       d="M 88.349804,85.035040 L 112.99039,85.035040 C 125.42137,85.035040 125.08097,47.795148 112.99039,47.795148 L 89.100669,47.795148 C 84.406269,62.677198 85.738502,76.737912 88.349804,85.035040 z "
       style="fill:#000000;fill-opacity:0.35175881;fill-rule:evenodd;stroke:none;stroke-width:3.0000000;stroke-linecap:round;stroke-linejoin:round;stroke-miterlimit:4.0000000;stroke-dasharray:none;stroke-opacity:1.0000000" />
    <g
       id="g4307">
      <path
         style="fill:none;fill-opacity:0.75000000;fill-rule:evenodd;stroke:url(#linearGradient1449);stroke-width:2.0000000;stroke-linecap:round;stroke-linejoin:miter;stroke-miterlimit:4.0000000;stroke-dasharray:none;stroke-opacity:1.0000000"
         d="M 88.718224,47.855099 C 84.977483,56.800349 84.652201,75.504054 88.718224,84.449305"
         id="path4247"
         sodipodi:nodetypes="cc" />
      <path
         style="fill:none;fill-opacity:0.75000000;fill-rule:evenodd;stroke:url(#linearGradient1451);stroke-width:2.0000000;stroke-linecap:round;stroke-linejoin:miter;stroke-miterlimit:4.0000000;stroke-dasharray:none;stroke-opacity:1.0000000"
         d="M 90.788304,47.855099 C 87.047563,56.800349 86.722281,75.504054 90.788304,84.449305"
         id="path4257"
         sodipodi:nodetypes="cc" />
    </g>
    <path
       sodipodi:nodetypes="cc"
       id="path4326"
       d="M 58.290577,19.511474 C 47.994580,32.941899 46.979271,99.947487 58.290577,122.34827"
       style="fill:none;fill-opacity:0.75000000;fill-rule:evenodd;stroke:url(#linearGradient1453);stroke-width:2.0000000;stroke-linecap:round;stroke-linejoin:miter;stroke-miterlimit:4.0000000;stroke-dasharray:none;stroke-opacity:1.0000000" />
    <path
       sodipodi:nodetypes="cc"
       id="path4328"
       d="M 59.628773,20.487320 C 51.402857,34.952786 46.592400,84.362685 59.628773,122.63409"
       style="fill:none;fill-opacity:1.0000000;fill-rule:evenodd;stroke:url(#linearGradient1455);stroke-width:2.0000000;stroke-linecap:round;stroke-linejoin:miter;stroke-miterlimit:4.0000000;stroke-dasharray:none;stroke-opacity:1.0000000" />
    <path
       sodipodi:nodetypes="ccccccccc"
       id="path5824"
       d="M 58.799335,14.082055 C 39.308784,-5.4084966 36.974625,140.96059 57.586927,120.34829 C 58.529256,119.45826 60.894767,117.61944 59.767015,115.65124 L 88.815027,86.415094 L 114.00252,86.415094 C 126.77332,86.415094 126.42361,46.415094 114.00252,46.415094 L 88.877527,46.415094 L 59.490902,17.272430 C 60.451931,15.737044 59.649627,15.013667 58.799335,14.082055 z "
       style="fill:url(#linearGradient1457);fill-opacity:1.0000000;fill-rule:evenodd;stroke:none;stroke-width:3.0000000;stroke-linecap:round;stroke-linejoin:round;stroke-miterlimit:4.0000000;stroke-dasharray:none;stroke-opacity:1.0000000" />
  </g>
  <g
     id="g2802"
     transform="matrix(0.426157,0.000000,0.000000,0.426157,28.83059,29.64823)">
    <path
       sodipodi:nodetypes="cccssssccc"
       id="path1330"
       d="M 30.377114,9.1817638 C 27.329607,9.8975937 24.454607,10.785931 21.924621,12.105534 L 36.233415,84.798004 C 33.096972,84.443390 28.386148,84.800725 24.845864,85.525514 C 13.058490,87.938695 4.7402415,95.890650 6.2521137,103.27551 C 7.7639862,110.66037 18.558491,114.68869 30.345864,112.27551 C 42.133239,109.86233 50.349692,101.93049 48.939614,94.525514 L 35.187500,22.306764 C 48.988320,18.276749 68.678888,30.462368 80.064614,43.338014 C 75.232572,26.777395 50.044735,5.7316010 30.377114,9.1817638 z "
       style="color:#000000;fill:#383838;fill-opacity:1.0000000;fill-rule:evenodd;stroke:#000000;stroke-width:3.0000000;stroke-linecap:round;stroke-linejoin:round;marker:none;marker-start:none;marker-mid:none;marker-end:none;stroke-miterlimit:4.0000000;stroke-dasharray:none;stroke-dashoffset:0.0000000;stroke-opacity:1.0000000;visibility:visible;display:inline;overflow:visible" />
    <path
       sodipodi:nodetypes="cccssssccc"
       id="path2788"
       d="M 29.679607,12.479963 C 26.795981,13.157299 27.870733,12.790319 25.476798,14.038959 L 39.878665,86.962526 C 36.910885,86.626981 30.555814,87.482620 27.205910,88.168434 C 16.052406,90.451845 8.0089682,95.733592 9.4395389,102.72133 C 10.870110,109.70907 19.876589,111.79569 31.030091,109.51228 C 42.183596,107.22887 47.465274,100.96607 46.036354,93.579334 L 31.816217,20.068973 C 44.874893,16.255674 62.816567,22.783311 73.245007,33.586510 C 64.187635,22.746633 48.289594,9.2153343 29.679607,12.479963 z "
       style="color:#000000;fill:none;fill-opacity:1.0000000;fill-rule:evenodd;stroke:url(#linearGradient2807);stroke-width:2.0000000;stroke-linecap:round;stroke-linejoin:round;marker:none;marker-start:none;marker-mid:none;marker-end:none;stroke-miterlimit:4.0000000;stroke-dasharray:none;stroke-dashoffset:0.0000000;stroke-opacity:1.0000000;visibility:visible;display:inline;overflow:visible" />
    <path
       sodipodi:nodetypes="cssssc"
       id="path2798"
       d="M 39.878665,86.962526 C 36.910885,86.626981 30.555814,87.482620 27.205910,88.168434 C 16.052406,90.451845 8.0089682,95.733592 9.4395389,102.72133 C 10.870110,109.70907 19.876589,111.79569 31.030091,109.51228 C 42.183596,107.22887 47.465274,100.96607 46.036354,93.579334 L 39.878665,86.962526 z "
       style="color:#000000;fill:none;fill-opacity:1.0000000;fill-rule:evenodd;stroke:url(#linearGradient2809);stroke-width:2.0000000;stroke-linecap:round;stroke-linejoin:round;marker:none;marker-start:none;marker-mid:none;marker-end:none;stroke-miterlimit:4.0000000;stroke-dasharray:none;stroke-dashoffset:0.0000000;stroke-opacity:1.0000000;visibility:visible;display:inline;overflow:visible" />
  </g>
  <g
     id="g2823"
     transform="matrix(0.426157,0.000000,0.000000,0.426157,44.27238,49.42800)">
    <path
       sodipodi:nodetypes="cccssssccc"
       id="path2825"
       d="M 30.377114,9.1817638 C 27.329607,9.8975937 24.454607,10.785931 21.924621,12.105534 L 36.233415,84.798004 C 33.096972,84.443390 28.386148,84.800725 24.845864,85.525514 C 13.058490,87.938695 4.7402415,95.890650 6.2521137,103.27551 C 7.7639862,110.66037 18.558491,114.68869 30.345864,112.27551 C 42.133239,109.86233 50.349692,101.93049 48.939614,94.525514 L 35.187500,22.306764 C 48.988320,18.276749 68.678888,30.462368 80.064614,43.338014 C 75.232572,26.777395 50.044735,5.7316010 30.377114,9.1817638 z "
       style="color:#000000;fill:#383838;fill-opacity:1.0000000;fill-rule:evenodd;stroke:#000000;stroke-width:3.0000000;stroke-linecap:round;stroke-linejoin:round;marker:none;marker-start:none;marker-mid:none;marker-end:none;stroke-miterlimit:4.0000000;stroke-dasharray:none;stroke-dashoffset:0.0000000;stroke-opacity:1.0000000;visibility:visible;display:inline;overflow:visible" />
    <path
       sodipodi:nodetypes="cccssssccc"
       id="path2827"
       d="M 29.679607,12.479963 C 26.795981,13.157299 27.870733,12.790319 25.476798,14.038959 L 39.878665,86.962526 C 36.910885,86.626981 30.555814,87.482620 27.205910,88.168434 C 16.052406,90.451845 8.0089682,95.733592 9.4395389,102.72133 C 10.870110,109.70907 19.876589,111.79569 31.030091,109.51228 C 42.183596,107.22887 47.465274,100.96607 46.036354,93.579334 L 31.816217,20.068973 C 44.874893,16.255674 62.816567,22.783311 73.245007,33.586510 C 64.187635,22.746633 48.289594,9.2153343 29.679607,12.479963 z "
       style="color:#000000;fill:none;fill-opacity:1.0000000;fill-rule:evenodd;stroke:url(#linearGradient2831);stroke-width:2.0000000;stroke-linecap:round;stroke-linejoin:round;marker:none;marker-start:none;marker-mid:none;marker-end:none;stroke-miterlimit:4.0000000;stroke-dasharray:none;stroke-dashoffset:0.0000000;stroke-opacity:1.0000000;visibility:visible;display:inline;overflow:visible" />
    <path
       sodipodi:nodetypes="cssssc"
       id="path2829"
       d="M 39.878665,86.962526 C 36.910885,86.626981 30.555814,87.482620 27.205910,88.168434 C 16.052406,90.451845 8.0089682,95.733592 9.4395389,102.72133 C 10.870110,109.70907 19.876589,111.79569 31.030091,109.51228 C 42.183596,107.22887 47.465274,100.96607 46.036354,93.579334 L 39.878665,86.962526 z "
       style="color:#000000;fill:none;fill-opacity:1.0000000;fill-rule:evenodd;stroke:url(#linearGradient2833);stroke-width:2.0000000;stroke-linecap:round;stroke-linejoin:round;marker:none;marker-start:none;marker-mid:none;marker-end:none;stroke-miterlimit:4.0000000;stroke-dasharray:none;stroke-dashoffset:0.0000000;stroke-opacity:1.0000000;visibility:visible;display:inline;overflow:visible" />
  </g>
</svg>
