<?xml version="1.0" encoding="UTF-8" standalone="no"?>
<!-- Created with Inkscape (http://www.inkscape.org/) -->
<svg
   xmlns:dc="http://purl.org/dc/elements/1.1/"
   xmlns:cc="http://web.resource.org/cc/"
   xmlns:rdf="http://www.w3.org/1999/02/22-rdf-syntax-ns#"
   xmlns:svg="http://www.w3.org/2000/svg"
   xmlns="http://www.w3.org/2000/svg"
   xmlns:xlink="http://www.w3.org/1999/xlink"
   xmlns:sodipodi="http://inkscape.sourceforge.net/DTD/sodipodi-0.dtd"
   xmlns:inkscape="http://www.inkscape.org/namespaces/inkscape"
   width="128.00000px"
   height="128.00000px"
   id="svg2"
   sodipodi:version="0.32"
   inkscape:version="0.42.2"
   sodipodi:docbase="/home/silvestre/Desktop/Nuovo!/scalable/apps"
   sodipodi:docname="gnome-reboot.svg">
  <defs
     id="defs4">
    <linearGradient
       inkscape:collect="always"
       id="linearGradient13134">
      <stop
         style="stop-color:#ffffff;stop-opacity:1;"
         offset="0"
         id="stop13136" />
      <stop
         style="stop-color:#ffffff;stop-opacity:0;"
         offset="1"
         id="stop13138" />
    </linearGradient>
    <linearGradient
       id="linearGradient12383">
      <stop
         style="stop-color:#000000;stop-opacity:0.50999999;"
         offset="0.0000000"
         id="stop12385" />
      <stop
         style="stop-color:#000000;stop-opacity:0;"
         offset="1"
         id="stop12387" />
    </linearGradient>
    <linearGradient
       id="linearGradient11645">
      <stop
         style="stop-color:#000000;stop-opacity:0.15000001;"
         offset="0.0000000"
         id="stop11647" />
      <stop
         style="stop-color:#000000;stop-opacity:0;"
         offset="1"
         id="stop11649" />
    </linearGradient>
    <linearGradient
       id="linearGradient10904">
      <stop
         style="stop-color:#ffffff;stop-opacity:1.0000000;"
         offset="0.0000000"
         id="stop10906" />
      <stop
         style="stop-color:#dedede;stop-opacity:1.0000000;"
         offset="1.0000000"
         id="stop10908" />
    </linearGradient>
    <linearGradient
       id="linearGradient7978">
      <stop
         style="stop-color:#b9cfea;stop-opacity:1.0000000;"
         offset="0.0000000"
         id="stop7980" />
      <stop
         style="stop-color:#8db1dc;stop-opacity:1.0000000;"
         offset="1.0000000"
         id="stop7982" />
    </linearGradient>
    <radialGradient
       inkscape:collect="always"
       xlink:href="#linearGradient10904"
       id="radialGradient10910"
       cx="58.595669"
       cy="96.206390"
       fx="58.595669"
       fy="96.206390"
       r="37.140626"
       gradientTransform="matrix(0.846963,0.000000,0.000000,0.514108,10.06851,50.45628)"
       gradientUnits="userSpaceOnUse" />
    <radialGradient
       inkscape:collect="always"
       xlink:href="#linearGradient11645"
       id="radialGradient11651"
       cx="65.381645"
       cy="117.75362"
       fx="65.381645"
       fy="117.75362"
       r="45.900970"
       gradientTransform="matrix(1.000000,0.000000,0.000000,0.213387,0.000000,92.62648)"
       gradientUnits="userSpaceOnUse" />
    <linearGradient
       inkscape:collect="always"
       xlink:href="#linearGradient12383"
       id="linearGradient12389"
       x1="66.415092"
       y1="73.137512"
       x2="66.415092"
       y2="98.195938"
       gradientUnits="userSpaceOnUse" />
    <radialGradient
       inkscape:collect="always"
       xlink:href="#linearGradient7978"
       id="radialGradient13153"
       gradientUnits="userSpaceOnUse"
       gradientTransform="matrix(1.000000,0.000000,0.000000,0.614440,3.820728e-16,20.95840)"
       cx="46.231804"
       cy="30.303249"
       fx="46.231804"
       fy="30.303249"
       r="46.118815" />
    <linearGradient
       inkscape:collect="always"
       xlink:href="#linearGradient13134"
       id="linearGradient13155"
       gradientUnits="userSpaceOnUse"
       x1="101.30458"
       y1="78.878708"
       x2="101.30458"
       y2="82.545486" />
    <linearGradient
       y2="97.595169"
       x2="-50.630741"
       y1="82.493759"
       x1="-87.652122"
       gradientUnits="userSpaceOnUse"
       id="linearGradient1329"
       xlink:href="#linearGradient1311"
       inkscape:collect="always" />
    <linearGradient
       y2="79.840210"
       x2="-28.356623"
       y1="71.472862"
       x1="-8.0010834"
       gradientUnits="userSpaceOnUse"
       id="linearGradient1325"
       xlink:href="#linearGradient1311"
       inkscape:collect="always" />
    <linearGradient
       y2="61.806011"
       x2="-34.868973"
       y1="52.937717"
       x1="-31.545731"
       gradientUnits="userSpaceOnUse"
       id="linearGradient1321"
       xlink:href="#linearGradient1311"
       inkscape:collect="always" />
    <linearGradient
       gradientUnits="userSpaceOnUse"
       y2="64.310760"
       x2="-68.432617"
       y1="53.044029"
       x1="-79.636925"
       id="linearGradient1317"
       xlink:href="#linearGradient1311"
       inkscape:collect="always" />
    <linearGradient
       inkscape:collect="always"
       id="linearGradient2985">
      <stop
         style="stop-color:#6fb037;stop-opacity:1.0000000"
         offset="0"
         id="stop2987" />
      <stop
         style="stop-color:#5a8f2b;stop-opacity:1.0000000"
         offset="1"
         id="stop2989" />
    </linearGradient>
    <linearGradient
       gradientTransform="matrix(1.022962,0.000000,0.000000,1.022962,1.196273,-1.858265)"
       y2="97.576836"
       x2="-42.188931"
       y1="66.235695"
       x1="-66.390816"
       gradientUnits="userSpaceOnUse"
       id="linearGradient3267"
       xlink:href="#linearGradient2985"
       inkscape:collect="always" />
    <linearGradient
       id="linearGradient1311"
       inkscape:collect="always">
      <stop
         id="stop1313"
         offset="0"
         style="stop-color:#ffffff;stop-opacity:1;" />
      <stop
         id="stop1315"
         offset="1"
         style="stop-color:#ffffff;stop-opacity:0;" />
    </linearGradient>
  </defs>
  <sodipodi:namedview
     id="base"
     pagecolor="#ffffff"
     bordercolor="#666666"
     borderopacity="1.0"
     inkscape:pageopacity="0.0"
     inkscape:pageshadow="2"
     inkscape:zoom="1.4492187"
     inkscape:cx="29.519878"
     inkscape:cy="30.094793"
     inkscape:document-units="px"
     inkscape:current-layer="layer1"
     showguides="true"
     inkscape:guide-bbox="true"
     inkscape:window-width="772"
     inkscape:window-height="543"
     inkscape:window-x="57"
     inkscape:window-y="152" />
  <metadata
     id="metadata7">
    <rdf:RDF>
      <cc:Work
         rdf:about="">
        <dc:format>image/svg+xml</dc:format>
        <dc:type
           rdf:resource="http://purl.org/dc/dcmitype/StillImage" />
      </cc:Work>
    </rdf:RDF>
  </metadata>
  <g
     inkscape:label="Layer 1"
     inkscape:groupmode="layer"
     id="layer1">
    <g
       id="g13148">
      <path
         d="M 109.78262 117.75362 A 44.400970 8.2946863 0 1 1  20.980675,117.75362 A 44.400970 8.2946863 0 1 1  109.78262 117.75362 z"
         sodipodi:ry="8.2946863"
         sodipodi:rx="44.400970"
         sodipodi:cy="117.75362"
         sodipodi:cx="65.381645"
         id="path10917"
         style="fill:url(#radialGradient11651);fill-opacity:1.0;stroke:none;stroke-width:3.0000000;stroke-linecap:round;stroke-linejoin:miter;stroke-miterlimit:4.0000000;stroke-dasharray:none;stroke-opacity:1.0000000"
         sodipodi:type="arc" />
      <path
         sodipodi:nodetypes="cccc"
         id="path9442"
         d="M 64.849297,86.018844 C 48.309060,86.018844 34.923842,99.339696 34.676240,115.82136 C 34.676240,123.59316 95.048824,123.63680 95.048824,115.82136 C 94.801223,99.339687 81.389534,86.018846 64.849297,86.018844 z "
         style="fill:url(#radialGradient10910);fill-opacity:1.0000000;stroke:#c4c4c4;stroke-width:2.5408890;stroke-linecap:round;stroke-linejoin:miter;stroke-miterlimit:4.0000000;stroke-dasharray:none;stroke-opacity:1.0000000" />
      <path
         sodipodi:nodetypes="cccc"
         id="path11653"
         d="M 64.593827,88.147674 C 52.165345,88.147674 47.125516,93.045365 43.882031,96.345017 C 43.882031,98.487409 86.281476,98.943563 86.281476,96.789139 C 81.822819,92.195237 77.022308,88.147675 64.593827,88.147674 z "
         style="fill:url(#linearGradient12389);fill-opacity:1.0;stroke:none;stroke-width:1.8022499;stroke-linecap:round;stroke-linejoin:miter;stroke-miterlimit:4.0000000;stroke-dasharray:none;stroke-opacity:1.0000000" />
    </g>
    <g
       id="g13142"
       transform="matrix(0.970458,0.000000,0.000000,1.036509,1.916166,-0.407953)">
      <rect
         ry="4.8238831"
         rx="5.1522064"
         y="12.625336"
         x="12.765497"
         height="77.283020"
         width="104.19407"
         id="rect5796"
         style="fill:#efefef;fill-opacity:1.0000000;stroke:#bdbdbd;stroke-width:3.0000000;stroke-linecap:round;stroke-linejoin:miter;stroke-miterlimit:4.0000000;stroke-dasharray:none;stroke-opacity:1.0000000" />
      <rect
         ry="2.4938564"
         rx="2.6635933"
         y="19.423027"
         x="19.929823"
         height="54.372272"
         width="89.865417"
         id="rect6524"
         style="fill:url(#radialGradient13153);fill-opacity:1.0000000;stroke:#7498bc;stroke-width:2.3369143;stroke-linecap:round;stroke-linejoin:miter;stroke-miterlimit:4.0000000;stroke-dasharray:none;stroke-opacity:1.0000000" />
      <path
         transform="matrix(0.910712,0.000000,0.000000,0.910712,10.37842,10.39163)"
         d="M 103.43962 78.414848 A 3.5984302 3.5984302 0 1 1  96.242764,78.414848 A 3.5984302 3.5984302 0 1 1  103.43962 78.414848 z"
         sodipodi:ry="3.5984302"
         sodipodi:rx="3.5984302"
         sodipodi:cy="78.414848"
         sodipodi:cx="99.841194"
         id="path8712"
         style="fill:#8ddc8f;fill-opacity:1.0000000;stroke:#57c076;stroke-width:1.0000000;stroke-linecap:round;stroke-linejoin:miter;stroke-miterlimit:4.0000000;stroke-dasharray:none;stroke-opacity:1.0000000"
         sodipodi:type="arc" />
      <path
         transform="translate(-0.215633,-0.819407)"
         d="M 103.59030 81.574127 A 2.0485175 1.6172507 0 1 1  99.493261,81.574127 A 2.0485175 1.6172507 0 1 1  103.59030 81.574127 z"
         sodipodi:ry="1.6172507"
         sodipodi:rx="2.0485175"
         sodipodi:cy="81.574127"
         sodipodi:cx="101.54178"
         id="path12406"
         style="fill:url(#linearGradient13155);fill-opacity:1.0000000;stroke:none;stroke-width:3.0000000;stroke-linecap:round;stroke-linejoin:miter;stroke-miterlimit:4.0000000;stroke-dasharray:none;stroke-opacity:1.0000000"
         sodipodi:type="arc" />
    </g>
    <g
       id="g3364"
       inkscape:label="Layer 1"
       transform="matrix(0.767917,0.000000,0.000000,0.767917,31.68489,28.86799)">
      <g
         transform="matrix(1.377437,0.000000,0.000000,1.377437,136.6059,-47.18880)"
         id="g10309">
        <path
           style="fill:url(#linearGradient3267);fill-opacity:1.0000000;stroke:#5f7c31;stroke-width:3.6299300;stroke-linecap:round;stroke-linejoin:round;stroke-miterlimit:4.0000000;stroke-dasharray:none;stroke-opacity:1.0000000"
           d="M -77.321179,40.005818 L -90.736772,78.325297 L -51.303591,74.991910 L -58.733503,66.175038 C -54.783030,65.286777 -52.570141,66.543847 -49.451080,66.623139 C -39.634257,66.872701 -34.932513,77.498380 -35.275265,85.564837 C -35.683903,95.181875 -44.015332,100.82661 -53.218711,100.73891 C -61.727404,100.65783 -64.843669,96.648512 -68.933779,90.032350 L -88.655284,102.32757 C -81.440009,113.68132 -71.094458,121.84790 -53.468274,121.84790 C -31.013568,121.84790 -14.520499,105.35483 -14.520499,82.900121 C -14.520499,60.445414 -32.510947,44.733003 -53.468274,44.483440 C -60.661960,44.397776 -64.326542,45.205268 -70.165539,48.510273 L -77.321179,40.005818 z "
           id="path8109"
           sodipodi:nodetypes="ccccsssccssscc" />
        <path
           sodipodi:nodetypes="ccccsssccssscc"
           style="fill:none;fill-opacity:1.0000000;stroke:url(#linearGradient1317);stroke-width:4.1992130;stroke-linecap:round;stroke-linejoin:round;stroke-miterlimit:4.0000000;stroke-dasharray:none;stroke-opacity:1.0000000"
           d="M -75.749230,46.521176 L -85.738190,74.974578 L -55.716273,72.195281 L -61.467493,64.820511 C -59.141037,63.841068 -56.259158,62.543547 -53.573391,62.543547 C -37.585986,62.543546 -32.178570,72.910114 -32.178570,83.938368 C -32.178569,94.966622 -39.711336,104.27052 -53.927616,104.27052 C -61.110906,104.27052 -66.649349,100.44457 -70.170130,94.749356 L -82.364020,102.65047 C -76.153087,112.42381 -66.356034,118.26007 -53.927616,118.26007 C -34.598526,118.26007 -18.897460,102.55901 -18.897460,83.229918 C -18.897460,63.900828 -34.598526,48.227280 -53.927616,48.227280 C -60.120405,48.227280 -65.852350,49.922756 -70.878580,52.767716 L -75.749230,46.521176 z "
           id="path10307" />
      </g>
      <path
         sodipodi:nodetypes="ccccsssccssscc"
         style="fill:none;fill-opacity:1.0000000;stroke:url(#linearGradient1321);stroke-width:4.1992130;stroke-linecap:round;stroke-linejoin:round;stroke-miterlimit:4.0000000;stroke-dasharray:none;stroke-opacity:1.0000000"
         d="M -75.749230,46.521176 L -85.738190,74.974578 L -55.716273,72.195281 L -61.467493,64.820511 C -59.141037,63.841068 -56.259158,62.543547 -53.573391,62.543547 C -37.585986,62.543546 -32.178570,72.910114 -32.178570,83.938368 C -32.178569,94.966622 -39.711336,104.27052 -53.927616,104.27052 C -61.110906,104.27052 -66.649349,100.44457 -70.170130,94.749356 L -82.364020,102.65047 C -76.153087,112.42381 -66.356034,118.26007 -53.927616,118.26007 C -34.598526,118.26007 -18.897460,102.55901 -18.897460,83.229918 C -18.897460,63.900828 -34.598526,48.227280 -53.927616,48.227280 C -60.120405,48.227280 -65.852350,49.922756 -70.878580,52.767716 L -75.749230,46.521176 z "
         id="path1319"
         transform="matrix(1.377437,0.000000,0.000000,1.377437,136.6059,-47.18880)" />
      <path
         sodipodi:nodetypes="ccccsssccssscc"
         style="fill:none;fill-opacity:1.0000000;stroke:url(#linearGradient1325);stroke-width:4.1992130;stroke-linecap:round;stroke-linejoin:round;stroke-miterlimit:4.0000000;stroke-dasharray:none;stroke-opacity:1.0000000"
         d="M -75.749230,46.521176 L -85.738190,74.974578 L -55.716273,72.195281 L -61.467493,64.820511 C -59.141037,63.841068 -56.259158,62.543547 -53.573391,62.543547 C -37.585986,62.543546 -32.178570,72.910114 -32.178570,83.938368 C -32.178569,94.966622 -39.711336,104.27052 -53.927616,104.27052 C -61.110906,104.27052 -66.649349,100.44457 -70.170130,94.749356 L -82.364020,102.65047 C -76.153087,112.42381 -66.356034,118.26007 -53.927616,118.26007 C -34.598526,118.26007 -18.897460,102.55901 -18.897460,83.229918 C -18.897460,63.900828 -34.598526,48.227280 -53.927616,48.227280 C -60.120405,48.227280 -65.852350,49.922756 -70.878580,52.767716 L -75.749230,46.521176 z "
         id="path1323"
         transform="matrix(1.377437,0.000000,0.000000,1.377437,136.6059,-47.18880)" />
      <path
         sodipodi:nodetypes="csccsss"
         style="fill:none;fill-opacity:1.0000000;stroke:url(#linearGradient1329);stroke-width:4.1992130;stroke-linecap:round;stroke-linejoin:round;stroke-miterlimit:4.0000000;stroke-dasharray:none;stroke-opacity:1.0000000"
         d="M -32.178570,83.938368 C -32.178569,94.966622 -39.711336,104.27052 -53.927616,104.27052 C -61.110906,104.27052 -66.649349,100.44457 -70.170130,94.749356 L -82.364020,102.65047 C -76.153087,112.42381 -66.356034,118.26007 -53.927616,118.26007 C -34.598526,118.26007 -18.897460,102.55901 -18.897460,83.229918 C -18.897460,63.900828 -32.178570,72.910114 -32.178570,83.938368 z "
         id="path1327"
         transform="matrix(1.377437,0.000000,0.000000,1.377437,136.6059,-47.18880)" />
    </g>
  </g>
</svg>
