<?xml version="1.0" encoding="UTF-8" standalone="no"?>
<!-- Created with Inkscape (http://www.inkscape.org/) -->
<svg
   xmlns:dc="http://purl.org/dc/elements/1.1/"
   xmlns:cc="http://web.resource.org/cc/"
   xmlns:rdf="http://www.w3.org/1999/02/22-rdf-syntax-ns#"
   xmlns:svg="http://www.w3.org/2000/svg"
   xmlns="http://www.w3.org/2000/svg"
   xmlns:xlink="http://www.w3.org/1999/xlink"
   xmlns:sodipodi="http://inkscape.sourceforge.net/DTD/sodipodi-0.dtd"
   xmlns:inkscape="http://www.inkscape.org/namespaces/inkscape"
   width="128.00000px"
   height="128.00000px"
   id="svg2"
   sodipodi:version="0.32"
   inkscape:version="0.42.2"
   sodipodi:docbase="/home/silvestre/Desktop/Nuovo!/scalable/apps"
   sodipodi:docname="mozilla-firefox.svg">
  <defs
     id="defs4">
    <linearGradient
       inkscape:collect="always"
       id="linearGradient4030">
      <stop
         style="stop-color:#ffffff;stop-opacity:1;"
         offset="0"
         id="stop4032" />
      <stop
         style="stop-color:#ffffff;stop-opacity:0;"
         offset="1"
         id="stop4034" />
    </linearGradient>
    <linearGradient
       inkscape:collect="always"
       id="linearGradient3274">
      <stop
         style="stop-color:#ffffff;stop-opacity:1;"
         offset="0"
         id="stop3276" />
      <stop
         style="stop-color:#ffffff;stop-opacity:0;"
         offset="1"
         id="stop3278" />
    </linearGradient>
    <linearGradient
       id="linearGradient5042">
      <stop
         style="stop-color:#000000;stop-opacity:0.20202021;"
         offset="0.0000000"
         id="stop5044" />
      <stop
         style="stop-color:#000000;stop-opacity:0;"
         offset="1"
         id="stop5046" />
    </linearGradient>
    <linearGradient
       inkscape:collect="always"
       id="linearGradient5032">
      <stop
         style="stop-color:#ffffff;stop-opacity:0.39698493"
         offset="0"
         id="stop5034" />
      <stop
         style="stop-color:#ffffff;stop-opacity:0;"
         offset="1"
         id="stop5036" />
    </linearGradient>
    <linearGradient
       id="linearGradient4296">
      <stop
         style="stop-color:#71b6d5;stop-opacity:1.0000000;"
         offset="0.0000000"
         id="stop4298" />
      <stop
         style="stop-color:#429dc7;stop-opacity:1.0000000;"
         offset="1.0000000"
         id="stop4300" />
    </linearGradient>
    <linearGradient
       id="linearGradient1539">
      <stop
         id="stop1540"
         offset="0.0000000"
         style="stop-color:#ffffff;stop-opacity:0.0000000;" />
      <stop
         id="stop1541"
         offset="1"
         style="stop-color:#fff;stop-opacity:1;" />
    </linearGradient>
    <linearGradient
       id="linearGradient1715">
      <stop
         id="stop1716"
         offset="0.0000000"
         style="stop-color:#d86f35;stop-opacity:1.0000000;" />
      <stop
         id="stop1717"
         offset="1.0000000"
         style="stop-color:#dddd49;stop-opacity:1.0000000;" />
    </linearGradient>
    <linearGradient
       id="linearGradient1544">
      <stop
         id="stop1545"
         offset="0.0000000"
         style="stop-color:#000000;stop-opacity:0.0000000;" />
      <stop
         id="stop1546"
         offset="1.0000000"
         style="stop-color:#000000;stop-opacity:0.32989690;" />
    </linearGradient>
    <linearGradient
       id="linearGradient1678">
      <stop
         id="stop1679"
         offset="0.0000000"
         style="stop-color:#d1940c;stop-opacity:0.0000000;" />
      <stop
         id="stop2363"
         offset="0.50000000"
         style="stop-color:#ffe689;stop-opacity:0.48275861;" />
      <stop
         id="stop1680"
         offset="1.0000000"
         style="stop-color:#ffe689;stop-opacity:1.0000000;" />
    </linearGradient>
    <linearGradient
       id="linearGradient865">
      <stop
         id="stop866"
         offset="0.00000000"
         style="stop-color:#ffffff;stop-opacity:1.0000000;" />
      <stop
         id="stop868"
         offset="1.0000000"
         style="stop-color:#ffffff;stop-opacity:0.00000000;" />
    </linearGradient>
    <radialGradient
       inkscape:collect="always"
       xlink:href="#linearGradient5042"
       id="radialGradient1707"
       gradientUnits="userSpaceOnUse"
       gradientTransform="matrix(1.000000,0.000000,0.000000,0.139303,1.447175e-13,126.2046)"
       cx="237.54178"
       cy="146.63072"
       fx="237.54178"
       fy="146.63072"
       r="34.673855" />
    <radialGradient
       inkscape:collect="always"
       xlink:href="#linearGradient4296"
       id="radialGradient3295"
       gradientUnits="userSpaceOnUse"
       cx="161.99036"
       cy="125.07246"
       fx="161.99036"
       fy="125.07246"
       r="39.545895" />
    <linearGradient
       inkscape:collect="always"
       xlink:href="#linearGradient5032"
       id="linearGradient3297"
       gradientUnits="userSpaceOnUse"
       x1="233.25127"
       y1="85.716805"
       x2="233.25127"
       y2="116.61456" />
    <linearGradient
       inkscape:collect="always"
       xlink:href="#linearGradient4030"
       id="linearGradient4036"
       x1="126.31924"
       y1="83.097572"
       x2="161.99036"
       y2="136.79346"
       gradientUnits="userSpaceOnUse" />
    <linearGradient
       inkscape:collect="always"
       xlink:href="#linearGradient1715"
       id="linearGradient4066"
       gradientUnits="userSpaceOnUse"
       gradientTransform="matrix(0.362166,0.000000,0.000000,0.301688,253.2234,17.40828)"
       x1="-149.33857"
       y1="168.01182"
       x2="-358.22324"
       y2="-85.246893" />
    <linearGradient
       inkscape:collect="always"
       xlink:href="#linearGradient1715"
       id="linearGradient4068"
       gradientUnits="userSpaceOnUse"
       gradientTransform="matrix(0.387131,0.000000,0.000000,0.346648,131.0042,-1.554344)"
       x1="-149.33857"
       y1="168.01182"
       x2="-358.22324"
       y2="-85.246893" />
    <linearGradient
       inkscape:collect="always"
       xlink:href="#linearGradient1544"
       id="linearGradient4070"
       gradientUnits="userSpaceOnUse"
       gradientTransform="matrix(0.911834,0.000000,0.000000,0.815216,-6.785899,-7.626140)"
       x1="94.089043"
       y1="95.194012"
       x2="167.50670"
       y2="103.51086" />
    <linearGradient
       inkscape:collect="always"
       xlink:href="#linearGradient1544"
       id="linearGradient4072"
       gradientUnits="userSpaceOnUse"
       gradientTransform="matrix(0.347451,0.000000,0.000000,0.386236,131.0042,-1.554344)"
       x1="-205.66159"
       y1="115.27377"
       x2="-239.40342"
       y2="78.405006" />
    <linearGradient
       inkscape:collect="always"
       xlink:href="#linearGradient1678"
       id="linearGradient4074"
       gradientUnits="userSpaceOnUse"
       gradientTransform="matrix(0.348268,0.000000,0.000000,0.385331,131.0042,-1.554344)"
       x1="-330.60001"
       y1="102.07395"
       x2="-333.24067"
       y2="160.00358" />
    <linearGradient
       inkscape:collect="always"
       xlink:href="#linearGradient1678"
       id="linearGradient4076"
       gradientUnits="userSpaceOnUse"
       gradientTransform="matrix(0.266434,0.000000,0.000000,0.503683,131.0042,-1.554344)"
       x1="-408.14194"
       y1="90.897339"
       x2="-421.80730"
       y2="121.21736" />
    <linearGradient
       inkscape:collect="always"
       xlink:href="#linearGradient1678"
       id="linearGradient4078"
       gradientUnits="userSpaceOnUse"
       gradientTransform="matrix(0.355850,0.000000,0.000000,0.377120,131.0042,-1.554344)"
       x1="-309.44345"
       y1="109.06222"
       x2="-317.68594"
       y2="136.38800" />
    <linearGradient
       inkscape:collect="always"
       xlink:href="#linearGradient1544"
       id="linearGradient4080"
       gradientUnits="userSpaceOnUse"
       gradientTransform="matrix(0.646647,0.000000,0.000000,0.207529,131.0042,-1.554344)"
       x1="-92.911313"
       y1="387.21167"
       x2="-139.60914"
       y2="386.11549" />
    <linearGradient
       inkscape:collect="always"
       xlink:href="#linearGradient865"
       id="linearGradient4082"
       gradientUnits="userSpaceOnUse"
       gradientTransform="matrix(0.572374,0.000000,0.000000,0.234459,131.0042,-1.554344)"
       x1="-85.841276"
       y1="308.86544"
       x2="-110.48072"
       y2="304.37498" />
    <linearGradient
       inkscape:collect="always"
       xlink:href="#linearGradient1544"
       id="linearGradient4084"
       gradientUnits="userSpaceOnUse"
       gradientTransform="matrix(0.438442,0.000000,0.000000,0.306080,131.0042,-1.554344)"
       x1="-97.605846"
       y1="333.24545"
       x2="-354.68715"
       y2="273.19490" />
    <linearGradient
       inkscape:collect="always"
       xlink:href="#linearGradient1678"
       id="linearGradient4086"
       gradientUnits="userSpaceOnUse"
       gradientTransform="matrix(0.227108,0.000000,0.000000,0.590900,131.0042,-1.554344)"
       x1="-511.18008"
       y1="95.737396"
       x2="-516.50783"
       y2="150.08051" />
    <linearGradient
       inkscape:collect="always"
       xlink:href="#linearGradient1544"
       id="linearGradient4088"
       gradientUnits="userSpaceOnUse"
       gradientTransform="matrix(0.346407,0.000000,0.000000,0.387400,131.0042,-1.554344)"
       x1="-250.38893"
       y1="215.98548"
       x2="-250.38893"
       y2="141.54056" />
    <linearGradient
       inkscape:collect="always"
       xlink:href="#linearGradient1539"
       id="linearGradient4090"
       gradientUnits="userSpaceOnUse"
       gradientTransform="matrix(0.498808,0.000000,0.000000,0.269038,131.0042,-1.554344)"
       x1="-209.76400"
       y1="117.21825"
       x2="-218.76357"
       y2="24.933253" />
    <linearGradient
       inkscape:collect="always"
       xlink:href="#linearGradient1678"
       id="linearGradient4092"
       gradientUnits="userSpaceOnUse"
       gradientTransform="matrix(0.192922,0.000000,0.000000,0.695609,131.0042,-1.554344)"
       x1="-115.19077"
       y1="99.348434"
       x2="-109.04087"
       y2="52.683737" />
    <linearGradient
       inkscape:collect="always"
       xlink:href="#linearGradient1678"
       id="linearGradient4094"
       gradientUnits="userSpaceOnUse"
       gradientTransform="matrix(0.250709,0.000000,0.000000,0.535276,131.0042,-1.554344)"
       x1="-64.019714"
       y1="152.51250"
       x2="-15.264827"
       y2="39.126918" />
    <linearGradient
       inkscape:collect="always"
       xlink:href="#linearGradient1678"
       id="linearGradient4096"
       gradientUnits="userSpaceOnUse"
       gradientTransform="matrix(0.420812,0.000000,0.000000,0.318902,131.0042,-1.554344)"
       x1="-139.41411"
       y1="308.24659"
       x2="-4.5985274"
       y2="251.78520" />
    <linearGradient
       inkscape:collect="always"
       xlink:href="#linearGradient865"
       id="linearGradient4098"
       gradientUnits="userSpaceOnUse"
       gradientTransform="matrix(0.452546,0.000000,0.000000,0.296541,131.0042,-1.554344)"
       x1="-120.33224"
       y1="137.42605"
       x2="-190.29474"
       y2="149.39012" />
    <linearGradient
       inkscape:collect="always"
       xlink:href="#linearGradient1678"
       id="linearGradient4100"
       gradientUnits="userSpaceOnUse"
       gradientTransform="matrix(0.181491,0.000000,0.000000,0.739421,131.0042,-1.554344)"
       x1="-521.60407"
       y1="88.589658"
       x2="-495.59815"
       y2="145.10028" />
    <linearGradient
       inkscape:collect="always"
       xlink:href="#linearGradient1715"
       id="linearGradient4102"
       gradientUnits="userSpaceOnUse"
       gradientTransform="matrix(0.446197,0.000000,0.000000,0.300761,401.0116,84.93240)"
       x1="-679.00317"
       y1="-206.01076"
       x2="-695.83514"
       y2="-248.15047" />
    <linearGradient
       inkscape:collect="always"
       xlink:href="#linearGradient1678"
       id="linearGradient4104"
       gradientUnits="userSpaceOnUse"
       x1="-1040.0103"
       y1="179.49951"
       x2="-1030.6890"
       y2="331.24954" />
    <linearGradient
       inkscape:collect="always"
       xlink:href="#linearGradient3274"
       id="linearGradient4106"
       gradientUnits="userSpaceOnUse"
       x1="142.74911"
       y1="22.612898"
       x2="173.70050"
       y2="62.130428" />
    <linearGradient
       inkscape:collect="always"
       xlink:href="#linearGradient3274"
       id="linearGradient4108"
       gradientUnits="userSpaceOnUse"
       x1="109.66999"
       y1="120.74631"
       x2="166.86958"
       y2="70.913040" />
    <linearGradient
       inkscape:collect="always"
       xlink:href="#linearGradient3274"
       id="linearGradient4110"
       gradientUnits="userSpaceOnUse"
       x1="188.36426"
       y1="148.95197"
       x2="212.24640"
       y2="106.53140" />
  </defs>
  <sodipodi:namedview
     id="base"
     pagecolor="#ffffff"
     bordercolor="#666666"
     borderopacity="1.0"
     inkscape:pageopacity="0.0"
     inkscape:pageshadow="2"
     inkscape:zoom="2.0495048"
     inkscape:cx="117.43343"
     inkscape:cy="50.753959"
     inkscape:document-units="px"
     inkscape:current-layer="layer1"
     showguides="true"
     inkscape:guide-bbox="true"
     inkscape:window-width="772"
     inkscape:window-height="543"
     inkscape:window-x="346"
     inkscape:window-y="146" />
  <metadata
     id="metadata7">
    <rdf:RDF>
      <cc:Work
         rdf:about="">
        <dc:format>image/svg+xml</dc:format>
        <dc:type
           rdf:resource="http://purl.org/dc/dcmitype/StillImage" />
      </cc:Work>
    </rdf:RDF>
  </metadata>
  <g
     inkscape:label="Layer 1"
     inkscape:groupmode="layer"
     id="layer1">
    <path
       sodipodi:type="arc"
       style="fill:url(#radialGradient1707);fill-opacity:1.0000000;stroke:none;stroke-width:2.0000000;stroke-linecap:round;stroke-linejoin:round;stroke-miterlimit:4.0000000;stroke-dasharray:none;stroke-opacity:1.0000000"
       id="path1673"
       sodipodi:cx="237.54178"
       sodipodi:cy="146.63072"
       sodipodi:rx="34.673855"
       sodipodi:ry="4.8301888"
       d="M 272.21563 146.63072 A 34.673855 4.8301888 0 1 1  202.86792,146.63072 A 34.673855 4.8301888 0 1 1  272.21563 146.63072 z"
       transform="matrix(1.805667,0.000000,0.000000,1.805667,-364.5155,-151.4312)" />
    <path
       sodipodi:type="arc"
       style="fill:url(#radialGradient3295);fill-opacity:1.0000000;stroke:#468ba7;stroke-width:2.0000000;stroke-linecap:round;stroke-linejoin:round;stroke-miterlimit:4.0000000;stroke-dasharray:none;stroke-opacity:1.0000000"
       id="path1677"
       sodipodi:cx="161.99036"
       sodipodi:cy="125.07246"
       sodipodi:rx="38.545895"
       sodipodi:ry="38.545895"
       d="M 200.53625 125.07246 A 38.545895 38.545895 0 1 1  123.44446,125.07246 A 38.545895 38.545895 0 1 1  200.53625 125.07246 z"
       transform="matrix(1.351426,0.000000,0.000000,1.264783,-155.0396,-93.23973)" />
    <path
       style="fill:#485a79;fill-opacity:1.0000000"
       d="M 65.553978,17.581691 C 61.448920,17.581686 57.370749,17.790930 54.832830,18.268215 C 44.166502,20.274121 35.498488,24.666697 27.352835,32.209901 C 25.494208,33.931063 29.216843,34.116523 30.490236,33.895528 C 31.312338,33.752862 31.029282,34.414675 31.754149,33.899807 C 33.602773,32.586708 35.137517,32.924115 38.073983,35.378468 C 40.228288,37.179061 40.470844,37.587467 41.121046,40.025695 C 41.730928,42.312807 41.776233,43.229670 41.403182,46.415625 L 40.951765,50.112295 L 43.208849,54.020192 C 45.406201,57.844017 45.473986,57.914456 46.538047,57.558414 L 47.610162,57.188758 L 46.425193,54.917952 L 45.183797,52.594329 L 47.892298,54.917952 C 51.094738,57.664281 52.217484,58.240704 57.146341,59.406749 C 60.791766,60.269172 60.926288,60.300789 62.224779,62.100028 C 62.954829,63.111581 63.522602,64.089187 63.522602,64.212406 C 63.522621,64.335624 61.966533,66.177694 60.024123,68.331547 L 56.469216,72.239444 L 58.274883,73.823718 C 59.267693,74.688525 61.120885,76.264908 62.394061,77.309143 L 64.707571,79.210276 L 65.553978,85.283366 C 66.022729,88.627190 66.601626,92.103352 66.851801,93.046344 C 67.330303,94.849772 69.896119,100.95027 72.043094,105.40375 L 73.340917,108.04421 L 74.187323,107.25207 C 74.832867,106.64793 75.185261,105.50153 75.598001,102.71047 C 75.898554,100.67825 76.528659,97.646822 77.008678,95.950867 L 77.855084,92.887914 L 84.908471,86.233923 L 91.905431,79.579950 L 92.187566,74.615864 L 92.469702,69.598963 L 89.591920,67.645015 L 86.714138,65.691066 L 77.234386,64.687693 C 68.196806,63.724496 67.714025,63.617493 66.061822,62.522500 C 64.406133,61.425142 64.368991,61.315791 64.369009,59.406749 C 64.369027,57.681651 64.156897,57.168697 62.901904,55.762895 L 61.434800,54.125805 L 63.296894,52.435900 C 65.035300,50.809012 65.161047,50.765008 66.231103,51.221282 C 67.233826,51.648864 67.428405,51.607568 68.036770,50.904441 C 68.605537,50.247088 69.187774,50.112295 71.422396,50.112295 C 73.212606,50.112295 74.186836,50.271284 74.300177,50.587583 C 74.393892,50.848971 74.677778,51.758432 74.920875,52.647145 C 75.332423,54.151807 75.435184,54.284235 76.726542,54.284235 L 78.137220,54.284235 L 77.516522,52.488715 C 77.194499,51.495418 76.954634,50.545294 76.952251,50.376338 C 76.949831,50.207382 78.666623,49.291601 80.789293,48.369574 C 82.911981,47.447564 84.682763,46.590233 84.682763,46.468441 C 84.682781,46.346667 84.388313,45.791460 84.062065,45.201025 C 83.342976,43.899537 83.577821,43.616733 85.416315,43.616733 C 86.811752,43.616733 86.823706,43.632623 86.093440,42.877403 C 85.370668,42.129929 85.357468,42.081031 86.488430,40.976270 L 87.673399,39.814450 L 86.883419,38.388605 C 86.453959,37.604169 85.982482,36.365084 85.867732,35.589713 L 85.698450,34.163850 L 82.820669,35.853755 C 81.256636,36.797451 79.777921,38.035760 79.491470,38.547034 C 78.963042,39.490278 78.260655,39.646613 76.613688,39.233549 C 75.910164,39.057099 75.710873,38.733144 75.710855,37.807704 C 75.710873,36.834973 76.210140,36.108409 78.306501,34.163850 L 80.902147,31.787429 L 79.999314,29.622236 L 79.152907,27.457055 L 74.864448,27.193007 L 70.632416,26.928957 L 68.318905,29.094151 L 66.005395,31.206528 L 63.184040,30.731241 L 60.362685,30.255953 L 63.014759,25.027819 L 65.666832,19.799688 C 65.666832,19.799688 66.583100,18.529130 65.553978,17.581691 z "
       id="path1679"
       sodipodi:nodetypes="cssssssccccccccsssccccccscccscccccccccsscccssssscccssssssccccccsssccccccccccccc" />
    <path
       sodipodi:type="arc"
       style="fill:url(#linearGradient3297);fill-opacity:1.0000000;stroke:none;stroke-width:2.0000000;stroke-linecap:round;stroke-linejoin:round;stroke-miterlimit:4.0000000;stroke-dasharray:none;stroke-opacity:1.0000000"
       id="path1681"
       sodipodi:cx="234.35040"
       sodipodi:cy="107.81671"
       sodipodi:rx="22.167116"
       sodipodi:ry="11.730458"
       d="M 256.51752 107.81671 A 22.167116 11.730458 0 1 1  212.18329,107.81671 A 22.167116 11.730458 0 1 1  256.51752 107.81671 z"
       transform="matrix(1.700277,0.000000,0.000000,1.805667,-334.3665,-154.5461)" />
    <path
       sodipodi:type="arc"
       style="fill:none;fill-opacity:1.0;stroke:url(#linearGradient4036);stroke-width:2.4197245;stroke-linecap:round;stroke-linejoin:round;stroke-miterlimit:4.0000000;stroke-dasharray:none;stroke-opacity:1.0000000"
       id="path3302"
       sodipodi:cx="161.99036"
       sodipodi:cy="125.07246"
       sodipodi:rx="38.545895"
       sodipodi:ry="38.545895"
       d="M 200.53625 125.07246 A 38.545895 38.545895 0 1 1  123.44446,125.07246 A 38.545895 38.545895 0 1 1  200.53625 125.07246 z"
       transform="matrix(1.281573,0.000000,0.000000,1.199409,-143.7242,-85.06322)" />
    <g
       id="g4038"
       transform="translate(-128.0000,-1.463768)">
      <path
         id="path919"
         d="M 209.19341,27.419985 C 207.07296,27.263062 204.95194,27.234475 202.88091,27.482485 C 206.74155,29.235764 211.81017,29.492806 214.31841,33.263735 C 214.19530,34.285608 209.99240,33.930647 208.47466,34.951235 C 207.45632,35.808089 213.20452,36.899141 214.91216,37.857485 C 222.25495,40.789846 229.22592,46.377893 230.63092,54.044985 C 228.78773,53.374927 224.91563,49.808113 226.38092,53.732485 C 227.11286,59.672060 228.66286,65.747690 227.00592,71.669977 C 226.24800,69.152110 224.93814,66.851210 222.91216,65.013730 C 223.54676,71.751207 223.77361,78.736507 220.94341,85.107480 C 220.58118,86.446600 217.57552,92.174270 218.25591,88.388730 C 218.10239,86.701910 219.77535,80.233547 217.53716,84.201230 C 212.51337,91.758830 203.33031,96.986450 193.72466,97.169980 C 187.42068,96.676300 181.25501,94.185880 176.66216,90.107480 C 182.69990,91.023990 188.30739,88.429790 193.16216,85.388730 C 195.38576,84.069570 197.66417,82.813780 200.31841,82.607480 C 203.11672,81.295310 200.67078,78.542447 198.69341,77.857477 C 195.41097,75.351597 190.33857,74.865567 187.00591,77.544977 C 184.05655,79.679017 179.76048,79.022257 176.41216,78.357477 C 173.50673,76.204367 170.68904,73.585047 168.81841,70.607477 C 169.04541,69.870687 169.45269,69.150060 169.78716,68.419980 C 171.04054,67.155920 173.16497,66.764490 175.06841,67.451230 C 177.10669,66.941030 180.73492,71.316427 180.25591,67.982480 C 180.62466,65.160560 179.77364,62.416380 178.56841,59.857480 C 181.32867,57.088870 185.85663,55.884980 187.78716,52.513735 C 188.33711,49.729944 184.03031,50.384510 182.19341,49.794985 C 178.72852,49.158026 174.95595,46.948740 173.75591,43.951235 C 174.55823,38.863763 178.55340,34.898273 183.28716,32.544985 C 177.87903,32.541223 172.46439,34.044246 168.44341,37.513735 C 166.55887,40.283910 163.28584,38.316429 160.47466,38.669985 C 158.07414,38.602043 155.69268,39.111214 153.41216,39.763735 C 152.91962,39.388926 152.33818,39.101916 151.69341,38.919985 C 149.18396,36.319110 147.93722,33.075693 146.91216,29.669985 C 143.29533,34.261833 141.86451,39.018379 141.72466,43.576235 C 141.49008,44.310117 141.36970,45.105715 141.47466,45.982485 C 142.58271,49.273251 138.34504,50.851547 137.44341,53.732485 C 135.21557,57.020220 134.71007,60.932520 134.13091,64.701230 C 136.85529,62.247670 138.00478,61.589590 136.47466,65.419980 C 134.83837,72.719147 135.16313,80.452657 138.03716,87.451230 C 142.54372,99.005970 152.26218,108.52819 163.59966,114.60748 C 172.97985,119.72119 183.98189,122.11321 194.81841,121.54498 C 195.46191,121.52495 196.09844,121.52954 196.72466,121.48248 C 198.96967,121.28991 201.20843,120.97551 203.41216,120.51373 C 203.68864,120.44798 203.95235,120.36551 204.22466,120.29498 C 205.75708,119.94902 207.29030,119.58807 208.78716,119.10748 C 225.50444,112.54581 238.40473,98.665180 244.00592,82.701230 C 246.91611,74.933067 248.30394,66.581950 247.31842,58.357480 C 247.63246,53.584655 244.79148,63.654790 244.84967,59.669980 C 244.10913,51.870714 241.91783,43.782216 236.56842,37.607485 C 234.94892,36.880050 237.60968,41.536723 237.28717,43.138735 C 237.11054,47.791770 236.52811,42.993783 235.25592,41.201235 C 231.61232,34.021959 223.64821,29.637386 215.47466,28.232485 C 213.42429,27.881667 211.31387,27.576908 209.19341,27.419985 z "
         style="fill:url(#linearGradient4066);fill-rule:evenodd;stroke:#804922;stroke-width:5.0000000;stroke-linecap:round;stroke-linejoin:round;stroke-miterlimit:4.0000000;stroke-dasharray:none;stroke-opacity:1.0000000" />
      <g
         transform="matrix(0.935512,0.000000,0.000000,0.870300,130.6510,18.66515)"
         id="g2124">
        <path
           style="fill:url(#linearGradient4068);fill-rule:evenodd;stroke:none;stroke-width:3.4625001;stroke-miterlimit:4.0000000;stroke-dasharray:none;stroke-opacity:1.0000000"
           d="M 52.421009,57.654338 C 50.363446,55.551536 43.471452,54.671148 42.352757,55.603401 C 41.234064,56.535645 38.996672,59.332380 40.674717,61.010422 C 42.352757,62.688464 47.309654,69.071036 49.064928,69.400632 C 50.820202,69.730229 56.255333,70.268894 58.760281,69.214185 C 63.033530,65.405916 67.834138,64.761804 72.371065,68.468388 C 73.435150,69.381782 75.317523,69.942958 75.299643,71.538174 C 75.285458,72.803832 73.495474,73.719123 70.879472,73.688961 C 67.274791,75.802055 63.670107,77.915141 60.065426,80.028235 C 56.165072,81.711991 52.528403,82.209184 47.573335,81.519822 C 53.108316,87.256556 62.200915,91.596276 70.506577,90.555987 C 78.942026,89.499436 88.036676,84.348778 93.439818,75.180556 C 93.213174,78.078284 92.986530,80.976011 92.759886,83.873739 C 98.784745,76.520132 100.52127,66.183344 99.088176,54.727856 C 101.33882,56.541615 101.91142,60.219872 103.04336,62.779429 C 105.47786,55.526972 103.62404,46.782911 102.51600,38.784650 C 104.18597,39.751474 105.85593,40.718291 107.52590,41.685120 C 105.85625,28.620741 93.186099,22.082087 83.685584,19.085963 C 85.510009,17.999260 87.707329,18.217700 90.650453,17.690341 C 88.373315,14.944332 87.587764,12.384775 78.412004,10.384561 C 92.525608,10.200384 109.99530,14.304539 113.85420,33.511072 C 114.70921,29.819570 114.63198,26.314513 113.06316,22.436560 C 119.31971,30.261621 121.47438,42.002115 121.76456,50.386519 C 122.55560,48.804449 123.34663,47.222371 124.13767,45.640300 C 126.83219,63.815116 117.22107,99.516143 84.117363,114.70777 C 64.167306,121.85499 43.502527,116.88301 27.996175,105.01242 C 12.489826,93.141819 -0.35917030,72.408270 8.1553404,48.418479 C 6.7880472,49.288575 5.6844279,50.817871 4.3171346,51.687966 C 4.8179895,45.450370 6.9009247,39.740144 12.147998,34.161748 C 11.091453,27.325282 12.085851,19.743017 17.368576,12.533648 C 18.673718,17.194878 20.165314,21.669657 24.080743,24.839291 C 28.804121,23.285550 32.408806,23.036951 38.250878,24.093497 C 42.601357,19.805165 48.256982,16.262632 54.285505,16.635532 C 49.426628,18.918161 45.865131,24.684831 45.335944,29.686969 C 51.799514,39.305097 60.614962,35.164965 60.624773,38.263633 C 60.634583,40.989399 54.534105,43.235607 50.556521,47.213190 C 51.923811,49.450574 52.854229,53.266158 52.421009,57.654338 z "
           id="path1684"
           sodipodi:nodetypes="czczcczccczcccccccccccccczcccccccczcc" />
        <path
           style="fill:url(#linearGradient4070);fill-rule:evenodd;stroke:none;stroke-width:2.3477199;stroke-miterlimit:4.0000000"
           d="M 77.195127,10.029084 C 81.321888,12.043654 86.732563,12.329193 89.413705,16.662100 C 89.282108,17.836266 84.783148,17.438138 83.160787,18.610824 C 82.072249,19.595372 88.219836,20.857096 90.045193,21.958261 C 97.894143,25.327628 105.35742,31.718735 106.85927,40.528446 C 104.88903,39.758526 100.74296,35.664081 102.30925,40.173299 C 103.09165,46.998043 104.75065,53.984624 102.97949,60.789515 C 102.16933,57.896404 100.78037,55.249046 98.614739,53.137724 C 99.293085,60.879283 99.525552,68.895759 96.500261,76.216189 C 96.113063,77.754875 92.895425,84.363415 93.622721,80.013714 C 93.458615,78.075509 95.233872,70.625907 92.841399,75.184894 C 87.471302,83.868787 77.682652,89.865561 67.414854,90.076448 C 60.676318,89.509184 54.083961,86.679778 49.174509,81.993578 C 55.628451,83.046670 61.621163,80.057098 66.810593,76.562832 C 69.187469,75.047070 71.609747,73.581951 74.446952,73.344906 C 77.438148,71.837182 74.836285,68.689489 72.722606,67.902438 C 69.213891,65.023103 63.796244,64.475102 60.233860,67.553820 C 57.081184,70.005893 52.475268,69.253076 48.896142,68.489221 C 45.745432,65.979383 42.685673,62.898535 40.687495,59.415424 C 41.046261,56.018490 44.565936,54.835558 47.471200,55.962288 C 49.649984,55.376049 53.519120,60.394823 53.007098,56.564011 C 53.401270,53.321536 52.483534,50.177482 51.195226,47.237233 C 54.145753,44.056014 58.987533,42.656528 61.051146,38.782867 C 61.639002,35.584212 57.041856,36.343470 55.078338,35.666089 C 51.374594,34.934205 47.342836,32.390136 46.060077,28.945915 C 46.917699,23.100259 51.173478,18.525805 56.233550,15.821808 C 50.452611,15.817487 44.670235,17.554745 40.372079,21.541289 C 38.357626,24.724299 34.852281,22.471220 31.847320,22.877466 C 29.281323,22.799402 26.743935,23.397400 24.306210,24.147165 C 20.353139,20.913568 10.742147,24.076684 11.544857,31.284685 C 12.729281,35.065867 8.2148285,36.866306 7.2510468,40.176587 C 4.8696348,43.954290 4.3139704,48.457113 3.6948898,52.787474 C 6.6070675,49.968258 7.8335015,49.198900 6.1979009,53.600139 C 4.4488177,61.987100 4.8163767,70.901167 7.8885245,78.942728 C 12.705744,92.219470 23.068364,103.13278 35.187376,110.11806 C 49.596407,118.56190 67.638841,120.76336 83.505472,115.28740 C 101.37513,107.74784 115.16719,91.824405 121.15448,73.481362 C 124.26528,64.555519 125.74893,54.936092 124.69547,45.485942 C 125.03116,40.001823 121.99484,51.598742 122.05704,47.020089 C 121.26546,38.058500 118.90370,28.767157 113.18553,21.672212 C 111.45440,20.836369 114.31694,26.159242 113.97219,28.000000 C 113.78339,33.346472 113.15206,27.833401 111.79217,25.773711 C 107.89741,17.524516 99.404099,12.482721 90.667120,10.868449 C 86.283705,10.062249 81.622707,9.4591413 77.195127,10.029084 z "
           id="path976"
           sodipodi:nodetypes="cccccccccccccccccccccccccccccccccccccccccccc" />
        <path
           style="fill:url(#linearGradient4072);fill-rule:evenodd;stroke-width:1.0000000pt"
           d="M 45.335944,29.686969 C 51.799514,39.305097 60.614962,35.164965 60.624773,38.263633 C 60.634583,40.989399 54.534105,43.235607 50.556521,47.213190 C 48.659345,43.980378 43.230285,44.264593 45.335944,29.686969 z "
           id="path1528"
           sodipodi:nodetypes="czcc" />
        <path
           style="fill:#d4732b;fill-opacity:1.0000000;fill-rule:evenodd;stroke:none;stroke-width:1.0000000pt;stroke-opacity:1.0000000"
           d="M 40.882690,63.623918 C 42.393027,64.980988 47.543940,69.518799 49.266275,69.785350 C 50.988609,70.051903 56.369906,70.487533 58.980261,69.634567 C 63.634108,66.554734 68.499088,66.033827 72.665580,69.031425 C 73.638381,69.770106 75.464670,70.223941 75.287364,71.514028 C 75.146689,72.537594 73.265231,73.277811 70.652244,73.253418 C 66.836380,74.962325 63.020515,76.671225 59.204652,78.380131 C 55.136023,79.741822 51.449665,80.143913 46.563492,79.586410 C 41.493598,76.384990 38.041017,65.572111 40.882690,63.623918 z "
           id="path1529"
           sodipodi:nodetypes="czcczcccc" />
        <path
           style="fill:url(#linearGradient4074);fill-rule:evenodd;stroke-width:1.0000000pt"
           d="M 12.744173,33.924673 C 12.744173,33.924673 4.3064487,42.362402 4.4382912,50.931962 C 8.1297962,42.098717 9.8437083,40.912162 16.831198,37.220659 C 25.400761,34.583871 12.744173,33.924673 12.744173,33.924673 z "
           id="path1530"
           sodipodi:nodetypes="cccc" />
        <path
           style="fill:url(#linearGradient4076);fill-rule:evenodd;stroke-width:1.0000000pt"
           d="M 21.313739,43.680795 C 19.094442,46.625210 17.578290,52.953500 17.490395,58.974169 C 19.336146,55.018989 23.357250,44.801431 26.257719,44.933269 C 27.180594,42.428321 23.533038,40.736380 21.313739,43.680795 z "
           id="path1531"
           sodipodi:nodetypes="cccz" />
        <path
           style="fill:url(#linearGradient4078);fill-opacity:0.75000000;fill-rule:evenodd;stroke-width:1.0000000pt"
           d="M 19.270225,37.484337 C 19.270225,37.484337 14.721766,41.307678 14.655845,47.042694 C 18.874709,40.252969 21.247818,38.670893 22.302532,38.604972 C 26.653235,38.604972 19.270225,37.484337 19.270225,37.484337 z "
           id="path1532"
           sodipodi:nodetypes="cccc" />
        <path
           style="fill:url(#linearGradient4080);fill-rule:evenodd;stroke-width:1.0000000pt"
           d="M 41.974697,72.868025 C 43.492120,77.090303 44.802508,79.347129 47.568170,81.444683 C 61.520778,82.889668 63.696017,76.208570 70.874310,73.707043 C 71.526882,71.951312 70.066368,72.277605 69.196270,72.495123 C 68.299932,72.719210 61.880712,76.484056 55.585482,76.597004 C 49.476698,76.709953 43.149835,72.157807 41.974697,72.868025 z "
           id="path1534"
           sodipodi:nodetypes="ccczzc" />
        <path
           style="fill:url(#linearGradient4082);fill-rule:evenodd;stroke-width:1.0000000pt"
           d="M 63.043447,67.740671 C 63.602793,67.554216 67.331778,65.689735 70.035289,67.460997 C 72.738803,69.232266 77.027130,70.723861 74.976190,71.656106 C 72.925250,72.588350 70.967535,72.681570 69.942065,70.537414 C 68.916595,68.393249 63.602793,71.376431 62.390876,70.164511 C 61.178955,68.952591 62.484100,67.927127 63.043447,67.740671 z "
           id="path1535"
           sodipodi:nodetypes="cccccz" />
        <path
           style="fill:url(#linearGradient4084);fill-rule:evenodd;stroke-width:0.75000000"
           d="M 5.0963826,50.587355 C 5.8622119,48.239455 7.9464366,46.155224 10.162500,44.730202 C 9.8988186,48.158028 10.185121,66.249077 13.541202,74.825743 C 16.897287,83.402401 18.912360,86.313848 22.863659,89.368772 C 19.827473,85.436205 19.375736,83.711312 18.980215,81.601887 C 20.694131,84.766036 40.217554,97.530822 46.043453,99.414404 C 52.427963,101.47859 69.248736,105.06358 82.749701,97.304971 C 96.645175,89.319651 107.57554,75.963177 109.50789,72.366028 C 111.30841,75.888217 110.49087,93.956653 106.38898,97.685639 C 102.28711,101.41462 87.002156,121.81092 60.153485,117.70904 C 33.304811,113.60716 19.138558,98.559389 13.586444,88.995869 C 8.0008038,79.374608 2.3051356,66.987785 8.3206289,49.468663 C 9.5899028,45.528999 8.1286898,49.532639 5.0963826,50.587355 z "
           id="path1694"
           sodipodi:nodetypes="ccccczzccczcc" />
        <path
           style="fill:url(#linearGradient4086);fill-rule:evenodd;stroke-width:1.0000000pt"
           d="M 19.507574,51.519600 C 18.217452,54.162831 14.151107,58.325470 19.006547,72.685465 C 15.658225,68.400548 14.062569,60.819917 14.062569,60.819917 C 14.062569,60.819917 10.371569,70.257739 12.236061,80.605659 C 9.2528713,70.723861 8.9731997,64.943937 10.651244,57.206296 C 12.329285,49.468663 7.5748306,63.638790 7.6680581,66.528752 C 6.5493607,63.359115 7.2951590,49.468656 9.9986699,49.561883 C 14.753121,50.400908 19.600802,45.553229 19.507574,51.519600 z "
           id="path1533"
           sodipodi:nodetypes="cccccccc" />
        <path
           style="fill:url(#linearGradient4088);fill-rule:evenodd;stroke-width:1.0000000pt"
           d="M 42.440820,55.435034 C 42.440820,55.435034 35.915098,54.316335 32.745464,56.367279 C 29.706064,58.333944 24.541704,62.147195 28.084237,70.910308 C 31.626770,79.673414 50.271680,88.995869 57.170298,88.995869 C 41.135674,78.741169 36.660896,66.621979 42.440820,55.435034 z "
           id="path1536"
           sodipodi:nodetypes="czccc" />
        <path
           style="fill:url(#linearGradient4090);fill-rule:evenodd;stroke-width:1.0000000pt"
           d="M 12.795408,33.993381 C 12.795408,33.993381 21.185619,25.603170 26.406193,24.298026 C 31.626770,22.992883 38.525388,23.738679 38.525388,24.484476 C 38.525388,25.230272 34.237057,28.399907 35.355751,31.010194 C 36.474448,33.620483 15.219247,42.197145 12.795408,33.993381 z "
           id="path1538" />
        <path
           style="fill:url(#linearGradient4092);fill-rule:evenodd;stroke-width:1.0000000pt"
           d="M 106.08650,72.289949 C 106.08650,72.289949 114.65606,52.909556 111.75559,38.802733 C 114.26055,42.230563 119.40228,59.106008 115.18342,71.103394 C 108.32777,82.705265 104.76810,78.354570 106.08650,72.289949 z "
           id="path1682"
           sodipodi:nodetypes="cccc" />
        <path
           style="fill:url(#linearGradient4094);fill-rule:evenodd;stroke-width:1.0000000pt"
           d="M 108.72329,79.936640 C 111.49191,75.168445 119.33636,70.048678 122.43459,53.964265 C 125.13730,61.479117 117.75429,79.650987 115.44710,83.891820 C 113.13991,88.132661 105.98730,84.648617 108.72329,79.936640 z "
           id="path2269"
           sodipodi:nodetypes="cczz" />
        <path
           style="fill:url(#linearGradient4096);fill-rule:evenodd;stroke-width:1.0000000pt"
           d="M 58.661892,102.79311 C 67.797897,98.194026 87.126462,103.78750 110.49475,73.707043 C 101.42089,112.23986 75.504465,109.87817 66.865655,114.72585 C 58.226845,119.57353 49.822123,107.24306 58.661892,102.79311 z "
           id="path2857"
           sodipodi:nodetypes="cczz" />
        <path
           style="fill-opacity:0.78616351;fill-rule:evenodd;stroke-width:1.0000000pt"
           d="M 53.152961,35.902264 C 57.349852,37.462364 59.438938,36.046811 60.272293,37.352498 C 61.087115,38.629153 59.876776,41.044008 58.492460,40.714404 C 57.437746,37.418419 52.845338,36.517516 53.152961,35.902264 z "
           id="path3445"
           sodipodi:nodetypes="czcc" />
        <path
           style="fill:url(#linearGradient4098);fill-rule:evenodd;stroke-width:1.0000000pt"
           d="M 48.010580,44.010391 C 48.010580,44.010391 58.654583,38.473133 59.488151,39.132331 C 60.321718,39.791529 58.782829,40.648485 58.590464,40.912162 C 58.398104,41.175839 50.703643,45.592462 50.767762,46.581259 C 50.831884,47.570056 47.689979,44.471834 48.010580,44.010391 z "
           id="path4031" />
        <path
           style="fill:url(#linearGradient4100);fill-rule:evenodd;stroke-width:1.0000000pt"
           d="M 33.938336,58.179251 C 33.586764,61.343400 33.546695,68.028120 39.371861,78.469268 C 36.620362,66.536525 39.124020,61.343400 38.684555,58.179251 C 38.245090,55.015110 34.289908,55.015110 33.938336,58.179251 z "
           id="path5788"
           sodipodi:nodetypes="cczz" />
        <path
           style="fill:url(#linearGradient4102);fill-opacity:1.0000000;fill-rule:evenodd;stroke-width:1.0000000pt"
           d="M 84.728803,11.512034 C 91.716294,11.643876 105.16392,16.126414 109.38279,24.300461 C 113.60164,32.474507 102.39529,26.937248 102.39529,26.937248 C 99.231146,27.991962 100.28585,15.467216 84.728803,11.512034 z "
           id="path7624"
           sodipodi:nodetypes="cccc" />
        <path
           sodipodi:type="arc"
           style="fill:url(#linearGradient4104);fill-opacity:1.0000000;fill-rule:evenodd;stroke-width:1.0000000pt"
           id="path1579"
           sodipodi:cx="-1072.8956"
           sodipodi:cy="166.76524"
           sodipodi:rx="79.398346"
           sodipodi:ry="79.398346"
           d="M -993.49728 166.76524 A 79.398346 79.398346 0 1 1  -1152.2940,166.76524 A 79.398346 79.398346 0 1 1  -993.49728 166.76524 z"
           transform="matrix(0.523244,0.000000,0.000000,0.371891,625.5176,23.65486)" />
      </g>
      <path
         id="path2544"
         d="M 209.19341,27.419985 C 207.07296,27.263062 204.95194,27.234475 202.88091,27.482485 C 206.74155,29.235764 211.81017,29.492806 214.31841,33.263735 C 214.19530,34.285608 209.99240,33.930647 208.47466,34.951235 C 207.45632,35.808089 213.20452,36.899141 214.91216,37.857485 C 222.25495,40.789846 229.22592,46.377893 230.63092,54.044985 C 228.78773,53.374927 224.91563,49.808113 226.38092,53.732485 C 227.11286,59.672060 228.66286,65.747690 227.00592,71.669977 C 226.24800,69.152110 224.93814,66.851210 222.91216,65.013730 C 223.54676,71.751207 223.77361,78.736507 220.94341,85.107480 C 220.58118,86.446600 217.57552,92.174270 218.25591,88.388730 C 218.10239,86.701910 219.77535,80.233547 217.53716,84.201230 C 212.51337,91.758830 203.33031,96.986450 193.72466,97.169980 C 187.42068,96.676300 181.25501,94.185880 176.66216,90.107480 C 182.69990,91.023990 188.30739,88.429790 193.16216,85.388730 C 195.38576,84.069570 197.66417,82.813780 200.31841,82.607480 C 203.11672,81.295310 200.67078,78.542447 198.69341,77.857477 C 195.41097,75.351597 190.33857,74.865567 187.00591,77.544977 C 184.05655,79.679017 179.76048,79.022257 176.41216,78.357477 C 173.50673,76.204367 170.68904,73.585047 168.81841,70.607477 C 169.04541,69.870687 169.45269,69.150060 169.78716,68.419980 C 171.04054,67.155920 173.16497,66.764490 175.06841,67.451230 C 177.10669,66.941030 180.73492,71.316427 180.25591,67.982480 C 180.62466,65.160560 179.77364,62.416380 178.56841,59.857480 C 181.32867,57.088870 185.85663,55.884980 187.78716,52.513735 C 188.33711,49.729944 184.03031,50.384510 182.19341,49.794985 C 178.72852,49.158026 174.95595,46.948740 173.75591,43.951235 C 174.55823,38.863763 178.55340,34.898273 183.28716,32.544985 C 177.87903,32.541223 172.46439,34.044246 168.44341,37.513735 C 166.55887,40.283910 163.28584,38.316429 160.47466,38.669985 C 158.07414,38.602043 155.69268,39.111214 153.41216,39.763735 C 152.91962,39.388926 152.33818,39.101916 151.69341,38.919985 C 149.18396,36.319110 147.93722,33.075693 146.91216,29.669985 C 143.29533,34.261833 141.86451,39.018379 141.72466,43.576235 C 141.49008,44.310117 141.36970,45.105715 141.47466,45.982485 C 142.58271,49.273251 138.34504,50.851547 137.44341,53.732485 C 135.21557,57.020220 134.71007,60.932520 134.13091,64.701230 C 136.85529,62.247670 138.00478,61.589590 136.47466,65.419980 C 134.83837,72.719147 135.16313,80.452657 138.03716,87.451230 C 142.54372,99.005970 152.26218,108.52819 163.59966,114.60748 C 172.97985,119.72119 183.98189,122.11321 194.81841,121.54498 C 195.46191,121.52495 196.09844,121.52954 196.72466,121.48248 C 198.96967,121.28991 201.20843,120.97551 203.41216,120.51373 C 203.68864,120.44798 203.95235,120.36551 204.22466,120.29498 C 205.75708,119.94902 207.29030,119.58807 208.78716,119.10748 C 225.50444,112.54581 238.40473,98.665180 244.00592,82.701230 C 246.91611,74.933067 248.30394,66.581950 247.31842,58.357480 C 247.63246,53.584655 244.79148,63.654790 244.84967,59.669980 C 244.10913,51.870714 241.91783,43.782216 236.56842,37.607485 C 234.94892,36.880050 237.60968,41.536723 237.28717,43.138735 C 237.11054,47.791770 236.52811,42.993783 235.25592,41.201235 C 231.61232,34.021959 223.64821,29.637386 215.47466,28.232485 C 213.42429,27.881667 211.31387,27.576908 209.19341,27.419985 z "
         style="fill:none;fill-opacity:1.0000000;fill-rule:evenodd;stroke:url(#linearGradient4106);stroke-width:2.0000000;stroke-linecap:round;stroke-linejoin:round;stroke-miterlimit:4.0000000;stroke-dasharray:none;stroke-opacity:1.0000000" />
      <path
         id="path3282"
         d="M 209.19341,27.419985 C 207.07296,27.263062 204.95194,27.234475 202.88091,27.482485 C 206.74155,29.235764 211.81017,29.492806 214.31841,33.263735 C 214.19530,34.285608 209.99240,33.930647 208.47466,34.951235 C 207.45632,35.808089 213.20452,36.899141 214.91216,37.857485 C 222.25495,40.789846 229.22592,46.377893 230.63092,54.044985 C 228.78773,53.374927 224.91563,49.808113 226.38092,53.732485 C 227.11286,59.672060 228.66286,65.747690 227.00592,71.669977 C 226.24800,69.152110 224.93814,66.851210 222.91216,65.013730 C 223.54676,71.751207 223.77361,78.736507 220.94341,85.107480 C 220.58118,86.446600 217.57552,92.174270 218.25591,88.388730 C 218.10239,86.701910 219.77535,80.233547 217.53716,84.201230 C 212.51337,91.758830 203.33031,96.986450 193.72466,97.169980 C 187.42068,96.676300 181.25501,94.185880 176.66216,90.107480 C 182.69990,91.023990 188.30739,88.429790 193.16216,85.388730 C 195.38576,84.069570 197.66417,82.813780 200.31841,82.607480 C 203.11672,81.295310 200.67078,78.542447 198.69341,77.857477 C 195.41097,75.351597 190.33857,74.865567 187.00591,77.544977 C 184.05655,79.679017 179.76048,79.022257 176.41216,78.357477 C 173.50673,76.204367 170.68904,73.585047 168.81841,70.607477 C 169.04541,69.870687 169.45269,69.150060 169.78716,68.419980 C 171.04054,67.155920 173.16497,66.764490 175.06841,67.451230 C 177.10669,66.941030 180.73492,71.316427 180.25591,67.982480 C 180.62466,65.160560 179.77364,62.416380 178.56841,59.857480 C 181.32867,57.088870 185.85663,55.884980 187.78716,52.513735 C 188.33711,49.729944 184.03031,50.384510 182.19341,49.794985 C 178.72852,49.158026 174.95595,46.948740 173.75591,43.951235 C 174.55823,38.863763 178.55340,34.898273 183.28716,32.544985 C 177.87903,32.541223 172.46439,34.044246 168.44341,37.513735 C 166.55887,40.283910 163.28584,38.316429 160.47466,38.669985 C 158.07414,38.602043 155.69268,39.111214 153.41216,39.763735 C 152.91962,39.388926 152.33818,39.101916 151.69341,38.919985 C 149.18396,36.319110 147.93722,33.075693 146.91216,29.669985 C 143.29533,34.261833 141.86451,39.018379 141.72466,43.576235 C 141.49008,44.310117 141.36970,45.105715 141.47466,45.982485 C 142.58271,49.273251 138.34504,50.851547 137.44341,53.732485 C 135.21557,57.020220 134.71007,60.932520 134.13091,64.701230 C 136.85529,62.247670 138.00478,61.589590 136.47466,65.419980 C 134.83837,72.719147 135.16313,80.452657 138.03716,87.451230 C 142.54372,99.005970 152.26218,108.52819 163.59966,114.60748 C 172.97985,119.72119 183.98189,122.11321 194.81841,121.54498 C 195.46191,121.52495 196.09844,121.52954 196.72466,121.48248 C 198.96967,121.28991 201.20843,120.97551 203.41216,120.51373 C 203.68864,120.44798 203.95235,120.36551 204.22466,120.29498 C 205.75708,119.94902 207.29030,119.58807 208.78716,119.10748 C 225.50444,112.54581 238.40473,98.665180 244.00592,82.701230 C 246.91611,74.933067 248.30394,66.581950 247.31842,58.357480 C 247.63246,53.584655 244.79148,63.654790 244.84967,59.669980 C 244.10913,51.870714 241.91783,43.782216 236.56842,37.607485 C 234.94892,36.880050 237.60968,41.536723 237.28717,43.138735 C 237.11054,47.791770 236.52811,42.993783 235.25592,41.201235 C 231.61232,34.021959 223.64821,29.637386 215.47466,28.232485 C 213.42429,27.881667 211.31387,27.576908 209.19341,27.419985 z "
         style="fill:none;fill-opacity:1.0000000;fill-rule:evenodd;stroke:url(#linearGradient4108);stroke-width:2.0000000;stroke-linecap:round;stroke-linejoin:round;stroke-miterlimit:4.0000000;stroke-dasharray:none;stroke-opacity:1.0000000" />
      <path
         id="path3286"
         d="M 209.19341,27.419985 C 207.07296,27.263062 204.95194,27.234475 202.88091,27.482485 C 206.74155,29.235764 211.81017,29.492806 214.31841,33.263735 C 214.19530,34.285608 209.99240,33.930647 208.47466,34.951235 C 207.45632,35.808089 213.20452,36.899141 214.91216,37.857485 C 222.25495,40.789846 229.22592,46.377893 230.63092,54.044985 C 228.78773,53.374927 224.91563,49.808113 226.38092,53.732485 C 227.11286,59.672060 228.66286,65.747690 227.00592,71.669977 C 226.24800,69.152110 224.93814,66.851210 222.91216,65.013730 C 223.54676,71.751207 223.77361,78.736507 220.94341,85.107480 C 220.58118,86.446600 217.57552,92.174270 218.25591,88.388730 C 218.10239,86.701910 219.77535,80.233547 217.53716,84.201230 C 212.51337,91.758830 203.33031,96.986450 193.72466,97.169980 C 187.42068,96.676300 181.25501,94.185880 176.66216,90.107480 C 182.69990,91.023990 188.30739,88.429790 193.16216,85.388730 C 195.38576,84.069570 197.66417,82.813780 200.31841,82.607480 C 203.11672,81.295310 200.67078,78.542447 198.69341,77.857477 C 195.41097,75.351597 190.33857,74.865567 187.00591,77.544977 C 184.05655,79.679017 179.76048,79.022257 176.41216,78.357477 C 173.50673,76.204367 170.68904,73.585047 168.81841,70.607477 C 169.04541,69.870687 169.45269,69.150060 169.78716,68.419980 C 171.04054,67.155920 173.16497,66.764490 175.06841,67.451230 C 177.10669,66.941030 180.73492,71.316427 180.25591,67.982480 C 180.62466,65.160560 179.77364,62.416380 178.56841,59.857480 C 181.32867,57.088870 185.85663,55.884980 187.78716,52.513735 C 188.33711,49.729944 184.03031,50.384510 182.19341,49.794985 C 178.72852,49.158026 174.95595,46.948740 173.75591,43.951235 C 174.55823,38.863763 178.55340,34.898273 183.28716,32.544985 C 177.87903,32.541223 172.46439,34.044246 168.44341,37.513735 C 166.55887,40.283910 163.28584,38.316429 160.47466,38.669985 C 158.07414,38.602043 155.69268,39.111214 153.41216,39.763735 C 152.91962,39.388926 152.33818,39.101916 151.69341,38.919985 C 149.18396,36.319110 147.93722,33.075693 146.91216,29.669985 C 143.29533,34.261833 141.86451,39.018379 141.72466,43.576235 C 141.49008,44.310117 141.36970,45.105715 141.47466,45.982485 C 142.58271,49.273251 138.34504,50.851547 137.44341,53.732485 C 135.21557,57.020220 134.71007,60.932520 134.13091,64.701230 C 136.85529,62.247670 138.00478,61.589590 136.47466,65.419980 C 134.83837,72.719147 135.16313,80.452657 138.03716,87.451230 C 142.54372,99.005970 152.26218,108.52819 163.59966,114.60748 C 172.97985,119.72119 183.98189,122.11321 194.81841,121.54498 C 195.46191,121.52495 196.09844,121.52954 196.72466,121.48248 C 198.96967,121.28991 201.20843,120.97551 203.41216,120.51373 C 203.68864,120.44798 203.95235,120.36551 204.22466,120.29498 C 205.75708,119.94902 207.29030,119.58807 208.78716,119.10748 C 225.50444,112.54581 238.40473,98.665180 244.00592,82.701230 C 246.91611,74.933067 248.30394,66.581950 247.31842,58.357480 C 247.63246,53.584655 244.79148,63.654790 244.84967,59.669980 C 244.10913,51.870714 241.91783,43.782216 236.56842,37.607485 C 234.94892,36.880050 237.60968,41.536723 237.28717,43.138735 C 237.11054,47.791770 236.52811,42.993783 235.25592,41.201235 C 231.61232,34.021959 223.64821,29.637386 215.47466,28.232485 C 213.42429,27.881667 211.31387,27.576908 209.19341,27.419985 z "
         style="fill:none;fill-opacity:1.0000000;fill-rule:evenodd;stroke:url(#linearGradient4110);stroke-width:2.0000000;stroke-linecap:round;stroke-linejoin:round;stroke-miterlimit:4.0000000;stroke-dasharray:none;stroke-opacity:1.0000000" />
    </g>
  </g>
</svg>
