<?xml version="1.0" encoding="UTF-8" standalone="no"?>
<!-- Created with Inkscape (http://www.inkscape.org/) -->
<svg
   xmlns:dc="http://purl.org/dc/elements/1.1/"
   xmlns:cc="http://web.resource.org/cc/"
   xmlns:rdf="http://www.w3.org/1999/02/22-rdf-syntax-ns#"
   xmlns:svg="http://www.w3.org/2000/svg"
   xmlns="http://www.w3.org/2000/svg"
   xmlns:xlink="http://www.w3.org/1999/xlink"
   xmlns:sodipodi="http://inkscape.sourceforge.net/DTD/sodipodi-0.dtd"
   xmlns:inkscape="http://www.inkscape.org/namespaces/inkscape"
   width="128.00000px"
   height="128.00000px"
   id="svg2"
   sodipodi:version="0.32"
   inkscape:version="0.42.2"
   sodipodi:docbase="/home/silvestre/Desktop/Nuovo!/scalable/mimetypes/misc"
   sodipodi:docname="gnome-mime-application-x-executable.svg">
  <defs
     id="defs4">
    <linearGradient
       inkscape:collect="always"
       id="linearGradient2108">
      <stop
         style="stop-color:#ffffff;stop-opacity:1;"
         offset="0"
         id="stop2110" />
      <stop
         style="stop-color:#ffffff;stop-opacity:0;"
         offset="1"
         id="stop2112" />
    </linearGradient>
    <linearGradient
       inkscape:collect="always"
       id="linearGradient2098">
      <stop
         style="stop-color:#646464;stop-opacity:1.0000000"
         offset="0"
         id="stop2100" />
      <stop
         style="stop-color:#858585;stop-opacity:0;"
         offset="1"
         id="stop2102" />
    </linearGradient>
    <linearGradient
       inkscape:collect="always"
       id="linearGradient2088">
      <stop
         style="stop-color:#dadada;stop-opacity:1.0000000"
         offset="0"
         id="stop2090" />
      <stop
         style="stop-color:#c7c7c7;stop-opacity:1.0000000"
         offset="1"
         id="stop2092" />
    </linearGradient>
    <linearGradient
       inkscape:collect="always"
       xlink:href="#linearGradient2088"
       id="linearGradient2121"
       gradientUnits="userSpaceOnUse"
       x1="33.155548"
       y1="33.990944"
       x2="61.018070"
       y2="59.850849" />
    <linearGradient
       inkscape:collect="always"
       xlink:href="#linearGradient2098"
       id="linearGradient2123"
       gradientUnits="userSpaceOnUse"
       x1="62.456375"
       y1="67.985504"
       x2="41.473427"
       y2="49.932362" />
    <linearGradient
       inkscape:collect="always"
       xlink:href="#linearGradient2108"
       id="linearGradient2125"
       gradientUnits="userSpaceOnUse"
       x1="12.973133"
       y1="15.617307"
       x2="36.621933"
       y2="37.406403" />
    <linearGradient
       inkscape:collect="always"
       xlink:href="#linearGradient2088"
       id="linearGradient2150"
       gradientUnits="userSpaceOnUse"
       x1="33.155548"
       y1="33.990944"
       x2="61.018070"
       y2="59.850849" />
    <linearGradient
       inkscape:collect="always"
       xlink:href="#linearGradient2098"
       id="linearGradient2152"
       gradientUnits="userSpaceOnUse"
       x1="62.456375"
       y1="67.985504"
       x2="41.473427"
       y2="49.932362" />
    <linearGradient
       inkscape:collect="always"
       xlink:href="#linearGradient2108"
       id="linearGradient2154"
       gradientUnits="userSpaceOnUse"
       x1="12.973133"
       y1="15.617307"
       x2="36.621933"
       y2="37.406403" />
    <linearGradient
       id="linearGradient4215">
      <stop
         id="stop4216"
         offset="0.0000000"
         style="stop-color:#ffffff;stop-opacity:1.0000000;" />
      <stop
         id="stop4217"
         offset="1.0000000"
         style="stop-color:#ffffff;stop-opacity:0.0000000;" />
    </linearGradient>
    <linearGradient
       id="linearGradient4021">
      <stop
         id="stop4022"
         offset="0.0000000"
         style="stop-color:#000000;stop-opacity:1.0000000;" />
      <stop
         id="stop4023"
         offset="1.0000000"
         style="stop-color:#000000;stop-opacity:0.0000000;" />
    </linearGradient>
    <linearGradient
       inkscape:collect="always"
       xlink:href="#linearGradient4021"
       id="linearGradient2140"
       gradientUnits="userSpaceOnUse"
       gradientTransform="matrix(1.003601,7.272338e-2,-7.008894e-2,0.967246,-350.6462,-633.5339)"
       x1="669.54511"
       y1="721.82962"
       x2="635.25272"
       y2="702.53950" />
    <linearGradient
       inkscape:collect="always"
       xlink:href="#linearGradient4021"
       id="linearGradient2142"
       gradientUnits="userSpaceOnUse"
       gradientTransform="matrix(1.021754,7.403874e-2,-6.884375e-2,0.950062,-350.6462,-633.5339)"
       x1="648.31500"
       y1="764.89803"
       x2="610.28476"
       y2="743.14524" />
    <linearGradient
       inkscape:collect="always"
       xlink:href="#linearGradient4215"
       id="linearGradient2144"
       gradientUnits="userSpaceOnUse"
       gradientTransform="matrix(1.015426,7.358018e-2,-6.927283e-2,0.955983,-350.6462,-633.5339)"
       x1="622.78897"
       y1="706.90464"
       x2="604.71871"
       y2="699.02725" />
    <linearGradient
       inkscape:collect="always"
       xlink:href="#linearGradient4215"
       id="linearGradient2146"
       gradientUnits="userSpaceOnUse"
       gradientTransform="matrix(0.999243,7.240753e-2,-7.039472e-2,0.971465,-350.6462,-633.5339)"
       x1="623.41440"
       y1="721.56359"
       x2="605.99946"
       y2="712.01860" />
    <linearGradient
       inkscape:collect="always"
       xlink:href="#linearGradient4215"
       id="linearGradient2148"
       gradientUnits="userSpaceOnUse"
       gradientTransform="matrix(0.290003,2.101439e-2,-2.084741e-2,0.287700,55.85690,-27.13629)"
       x1="535.78689"
       y1="280.02427"
       x2="571.79692"
       y2="345.03880" />
    <linearGradient
       inkscape:collect="always"
       xlink:href="#linearGradient4215"
       id="linearGradient2151"
       gradientUnits="userSpaceOnUse"
       gradientTransform="matrix(0.280834,2.034989e-2,-2.152815e-2,0.297094,55.85690,-27.13629)"
       x1="509.06769"
       y1="327.76362"
       x2="544.86009"
       y2="399.38105" />
    <linearGradient
       inkscape:collect="always"
       xlink:href="#linearGradient4215"
       id="linearGradient2153"
       gradientUnits="userSpaceOnUse"
       gradientTransform="matrix(0.312565,2.264923e-2,-1.934263e-2,0.266933,55.85690,-27.13629)"
       x1="571.12997"
       y1="342.22995"
       x2="601.19987"
       y2="396.43265" />
    <linearGradient
       inkscape:collect="always"
       xlink:href="#linearGradient4215"
       id="linearGradient2155"
       gradientUnits="userSpaceOnUse"
       gradientTransform="matrix(0.300166,2.175073e-2,-2.014165e-2,0.277960,55.85690,-27.13629)"
       x1="564.74364"
       y1="417.18036"
       x2="586.06391"
       y2="459.92340" />
  </defs>
  <sodipodi:namedview
     id="base"
     pagecolor="#ffffff"
     bordercolor="#666666"
     borderopacity="1.0"
     inkscape:pageopacity="0.0"
     inkscape:pageshadow="2"
     inkscape:zoom="2.8984375"
     inkscape:cx="64.000000"
     inkscape:cy="64.000000"
     inkscape:document-units="px"
     inkscape:current-layer="layer1"
     showguides="true"
     inkscape:guide-bbox="true"
     inkscape:window-width="772"
     inkscape:window-height="543"
     inkscape:window-x="107"
     inkscape:window-y="122" />
  <metadata
     id="metadata7">
    <rdf:RDF>
      <cc:Work
         rdf:about="">
        <dc:format>image/svg+xml</dc:format>
        <dc:type
           rdf:resource="http://purl.org/dc/dcmitype/StillImage" />
      </cc:Work>
    </rdf:RDF>
  </metadata>
  <g
     inkscape:label="Layer 1"
     inkscape:groupmode="layer"
     id="layer1">
    <g
       id="g2131">
      <path
         style="fill:#000000;fill-opacity:0.16080399;stroke:none;stroke-width:2.3874824;stroke-linecap:round;stroke-linejoin:round;stroke-miterlimit:4.0000000;stroke-opacity:1.0000000"
         d="M 45.241798,14.633184 C 37.689698,15.582775 50.137508,25.521638 36.898048,30.976934 C 21.767227,37.211555 26.290653,15.668434 16.304294,28.633184 C 6.3179332,41.597934 26.001611,31.693451 23.835544,47.914434 C 21.669476,64.135417 5.2884222,49.439865 11.523044,64.570684 C 17.757667,79.701503 19.027044,57.709321 31.991794,67.695684 C 44.956548,77.682045 24.020811,84.529616 40.241798,86.695684 C 56.462778,88.861752 38.079728,76.774056 53.210548,70.539434 C 68.341358,64.304812 63.786688,85.847937 73.773048,72.883184 C 83.759408,59.918433 64.106978,69.822918 66.273048,53.601934 C 68.439108,37.380951 84.820168,52.076500 78.585548,36.945684 C 72.350918,21.814866 71.081548,43.775794 58.116798,33.789434 C 45.152048,23.803074 66.056528,16.955500 49.835548,14.789434 C 47.807918,14.518676 46.320668,14.497528 45.241798,14.633184 z M 45.054298,40.008184 C 50.979628,40.008185 55.773048,44.832850 55.773048,50.758184 C 55.773048,56.683517 50.979628,61.476934 45.054298,61.476934 C 39.128958,61.476935 34.304294,56.683518 34.304294,50.758184 C 34.304293,44.832849 39.128958,40.008184 45.054298,40.008184 z "
         id="path2127" />
      <g
         transform="translate(-1.951691,0.975845)"
         id="g2116">
        <path
           style="fill:url(#linearGradient2121);fill-opacity:1.0000000;stroke:#858585;stroke-width:2.3874824;stroke-linecap:round;stroke-linejoin:round;stroke-miterlimit:4.0000000;stroke-opacity:1.0000000"
           d="M 44.590733,9.0945044 C 37.038639,10.044095 49.486449,19.982958 36.246983,25.438254 C 21.116166,31.672875 25.639592,10.129754 15.653233,23.094504 C 5.6668715,36.059254 25.350550,26.154771 23.184483,42.375754 C 21.018415,58.596737 4.6373605,43.901185 10.871983,59.032004 C 17.106606,74.162823 18.375983,52.170641 31.340733,62.157004 C 44.305483,72.143365 23.369750,78.990936 39.590733,81.157004 C 55.811717,83.323072 37.428664,71.235376 52.559483,65.000754 C 67.690299,58.766132 63.135623,80.309257 73.121983,67.344504 C 83.108344,54.379753 63.455916,64.284238 65.621983,48.063254 C 67.788051,31.842271 84.169107,46.537820 77.934483,31.407004 C 71.699861,16.276186 70.430484,38.237114 57.465733,28.250754 C 44.500983,18.264394 65.405466,11.416820 49.184483,9.2507544 C 47.156860,8.9799964 45.669604,8.9588484 44.590733,9.0945044 z M 44.403233,34.469504 C 50.328568,34.469505 55.121983,39.294170 55.121983,45.219504 C 55.121984,51.144837 50.328567,55.938254 44.403233,55.938254 C 38.477900,55.938255 33.653233,51.144838 33.653233,45.219504 C 33.653232,39.294169 38.477899,34.469504 44.403233,34.469504 z "
           id="path1353" />
        <path
           style="fill:none;fill-opacity:1.0000000;stroke:url(#linearGradient2123);stroke-width:2.3874824;stroke-linecap:round;stroke-linejoin:round;stroke-miterlimit:4.0000000;stroke-opacity:1.0000000"
           d="M 44.590733,9.0945044 C 37.038639,10.044095 49.486449,19.982958 36.246983,25.438254 C 21.116166,31.672875 25.639592,10.129754 15.653233,23.094504 C 5.6668715,36.059254 25.350550,26.154771 23.184483,42.375754 C 21.018415,58.596737 4.6373605,43.901185 10.871983,59.032004 C 17.106606,74.162823 18.375983,52.170641 31.340733,62.157004 C 44.305483,72.143365 23.369750,78.990936 39.590733,81.157004 C 55.811717,83.323072 37.428664,71.235376 52.559483,65.000754 C 67.690299,58.766132 63.135623,80.309257 73.121983,67.344504 C 83.108344,54.379753 63.455916,64.284238 65.621983,48.063254 C 67.788051,31.842271 84.169107,46.537820 77.934483,31.407004 C 71.699861,16.276186 70.430484,38.237114 57.465733,28.250754 C 44.500983,18.264394 65.405466,11.416820 49.184483,9.2507544 C 47.156860,8.9799964 45.669604,8.9588484 44.590733,9.0945044 z M 44.403233,34.469504 C 50.328568,34.469505 55.121983,39.294170 55.121983,45.219504 C 55.121984,51.144837 50.328567,55.938254 44.403233,55.938254 C 38.477900,55.938255 33.653233,51.144838 33.653233,45.219504 C 33.653232,39.294169 38.477899,34.469504 44.403233,34.469504 z "
           id="path2096" />
        <path
           style="fill:none;fill-opacity:1.0000000;stroke:url(#linearGradient2125);stroke-width:2.3874824;stroke-linecap:round;stroke-linejoin:round;stroke-miterlimit:4.0000000;stroke-opacity:1.0000000"
           d="M 44.590733,9.0945044 C 37.038639,10.044095 49.486449,19.982958 36.246983,25.438254 C 21.116166,31.672875 25.639592,10.129754 15.653233,23.094504 C 5.6668715,36.059254 25.350550,26.154771 23.184483,42.375754 C 21.018415,58.596737 4.6373605,43.901185 10.871983,59.032004 C 17.106606,74.162823 18.375983,52.170641 31.340733,62.157004 C 44.305483,72.143365 23.369750,78.990936 39.590733,81.157004 C 55.811717,83.323072 37.428664,71.235376 52.559483,65.000754 C 67.690299,58.766132 63.135623,80.309257 73.121983,67.344504 C 83.108344,54.379753 63.455916,64.284238 65.621983,48.063254 C 67.788051,31.842271 84.169107,46.537820 77.934483,31.407004 C 71.699861,16.276186 70.430484,38.237114 57.465733,28.250754 C 44.500983,18.264394 65.405466,11.416820 49.184483,9.2507544 C 47.156860,8.9799964 45.669604,8.9588484 44.590733,9.0945044 z M 44.403233,34.469504 C 50.328568,34.469505 55.121983,39.294170 55.121983,45.219504 C 55.121984,51.144837 50.328567,55.938254 44.403233,55.938254 C 38.477900,55.938255 33.653233,51.144838 33.653233,45.219504 C 33.653232,39.294169 38.477899,34.469504 44.403233,34.469504 z "
           id="path2106" />
      </g>
    </g>
    <g
       id="g2138"
       transform="translate(42.29978,37.39135)">
      <path
         style="fill:#000000;fill-opacity:0.16080399;stroke:none;stroke-width:2.3874824;stroke-linecap:round;stroke-linejoin:round;stroke-miterlimit:4.0000000;stroke-opacity:1.0000000"
         d="M 45.241798,14.633184 C 37.689698,15.582775 50.137508,25.521638 36.898048,30.976934 C 21.767227,37.211555 26.290653,15.668434 16.304294,28.633184 C 6.3179332,41.597934 26.001611,31.693451 23.835544,47.914434 C 21.669476,64.135417 5.2884222,49.439865 11.523044,64.570684 C 17.757667,79.701503 19.027044,57.709321 31.991794,67.695684 C 44.956548,77.682045 24.020811,84.529616 40.241798,86.695684 C 56.462778,88.861752 38.079728,76.774056 53.210548,70.539434 C 68.341358,64.304812 63.786688,85.847937 73.773048,72.883184 C 83.759408,59.918433 64.106978,69.822918 66.273048,53.601934 C 68.439108,37.380951 84.820168,52.076500 78.585548,36.945684 C 72.350918,21.814866 71.081548,43.775794 58.116798,33.789434 C 45.152048,23.803074 66.056528,16.955500 49.835548,14.789434 C 47.807918,14.518676 46.320668,14.497528 45.241798,14.633184 z M 45.054298,40.008184 C 50.979628,40.008185 55.773048,44.832850 55.773048,50.758184 C 55.773048,56.683517 50.979628,61.476934 45.054298,61.476934 C 39.128958,61.476935 34.304294,56.683518 34.304294,50.758184 C 34.304293,44.832849 39.128958,40.008184 45.054298,40.008184 z "
         id="path2140" />
      <g
         transform="translate(-1.951691,0.975845)"
         id="g2142">
        <path
           style="fill:url(#linearGradient2150);fill-opacity:1.0000000;stroke:#858585;stroke-width:2.3874824;stroke-linecap:round;stroke-linejoin:round;stroke-miterlimit:4.0000000;stroke-opacity:1.0000000"
           d="M 44.590733,9.0945044 C 37.038639,10.044095 49.486449,19.982958 36.246983,25.438254 C 21.116166,31.672875 25.639592,10.129754 15.653233,23.094504 C 5.6668715,36.059254 25.350550,26.154771 23.184483,42.375754 C 21.018415,58.596737 4.6373605,43.901185 10.871983,59.032004 C 17.106606,74.162823 18.375983,52.170641 31.340733,62.157004 C 44.305483,72.143365 23.369750,78.990936 39.590733,81.157004 C 55.811717,83.323072 37.428664,71.235376 52.559483,65.000754 C 67.690299,58.766132 63.135623,80.309257 73.121983,67.344504 C 83.108344,54.379753 63.455916,64.284238 65.621983,48.063254 C 67.788051,31.842271 84.169107,46.537820 77.934483,31.407004 C 71.699861,16.276186 70.430484,38.237114 57.465733,28.250754 C 44.500983,18.264394 65.405466,11.416820 49.184483,9.2507544 C 47.156860,8.9799964 45.669604,8.9588484 44.590733,9.0945044 z M 44.403233,34.469504 C 50.328568,34.469505 55.121983,39.294170 55.121983,45.219504 C 55.121984,51.144837 50.328567,55.938254 44.403233,55.938254 C 38.477900,55.938255 33.653233,51.144838 33.653233,45.219504 C 33.653232,39.294169 38.477899,34.469504 44.403233,34.469504 z "
           id="path2144" />
        <path
           style="fill:none;fill-opacity:1.0000000;stroke:url(#linearGradient2152);stroke-width:2.3874824;stroke-linecap:round;stroke-linejoin:round;stroke-miterlimit:4.0000000;stroke-opacity:1.0000000"
           d="M 44.590733,9.0945044 C 37.038639,10.044095 49.486449,19.982958 36.246983,25.438254 C 21.116166,31.672875 25.639592,10.129754 15.653233,23.094504 C 5.6668715,36.059254 25.350550,26.154771 23.184483,42.375754 C 21.018415,58.596737 4.6373605,43.901185 10.871983,59.032004 C 17.106606,74.162823 18.375983,52.170641 31.340733,62.157004 C 44.305483,72.143365 23.369750,78.990936 39.590733,81.157004 C 55.811717,83.323072 37.428664,71.235376 52.559483,65.000754 C 67.690299,58.766132 63.135623,80.309257 73.121983,67.344504 C 83.108344,54.379753 63.455916,64.284238 65.621983,48.063254 C 67.788051,31.842271 84.169107,46.537820 77.934483,31.407004 C 71.699861,16.276186 70.430484,38.237114 57.465733,28.250754 C 44.500983,18.264394 65.405466,11.416820 49.184483,9.2507544 C 47.156860,8.9799964 45.669604,8.9588484 44.590733,9.0945044 z M 44.403233,34.469504 C 50.328568,34.469505 55.121983,39.294170 55.121983,45.219504 C 55.121984,51.144837 50.328567,55.938254 44.403233,55.938254 C 38.477900,55.938255 33.653233,51.144838 33.653233,45.219504 C 33.653232,39.294169 38.477899,34.469504 44.403233,34.469504 z "
           id="path2146" />
        <path
           style="fill:none;fill-opacity:1.0000000;stroke:url(#linearGradient2154);stroke-width:2.3874824;stroke-linecap:round;stroke-linejoin:round;stroke-miterlimit:4.0000000;stroke-opacity:1.0000000"
           d="M 44.590733,9.0945044 C 37.038639,10.044095 49.486449,19.982958 36.246983,25.438254 C 21.116166,31.672875 25.639592,10.129754 15.653233,23.094504 C 5.6668715,36.059254 25.350550,26.154771 23.184483,42.375754 C 21.018415,58.596737 4.6373605,43.901185 10.871983,59.032004 C 17.106606,74.162823 18.375983,52.170641 31.340733,62.157004 C 44.305483,72.143365 23.369750,78.990936 39.590733,81.157004 C 55.811717,83.323072 37.428664,71.235376 52.559483,65.000754 C 67.690299,58.766132 63.135623,80.309257 73.121983,67.344504 C 83.108344,54.379753 63.455916,64.284238 65.621983,48.063254 C 67.788051,31.842271 84.169107,46.537820 77.934483,31.407004 C 71.699861,16.276186 70.430484,38.237114 57.465733,28.250754 C 44.500983,18.264394 65.405466,11.416820 49.184483,9.2507544 C 47.156860,8.9799964 45.669604,8.9588484 44.590733,9.0945044 z M 44.403233,34.469504 C 50.328568,34.469505 55.121983,39.294170 55.121983,45.219504 C 55.121984,51.144837 50.328567,55.938254 44.403233,55.938254 C 38.477900,55.938255 33.653233,51.144838 33.653233,45.219504 C 33.653232,39.294169 38.477899,34.469504 44.403233,34.469504 z "
           id="path2148" />
      </g>
    </g>
  </g>
</svg>
