<?xml version="1.0" encoding="UTF-8" standalone="no"?>
<!-- Created with Inkscape (http://www.inkscape.org/) -->
<svg
   xmlns:dc="http://purl.org/dc/elements/1.1/"
   xmlns:cc="http://web.resource.org/cc/"
   xmlns:rdf="http://www.w3.org/1999/02/22-rdf-syntax-ns#"
   xmlns:svg="http://www.w3.org/2000/svg"
   xmlns="http://www.w3.org/2000/svg"
   xmlns:xlink="http://www.w3.org/1999/xlink"
   xmlns:sodipodi="http://inkscape.sourceforge.net/DTD/sodipodi-0.dtd"
   xmlns:inkscape="http://www.inkscape.org/namespaces/inkscape"
   width="128.00000px"
   height="128.00000px"
   id="svg2"
   sodipodi:version="0.32"
   inkscape:version="0.42.2"
   sodipodi:docbase="/home/silvestre/Desktop/Nuovo!/scalable/mimetypes/misc"
   sodipodi:docname="gnome-mime-application-x-desktop.svg">
  <defs
     id="defs4">
    <linearGradient
       id="linearGradient2277">
      <stop
         style="stop-color:#f8f8f8;stop-opacity:1.0000000"
         offset="0"
         id="stop2279" />
      <stop
         style="stop-color:#e6e6e6;stop-opacity:1.0000000"
         offset="1.0000000"
         id="stop2281" />
    </linearGradient>
    <linearGradient
       id="linearGradient2265">
      <stop
         style="stop-color:#f8f8f8;stop-opacity:1.0000000"
         offset="0"
         id="stop2267" />
      <stop
         style="stop-color:#e6e6e6;stop-opacity:1.0000000"
         offset="1.0000000"
         id="stop2269" />
    </linearGradient>
    <linearGradient
       inkscape:collect="always"
       id="linearGradient2253">
      <stop
         style="stop-color:#aeaeae;stop-opacity:1.0000000"
         offset="0"
         id="stop2255" />
      <stop
         style="stop-color:#8f8f8f;stop-opacity:1.0000000"
         offset="1"
         id="stop2257" />
    </linearGradient>
    <linearGradient
       inkscape:collect="always"
       id="linearGradient2235">
      <stop
         style="stop-color:#aeaeae;stop-opacity:1.0000000"
         offset="0"
         id="stop2237" />
      <stop
         style="stop-color:#8f8f8f;stop-opacity:1.0000000"
         offset="1"
         id="stop2239" />
    </linearGradient>
    <linearGradient
       id="linearGradient2217">
      <stop
         style="stop-color:#eaeaa3;stop-opacity:1.0000000;"
         offset="0.0000000"
         id="stop2219" />
      <stop
         style="stop-color:#d4d494;stop-opacity:1.0000000;"
         offset="1.0000000"
         id="stop2221" />
    </linearGradient>
    <linearGradient
       inkscape:collect="always"
       id="linearGradient2199">
      <stop
         style="stop-color:#aeaeae;stop-opacity:1.0000000"
         offset="0"
         id="stop2201" />
      <stop
         style="stop-color:#8f8f8f;stop-opacity:1.0000000"
         offset="1"
         id="stop2203" />
    </linearGradient>
    <linearGradient
       id="linearGradient2181"
       inkscape:collect="always">
      <stop
         id="stop2183"
         offset="0"
         style="stop-color:#aeaeae;stop-opacity:1.0000000" />
      <stop
         id="stop2185"
         offset="1"
         style="stop-color:#8f8f8f;stop-opacity:1.0000000" />
    </linearGradient>
    <linearGradient
       id="linearGradient4321">
      <stop
         style="stop-color:#000000;stop-opacity:0.24242423;"
         offset="0.0000000"
         id="stop4323" />
      <stop
         style="stop-color:#000000;stop-opacity:0;"
         offset="1"
         id="stop4325" />
    </linearGradient>
    <linearGradient
       inkscape:collect="always"
       id="linearGradient2850">
      <stop
         style="stop-color:#000000;stop-opacity:0.43939391"
         offset="0"
         id="stop2852" />
      <stop
         style="stop-color:#000000;stop-opacity:0;"
         offset="1"
         id="stop2854" />
    </linearGradient>
    <linearGradient
       id="linearGradient2842">
      <stop
         style="stop-color:#f8f8f8;stop-opacity:1.0000000"
         offset="0"
         id="stop2844" />
      <stop
         style="stop-color:#e6e6e6;stop-opacity:1.0000000"
         offset="1.0000000"
         id="stop2846" />
    </linearGradient>
    <radialGradient
       inkscape:collect="always"
       xlink:href="#linearGradient4321"
       id="radialGradient4327"
       cx="62.698071"
       cy="115.55797"
       fx="62.698071"
       fy="115.55797"
       r="61.234303"
       gradientTransform="matrix(1.000000,0.000000,0.000000,0.123506,1.434400e-16,101.2859)"
       gradientUnits="userSpaceOnUse" />
    <linearGradient
       inkscape:collect="always"
       xlink:href="#linearGradient2850"
       id="linearGradient5057"
       gradientUnits="userSpaceOnUse"
       x1="93.961632"
       y1="2.5913322"
       x2="85.435616"
       y2="35.004498"
       gradientTransform="matrix(0.992164,0.000000,0.000000,0.992164,-1.863755,1.809591)" />
    <linearGradient
       inkscape:collect="always"
       xlink:href="#linearGradient2842"
       id="linearGradient5060"
       gradientUnits="userSpaceOnUse"
       x1="62.942032"
       y1="35.294682"
       x2="62.942032"
       y2="123.48434"
       gradientTransform="matrix(0.931298,0.000000,0.000000,0.931298,4.831677,2.275296)" />
    <linearGradient
       y2="35.004498"
       x2="85.435616"
       y1="2.5913322"
       x1="93.961632"
       gradientTransform="matrix(0.992164,-8.995596e-17,1.063604e-16,0.992164,-1.863755,1.809591)"
       gradientUnits="userSpaceOnUse"
       id="linearGradient1381"
       xlink:href="#linearGradient2850"
       inkscape:collect="always" />
    <linearGradient
       y2="123.48434"
       x2="62.942032"
       y1="35.294682"
       x1="62.942032"
       gradientTransform="matrix(0.931298,-8.443742e-17,9.983561e-17,0.931298,4.831677,2.275296)"
       gradientUnits="userSpaceOnUse"
       id="linearGradient1379"
       xlink:href="#linearGradient2265"
       inkscape:collect="always" />
    <radialGradient
       r="61.234303"
       fy="115.55797"
       fx="62.698071"
       cy="115.55797"
       cx="62.698071"
       gradientTransform="matrix(1.000000,-1.144840e-17,1.252244e-17,0.123506,-2.401971e-13,101.2859)"
       gradientUnits="userSpaceOnUse"
       id="radialGradient1377"
       xlink:href="#linearGradient4321"
       inkscape:collect="always" />
    <linearGradient
       y2="35.004498"
       x2="85.435616"
       y1="2.5913322"
       x1="93.961632"
       gradientTransform="matrix(0.992164,7.164204e-17,-1.472238e-16,0.992164,-1.863755,1.809591)"
       gradientUnits="userSpaceOnUse"
       id="linearGradient1375"
       xlink:href="#linearGradient2850"
       inkscape:collect="always" />
    <linearGradient
       y2="123.48434"
       x2="62.942032"
       y1="35.294682"
       x1="62.942032"
       gradientTransform="matrix(0.931298,6.724707e-17,-1.381922e-16,0.931298,4.831677,2.275296)"
       gradientUnits="userSpaceOnUse"
       id="linearGradient1373"
       xlink:href="#linearGradient2277"
       inkscape:collect="always" />
    <radialGradient
       r="61.234303"
       fy="115.55797"
       fx="62.698071"
       cy="115.55797"
       cx="62.698071"
       gradientTransform="matrix(1.000000,8.284727e-18,-7.863886e-18,0.123506,-3.057998e-14,101.2859)"
       gradientUnits="userSpaceOnUse"
       id="radialGradient1371"
       xlink:href="#linearGradient4321"
       inkscape:collect="always" />
    <linearGradient
       y2="34.183708"
       x2="14.622380"
       y1="46.150677"
       x1="14.622380"
       gradientTransform="matrix(-0.722487,0.000000,0.000000,-0.722487,94.37682,98.73962)"
       gradientUnits="userSpaceOnUse"
       id="linearGradient1369"
       xlink:href="#linearGradient2235"
       inkscape:collect="always" />
    <linearGradient
       y2="31.391296"
       x2="14.622380"
       y1="46.150677"
       x1="14.622380"
       gradientTransform="matrix(0.722487,0.000000,0.000000,-0.722487,2.144851,98.73962)"
       gradientUnits="userSpaceOnUse"
       id="linearGradient1367"
       xlink:href="#linearGradient2253"
       inkscape:collect="always" />
    <linearGradient
       y2="37.246368"
       x2="14.622380"
       y1="26.512070"
       x1="14.622380"
       gradientTransform="matrix(-0.722487,0.000000,0.000000,0.722487,94.37682,2.400826)"
       gradientUnits="userSpaceOnUse"
       id="linearGradient1365"
       xlink:href="#linearGradient2199"
       inkscape:collect="always" />
    <linearGradient
       y2="37.246368"
       x2="14.622380"
       y1="26.512070"
       x1="14.622380"
       gradientTransform="matrix(0.722487,0.000000,0.000000,0.722487,2.144851,2.400826)"
       gradientUnits="userSpaceOnUse"
       id="linearGradient1363"
       xlink:href="#linearGradient2181"
       inkscape:collect="always" />
    <linearGradient
       y2="85.550720"
       x2="95.632858"
       y1="34.806755"
       x1="36.594204"
       gradientTransform="matrix(0.722487,0.000000,0.000000,0.722487,2.144851,2.400826)"
       gradientUnits="userSpaceOnUse"
       id="linearGradient1361"
       xlink:href="#linearGradient2217"
       inkscape:collect="always" />
  </defs>
  <sodipodi:namedview
     id="base"
     pagecolor="#ffffff"
     bordercolor="#666666"
     borderopacity="1.0"
     inkscape:pageopacity="0.0"
     inkscape:pageshadow="2"
     inkscape:zoom="2.8984375"
     inkscape:cx="64.000000"
     inkscape:cy="64.000000"
     inkscape:document-units="px"
     inkscape:current-layer="layer1"
     showguides="true"
     inkscape:guide-bbox="true"
     inkscape:window-width="772"
     inkscape:window-height="543"
     inkscape:window-x="77"
     inkscape:window-y="93" />
  <metadata
     id="metadata7">
    <rdf:RDF>
      <cc:Work
         rdf:about="">
        <dc:format>image/svg+xml</dc:format>
        <dc:type
           rdf:resource="http://purl.org/dc/dcmitype/StillImage" />
      </cc:Work>
    </rdf:RDF>
  </metadata>
  <g
     inkscape:label="Layer 1"
     inkscape:groupmode="layer"
     id="layer1">
    <path
       sodipodi:type="arc"
       style="fill:url(#radialGradient4327);fill-opacity:1.0000000;stroke:none;stroke-width:3.0000000;stroke-linecap:round;stroke-linejoin:miter;stroke-miterlimit:4.0000000;stroke-dasharray:none;stroke-opacity:1.0000000"
       id="path3593"
       sodipodi:cx="62.698071"
       sodipodi:cy="115.55797"
       sodipodi:rx="61.234303"
       sodipodi:ry="7.5628023"
       d="M 123.93237 115.55797 A 61.234303 7.5628023 0 1 1  1.4637680,115.55797 A 61.234303 7.5628023 0 1 1  123.93237 115.55797 z"
       transform="matrix(0.985914,0.000000,0.000000,8.426233,-1.077207,-909.6571)" />
    <path
       style="fill:url(#linearGradient5060);fill-opacity:1.0000000;stroke:#c4c4c4;stroke-width:2.7938941;stroke-linecap:round;stroke-linejoin:miter;stroke-miterlimit:4.0000000;stroke-opacity:1.0000000"
       d="M 14.405721,8.0588818 C 37.265149,8.0588818 60.124577,8.0588818 82.984005,8.0588818 C 93.655193,10.950675 108.61492,26.471884 108.61492,32.323417 C 108.16052,59.494032 105.88851,87.573449 108.61492,113.83526 C 108.61492,114.86714 107.78420,115.69786 106.75232,115.69786 C 75.970124,115.69786 47.050518,115.69786 16.268317,115.69786 C 15.236439,115.69786 14.405721,114.86714 14.405721,113.83526 C 8.9529036,81.014938 15.723935,45.922610 12.543125,9.9214778 C 12.543125,8.8895996 13.373843,8.0588818 14.405721,8.0588818 z "
       id="rect1381"
       sodipodi:nodetypes="ccccccccc" />
    <path
       style="fill:url(#linearGradient5057);fill-opacity:1.0000000;fill-rule:evenodd;stroke:none;stroke-width:1.0000000px;stroke-linecap:butt;stroke-linejoin:miter;stroke-opacity:1.0000000"
       d="M 82.973002,9.4009233 C 77.411401,14.490179 74.513082,26.307311 75.698831,37.628068 C 86.729127,35.140189 96.623353,34.818256 107.16198,35.930807 C 108.99618,27.083386 90.168399,11.141642 82.973002,9.4009233 z "
       id="path2840"
       sodipodi:nodetypes="cccc" />
    <path
       style="fill:#ffffff;fill-opacity:1.0000000;fill-rule:evenodd;stroke:none;stroke-width:1.0000000px;stroke-linecap:butt;stroke-linejoin:miter;stroke-opacity:1.0000000"
       d="M 82.730786,9.3441232 C 78.391328,14.309672 78.113083,23.592036 78.090440,33.442401 C 88.284757,31.322975 97.429108,31.048720 107.16902,31.996504 C 104.94938,23.015961 89.380848,10.827043 82.730786,9.3441232 z "
       id="path2112"
       sodipodi:nodetypes="cccc" />
    <g
       id="g1426"
       inkscape:label="Layer 1"
       transform="matrix(1.036307,0.000000,0.000000,1.036307,22.40573,30.69396)">
      <g
         transform="matrix(0.750041,0.000000,0.000000,0.750041,-5.570020e-2,-2.792066)"
         id="g1344">
        <path
           style="fill:url(#linearGradient1361);fill-opacity:1.0000000;stroke:#b2b280;stroke-width:2.1674600;stroke-linecap:round;stroke-linejoin:round;stroke-miterlimit:4.0000000;stroke-opacity:1.0000000"
           d="M 11.045050,22.174944 L 85.251763,22.174944 C 87.253051,22.174944 88.864196,23.786089 88.864196,25.787377 L 88.864196,75.317858 C 88.864196,77.319146 87.253051,78.930292 85.251763,78.930292 L 11.045050,78.930292 C 9.0437620,78.930292 7.4326167,77.319146 7.4326167,75.317858 L 7.4326167,25.787377 C 7.4326167,23.786089 9.0437620,22.174944 11.045050,22.174944 z "
           id="rect3553" />
        <path
           style="fill:url(#linearGradient1363);fill-opacity:1.0000000;stroke:#747474;stroke-width:1.4449733;stroke-linecap:round;stroke-linejoin:round;stroke-miterlimit:4.0000000;stroke-dasharray:none;stroke-opacity:1.0000000"
           d="M 8.2529238,19.535881 L 16.891350,19.535881 C 27.567670,25.699857 13.838317,40.984565 4.6404905,31.786741 L 4.6404905,23.148314 C 4.6404905,21.147026 6.2516357,19.535881 8.2529238,19.535881 z "
           id="path4282"
           sodipodi:nodetypes="ccccc" />
        <path
           style="fill:url(#linearGradient1365);fill-opacity:1.0000000;stroke:#747474;stroke-width:1.4449733;stroke-linecap:round;stroke-linejoin:round;stroke-miterlimit:4.0000000;stroke-dasharray:none;stroke-opacity:1.0000000"
           d="M 88.268716,19.535881 L 79.630289,19.535881 C 68.953972,25.699857 82.683323,40.984565 91.881149,31.786741 L 91.881149,23.148314 C 91.881149,21.147026 90.270004,19.535881 88.268716,19.535881 z "
           id="path5034"
           sodipodi:nodetypes="ccccc" />
        <path
           style="fill:url(#linearGradient1367);fill-opacity:1.0000000;stroke:#747474;stroke-width:1.4449733;stroke-linecap:round;stroke-linejoin:round;stroke-miterlimit:4.0000000;stroke-dasharray:none;stroke-opacity:1.0000000"
           d="M 8.2529238,81.604554 L 16.891350,81.604554 C 27.567670,75.440580 13.838317,60.155864 4.6404905,69.353688 L 4.6404905,77.992121 C 4.6404905,79.993409 6.2516357,81.604554 8.2529238,81.604554 z "
           id="path5038"
           sodipodi:nodetypes="ccccc" />
        <path
           style="fill:url(#linearGradient1369);fill-opacity:1.0000000;stroke:#747474;stroke-width:1.4449733;stroke-linecap:round;stroke-linejoin:round;stroke-miterlimit:4.0000000;stroke-dasharray:none;stroke-opacity:1.0000000"
           d="M 88.268716,81.604554 L 79.630289,81.604554 C 68.953972,75.440580 82.683323,60.155864 91.881149,69.353688 L 91.881149,77.992121 C 91.881149,79.993409 90.270004,81.604554 88.268716,81.604554 z "
           id="path5040"
           sodipodi:nodetypes="ccccc" />
        <g
           id="g5860"
           inkscape:label="Layer 1"
           transform="matrix(0.295166,-4.877068e-2,4.877068e-2,0.295166,19.00097,30.35069)">
          <path
             transform="matrix(0.985914,0.000000,0.000000,8.426233,-1.077207,-909.6571)"
             d="M 123.93237 115.55797 A 61.234303 7.5628023 0 1 1  1.4637680,115.55797 A 61.234303 7.5628023 0 1 1  123.93237 115.55797 z"
             sodipodi:ry="7.5628023"
             sodipodi:rx="61.234303"
             sodipodi:cy="115.55797"
             sodipodi:cx="62.698071"
             id="path1435"
             style="fill:url(#radialGradient1371);fill-opacity:1.0000000;stroke:none;stroke-width:3.0000000;stroke-linecap:round;stroke-linejoin:miter;stroke-miterlimit:4.0000000;stroke-dasharray:none;stroke-opacity:1.0000000"
             sodipodi:type="arc" />
          <path
             sodipodi:nodetypes="ccccccccc"
             id="path1437"
             d="M 14.405721,8.0588818 C 37.265149,8.0588818 60.124577,8.0588818 82.984005,8.0588818 C 93.655193,10.950675 108.61492,26.471884 108.61492,32.323417 C 108.16052,59.494032 105.88851,87.573449 108.61492,113.83526 C 108.61492,114.86714 107.78420,115.69786 106.75232,115.69786 C 75.970124,115.69786 47.050518,115.69786 16.268317,115.69786 C 15.236439,115.69786 14.405721,114.86714 14.405721,113.83526 C 8.9529036,81.014938 15.723935,45.922610 12.543125,9.9214778 C 12.543125,8.8895996 13.373843,8.0588818 14.405721,8.0588818 z "
             style="fill:url(#linearGradient1373);fill-opacity:1.0000000;stroke:#c4c4c4;stroke-width:2.7938941;stroke-linecap:round;stroke-linejoin:miter;stroke-miterlimit:4.0000000;stroke-opacity:1.0000000" />
          <path
             sodipodi:nodetypes="cccc"
             id="path1439"
             d="M 82.973002,9.4009233 C 77.411401,14.490179 74.513082,26.307311 75.698831,37.628068 C 86.729127,35.140189 96.623353,34.818256 107.16198,35.930807 C 108.99618,27.083386 90.168399,11.141642 82.973002,9.4009233 z "
             style="fill:url(#linearGradient1375);fill-opacity:1.0000000;fill-rule:evenodd;stroke:none;stroke-width:1.0000000px;stroke-linecap:butt;stroke-linejoin:miter;stroke-opacity:1.0000000" />
          <path
             sodipodi:nodetypes="cccc"
             id="path1441"
             d="M 82.730786,9.3441232 C 78.391328,14.309672 78.113083,23.592036 78.090440,33.442401 C 88.284757,31.322975 97.429108,31.048720 107.16902,31.996504 C 104.94938,23.015961 89.380848,10.827043 82.730786,9.3441232 z "
             style="fill:#ffffff;fill-opacity:1.0000000;fill-rule:evenodd;stroke:none;stroke-width:1.0000000px;stroke-linecap:butt;stroke-linejoin:miter;stroke-opacity:1.0000000" />
        </g>
        <g
           id="g5866"
           inkscape:label="Layer 1"
           transform="matrix(0.292273,6.386045e-2,-6.386045e-2,0.292273,40.83005,35.38541)">
          <path
             transform="matrix(0.985914,0.000000,0.000000,8.426233,-1.077207,-909.6571)"
             d="M 123.93237 115.55797 A 61.234303 7.5628023 0 1 1  1.4637680,115.55797 A 61.234303 7.5628023 0 1 1  123.93237 115.55797 z"
             sodipodi:ry="7.5628023"
             sodipodi:rx="61.234303"
             sodipodi:cy="115.55797"
             sodipodi:cx="62.698071"
             id="path5868"
             style="fill:url(#radialGradient1377);fill-opacity:1.0000000;stroke:none;stroke-width:3.0000000;stroke-linecap:round;stroke-linejoin:miter;stroke-miterlimit:4.0000000;stroke-dasharray:none;stroke-opacity:1.0000000"
             sodipodi:type="arc" />
          <path
             sodipodi:nodetypes="ccccccccc"
             id="path5870"
             d="M 14.405721,8.0588818 C 37.265149,8.0588818 60.124577,8.0588818 82.984005,8.0588818 C 93.655193,10.950675 108.61492,26.471884 108.61492,32.323417 C 108.16052,59.494032 105.88851,87.573449 108.61492,113.83526 C 108.61492,114.86714 107.78420,115.69786 106.75232,115.69786 C 75.970124,115.69786 47.050518,115.69786 16.268317,115.69786 C 15.236439,115.69786 14.405721,114.86714 14.405721,113.83526 C 8.9529036,81.014938 15.723935,45.922610 12.543125,9.9214778 C 12.543125,8.8895996 13.373843,8.0588818 14.405721,8.0588818 z "
             style="fill:url(#linearGradient1379);fill-opacity:1.0000000;stroke:#c4c4c4;stroke-width:2.7938941;stroke-linecap:round;stroke-linejoin:miter;stroke-miterlimit:4.0000000;stroke-opacity:1.0000000" />
          <path
             sodipodi:nodetypes="cccc"
             id="path5872"
             d="M 82.973002,9.4009233 C 77.411401,14.490179 74.513082,26.307311 75.698831,37.628068 C 86.729127,35.140189 96.623353,34.818256 107.16198,35.930807 C 108.99618,27.083386 90.168399,11.141642 82.973002,9.4009233 z "
             style="fill:url(#linearGradient1381);fill-opacity:1.0000000;fill-rule:evenodd;stroke:none;stroke-width:1.0000000px;stroke-linecap:butt;stroke-linejoin:miter;stroke-opacity:1.0000000" />
          <path
             sodipodi:nodetypes="cccc"
             id="path5874"
             d="M 82.730786,9.3441232 C 78.391328,14.309672 78.113083,23.592036 78.090440,33.442401 C 88.284757,31.322975 97.429108,31.048720 107.16902,31.996504 C 104.94938,23.015961 89.380848,10.827043 82.730786,9.3441232 z "
             style="fill:#ffffff;fill-opacity:1.0000000;fill-rule:evenodd;stroke:none;stroke-width:1.0000000px;stroke-linecap:butt;stroke-linejoin:miter;stroke-opacity:1.0000000" />
        </g>
      </g>
    </g>
  </g>
</svg>
