<?xml version="1.0" encoding="UTF-8" standalone="no"?>
<!-- Created with Inkscape (http://www.inkscape.org/) -->
<svg
   xmlns:dc="http://purl.org/dc/elements/1.1/"
   xmlns:cc="http://web.resource.org/cc/"
   xmlns:rdf="http://www.w3.org/1999/02/22-rdf-syntax-ns#"
   xmlns:svg="http://www.w3.org/2000/svg"
   xmlns="http://www.w3.org/2000/svg"
   xmlns:xlink="http://www.w3.org/1999/xlink"
   xmlns:sodipodi="http://inkscape.sourceforge.net/DTD/sodipodi-0.dtd"
   xmlns:inkscape="http://www.inkscape.org/namespaces/inkscape"
   width="128.00000px"
   height="128.00000px"
   id="svg2"
   sodipodi:version="0.32"
   inkscape:version="0.42.2"
   sodipodi:docbase="/home/silvestre/Desktop/Nuovo!/scalable/mimetypes/misc"
   sodipodi:docname="gnome-mime-application-x-ms-dos-executable.svg">
  <defs
     id="defs4">
    <linearGradient
       inkscape:collect="always"
       id="linearGradient2108">
      <stop
         style="stop-color:#ffffff;stop-opacity:1;"
         offset="0"
         id="stop2110" />
      <stop
         style="stop-color:#ffffff;stop-opacity:0;"
         offset="1"
         id="stop2112" />
    </linearGradient>
    <linearGradient
       inkscape:collect="always"
       id="linearGradient2098">
      <stop
         style="stop-color:#646464;stop-opacity:1.0000000"
         offset="0"
         id="stop2100" />
      <stop
         style="stop-color:#858585;stop-opacity:0;"
         offset="1"
         id="stop2102" />
    </linearGradient>
    <linearGradient
       inkscape:collect="always"
       id="linearGradient2088">
      <stop
         style="stop-color:#dadada;stop-opacity:1.0000000"
         offset="0"
         id="stop2090" />
      <stop
         style="stop-color:#c7c7c7;stop-opacity:1.0000000"
         offset="1"
         id="stop2092" />
    </linearGradient>
    <linearGradient
       inkscape:collect="always"
       xlink:href="#linearGradient2088"
       id="linearGradient2121"
       gradientUnits="userSpaceOnUse"
       x1="33.155548"
       y1="33.990944"
       x2="61.018070"
       y2="59.850849" />
    <linearGradient
       inkscape:collect="always"
       xlink:href="#linearGradient2098"
       id="linearGradient2123"
       gradientUnits="userSpaceOnUse"
       x1="62.456375"
       y1="67.985504"
       x2="41.473427"
       y2="49.932362" />
    <linearGradient
       inkscape:collect="always"
       xlink:href="#linearGradient2108"
       id="linearGradient2125"
       gradientUnits="userSpaceOnUse"
       x1="12.973133"
       y1="15.617307"
       x2="36.621933"
       y2="37.406403" />
    <linearGradient
       inkscape:collect="always"
       xlink:href="#linearGradient2088"
       id="linearGradient2150"
       gradientUnits="userSpaceOnUse"
       x1="33.155548"
       y1="33.990944"
       x2="61.018070"
       y2="59.850849" />
    <linearGradient
       inkscape:collect="always"
       xlink:href="#linearGradient2098"
       id="linearGradient2152"
       gradientUnits="userSpaceOnUse"
       x1="62.456375"
       y1="67.985504"
       x2="41.473427"
       y2="49.932362" />
    <linearGradient
       inkscape:collect="always"
       xlink:href="#linearGradient2108"
       id="linearGradient2154"
       gradientUnits="userSpaceOnUse"
       x1="12.973133"
       y1="15.617307"
       x2="36.621933"
       y2="37.406403" />
    <linearGradient
       id="linearGradient4215">
      <stop
         id="stop4216"
         offset="0.0000000"
         style="stop-color:#ffffff;stop-opacity:1.0000000;" />
      <stop
         id="stop4217"
         offset="1.0000000"
         style="stop-color:#ffffff;stop-opacity:0.0000000;" />
    </linearGradient>
    <linearGradient
       id="linearGradient4021">
      <stop
         id="stop4022"
         offset="0.0000000"
         style="stop-color:#000000;stop-opacity:1.0000000;" />
      <stop
         id="stop4023"
         offset="1.0000000"
         style="stop-color:#000000;stop-opacity:0.0000000;" />
    </linearGradient>
    <linearGradient
       inkscape:collect="always"
       xlink:href="#linearGradient4021"
       id="linearGradient2140"
       gradientUnits="userSpaceOnUse"
       gradientTransform="matrix(1.003601,7.272338e-2,-7.008894e-2,0.967246,-350.6462,-633.5339)"
       x1="669.54511"
       y1="721.82962"
       x2="635.25272"
       y2="702.53950" />
    <linearGradient
       inkscape:collect="always"
       xlink:href="#linearGradient4021"
       id="linearGradient2142"
       gradientUnits="userSpaceOnUse"
       gradientTransform="matrix(1.021754,7.403874e-2,-6.884375e-2,0.950062,-350.6462,-633.5339)"
       x1="648.31500"
       y1="764.89803"
       x2="610.28476"
       y2="743.14524" />
    <linearGradient
       inkscape:collect="always"
       xlink:href="#linearGradient4215"
       id="linearGradient2144"
       gradientUnits="userSpaceOnUse"
       gradientTransform="matrix(1.015426,7.358018e-2,-6.927283e-2,0.955983,-350.6462,-633.5339)"
       x1="622.78897"
       y1="706.90464"
       x2="604.71871"
       y2="699.02725" />
    <linearGradient
       inkscape:collect="always"
       xlink:href="#linearGradient4215"
       id="linearGradient2146"
       gradientUnits="userSpaceOnUse"
       gradientTransform="matrix(0.999243,7.240753e-2,-7.039472e-2,0.971465,-350.6462,-633.5339)"
       x1="623.41440"
       y1="721.56359"
       x2="605.99946"
       y2="712.01860" />
    <linearGradient
       inkscape:collect="always"
       xlink:href="#linearGradient4215"
       id="linearGradient2148"
       gradientUnits="userSpaceOnUse"
       gradientTransform="matrix(0.290003,2.101439e-2,-2.084741e-2,0.287700,55.85690,-27.13629)"
       x1="535.78689"
       y1="280.02427"
       x2="571.79692"
       y2="345.03880" />
    <linearGradient
       inkscape:collect="always"
       xlink:href="#linearGradient4215"
       id="linearGradient2151"
       gradientUnits="userSpaceOnUse"
       gradientTransform="matrix(0.280834,2.034989e-2,-2.152815e-2,0.297094,55.85690,-27.13629)"
       x1="509.06769"
       y1="327.76362"
       x2="544.86009"
       y2="399.38105" />
    <linearGradient
       inkscape:collect="always"
       xlink:href="#linearGradient4215"
       id="linearGradient2153"
       gradientUnits="userSpaceOnUse"
       gradientTransform="matrix(0.312565,2.264923e-2,-1.934263e-2,0.266933,55.85690,-27.13629)"
       x1="571.12997"
       y1="342.22995"
       x2="601.19987"
       y2="396.43265" />
    <linearGradient
       inkscape:collect="always"
       xlink:href="#linearGradient4215"
       id="linearGradient2155"
       gradientUnits="userSpaceOnUse"
       gradientTransform="matrix(0.300166,2.175073e-2,-2.014165e-2,0.277960,55.85690,-27.13629)"
       x1="564.74364"
       y1="417.18036"
       x2="586.06391"
       y2="459.92340" />
  </defs>
  <sodipodi:namedview
     id="base"
     pagecolor="#ffffff"
     bordercolor="#666666"
     borderopacity="1.0"
     inkscape:pageopacity="0.0"
     inkscape:pageshadow="2"
     inkscape:zoom="2.8984375"
     inkscape:cx="64.000000"
     inkscape:cy="64.000000"
     inkscape:document-units="px"
     inkscape:current-layer="layer1"
     showguides="true"
     inkscape:guide-bbox="true"
     inkscape:window-width="772"
     inkscape:window-height="543"
     inkscape:window-x="107"
     inkscape:window-y="122" />
  <metadata
     id="metadata7">
    <rdf:RDF>
      <cc:Work
         rdf:about="">
        <dc:format>image/svg+xml</dc:format>
        <dc:type
           rdf:resource="http://purl.org/dc/dcmitype/StillImage" />
      </cc:Work>
    </rdf:RDF>
  </metadata>
  <g
     inkscape:label="Layer 1"
     inkscape:groupmode="layer"
     id="layer1">
    <g
       id="g2131">
      <path
         style="fill:#000000;fill-opacity:0.16080399;stroke:none;stroke-width:2.3874824;stroke-linecap:round;stroke-linejoin:round;stroke-miterlimit:4.0000000;stroke-opacity:1.0000000"
         d="M 45.241798,14.633184 C 37.689698,15.582775 50.137508,25.521638 36.898048,30.976934 C 21.767227,37.211555 26.290653,15.668434 16.304294,28.633184 C 6.3179332,41.597934 26.001611,31.693451 23.835544,47.914434 C 21.669476,64.135417 5.2884222,49.439865 11.523044,64.570684 C 17.757667,79.701503 19.027044,57.709321 31.991794,67.695684 C 44.956548,77.682045 24.020811,84.529616 40.241798,86.695684 C 56.462778,88.861752 38.079728,76.774056 53.210548,70.539434 C 68.341358,64.304812 63.786688,85.847937 73.773048,72.883184 C 83.759408,59.918433 64.106978,69.822918 66.273048,53.601934 C 68.439108,37.380951 84.820168,52.076500 78.585548,36.945684 C 72.350918,21.814866 71.081548,43.775794 58.116798,33.789434 C 45.152048,23.803074 66.056528,16.955500 49.835548,14.789434 C 47.807918,14.518676 46.320668,14.497528 45.241798,14.633184 z M 45.054298,40.008184 C 50.979628,40.008185 55.773048,44.832850 55.773048,50.758184 C 55.773048,56.683517 50.979628,61.476934 45.054298,61.476934 C 39.128958,61.476935 34.304294,56.683518 34.304294,50.758184 C 34.304293,44.832849 39.128958,40.008184 45.054298,40.008184 z "
         id="path2127" />
      <g
         transform="translate(-1.951691,0.975845)"
         id="g2116">
        <path
           style="fill:url(#linearGradient2121);fill-opacity:1.0000000;stroke:#858585;stroke-width:2.3874824;stroke-linecap:round;stroke-linejoin:round;stroke-miterlimit:4.0000000;stroke-opacity:1.0000000"
           d="M 44.590733,9.0945044 C 37.038639,10.044095 49.486449,19.982958 36.246983,25.438254 C 21.116166,31.672875 25.639592,10.129754 15.653233,23.094504 C 5.6668715,36.059254 25.350550,26.154771 23.184483,42.375754 C 21.018415,58.596737 4.6373605,43.901185 10.871983,59.032004 C 17.106606,74.162823 18.375983,52.170641 31.340733,62.157004 C 44.305483,72.143365 23.369750,78.990936 39.590733,81.157004 C 55.811717,83.323072 37.428664,71.235376 52.559483,65.000754 C 67.690299,58.766132 63.135623,80.309257 73.121983,67.344504 C 83.108344,54.379753 63.455916,64.284238 65.621983,48.063254 C 67.788051,31.842271 84.169107,46.537820 77.934483,31.407004 C 71.699861,16.276186 70.430484,38.237114 57.465733,28.250754 C 44.500983,18.264394 65.405466,11.416820 49.184483,9.2507544 C 47.156860,8.9799964 45.669604,8.9588484 44.590733,9.0945044 z M 44.403233,34.469504 C 50.328568,34.469505 55.121983,39.294170 55.121983,45.219504 C 55.121984,51.144837 50.328567,55.938254 44.403233,55.938254 C 38.477900,55.938255 33.653233,51.144838 33.653233,45.219504 C 33.653232,39.294169 38.477899,34.469504 44.403233,34.469504 z "
           id="path1353" />
        <path
           style="fill:none;fill-opacity:1.0000000;stroke:url(#linearGradient2123);stroke-width:2.3874824;stroke-linecap:round;stroke-linejoin:round;stroke-miterlimit:4.0000000;stroke-opacity:1.0000000"
           d="M 44.590733,9.0945044 C 37.038639,10.044095 49.486449,19.982958 36.246983,25.438254 C 21.116166,31.672875 25.639592,10.129754 15.653233,23.094504 C 5.6668715,36.059254 25.350550,26.154771 23.184483,42.375754 C 21.018415,58.596737 4.6373605,43.901185 10.871983,59.032004 C 17.106606,74.162823 18.375983,52.170641 31.340733,62.157004 C 44.305483,72.143365 23.369750,78.990936 39.590733,81.157004 C 55.811717,83.323072 37.428664,71.235376 52.559483,65.000754 C 67.690299,58.766132 63.135623,80.309257 73.121983,67.344504 C 83.108344,54.379753 63.455916,64.284238 65.621983,48.063254 C 67.788051,31.842271 84.169107,46.537820 77.934483,31.407004 C 71.699861,16.276186 70.430484,38.237114 57.465733,28.250754 C 44.500983,18.264394 65.405466,11.416820 49.184483,9.2507544 C 47.156860,8.9799964 45.669604,8.9588484 44.590733,9.0945044 z M 44.403233,34.469504 C 50.328568,34.469505 55.121983,39.294170 55.121983,45.219504 C 55.121984,51.144837 50.328567,55.938254 44.403233,55.938254 C 38.477900,55.938255 33.653233,51.144838 33.653233,45.219504 C 33.653232,39.294169 38.477899,34.469504 44.403233,34.469504 z "
           id="path2096" />
        <path
           style="fill:none;fill-opacity:1.0000000;stroke:url(#linearGradient2125);stroke-width:2.3874824;stroke-linecap:round;stroke-linejoin:round;stroke-miterlimit:4.0000000;stroke-opacity:1.0000000"
           d="M 44.590733,9.0945044 C 37.038639,10.044095 49.486449,19.982958 36.246983,25.438254 C 21.116166,31.672875 25.639592,10.129754 15.653233,23.094504 C 5.6668715,36.059254 25.350550,26.154771 23.184483,42.375754 C 21.018415,58.596737 4.6373605,43.901185 10.871983,59.032004 C 17.106606,74.162823 18.375983,52.170641 31.340733,62.157004 C 44.305483,72.143365 23.369750,78.990936 39.590733,81.157004 C 55.811717,83.323072 37.428664,71.235376 52.559483,65.000754 C 67.690299,58.766132 63.135623,80.309257 73.121983,67.344504 C 83.108344,54.379753 63.455916,64.284238 65.621983,48.063254 C 67.788051,31.842271 84.169107,46.537820 77.934483,31.407004 C 71.699861,16.276186 70.430484,38.237114 57.465733,28.250754 C 44.500983,18.264394 65.405466,11.416820 49.184483,9.2507544 C 47.156860,8.9799964 45.669604,8.9588484 44.590733,9.0945044 z M 44.403233,34.469504 C 50.328568,34.469505 55.121983,39.294170 55.121983,45.219504 C 55.121984,51.144837 50.328567,55.938254 44.403233,55.938254 C 38.477900,55.938255 33.653233,51.144838 33.653233,45.219504 C 33.653232,39.294169 38.477899,34.469504 44.403233,34.469504 z "
           id="path2106" />
      </g>
    </g>
    <g
       id="g2138"
       transform="translate(42.29978,37.39135)">
      <path
         style="fill:#000000;fill-opacity:0.16080399;stroke:none;stroke-width:2.3874824;stroke-linecap:round;stroke-linejoin:round;stroke-miterlimit:4.0000000;stroke-opacity:1.0000000"
         d="M 45.241798,14.633184 C 37.689698,15.582775 50.137508,25.521638 36.898048,30.976934 C 21.767227,37.211555 26.290653,15.668434 16.304294,28.633184 C 6.3179332,41.597934 26.001611,31.693451 23.835544,47.914434 C 21.669476,64.135417 5.2884222,49.439865 11.523044,64.570684 C 17.757667,79.701503 19.027044,57.709321 31.991794,67.695684 C 44.956548,77.682045 24.020811,84.529616 40.241798,86.695684 C 56.462778,88.861752 38.079728,76.774056 53.210548,70.539434 C 68.341358,64.304812 63.786688,85.847937 73.773048,72.883184 C 83.759408,59.918433 64.106978,69.822918 66.273048,53.601934 C 68.439108,37.380951 84.820168,52.076500 78.585548,36.945684 C 72.350918,21.814866 71.081548,43.775794 58.116798,33.789434 C 45.152048,23.803074 66.056528,16.955500 49.835548,14.789434 C 47.807918,14.518676 46.320668,14.497528 45.241798,14.633184 z M 45.054298,40.008184 C 50.979628,40.008185 55.773048,44.832850 55.773048,50.758184 C 55.773048,56.683517 50.979628,61.476934 45.054298,61.476934 C 39.128958,61.476935 34.304294,56.683518 34.304294,50.758184 C 34.304293,44.832849 39.128958,40.008184 45.054298,40.008184 z "
         id="path2140" />
      <g
         transform="translate(-1.951691,0.975845)"
         id="g2142">
        <path
           style="fill:url(#linearGradient2150);fill-opacity:1.0000000;stroke:#858585;stroke-width:2.3874824;stroke-linecap:round;stroke-linejoin:round;stroke-miterlimit:4.0000000;stroke-opacity:1.0000000"
           d="M 44.590733,9.0945044 C 37.038639,10.044095 49.486449,19.982958 36.246983,25.438254 C 21.116166,31.672875 25.639592,10.129754 15.653233,23.094504 C 5.6668715,36.059254 25.350550,26.154771 23.184483,42.375754 C 21.018415,58.596737 4.6373605,43.901185 10.871983,59.032004 C 17.106606,74.162823 18.375983,52.170641 31.340733,62.157004 C 44.305483,72.143365 23.369750,78.990936 39.590733,81.157004 C 55.811717,83.323072 37.428664,71.235376 52.559483,65.000754 C 67.690299,58.766132 63.135623,80.309257 73.121983,67.344504 C 83.108344,54.379753 63.455916,64.284238 65.621983,48.063254 C 67.788051,31.842271 84.169107,46.537820 77.934483,31.407004 C 71.699861,16.276186 70.430484,38.237114 57.465733,28.250754 C 44.500983,18.264394 65.405466,11.416820 49.184483,9.2507544 C 47.156860,8.9799964 45.669604,8.9588484 44.590733,9.0945044 z M 44.403233,34.469504 C 50.328568,34.469505 55.121983,39.294170 55.121983,45.219504 C 55.121984,51.144837 50.328567,55.938254 44.403233,55.938254 C 38.477900,55.938255 33.653233,51.144838 33.653233,45.219504 C 33.653232,39.294169 38.477899,34.469504 44.403233,34.469504 z "
           id="path2144" />
        <path
           style="fill:none;fill-opacity:1.0000000;stroke:url(#linearGradient2152);stroke-width:2.3874824;stroke-linecap:round;stroke-linejoin:round;stroke-miterlimit:4.0000000;stroke-opacity:1.0000000"
           d="M 44.590733,9.0945044 C 37.038639,10.044095 49.486449,19.982958 36.246983,25.438254 C 21.116166,31.672875 25.639592,10.129754 15.653233,23.094504 C 5.6668715,36.059254 25.350550,26.154771 23.184483,42.375754 C 21.018415,58.596737 4.6373605,43.901185 10.871983,59.032004 C 17.106606,74.162823 18.375983,52.170641 31.340733,62.157004 C 44.305483,72.143365 23.369750,78.990936 39.590733,81.157004 C 55.811717,83.323072 37.428664,71.235376 52.559483,65.000754 C 67.690299,58.766132 63.135623,80.309257 73.121983,67.344504 C 83.108344,54.379753 63.455916,64.284238 65.621983,48.063254 C 67.788051,31.842271 84.169107,46.537820 77.934483,31.407004 C 71.699861,16.276186 70.430484,38.237114 57.465733,28.250754 C 44.500983,18.264394 65.405466,11.416820 49.184483,9.2507544 C 47.156860,8.9799964 45.669604,8.9588484 44.590733,9.0945044 z M 44.403233,34.469504 C 50.328568,34.469505 55.121983,39.294170 55.121983,45.219504 C 55.121984,51.144837 50.328567,55.938254 44.403233,55.938254 C 38.477900,55.938255 33.653233,51.144838 33.653233,45.219504 C 33.653232,39.294169 38.477899,34.469504 44.403233,34.469504 z "
           id="path2146" />
        <path
           style="fill:none;fill-opacity:1.0000000;stroke:url(#linearGradient2154);stroke-width:2.3874824;stroke-linecap:round;stroke-linejoin:round;stroke-miterlimit:4.0000000;stroke-opacity:1.0000000"
           d="M 44.590733,9.0945044 C 37.038639,10.044095 49.486449,19.982958 36.246983,25.438254 C 21.116166,31.672875 25.639592,10.129754 15.653233,23.094504 C 5.6668715,36.059254 25.350550,26.154771 23.184483,42.375754 C 21.018415,58.596737 4.6373605,43.901185 10.871983,59.032004 C 17.106606,74.162823 18.375983,52.170641 31.340733,62.157004 C 44.305483,72.143365 23.369750,78.990936 39.590733,81.157004 C 55.811717,83.323072 37.428664,71.235376 52.559483,65.000754 C 67.690299,58.766132 63.135623,80.309257 73.121983,67.344504 C 83.108344,54.379753 63.455916,64.284238 65.621983,48.063254 C 67.788051,31.842271 84.169107,46.537820 77.934483,31.407004 C 71.699861,16.276186 70.430484,38.237114 57.465733,28.250754 C 44.500983,18.264394 65.405466,11.416820 49.184483,9.2507544 C 47.156860,8.9799964 45.669604,8.9588484 44.590733,9.0945044 z M 44.403233,34.469504 C 50.328568,34.469505 55.121983,39.294170 55.121983,45.219504 C 55.121984,51.144837 50.328567,55.938254 44.403233,55.938254 C 38.477900,55.938255 33.653233,51.144838 33.653233,45.219504 C 33.653232,39.294169 38.477899,34.469504 44.403233,34.469504 z "
           id="path2148" />
      </g>
    </g>
    <g
       id="g3667"
       transform="matrix(1.078055,0.000000,0.000000,1.078055,-197.5478,-14.73917)">
      <path
         id="path2872"
         d="M 212.68808,71.640452 L 203.00058,86.452952 L 201.96933,87.765452 C 201.98223,87.812191 202.01805,87.874509 202.03183,87.921702 L 201.78183,88.296702 C 202.59429,91.109076 205.41726,94.580266 210.12558,97.140452 C 212.43862,98.503868 215.07527,99.688416 218.50058,100.26545 L 229.25058,83.890452 C 229.22744,83.886673 229.21115,83.894259 229.18808,83.890452 L 229.59433,83.265452 C 216.26427,81.107990 212.68808,71.640452 212.68808,71.640452 z M 233.00058,83.796702 L 221.93808,100.73420 C 222.00637,100.75083 222.05766,100.77976 222.12558,100.79670 L 222.09433,100.82795 C 230.95509,103.04380 236.64237,107.96181 239.65683,113.20295 L 250.90683,95.234202 L 251.06308,95.015452 C 251.06307,95.015452 250.06886,93.083946 247.37558,90.890452 C 244.60674,88.174735 240.11872,84.997013 233.00058,83.796702 z M 199.34433,91.796702 L 188.18808,108.85920 C 188.18808,108.85920 189.65453,113.26974 195.43808,116.82795 C 197.87586,118.42327 201.04006,119.84995 205.34433,120.70295 L 216.81308,102.60920 C 213.73848,101.96048 211.10820,101.16389 208.71933,100.26545 C 204.26084,98.015781 201.01619,94.995228 199.34433,91.796702 z M 219.87558,103.89045 L 208.84433,120.73420 L 208.28183,121.45295 C 215.87243,123.12870 220.38355,126.47365 223.09433,129.20295 C 225.17785,131.46091 226.18808,133.35920 226.18808,133.35920 L 226.31308,133.17170 C 226.31345,133.17244 226.34433,133.20295 226.34433,133.20295 L 228.18808,130.26545 L 237.46933,115.95295 C 235.21802,111.13371 229.58402,105.92511 219.87558,103.89045 z "
         style="fill:#000000;fill-opacity:0.17200001;fill-rule:evenodd;stroke-width:1.0000000pt" />
      <g
         transform="translate(0.000000,1.889299)"
         id="g2856">
        <path
           sodipodi:nodetypes="ccccc"
           id="path1758"
           d="M 232.75069,80.229386 L 221.68131,97.162148 C 230.54617,99.321058 236.26292,104.08772 239.29054,109.14717 L 250.64863,91.647263 C 250.64863,91.647263 245.96507,82.457686 232.75069,80.229386 z "
           style="fill:#1da000;fill-opacity:1.0000000;fill-rule:evenodd;stroke-width:1.0000000pt" />
        <path
           sodipodi:nodetypes="ccccc"
           id="path1759"
           d="M 212.42496,68.050900 L 201.52960,84.717714 C 202.74758,88.933854 208.02642,94.822013 218.31645,96.519343 L 229.34835,79.676718 C 216.01829,77.519256 212.42496,68.050900 212.42496,68.050900 z "
           style="fill:#ee0000;fill-opacity:1.0000000;fill-rule:evenodd;stroke-width:1.0000000pt" />
        <path
           sodipodi:nodetypes="ccccc"
           id="path1760"
           d="M 199.10379,88.212087 L 187.93089,105.29210 C 187.93089,105.29210 190.70362,114.14762 204.85651,116.88714 L 216.27171,99.453262 C 207.46239,97.639357 201.63461,93.053924 199.10379,88.212087 z "
           style="fill:#2576ae;fill-opacity:1.0000000;fill-rule:evenodd;stroke-width:1.0000000pt" />
        <path
           sodipodi:nodetypes="ccccc"
           id="path1761"
           d="M 219.61155,100.31999 L 208.22937,117.72531 C 221.90664,120.67027 225.92651,129.77860 225.92651,129.77860 L 237.21632,112.36660 C 234.96502,107.54736 229.31999,102.35465 219.61155,100.31999 z "
           style="fill:#eed630;fill-opacity:1.0000000;fill-rule:evenodd;stroke-width:1.0000000pt" />
        <path
           sodipodi:nodetypes="ccccc"
           id="path1762"
           d="M 233.79729,81.681953 L 221.83567,97.234871 C 230.69642,99.450714 236.40132,104.38076 239.41578,109.62190 L 250.82371,91.434164 C 250.82371,91.434164 247.00821,83.957966 233.79729,81.681953 z "
           style="fill:url(#linearGradient2140);fill-rule:evenodd;stroke-width:1.0000000pt" />
        <path
           sodipodi:nodetypes="ccccc"
           id="path1763"
           d="M 219.84569,102.58866 L 208.02195,117.87170 C 221.69391,120.89000 226.10276,129.63409 226.10276,129.63409 L 237.02920,112.23297 C 234.79056,107.23893 229.55051,104.67329 219.84569,102.58866 z "
           style="fill:url(#linearGradient2142);fill-rule:evenodd;stroke-width:1.0000000pt" />
        <path
           sodipodi:nodetypes="ccccc"
           id="path1764"
           d="M 212.09475,70.842601 L 201.72671,84.200796 C 202.93345,88.571896 207.96681,94.963536 218.25425,96.696586 L 228.99541,80.320253 C 218.14969,78.549078 214.84933,73.708063 212.09475,70.842601 z "
           style="fill:url(#linearGradient2144);fill-rule:evenodd;stroke-width:1.0000000pt" />
        <path
           sodipodi:nodetypes="ccccc"
           id="path1765"
           d="M 199.05667,89.556684 L 188.18986,105.15107 C 188.18986,105.15107 190.93906,114.33148 205.08728,117.13532 L 216.55215,99.015954 C 207.74602,97.157919 201.57482,94.573392 199.05667,89.556684 z "
           style="fill:url(#linearGradient2146);fill-rule:evenodd;stroke-width:1.0000000pt" />
        <path
           style="fill:url(#linearGradient2148);fill-opacity:0.75000000;fill-rule:evenodd;stroke-width:1.0000000pt"
           d="M 202.79044,84.066394 L 209.34544,74.063366 C 210.48758,72.320437 212.72583,70.616139 214.31812,72.945839 C 215.96633,75.357353 219.75426,78.689609 224.85956,79.310785 C 225.90784,81.160175 217.89240,93.880084 215.24615,93.688331 C 212.59991,93.496576 203.38489,88.099687 202.79044,84.066394 z "
           id="path1766"
           sodipodi:nodetypes="czzccc" />
        <path
           style="fill:url(#linearGradient2151);fill-opacity:0.75000000;fill-rule:evenodd;stroke-width:1.0000000pt"
           d="M 197.44038,92.780228 C 198.46059,91.277773 200.59726,91.703542 201.59937,92.490455 C 202.41203,93.128593 208.10422,98.577672 210.18372,98.432789 C 212.26321,98.287903 202.85860,113.86286 200.38068,113.38774 C 197.90275,112.91261 188.50024,106.02427 189.78288,104.63936 C 191.06553,103.25444 196.45578,94.230218 197.44038,92.780228 z "
           id="path1767"
           sodipodi:nodetypes="czcccz" />
        <path
           style="fill:url(#linearGradient2153);fill-opacity:0.75000000;fill-rule:evenodd;stroke-width:1.0000000pt"
           d="M 224.19333,95.634432 L 230.97719,85.091200 C 232.83545,82.203157 234.79334,81.421309 238.09309,82.638592 C 241.35831,83.843137 245.36671,86.049434 248.83833,89.563791 C 248.91065,91.450039 238.23474,103.75793 235.59218,102.73044 C 232.94963,101.70296 223.73232,96.228029 224.19333,95.634432 z "
           id="path1768"
           sodipodi:nodetypes="czzccc" />
        <path
           style="fill:url(#linearGradient2155);fill-opacity:0.75000000;fill-rule:evenodd;stroke-width:1.0000000pt"
           d="M 210.07839,116.55210 L 217.24157,105.39608 C 218.54750,103.36222 221.35028,101.63086 223.94455,102.63051 C 226.61251,103.65855 231.29312,105.23200 233.09564,108.90948 C 234.89816,112.58696 228.92600,119.54349 228.30598,119.94192 C 227.68597,120.34035 224.74144,124.26498 222.57884,123.51714 C 220.41624,122.76928 212.41143,114.94773 210.07839,116.55210 z "
           id="path1769"
           sodipodi:nodetypes="czzcccc" />
      </g>
    </g>
  </g>
</svg>
