<?xml version="1.0" encoding="UTF-8" standalone="no"?>
<!-- Created with Inkscape (http://www.inkscape.org/) -->
<svg
   xmlns:dc="http://purl.org/dc/elements/1.1/"
   xmlns:cc="http://web.resource.org/cc/"
   xmlns:rdf="http://www.w3.org/1999/02/22-rdf-syntax-ns#"
   xmlns:svg="http://www.w3.org/2000/svg"
   xmlns="http://www.w3.org/2000/svg"
   xmlns:xlink="http://www.w3.org/1999/xlink"
   xmlns:sodipodi="http://inkscape.sourceforge.net/DTD/sodipodi-0.dtd"
   xmlns:inkscape="http://www.inkscape.org/namespaces/inkscape"
   width="128.00000px"
   height="128.00000px"
   id="svg2"
   sodipodi:version="0.32"
   inkscape:version="0.42.2"
   sodipodi:docbase="/home/silvestre/Desktop/Nuovo!/scalable/mimetypes/office"
   sodipodi:docname="gnome-mime-application-x-abiword.svg">
  <defs
     id="defs4">
    <linearGradient
       inkscape:collect="always"
       id="linearGradient4341">
      <stop
         style="stop-color:#6c6c6c;stop-opacity:1.0000000"
         offset="0"
         id="stop4343" />
      <stop
         style="stop-color:#454545;stop-opacity:1.0000000"
         offset="1"
         id="stop4345" />
    </linearGradient>
    <linearGradient
       inkscape:collect="always"
       id="linearGradient4322">
      <stop
         style="stop-color:#ffffff;stop-opacity:1;"
         offset="0"
         id="stop4324" />
      <stop
         style="stop-color:#ffffff;stop-opacity:0;"
         offset="1"
         id="stop4326" />
    </linearGradient>
    <linearGradient
       id="linearGradient3572">
      <stop
         style="stop-color:#b1b1b1;stop-opacity:1.0000000"
         offset="0"
         id="stop3574" />
      <stop
         id="stop3580"
         offset="0.50000000"
         style="stop-color:#c9c9c9;stop-opacity:1.0000000;" />
      <stop
         style="stop-color:#979797;stop-opacity:1.0000000"
         offset="1"
         id="stop3576" />
    </linearGradient>
    <linearGradient
       inkscape:collect="always"
       id="linearGradient2102">
      <stop
         style="stop-color:#787878;stop-opacity:1.0000000"
         offset="0"
         id="stop2104" />
      <stop
         style="stop-color:#616161;stop-opacity:1.0000000"
         offset="1"
         id="stop2106" />
    </linearGradient>
    <linearGradient
       id="linearGradient2096"
       inkscape:collect="always">
      <stop
         id="stop2098"
         offset="0"
         style="stop-color:#959595;stop-opacity:1.0000000" />
      <stop
         id="stop2100"
         offset="1"
         style="stop-color:#3f3f3f;stop-opacity:1.0000000" />
    </linearGradient>
    <linearGradient
       inkscape:collect="always"
       id="linearGradient2084">
      <stop
         style="stop-color:#696969;stop-opacity:1.0000000"
         offset="0"
         id="stop2086" />
      <stop
         style="stop-color:#3f3f3f;stop-opacity:1.0000000"
         offset="1"
         id="stop2088" />
    </linearGradient>
    <linearGradient
       inkscape:collect="always"
       id="linearGradient2067">
      <stop
         style="stop-color:#b5c3d3;stop-opacity:1.0000000"
         offset="0"
         id="stop2069" />
      <stop
         style="stop-color:#6b88a7;stop-opacity:1.0000000"
         offset="1"
         id="stop2071" />
    </linearGradient>
    <linearGradient
       id="linearGradient4321">
      <stop
         style="stop-color:#000000;stop-opacity:0.24242423;"
         offset="0.0000000"
         id="stop4323" />
      <stop
         style="stop-color:#000000;stop-opacity:0;"
         offset="1"
         id="stop4325" />
    </linearGradient>
    <linearGradient
       inkscape:collect="always"
       id="linearGradient2850">
      <stop
         style="stop-color:#000000;stop-opacity:0.43939391"
         offset="0"
         id="stop2852" />
      <stop
         style="stop-color:#000000;stop-opacity:0;"
         offset="1"
         id="stop2854" />
    </linearGradient>
    <linearGradient
       id="linearGradient2842">
      <stop
         style="stop-color:#f8f8f8;stop-opacity:1.0000000"
         offset="0"
         id="stop2844" />
      <stop
         style="stop-color:#e6e6e6;stop-opacity:1.0000000"
         offset="1.0000000"
         id="stop2846" />
    </linearGradient>
    <radialGradient
       inkscape:collect="always"
       xlink:href="#linearGradient4321"
       id="radialGradient4327"
       cx="62.698071"
       cy="115.55797"
       fx="62.698071"
       fy="115.55797"
       r="61.234303"
       gradientTransform="matrix(1.000000,0.000000,0.000000,0.123506,1.434400e-16,101.2859)"
       gradientUnits="userSpaceOnUse" />
    <linearGradient
       inkscape:collect="always"
       xlink:href="#linearGradient2850"
       id="linearGradient5057"
       gradientUnits="userSpaceOnUse"
       x1="93.961632"
       y1="2.5913322"
       x2="85.435616"
       y2="35.004498"
       gradientTransform="matrix(0.992164,0.000000,0.000000,0.992164,-1.863755,1.809591)" />
    <linearGradient
       inkscape:collect="always"
       xlink:href="#linearGradient2842"
       id="linearGradient5060"
       gradientUnits="userSpaceOnUse"
       x1="62.942032"
       y1="35.294682"
       x2="62.942032"
       y2="123.48434"
       gradientTransform="matrix(0.931298,0.000000,0.000000,0.931298,4.831677,2.275296)" />
    <linearGradient
       inkscape:collect="always"
       xlink:href="#linearGradient2102"
       id="linearGradient4359"
       gradientUnits="userSpaceOnUse"
       gradientTransform="matrix(0.866025,-0.500000,0.500000,0.866025,-54.60633,-29.54672)"
       x1="-48.243347"
       y1="18.654936"
       x2="-41.742252"
       y2="22.408344" />
    <linearGradient
       inkscape:collect="always"
       xlink:href="#linearGradient2067"
       id="linearGradient4361"
       gradientUnits="userSpaceOnUse"
       gradientTransform="matrix(0.866025,-0.500000,0.500000,0.866025,-54.60633,-29.54672)"
       x1="-92.640343"
       y1="86.413116"
       x2="-79.804268"
       y2="93.824028" />
    <linearGradient
       inkscape:collect="always"
       xlink:href="#linearGradient2084"
       id="linearGradient4363"
       gradientUnits="userSpaceOnUse"
       gradientTransform="matrix(0.866025,-0.500000,0.500000,0.866025,-54.60633,-29.54672)"
       x1="-85.433243"
       y1="44.729626"
       x2="-79.996216"
       y2="47.868694" />
    <linearGradient
       inkscape:collect="always"
       xlink:href="#linearGradient2096"
       id="linearGradient4365"
       gradientUnits="userSpaceOnUse"
       gradientTransform="matrix(0.866025,-0.500000,0.500000,0.866025,-54.60633,-29.54672)"
       x1="-66.083405"
       y1="30.646467"
       x2="-49.745003"
       y2="39.574009" />
    <linearGradient
       inkscape:collect="always"
       xlink:href="#linearGradient3572"
       id="linearGradient4367"
       gradientUnits="userSpaceOnUse"
       gradientTransform="matrix(0.858549,-1.654569e-17,3.191989e-17,0.874266,-11.67990,19.82333)"
       x1="-93.233948"
       y1="158.85669"
       x2="-79.600494"
       y2="155.88498" />
    <linearGradient
       inkscape:collect="always"
       xlink:href="#linearGradient4322"
       id="linearGradient4369"
       gradientUnits="userSpaceOnUse"
       x1="-84.355797"
       y1="168.10782"
       x2="-84.183296"
       y2="170.45882" />
    <linearGradient
       inkscape:collect="always"
       xlink:href="#linearGradient4341"
       id="linearGradient4371"
       gradientUnits="userSpaceOnUse"
       x1="-93.328659"
       y1="123.85984"
       x2="-71.778038"
       y2="123.85984" />
  </defs>
  <sodipodi:namedview
     id="base"
     pagecolor="#ffffff"
     bordercolor="#666666"
     borderopacity="1.0"
     inkscape:pageopacity="0.0"
     inkscape:pageshadow="2"
     inkscape:zoom="2.8984375"
     inkscape:cx="101.55886"
     inkscape:cy="58.701027"
     inkscape:document-units="px"
     inkscape:current-layer="layer1"
     showguides="true"
     inkscape:guide-bbox="true"
     inkscape:window-width="772"
     inkscape:window-height="543"
     inkscape:window-x="148"
     inkscape:window-y="104" />
  <metadata
     id="metadata7">
    <rdf:RDF>
      <cc:Work
         rdf:about="">
        <dc:format>image/svg+xml</dc:format>
        <dc:type
           rdf:resource="http://purl.org/dc/dcmitype/StillImage" />
      </cc:Work>
    </rdf:RDF>
  </metadata>
  <g
     inkscape:label="Layer 1"
     inkscape:groupmode="layer"
     id="layer1">
    <path
       sodipodi:type="arc"
       style="fill:url(#radialGradient4327);fill-opacity:1.0000000;stroke:none;stroke-width:3.0000000;stroke-linecap:round;stroke-linejoin:miter;stroke-miterlimit:4.0000000;stroke-dasharray:none;stroke-opacity:1.0000000"
       id="path3593"
       sodipodi:cx="62.698071"
       sodipodi:cy="115.55797"
       sodipodi:rx="61.234303"
       sodipodi:ry="7.5628023"
       d="M 123.93237 115.55797 A 61.234303 7.5628023 0 1 1  1.4637680,115.55797 A 61.234303 7.5628023 0 1 1  123.93237 115.55797 z"
       transform="matrix(0.985914,0.000000,0.000000,8.426233,-1.077207,-909.6571)" />
    <path
       style="fill:url(#linearGradient5060);fill-opacity:1.0000000;stroke:#c4c4c4;stroke-width:2.7938941;stroke-linecap:round;stroke-linejoin:miter;stroke-miterlimit:4.0000000;stroke-opacity:1.0000000"
       d="M 14.405721,8.0588818 C 37.265149,8.0588818 60.124577,8.0588818 82.984005,8.0588818 C 93.655193,10.950675 108.61492,26.471884 108.61492,32.323417 C 108.16052,59.494032 105.88851,87.573449 108.61492,113.83526 C 108.61492,114.86714 107.78420,115.69786 106.75232,115.69786 C 75.970124,115.69786 47.050518,115.69786 16.268317,115.69786 C 15.236439,115.69786 14.405721,114.86714 14.405721,113.83526 C 8.9529036,81.014938 15.723935,45.922610 12.543125,9.9214778 C 12.543125,8.8895996 13.373843,8.0588818 14.405721,8.0588818 z "
       id="rect1381"
       sodipodi:nodetypes="ccccccccc" />
    <path
       style="color:#000000;fill:#787878;fill-opacity:0.48743716;fill-rule:nonzero;stroke:none;stroke-width:0.88736707;stroke-linecap:round;stroke-linejoin:round;marker:none;marker-start:none;marker-mid:none;marker-end:none;stroke-miterlimit:4.0000000;stroke-dashoffset:0.0000000;stroke-opacity:1.0000000;visibility:visible;display:inline;overflow:visible"
       d="M 22.244526,30.031250 L 22.244526,39.406250 L 96.669138,39.406250 C 96.683579,36.231973 96.629780,33.112201 96.544138,30.031250 L 22.244526,30.031250 z M 22.244526,56.375000 L 22.244526,65.750000 L 95.981638,65.750000 C 96.091766,62.599220 96.128319,59.510976 96.231638,56.375000 L 22.244526,56.375000 z M 22.244526,69.562500 L 22.244526,78.937500 L 55.961338,78.937500 C 56.030270,75.824629 56.107533,72.695400 56.211338,69.562500 L 22.244526,69.562500 z M 22.244526,82.718750 L 22.244526,92.125000 L 73.933289,92.125000 C 73.898919,88.972908 73.728831,85.929950 73.777039,82.718750 L 22.244526,82.718750 z M 22.244526,95.906250 L 22.244526,104.25000 C 39.432559,104.25000 78.699856,104.25000 95.887888,104.25000 C 95.719785,101.55619 95.799842,98.675666 95.731638,95.906250 L 22.244526,95.906250 z "
       id="rect2804"
       sodipodi:nodetypes="ccccccccccccccccccccccccc" />
    <path
       style="fill:url(#linearGradient5057);fill-opacity:1.0000000;fill-rule:evenodd;stroke:none;stroke-width:1.0000000px;stroke-linecap:butt;stroke-linejoin:miter;stroke-opacity:1.0000000"
       d="M 82.973002,9.4009233 C 77.411401,14.490179 74.513082,26.307311 75.698831,37.628068 C 86.729127,35.140189 96.623353,34.818256 107.16198,35.930807 C 108.99618,27.083386 90.168399,11.141642 82.973002,9.4009233 z "
       id="path2840"
       sodipodi:nodetypes="cccc" />
    <path
       style="fill:#ffffff;fill-opacity:1.0000000;fill-rule:evenodd;stroke:none;stroke-width:1.0000000px;stroke-linecap:butt;stroke-linejoin:miter;stroke-opacity:1.0000000"
       d="M 82.730786,9.3441232 C 78.391328,14.309672 78.113083,23.592036 78.090440,33.442401 C 88.284757,31.322975 97.429108,31.048720 107.16902,31.996504 C 104.94938,23.015961 89.380848,10.827043 82.730786,9.3441232 z "
       id="path2112"
       sodipodi:nodetypes="cccc" />
    <g
       id="g4349"
       transform="matrix(0.539285,0.311357,-0.311357,0.539285,154.0318,49.06560)">
      <path
         sodipodi:nodetypes="ccccc"
         id="rect1336"
         d="M -75.497269,32.337482 C -80.213855,32.337482 -84.930442,32.337483 -89.647028,32.337483 C -89.647028,24.205433 -89.647028,16.073393 -89.647028,7.9413429 C -89.647029,-1.1086373 -75.497270,-1.6316978 -75.497269,7.9413423 C -75.497269,16.073392 -75.497270,24.205432 -75.497269,32.337482 z "
         style="color:#000000;fill:url(#linearGradient4359);fill-opacity:1.0000000;fill-rule:nonzero;stroke:#606060;stroke-width:2.0000000;stroke-linecap:round;stroke-linejoin:round;marker:none;marker-start:none;marker-mid:none;marker-end:none;stroke-miterlimit:4.0000000;stroke-dasharray:none;stroke-dashoffset:0.0000000;stroke-opacity:1.0000000;visibility:visible;display:inline;overflow:visible" />
      <path
         sodipodi:nodetypes="cccccc"
         id="path1334"
         d="M -68.049765,23.554872 C -68.049765,65.327632 -68.049765,107.10039 -68.049766,148.87315 C -68.049763,155.55431 -76.853559,174.06559 -82.549661,174.06559 C -88.264159,174.06559 -97.094527,155.37489 -97.094526,148.87315 C -97.094526,107.10039 -97.094530,65.327633 -97.094531,23.554872 C -97.094531,13.888213 -68.049765,14.279833 -68.049765,23.554872 z "
         style="fill:url(#linearGradient4361);fill-opacity:1.0000000;fill-rule:evenodd;stroke:#5f5f5f;stroke-width:2.0000000;stroke-linecap:butt;stroke-linejoin:miter;stroke-miterlimit:4.0000000;stroke-dasharray:none;stroke-opacity:1.0000000" />
      <path
         sodipodi:nodetypes="cczcccccc"
         id="path2065"
         d="M -64.594395,30.675823 C -64.594395,18.745663 -100.47580,19.110172 -100.47580,29.640782 C -100.47580,29.640782 -105.82351,28.778253 -106.34103,38.956143 C -106.85855,49.306542 -103.40841,75.872589 -103.40841,75.872589 C -102.89089,78.862706 -106.68604,83.577891 -105.65100,85.187953 C -102.71839,89.960638 -98.405719,82.140333 -98.750733,78.287682 C -99.383257,66.384722 -102.94840,43.786342 -101.85585,43.096312 C -101.85585,36.269763 -67.009485,34.815992 -67.009485,43.096312 C -63.108815,44.141493 -64.594395,34.815982 -64.594395,30.675823 z "
         style="fill:url(#linearGradient4363);fill-opacity:1.0000000;fill-rule:evenodd;stroke:#494949;stroke-width:1.2500000;stroke-linecap:butt;stroke-linejoin:miter;stroke-miterlimit:4.0000000;stroke-dasharray:none;stroke-opacity:1.0000000" />
      <path
         sodipodi:nodetypes="ccccc"
         id="path2092"
         d="M -64.933634,30.942108 C -64.933634,19.327422 -100.47580,20.492477 -100.47580,29.640782 C -100.47580,29.640782 -102.78235,42.000264 -101.68981,41.310234 C -96.709481,35.059144 -67.470704,34.871001 -66.519959,42.602408 C -63.985004,42.745870 -64.933634,35.082267 -64.933634,30.942108 z "
         style="fill:url(#linearGradient4365);fill-opacity:1.0000000;fill-rule:evenodd;stroke:none;stroke-width:1.2500000;stroke-linecap:butt;stroke-linejoin:miter;stroke-miterlimit:4.0000000;stroke-dasharray:none;stroke-opacity:1.0000000" />
      <path
         sodipodi:nodetypes="cccc"
         id="path3562"
         d="M -70.103968,149.97806 C -70.103965,155.81917 -77.662458,172.36889 -82.552841,172.36889 C -87.459019,172.36889 -95.040325,155.66231 -95.040324,149.97806 C -95.040324,141.32574 -70.103968,140.87492 -70.103968,149.97806 z "
         style="fill:url(#linearGradient4367);fill-opacity:1.0000000;fill-rule:evenodd;stroke:#b1b1b1;stroke-width:1.7327440;stroke-linecap:butt;stroke-linejoin:miter;stroke-miterlimit:4.0000000;stroke-dasharray:none;stroke-opacity:1.0000000" />
      <path
         sodipodi:nodetypes="ccc"
         id="path4311"
         d="M -86.797362,169.62109 C -86.797362,166.24123 -78.608451,166.27784 -78.608451,169.62109 C -78.608451,171.76646 -86.797362,171.76646 -86.797362,169.62109 z "
         style="color:#000000;fill:none;fill-opacity:1.0000000;fill-rule:nonzero;stroke:url(#linearGradient4369);stroke-width:1.9604846;stroke-linecap:round;stroke-linejoin:round;marker:none;marker-start:none;marker-mid:none;marker-end:none;stroke-miterlimit:4.0000000;stroke-dashoffset:0.0000000;stroke-opacity:1.0000000;visibility:visible;display:inline;overflow:visible" />
      <path
         sodipodi:nodetypes="ccccc"
         id="rect3582"
         d="M -86.047272,170.56060 C -86.047272,167.70333 -79.358541,167.73428 -79.358541,170.56060 C -79.358541,172.37426 -79.358541,174.18793 -79.358541,176.00159 C -79.358541,179.72520 -86.047272,179.52912 -86.047272,176.00159 C -86.047272,174.18793 -86.047272,172.37426 -86.047272,170.56060 z "
         style="color:#000000;fill:#7b7b7b;fill-opacity:1.0000000;fill-rule:nonzero;stroke:#8d8d8d;stroke-width:1.6291041;stroke-linecap:round;stroke-linejoin:round;marker:none;marker-start:none;marker-mid:none;marker-end:none;stroke-miterlimit:4.0000000;stroke-dashoffset:0.0000000;stroke-opacity:1.0000000;visibility:visible;display:inline;overflow:visible" />
      <path
         sodipodi:nodetypes="ccccc"
         id="rect4330"
         d="M -101.08894,111.99067 C -101.08894,100.23263 -63.482475,99.192069 -63.482475,111.99067 C -63.482475,128.09130 -57.934011,151.02203 -68.657677,151.02203 C -68.657677,139.97920 -96.517511,139.61119 -96.517511,151.02203 C -104.90210,151.02203 -101.08894,128.09130 -101.08894,111.99067 z "
         style="color:#000000;fill:url(#linearGradient4371);fill-opacity:1.0000000;fill-rule:nonzero;stroke:#404040;stroke-width:2.0000000;stroke-linecap:round;stroke-linejoin:round;marker:none;marker-start:none;marker-mid:none;marker-end:none;stroke-miterlimit:4.0000000;stroke-dasharray:none;stroke-dashoffset:0.0000000;stroke-opacity:1.0000000;visibility:visible;display:inline;overflow:visible" />
    </g>
  </g>
</svg>
