<?xml version="1.0" encoding="UTF-8" standalone="no"?>
<!-- Created with Inkscape (http://www.inkscape.org/) -->
<svg
   xmlns:dc="http://purl.org/dc/elements/1.1/"
   xmlns:cc="http://web.resource.org/cc/"
   xmlns:rdf="http://www.w3.org/1999/02/22-rdf-syntax-ns#"
   xmlns:svg="http://www.w3.org/2000/svg"
   xmlns="http://www.w3.org/2000/svg"
   xmlns:xlink="http://www.w3.org/1999/xlink"
   xmlns:sodipodi="http://sodipodi.sourceforge.net/DTD/sodipodi-0.dtd"
   xmlns:inkscape="http://www.inkscape.org/namespaces/inkscape"
   width="48"
   height="48"
   id="svg2"
   sodipodi:version="0.32"
   inkscape:version="0.45+devel"
   version="1.0"
   sodipodi:docbase="/home/silvestre/.icons/Gion/scalable/devices"
   sodipodi:docname="media-cdrom.svg"
   inkscape:output_extension="org.inkscape.output.svg.inkscape"
   sodipodi:modified="true">
  <defs
     id="defs4">
    <linearGradient
       id="linearGradient2781">
      <stop
         style="stop-color:black;stop-opacity:0;"
         offset="0"
         id="stop2783" />
      <stop
         id="stop2789"
         offset="0.5"
         style="stop-color:black;stop-opacity:0;" />
      <stop
         style="stop-color:black;stop-opacity:0;"
         offset="0.75"
         id="stop2791" />
      <stop
         style="stop-color:black;stop-opacity:0.27450982;"
         offset="1"
         id="stop2785" />
    </linearGradient>
    <linearGradient
       inkscape:collect="always"
       id="linearGradient2837">
      <stop
         style="stop-color:black;stop-opacity:1;"
         offset="0"
         id="stop2839" />
      <stop
         style="stop-color:black;stop-opacity:0;"
         offset="1"
         id="stop2841" />
    </linearGradient>
    <linearGradient
       inkscape:collect="always"
       id="linearGradient2827">
      <stop
         style="stop-color:white;stop-opacity:1;"
         offset="0"
         id="stop2829" />
      <stop
         style="stop-color:white;stop-opacity:0.23152709"
         offset="1"
         id="stop2831" />
    </linearGradient>
    <linearGradient
       id="linearGradient2801">
      <stop
         style="stop-color:#dcdcdc;stop-opacity:0"
         offset="0"
         id="stop2803" />
      <stop
         id="stop2809"
         offset="0.5"
         style="stop-color:#dcdcdc;stop-opacity:0;" />
      <stop
         style="stop-color:#c8c8c8;stop-opacity:1;"
         offset="1"
         id="stop2805" />
    </linearGradient>
    <linearGradient
       inkscape:collect="always"
       id="linearGradient2788">
      <stop
         style="stop-color:white;stop-opacity:1;"
         offset="0"
         id="stop2790" />
      <stop
         style="stop-color:white;stop-opacity:0.11372549"
         offset="1"
         id="stop2792" />
    </linearGradient>
    <linearGradient
       inkscape:collect="always"
       xlink:href="#linearGradient2788"
       id="linearGradient2794"
       x1="24.873903"
       y1="38.851421"
       x2="24.873903"
       y2="16.054707"
       gradientUnits="userSpaceOnUse" />
    <radialGradient
       inkscape:collect="always"
       xlink:href="#linearGradient2801"
       id="radialGradient2807"
       cx="24"
       cy="23.5"
       fx="24"
       fy="23.5"
       r="21.977096"
       gradientTransform="matrix(0.801951,0,0,0.637744,4.753183,8.513006)"
       gradientUnits="userSpaceOnUse" />
    <radialGradient
       inkscape:collect="always"
       xlink:href="#linearGradient2827"
       id="radialGradient2833"
       cx="24.203125"
       cy="23.1875"
       fx="24.203125"
       fy="23.1875"
       r="20.296875"
       gradientTransform="matrix(1,0,0,0.69746,0,7.015156)"
       gradientUnits="userSpaceOnUse" />
    <radialGradient
       inkscape:collect="always"
       xlink:href="#linearGradient2837"
       id="radialGradient2843"
       cx="24"
       cy="23.5"
       fx="24"
       fy="23.5"
       r="22.8391"
       gradientTransform="matrix(1.050829,0,0,0.831906,-1.219907,4.450192)"
       gradientUnits="userSpaceOnUse" />
    <radialGradient
       inkscape:collect="always"
       xlink:href="#linearGradient2781"
       id="radialGradient2787"
       cx="24"
       cy="23.876471"
       fx="24"
       fy="32.595455"
       r="6.5"
       gradientTransform="matrix(1.254569,1.093727e-6,-9.230769e-7,1.058824,-6.10964,-1.722171)"
       gradientUnits="userSpaceOnUse" />
  </defs>
  <sodipodi:namedview
     id="base"
     pagecolor="#b0b0b0"
     bordercolor="#666666"
     borderopacity="1.0"
     inkscape:pageopacity="0"
     inkscape:pageshadow="2"
     inkscape:zoom="1"
     inkscape:cx="24"
     inkscape:cy="24"
     inkscape:document-units="px"
     inkscape:current-layer="layer1"
     inkscape:window-width="920"
     inkscape:window-height="619"
     inkscape:window-x="176"
     inkscape:window-y="234"
     width="48px"
     height="48px"
     inkscape:showpageshadow="false"
     showgrid="false"
     showborder="false" />
  <metadata
     id="metadata7">
    <rdf:RDF>
      <cc:Work
         rdf:about="">
        <dc:format>image/svg+xml</dc:format>
        <dc:type
           rdf:resource="http://purl.org/dc/dcmitype/StillImage" />
        <dc:title>media cdrom</dc:title>
        <dc:creator>
          <cc:Agent>
            <dc:title>Silvestre Herrera</dc:title>
          </cc:Agent>
        </dc:creator>
        <cc:license
           rdf:resource="http://creativecommons.org/licenses/GPL/2.0/" />
      </cc:Work>
      <cc:License
         rdf:about="http://creativecommons.org/licenses/GPL/2.0/">
        <cc:permits
           rdf:resource="http://web.resource.org/cc/Reproduction" />
        <cc:permits
           rdf:resource="http://web.resource.org/cc/Distribution" />
        <cc:requires
           rdf:resource="http://web.resource.org/cc/Notice" />
        <cc:permits
           rdf:resource="http://web.resource.org/cc/DerivativeWorks" />
        <cc:requires
           rdf:resource="http://web.resource.org/cc/ShareAlike" />
        <cc:requires
           rdf:resource="http://web.resource.org/cc/SourceCode" />
      </cc:License>
    </rdf:RDF>
  </metadata>
  <g
     inkscape:label="Capa 1"
     inkscape:groupmode="layer"
     id="layer1">
    <path
       style="opacity:1;fill:url(#radialGradient2843);fill-opacity:1;stroke:none;stroke-width:0.954193;stroke-linecap:round;stroke-linejoin:round;stroke-miterlimit:4;stroke-dasharray:none;stroke-opacity:1"
       d="M 24,5 C 10.751995,5 1.043479e-07,13.511995 7.038814e-14,24 C 7.038814e-14,34.488005 10.751994,43.000001 24,43 C 37.248005,43 48.000001,34.488006 48,24 C 48,13.511995 37.248004,4.9999999 24,5 z M 24,17.294117 C 28.005188,17.294116 31.255814,19.797657 31.255814,22.882352 C 31.255813,25.967049 28.005187,28.470588 24,28.470588 C 19.994813,28.470588 16.744186,25.967048 16.744186,22.882352 C 16.744186,19.797658 19.994813,17.294117 24,17.294117 z "
       id="path2835" />
    <path
       style="opacity:1;fill:#f3f3f3;fill-opacity:1;stroke:url(#radialGradient2807);stroke-width:0.954193;stroke-linecap:round;stroke-linejoin:round;stroke-miterlimit:4;stroke-dasharray:none;stroke-opacity:1"
       d="M 24 6.5 C 12.131995 6.5 2.5000001 14.115996 2.5 23.5 C 2.5 32.884004 12.131994 40.500001 24 40.5 C 35.868005 40.5 45.500001 32.884005 45.5 23.5 C 45.5 14.115996 35.868004 6.4999999 24 6.5 z M 24 17.5 C 27.58798 17.499999 30.5 19.740009 30.5 22.5 C 30.499999 25.259992 27.587979 27.5 24 27.5 C 20.412021 27.5 17.5 25.259991 17.5 22.5 C 17.5 19.74001 20.412021 17.5 24 17.5 z "
       id="path1890" />
    <path
       sodipodi:type="arc"
       style="opacity:1;fill:none;fill-opacity:1.0;stroke:url(#linearGradient2794);stroke-width:1.00726318;stroke-linecap:round;stroke-linejoin:round;stroke-miterlimit:4;stroke-dasharray:none;stroke-opacity:1"
       id="path2778"
       sodipodi:cx="26.058823"
       sodipodi:cy="22.941177"
       sodipodi:rx="20.647058"
       sodipodi:ry="16.117647"
       d="M 46.705881 22.941177 A 20.647058 16.117647 0 1 1  5.4117641,22.941177 A 20.647058 16.117647 0 1 1  46.705881 22.941177 z"
       transform="matrix(0.992878,0,0,0.992701,-1.873221,0.726274)" />
    <path
       sodipodi:type="arc"
       style="opacity:1;fill:none;fill-opacity:1;stroke:black;stroke-width:7.09483433;stroke-linecap:round;stroke-linejoin:round;stroke-miterlimit:4;stroke-dasharray:none;stroke-opacity:0.06896554"
       id="path2796"
       sodipodi:cx="26.058823"
       sodipodi:cy="22.941177"
       sodipodi:rx="20.647058"
       sodipodi:ry="16.117647"
       d="M 46.705881 22.941177 A 20.647058 16.117647 0 1 1  5.4117641,22.941177 A 20.647058 16.117647 0 1 1  46.705881 22.941177 z"
       transform="matrix(0.411681,0,0,0.434307,13.27207,12.53649)" />
    <path
       style="opacity:1;fill:white;fill-opacity:0.72906405;stroke:none;stroke-width:3.19993043;stroke-linecap:round;stroke-linejoin:round;stroke-miterlimit:4;stroke-dasharray:none;stroke-opacity:0.11372549"
       d="M 24 17.5 C 20.412021 17.5 17.5 19.74001 17.5 22.5 C 17.5 25.259991 20.412021 27.5 24 27.5 C 27.587979 27.5 30.499999 25.259992 30.5 22.5 C 30.5 19.740009 27.58798 17.499999 24 17.5 z M 24 20 C 25.793983 19.999999 27.25 21.120013 27.25 22.5 C 27.250001 23.879987 25.793984 25 24 25 C 22.206015 25.000001 20.75 23.879987 20.75 22.5 C 20.75 21.120013 22.206016 20 24 20 z "
       id="path2812" />
    <path
       sodipodi:type="arc"
       style="opacity:1;fill:none;fill-opacity:1.0;stroke:url(#linearGradient2794);stroke-width:1.00726318;stroke-linecap:round;stroke-linejoin:round;stroke-miterlimit:4;stroke-dasharray:none;stroke-opacity:1"
       id="path2817"
       sodipodi:cx="26.058823"
       sodipodi:cy="22.941177"
       sodipodi:rx="20.647058"
       sodipodi:ry="16.117647"
       d="M 46.705881 22.941177 A 20.647058 16.117647 0 1 1  5.4117641,22.941177 A 20.647058 16.117647 0 1 1  46.705881 22.941177 z"
       transform="matrix(0.992878,0,0,0.992701,-1.873221,0.726274)" />
    <path
       style="opacity:1;fill:url(#radialGradient2833);fill-opacity:1.0;stroke:none;stroke-width:1.00726318;stroke-linecap:round;stroke-linejoin:round;stroke-miterlimit:4;stroke-dasharray:none;stroke-opacity:1"
       d="M 15.21875 9.03125 C 9.1753493 11.266844 5.2338802 15.196607 3.90625 20.3125 L 20.8125 23 C 20.768988 22.837305 20.75 22.6725 20.75 22.5 C 20.75 21.650296 21.309418 20.920558 22.15625 20.46875 L 15.21875 9.03125 z M 26.96875 23.5 C 26.594383 24.147851 25.88943 24.655868 25 24.875 L 34.25 37.34375 C 40.783299 34.399749 44.500002 29.388002 44.5 23.5 L 26.96875 23.5 z "
       id="path2819" />
    <path
       style="opacity:1;fill:url(#radialGradient2787);fill-opacity:1.0;stroke:none;stroke-width:3.19993043;stroke-linecap:round;stroke-linejoin:round;stroke-miterlimit:4;stroke-dasharray:none;stroke-opacity:0.11372549"
       d="M 24,17.5 C 20.412021,17.5 17.5,19.74001 17.5,22.5 C 17.5,25.259991 20.412021,27.5 24,27.5 C 27.587979,27.5 30.499999,25.259992 30.5,22.5 C 30.5,19.740009 27.58798,17.499999 24,17.5 z "
       id="path1893"
       sodipodi:nodetypes="csssc" />
  </g>
</svg>
