<?xml version="1.0" encoding="UTF-8" standalone="no"?>
<!-- Created with Inkscape (http://www.inkscape.org/) -->
<svg
   xmlns:dc="http://purl.org/dc/elements/1.1/"
   xmlns:cc="http://web.resource.org/cc/"
   xmlns:rdf="http://www.w3.org/1999/02/22-rdf-syntax-ns#"
   xmlns:svg="http://www.w3.org/2000/svg"
   xmlns="http://www.w3.org/2000/svg"
   xmlns:xlink="http://www.w3.org/1999/xlink"
   xmlns:sodipodi="http://inkscape.sourceforge.net/DTD/sodipodi-0.dtd"
   xmlns:inkscape="http://www.inkscape.org/namespaces/inkscape"
   width="48"
   height="48"
   id="svg1332"
   sodipodi:version="0.32"
   inkscape:version="0.43"
   version="1.0"
   sodipodi:docbase="/home/silvestre/Desktop/Gion/scalable/mimetypes"
   sodipodi:docname="application-certificate.svg"
   inkscape:export-filename="/home/silvestre/Desktop/Gion/PNGs/application-certificate.png"
   inkscape:export-xdpi="90"
   inkscape:export-ydpi="90">
  <defs
     id="defs1334">
    <linearGradient
       id="linearGradient2443">
      <stop
         style="stop-color:#000000;stop-opacity:0.32323232;"
         offset="0"
         id="stop2445" />
      <stop
         id="stop2459"
         offset="0.125"
         style="stop-color:#ffffff;stop-opacity:0.03921569;" />
      <stop
         id="stop2455"
         offset="0"
         style="stop-color:#ffffff;stop-opacity:0.08235294;" />
      <stop
         style="stop-color:#ffffff;stop-opacity:0.1254902;"
         offset="0"
         id="stop2457" />
      <stop
         id="stop2453"
         offset="0.25"
         style="stop-color:#ffffff;stop-opacity:0.17171717;" />
      <stop
         id="stop2451"
         offset="0.5"
         style="stop-color:#ffffff;stop-opacity:0.76767677;" />
      <stop
         style="stop-color:#ffffff;stop-opacity:0;"
         offset="1"
         id="stop2447" />
    </linearGradient>
    <linearGradient
       inkscape:collect="always"
       id="linearGradient2425">
      <stop
         style="stop-color:#ffffff;stop-opacity:1;"
         offset="0"
         id="stop2427" />
      <stop
         style="stop-color:#ffffff;stop-opacity:0;"
         offset="1"
         id="stop2429" />
    </linearGradient>
    <linearGradient
       inkscape:collect="always"
       id="linearGradient2266">
      <stop
         style="stop-color:#ffffff;stop-opacity:0.56652361"
         offset="0"
         id="stop2268" />
      <stop
         style="stop-color:#ffffff;stop-opacity:0;"
         offset="1"
         id="stop2270" />
    </linearGradient>
    <linearGradient
       id="linearGradient2254">
      <stop
         style="stop-color:#000000;stop-opacity:0"
         offset="0"
         id="stop2256" />
      <stop
         id="stop2262"
         offset="0.72727275"
         style="stop-color:#000000;stop-opacity:0;" />
      <stop
         style="stop-color:#000000;stop-opacity:0.42918456"
         offset="1"
         id="stop2258" />
    </linearGradient>
    <linearGradient
       inkscape:collect="always"
       id="linearGradient2244">
      <stop
         style="stop-color:#ffffff;stop-opacity:0.24034335"
         offset="0"
         id="stop2246" />
      <stop
         style="stop-color:#ffffff;stop-opacity:0;"
         offset="1"
         id="stop2248" />
    </linearGradient>
    <linearGradient
       inkscape:collect="always"
       id="linearGradient2228">
      <stop
         style="stop-color:#ffffff;stop-opacity:0.65665233"
         offset="0"
         id="stop2230" />
      <stop
         style="stop-color:#000000;stop-opacity:0.27896994"
         offset="1"
         id="stop2232" />
    </linearGradient>
    <linearGradient
       inkscape:collect="always"
       id="linearGradient2218">
      <stop
         style="stop-color:#ffffff;stop-opacity:0.70588237"
         offset="0"
         id="stop2220" />
      <stop
         style="stop-color:#ffffff;stop-opacity:0.26274511"
         offset="1"
         id="stop2222" />
    </linearGradient>
    <linearGradient
       inkscape:collect="always"
       xlink:href="#linearGradient2218"
       id="linearGradient2224"
       x1="16.5"
       y1="4.875"
       x2="22.466305"
       y2="26.692993"
       gradientUnits="userSpaceOnUse"
       gradientTransform="translate(3.992997,0)" />
    <linearGradient
       inkscape:collect="always"
       xlink:href="#linearGradient2228"
       id="linearGradient2234"
       x1="13.028255"
       y1="11.267202"
       x2="20.184097"
       y2="18.396837"
       gradientUnits="userSpaceOnUse" />
    <linearGradient
       inkscape:collect="always"
       xlink:href="#linearGradient2228"
       id="linearGradient2240"
       gradientUnits="userSpaceOnUse"
       x1="25.050171"
       y1="18.396837"
       x2="14.236766"
       y2="12.155531" />
    <radialGradient
       inkscape:collect="always"
       xlink:href="#linearGradient2244"
       id="radialGradient2250"
       cx="21.3125"
       cy="21.875"
       fx="21.3125"
       fy="21.875"
       r="15.5"
       gradientUnits="userSpaceOnUse"
       gradientTransform="translate(3.992997,0)" />
    <radialGradient
       inkscape:collect="always"
       xlink:href="#linearGradient2254"
       id="radialGradient2260"
       cx="18.786041"
       cy="18.949614"
       fx="18.786041"
       fy="18.949614"
       r="15.5"
       gradientUnits="userSpaceOnUse"
       gradientTransform="matrix(1.016432,2.292073e-16,-2.292073e-16,1.016432,5.398267,1.364008)" />
    <radialGradient
       inkscape:collect="always"
       xlink:href="#linearGradient2266"
       id="radialGradient2272"
       cx="16.195312"
       cy="16.023438"
       fx="16.195312"
       fy="16.023438"
       r="6.125"
       gradientUnits="userSpaceOnUse" />
    <linearGradient
       inkscape:collect="always"
       xlink:href="#linearGradient2443"
       id="linearGradient2467"
       gradientUnits="userSpaceOnUse"
       gradientTransform="matrix(0.922882,0,0,1,6.13813,0)"
       x1="31.625"
       y1="31.999504"
       x2="31.625"
       y2="39.875809" />
    <linearGradient
       inkscape:collect="always"
       xlink:href="#linearGradient2425"
       id="linearGradient2471"
       gradientUnits="userSpaceOnUse"
       gradientTransform="matrix(0.960741,0,0,1,4.815004,0)"
       x1="30.238298"
       y1="43.880363"
       x2="25.946463"
       y2="27.863014" />
  </defs>
  <sodipodi:namedview
     id="base"
     pagecolor="#ffffff"
     bordercolor="#666666"
     borderopacity="1.0"
     inkscape:pageopacity="0.0"
     inkscape:pageshadow="2"
     inkscape:zoom="1"
     inkscape:cx="24"
     inkscape:cy="24"
     inkscape:document-units="px"
     inkscape:current-layer="layer2"
     showgrid="false"
     inkscape:grid-bbox="true"
     inkscape:window-width="889"
     inkscape:window-height="583"
     inkscape:window-x="147"
     inkscape:window-y="241"
     inkscape:showpageshadow="false"
     showborder="false" />
  <metadata
     id="metadata1337">
    <rdf:RDF>
      <cc:Work
         rdf:about="">
        <dc:format>image/svg+xml</dc:format>
        <dc:type
           rdf:resource="http://purl.org/dc/dcmitype/StillImage" />
        <dc:title>Certificate</dc:title>
        <dc:creator>
          <cc:Agent>
            <dc:title>Silvestre Herrera</dc:title>
          </cc:Agent>
        </dc:creator>
        <cc:license
           rdf:resource="http://creativecommons.org/licenses/GPL/2.0/" />
      </cc:Work>
      <cc:License
         rdf:about="http://creativecommons.org/licenses/GPL/2.0/">
        <cc:permits
           rdf:resource="http://web.resource.org/cc/Reproduction" />
        <cc:permits
           rdf:resource="http://web.resource.org/cc/Distribution" />
        <cc:requires
           rdf:resource="http://web.resource.org/cc/Notice" />
        <cc:permits
           rdf:resource="http://web.resource.org/cc/DerivativeWorks" />
        <cc:requires
           rdf:resource="http://web.resource.org/cc/ShareAlike" />
        <cc:requires
           rdf:resource="http://web.resource.org/cc/SourceCode" />
      </cc:License>
    </rdf:RDF>
  </metadata>
  <g
     inkscape:label="Capa 1"
     inkscape:groupmode="layer"
     id="layer1">
    <path
       id="path5112"
       d="M 26.308003,18.491575 C 26.308003,18.491575 20.485978,26.529655 20.485978,30.213775 C 20.485978,33.897895 27.2037,31.888375 29.890788,34.567735 C 32.577877,37.247094 23.620914,44.168774 23.620914,44.168774 L 32.577877,41.712694 L 36.160662,45.508454 C 36.160662,40.931214 41.422877,37.247094 38.735789,34.456095 C 35.936738,31.665095 27.987433,32.000014 27.539585,28.315895 C 27.091737,24.631775 26.419965,18.603215 26.419965,18.603215 L 26.308003,18.491575 z "
       style="fill:#2479b8;fill-opacity:1;fill-rule:nonzero;stroke:#14618b;stroke-width:1.00000012;stroke-miterlimit:6.5999999;stroke-opacity:1" />
    <path
       style="font-size:8px;font-style:normal;font-variant:normal;font-weight:bold;font-stretch:normal;text-align:start;line-height:125%;writing-mode:lr-tb;text-anchor:start;fill:#000000;fill-opacity:1;stroke:none;stroke-width:1px;stroke-linecap:butt;stroke-linejoin:miter;stroke-opacity:1;font-family:Bitstream Vera Sans"
       d="M 5.2734375,62.566406 C 4.9973908,62.709636 4.7096306,62.817708 4.4101562,62.890625 C 4.1106729,62.963542 3.7981732,63 3.4726562,63 C 2.5012995,63 1.731769,62.729167 1.1640625,62.1875 C 0.59635348,61.64323 0.3124996,60.906252 0.3125,59.976562 C 0.3124996,59.044275 0.59635348,58.307296 1.1640625,57.765625 C 1.731769,57.22136 2.5012995,56.949225 3.4726562,56.949219 C 3.7981732,56.949225 4.1106729,56.985683 4.4101562,57.058594 C 4.7096306,57.131516 4.9973908,57.239589 5.2734375,57.382812 L 5.2734375,58.589844 C 4.9947866,58.399744 4.7200473,58.260421 4.4492188,58.171875 C 4.1783812,58.083338 3.8932252,58.039067 3.59375,58.039062 C 3.0572885,58.039067 2.6354139,58.210942 2.328125,58.554688 C 2.0208312,58.898441 1.8671855,59.372399 1.8671875,59.976562 C 1.8671855,60.578127 2.0208312,61.050783 2.328125,61.394531 C 2.6354139,61.738282 3.0572885,61.910157 3.59375,61.910156 C 3.8932252,61.910157 4.1783812,61.865886 4.4492188,61.777344 C 4.7200473,61.688803 4.9947866,61.549481 5.2734375,61.359375 L 5.2734375,62.566406 M 10.828125,60.6875 L 10.828125,61.085938 L 7.5585938,61.085938 C 7.5924461,61.414064 7.7109356,61.660157 7.9140625,61.824219 C 8.1171852,61.988282 8.4010391,62.070313 8.765625,62.070312 C 9.0598926,62.070313 9.3606735,62.027345 9.6679688,61.941406 C 9.9778604,61.852866 10.295568,61.720053 10.621094,61.542969 L 10.621094,62.621094 C 10.29036,62.746094 9.9596312,62.839844 9.6289062,62.902344 C 9.2981736,62.967448 8.9674447,63 8.6367188,63 C 7.84505,63 7.2291652,62.799479 6.7890625,62.398438 C 6.3515619,61.994793 6.1328122,61.429689 6.1328125,60.703125 C 6.1328122,59.989586 6.3476557,59.428389 6.7773438,59.019531 C 7.209634,58.610681 7.8033834,58.406254 8.5585938,58.40625 C 9.2460903,58.406254 9.7955689,58.613286 10.207031,59.027344 C 10.621089,59.44141 10.82812,59.994795 10.828125,60.6875 M 9.390625,60.222656 C 9.3906214,59.957034 9.3124965,59.743493 9.15625,59.582031 C 9.002601,59.417972 8.8007782,59.335941 8.5507812,59.335938 C 8.2799454,59.335941 8.0598936,59.412764 7.890625,59.566406 C 7.7213522,59.717451 7.6158836,59.936201 7.5742188,60.222656 L 9.390625,60.222656 M 15.148438,59.703125 C 15.026038,59.645837 14.903642,59.60417 14.78125,59.578125 C 14.661455,59.549483 14.540361,59.53516 14.417969,59.535156 C 14.058591,59.53516 13.781247,59.651045 13.585938,59.882812 C 13.393227,60.111982 13.296873,60.441409 13.296875,60.871094 L 13.296875,62.886719 L 11.898438,62.886719 L 11.898438,58.511719 L 13.296875,58.511719 L 13.296875,59.230469 C 13.47656,58.944014 13.682289,58.735681 13.914062,58.605469 C 14.148435,58.472661 14.428382,58.406254 14.753906,58.40625 C 14.800778,58.406254 14.851559,58.408859 14.90625,58.414062 C 14.960934,58.416671 15.040361,58.424484 15.144531,58.4375 L 15.148438,59.703125 M 17.378906,57.269531 L 17.378906,58.511719 L 18.820312,58.511719 L 18.820312,59.511719 L 17.378906,59.511719 L 17.378906,61.367188 C 17.378904,61.570314 17.419269,61.708335 17.5,61.78125 C 17.580727,61.851564 17.740883,61.88672 17.980469,61.886719 L 18.699219,61.886719 L 18.699219,62.886719 L 17.5,62.886719 C 16.947915,62.886719 16.555988,62.772136 16.324219,62.542969 C 16.095051,62.311198 15.980468,61.919272 15.980469,61.367188 L 15.980469,59.511719 L 15.285156,59.511719 L 15.285156,58.511719 L 15.980469,58.511719 L 15.980469,57.269531 L 17.378906,57.269531 M 19.679688,58.511719 L 21.078125,58.511719 L 21.078125,62.886719 L 19.679688,62.886719 L 19.679688,58.511719 M 19.679688,56.808594 L 21.078125,56.808594 L 21.078125,57.949219 L 19.679688,57.949219 L 19.679688,56.808594 M 25.308594,56.808594 L 25.308594,57.726562 L 24.535156,57.726562 C 24.337237,57.726568 24.199216,57.763026 24.121094,57.835938 C 24.042966,57.906255 24.003904,58.029953 24.003906,58.207031 L 24.003906,58.511719 L 25.199219,58.511719 L 25.199219,59.511719 L 24.003906,59.511719 L 24.003906,62.886719 L 22.605469,62.886719 L 22.605469,59.511719 L 21.910156,59.511719 L 21.910156,58.511719 L 22.605469,58.511719 L 22.605469,58.207031 C 22.605468,57.730474 22.73828,57.378912 23.003906,57.152344 C 23.26953,56.923183 23.680988,56.8086 24.238281,56.808594 L 25.308594,56.808594 M 25.914062,58.511719 L 27.3125,58.511719 L 27.3125,62.886719 L 25.914062,62.886719 L 25.914062,58.511719 M 25.914062,56.808594 L 27.3125,56.808594 L 27.3125,57.949219 L 25.914062,57.949219 L 25.914062,56.808594 M 32.199219,58.648438 L 32.199219,59.789062 C 32.009111,59.658857 31.817705,59.562503 31.625,59.5 C 31.434892,59.437503 31.236976,59.406253 31.03125,59.40625 C 30.640622,59.406253 30.335935,59.520837 30.117188,59.75 C 29.90104,59.976565 29.792967,60.294273 29.792969,60.703125 C 29.792967,61.111981 29.90104,61.430991 30.117188,61.660156 C 30.335935,61.88672 30.640622,62.000001 31.03125,62 C 31.249997,62.000001 31.457028,61.967449 31.652344,61.902344 C 31.850257,61.837241 32.032548,61.740887 32.199219,61.613281 L 32.199219,62.757812 C 31.980465,62.838542 31.757809,62.898437 31.53125,62.9375 C 31.307288,62.979167 31.082028,63 30.855469,63 C 30.066404,63 29.449217,62.798177 29.003906,62.394531 C 28.558593,61.988282 28.335937,61.424481 28.335938,60.703125 C 28.335937,59.981774 28.558593,59.419274 29.003906,59.015625 C 29.449217,58.609379 30.066404,58.406254 30.855469,58.40625 C 31.084632,58.406254 31.309893,58.427088 31.53125,58.46875 C 31.755205,58.507817 31.977861,58.567713 32.199219,58.648438 M 35.375,60.917969 C 35.083331,60.917971 34.863279,60.96745 34.714844,61.066406 C 34.569009,61.165366 34.496092,61.311199 34.496094,61.503906 C 34.496092,61.680991 34.554686,61.820314 34.671875,61.921875 C 34.791665,62.020834 34.957029,62.070313 35.167969,62.070312 C 35.430987,62.070313 35.652341,61.976563 35.832031,61.789062 C 36.011715,61.59896 36.101559,61.361981 36.101562,61.078125 L 36.101562,60.917969 L 35.375,60.917969 M 37.511719,60.390625 L 37.511719,62.886719 L 36.101562,62.886719 L 36.101562,62.238281 C 35.914059,62.503907 35.703122,62.697917 35.46875,62.820312 C 35.234373,62.940104 34.949217,63 34.613281,63 C 34.160155,63 33.791666,62.86849 33.507812,62.605469 C 33.226562,62.339844 33.085937,61.996095 33.085938,61.574219 C 33.085937,61.0612 33.261718,60.684898 33.613281,60.445312 C 33.967447,60.205732 34.522134,60.08594 35.277344,60.085938 L 36.101562,60.085938 L 36.101562,59.976562 C 36.101559,59.755211 36.01432,59.593753 35.839844,59.492188 C 35.665362,59.388024 35.393227,59.335941 35.023438,59.335938 C 34.723956,59.335941 34.445311,59.365889 34.1875,59.425781 C 33.929686,59.48568 33.690103,59.575524 33.46875,59.695312 L 33.46875,58.628906 C 33.768228,58.555994 34.069009,58.501306 34.371094,58.464844 C 34.673175,58.425786 34.975258,58.406254 35.277344,58.40625 C 36.066403,58.406254 36.635413,58.562504 36.984375,58.875 C 37.335933,59.1849 37.511714,59.690107 37.511719,60.390625 M 40.332031,57.269531 L 40.332031,58.511719 L 41.773438,58.511719 L 41.773438,59.511719 L 40.332031,59.511719 L 40.332031,61.367188 C 40.332029,61.570314 40.372394,61.708335 40.453125,61.78125 C 40.533852,61.851564 40.694008,61.88672 40.933594,61.886719 L 41.652344,61.886719 L 41.652344,62.886719 L 40.453125,62.886719 C 39.90104,62.886719 39.509113,62.772136 39.277344,62.542969 C 39.048176,62.311198 38.933593,61.919272 38.933594,61.367188 L 38.933594,59.511719 L 38.238281,59.511719 L 38.238281,58.511719 L 38.933594,58.511719 L 38.933594,57.269531 L 40.332031,57.269531 M 47,60.6875 L 47,61.085938 L 43.730469,61.085938 C 43.764321,61.414064 43.882811,61.660157 44.085938,61.824219 C 44.28906,61.988282 44.572914,62.070313 44.9375,62.070312 C 45.231768,62.070313 45.532549,62.027345 45.839844,61.941406 C 46.149735,61.852866 46.467443,61.720053 46.792969,61.542969 L 46.792969,62.621094 C 46.462235,62.746094 46.131506,62.839844 45.800781,62.902344 C 45.470049,62.967448 45.13932,63 44.808594,63 C 44.016925,63 43.40104,62.799479 42.960938,62.398438 C 42.523437,61.994793 42.304687,61.429689 42.304688,60.703125 C 42.304687,59.989586 42.519531,59.428389 42.949219,59.019531 C 43.381509,58.610681 43.975258,58.406254 44.730469,58.40625 C 45.417965,58.406254 45.967444,58.613286 46.378906,59.027344 C 46.792964,59.44141 46.999995,59.994795 47,60.6875 M 45.5625,60.222656 C 45.562496,59.957034 45.484371,59.743493 45.328125,59.582031 C 45.174476,59.417972 44.972653,59.335941 44.722656,59.335938 C 44.45182,59.335941 44.231769,59.412764 44.0625,59.566406 C 43.893227,59.717451 43.787759,59.936201 43.746094,60.222656 L 45.5625,60.222656"
       id="text3346" />
    <path
       style="font-size:8px;font-style:normal;font-variant:normal;font-weight:normal;font-stretch:normal;text-align:start;line-height:125%;writing-mode:lr-tb;text-anchor:start;fill:#646464;fill-opacity:1;stroke:none;stroke-width:1px;stroke-linecap:butt;stroke-linejoin:miter;stroke-opacity:1;font-family:Bitstream Vera Sans"
       d="M 3.8085938,68.152344 C 3.8085899,67.623701 3.699215,67.209639 3.4804688,66.910156 C 3.2643196,66.608077 2.9661428,66.457035 2.5859375,66.457031 C 2.2057269,66.457035 1.906248,66.608077 1.6875,66.910156 C 1.4713526,67.209639 1.3632798,67.623701 1.3632812,68.152344 C 1.3632798,68.680991 1.4713526,69.096355 1.6875,69.398438 C 1.906248,69.697917 2.2057269,69.847657 2.5859375,69.847656 C 2.9661428,69.847657 3.2643196,69.697917 3.4804688,69.398438 C 3.699215,69.096355 3.8085899,68.680991 3.8085938,68.152344 M 1.3632812,66.625 C 1.5143213,66.364587 1.7044253,66.171879 1.9335938,66.046875 C 2.1653623,65.919275 2.4414037,65.855473 2.7617188,65.855469 C 3.2929654,65.855473 3.7239545,66.066411 4.0546875,66.488281 C 4.3880164,66.91016 4.5546829,67.464847 4.5546875,68.152344 C 4.5546829,68.839845 4.3880164,69.394532 4.0546875,69.816406 C 3.7239545,70.238281 3.2929654,70.449219 2.7617188,70.449219 C 2.4414037,70.449219 2.1653623,70.386719 1.9335938,70.261719 C 1.7044253,70.134115 1.5143213,69.940105 1.3632812,69.679688 L 1.3632812,70.335938 L 0.640625,70.335938 L 0.640625,64.257812 L 1.3632812,64.257812 L 1.3632812,66.625 M 7.5664062,70.742188 C 7.3632789,71.26302 7.1653624,71.602863 6.9726562,71.761719 C 6.7799461,71.920571 6.5221339,71.999998 6.1992188,72 L 5.625,72 L 5.625,71.398438 L 6.046875,71.398438 C 6.2447904,71.398436 6.3984361,71.351561 6.5078125,71.257812 C 6.6171859,71.164062 6.7382795,70.942708 6.8710938,70.59375 L 7,70.265625 L 5.2304688,65.960938 L 5.9921875,65.960938 L 7.359375,69.382812 L 8.7265625,65.960938 L 9.4882812,65.960938 L 7.5664062,70.742188 M 16.554688,64.695312 L 16.554688,65.464844 C 16.255204,65.32162 15.972653,65.214849 15.707031,65.144531 C 15.441403,65.074224 15.184893,65.039068 14.9375,65.039062 C 14.50781,65.039068 14.175779,65.122401 13.941406,65.289062 C 13.709634,65.455734 13.593749,65.692713 13.59375,66 C 13.593749,66.257817 13.670572,66.453129 13.824219,66.585938 C 13.980467,66.716149 14.274738,66.821618 14.707031,66.902344 L 15.183594,67 C 15.772132,67.111982 16.205725,67.309899 16.484375,67.59375 C 16.765621,67.875002 16.906245,68.252606 16.90625,68.726562 C 16.906245,69.291668 16.716141,69.720053 16.335938,70.011719 C 15.95833,70.303385 15.403643,70.449219 14.671875,70.449219 C 14.395831,70.449219 14.101561,70.417969 13.789062,70.355469 C 13.479165,70.292969 13.157551,70.200521 12.824219,70.078125 L 12.824219,69.265625 C 13.14453,69.445313 13.458332,69.58073 13.765625,69.671875 C 14.072915,69.763021 14.374998,69.808594 14.671875,69.808594 C 15.122393,69.808594 15.470049,69.720053 15.714844,69.542969 C 15.959632,69.365886 16.082027,69.113282 16.082031,68.785156 C 16.082027,68.4987 15.993486,68.274742 15.816406,68.113281 C 15.641924,67.951825 15.354164,67.830732 14.953125,67.75 L 14.472656,67.65625 C 13.884113,67.539065 13.458332,67.355472 13.195312,67.105469 C 12.932291,66.855472 12.800781,66.507816 12.800781,66.0625 C 12.800781,65.54688 12.98177,65.14063 13.34375,64.84375 C 13.708332,64.546881 14.209633,64.398443 14.847656,64.398438 C 15.121091,64.398443 15.399736,64.423183 15.683594,64.472656 C 15.967444,64.522141 16.257809,64.59636 16.554688,64.695312 M 18.121094,65.960938 L 18.839844,65.960938 L 18.839844,70.335938 L 18.121094,70.335938 L 18.121094,65.960938 M 18.121094,64.257812 L 18.839844,64.257812 L 18.839844,65.167969 L 18.121094,65.167969 L 18.121094,64.257812 M 20.339844,64.257812 L 21.058594,64.257812 L 21.058594,70.335938 L 20.339844,70.335938 L 20.339844,64.257812 M 22.042969,65.960938 L 22.804688,65.960938 L 24.171875,69.632812 L 25.539062,65.960938 L 26.300781,65.960938 L 24.660156,70.335938 L 23.683594,70.335938 L 22.042969,65.960938 M 31.035156,67.96875 L 31.035156,68.320312 L 27.730469,68.320312 C 27.761718,68.815106 27.910155,69.192709 28.175781,69.453125 C 28.444009,69.710938 28.816404,69.839844 29.292969,69.839844 C 29.569007,69.839844 29.835934,69.80599 30.09375,69.738281 C 30.354163,69.670574 30.611975,69.569011 30.867188,69.433594 L 30.867188,70.113281 C 30.609371,70.222656 30.345048,70.30599 30.074219,70.363281 C 29.803382,70.420573 29.528643,70.449219 29.25,70.449219 C 28.552081,70.449219 27.998696,70.246094 27.589844,69.839844 C 27.183593,69.433595 26.980468,68.884116 26.980469,68.191406 C 26.980468,67.475263 27.173176,66.907556 27.558594,66.488281 C 27.946613,66.066411 28.468748,65.855473 29.125,65.855469 C 29.713538,65.855473 30.178382,66.045577 30.519531,66.425781 C 30.863277,66.803389 31.035152,67.317711 31.035156,67.96875 M 30.316406,67.757812 C 30.311194,67.364586 30.200517,67.050785 29.984375,66.816406 C 29.77083,66.582035 29.486976,66.464848 29.132812,66.464844 C 28.731769,66.464848 28.410154,66.578129 28.167969,66.804688 C 27.928384,67.031253 27.790363,67.350263 27.753906,67.761719 L 30.316406,67.757812 M 34.988281,66.089844 L 34.988281,66.769531 C 34.785153,66.665368 34.574216,66.587243 34.355469,66.535156 C 34.136716,66.483077 33.910154,66.457035 33.675781,66.457031 C 33.319009,66.457035 33.05078,66.511723 32.871094,66.621094 C 32.694009,66.730472 32.605468,66.894535 32.605469,67.113281 C 32.605468,67.279951 32.66927,67.411461 32.796875,67.507812 C 32.924478,67.601565 33.180988,67.691409 33.566406,67.777344 L 33.8125,67.832031 C 34.322914,67.941409 34.684893,68.096356 34.898438,68.296875 C 35.11458,68.494794 35.222652,68.772137 35.222656,69.128906 C 35.222652,69.535157 35.061194,69.856771 34.738281,70.09375 C 34.417966,70.330729 33.97656,70.449219 33.414062,70.449219 C 33.179686,70.449219 32.934894,70.425781 32.679688,70.378906 C 32.427082,70.334635 32.160156,70.266927 31.878906,70.175781 L 31.878906,69.433594 C 32.144531,69.571615 32.406249,69.675782 32.664062,69.746094 C 32.921874,69.813803 33.177082,69.847657 33.429688,69.847656 C 33.768227,69.847657 34.028643,69.790365 34.210938,69.675781 C 34.393226,69.558595 34.484372,69.394532 34.484375,69.183594 C 34.484372,68.988283 34.417966,68.838543 34.285156,68.734375 C 34.154945,68.63021 33.867185,68.52995 33.421875,68.433594 L 33.171875,68.375 C 32.726561,68.281252 32.404947,68.138023 32.207031,67.945312 C 32.009114,67.750003 31.910156,67.483076 31.910156,67.144531 C 31.910156,66.733077 32.055989,66.415369 32.347656,66.191406 C 32.639322,65.967452 33.053384,65.855473 33.589844,65.855469 C 33.855466,65.855473 34.105466,65.875004 34.339844,65.914062 C 34.574216,65.953129 34.790361,66.011723 34.988281,66.089844 M 37.066406,64.71875 L 37.066406,65.960938 L 38.546875,65.960938 L 38.546875,66.519531 L 37.066406,66.519531 L 37.066406,68.894531 C 37.066405,69.251303 37.114582,69.48047 37.210938,69.582031 C 37.309894,69.683594 37.509113,69.734376 37.808594,69.734375 L 38.546875,69.734375 L 38.546875,70.335938 L 37.808594,70.335938 C 37.253905,70.335938 36.871092,70.233073 36.660156,70.027344 C 36.449218,69.819011 36.343749,69.441407 36.34375,68.894531 L 36.34375,66.519531 L 35.816406,66.519531 L 35.816406,65.960938 L 36.34375,65.960938 L 36.34375,64.71875 L 37.066406,64.71875 M 42.03125,66.632812 C 41.950518,66.585941 41.861976,66.552087 41.765625,66.53125 C 41.671872,66.507816 41.567706,66.496098 41.453125,66.496094 C 41.046873,66.496098 40.734373,66.62891 40.515625,66.894531 C 40.299478,67.157555 40.191405,67.536461 40.191406,68.03125 L 40.191406,70.335938 L 39.46875,70.335938 L 39.46875,65.960938 L 40.191406,65.960938 L 40.191406,66.640625 C 40.342446,66.375004 40.539061,66.17839 40.78125,66.050781 C 41.023435,65.920577 41.317706,65.855473 41.664062,65.855469 C 41.713539,65.855473 41.768226,65.859379 41.828125,65.867188 C 41.888018,65.8724 41.954424,65.881515 42.027344,65.894531 L 42.03125,66.632812 M 46.519531,67.96875 L 46.519531,68.320312 L 43.214844,68.320312 C 43.246093,68.815106 43.39453,69.192709 43.660156,69.453125 C 43.928384,69.710938 44.300779,69.839844 44.777344,69.839844 C 45.053382,69.839844 45.320309,69.80599 45.578125,69.738281 C 45.838538,69.670574 46.09635,69.569011 46.351562,69.433594 L 46.351562,70.113281 C 46.093746,70.222656 45.829423,70.30599 45.558594,70.363281 C 45.287757,70.420573 45.013018,70.449219 44.734375,70.449219 C 44.036456,70.449219 43.483071,70.246094 43.074219,69.839844 C 42.667968,69.433595 42.464843,68.884116 42.464844,68.191406 C 42.464843,67.475263 42.657551,66.907556 43.042969,66.488281 C 43.430988,66.066411 43.953123,65.855473 44.609375,65.855469 C 45.197913,65.855473 45.662757,66.045577 46.003906,66.425781 C 46.347652,66.803389 46.519527,67.317711 46.519531,67.96875 M 45.800781,67.757812 C 45.795569,67.364586 45.684892,67.050785 45.46875,66.816406 C 45.255205,66.582035 44.971351,66.464848 44.617188,66.464844 C 44.216144,66.464848 43.894529,66.578129 43.652344,66.804688 C 43.412759,67.031253 43.274738,67.350263 43.238281,67.761719 L 45.800781,67.757812 M 50.261719,64.503906 L 51.050781,64.503906 L 51.050781,66.894531 L 53.917969,66.894531 L 53.917969,64.503906 L 54.707031,64.503906 L 54.707031,70.335938 L 53.917969,70.335938 L 53.917969,67.558594 L 51.050781,67.558594 L 51.050781,70.335938 L 50.261719,70.335938 L 50.261719,64.503906 M 59.988281,67.96875 L 59.988281,68.320312 L 56.683594,68.320312 C 56.714843,68.815106 56.86328,69.192709 57.128906,69.453125 C 57.397134,69.710938 57.769529,69.839844 58.246094,69.839844 C 58.522132,69.839844 58.789059,69.80599 59.046875,69.738281 C 59.307288,69.670574 59.5651,69.569011 59.820312,69.433594 L 59.820312,70.113281 C 59.562496,70.222656 59.298173,70.30599 59.027344,70.363281 C 58.756507,70.420573 58.481768,70.449219 58.203125,70.449219 C 57.505206,70.449219 56.951821,70.246094 56.542969,69.839844 C 56.136718,69.433595 55.933593,68.884116 55.933594,68.191406 C 55.933593,67.475263 56.126301,66.907556 56.511719,66.488281 C 56.899738,66.066411 57.421873,65.855473 58.078125,65.855469 C 58.666663,65.855473 59.131507,66.045577 59.472656,66.425781 C 59.816402,66.803389 59.988277,67.317711 59.988281,67.96875 M 59.269531,67.757812 C 59.264319,67.364586 59.153642,67.050785 58.9375,66.816406 C 58.723955,66.582035 58.440101,66.464848 58.085938,66.464844 C 57.684894,66.464848 57.363279,66.578129 57.121094,66.804688 C 56.881509,67.031253 56.743488,67.350263 56.707031,67.761719 L 59.269531,67.757812 M 63.6875,66.632812 C 63.606768,66.585941 63.518226,66.552087 63.421875,66.53125 C 63.328122,66.507816 63.223956,66.496098 63.109375,66.496094 C 62.703123,66.496098 62.390623,66.62891 62.171875,66.894531 C 61.955728,67.157555 61.847655,67.536461 61.847656,68.03125 L 61.847656,70.335938 L 61.125,70.335938 L 61.125,65.960938 L 61.847656,65.960938 L 61.847656,66.640625 C 61.998696,66.375004 62.195311,66.17839 62.4375,66.050781 C 62.679685,65.920577 62.973956,65.855473 63.320312,65.855469 C 63.369789,65.855473 63.424476,65.859379 63.484375,65.867188 C 63.544268,65.8724 63.610674,65.881515 63.683594,65.894531 L 63.6875,66.632812 M 66.96875,66.632812 C 66.888018,66.585941 66.799476,66.552087 66.703125,66.53125 C 66.609372,66.507816 66.505206,66.496098 66.390625,66.496094 C 65.984373,66.496098 65.671873,66.62891 65.453125,66.894531 C 65.236978,67.157555 65.128905,67.536461 65.128906,68.03125 L 65.128906,70.335938 L 64.40625,70.335938 L 64.40625,65.960938 L 65.128906,65.960938 L 65.128906,66.640625 C 65.279946,66.375004 65.476561,66.17839 65.71875,66.050781 C 65.960935,65.920577 66.255206,65.855473 66.601562,65.855469 C 66.651039,65.855473 66.705726,65.859379 66.765625,65.867188 C 66.825518,65.8724 66.891924,65.881515 66.964844,65.894531 L 66.96875,66.632812 M 71.457031,67.96875 L 71.457031,68.320312 L 68.152344,68.320312 C 68.183593,68.815106 68.33203,69.192709 68.597656,69.453125 C 68.865884,69.710938 69.238279,69.839844 69.714844,69.839844 C 69.990882,69.839844 70.257809,69.80599 70.515625,69.738281 C 70.776038,69.670574 71.03385,69.569011 71.289062,69.433594 L 71.289062,70.113281 C 71.031246,70.222656 70.766923,70.30599 70.496094,70.363281 C 70.225257,70.420573 69.950518,70.449219 69.671875,70.449219 C 68.973956,70.449219 68.420571,70.246094 68.011719,69.839844 C 67.605468,69.433595 67.402343,68.884116 67.402344,68.191406 C 67.402343,67.475263 67.595051,66.907556 67.980469,66.488281 C 68.368488,66.066411 68.890623,65.855473 69.546875,65.855469 C 70.135413,65.855473 70.600257,66.045577 70.941406,66.425781 C 71.285152,66.803389 71.457027,67.317711 71.457031,67.96875 M 70.738281,67.757812 C 70.733069,67.364586 70.622392,67.050785 70.40625,66.816406 C 70.192705,66.582035 69.908851,66.464848 69.554688,66.464844 C 69.153644,66.464848 68.832029,66.578129 68.589844,66.804688 C 68.350259,67.031253 68.212238,67.350263 68.175781,67.761719 L 70.738281,67.757812 M 75.15625,66.632812 C 75.075518,66.585941 74.986976,66.552087 74.890625,66.53125 C 74.796872,66.507816 74.692706,66.496098 74.578125,66.496094 C 74.171873,66.496098 73.859373,66.62891 73.640625,66.894531 C 73.424478,67.157555 73.316405,67.536461 73.316406,68.03125 L 73.316406,70.335938 L 72.59375,70.335938 L 72.59375,65.960938 L 73.316406,65.960938 L 73.316406,66.640625 C 73.467446,66.375004 73.664061,66.17839 73.90625,66.050781 C 74.148435,65.920577 74.442706,65.855473 74.789062,65.855469 C 74.838539,65.855473 74.893226,65.859379 74.953125,65.867188 C 75.013018,65.8724 75.079424,65.881515 75.152344,65.894531 L 75.15625,66.632812 M 77.890625,68.136719 C 77.309894,68.136721 76.90755,68.203127 76.683594,68.335938 C 76.459634,68.468752 76.347655,68.695314 76.347656,69.015625 C 76.347655,69.270834 76.430988,69.473959 76.597656,69.625 C 76.766925,69.773438 76.996092,69.847657 77.285156,69.847656 C 77.683591,69.847657 78.002601,69.707032 78.242188,69.425781 C 78.484372,69.141928 78.605465,68.765627 78.605469,68.296875 L 78.605469,68.136719 L 77.890625,68.136719 M 79.324219,67.839844 L 79.324219,70.335938 L 78.605469,70.335938 L 78.605469,69.671875 C 78.441403,69.9375 78.236976,70.134115 77.992188,70.261719 C 77.747393,70.386719 77.447914,70.449219 77.09375,70.449219 C 76.645832,70.449219 76.289061,70.324219 76.023438,70.074219 C 75.760416,69.821615 75.628906,69.484376 75.628906,69.0625 C 75.628906,68.570314 75.792968,68.199221 76.121094,67.949219 C 76.451822,67.699221 76.944009,67.574222 77.597656,67.574219 L 78.605469,67.574219 L 78.605469,67.503906 C 78.605465,67.17318 78.49609,66.917972 78.277344,66.738281 C 78.061195,66.555993 77.756508,66.464848 77.363281,66.464844 C 77.113279,66.464848 76.86979,66.494796 76.632812,66.554688 C 76.395832,66.614587 76.167968,66.704431 75.949219,66.824219 L 75.949219,66.160156 C 76.212239,66.058598 76.467447,65.983077 76.714844,65.933594 C 76.962238,65.881515 77.203123,65.855473 77.4375,65.855469 C 78.07031,65.855473 78.542965,66.019536 78.855469,66.347656 C 79.167965,66.675785 79.324215,67.17318 79.324219,67.839844"
       id="text3350" />
  </g>
  <g
     inkscape:groupmode="layer"
     id="layer3"
     inkscape:label="light2"
     sodipodi:insensitive="true">
    <path
       sodipodi:nodetypes="cscccsss"
       style="fill:none;fill-opacity:1;fill-rule:nonzero;stroke:url(#linearGradient2471);stroke-width:0.72112525;stroke-miterlimit:6.5999999;stroke-opacity:1"
       d="M 23.632783,31.554488 C 28.006075,32.002872 30.770139,32.790013 31.132923,35.543595 C 31.450077,37.950834 27.066931,42.276554 27.066931,42.276554 L 32.681392,40.651808 L 35.411212,43.612758 C 36.0481,39.901818 39.604662,37.390754 37.984947,35.108154 C 35.95328,32.245006 29.370898,32.864687 29.056207,30.162402 C 28.741517,27.460116 21.049334,31.287017 23.632783,31.554488 z "
       id="path6680" />
    <path
       id="path2433"
       d="M 27.553913,19 C 27.553913,19 21.3125,26.735537 21.3125,30.280992 C 21.3125,32.951447 28.292977,31.892562 30.510168,34.471075 C 32.727357,37.049588 25.336723,43.710744 25.336723,43.710744 L 32.727357,41.347108 L 35.683612,45 C 35.683612,40.595042 40.371692,37.362088 38.154502,34.676137 C 35.844928,31.990186 28.939657,32 28.570126,28.454546 C 28.200593,24.909092 27.646296,19.107438 27.646296,19.107438 L 27.553913,19 z "
       style="fill:url(#linearGradient2467);fill-opacity:1;fill-rule:nonzero;stroke:none;stroke-width:1;stroke-miterlimit:6.5999999;stroke-opacity:1"
       sodipodi:nodetypes="cssccccscc" />
  </g>
  <g
     inkscape:groupmode="layer"
     id="layer4"
     inkscape:label="lacre">
    <path
       style="opacity:1;fill:#c62828;fill-opacity:1;stroke:#962d2d;stroke-width:0.99999988;stroke-linecap:round;stroke-linejoin:round;stroke-miterlimit:4;stroke-dashoffset:0;stroke-opacity:1"
       d="M 33.334412,28.178404 C 30.998077,30.607892 28.623251,28.807237 25.263877,29.502326 C 21.904504,30.197414 20.33619,34.185596 17.061725,33.401649 C 13.787261,32.617703 15.492266,27.78943 13.253864,25.230284 C 11.01546,22.671137 6.2329047,24.007874 5.565399,20.658909 C 4.8978941,17.309944 9.0408349,17.047513 9.9954138,13.749795 C 10.949992,10.452077 8.748015,8.9666472 11.121569,6.4366272 C 13.495122,3.9066074 15.326044,5.8803075 18.629888,5.0862832 C 21.933732,4.2922587 22.60386,0.67289769 25.855983,1.6687423 C 29.108108,2.6645868 27.970447,7.0547151 30.224371,9.5499002 C 32.478296,12.045085 36.323799,9.8214077 37.300394,13.141606 C 38.27699,16.461804 34.400608,17.826696 33.599937,21.056975 C 32.799266,24.287255 35.670747,25.748917 33.334412,28.178404 z "
       id="path1340" />
  </g>
  <g
     inkscape:groupmode="layer"
     id="layer2"
     inkscape:label="light"
     sodipodi:insensitive="true">
    <path
       sodipodi:type="arc"
       style="opacity:0.49783547;fill:none;fill-opacity:1;stroke:url(#linearGradient2234);stroke-width:0.85808754;stroke-linecap:round;stroke-linejoin:round;stroke-miterlimit:4;stroke-dasharray:none;stroke-dashoffset:0;stroke-opacity:1"
       id="path2226"
       sodipodi:cx="18.75"
       sodipodi:cy="17"
       sodipodi:rx="8.125"
       sodipodi:ry="8.125"
       d="M 26.875 17 A 8.125 8.125 0 1 1  10.625,17 A 8.125 8.125 0 1 1  26.875 17 z"
       transform="matrix(1.163246,0,0,1.167522,0.212931,-1.842207)" />
    <path
       sodipodi:type="arc"
       style="opacity:0.49783547;fill:none;fill-opacity:1;stroke:url(#linearGradient2240);stroke-width:1.09414506;stroke-linecap:round;stroke-linejoin:round;stroke-miterlimit:4;stroke-dasharray:none;stroke-dashoffset:0;stroke-opacity:1"
       id="path2236"
       sodipodi:cx="18.75"
       sodipodi:cy="17"
       sodipodi:rx="8.125"
       sodipodi:ry="8.125"
       d="M 26.875 17 A 8.125 8.125 0 1 1  10.625,17 A 8.125 8.125 0 1 1  26.875 17 z"
       transform="matrix(0.913822,0,0,0.914088,4.861463,2.458084)" />
    <path
       style="opacity:1;fill:url(#radialGradient2250);fill-opacity:1;stroke:none;stroke-width:0.99999988;stroke-linecap:round;stroke-linejoin:round;stroke-miterlimit:4;stroke-dashoffset:0;stroke-opacity:1"
       d="M 32.994687,27.842604 C 30.728819,30.195692 28.425619,28.451661 25.167568,29.124892 C 21.909516,29.798122 20.388504,33.66089 17.212801,32.901595 C 14.037097,32.142301 15.690678,27.465861 13.519788,24.987192 C 11.348897,22.508521 6.7105886,23.803222 6.0632156,20.55957 C 5.4158436,17.31592 9.4338286,17.061741 10.359616,13.867725 C 11.285404,10.67371 9.1498406,9.2349909 11.451805,6.7845315 C 13.753769,4.3340721 15.529469,6.2457061 18.733666,5.4766511 C 21.937863,4.7075961 22.587779,1.2020517 25.741815,2.1665803 C 28.895852,3.1311089 27.792504,7.3831827 29.978449,9.7999026 C 32.164393,12.216622 35.893911,10.062873 36.841051,13.278661 C 37.788192,16.49445 34.028726,17.816422 33.252204,20.94512 C 32.475682,24.073818 35.260556,25.489515 32.994687,27.842604 z "
       id="path2242" />
    <path
       style="opacity:0.53246753;fill:url(#radialGradient2260);fill-opacity:1;stroke:none;stroke-width:0.99999988;stroke-linecap:round;stroke-linejoin:round;stroke-miterlimit:4;stroke-dashoffset:0;stroke-opacity:1"
       d="M 32.994687,27.842604 C 30.728819,30.195692 28.425619,28.451661 25.167568,29.124892 C 21.909516,29.798122 20.388504,33.66089 17.212801,32.901595 C 14.037097,32.142301 15.690678,27.465861 13.519788,24.987192 C 11.348897,22.508521 6.7105886,23.803222 6.0632156,20.55957 C 5.4158436,17.31592 9.4338286,17.061741 10.359616,13.867725 C 11.285404,10.67371 9.1498406,9.2349909 11.451805,6.7845315 C 13.753769,4.3340721 15.529469,6.2457061 18.733666,5.4766511 C 21.937863,4.7075961 22.587779,1.2020517 25.741815,2.1665803 C 28.895852,3.1311089 27.792504,7.3831827 29.978449,9.7999026 C 32.164393,12.216622 35.893911,10.062873 36.841051,13.278661 C 37.788192,16.49445 34.028726,17.816422 33.252204,20.94512 C 32.475682,24.073818 35.260556,25.489515 32.994687,27.842604 z "
       id="path2252" />
    <path
       style="opacity:1;fill:none;fill-opacity:1;stroke:url(#linearGradient2224);stroke-width:1.00000036;stroke-linecap:round;stroke-linejoin:round;stroke-miterlimit:4;stroke-dashoffset:0;stroke-opacity:1"
       d="M 32.648157,27.517062 C 30.69092,29.474299 28.157154,27.888648 24.999334,28.541182 C 21.841515,29.193716 19.714927,33.053732 17.351791,32.420532 C 15.115232,31.821248 16.063995,26.870652 13.959892,24.468182 C 11.855787,22.06571 7.2375436,23.041723 6.5452164,20.457923 C 5.878795,17.970804 10.030885,17.067624 10.928191,13.971797 C 11.825497,10.875971 9.9010263,9.1608571 11.924279,7.1376036 C 13.82119,5.2406931 15.720247,6.7403427 18.825869,5.9949298 C 21.931489,5.2495169 22.75793,1.8639018 25.618415,2.6303665 C 28.324568,3.3554781 27.481017,7.9678511 29.59971,10.310277 C 31.718406,12.652703 35.760796,11.104161 36.37619,13.400843 C 37.110607,16.141726 33.431634,17.767854 32.679,20.800369 C 31.926368,23.832887 34.386647,25.778572 32.648157,27.517062 z "
       id="path2216"
       sodipodi:nodetypes="csssssssssssc" />
    <path
       sodipodi:type="arc"
       style="opacity:0.53246753;fill:url(#radialGradient2272);fill-opacity:1;stroke:none;stroke-width:1;stroke-linecap:round;stroke-linejoin:round;stroke-miterlimit:4;stroke-dasharray:none;stroke-dashoffset:0;stroke-opacity:0.27896992"
       id="path2264"
       sodipodi:cx="18"
       sodipodi:cy="18.375"
       sodipodi:rx="6.125"
       sodipodi:ry="6.125"
       d="M 24.125 18.375 A 6.125 6.125 0 1 1  11.875,18.375 A 6.125 6.125 0 1 1  24.125 18.375 z"
       transform="matrix(1.142857,0,0,1.142857,1.421594,-2.999993)" />
  </g>
</svg>
