<?xml version="1.0" encoding="UTF-8" standalone="no"?>
<!-- Created with Inkscape (http://www.inkscape.org/) -->
<svg
   xmlns:dc="http://purl.org/dc/elements/1.1/"
   xmlns:cc="http://web.resource.org/cc/"
   xmlns:rdf="http://www.w3.org/1999/02/22-rdf-syntax-ns#"
   xmlns:svg="http://www.w3.org/2000/svg"
   xmlns="http://www.w3.org/2000/svg"
   xmlns:xlink="http://www.w3.org/1999/xlink"
   xmlns:sodipodi="http://sodipodi.sourceforge.net/DTD/sodipodi-0.dtd"
   xmlns:inkscape="http://www.inkscape.org/namespaces/inkscape"
   width="48px"
   height="48px"
   id="svg1371"
   sodipodi:version="0.32"
   inkscape:version="0.45+devel"
   sodipodi:docbase="/home/silvestre/.icons/Gion/scalable/mimetypes"
   sodipodi:docname="x-office-document.svg"
   inkscape:export-filename="/home/silvestre/Gion/PNGs/x-office-document.png"
   inkscape:export-xdpi="90"
   inkscape:export-ydpi="90"
   inkscape:output_extension="org.inkscape.output.svg.inkscape"
   sodipodi:modified="true">
  <defs
     id="defs1373">
    <linearGradient
       inkscape:collect="always"
       id="linearGradient2258">
      <stop
         style="stop-color:#000000;stop-opacity:0"
         offset="0"
         id="stop2260" />
      <stop
         style="stop-color:#000000;stop-opacity:0.22317597"
         offset="1"
         id="stop2262" />
    </linearGradient>
    <radialGradient
       inkscape:collect="always"
       xlink:href="#linearGradient2258"
       id="radialGradient2205"
       cx="22.533945"
       cy="24.63522"
       fx="22.533945"
       fy="24.63522"
       r="17"
       gradientTransform="matrix(1.606193,1.757924e-16,-1.550085e-16,1.416292,-10.07254,-6.587365)"
       gradientUnits="userSpaceOnUse" />
    <linearGradient
       id="linearGradient2198"
       inkscape:collect="always">
      <stop
         id="stop2200"
         offset="0"
         style="stop-color:#000000;stop-opacity:1;" />
      <stop
         id="stop2202"
         offset="1"
         style="stop-color:#000000;stop-opacity:0;" />
    </linearGradient>
    <linearGradient
       inkscape:collect="always"
       xlink:href="#linearGradient2198"
       id="linearGradient2339"
       gradientUnits="userSpaceOnUse"
       x1="5.2010446"
       y1="70.319626"
       x2="5.2010446"
       y2="54.050976" />
    <linearGradient
       inkscape:collect="always"
       xlink:href="#linearGradient2198"
       id="linearGradient2341"
       gradientUnits="userSpaceOnUse"
       x1="5.2010446"
       y1="70.319626"
       x2="5.2010446"
       y2="54.050976" />
    <linearGradient
       inkscape:collect="always"
       xlink:href="#linearGradient2198"
       id="linearGradient2343"
       gradientUnits="userSpaceOnUse"
       x1="5.2010446"
       y1="70.319626"
       x2="5.2010446"
       y2="54.050976" />
    <linearGradient
       inkscape:collect="always"
       xlink:href="#linearGradient2198"
       id="linearGradient2345"
       gradientUnits="userSpaceOnUse"
       x1="5.2010446"
       y1="70.319626"
       x2="5.2010446"
       y2="54.050976" />
  </defs>
  <sodipodi:namedview
     id="base"
     pagecolor="#ffffff"
     bordercolor="#666666"
     borderopacity="1.0"
     inkscape:pageopacity="0.0"
     inkscape:pageshadow="2"
     inkscape:zoom="1"
     inkscape:cx="24"
     inkscape:cy="23.5"
     inkscape:current-layer="layer1"
     showgrid="false"
     inkscape:grid-bbox="false"
     inkscape:document-units="px"
     inkscape:window-width="889"
     inkscape:window-height="619"
     inkscape:window-x="12"
     inkscape:window-y="67"
     inkscape:showpageshadow="false"
     showborder="false"
     showguides="true"
     inkscape:guide-bbox="true" />
  <metadata
     id="metadata1376">
    <rdf:RDF>
      <cc:Work
         rdf:about="">
        <dc:format>image/svg+xml</dc:format>
        <dc:type
           rdf:resource="http://purl.org/dc/dcmitype/StillImage" />
        <dc:title>Office Document</dc:title>
        <dc:creator>
          <cc:Agent>
            <dc:title>Silvestre Herrera</dc:title>
          </cc:Agent>
        </dc:creator>
        <cc:license
           rdf:resource="http://creativecommons.org/licenses/GPL/2.0/" />
      </cc:Work>
      <cc:License
         rdf:about="http://creativecommons.org/licenses/GPL/2.0/">
        <cc:permits
           rdf:resource="http://web.resource.org/cc/Reproduction" />
        <cc:permits
           rdf:resource="http://web.resource.org/cc/Distribution" />
        <cc:requires
           rdf:resource="http://web.resource.org/cc/Notice" />
        <cc:permits
           rdf:resource="http://web.resource.org/cc/DerivativeWorks" />
        <cc:requires
           rdf:resource="http://web.resource.org/cc/ShareAlike" />
        <cc:requires
           rdf:resource="http://web.resource.org/cc/SourceCode" />
      </cc:License>
    </rdf:RDF>
  </metadata>
  <g
     id="layer1"
     inkscape:label="Layer 1"
     inkscape:groupmode="layer">
    <g
       style="opacity:0.5;fill:url(#linearGradient2339);fill-opacity:1"
       transform="translate(0,-20.494186)"
       id="g2193">
      <rect
         style="opacity:0.1715481;fill:url(#linearGradient2341);fill-opacity:1;stroke:none;stroke-width:1;stroke-linecap:round;stroke-linejoin:round;stroke-miterlimit:4;stroke-dasharray:none;stroke-dashoffset:0;stroke-opacity:0.64978901"
         id="rect2189"
         width="42"
         height="14"
         x="3"
         y="53"
         rx="0.99999994"
         ry="1" />
      <rect
         style="opacity:0.1715481;fill:url(#linearGradient2343);fill-opacity:1;stroke:none;stroke-width:1;stroke-linecap:round;stroke-linejoin:round;stroke-miterlimit:4;stroke-dasharray:none;stroke-dashoffset:0;stroke-opacity:0.64978901"
         id="rect2187"
         width="40"
         height="11"
         x="4"
         y="55"
         rx="0.99999994"
         ry="1" />
      <rect
         style="opacity:0.1715481;fill:url(#linearGradient2345);fill-opacity:1;stroke:none;stroke-width:1;stroke-linecap:round;stroke-linejoin:round;stroke-miterlimit:4;stroke-dasharray:none;stroke-dashoffset:0;stroke-opacity:0.64978901"
         id="rect2185"
         width="38"
         height="8"
         x="5"
         y="57"
         rx="0.99999994"
         ry="1" />
    </g>
    <rect
       style="opacity:1;fill:#fcfcfc;fill-opacity:1;stroke:#969696;stroke-width:1.00000036;stroke-linecap:round;stroke-linejoin:round;stroke-miterlimit:4;stroke-dasharray:none;stroke-dashoffset:0;stroke-opacity:1"
       id="rect1379"
       width="35.040318"
       height="41.023247"
       x="6.4731984"
       y="2.4883716" />
  </g>
  <g
     inkscape:groupmode="layer"
     id="layer3"
     inkscape:label="contents">
    <g
       id="g1430"
       inkscape:label="contents"
       transform="translate(3e-6,0)">
      <g
         id="g1329"
         transform="matrix(0.652011,0,0,0.572803,49.55658,5.368718)"
         style="opacity:0.77056274">
        <path
           style="fill:#fcf9ed"
           d="M -53,23 L -53,10 L -35.38883,10 L -17.77766,10 L -17.77766,23 L -17.77766,36 L -35.38883,36 L -53,36 L -53,23 z "
           id="path1413" />
        <path
           style="fill:#f8eccd"
           d="M -53,23 L -53,10 L -35.38883,10 L -17.77766,10 L -17.77766,23 L -17.77766,36 L -35.38883,36 L -53,36 L -53,23 z M -32.949201,21.483574 C -32.205767,20.771645 -33.938257,19.135135 -35.435373,19.135135 C -36.970149,19.135135 -37.88654,20.215616 -37.223327,21.243243 C -36.716026,22.029289 -33.696371,22.199082 -32.949201,21.483574 z "
           id="path1411" />
        <path
           style="fill:#f6e4b5"
           d="M -53,23 L -53,10 L -35.38883,10 L -17.77766,10 L -17.77766,23 L -17.77766,36 L -35.38883,36 L -53,36 L -53,23 z M -34.655031,26.513514 C -34.655031,25.933784 -34.974877,25.459459 -35.3658,25.459459 C -35.756723,25.459459 -35.886499,25.933784 -35.654191,26.513514 C -35.421883,27.093243 -35.102037,27.567568 -34.943422,27.567568 C -34.784807,27.567568 -34.655031,27.093243 -34.655031,26.513514 z M -33.139193,21.921222 C -31.241209,20.948497 -31.351,20.101667 -33.554333,18.719165 C -35.25791,17.650241 -35.524159,17.653007 -37.285111,18.757933 C -39.100778,19.897189 -39.127138,20.00518 -37.90518,21.29821 C -36.467761,22.819232 -35.211752,22.983418 -33.139193,21.921222 z "
           id="path1409" />
        <path
           style="fill:#ebd5ae"
           d="M -53,22.983748 L -53,10 L -35.38883,10 L -17.77766,10 L -17.77766,22.988707 L -17.77766,35.977414 L -35.38883,35.972455 L -53,35.967496 L -53,22.983748 z M -32.302616,22.103448 C -30.005981,21.054185 -30.232199,19.68964 -32.89543,18.527614 C -35.564496,17.36304 -37.187134,17.543882 -38.731466,19.178035 C -40.19,20.721399 -40.144843,20.797139 -36.616065,22.726072 C -35.814932,23.163995 -35.451583,23.899792 -35.713587,24.55363 C -35.954808,25.155602 -35.899944,26.791486 -35.591669,28.188928 C -35.039469,30.692103 -35.025666,30.672573 -34.65965,26.870149 C -34.338537,23.534214 -34.018749,22.887497 -32.302616,22.103448 z M -34.288132,15.621622 C -34.0387,15.235135 -34.349422,14.918919 -34.978624,14.918919 C -35.607826,14.918919 -36.122629,15.235135 -36.122629,15.621622 C -36.122629,16.008108 -35.811908,16.324324 -35.432137,16.324324 C -35.052366,16.324324 -34.537564,16.008108 -34.288132,15.621622 z "
           id="path1407" />
        <path
           style="fill:#d7c7aa"
           d="M -53,23.011685 L -53,10.089824 L -35.38883,10.052327 L -17.77766,10.014829 L -17.77766,22.974349 L -17.77766,35.933869 L -35.38883,35.933707 L -53,35.933545 L -53,23.011685 z M -34.122959,26.654754 C -34.436715,23.384565 -34.367661,23.243744 -31.841794,22.002811 L -29.23708,20.72314 L -31.339965,18.85684 C -32.949707,17.428201 -33.24082,16.79707 -32.581343,16.16554 C -31.083847,14.731503 -31.632009,14.216216 -34.655031,14.216216 C -36.853078,14.216216 -37.590226,14.497809 -37.590226,15.337469 C -37.590226,15.954159 -38.254942,17.352669 -39.06737,18.445272 L -40.544515,20.43182 L -38.420237,21.88034 C -36.686337,23.062665 -36.288333,23.857994 -36.254463,26.208186 C -36.23164,27.791816 -35.982996,30.089445 -35.701921,31.314027 L -35.190875,33.540541 L -34.495142,31.783784 C -34.112488,30.817568 -33.945006,28.509504 -34.122959,26.654754 z "
           id="path1405" />
        <path
           style="fill:#e8cb94"
           d="M -53,23.069 L -53,10.204456 L -35.38883,10.166394 L -17.77766,10.128332 L -17.77766,23.0311 L -17.77766,35.933869 L -35.38883,35.933707 L -53,35.933545 L -53,23.069 z M -34.122959,26.654754 C -34.436715,23.384565 -34.367661,23.243744 -31.841794,22.002811 L -29.23708,20.72314 L -31.305606,18.887333 C -33.514406,16.927033 -33.245562,16.57098 -29.260532,16.178861 L -27.168127,15.972973 L -29.516393,14.319588 C -31.552707,12.885844 -32.380278,12.727895 -35.746078,13.130604 C -37.880859,13.386024 -40.242292,14.051204 -40.993708,14.608781 C -42.311611,15.586712 -42.298484,15.672375 -40.62246,17.031464 C -39.254136,18.141038 -39.065722,18.648895 -39.735621,19.421869 C -40.41214,20.202479 -40.147182,20.702757 -38.4411,21.866114 C -36.685252,23.063405 -36.288428,23.851391 -36.254463,26.208186 C -36.23164,27.791816 -35.982996,30.089445 -35.701921,31.314027 L -35.190875,33.540541 L -34.495142,31.783784 C -34.112488,30.817568 -33.945006,28.509504 -34.122959,26.654754 z "
           id="path1403" />
        <path
           style="fill:#dbc393"
           d="M -53,23.102228 L -53,10.204456 L -35.38883,10.166394 L -17.77766,10.128332 L -17.77766,23.064166 L -17.77766,36 L -25.876983,36 L -33.976306,36 L -33.765319,29.51826 L -33.554333,23.03652 L -30.404854,21.924163 C -27.443546,20.878265 -27.333941,20.745691 -28.570357,19.705235 C -29.293597,19.096621 -30.66155,18.371742 -31.610253,18.094393 C -33.81015,17.451261 -32.805387,16.49051 -29.627772,16.198749 L -27.168809,15.972973 L -29.516733,14.319588 C -31.552779,12.885825 -32.380233,12.72789 -35.746078,13.130604 C -37.880859,13.386024 -40.237909,14.022433 -40.983967,14.544846 C -42.302393,15.468049 -42.301853,15.535513 -40.964756,16.950379 C -39.844077,18.136238 -39.758706,18.601801 -40.504195,19.461994 C -41.268035,20.343363 -41.05616,20.717508 -39.222521,21.725276 C -37.372515,22.74204 -36.955453,23.492598 -36.580557,26.479831 C -36.335712,28.430789 -36.132515,31.05473 -36.129007,32.310811 C -36.125296,33.639513 -35.739034,34.615249 -35.20538,34.643984 C -34.700894,34.671148 -34.948551,34.96514 -35.755729,35.297297 C -36.562908,35.629455 -40.773078,35.923446 -45.111663,35.950611 L -53,36 L -53,23.102228 z "
           id="path1401" />
        <path
           style="fill:#c7b9a5"
           d="M -53,23.102228 L -53,10.204456 L -35.38883,10.166394 L -17.77766,10.128332 L -17.77766,13.519121 C -17.77766,15.574253 -18.138971,17.049524 -18.694908,17.264343 C -19.428707,17.54789 -19.428707,17.629872 -18.694908,17.674253 C -18.011119,17.71561 -17.77766,20.054813 -17.77766,26.864865 L -17.77766,36 L -25.845666,36 L -33.913673,36 L -33.667193,29.5 L -33.420713,23 L -30.217839,21.863381 C -26.134027,20.414139 -25.84072,19.483227 -29.111098,18.350757 C -32.46889,17.188017 -32.420996,16.464734 -28.968091,16.191068 L -26.216346,15.972973 L -29.120965,14.329215 C -31.565044,12.946083 -32.628245,12.757564 -35.826542,13.140231 C -40.892727,13.746385 -42.476434,14.849022 -41.301206,16.951899 C -40.631689,18.149892 -40.626596,18.756523 -41.279731,19.510154 C -41.971566,20.308439 -41.648837,20.720451 -39.598189,21.656898 C -37.083413,22.805292 -37.056374,22.866917 -36.604332,28.480471 C -36.353443,31.596063 -35.7843,34.360538 -35.339569,34.623749 C -33.911455,35.46897 -37.706337,35.980489 -45.478563,35.990405 L -53,36 L -53,23.102228 z "
           id="path1399" />
        <path
           style="fill:#e6c27c"
           d="M -53,22.95205 L -53,9.9040998 L -46.715357,10.092525 C -43.258803,10.196158 -40.275229,10.521869 -40.08519,10.816327 C -39.895153,11.110784 -39.008386,11.106372 -38.114597,10.806521 C -37.220809,10.50667 -32.279358,10.191984 -27.133594,10.107219 L -17.77766,9.9531003 L -17.77766,13.431505 C -17.77766,15.556729 -18.134491,17.047793 -18.694908,17.264343 C -19.428707,17.54789 -19.428707,17.629872 -18.694908,17.674253 C -18.011119,17.71561 -17.77766,20.054813 -17.77766,26.864865 L -17.77766,36 L -25.845666,36 L -33.913673,36 L -33.667193,29.5 L -33.420713,23 L -30.217839,21.863381 C -26.134027,20.414139 -25.84072,19.483227 -29.111098,18.350757 C -32.463962,17.189724 -32.490469,16.122196 -29.151541,16.722038 C -25.842188,17.316567 -25.923211,16.51869 -29.457496,13.709143 L -32.305292,11.445313 L -36.468909,12.483841 C -38.758898,13.055031 -41.494654,13.954941 -42.548368,14.483641 C -44.393565,15.409468 -44.407619,15.462114 -42.929504,15.911369 C -41.028821,16.489058 -40.228812,18.297534 -41.317992,19.554302 C -41.959712,20.29476 -41.58927,20.747653 -39.598189,21.656898 C -37.083413,22.805292 -37.056374,22.866917 -36.604332,28.480471 C -36.353443,31.596063 -35.7843,34.360538 -35.339569,34.623749 C -33.911455,35.46897 -37.706337,35.980489 -45.478563,35.990405 L -53,36 L -53,22.95205 z "
           id="path1397" />
        <path
           style="fill:#e1b886"
           d="M -53,22.95205 L -53,9.9040998 L -46.715357,10.092525 C -43.258803,10.196158 -40.275229,10.521869 -40.08519,10.816327 C -39.895153,11.110784 -39.008386,11.106372 -38.114597,10.806521 C -37.220809,10.50667 -32.279358,10.191984 -27.133594,10.107219 L -17.77766,9.9531003 L -17.77766,13.431505 C -17.77766,15.556729 -18.134491,17.047793 -18.694908,17.264343 C -19.428707,17.54789 -19.428707,17.629872 -18.694908,17.674253 C -18.011119,17.71561 -17.77766,20.054813 -17.77766,26.864865 L -17.77766,36 L -25.894973,36 L -34.012287,36 L -33.636574,30.016811 C -33.429931,26.726057 -33.065371,23.730719 -32.826441,23.360504 C -32.587511,22.990289 -31.085047,22.312401 -29.487634,21.854086 C -25.898658,20.82437 -25.772756,19.506761 -29.151541,18.336752 C -32.471594,17.187081 -32.471594,16.125587 -29.151541,16.722038 C -25.842188,17.316567 -25.923211,16.51869 -29.457496,13.709143 L -32.305292,11.445313 L -36.468909,12.483841 C -38.758898,13.055031 -41.494654,13.954941 -42.548368,14.483641 C -44.393565,15.409468 -44.407619,15.462114 -42.929504,15.911369 C -41.063981,16.478372 -40.222915,18.29073 -41.266494,19.49488 C -41.838466,20.154858 -41.376295,20.750176 -39.444658,21.841574 C -37.135162,23.146465 -36.852986,23.62813 -36.82447,26.314139 C -36.806893,27.969741 -36.524152,30.651855 -36.196155,32.274393 C -35.448607,35.972377 -35.516516,36 -45.355128,36 L -53,36 L -53,22.95205 z "
           id="path1395" />
        <path
           style="fill:#ccb68f"
           d="M -53,22.95205 L -53,9.9040998 L -46.715357,10.092525 C -43.258803,10.196158 -40.275229,10.521869 -40.08519,10.816327 C -39.895153,11.110784 -39.008386,11.106372 -38.114597,10.806521 C -37.220809,10.50667 -32.279358,10.191984 -27.133594,10.107219 L -17.77766,9.9531003 L -17.77766,13.431505 C -17.77766,15.556729 -18.134491,17.047793 -18.694908,17.264343 C -19.428707,17.54789 -19.428707,17.629872 -18.694908,17.674253 C -18.011119,17.71561 -17.77766,20.054813 -17.77766,26.864865 L -17.77766,36 L -25.768243,36 L -33.758827,36 L -33.384382,29.851351 C -33.178437,26.469595 -32.72755,23.409849 -32.38241,23.051916 C -32.03727,22.693983 -29.880717,22.042756 -27.59007,21.604745 L -23.425258,20.808362 L -27.560024,19.09337 C -32.233555,17.154913 -32.986465,16.03309 -29.151541,16.722038 C -25.842188,17.316567 -25.923211,16.51869 -29.457496,13.709143 L -32.305292,11.445313 L -36.468909,12.483841 C -38.758898,13.055031 -41.494654,13.954941 -42.548368,14.483641 C -44.393565,15.409468 -44.407619,15.462114 -42.929504,15.911369 C -40.856629,16.541394 -40.143516,18.535217 -41.621021,19.569812 C -42.63731,20.281449 -42.42188,20.569446 -40.03023,21.696458 L -37.263962,23 L -37.0067,28.611811 C -36.865205,31.698307 -36.415614,34.421193 -36.007608,34.662669 C -34.540967,35.530692 -37.821286,36 -45.355128,36 L -53,36 L -53,22.95205 z "
           id="path1393" />
        <path
           style="fill:#e3b874"
           d="M -53,22.95205 L -53,9.9040998 L -46.715357,10.092525 C -43.258803,10.196158 -40.275229,10.521869 -40.08519,10.816327 C -39.895153,11.110784 -39.008386,11.106372 -38.114597,10.806521 C -37.220809,10.50667 -32.279358,10.191984 -27.133594,10.107219 L -17.77766,9.9531003 L -17.77766,13.521905 L -17.77766,17.09071 L -20.529405,16.618462 C -24.037886,16.016346 -27.574749,14.636559 -30.202134,12.844976 C -32.147301,11.518591 -32.499323,11.495916 -36.213409,12.457773 C -38.383221,13.019701 -41.435955,13.917758 -42.99726,14.453454 C -45.701581,15.381327 -45.748847,15.448394 -43.995448,15.86982 C -41.875273,16.3794 -40.879385,18.201503 -42.008782,19.504675 C -42.595247,20.181378 -42.112591,20.715037 -40.023814,21.699393 L -37.263962,23 L -37.0067,28.611811 C -36.865205,31.698307 -36.415614,34.421193 -36.007608,34.662669 C -34.540967,35.530692 -37.821286,36 -45.355128,36 L -53,36 L -53,22.95205 z M -33.391508,29.851351 C -33.138077,25.609108 -32.68824,23.446817 -31.940666,22.877405 C -31.344729,22.423491 -28.575851,21.683624 -25.787602,21.233254 C -20.50162,20.37944 -18.301096,19.135135 -22.077131,19.135135 C -24.848737,19.135135 -26.693101,18.468447 -26.168824,17.656097 C -25.595746,16.768132 -21.864639,16.874781 -19.646684,17.842524 C -17.790838,18.652272 -17.77766,18.719156 -17.77766,27.329011 L -17.77766,36 L -25.768243,36 L -33.758827,36 L -33.391508,29.851351 z "
           id="path1391" />
        <path
           style="fill:#bbafa1"
           d="M -53,22.95205 L -53,9.9040998 L -46.715357,10.092525 C -43.258803,10.196158 -40.275229,10.521869 -40.08519,10.816327 C -39.895153,11.110784 -39.008386,11.106372 -38.114597,10.806521 C -37.220809,10.50667 -32.279358,10.191984 -27.133594,10.107219 L -17.77766,9.9531003 L -17.77766,13.521905 L -17.77766,17.09071 L -20.529405,16.618462 C -24.037886,16.016346 -27.574749,14.636559 -30.202134,12.844976 C -32.147301,11.518591 -32.499323,11.495916 -36.213409,12.457773 C -38.383221,13.019701 -41.435955,13.917758 -42.99726,14.453454 C -45.701581,15.381327 -45.748847,15.448394 -43.995448,15.86982 C -41.881557,16.37789 -40.878464,18.200441 -42.000293,19.49488 C -42.572265,20.154858 -42.110094,20.750176 -40.178456,21.841574 C -38.75493,22.645883 -37.569812,23.709889 -37.544861,24.206031 C -37.519909,24.702174 -37.26023,27.392762 -36.967794,30.185117 C -36.548688,34.187007 -36.648699,35.340252 -37.440075,35.631063 C -37.992264,35.833978 -41.719144,36 -45.722028,36 L -53,36 L -53,22.95205 z M -33.309734,35.302051 C -33.937954,33.509467 -32.749354,23.256898 -31.851791,22.726193 C -31.318981,22.411157 -28.595826,21.761972 -25.800334,21.283561 C -20.4788,20.37285 -18.333849,19.135135 -22.077131,19.135135 C -24.848737,19.135135 -26.693101,18.468447 -26.168824,17.656097 C -25.595746,16.768132 -21.864639,16.874781 -19.646684,17.842524 C -17.790838,18.652272 -17.77766,18.719156 -17.77766,27.329011 L -17.77766,36 L -25.421397,36 C -29.829136,36 -33.168686,35.704521 -33.309734,35.302051 z "
           id="path1389" />
        <path
           style="fill:#b7a890"
           d="M -53,23 L -53,10 L -49.147557,10.007734 C -43.637233,10.018796 -39.791623,10.745312 -39.791623,11.775266 C -39.791623,12.264038 -41.120011,13.293325 -42.743597,14.06257 C -45.535885,15.38554 -45.599805,15.484216 -43.925233,15.886696 C -41.87231,16.380112 -40.892523,18.216663 -42.000293,19.49488 C -42.572265,20.154858 -42.110094,20.750176 -40.178456,21.841574 C -38.75493,22.645883 -37.569812,23.709889 -37.544861,24.206031 C -37.519909,24.702174 -37.26023,27.392762 -36.967794,30.185117 C -36.548688,34.187007 -36.648699,35.340252 -37.440075,35.631063 C -37.992264,35.833978 -41.719144,36 -45.722028,36 L -53,36 L -53,23 z M -33.309734,35.302051 C -33.937954,33.509467 -32.749354,23.256898 -31.851791,22.726193 C -31.318981,22.411157 -28.595826,21.761972 -25.800334,21.283561 C -20.4788,20.37285 -18.333849,19.135135 -22.077131,19.135135 C -24.848737,19.135135 -26.693101,18.468447 -26.168824,17.656097 C -25.595746,16.768132 -21.864639,16.874781 -19.646684,17.842524 C -17.790838,18.652272 -17.77766,18.719156 -17.77766,27.329011 L -17.77766,36 L -25.421397,36 C -29.829136,36 -33.168686,35.704521 -33.309734,35.302051 z M -23.025332,16.051772 C -26.756022,15.089471 -30.252239,13.173778 -30.252239,12.091909 C -30.252239,11.714332 -30.830105,11.373885 -31.536387,11.33536 C -34.993927,11.146764 -28.522671,10.132345 -23.4646,10.070045 L -17.77766,10 L -17.77766,13.513514 C -17.77766,17.409938 -17.771492,17.406955 -23.025332,16.051772 z M -34.655031,11.095525 C -34.655031,10.925091 -34.324822,10.590213 -33.921233,10.351351 C -33.517643,10.11249 -33.187434,10.251936 -33.187434,10.661231 C -33.187434,11.070527 -33.517643,11.405405 -33.921233,11.405405 C -34.324822,11.405405 -34.655031,11.265959 -34.655031,11.095525 z "
           id="path1387" />
        <path
           style="fill:#cdab73"
           d="M -53,23 L -53,10 L -49.147557,10.007734 C -47.028713,10.011987 -44.067414,10.209825 -42.566891,10.447373 C -40.201448,10.821847 -39.934302,11.050398 -40.557862,12.166156 C -40.953419,12.873939 -42.428776,13.659942 -43.836433,13.91283 C -47.084607,14.496368 -47.081877,15.328252 -43.827516,16.630389 C -41.136025,17.707309 -40.743293,18.35999 -42.039734,19.601492 C -42.59122,20.129608 -42.05292,20.78248 -40.205237,21.826442 C -38.766981,22.639074 -37.569812,23.709889 -37.544861,24.206031 C -37.519909,24.702174 -37.26023,27.392762 -36.967794,30.185117 C -36.548688,34.187007 -36.648699,35.340252 -37.440075,35.631063 C -37.992264,35.833978 -41.719144,36 -45.722028,36 L -53,36 L -53,23 z M -33.309734,35.302051 C -33.937954,33.509467 -32.749354,23.256898 -31.851791,22.726193 C -31.318981,22.411157 -28.613004,21.764912 -25.838508,21.290094 C -23.064013,20.815276 -20.405078,19.978058 -19.929764,19.42961 C -18.139459,17.363839 -17.77766,18.67288 -17.77766,27.216216 L -17.77766,36 L -25.421397,36 C -29.829136,36 -33.168686,35.704521 -33.309734,35.302051 z M -21.875112,15.981904 C -25.918211,14.759333 -29.51844,12.926164 -29.51844,12.090063 C -29.51844,11.713501 -30.096307,11.365826 -30.802588,11.317451 C -33.158558,11.156084 -25.538897,10.104935 -21.630103,10.052087 L -17.77766,10 L -17.77766,13.513514 C -17.77766,15.445946 -18.025317,16.995763 -18.328009,16.957552 C -18.630701,16.91934 -20.226898,16.480299 -21.875112,15.981904 z "
           id="path1385" />
        <path
           style="fill:#baa274"
           d="M -53,23 L -53,10 L -49.147557,10.007734 C -47.028713,10.011987 -44.067414,10.209825 -42.566891,10.447373 C -40.201448,10.821847 -39.934302,11.050398 -40.557862,12.166156 C -40.953419,12.873939 -42.428776,13.659942 -43.836433,13.91283 C -46.978219,14.477255 -47.117139,15.45393 -44.194415,16.429621 C -41.75019,17.245575 -41.303827,18.724757 -43.277167,19.46925 C -44.302724,19.856168 -43.906509,20.276413 -41.309589,21.556162 C -38.148279,23.114038 -38.051427,23.262072 -37.826377,26.880022 C -37.69906,28.926808 -37.296519,31.636269 -36.931843,32.901049 C -36.079489,35.857203 -36.484534,36 -45.722028,36 L -53,36 L -53,23 z M -32.841062,29.851351 C -32.555086,26.469595 -32.078919,23.458034 -31.782912,23.158994 C -31.486906,22.859955 -29.452915,22.313826 -27.262934,21.945376 C -25.072954,21.576925 -22.042865,20.9853 -20.529405,20.630654 C -18.923377,20.254316 -17.77766,20.247608 -17.77766,20.614543 C -17.77766,20.960328 -18.190422,21.268207 -18.694908,21.29872 C -19.428707,21.343101 -19.428707,21.425083 -18.694908,21.70863 C -18.047655,21.958734 -17.77766,24.114257 -17.77766,29.031531 L -17.77766,36 L -25.569338,36 L -33.361017,36 L -32.841062,29.851351 z M -19.440937,19.047938 C -18.943177,18.567698 -18.351069,18.351791 -18.125142,18.568144 C -17.899214,18.784497 -18.306473,19.177421 -19.030161,19.441308 C -20.075969,19.822654 -20.160256,19.741939 -19.440937,19.047938 z M -21.875112,15.981904 C -25.918211,14.759333 -29.51844,12.926164 -29.51844,12.090063 C -29.51844,11.713501 -30.096307,11.365826 -30.802588,11.317451 C -33.158558,11.156084 -25.538897,10.104935 -21.630103,10.052087 L -17.77766,10 L -17.77766,13.513514 C -17.77766,15.445946 -18.025317,16.995763 -18.328009,16.957552 C -18.630701,16.91934 -20.226898,16.480299 -21.875112,15.981904 z "
           id="path1383" />
        <path
           style="fill:#a69b8c"
           d="M -53,28.696803 C -53,20.969764 -52.801482,20.540541 -49.227684,20.540541 C -48.403113,20.540541 -47.981935,20.222684 -48.252009,19.804214 C -48.513376,19.399234 -49.275835,19.119431 -49.946362,19.18243 C -52.824928,19.452884 -53,19.188304 -53,14.567568 L -53,10 L -49.147557,10.007734 C -47.028713,10.011987 -44.067414,10.209825 -42.566891,10.447373 C -40.201448,10.821847 -39.934302,11.050398 -40.557862,12.166156 C -40.953419,12.873939 -42.428776,13.659942 -43.836433,13.91283 C -46.845944,14.453492 -47.127459,15.390023 -44.561314,16.324324 C -42.354964,17.127629 -42.172368,18.425159 -44.194415,18.931528 C -46.002669,19.384358 -46.130915,20.529786 -44.377865,20.569995 C -43.671583,20.586194 -41.960515,21.177416 -40.575491,21.88382 C -38.255589,23.067041 -38.039059,23.460894 -37.826079,26.884821 C -37.698925,28.928967 -37.296519,31.636269 -36.931843,32.901049 C -36.079489,35.857203 -36.484534,36 -45.722028,36 L -53,36 L -53,28.696803 z M -32.841062,29.851351 C -32.555086,26.469595 -32.073025,23.452389 -31.769813,23.14645 C -30.921529,22.290535 -21.562197,21.063115 -19.557665,21.544901 C -17.822258,21.962003 -17.77766,22.148449 -17.77766,28.986361 L -17.77766,36 L -25.569338,36 L -33.361017,36 L -32.841062,29.851351 z M -21.813553,15.607081 C -25.294143,14.851097 -29.51844,12.952402 -29.51844,12.143965 C -29.51844,11.737757 -30.096307,11.365826 -30.802588,11.317451 C -33.158558,11.156084 -25.538897,10.104935 -21.630103,10.052087 L -17.77766,10 L -17.77766,12.735629 C -17.77766,15.779811 -18.535582,16.319057 -21.813553,15.607081 z "
           id="path1381" />
        <path
           style="fill:#c59a65"
           d="M -53,28.696803 C -53,20.969764 -52.801482,20.540541 -49.227684,20.540541 C -48.403113,20.540541 -47.981935,20.222684 -48.252009,19.804214 C -48.513376,19.399234 -49.275835,19.119431 -49.946362,19.18243 C -52.824928,19.452884 -53,19.188304 -53,14.567568 C -53,10.468468 -52.849477,10 -51.532403,10 C -50.725224,10 -50.064805,10.316216 -50.064805,10.702703 C -50.064805,11.089189 -49.550003,11.405405 -48.9208,11.405405 C -48.291598,11.405405 -47.980876,11.089189 -48.230308,10.702703 C -48.754747,9.8901027 -44.550161,9.8268595 -42.453469,10.61581 C -41.162177,11.101703 -41.154285,11.204531 -42.322434,12.323178 C -43.00609,12.977862 -44.367382,13.513514 -45.347528,13.513514 C -47.904177,13.513514 -47.619677,15.56656 -44.928214,16.539423 C -42.382789,17.459498 -42.092686,18.405204 -44.194415,18.931528 C -46.002669,19.384358 -46.130915,20.529786 -44.377865,20.569995 C -43.671583,20.586194 -41.960515,21.177416 -40.575491,21.88382 C -38.255589,23.067041 -38.039059,23.460894 -37.826079,26.884821 C -37.698925,28.928967 -37.296519,31.636269 -36.931843,32.901049 C -36.079489,35.857203 -36.484534,36 -45.722028,36 L -53,36 L -53,28.696803 z M -32.841062,29.851351 C -32.555086,26.469595 -32.073025,23.452389 -31.769813,23.14645 C -30.921529,22.290535 -21.562197,21.063115 -19.557665,21.544901 C -17.822258,21.962003 -17.77766,22.148449 -17.77766,28.986361 L -17.77766,36 L -25.569338,36 L -33.361017,36 L -32.841062,29.851351 z M -21.079754,15.810168 C -24.123303,15.281808 -27.935589,13.308758 -28.268507,12.089625 C -28.689705,10.547218 -27.016703,10.023011 -21.630103,10.009595 L -17.77766,10 L -17.77766,12.735629 C -17.77766,15.569393 -18.514536,16.255489 -21.079754,15.810168 z "
           id="path1379" />
        <path
           style="fill:#ac946e"
           d="M -53,28.696803 C -53,20.969764 -52.801482,20.540541 -49.227684,20.540541 C -48.403113,20.540541 -47.981935,20.222684 -48.252009,19.804214 C -48.513376,19.399234 -49.275835,19.119431 -49.946362,19.18243 C -52.824928,19.452884 -53,19.188304 -53,14.567568 C -53,10.468468 -52.849477,10 -51.532403,10 C -50.725224,10 -50.064805,10.316216 -50.064805,10.702703 C -50.064805,11.089189 -49.550003,11.405405 -48.9208,11.405405 C -48.291598,11.405405 -47.980876,11.089189 -48.230308,10.702703 C -48.754747,9.8901027 -44.550161,9.8268595 -42.453469,10.61581 C -41.162177,11.101703 -41.154285,11.204531 -42.322434,12.323178 C -43.00609,12.977862 -44.367382,13.513514 -45.347528,13.513514 C -47.904177,13.513514 -47.619677,15.56656 -44.928214,16.539423 C -42.382789,17.459498 -42.092686,18.405204 -44.194415,18.931528 C -46.577608,19.528337 -45.898361,20.352417 -42.00165,21.591849 C -37.811749,22.924537 -37.164305,23.543465 -38.690924,24.756757 C -39.287421,25.230827 -39.562131,25.949254 -39.30139,26.353263 C -38.549793,27.517837 -37.007444,35.20768 -37.441998,35.623819 C -37.658053,35.830718 -41.24699,36 -45.417413,36 L -53,36 L -53,28.696803 z M -32.752133,34.77027 C -32.588285,34.093919 -32.371541,31.171295 -32.270481,28.27555 L -32.086736,23.01056 L -26.650931,22.078547 C -23.661238,21.565939 -20.441696,21.332426 -19.496393,21.559627 C -17.837562,21.958324 -17.77766,22.217165 -17.77766,28.986361 L -17.77766,36 L -25.413849,36 C -32.310698,36 -33.021195,35.880937 -32.752133,34.77027 z M -21.079754,15.810168 C -24.123303,15.281808 -27.935589,13.308758 -28.268507,12.089625 C -28.689705,10.547218 -27.016703,10.023011 -21.630103,10.009595 L -17.77766,10 L -17.77766,12.735629 C -17.77766,15.569393 -18.514536,16.255489 -21.079754,15.810168 z "
           id="path1377" />
        <path
           style="fill:#c59553"
           d="M -53,28.696803 C -53,23.480031 -52.737954,21.309337 -52.082752,21.098636 C -49.955017,20.414397 -42.880986,21.0498 -40.234858,22.162837 C -37.534077,23.298863 -37.442873,23.436116 -38.585412,24.645108 C -39.250589,25.348973 -39.591786,26.119296 -39.343628,26.356938 C -38.668039,27.003897 -36.988322,35.189368 -37.441998,35.623819 C -37.658053,35.830718 -41.24699,36 -45.417413,36 L -53,36 L -53,28.696803 z M -32.752133,34.77027 C -32.588285,34.093919 -32.371541,31.168919 -32.270481,28.27027 L -32.086736,23 L -26.583245,22.109133 C -17.768809,20.682314 -17.77766,20.675401 -17.77766,28.986361 L -17.77766,36 L -25.413849,36 C -32.310698,36 -33.021195,35.880937 -32.752133,34.77027 z M -53,14.614148 C -53,10.468468 -52.850997,10 -51.532403,10 C -50.725224,10 -50.064805,10.316216 -50.064805,10.702703 C -50.064805,11.089189 -49.550003,11.405405 -48.9208,11.405405 C -48.291598,11.405405 -47.980876,11.089189 -48.230308,10.702703 C -48.741184,9.9111169 -44.566113,9.8180878 -42.570241,10.576585 C -40.716454,11.281085 -42.066078,12.858904 -45.016809,13.436819 C -47.881805,13.997942 -48.301731,15.634674 -45.845462,16.666631 C -44.047062,17.422196 -43.650567,18.403073 -45.111663,18.48195 C -45.61615,18.509185 -47.597407,18.688254 -49.514456,18.879882 L -53,19.228296 L -53,14.614148 z M -24.005241,14.562331 C -27.682251,13.308454 -29.44277,11.319858 -27.520045,10.59218 C -26.80301,10.32081 -24.317641,10.076554 -21.997003,10.04939 L -17.77766,10 L -17.77766,12.810811 C -17.77766,15.266396 -17.986316,15.617724 -19.428707,15.590778 C -20.336783,15.573814 -22.396223,15.111013 -24.005241,14.562331 z "
           id="path1375" />
        <path
           style="fill:#928e89"
           d="M -53,28.621622 C -53,24.563514 -52.752343,21.225092 -52.449651,21.202907 C -52.146959,21.180722 -50.413359,21.013171 -48.597207,20.830571 C -46.542347,20.623971 -44.114589,20.92752 -42.169636,21.634228 C -39.54128,22.589253 -39.052642,23.067605 -39.097499,24.641699 C -39.126836,25.671197 -38.677963,28.478691 -38.100004,30.880575 C -37.522045,33.28246 -37.225943,35.416919 -37.441998,35.623819 C -37.658053,35.830718 -41.24699,36 -45.417413,36 L -53,36 L -53,28.621622 z M -32.223017,29.912619 C -31.976286,26.564559 -31.514477,23.578224 -31.196776,23.276318 C -30.327899,22.45064 -20.768291,21.131687 -19.171134,21.617124 C -17.925581,21.995694 -17.77766,22.781566 -17.77766,29.020327 L -17.77766,36 L -25.22464,36 L -32.67162,36 L -32.223017,29.912619 z M -53,14.614148 C -53,10.468468 -52.850997,10 -51.532403,10 C -50.725224,10 -50.064805,10.316216 -50.064805,10.702703 C -50.064805,11.089189 -49.550003,11.405405 -48.9208,11.405405 C -48.291598,11.405405 -47.980876,11.089189 -48.230308,10.702703 C -48.741184,9.9111169 -44.566113,9.8180878 -42.570241,10.576585 C -40.716454,11.281085 -42.066078,12.858904 -45.016809,13.436819 C -47.881805,13.997942 -48.301731,15.634674 -45.845462,16.666631 C -44.047062,17.422196 -43.650567,18.403073 -45.111663,18.48195 C -45.61615,18.509185 -47.597407,18.688254 -49.514456,18.879882 L -53,19.228296 L -53,14.614148 z M -24.005241,14.562331 C -27.682251,13.308454 -29.44277,11.319858 -27.520045,10.59218 C -26.80301,10.32081 -24.317641,10.076554 -21.997003,10.04939 L -17.77766,10 L -17.77766,12.810811 C -17.77766,15.266396 -17.986316,15.617724 -19.428707,15.590778 C -20.336783,15.573814 -22.396223,15.111013 -24.005241,14.562331 z "
           id="path1373" />
        <path
           style="opacity:0.66233766;fill:#b08855"
           d="M -53,28.621622 C -53,24.563514 -52.752343,21.225092 -52.449651,21.202907 C -52.146959,21.180722 -50.413359,21.013171 -48.597207,20.830571 C -46.542347,20.623971 -44.114589,20.92752 -42.169636,21.634228 C -39.54128,22.589253 -39.052642,23.067605 -39.097499,24.641699 C -39.126836,25.671197 -38.677963,28.478691 -38.100004,30.880575 C -37.522045,33.28246 -37.225943,35.416919 -37.441998,35.623819 C -37.658053,35.830718 -41.24699,36 -45.417413,36 L -53,36 L -53,28.621622 z M -32.223017,29.912619 C -31.976286,26.564559 -31.514477,23.578224 -31.196776,23.276318 C -30.327899,22.45064 -20.768291,21.131687 -19.171134,21.617124 C -17.925581,21.995694 -17.77766,22.781566 -17.77766,29.020327 L -17.77766,36 L -25.22464,36 L -32.67162,36 L -32.223017,29.912619 z M -53,14.668006 L -53,10.107717 L -50.813192,11.152411 C -48.424777,12.293417 -47.545738,13.297548 -47.515904,14.918919 C -47.505237,15.498649 -46.753538,16.285119 -45.845462,16.666631 C -44.047062,17.422196 -43.650567,18.403073 -45.111663,18.48195 C -45.61615,18.509185 -47.597407,18.688254 -49.514456,18.879882 L -53,19.228296 L -53,14.668006 z M -24.014949,14.547304 C -25.629307,13.990357 -27.021078,13.529913 -27.107776,13.524094 C -27.194474,13.518275 -27.5894,12.933784 -27.98539,12.225225 C -28.494168,11.314849 -28.447928,10.902523 -27.827757,10.819621 C -27.34507,10.755097 -24.886335,10.50628 -22.363902,10.266694 L -17.77766,9.8310831 L -17.77766,12.726352 C -17.77766,15.269524 -17.978446,15.617871 -19.428707,15.590778 C -20.336783,15.573814 -22.400592,15.104251 -24.014949,14.547304 z M -47.40173,10.84956 C -47.599033,10.543846 -46.627893,10.420334 -45.24364,10.575089 C -43.859387,10.729844 -42.726817,10.979975 -42.726817,11.130934 C -42.726817,11.659773 -47.046632,11.399772 -47.40173,10.84956 z "
           id="path1371" />
        <path
           style="fill:#968770"
           d="M -53,28.621622 C -53,24.563514 -52.752343,21.221027 -52.449651,21.193873 C -46.601442,20.669241 -41.108688,21.480284 -39.729092,23.072152 C -38.956925,23.963129 -38.96672,24.268544 -39.782953,24.751626 C -40.607927,25.239882 -40.519582,26.173249 -39.272555,30.144015 C -38.443123,32.785077 -37.909879,35.183108 -38.087568,35.472973 C -38.265257,35.762838 -41.693244,36 -45.705319,36 L -53,36 L -53,28.621622 z M -32.085571,33.364865 C -31.84656,31.915541 -31.450707,29.622973 -31.205899,28.27027 C -30.96109,26.917568 -30.72892,25.182159 -30.689965,24.413807 C -30.631749,23.265544 -29.769879,22.862116 -25.849446,22.148036 C -17.852139,20.691381 -17.77766,20.754478 -17.77766,28.986361 L -17.77766,36 L -25.148898,36 L -32.520136,36 L -32.085571,33.364865 z M -53,14.668006 L -53,10.107717 L -50.813192,11.152411 C -48.424777,12.293417 -47.545738,13.297548 -47.515904,14.918919 C -47.505237,15.498649 -46.753538,16.285119 -45.845462,16.666631 C -44.047062,17.422196 -43.650567,18.403073 -45.111663,18.48195 C -45.61615,18.509185 -47.597407,18.688254 -49.514456,18.879882 L -53,19.228296 L -53,14.668006 z M -24.014949,14.547304 C -25.629307,13.990357 -27.021078,13.529913 -27.107776,13.524094 C -27.194474,13.518275 -27.5894,12.933784 -27.98539,12.225225 C -28.494168,11.314849 -28.447928,10.902523 -27.827757,10.819621 C -27.34507,10.755097 -24.886335,10.50628 -22.363902,10.266694 L -17.77766,9.8310831 L -17.77766,12.726352 C -17.77766,15.269524 -17.978446,15.617871 -19.428707,15.590778 C -20.336783,15.573814 -22.400592,15.104251 -24.014949,14.547304 z M -47.40173,10.84956 C -47.599033,10.543846 -46.627893,10.420334 -45.24364,10.575089 C -43.859387,10.729844 -42.726817,10.979975 -42.726817,11.130934 C -42.726817,11.659773 -47.046632,11.399772 -47.40173,10.84956 z "
           id="path1369" />
        <path
           style="fill:#727b85"
           d="M -53,28.69238 L -53,21.384758 L -49.514456,21.094409 C -45.518087,20.761506 -41.392482,21.607091 -39.791623,23.087203 C -38.845679,23.961797 -38.837826,24.191853 -39.735768,24.723482 C -40.625147,25.250041 -40.556225,26.056573 -39.272555,30.144015 C -38.443123,32.785077 -37.909879,35.183108 -38.087568,35.472973 C -38.265257,35.762838 -41.693244,36 -45.705319,36 L -53,36 L -53,28.69238 z M -32.085571,33.364865 C -31.84656,31.915541 -31.450707,29.622973 -31.205899,28.27027 C -30.96109,26.917568 -30.72892,25.182159 -30.689965,24.413807 C -30.631749,23.265544 -29.769879,22.862116 -25.849446,22.148036 C -17.852139,20.691381 -17.77766,20.754478 -17.77766,28.986361 L -17.77766,36 L -25.148898,36 L -32.520136,36 L -32.085571,33.364865 z M -53,16.750857 C -53,15.2212 -52.636311,14.19422 -52.082752,14.16074 C -51.348953,14.116358 -51.348953,14.034377 -52.082752,13.75083 C -52.587238,13.555891 -53,12.624917 -53,11.681999 C -53,10.037347 -52.928873,10.012231 -51.251636,11.064627 C -50.290037,11.667992 -49.298267,13.143247 -49.047703,14.342973 C -48.79714,15.542699 -48.015409,16.943567 -47.310523,17.456014 C -46.159638,18.292699 -46.266048,18.390015 -48.353742,18.410084 C -49.632399,18.422375 -51.200894,18.624372 -51.839286,18.858965 C -52.765498,19.199324 -53,18.773418 -53,16.750857 z M -20.345956,15.149341 C -23.424944,14.500537 -25.931191,13.27485 -26.590267,12.095544 C -27.157547,11.08049 -26.885263,10.795682 -25.002901,10.435163 C -23.753246,10.195823 -21.616345,10 -20.254231,10 C -17.854098,10 -17.77766,10.086753 -17.77766,12.810811 C -17.77766,14.356757 -18.025317,15.58494 -18.328009,15.540107 C -18.630701,15.495274 -19.538777,15.319429 -20.345956,15.149341 z M -47.40173,10.84956 C -47.599033,10.543846 -46.627893,10.420334 -45.24364,10.575089 C -43.859387,10.729844 -42.726817,10.979975 -42.726817,11.130934 C -42.726817,11.659773 -47.046632,11.399772 -47.40173,10.84956 z "
           id="path1367" />
        <path
           style="fill:#a47b4d"
           d="M -53,28.69238 L -53,21.384758 L -49.514456,21.094409 C -45.518087,20.761506 -41.392482,21.607091 -39.791623,23.087203 C -38.845679,23.961797 -38.837826,24.191853 -39.735768,24.723482 C -40.625147,25.250041 -40.556225,26.056573 -39.272555,30.144015 C -38.443123,32.785077 -37.909879,35.183108 -38.087568,35.472973 C -38.265257,35.762838 -41.693244,36 -45.705319,36 L -53,36 L -53,28.69238 z M -32.085571,33.364865 C -31.84656,31.915541 -31.450707,29.622973 -31.205899,28.27027 C -30.96109,26.917568 -30.72892,25.182159 -30.689965,24.413807 C -30.631749,23.265544 -29.769879,22.862116 -25.849446,22.148036 C -17.852139,20.691381 -17.77766,20.754478 -17.77766,28.986361 L -17.77766,36 L -25.148898,36 L -32.520136,36 L -32.085571,33.364865 z M -53,16.750857 C -53,15.2212 -52.636311,14.19422 -52.082752,14.16074 C -51.348953,14.116358 -51.348953,14.034377 -52.082752,13.75083 C -52.587238,13.555891 -53,12.624917 -53,11.681999 C -53,10.037347 -52.928873,10.012231 -51.251636,11.064627 C -50.290037,11.667992 -49.298267,13.143247 -49.047703,14.342973 C -48.79714,15.542699 -48.015409,16.943567 -47.310523,17.456014 C -46.159638,18.292699 -46.266048,18.390015 -48.353742,18.410084 C -49.632399,18.422375 -51.200894,18.624372 -51.839286,18.858965 C -52.765498,19.199324 -53,18.773418 -53,16.750857 z M -20.345956,15.149341 C -23.424944,14.500537 -25.931191,13.27485 -26.590267,12.095544 C -27.157547,11.08049 -26.885263,10.795682 -25.002901,10.435163 C -23.753246,10.195823 -21.616345,10 -20.254231,10 C -17.854098,10 -17.77766,10.086753 -17.77766,12.810811 C -17.77766,14.356757 -18.025317,15.58494 -18.328009,15.540107 C -18.630701,15.495274 -19.538777,15.319429 -20.345956,15.149341 z "
           id="path1365" />
        <path
           style="fill:#877965"
           d="M -53,28.621622 L -53,21.243243 L -48.573639,21.243243 C -46.13914,21.243243 -42.919598,21.738189 -41.419101,22.343123 C -38.854214,23.377172 -38.773646,23.501575 -40.072988,24.421588 C -41.68228,25.561063 -41.406452,27.997317 -39.165205,32.439585 C -37.421074,35.896542 -37.632922,36 -46.455827,36 L -53,36 L -53,28.621622 z M -31.427453,33.364865 C -29.723184,28.692023 -29.313904,25.312104 -30.376199,24.683392 C -32.209203,23.59854 -29.949594,22.762065 -23.8315,22.260635 L -17.77766,21.764472 L -17.77766,28.882236 L -17.77766,36 L -25.083097,36 L -32.388534,36 L -31.427453,33.364865 z M -53,16.750857 C -53,15.2212 -52.636311,14.19422 -52.082752,14.16074 C -51.348953,14.116358 -51.348953,14.034377 -52.082752,13.75083 C -52.587238,13.555891 -53,12.624917 -53,11.681999 C -53,10.037347 -52.928873,10.012231 -51.251636,11.064627 C -50.290037,11.667992 -49.298267,13.143247 -49.047703,14.342973 C -48.79714,15.542699 -48.015409,16.943567 -47.310523,17.456014 C -46.159638,18.292699 -46.266048,18.390015 -48.353742,18.410084 C -49.632399,18.422375 -51.200894,18.624372 -51.839286,18.858965 C -52.765498,19.199324 -53,18.773418 -53,16.750857 z M -20.345956,15.149341 C -23.424944,14.500537 -25.931191,13.27485 -26.590267,12.095544 C -27.157547,11.08049 -26.885263,10.795682 -25.002901,10.435163 C -23.753246,10.195823 -21.616345,10 -20.254231,10 C -17.854098,10 -17.77766,10.086753 -17.77766,12.810811 C -17.77766,14.356757 -18.025317,15.58494 -18.328009,15.540107 C -18.630701,15.495274 -19.538777,15.319429 -20.345956,15.149341 z "
           id="path1363" />
        <path
           style="fill:#a6743a"
           d="M -53,28.621622 L -53,21.243243 L -48.573639,21.243243 C -46.13914,21.243243 -42.919598,21.738189 -41.419101,22.343123 C -38.854214,23.377172 -38.773646,23.501575 -40.072988,24.421588 C -41.68228,25.561063 -41.406452,27.997317 -39.165205,32.439585 C -37.421074,35.896542 -37.632922,36 -46.455827,36 L -53,36 L -53,28.621622 z M -31.427453,33.364865 C -29.723184,28.692023 -29.313904,25.312104 -30.376199,24.683392 C -32.209203,23.59854 -29.949594,22.762065 -23.8315,22.260635 L -17.77766,21.764472 L -17.77766,28.882236 L -17.77766,36 L -25.083097,36 L -32.388534,36 L -31.427453,33.364865 z M -53,16.675676 C -53,14.093981 -51.697154,13.386759 -50.175551,15.142484 C -49.583594,15.825524 -49.66727,16.471352 -50.49421,17.601943 C -52.114712,19.817491 -53,19.490244 -53,16.675676 z M -19.561917,14.996764 C -19.783717,14.653092 -20.850325,14.159166 -21.932157,13.899149 C -23.013988,13.639133 -24.661823,12.851877 -25.594012,12.14969 L -27.2889,10.872988 L -25.009851,10.436494 C -23.756373,10.196422 -21.616345,10 -20.254231,10 C -17.991685,10 -17.77766,10.182182 -17.77766,12.108108 C -17.77766,13.267568 -18.127358,14.216216 -18.554765,14.216216 C -18.982173,14.216216 -19.12779,14.532432 -18.878358,14.918919 C -18.628926,15.305405 -18.58995,15.621622 -18.791745,15.621622 C -18.99354,15.621622 -19.340117,15.340436 -19.561917,14.996764 z M -53,11.706564 C -53,10.100386 -52.8777,10.016731 -51.899302,10.953668 C -50.488859,12.304341 -50.488859,13.513514 -51.899302,13.513514 C -52.592334,13.513514 -53,12.844273 -53,11.706564 z "
           id="path1361" />
        <path
           style="fill:#8f6f4b"
           d="M -53,28.621622 L -53,21.243243 L -48.560767,21.243243 C -46.020545,21.243243 -43.197206,21.700976 -41.960773,22.313266 C -40.048736,23.260118 -39.904986,23.544252 -40.711949,24.781649 C -41.46858,25.941866 -41.345502,26.911984 -39.989241,30.47809 C -39.090187,32.842034 -38.532312,35.051532 -38.749517,35.388085 C -38.966723,35.724638 -42.261938,36 -46.072218,36 L -53,36 L -53,28.621622 z M -31.719836,35.354052 C -31.719836,34.998781 -31.204018,32.779993 -30.573574,30.423412 C -29.94313,28.066832 -29.622761,25.54901 -29.861644,24.828253 C -30.410463,23.17235 -29.3501,22.774097 -22.852672,22.195815 L -17.77766,21.74413 L -17.77766,28.872066 L -17.77766,36 L -24.748748,36 C -28.582847,36 -31.719836,35.709324 -31.719836,35.354052 z M -53,16.675676 C -53,14.093981 -51.697154,13.386759 -50.175551,15.142484 C -49.583594,15.825524 -49.66727,16.471352 -50.49421,17.601943 C -52.114712,19.817491 -53,19.490244 -53,16.675676 z M -19.561917,14.996764 C -19.783717,14.653092 -20.850325,14.159166 -21.932157,13.899149 C -23.013988,13.639133 -24.661823,12.851877 -25.594012,12.14969 L -27.2889,10.872988 L -25.009851,10.436494 C -23.756373,10.196422 -21.616345,10 -20.254231,10 C -17.991685,10 -17.77766,10.182182 -17.77766,12.108108 C -17.77766,13.267568 -18.127358,14.216216 -18.554765,14.216216 C -18.982173,14.216216 -19.12779,14.532432 -18.878358,14.918919 C -18.628926,15.305405 -18.58995,15.621622 -18.791745,15.621622 C -18.99354,15.621622 -19.340117,15.340436 -19.561917,14.996764 z M -53,11.706564 C -53,10.100386 -52.8777,10.016731 -51.899302,10.953668 C -50.488859,12.304341 -50.488859,13.513514 -51.899302,13.513514 C -52.592334,13.513514 -53,12.844273 -53,11.706564 z "
           id="path1359" />
        <path
           style="fill:#736d66"
           d="M -53,28.621622 L -53,21.243243 L -48.940538,21.243243 C -45.23962,21.243243 -39.791623,22.696808 -39.791623,23.684238 C -39.791623,23.906769 -40.639317,24.397474 -41.675387,24.774695 C -43.923254,25.593116 -43.693002,26.945464 -40.485547,31.763034 C -38.967463,34.043182 -38.635926,35.051677 -39.276285,35.441462 C -39.761515,35.736822 -43.047854,35.983321 -46.579261,35.98924 L -53,36 L -53,28.621622 z M -31.519364,34.77027 C -31.314962,34.093919 -30.298102,31.739874 -29.259675,29.539059 C -27.424573,25.649792 -27.412017,25.525301 -28.811933,25.099813 C -30.494079,24.588545 -30.688595,23.662064 -29.226585,23.124813 C -28.662476,22.917517 -25.855696,22.526611 -22.989296,22.256132 L -17.77766,21.764353 L -17.77766,28.882177 L -17.77766,36 L -24.834332,36 C -31.20735,36 -31.855,35.880863 -31.519364,34.77027 z M -53,15.972973 C -53,14.130727 -51.672827,13.660121 -50.268907,15.004547 C -49.12878,16.096359 -49.933125,17.72973 -51.610911,17.72973 C -52.603407,17.72973 -53,17.228165 -53,15.972973 z M -19.561917,14.996764 C -19.783717,14.653092 -20.850325,14.159166 -21.932157,13.899149 C -23.013988,13.639133 -24.661823,12.851877 -25.594012,12.14969 L -27.2889,10.872988 L -25.009851,10.436494 C -23.756373,10.196422 -21.616345,10 -20.254231,10 C -17.991685,10 -17.77766,10.182182 -17.77766,12.108108 C -17.77766,13.267568 -18.127358,14.216216 -18.554765,14.216216 C -18.982173,14.216216 -19.12779,14.532432 -18.878358,14.918919 C -18.628926,15.305405 -18.58995,15.621622 -18.791745,15.621622 C -18.99354,15.621622 -19.340117,15.340436 -19.561917,14.996764 z M -53,11.706564 C -53,10.100386 -52.8777,10.016731 -51.899302,10.953668 C -50.488859,12.304341 -50.488859,13.513514 -51.899302,13.513514 C -52.592334,13.513514 -53,12.844273 -53,11.706564 z "
           id="path1357" />
        <path
           style="fill:#746655"
           d="M -53,28.621622 L -53,21.243243 L -48.940538,21.243243 C -45.23962,21.243243 -39.791623,22.696808 -39.791623,23.684238 C -39.791623,23.906769 -40.639317,24.397474 -41.675387,24.774695 C -43.923254,25.593116 -43.693002,26.945464 -40.485547,31.763034 C -38.967463,34.043182 -38.635926,35.051677 -39.276285,35.441462 C -39.761515,35.736822 -43.047854,35.983321 -46.579261,35.98924 L -53,36 L -53,28.621622 z M -31.519364,34.77027 C -31.314962,34.093919 -30.298102,31.739874 -29.259675,29.539059 C -27.424573,25.649792 -27.412017,25.525301 -28.811933,25.099813 C -30.494079,24.588545 -30.688595,23.662064 -29.226585,23.124813 C -28.662476,22.917517 -25.855696,22.526611 -22.989296,22.256132 L -17.77766,21.764353 L -17.77766,28.882177 L -17.77766,36 L -24.834332,36 C -31.20735,36 -31.855,35.880863 -31.519364,34.77027 z M -53,16.324324 C -53,15.429975 -52.510801,14.918919 -51.654702,14.918919 C -49.923542,14.918919 -49.332163,15.509563 -49.826973,16.744376 C -50.449874,18.29884 -53,17.961249 -53,16.324324 z M -21.630103,14.134103 C -24.319273,12.830094 -25.149767,11.240133 -23.615906,10.332327 C -23.194637,10.083002 -22.398512,10.237803 -21.846738,10.676329 C -21.157088,11.224433 -20.694875,11.243342 -20.367978,10.736825 C -19.354655,9.1667151 -17.77766,10.001557 -17.77766,12.108108 C -17.77766,13.267568 -18.127358,14.216216 -18.554765,14.216216 C -18.982173,14.216216 -19.12779,14.532432 -18.878358,14.918919 C -18.336655,15.758271 -18.200768,15.797027 -21.630103,14.134103 z M -53,12.459459 C -53,11.87973 -52.669791,11.405405 -52.266201,11.405405 C -51.862612,11.405405 -51.532403,11.87973 -51.532403,12.459459 C -51.532403,13.039189 -51.862612,13.513514 -52.266201,13.513514 C -52.669791,13.513514 -53,13.039189 -53,12.459459 z "
           id="path1355" />
        <path
           style="fill:#8e6638"
           d="M -53,28.71405 L -53,21.4281 L -48.799865,21.391958 C -44.951121,21.35884 -39.791623,22.682726 -39.791623,23.7034 C -39.791623,23.936469 -40.782251,24.457864 -41.993019,24.862053 C -43.203787,25.266243 -44.194415,25.839546 -44.194415,26.13606 C -44.194415,26.432574 -42.884259,28.52376 -41.282958,30.783139 C -39.186057,33.741792 -38.621484,35.043213 -39.265012,35.434791 C -39.756442,35.73382 -43.047854,35.983321 -46.579261,35.98924 L -53,36 L -53,28.71405 z M -31.519364,34.77027 C -31.314962,34.093919 -30.298102,31.739874 -29.259675,29.539059 C -27.424573,25.649792 -27.412017,25.525301 -28.811933,25.099813 C -30.494079,24.588545 -30.688595,23.662064 -29.226585,23.124813 C -28.662476,22.917517 -25.855696,22.526611 -22.989296,22.256132 L -17.77766,21.764353 L -17.77766,28.882177 L -17.77766,36 L -24.834332,36 C -31.20735,36 -31.855,35.880863 -31.519364,34.77027 z M -53,16.324324 C -53,15.418619 -52.628397,14.92042 -52.082752,15.094595 C -50.895365,15.473618 -50.895365,17.175031 -52.082752,17.554054 C -52.628397,17.728228 -53,17.23003 -53,16.324324 z M -19.245257,13.513514 C -19.245257,13.127027 -18.915048,12.810811 -18.511459,12.810811 C -18.107869,12.810811 -17.77766,13.127027 -17.77766,13.513514 C -17.77766,13.9 -18.107869,14.216216 -18.511459,14.216216 C -18.915048,14.216216 -19.245257,13.9 -19.245257,13.513514 z M -53,12.500931 C -53,11.266615 -52.55968,11.084873 -51.930639,12.059553 C -51.698442,12.419333 -51.844059,12.91232 -52.254232,13.155078 C -52.664404,13.397836 -53,13.10347 -53,12.500931 z M -19.061808,11.642722 C -20.33948,11.149017 -20.211164,10 -18.878358,10 C -18.272974,10 -17.77766,10.474324 -17.77766,11.054054 C -17.77766,11.633784 -17.860212,12.083144 -17.96111,12.052632 C -18.062007,12.02212 -18.557321,11.83766 -19.061808,11.642722 z M -24.014949,10.702703 C -23.428146,9.7934705 -22.180452,9.7934705 -22.180452,10.702703 C -22.180452,11.089189 -22.695255,11.405405 -23.324457,11.405405 C -23.95366,11.405405 -24.264382,11.089189 -24.014949,10.702703 z "
           id="path1353" />
        <path
           style="fill:#835b33"
           d="M -53,28.621954 L -53,21.243909 L -48.31635,21.526107 C -45.740342,21.681316 -42.874051,22.197116 -41.946814,22.672328 C -40.342913,23.494335 -40.325947,23.581879 -41.597933,24.472564 C -42.333286,24.987481 -43.281187,25.519302 -43.70438,25.654388 C -44.131395,25.790695 -43.277942,27.947813 -41.786655,30.50148 C -40.308712,33.032294 -39.310252,35.304794 -39.567854,35.55148 C -39.825456,35.798166 -42.953072,36 -46.518111,36 L -53,36 L -53,28.621954 z M -29.48786,31.608108 C -26.984998,26.541735 -26.900613,25.962505 -28.482252,24.705486 C -29.531832,23.871326 -29.500366,23.72732 -28.165168,23.25433 C -27.349907,22.965525 -24.679202,22.512147 -22.230267,22.246823 L -17.77766,21.764415 L -17.77766,28.882208 L -17.77766,36 L -24.717589,36 L -31.657518,36 L -29.48786,31.608108 z M -53,16.324324 C -53,15.418619 -52.628397,14.92042 -52.082752,15.094595 C -50.895365,15.473618 -50.895365,17.175031 -52.082752,17.554054 C -52.628397,17.728228 -53,17.23003 -53,16.324324 z M -19.245257,13.513514 C -19.245257,13.127027 -18.915048,12.810811 -18.511459,12.810811 C -18.107869,12.810811 -17.77766,13.127027 -17.77766,13.513514 C -17.77766,13.9 -18.107869,14.216216 -18.511459,14.216216 C -18.915048,14.216216 -19.245257,13.9 -19.245257,13.513514 z M -53,12.500931 C -53,11.266615 -52.55968,11.084873 -51.930639,12.059553 C -51.698442,12.419333 -51.844059,12.91232 -52.254232,13.155078 C -52.664404,13.397836 -53,13.10347 -53,12.500931 z M -19.061808,11.642722 C -20.33948,11.149017 -20.211164,10 -18.878358,10 C -18.272974,10 -17.77766,10.474324 -17.77766,11.054054 C -17.77766,11.633784 -17.860212,12.083144 -17.96111,12.052632 C -18.062007,12.02212 -18.557321,11.83766 -19.061808,11.642722 z M -24.014949,10.702703 C -23.428146,9.7934705 -22.180452,9.7934705 -22.180452,10.702703 C -22.180452,11.089189 -22.695255,11.405405 -23.324457,11.405405 C -23.95366,11.405405 -24.264382,11.089189 -24.014949,10.702703 z "
           id="path1351" />
        <path
           style="fill:#6c5946"
           d="M -53,28.597418 L -53,21.194837 L -49.147557,21.612857 C -43.154685,22.26313 -41.993019,22.598958 -41.993019,23.681173 C -41.993019,24.234335 -42.498066,24.957584 -43.115346,25.288391 C -44.103331,25.817866 -44.055412,26.305695 -42.715009,29.363849 C -41.877544,31.274543 -40.896617,33.357125 -40.535171,33.991808 C -40.173726,34.626492 -40.078704,35.337979 -40.32401,35.57289 C -40.569316,35.8078 -43.521766,36 -46.88501,36 L -53,36 L -53,28.597418 z M -28.79204,32.036217 C -26.593931,28.091611 -25.918208,24.756757 -27.317044,24.756757 C -27.720633,24.756757 -28.050842,24.466744 -28.050842,24.112283 C -28.050842,23.462306 -21.861958,21.945946 -19.209139,21.945946 C -17.885131,21.945946 -17.77766,22.473515 -17.77766,28.972973 L -17.77766,36 L -24.389248,36 L -31.000836,36 L -28.79204,32.036217 z M -53,16.324324 C -53,15.418619 -52.628397,14.92042 -52.082752,15.094595 C -50.895365,15.473618 -50.895365,17.175031 -52.082752,17.554054 C -52.628397,17.728228 -53,17.23003 -53,16.324324 z M -19.245257,13.513514 C -19.245257,13.127027 -18.915048,12.810811 -18.511459,12.810811 C -18.107869,12.810811 -17.77766,13.127027 -17.77766,13.513514 C -17.77766,13.9 -18.107869,14.216216 -18.511459,14.216216 C -18.915048,14.216216 -19.245257,13.9 -19.245257,13.513514 z M -53,12.500931 C -53,11.266615 -52.55968,11.084873 -51.930639,12.059553 C -51.698442,12.419333 -51.844059,12.91232 -52.254232,13.155078 C -52.664404,13.397836 -53,13.10347 -53,12.500931 z M -19.061808,11.642722 C -20.33948,11.149017 -20.211164,10 -18.878358,10 C -18.272974,10 -17.77766,10.474324 -17.77766,11.054054 C -17.77766,11.633784 -17.860212,12.083144 -17.96111,12.052632 C -18.062007,12.02212 -18.557321,11.83766 -19.061808,11.642722 z M -24.014949,10.702703 C -23.428146,9.7934705 -22.180452,9.7934705 -22.180452,10.702703 C -22.180452,11.089189 -22.695255,11.405405 -23.324457,11.405405 C -23.95366,11.405405 -24.264382,11.089189 -24.014949,10.702703 z "
           id="path1349" />
        <path
           style="fill:#55514c"
           d="M -53,28.724773 L -53,21.449546 L -49.147557,21.73664 C -43.526333,22.155547 -41.993019,22.560523 -41.993019,23.62628 C -41.993019,24.192231 -43.181178,24.759078 -44.928214,25.026601 C -46.542571,25.273808 -47.863409,25.869558 -47.863409,26.35049 C -47.863409,26.831423 -46.043379,28.907278 -43.818897,30.963502 C -41.594416,33.019726 -39.962857,34.994121 -40.19321,35.351046 C -40.423563,35.707971 -43.399326,36 -46.806017,36 L -53,36 L -53,28.724773 z M -29.499915,33.364865 C -28.602818,31.915541 -27.424149,29.530437 -26.880651,28.064635 C -26.028862,25.767383 -26.041423,25.344804 -26.971657,25.002968 C -28.977023,24.266046 -28.068193,23.471372 -24.34573,22.706877 C -17.469948,21.294775 -17.77766,21.00121 -17.77766,28.972973 L -17.77766,36 L -24.45433,36 L -31.131001,36 L -29.499915,33.364865 z M -53,15.621622 C -53,15.235135 -52.669791,14.918919 -52.266201,14.918919 C -51.862612,14.918919 -51.532403,15.235135 -51.532403,15.621622 C -51.532403,16.008108 -51.862612,16.324324 -52.266201,16.324324 C -52.669791,16.324324 -53,16.008108 -53,15.621622 z M -19.245257,13.554985 C -19.245257,13.145689 -18.915048,12.810811 -18.511459,12.810811 C -18.107869,12.810811 -17.77766,12.950257 -17.77766,13.120691 C -17.77766,13.291125 -18.107869,13.626003 -18.511459,13.864865 C -18.915048,14.103727 -19.245257,13.964281 -19.245257,13.554985 z M -53,12.108108 C -53,11.207675 -52.480426,11.207675 -51.899302,12.108108 C -51.64987,12.494595 -51.795487,12.810811 -52.222895,12.810811 C -52.650303,12.810811 -53,12.494595 -53,12.108108 z M -19.979056,10.702703 C -19.979056,10.316216 -19.483742,10 -18.878358,10 C -18.272974,10 -17.77766,10.316216 -17.77766,10.702703 C -17.77766,11.089189 -18.272974,11.405405 -18.878358,11.405405 C -19.483742,11.405405 -19.979056,11.089189 -19.979056,10.702703 z "
           id="path1347" />
        <path
           style="fill:#6b4f34"
           d="M -53,28.724773 L -53,21.449546 L -49.147557,21.73664 C -43.526333,22.155547 -41.993019,22.560523 -41.993019,23.62628 C -41.993019,24.192231 -43.181178,24.759078 -44.928214,25.026601 C -46.542571,25.273808 -47.863409,25.869558 -47.863409,26.35049 C -47.863409,26.831423 -46.043379,28.907278 -43.818897,30.963502 C -41.594416,33.019726 -39.962857,34.994121 -40.19321,35.351046 C -40.423563,35.707971 -43.399326,36 -46.806017,36 L -53,36 L -53,28.724773 z M -29.499915,33.364865 C -28.602818,31.915541 -27.424149,29.530437 -26.880651,28.064635 C -26.028862,25.767383 -26.041423,25.344804 -26.971657,25.002968 C -28.977023,24.266046 -28.068193,23.471372 -24.34573,22.706877 C -17.469948,21.294775 -17.77766,21.00121 -17.77766,28.972973 L -17.77766,36 L -24.45433,36 L -31.131001,36 L -29.499915,33.364865 z "
           id="path1345" />
        <path
           style="fill:#584430"
           d="M -53,28.665801 L -53,21.331602 L -50.248255,21.676732 C -43.968055,22.464409 -42.726817,22.74435 -42.726817,23.373075 C -42.726817,23.736484 -44.21276,24.392128 -46.028912,24.830061 C -48.016705,25.309382 -49.331006,26.026523 -49.331006,26.631831 C -49.331006,28.801764 -46.92014,31.93931 -44.512577,32.902626 C -43.12682,33.457095 -41.993019,34.212801 -41.993019,34.581971 C -41.993019,34.951141 -41.415152,35.075176 -40.708871,34.857604 C -39.624949,34.5237 -39.596345,34.580244 -40.525421,35.220249 C -41.130805,35.637276 -44.185243,35.983321 -47.31306,35.98924 L -53,36 L -53,28.665801 z M -27.417462,35.3716 C -26.689609,34.930004 -26.655915,34.688515 -27.293742,34.484915 C -27.919018,34.285322 -27.785052,33.557157 -26.826424,31.944836 C -26.087292,30.701685 -25.23489,29.682562 -24.932198,29.680119 C -24.629506,29.677675 -24.381849,29.106486 -24.381849,28.410811 C -24.381849,27.715135 -24.003876,26.783991 -23.54191,26.341601 C -22.911191,25.73761 -23.185363,25.421074 -24.642608,25.070828 C -28.450019,24.155724 -26.695624,23.183895 -19.979056,22.487503 C -18.146525,22.297501 -18.144334,22.304638 -17.934537,29.148649 L -17.724515,36 L -23.071129,35.98924 C -26.359748,35.982621 -28.032718,35.744882 -27.417462,35.3716 z "
           id="path1343" />
        <path
           style="fill:#4b3928"
           d="M -53,28.687409 C -53,22.096667 -52.873238,21.399391 -51.715852,21.623764 C -51.009571,21.760685 -48.86321,22.066672 -46.94616,22.303736 C -45.029111,22.540801 -43.460616,23.012227 -43.460616,23.351351 C -43.460616,23.916522 -49.354663,25.179619 -51.237048,25.017846 C -53.049299,24.862099 -50.16773,32.925823 -48.145594,33.668906 C -47.222805,34.008008 -47.19238,34.203989 -47.985332,34.701195 C -48.619865,35.099066 -48.005419,35.261893 -46.238294,35.164156 C -44.739097,35.081238 -43.280672,35.235381 -42.99735,35.506698 C -42.714027,35.778014 -44.848719,36 -47.741109,36 L -53,36 L -53,28.687409 z M -25.849446,35.297297 C -24.095658,34.943785 -23.81173,34.750267 -24.954166,34.687099 L -26.627181,34.594595 L -25.044984,32.545246 C -24.174776,31.418105 -22.844052,30.340952 -22.087821,30.151574 C -21.33159,29.962195 -20.712855,29.221277 -20.712855,28.50509 C -20.712855,27.788902 -20.052436,26.80797 -19.245257,26.32524 C -17.826588,25.476812 -17.77766,25.623456 -17.77766,30.723775 L -17.77766,36 L -23.097701,35.907496 C -27.367914,35.833245 -27.910929,35.712832 -25.849446,35.297297 z M -24.991386,24.155945 C -25.685498,23.724988 -25.28768,23.419435 -23.615513,23.099174 C -19.927716,22.39287 -17.77766,22.566787 -17.77766,23.571395 C -17.77766,24.647654 -23.458053,25.107954 -24.991386,24.155945 z "
           id="path1341" />
        <path
           style="fill:#482f1a"
           d="M -53,33.147718 C -53,31.394616 -52.712604,30.465529 -52.254232,30.736814 C -51.844059,30.979572 -51.67984,31.443735 -51.889301,31.768287 C -52.098761,32.092839 -51.253289,33.177746 -50.010473,34.179191 L -47.750807,36 L -50.375403,36 C -52.954594,36 -53,35.950655 -53,33.147718 z M -24.565298,35.491668 C -23.253633,35.33579 -22.180452,34.912071 -22.180452,34.550073 C -22.180452,34.188073 -21.189824,33.891892 -19.979056,33.891892 C -18.511459,33.891892 -17.77766,34.243243 -17.77766,34.945946 C -17.77766,35.782446 -18.724249,35.976789 -22.363902,35.887542 C -24.896063,35.825451 -25.882022,35.648148 -24.565298,35.491668 z M -19.061808,34.831911 C -19.566294,34.636972 -20.391818,34.636972 -20.896305,34.831911 C -21.400791,35.02685 -20.98803,35.186344 -19.979056,35.186344 C -18.970083,35.186344 -18.557321,35.02685 -19.061808,34.831911 z M -52.082752,24.243657 C -52.587238,24.074961 -53,23.455132 -53,22.86626 C -53,22.178643 -52.584727,21.948185 -51.839286,22.222116 C -51.200894,22.456709 -48.97198,22.658264 -46.886145,22.670017 C -44.452496,22.683729 -43.488083,22.90215 -44.194415,23.279642 C -45.563474,24.011322 -50.846721,24.656975 -52.082752,24.243657 z M -22.180452,24.079031 C -24.196659,23.768325 -24.459802,23.572046 -23.404585,23.165947 C -21.531055,22.444923 -17.77766,22.518446 -17.77766,23.27617 C -17.77766,24.232037 -19.339473,24.516837 -22.180452,24.079031 z "
           id="path1339" />
        <path
           style="fill:#3a2c22"
           d="M -53,33.147718 C -53,31.394616 -52.712604,30.465529 -52.254232,30.736814 C -51.844059,30.979572 -51.67984,31.443735 -51.889301,31.768287 C -52.098761,32.092839 -51.253289,33.177746 -50.010473,34.179191 L -47.750807,36 L -50.375403,36 C -52.954594,36 -53,35.950655 -53,33.147718 z M -24.748748,35.471301 C -23.53798,35.316121 -22.233653,34.897271 -21.850243,34.540524 C -20.751322,33.518022 -17.77766,33.772561 -17.77766,34.889128 C -17.77766,35.651026 -18.859974,35.870681 -22.363902,35.819905 C -24.886335,35.783353 -25.959516,35.62648 -24.748748,35.471301 z M -19.061808,34.831911 C -19.566294,34.636972 -20.391818,34.636972 -20.896305,34.831911 C -21.400791,35.02685 -20.98803,35.186344 -19.979056,35.186344 C -18.970083,35.186344 -18.557321,35.02685 -19.061808,34.831911 z M -52.082752,24.284342 C -52.587238,24.093269 -53,23.455132 -53,22.86626 C -53,22.178643 -52.584727,21.948185 -51.839286,22.222116 C -51.200894,22.456709 -49.814014,22.648649 -48.757332,22.648649 C -47.604303,22.648649 -47.114831,22.898046 -47.533199,23.272371 C -48.510109,24.14644 -50.990279,24.698111 -52.082752,24.284342 z M -22.119303,23.801556 C -21.242834,23.077741 -17.77766,22.707735 -17.77766,23.337963 C -17.77766,23.731814 -18.823323,24.054054 -20.101356,24.054054 C -21.379389,24.054054 -22.287465,23.94043 -22.119303,23.801556 z "
           id="path1337" />
        <path
           style="fill:#352619"
           d="M -53,34.987417 C -53,34.384879 -52.669791,33.891892 -52.266201,33.891892 C -51.862612,33.891892 -51.532403,34.189446 -51.532403,34.553123 C -51.532403,34.916801 -51.862612,35.409787 -52.266201,35.648649 C -52.669791,35.887511 -53,35.589956 -53,34.987417 z M -24.916911,35.57545 C -24.673075,35.341948 -24.040174,35.316984 -23.510463,35.519974 C -22.925087,35.744295 -23.098966,35.910805 -23.9538,35.944524 C -24.727345,35.975036 -25.160745,35.808953 -24.916911,35.57545 z M -21.446654,35.730568 C -21.446654,35.58238 -20.631123,35.311843 -19.634363,35.129375 C -18.637604,34.946907 -17.996673,35.068152 -18.210072,35.398808 C -18.585836,35.981041 -21.446654,36.274284 -21.446654,35.730568 z M -53,22.924819 C -53,22.183804 -52.600957,21.942222 -51.839286,22.222116 C -51.200894,22.456709 -49.797504,22.653491 -48.720642,22.659409 C -47.186974,22.667837 -47.001221,22.817774 -47.863409,23.351351 C -49.690125,24.48184 -53,24.206994 -53,22.924819 z M -22.119303,23.801556 C -21.242834,23.077741 -17.77766,22.707735 -17.77766,23.337963 C -17.77766,23.731814 -18.823323,24.054054 -20.101356,24.054054 C -21.379389,24.054054 -22.287465,23.94043 -22.119303,23.801556 z "
           id="path1335" />
        <path
           style="fill:#2c1b10"
           d="M -53,23 C -53,22.355856 -52.587238,21.960585 -52.082752,22.121622 C -51.043933,22.453221 -51.158128,23.583231 -52.266201,23.936937 C -52.669791,24.065766 -53,23.644144 -53,23 z M -19.245257,23.351351 C -19.245257,22.964865 -18.915048,22.648649 -18.511459,22.648649 C -18.107869,22.648649 -17.77766,22.964865 -17.77766,23.351351 C -17.77766,23.737838 -18.107869,24.054054 -18.511459,24.054054 C -18.915048,24.054054 -19.245257,23.737838 -19.245257,23.351351 z "
           id="path1333" />
        <path
           style="fill:#160c03"
           d="M -53,23.351351 C -53,22.964865 -52.854383,22.648649 -52.676407,22.648649 C -52.498431,22.648649 -52.148734,22.964865 -51.899302,23.351351 C -51.64987,23.737838 -51.795487,24.054054 -52.222895,24.054054 C -52.650303,24.054054 -53,23.737838 -53,23.351351 z M -19.245257,23.351351 C -19.245257,22.964865 -18.915048,22.648649 -18.511459,22.648649 C -18.107869,22.648649 -17.77766,22.964865 -17.77766,23.351351 C -17.77766,23.737838 -18.107869,24.054054 -18.511459,24.054054 C -18.915048,24.054054 -19.245257,23.737838 -19.245257,23.351351 z "
           id="path1331" />
      </g>
      <rect
         style="opacity:1;fill:#000000;fill-opacity:0.17647059;stroke:none;stroke-width:1;stroke-linecap:round;stroke-linejoin:round;stroke-miterlimit:4;stroke-dasharray:none;stroke-dashoffset:0;stroke-opacity:1"
         id="rect1475"
         width="23"
         height="1"
         x="15"
         y="6" />
      <rect
         style="opacity:1;fill:#000000;fill-opacity:0.17647059;stroke:none;stroke-width:1;stroke-linecap:round;stroke-linejoin:round;stroke-miterlimit:4;stroke-dasharray:none;stroke-dashoffset:0;stroke-opacity:1"
         id="rect2490"
         width="18"
         height="1"
         x="15"
         y="8" />
      <rect
         style="opacity:1;fill:#000000;fill-opacity:0.17647059;stroke:none;stroke-width:1;stroke-linecap:round;stroke-linejoin:round;stroke-miterlimit:4;stroke-dasharray:none;stroke-dashoffset:0;stroke-opacity:1"
         id="rect2492"
         width="23"
         height="1"
         x="15"
         y="28" />
      <rect
         style="opacity:1;fill:#000000;fill-opacity:0.17647059;stroke:none;stroke-width:1;stroke-linecap:round;stroke-linejoin:round;stroke-miterlimit:4;stroke-dasharray:none;stroke-dashoffset:0;stroke-opacity:1"
         id="rect2494"
         width="23"
         height="1"
         x="15"
         y="30" />
      <rect
         y="32"
         x="15"
         height="1"
         width="23"
         id="rect2498"
         style="opacity:1;fill:#000000;fill-opacity:0.17647059;stroke:none;stroke-width:1;stroke-linecap:round;stroke-linejoin:round;stroke-miterlimit:4;stroke-dasharray:none;stroke-dashoffset:0;stroke-opacity:1" />
      <rect
         y="34"
         x="15"
         height="1"
         width="23"
         id="rect2500"
         style="opacity:1;fill:#000000;fill-opacity:0.17647059;stroke:none;stroke-width:1;stroke-linecap:round;stroke-linejoin:round;stroke-miterlimit:4;stroke-dasharray:none;stroke-dashoffset:0;stroke-opacity:1" />
      <rect
         style="opacity:1;fill:#000000;fill-opacity:0.17647059;stroke:none;stroke-width:1;stroke-linecap:round;stroke-linejoin:round;stroke-miterlimit:4;stroke-dasharray:none;stroke-dashoffset:0;stroke-opacity:1"
         id="rect1482"
         width="15"
         height="1"
         x="15"
         y="36" />
      <rect
         style="opacity:1;fill:#000000;fill-opacity:0.17647059;stroke:none;stroke-width:1;stroke-linecap:round;stroke-linejoin:round;stroke-miterlimit:4;stroke-dasharray:none;stroke-dashoffset:0;stroke-opacity:1"
         id="rect1484"
         width="6"
         height="1"
         x="-38"
         y="39"
         transform="scale(-1,1)" />
    </g>
  </g>
  <g
     inkscape:groupmode="layer"
     id="layer2"
     inkscape:label="lights">
    <rect
       style="opacity:0.76623374;fill:url(#radialGradient2205);fill-opacity:1;stroke:none;stroke-width:1.00000036;stroke-linecap:round;stroke-linejoin:round;stroke-miterlimit:4;stroke-dasharray:none;stroke-dashoffset:0;stroke-opacity:1"
       id="rect2256"
       width="34"
       height="40"
       x="7"
       y="3" />
    <rect
       style="opacity:1;fill:none;fill-opacity:1;stroke:#ffffff;stroke-width:1.00000036;stroke-linecap:round;stroke-linejoin:round;stroke-miterlimit:4;stroke-dasharray:none;stroke-dashoffset:0;stroke-opacity:0.73390557"
       id="rect2254"
       width="33.022804"
       height="39.013073"
       x="7.4918699"
       y="3.4996946" />
  </g>
</svg>
