<?xml version="1.0" encoding="UTF-8" standalone="no"?>
<!-- Created with Inkscape (http://www.inkscape.org/) -->
<svg
   xmlns:dc="http://purl.org/dc/elements/1.1/"
   xmlns:cc="http://web.resource.org/cc/"
   xmlns:rdf="http://www.w3.org/1999/02/22-rdf-syntax-ns#"
   xmlns:svg="http://www.w3.org/2000/svg"
   xmlns="http://www.w3.org/2000/svg"
   xmlns:xlink="http://www.w3.org/1999/xlink"
   xmlns:sodipodi="http://inkscape.sourceforge.net/DTD/sodipodi-0.dtd"
   xmlns:inkscape="http://www.inkscape.org/namespaces/inkscape"
   width="22"
   height="22"
   id="svg2"
   sodipodi:version="0.32"
   inkscape:version="0.43"
   version="1.0"
   sodipodi:docbase="/home/silvestre/Desktop/Gion/22x22/actions/SVGs"
   sodipodi:docname="go-previous.svg"
   inkscape:export-filename="/home/silvestre/Desktop/Gion/22x22/actions/go-previous.png"
   inkscape:export-xdpi="90"
   inkscape:export-ydpi="90">
  <defs
     id="defs4">
    <linearGradient
       inkscape:collect="always"
       id="linearGradient2218">
      <stop
         style="stop-color:#000000;stop-opacity:1;"
         offset="0"
         id="stop2220" />
      <stop
         style="stop-color:#000000;stop-opacity:0;"
         offset="1"
         id="stop2222" />
    </linearGradient>
    <linearGradient
       id="linearGradient2204">
      <stop
         style="stop-color:#000000;stop-opacity:0"
         offset="0"
         id="stop2206" />
      <stop
         id="stop2212"
         offset="0.5"
         style="stop-color:#000000;stop-opacity:0;" />
      <stop
         style="stop-color:#000000;stop-opacity:0.06060606;"
         offset="0.75"
         id="stop2214" />
      <stop
         style="stop-color:#000000;stop-opacity:0.24892704"
         offset="1"
         id="stop2208" />
    </linearGradient>
    <linearGradient
       id="linearGradient2196"
       inkscape:collect="always">
      <stop
         id="stop2198"
         offset="0"
         style="stop-color:#ffffff;stop-opacity:1;" />
      <stop
         id="stop2200"
         offset="1"
         style="stop-color:#ffffff;stop-opacity:0" />
    </linearGradient>
    <linearGradient
       inkscape:collect="always"
       id="linearGradient2184">
      <stop
         style="stop-color:#ffffff;stop-opacity:1;"
         offset="0"
         id="stop2186" />
      <stop
         style="stop-color:#ffffff;stop-opacity:0;"
         offset="1"
         id="stop2188" />
    </linearGradient>
    <radialGradient
       inkscape:collect="always"
       xlink:href="#linearGradient2196"
       id="radialGradient2190"
       cx="23.821341"
       cy="19.220688"
       fx="23.821341"
       fy="11.559587"
       r="20.724566"
       gradientUnits="userSpaceOnUse" />
    <radialGradient
       inkscape:collect="always"
       xlink:href="#linearGradient2184"
       id="radialGradient2194"
       gradientUnits="userSpaceOnUse"
       cx="21.955513"
       cy="41.559357"
       fx="21.955513"
       fy="43.898674"
       r="20.724566"
       gradientTransform="matrix(0.592713,-6.494147e-8,6.494147e-8,0.592713,10.80802,15.56962)" />
    <radialGradient
       inkscape:collect="always"
       xlink:href="#linearGradient2204"
       id="radialGradient2210"
       cx="20.053436"
       cy="19.070505"
       fx="20.053436"
       fy="19.070505"
       r="20.724566"
       gradientUnits="userSpaceOnUse"
       gradientTransform="matrix(1.602242,-1.930651e-16,1.930651e-16,1.602242,-13.98654,-13.89271)" />
    <radialGradient
       inkscape:collect="always"
       xlink:href="#linearGradient2218"
       id="radialGradient2224"
       cx="24.416874"
       cy="42.401985"
       fx="24.416874"
       fy="60.86256"
       r="23.702232"
       gradientTransform="matrix(1,0,0,0.226131,3.252471e-16,32.8136)"
       gradientUnits="userSpaceOnUse" />
  </defs>
  <sodipodi:namedview
     id="base"
     pagecolor="#ffffff"
     bordercolor="#666666"
     borderopacity="1.0"
     inkscape:pageopacity="0.0"
     inkscape:pageshadow="2"
     inkscape:zoom="1"
     inkscape:cx="18.695845"
     inkscape:cy="2.6584552"
     inkscape:document-units="px"
     inkscape:current-layer="layer2"
     inkscape:showpageshadow="false"
     showgrid="false"
     inkscape:grid-bbox="false"
     inkscape:window-width="897"
     inkscape:window-height="590"
     inkscape:window-x="6"
     inkscape:window-y="44"
     showborder="false" />
  <metadata
     id="metadata7">
    <rdf:RDF>
      <cc:Work
         rdf:about="">
        <dc:format>image/svg+xml</dc:format>
        <dc:type
           rdf:resource="http://purl.org/dc/dcmitype/StillImage" />
        <dc:title>Go Previous</dc:title>
        <dc:creator>
          <cc:Agent>
            <dc:title>Silvestre Herrera</dc:title>
          </cc:Agent>
        </dc:creator>
        <cc:license
           rdf:resource="http://creativecommons.org/licenses/GPL/2.0/" />
      </cc:Work>
      <cc:License
         rdf:about="http://creativecommons.org/licenses/GPL/2.0/">
        <cc:permits
           rdf:resource="http://web.resource.org/cc/Reproduction" />
        <cc:permits
           rdf:resource="http://web.resource.org/cc/Distribution" />
        <cc:requires
           rdf:resource="http://web.resource.org/cc/Notice" />
        <cc:permits
           rdf:resource="http://web.resource.org/cc/DerivativeWorks" />
        <cc:requires
           rdf:resource="http://web.resource.org/cc/ShareAlike" />
        <cc:requires
           rdf:resource="http://web.resource.org/cc/SourceCode" />
      </cc:License>
    </rdf:RDF>
  </metadata>
  <g
     inkscape:label="Capa 1"
     inkscape:groupmode="layer"
     id="layer1"
     sodipodi:insensitive="true">
    <path
       sodipodi:type="arc"
       style="opacity:0.37229435;fill:url(#radialGradient2224);fill-opacity:1;stroke:none;stroke-width:1;stroke-linecap:round;stroke-linejoin:miter;stroke-miterlimit:4;stroke-dasharray:none;stroke-dashoffset:0;stroke-opacity:1"
       id="path2216"
       sodipodi:cx="24.416874"
       sodipodi:cy="42.401985"
       sodipodi:rx="23.702232"
       sodipodi:ry="5.3598013"
       d="M 48.119106 42.401985 A 23.702232 5.3598013 0 1 1  0.71464157,42.401985 A 23.702232 5.3598013 0 1 1  48.119106 42.401985 z"
       transform="matrix(0.421901,0,0,0.500625,0.698501,-1.910744)" />
    <path
       sodipodi:type="arc"
       style="opacity:1;fill:#75c922;fill-opacity:1;stroke:#4c8b3c;stroke-width:1.97376978;stroke-linecap:round;stroke-linejoin:miter;stroke-miterlimit:4;stroke-dasharray:none;stroke-dashoffset:0;stroke-opacity:1"
       id="path1307"
       sodipodi:cx="23.821341"
       sodipodi:cy="23.821341"
       sodipodi:rx="20.724566"
       sodipodi:ry="20.724566"
       d="M 44.545906 23.821341 A 20.724566 20.724566 0 1 1  3.0967751,23.821341 A 20.724566 20.724566 0 1 1  44.545906 23.821341 z"
       transform="matrix(0.506645,0,0,0.506645,-1.068965,-1.068965)" />
    <path
       style="opacity:1;fill:#ffffff;fill-opacity:1;stroke:none;stroke-width:1;stroke-linecap:round;stroke-linejoin:miter;stroke-miterlimit:4;stroke-dasharray:none;stroke-dashoffset:0;stroke-opacity:0.63948502"
       d="M 4.0057113,11.006844 C 4.0057113,11.535735 4.5785904,12.070614 4.5785904,12.070614 L 6.0850162,13.477433 L 10.935124,18.006844 L 13.580639,15.536254 L 11.224476,13.335886 L 15.613546,13.335887 C 18.789503,13.335886 18.816667,8.6941505 15.613546,8.6941507 L 11.224477,8.6941506 L 13.580638,6.4774328 L 10.935124,4.0068439 L 5.9334513,8.6777998 L 4.5785903,9.9550517 C 4.5785903,9.9550517 4.0057113,10.477953 4.0057113,11.006844 z "
       id="rect2226"
       sodipodi:nodetypes="cccccccccccccs" />
    <path
       style="font-size:8px;font-style:normal;font-variant:normal;font-weight:bold;font-stretch:normal;text-align:start;line-height:125%;writing-mode:lr-tb;text-anchor:start;fill:#000000;fill-opacity:1;stroke:none;stroke-width:1px;stroke-linecap:butt;stroke-linejoin:miter;stroke-opacity:1;font-family:Bitstream Vera Sans"
       d="M 5.578125,30.398437 C 5.2031194,30.580729 4.8137969,30.717448 4.4101562,30.808593 C 4.006506,30.899739 3.5898398,30.945312 3.1601562,30.945312 C 2.1887995,30.945312 1.419269,30.674479 0.8515625,30.132812 C 0.28385348,29.588542 -3.984375e-07,28.851564 0,27.921874 C -3.984375e-07,26.981774 0.28906181,26.242192 0.8671875,25.703124 C 1.4453107,25.164068 2.2369765,24.894537 3.2421875,24.894531 C 3.6302043,24.894537 4.0012977,24.930995 4.3554688,25.003906 C 4.7122345,25.076828 5.0481716,25.184901 5.3632812,25.328124 L 5.3632812,26.535156 C 5.037755,26.350264 4.7135366,26.212244 4.390625,26.121093 C 4.070308,26.029952 3.7486938,25.984379 3.4257812,25.984374 C 2.8268197,25.984379 2.3645806,26.152348 2.0390625,26.488281 C 1.7161437,26.821618 1.5546855,27.299482 1.5546875,27.921874 C 1.5546855,28.539064 1.7109354,29.015626 2.0234375,29.351562 C 2.3359348,29.687501 2.7799447,29.855469 3.3554688,29.855468 C 3.5117148,29.855469 3.6562459,29.846355 3.7890625,29.828124 C 3.9244748,29.807292 4.0455685,29.776042 4.1523438,29.734374 L 4.1523438,28.601562 L 3.234375,28.601562 L 3.234375,27.59375 L 5.578125,27.59375 L 5.578125,30.398437 M 8.9179688,27.351562 C 8.6080705,27.351565 8.3710915,27.463545 8.2070312,27.6875 C 8.045571,27.908857 7.9648419,28.229169 7.9648438,28.648437 C 7.9648419,29.06771 8.045571,29.389324 8.2070312,29.613281 C 8.3710915,29.834636 8.6080705,29.945313 8.9179688,29.945312 C 9.2226532,29.945313 9.4557259,29.834636 9.6171875,29.613281 C 9.7786422,29.389324 9.8593713,29.06771 9.859375,28.648437 C 9.8593713,28.229169 9.7786422,27.908857 9.6171875,27.6875 C 9.4557259,27.463545 9.2226532,27.351565 8.9179688,27.351562 M 8.9179688,26.351562 C 9.6705694,26.351566 10.257808,26.554691 10.679688,26.960937 C 11.104162,27.36719 11.316401,27.92969 11.316406,28.648437 C 11.316401,29.367188 11.104162,29.929688 10.679688,30.335937 C 10.257808,30.742187 9.6705694,30.945312 8.9179688,30.945312 C 8.1627584,30.945312 7.5716132,30.742187 7.1445312,30.335937 C 6.7200515,29.929688 6.5078122,29.367188 6.5078125,28.648437 C 6.5078122,27.92969 6.7200515,27.36719 7.1445312,26.960937 C 7.5716132,26.554691 8.1627584,26.351566 8.9179688,26.351562"
       id="text2253"
       sodipodi:nodetypes="csssssssccssssssscccccccsssssssccsssssssc" />
    <path
       style="font-size:8px;font-style:normal;font-variant:normal;font-weight:normal;font-stretch:normal;text-align:start;line-height:125%;writing-mode:lr-tb;text-anchor:start;fill:#646464;fill-opacity:1;stroke:none;stroke-width:1px;stroke-linecap:butt;stroke-linejoin:miter;stroke-opacity:1;font-family:Bitstream Vera Sans"
       d="M 3.4960938,35.648437 C 3.4960899,35.119794 3.386715,34.705732 3.1679688,34.40625 C 2.9518196,34.10417 2.6536428,33.953128 2.2734375,33.953124 C 1.8932269,33.953128 1.593748,34.10417 1.375,34.40625 C 1.1588526,34.705732 1.0507798,35.119794 1.0507812,35.648437 C 1.0507798,36.177084 1.1588526,36.592449 1.375,36.894531 C 1.593748,37.194011 1.8932269,37.34375 2.2734375,37.34375 C 2.6536428,37.34375 2.9518196,37.194011 3.1679688,36.894531 C 3.386715,36.592449 3.4960899,36.177084 3.4960938,35.648437 M 1.0507812,34.121093 C 1.2018213,33.860681 1.3919253,33.667972 1.6210938,33.542968 C 1.8528623,33.415368 2.1289037,33.351566 2.4492188,33.351562 C 2.9804654,33.351566 3.4114545,33.562504 3.7421875,33.984374 C 4.0755164,34.406253 4.2421829,34.96094 4.2421875,35.648437 C 4.2421829,36.335938 4.0755164,36.890625 3.7421875,37.3125 C 3.4114545,37.734375 2.9804654,37.945312 2.4492188,37.945312 C 2.1289037,37.945312 1.8528623,37.882812 1.6210938,37.757812 C 1.3919253,37.630208 1.2018213,37.436198 1.0507812,37.175781 L 1.0507812,37.832031 L 0.328125,37.832031 L 0.328125,31.753906 L 1.0507812,31.753906 L 1.0507812,34.121093 M 7.2539062,38.238281 C 7.0507789,38.759113 6.8528624,39.098957 6.6601562,39.257812 C 6.4674461,39.416665 6.2096339,39.496092 5.8867188,39.496093 L 5.3125,39.496093 L 5.3125,38.894531 L 5.734375,38.894531 C 5.9322904,38.89453 6.0859361,38.847655 6.1953125,38.753906 C 6.3046859,38.660155 6.4257795,38.438801 6.5585938,38.089843 L 6.6875,37.761718 L 4.9179688,33.457031 L 5.6796875,33.457031 L 7.046875,36.878906 L 8.4140625,33.457031 L 9.1757812,33.457031 L 7.2539062,38.238281 M 16.242188,32.191406 L 16.242188,32.960937 C 15.942704,32.817713 15.660153,32.710942 15.394531,32.640624 C 15.128903,32.570317 14.872393,32.535161 14.625,32.535156 C 14.19531,32.535161 13.863279,32.618494 13.628906,32.785156 C 13.397134,32.951827 13.281249,33.188806 13.28125,33.496093 C 13.281249,33.75391 13.358072,33.949222 13.511719,34.082031 C 13.667967,34.212243 13.962238,34.317711 14.394531,34.398437 L 14.871094,34.496093 C 15.459632,34.608076 15.893225,34.805992 16.171875,35.089843 C 16.453121,35.371096 16.593745,35.748699 16.59375,36.222656 C 16.593745,36.787761 16.403641,37.216146 16.023438,37.507812 C 15.64583,37.799479 15.091143,37.945312 14.359375,37.945312 C 14.083331,37.945312 13.789061,37.914062 13.476562,37.851562 C 13.166665,37.789062 12.845051,37.696614 12.511719,37.574218 L 12.511719,36.761718 C 12.83203,36.941407 13.145832,37.076823 13.453125,37.167968 C 13.760415,37.259115 14.062498,37.304688 14.359375,37.304687 C 14.809893,37.304688 15.157549,37.216146 15.402344,37.039062 C 15.647132,36.86198 15.769527,36.609376 15.769531,36.28125 C 15.769527,35.994793 15.680986,35.770835 15.503906,35.609374 C 15.329424,35.447919 15.041664,35.326825 14.640625,35.246093 L 14.160156,35.152343 C 13.571613,35.035159 13.145832,34.851565 12.882812,34.601562 C 12.619791,34.351565 12.488281,34.00391 12.488281,33.558593 C 12.488281,33.042973 12.66927,32.636723 13.03125,32.339843 C 13.395832,32.042974 13.897133,31.894537 14.535156,31.894531 C 14.808591,31.894537 15.087236,31.919276 15.371094,31.96875 C 15.654944,32.018234 15.945309,32.092453 16.242188,32.191406 M 17.808594,33.457031 L 18.527344,33.457031 L 18.527344,37.832031 L 17.808594,37.832031 L 17.808594,33.457031 M 17.808594,31.753906 L 18.527344,31.753906 L 18.527344,32.664062 L 17.808594,32.664062 L 17.808594,31.753906 M 20.027344,31.753906 L 20.746094,31.753906 L 20.746094,37.832031 L 20.027344,37.832031 L 20.027344,31.753906 M 21.730469,33.457031 L 22.492188,33.457031 L 23.859375,37.128906 L 25.226562,33.457031 L 25.988281,33.457031 L 24.347656,37.832031 L 23.371094,37.832031 L 21.730469,33.457031 M 30.722656,35.464843 L 30.722656,35.816406 L 27.417969,35.816406 C 27.449218,36.311199 27.597655,36.688803 27.863281,36.949218 C 28.131509,37.207031 28.503904,37.335937 28.980469,37.335937 C 29.256507,37.335937 29.523434,37.302083 29.78125,37.234374 C 30.041663,37.166667 30.299475,37.065104 30.554688,36.929687 L 30.554688,37.609374 C 30.296871,37.71875 30.032548,37.802083 29.761719,37.859374 C 29.490882,37.916666 29.216143,37.945312 28.9375,37.945312 C 28.239581,37.945312 27.686196,37.742187 27.277344,37.335937 C 26.871093,36.929688 26.667968,36.380209 26.667969,35.6875 C 26.667968,34.971357 26.860676,34.403649 27.246094,33.984374 C 27.634113,33.562504 28.156248,33.351566 28.8125,33.351562 C 29.401038,33.351566 29.865882,33.54167 30.207031,33.921874 C 30.550777,34.299482 30.722652,34.813805 30.722656,35.464843 M 30.003906,35.253906 C 29.998694,34.86068 29.888017,34.546878 29.671875,34.3125 C 29.45833,34.078128 29.174476,33.960941 28.820312,33.960937 C 28.419269,33.960941 28.097654,34.074222 27.855469,34.300781 C 27.615884,34.527347 27.477863,34.846357 27.441406,35.257812 L 30.003906,35.253906 M 34.675781,33.585937 L 34.675781,34.265624 C 34.472653,34.161462 34.261716,34.083337 34.042969,34.03125 C 33.824216,33.97917 33.597654,33.953128 33.363281,33.953124 C 33.006509,33.953128 32.73828,34.007816 32.558594,34.117187 C 32.381509,34.226566 32.292968,34.390628 32.292969,34.609374 C 32.292968,34.776044 32.35677,34.907555 32.484375,35.003906 C 32.611978,35.097658 32.868488,35.187502 33.253906,35.273437 L 33.5,35.328124 C 34.010414,35.437502 34.372393,35.59245 34.585938,35.792968 C 34.80208,35.990887 34.910152,36.26823 34.910156,36.625 C 34.910152,37.03125 34.748694,37.352865 34.425781,37.589843 C 34.105466,37.826822 33.66406,37.945312 33.101562,37.945312 C 32.867186,37.945312 32.622394,37.921874 32.367188,37.875 C 32.114582,37.830729 31.847656,37.76302 31.566406,37.671874 L 31.566406,36.929687 C 31.832031,37.067709 32.093749,37.171875 32.351562,37.242187 C 32.609374,37.309896 32.864582,37.34375 33.117188,37.34375 C 33.455727,37.34375 33.716143,37.286458 33.898438,37.171874 C 34.080726,37.054688 34.171872,36.890625 34.171875,36.679687 C 34.171872,36.484376 34.105466,36.334636 33.972656,36.230468 C 33.842445,36.126303 33.554685,36.026043 33.109375,35.929687 L 32.859375,35.871093 C 32.414061,35.777345 32.092447,35.634116 31.894531,35.441406 C 31.696614,35.246096 31.597656,34.979169 31.597656,34.640624 C 31.597656,34.22917 31.743489,33.911462 32.035156,33.6875 C 32.326822,33.463546 32.740884,33.351566 33.277344,33.351562 C 33.542966,33.351566 33.792966,33.371098 34.027344,33.410156 C 34.261716,33.449223 34.477861,33.507816 34.675781,33.585937 M 36.753906,32.214843 L 36.753906,33.457031 L 38.234375,33.457031 L 38.234375,34.015624 L 36.753906,34.015624 L 36.753906,36.390624 C 36.753905,36.747396 36.802082,36.976563 36.898438,37.078124 C 36.997394,37.179688 37.196613,37.230469 37.496094,37.230468 L 38.234375,37.230468 L 38.234375,37.832031 L 37.496094,37.832031 C 36.941405,37.832031 36.558592,37.729166 36.347656,37.523437 C 36.136718,37.315104 36.031249,36.9375 36.03125,36.390624 L 36.03125,34.015624 L 35.503906,34.015624 L 35.503906,33.457031 L 36.03125,33.457031 L 36.03125,32.214843 L 36.753906,32.214843 M 41.71875,34.128906 C 41.638018,34.082034 41.549476,34.04818 41.453125,34.027343 C 41.359372,34.00391 41.255206,33.992191 41.140625,33.992187 C 40.734373,33.992191 40.421873,34.125003 40.203125,34.390624 C 39.986978,34.653649 39.878905,35.032554 39.878906,35.527343 L 39.878906,37.832031 L 39.15625,37.832031 L 39.15625,33.457031 L 39.878906,33.457031 L 39.878906,34.136718 C 40.029946,33.871097 40.226561,33.674483 40.46875,33.546874 C 40.710935,33.416671 41.005206,33.351566 41.351562,33.351562 C 41.401039,33.351566 41.455726,33.355473 41.515625,33.363281 C 41.575518,33.368494 41.641924,33.377608 41.714844,33.390624 L 41.71875,34.128906 M 46.207031,35.464843 L 46.207031,35.816406 L 42.902344,35.816406 C 42.933593,36.311199 43.08203,36.688803 43.347656,36.949218 C 43.615884,37.207031 43.988279,37.335937 44.464844,37.335937 C 44.740882,37.335937 45.007809,37.302083 45.265625,37.234374 C 45.526038,37.166667 45.78385,37.065104 46.039062,36.929687 L 46.039062,37.609374 C 45.781246,37.71875 45.516923,37.802083 45.246094,37.859374 C 44.975257,37.916666 44.700518,37.945312 44.421875,37.945312 C 43.723956,37.945312 43.170571,37.742187 42.761719,37.335937 C 42.355468,36.929688 42.152343,36.380209 42.152344,35.6875 C 42.152343,34.971357 42.345051,34.403649 42.730469,33.984374 C 43.118488,33.562504 43.640623,33.351566 44.296875,33.351562 C 44.885413,33.351566 45.350257,33.54167 45.691406,33.921874 C 46.035152,34.299482 46.207027,34.813805 46.207031,35.464843 M 45.488281,35.253906 C 45.483069,34.86068 45.372392,34.546878 45.15625,34.3125 C 44.942705,34.078128 44.658851,33.960941 44.304688,33.960937 C 43.903644,33.960941 43.582029,34.074222 43.339844,34.300781 C 43.100259,34.527347 42.962238,34.846357 42.925781,35.257812 L 45.488281,35.253906 M 49.949219,32 L 50.738281,32 L 50.738281,34.390624 L 53.605469,34.390624 L 53.605469,32 L 54.394531,32 L 54.394531,37.832031 L 53.605469,37.832031 L 53.605469,35.054687 L 50.738281,35.054687 L 50.738281,37.832031 L 49.949219,37.832031 L 49.949219,32 M 59.675781,35.464843 L 59.675781,35.816406 L 56.371094,35.816406 C 56.402343,36.311199 56.55078,36.688803 56.816406,36.949218 C 57.084634,37.207031 57.457029,37.335937 57.933594,37.335937 C 58.209632,37.335937 58.476559,37.302083 58.734375,37.234374 C 58.994788,37.166667 59.2526,37.065104 59.507812,36.929687 L 59.507812,37.609374 C 59.249996,37.71875 58.985673,37.802083 58.714844,37.859374 C 58.444007,37.916666 58.169268,37.945312 57.890625,37.945312 C 57.192706,37.945312 56.639321,37.742187 56.230469,37.335937 C 55.824218,36.929688 55.621093,36.380209 55.621094,35.6875 C 55.621093,34.971357 55.813801,34.403649 56.199219,33.984374 C 56.587238,33.562504 57.109373,33.351566 57.765625,33.351562 C 58.354163,33.351566 58.819007,33.54167 59.160156,33.921874 C 59.503902,34.299482 59.675777,34.813805 59.675781,35.464843 M 58.957031,35.253906 C 58.951819,34.86068 58.841142,34.546878 58.625,34.3125 C 58.411455,34.078128 58.127601,33.960941 57.773438,33.960937 C 57.372394,33.960941 57.050779,34.074222 56.808594,34.300781 C 56.569009,34.527347 56.430988,34.846357 56.394531,35.257812 L 58.957031,35.253906 M 63.375,34.128906 C 63.294268,34.082034 63.205726,34.04818 63.109375,34.027343 C 63.015622,34.00391 62.911456,33.992191 62.796875,33.992187 C 62.390623,33.992191 62.078123,34.125003 61.859375,34.390624 C 61.643228,34.653649 61.535155,35.032554 61.535156,35.527343 L 61.535156,37.832031 L 60.8125,37.832031 L 60.8125,33.457031 L 61.535156,33.457031 L 61.535156,34.136718 C 61.686196,33.871097 61.882811,33.674483 62.125,33.546874 C 62.367185,33.416671 62.661456,33.351566 63.007812,33.351562 C 63.057289,33.351566 63.111976,33.355473 63.171875,33.363281 C 63.231768,33.368494 63.298174,33.377608 63.371094,33.390624 L 63.375,34.128906 M 66.65625,34.128906 C 66.575518,34.082034 66.486976,34.04818 66.390625,34.027343 C 66.296872,34.00391 66.192706,33.992191 66.078125,33.992187 C 65.671873,33.992191 65.359373,34.125003 65.140625,34.390624 C 64.924478,34.653649 64.816405,35.032554 64.816406,35.527343 L 64.816406,37.832031 L 64.09375,37.832031 L 64.09375,33.457031 L 64.816406,33.457031 L 64.816406,34.136718 C 64.967446,33.871097 65.164061,33.674483 65.40625,33.546874 C 65.648435,33.416671 65.942706,33.351566 66.289062,33.351562 C 66.338539,33.351566 66.393226,33.355473 66.453125,33.363281 C 66.513018,33.368494 66.579424,33.377608 66.652344,33.390624 L 66.65625,34.128906 M 71.144531,35.464843 L 71.144531,35.816406 L 67.839844,35.816406 C 67.871093,36.311199 68.01953,36.688803 68.285156,36.949218 C 68.553384,37.207031 68.925779,37.335937 69.402344,37.335937 C 69.678382,37.335937 69.945309,37.302083 70.203125,37.234374 C 70.463538,37.166667 70.72135,37.065104 70.976562,36.929687 L 70.976562,37.609374 C 70.718746,37.71875 70.454423,37.802083 70.183594,37.859374 C 69.912757,37.916666 69.638018,37.945312 69.359375,37.945312 C 68.661456,37.945312 68.108071,37.742187 67.699219,37.335937 C 67.292968,36.929688 67.089843,36.380209 67.089844,35.6875 C 67.089843,34.971357 67.282551,34.403649 67.667969,33.984374 C 68.055988,33.562504 68.578123,33.351566 69.234375,33.351562 C 69.822913,33.351566 70.287757,33.54167 70.628906,33.921874 C 70.972652,34.299482 71.144527,34.813805 71.144531,35.464843 M 70.425781,35.253906 C 70.420569,34.86068 70.309892,34.546878 70.09375,34.3125 C 69.880205,34.078128 69.596351,33.960941 69.242188,33.960937 C 68.841144,33.960941 68.519529,34.074222 68.277344,34.300781 C 68.037759,34.527347 67.899738,34.846357 67.863281,35.257812 L 70.425781,35.253906 M 74.84375,34.128906 C 74.763018,34.082034 74.674476,34.04818 74.578125,34.027343 C 74.484372,34.00391 74.380206,33.992191 74.265625,33.992187 C 73.859373,33.992191 73.546873,34.125003 73.328125,34.390624 C 73.111978,34.653649 73.003905,35.032554 73.003906,35.527343 L 73.003906,37.832031 L 72.28125,37.832031 L 72.28125,33.457031 L 73.003906,33.457031 L 73.003906,34.136718 C 73.154946,33.871097 73.351561,33.674483 73.59375,33.546874 C 73.835935,33.416671 74.130206,33.351566 74.476562,33.351562 C 74.526039,33.351566 74.580726,33.355473 74.640625,33.363281 C 74.700518,33.368494 74.766924,33.377608 74.839844,33.390624 L 74.84375,34.128906 M 77.578125,35.632812 C 76.997394,35.632814 76.59505,35.69922 76.371094,35.832031 C 76.147134,35.964845 76.035155,36.191407 76.035156,36.511718 C 76.035155,36.766928 76.118488,36.970052 76.285156,37.121093 C 76.454425,37.269531 76.683592,37.34375 76.972656,37.34375 C 77.371091,37.34375 77.690101,37.203125 77.929688,36.921874 C 78.171872,36.638022 78.292965,36.26172 78.292969,35.792968 L 78.292969,35.632812 L 77.578125,35.632812 M 79.011719,35.335937 L 79.011719,37.832031 L 78.292969,37.832031 L 78.292969,37.167968 C 78.128903,37.433594 77.924476,37.630208 77.679688,37.757812 C 77.434893,37.882812 77.135414,37.945312 76.78125,37.945312 C 76.333332,37.945312 75.976561,37.820312 75.710938,37.570312 C 75.447916,37.317708 75.316406,36.980469 75.316406,36.558593 C 75.316406,36.066408 75.480468,35.695314 75.808594,35.445312 C 76.139322,35.195315 76.631509,35.070315 77.285156,35.070312 L 78.292969,35.070312 L 78.292969,35 C 78.292965,34.669273 78.18359,34.414065 77.964844,34.234374 C 77.748695,34.052087 77.444008,33.960941 77.050781,33.960937 C 76.800779,33.960941 76.55729,33.990889 76.320312,34.050781 C 76.083332,34.11068 75.855468,34.200524 75.636719,34.320312 L 75.636719,33.65625 C 75.899739,33.554691 76.154947,33.479171 76.402344,33.429687 C 76.649738,33.377608 76.890623,33.351566 77.125,33.351562 C 77.75781,33.351566 78.230465,33.515629 78.542969,33.84375 C 78.855465,34.171878 79.011715,34.669273 79.011719,35.335937"
       id="text2257" />
    <path
       style="font-size:8px;font-style:normal;font-variant:normal;font-weight:bold;font-stretch:normal;text-align:start;line-height:125%;writing-mode:lr-tb;text-anchor:start;fill:#000000;fill-opacity:1;stroke:none;stroke-width:1px;stroke-linecap:butt;stroke-linejoin:miter;stroke-opacity:1;font-family:Bitstream Vera Sans"
       d="M 15,25.054688 L 17.496094,25.054688 C 18.238277,25.054693 18.807287,25.220058 19.203125,25.550781 C 19.601557,25.878911 19.800776,26.347661 19.800781,26.957031 C 19.800776,27.569014 19.601557,28.040367 19.203125,28.371094 C 18.807287,28.699221 18.238277,28.863283 17.496094,28.863281 L 16.503906,28.863281 L 16.503906,30.886719 L 15,30.886719 L 15,25.054688 M 16.503906,26.144531 L 16.503906,27.773438 L 17.335938,27.773438 C 17.627601,27.773441 17.852861,27.703128 18.011719,27.5625 C 18.170569,27.419274 18.249996,27.217452 18.25,26.957031 C 18.249996,26.696619 18.170569,26.496098 18.011719,26.355469 C 17.852861,26.214848 17.627601,26.144536 17.335938,26.144531 L 16.503906,26.144531 M 24.046875,27.703125 C 23.924475,27.645837 23.80208,27.60417 23.679688,27.578125 C 23.559892,27.549483 23.438799,27.53516 23.316406,27.535156 C 22.957028,27.53516 22.679685,27.651045 22.484375,27.882812 C 22.291664,28.111982 22.19531,28.441409 22.195312,28.871094 L 22.195312,30.886719 L 20.796875,30.886719 L 20.796875,26.511719 L 22.195312,26.511719 L 22.195312,27.230469 C 22.374998,26.944014 22.580727,26.735681 22.8125,26.605469 C 23.046872,26.472661 23.32682,26.406254 23.652344,26.40625 C 23.699215,26.406254 23.749996,26.408859 23.804688,26.414062 C 23.859371,26.416671 23.938798,26.424484 24.042969,26.4375 L 24.046875,27.703125 M 29.117188,28.6875 L 29.117188,29.085938 L 25.847656,29.085938 C 25.881509,29.414064 25.999998,29.660157 26.203125,29.824219 C 26.406248,29.988282 26.690102,30.070313 27.054688,30.070312 C 27.348955,30.070313 27.649736,30.027345 27.957031,29.941406 C 28.266923,29.852866 28.584631,29.720053 28.910156,29.542969 L 28.910156,30.621094 C 28.579423,30.746094 28.248694,30.839844 27.917969,30.902344 C 27.587236,30.967448 27.256507,31 26.925781,31 C 26.134113,31 25.518228,30.799479 25.078125,30.398438 C 24.640624,29.994793 24.421875,29.429689 24.421875,28.703125 C 24.421875,27.989586 24.636718,27.428389 25.066406,27.019531 C 25.498696,26.610681 26.092446,26.406254 26.847656,26.40625 C 27.535153,26.406254 28.084631,26.613286 28.496094,27.027344 C 28.910151,27.44141 29.117182,27.994795 29.117188,28.6875 M 27.679688,28.222656 C 27.679684,27.957034 27.601559,27.743493 27.445312,27.582031 C 27.291663,27.417972 27.089841,27.335941 26.839844,27.335938 C 26.569008,27.335941 26.348956,27.412764 26.179688,27.566406 C 26.010415,27.717451 25.904946,27.936201 25.863281,28.222656 L 27.679688,28.222656 M 29.636719,26.511719 L 31.035156,26.511719 L 32.125,29.535156 L 33.210938,26.511719 L 34.613281,26.511719 L 32.890625,30.886719 L 31.355469,30.886719 L 29.636719,26.511719 M 35.40625,26.511719 L 36.804688,26.511719 L 36.804688,30.886719 L 35.40625,30.886719 L 35.40625,26.511719 M 35.40625,24.808594 L 36.804688,24.808594 L 36.804688,25.949219 L 35.40625,25.949219 L 35.40625,24.808594 M 40.238281,27.40625 C 39.928383,27.406253 39.691404,27.518233 39.527344,27.742188 C 39.365884,27.963545 39.285154,28.283857 39.285156,28.703125 C 39.285154,29.122398 39.365884,29.444012 39.527344,29.667969 C 39.691404,29.889324 39.928383,30.000001 40.238281,30 C 40.542966,30.000001 40.776038,29.889324 40.9375,29.667969 C 41.098955,29.444012 41.179684,29.122398 41.179688,28.703125 C 41.179684,28.283857 41.098955,27.963545 40.9375,27.742188 C 40.776038,27.518233 40.542966,27.406253 40.238281,27.40625 M 40.238281,26.40625 C 40.990882,26.406254 41.578121,26.609379 42,27.015625 C 42.424474,27.421878 42.636714,27.984378 42.636719,28.703125 C 42.636714,29.421876 42.424474,29.984376 42,30.390625 C 41.578121,30.796875 40.990882,31 40.238281,31 C 39.483071,31 38.891926,30.796875 38.464844,30.390625 C 38.040364,29.984376 37.828125,29.421876 37.828125,28.703125 C 37.828125,27.984378 38.040364,27.421878 38.464844,27.015625 C 38.891926,26.609379 39.483071,26.406254 40.238281,26.40625 M 43.609375,29.183594 L 43.609375,26.511719 L 45.015625,26.511719 L 45.015625,26.949219 C 45.015623,27.186202 45.014321,27.484378 45.011719,27.84375 C 45.009113,28.200524 45.00781,28.438805 45.007812,28.558594 C 45.00781,28.910158 45.016925,29.164064 45.035156,29.320312 C 45.053383,29.47396 45.084633,29.585939 45.128906,29.65625 C 45.186196,29.747397 45.260414,29.817709 45.351562,29.867188 C 45.44531,29.916668 45.552081,29.941407 45.671875,29.941406 C 45.963539,29.941407 46.192705,29.829428 46.359375,29.605469 C 46.526038,29.381512 46.609371,29.070314 46.609375,28.671875 L 46.609375,26.511719 L 48.007812,26.511719 L 48.007812,30.886719 L 46.609375,30.886719 L 46.609375,30.253906 C 46.398434,30.509115 46.174476,30.697917 45.9375,30.820312 C 45.703122,30.940104 45.444008,31 45.160156,31 C 44.654946,31 44.26953,30.845052 44.003906,30.535156 C 43.740885,30.225261 43.609374,29.774741 43.609375,29.183594 M 52.777344,26.648438 L 52.777344,27.710938 C 52.477861,27.585941 52.188799,27.492191 51.910156,27.429688 C 51.631507,27.367191 51.368487,27.335941 51.121094,27.335938 C 50.855467,27.335941 50.65755,27.369795 50.527344,27.4375 C 50.399738,27.502608 50.335936,27.60417 50.335938,27.742188 C 50.335936,27.85417 50.384113,27.940107 50.480469,28 C 50.579425,28.059899 50.755206,28.104169 51.007812,28.132812 L 51.253906,28.167969 C 51.970049,28.259117 52.451819,28.408857 52.699219,28.617188 C 52.94661,28.825523 53.070308,29.152345 53.070312,29.597656 C 53.070308,30.063803 52.898433,30.414063 52.554688,30.648438 C 52.210934,30.882813 51.697914,31 51.015625,31 C 50.72656,31 50.427082,30.976562 50.117188,30.929688 C 49.809895,30.885417 49.493489,30.817708 49.167969,30.726562 L 49.167969,29.664062 C 49.446614,29.79948 49.73177,29.901043 50.023438,29.96875 C 50.317707,30.036459 50.615883,30.070313 50.917969,30.070312 C 51.191404,30.070313 51.397133,30.032553 51.535156,29.957031 C 51.673174,29.881511 51.742184,29.769532 51.742188,29.621094 C 51.742184,29.496095 51.694007,29.403647 51.597656,29.34375 C 51.503903,29.281252 51.315102,29.233075 51.03125,29.199219 L 50.785156,29.167969 C 50.162759,29.089846 49.726561,28.945314 49.476562,28.734375 C 49.226562,28.52344 49.101562,28.203128 49.101562,27.773438 C 49.101562,27.309899 49.260416,26.96615 49.578125,26.742188 C 49.895832,26.518234 50.382811,26.406254 51.039062,26.40625 C 51.296872,26.406254 51.567705,26.425786 51.851562,26.464844 C 52.135413,26.503911 52.444007,26.565108 52.777344,26.648438"
       id="text1334" />
  </g>
  <g
     inkscape:groupmode="layer"
     id="layer2"
     inkscape:label="lights">
    <path
       sodipodi:type="arc"
       style="opacity:0.75;fill:url(#radialGradient2190);fill-opacity:1;stroke:none;stroke-width:1.06165099;stroke-linecap:round;stroke-linejoin:miter;stroke-miterlimit:4;stroke-dasharray:none;stroke-dashoffset:0;stroke-opacity:1"
       id="path2182"
       sodipodi:cx="23.821341"
       sodipodi:cy="23.821341"
       sodipodi:rx="20.724566"
       sodipodi:ry="20.724566"
       d="M 44.545906 23.821341 A 20.724566 20.724566 0 1 1  3.0967751,23.821341 A 20.724566 20.724566 0 1 1  44.545906 23.821341 z"
       transform="matrix(0.482519,0,0,0.482519,-0.494252,-0.494254)" />
    <path
       sodipodi:type="arc"
       style="opacity:0.75;fill:url(#radialGradient2194);fill-opacity:1;stroke:none;stroke-width:1.06165099;stroke-linecap:round;stroke-linejoin:miter;stroke-miterlimit:4;stroke-dasharray:none;stroke-dashoffset:0;stroke-opacity:1"
       id="path2192"
       sodipodi:cx="23.821341"
       sodipodi:cy="23.821341"
       sodipodi:rx="20.724566"
       sodipodi:ry="20.724566"
       d="M 44.545906 23.821341 A 20.724566 20.724566 0 1 1  3.0967751,23.821341 A 20.724566 20.724566 0 1 1  44.545906 23.821341 z"
       transform="matrix(0.482519,0,0,0.482519,-0.494252,-0.494254)" />
    <path
       sodipodi:type="arc"
       style="opacity:0.75;fill:url(#radialGradient2210);fill-opacity:1;stroke:none;stroke-width:1.06165099;stroke-linecap:round;stroke-linejoin:miter;stroke-miterlimit:4;stroke-dasharray:none;stroke-dashoffset:0;stroke-opacity:1"
       id="path2202"
       sodipodi:cx="23.821341"
       sodipodi:cy="23.821341"
       sodipodi:rx="20.724566"
       sodipodi:ry="20.724566"
       d="M 44.545906 23.821341 A 20.724566 20.724566 0 1 1  3.0967751,23.821341 A 20.724566 20.724566 0 1 1  44.545906 23.821341 z"
       transform="matrix(0.482519,0,0,0.482519,-0.494252,-0.494254)" />
    <path
       sodipodi:type="arc"
       style="opacity:1;fill:none;fill-opacity:1;stroke:#ffffff;stroke-width:2.18140674;stroke-linecap:round;stroke-linejoin:miter;stroke-miterlimit:4;stroke-dasharray:none;stroke-dashoffset:0;stroke-opacity:0.63948502"
       id="path2233"
       sodipodi:cx="23.821341"
       sodipodi:cy="23.821341"
       sodipodi:rx="20.724566"
       sodipodi:ry="20.724566"
       d="M 44.545906 23.821341 A 20.724566 20.724566 0 1 1  3.0967751,23.821341 A 20.724566 20.724566 0 1 1  44.545906 23.821341 z"
       transform="matrix(0.458706,0,0,0.458134,6.708213e-2,8.011957e-2)" />
  </g>
</svg>
