<?xml version="1.0" encoding="UTF-8" standalone="no"?>
<!-- Created with Inkscape (http://www.inkscape.org/) -->
<svg
   xmlns:dc="http://purl.org/dc/elements/1.1/"
   xmlns:cc="http://web.resource.org/cc/"
   xmlns:rdf="http://www.w3.org/1999/02/22-rdf-syntax-ns#"
   xmlns:svg="http://www.w3.org/2000/svg"
   xmlns="http://www.w3.org/2000/svg"
   xmlns:xlink="http://www.w3.org/1999/xlink"
   xmlns:sodipodi="http://inkscape.sourceforge.net/DTD/sodipodi-0.dtd"
   xmlns:inkscape="http://www.inkscape.org/namespaces/inkscape"
   width="22"
   height="22"
   id="svg2"
   sodipodi:version="0.32"
   inkscape:version="0.43"
   version="1.0"
   sodipodi:docbase="/home/silvestre/Desktop/Gion/22x22/actions/SVGs"
   sodipodi:docname="process-stop.svg"
   inkscape:export-filename="/home/silvestre/Desktop/Gion/22x22/actions/process-stop.png"
   inkscape:export-xdpi="90"
   inkscape:export-ydpi="90">
  <defs
     id="defs4">
    <linearGradient
       inkscape:collect="always"
       id="linearGradient2210">
      <stop
         style="stop-color:#ffffff;stop-opacity:1;"
         offset="0"
         id="stop2213" />
      <stop
         style="stop-color:#ffffff;stop-opacity:0.72103006"
         offset="1"
         id="stop2215" />
    </linearGradient>
    <linearGradient
       inkscape:collect="always"
       id="linearGradient2218">
      <stop
         style="stop-color:#000000;stop-opacity:1;"
         offset="0"
         id="stop2220" />
      <stop
         style="stop-color:#000000;stop-opacity:0;"
         offset="1"
         id="stop2222" />
    </linearGradient>
    <linearGradient
       id="linearGradient2204">
      <stop
         style="stop-color:#000000;stop-opacity:0"
         offset="0"
         id="stop2206" />
      <stop
         id="stop2212"
         offset="0.5"
         style="stop-color:#000000;stop-opacity:0;" />
      <stop
         style="stop-color:#000000;stop-opacity:0.06060606;"
         offset="0.75"
         id="stop2214" />
      <stop
         style="stop-color:#000000;stop-opacity:0.24892704"
         offset="1"
         id="stop2208" />
    </linearGradient>
    <linearGradient
       id="linearGradient2196"
       inkscape:collect="always">
      <stop
         id="stop2198"
         offset="0"
         style="stop-color:#ffffff;stop-opacity:1;" />
      <stop
         id="stop2200"
         offset="1"
         style="stop-color:#ffffff;stop-opacity:0" />
    </linearGradient>
    <linearGradient
       inkscape:collect="always"
       id="linearGradient2184">
      <stop
         style="stop-color:#ffffff;stop-opacity:1;"
         offset="0"
         id="stop2186" />
      <stop
         style="stop-color:#ffffff;stop-opacity:0;"
         offset="1"
         id="stop2188" />
    </linearGradient>
    <radialGradient
       inkscape:collect="always"
       xlink:href="#linearGradient2196"
       id="radialGradient2190"
       cx="23.821341"
       cy="19.220688"
       fx="23.821341"
       fy="11.559587"
       r="20.724566"
       gradientUnits="userSpaceOnUse" />
    <radialGradient
       inkscape:collect="always"
       xlink:href="#linearGradient2184"
       id="radialGradient2194"
       gradientUnits="userSpaceOnUse"
       cx="21.955513"
       cy="41.559357"
       fx="21.955513"
       fy="43.898674"
       r="20.724566"
       gradientTransform="matrix(0.592713,-6.494147e-8,6.494147e-8,0.592713,10.80802,15.56962)" />
    <radialGradient
       inkscape:collect="always"
       xlink:href="#linearGradient2204"
       id="radialGradient2210"
       cx="20.053436"
       cy="19.070505"
       fx="20.053436"
       fy="19.070505"
       r="20.724566"
       gradientUnits="userSpaceOnUse"
       gradientTransform="matrix(1.602242,-1.930651e-16,1.930651e-16,1.602242,-13.98654,-13.89271)" />
    <radialGradient
       inkscape:collect="always"
       xlink:href="#linearGradient2218"
       id="radialGradient2224"
       cx="24.416874"
       cy="42.401985"
       fx="24.416874"
       fy="63.068226"
       r="23.702232"
       gradientTransform="matrix(1,0,0,0.226131,-3.463213e-16,32.8136)"
       gradientUnits="userSpaceOnUse" />
    <radialGradient
       inkscape:collect="always"
       xlink:href="#linearGradient2210"
       id="radialGradient2217"
       cx="21.625"
       cy="20.75"
       fx="21.625"
       fy="20.75"
       r="11"
       gradientUnits="userSpaceOnUse"
       gradientTransform="matrix(0.48816,0,0,0.48816,-1.21448,-0.728756)" />
  </defs>
  <sodipodi:namedview
     id="base"
     pagecolor="#ffffff"
     bordercolor="#666666"
     borderopacity="1.0"
     inkscape:pageopacity="0.0"
     inkscape:pageshadow="2"
     inkscape:zoom="1"
     inkscape:cx="20.538181"
     inkscape:cy="9.3664995"
     inkscape:document-units="px"
     inkscape:current-layer="layer2"
     inkscape:showpageshadow="false"
     showgrid="false"
     inkscape:grid-bbox="false"
     inkscape:window-width="897"
     inkscape:window-height="590"
     inkscape:window-x="12"
     inkscape:window-y="65"
     showborder="false"
     showguides="true"
     inkscape:guide-bbox="true" />
  <metadata
     id="metadata7">
    <rdf:RDF>
      <cc:Work
         rdf:about="">
        <dc:format>image/svg+xml</dc:format>
        <dc:type
           rdf:resource="http://purl.org/dc/dcmitype/StillImage" />
        <dc:title>Process Stop</dc:title>
        <dc:creator>
          <cc:Agent>
            <dc:title>Silvestre Herrera</dc:title>
          </cc:Agent>
        </dc:creator>
        <cc:license
           rdf:resource="http://creativecommons.org/licenses/GPL/2.0/" />
      </cc:Work>
      <cc:License
         rdf:about="http://creativecommons.org/licenses/GPL/2.0/">
        <cc:permits
           rdf:resource="http://web.resource.org/cc/Reproduction" />
        <cc:permits
           rdf:resource="http://web.resource.org/cc/Distribution" />
        <cc:requires
           rdf:resource="http://web.resource.org/cc/Notice" />
        <cc:permits
           rdf:resource="http://web.resource.org/cc/DerivativeWorks" />
        <cc:requires
           rdf:resource="http://web.resource.org/cc/ShareAlike" />
        <cc:requires
           rdf:resource="http://web.resource.org/cc/SourceCode" />
      </cc:License>
    </rdf:RDF>
  </metadata>
  <g
     inkscape:label="Capa 1"
     inkscape:groupmode="layer"
     id="layer1"
     sodipodi:insensitive="true">
    <path
       sodipodi:type="arc"
       style="opacity:0.37229435;fill:url(#radialGradient2224);fill-opacity:1;stroke:none;stroke-width:1;stroke-linecap:round;stroke-linejoin:miter;stroke-miterlimit:4;stroke-dasharray:none;stroke-dashoffset:0;stroke-opacity:1"
       id="path2216"
       sodipodi:cx="24.416874"
       sodipodi:cy="42.401985"
       sodipodi:rx="23.702232"
       sodipodi:ry="5.3598013"
       d="M 48.119106 42.401985 A 23.702232 5.3598013 0 1 1  0.71464157,42.401985 A 23.702232 5.3598013 0 1 1  48.119106 42.401985 z"
       transform="matrix(0.464091,0,0,0.500929,-0.331658,-1.897983)" />
    <path
       sodipodi:type="arc"
       style="opacity:1;fill:#c92222;fill-opacity:1;stroke:#8b3c3c;stroke-width:1.97868228;stroke-linecap:round;stroke-linejoin:miter;stroke-miterlimit:4;stroke-dasharray:none;stroke-dashoffset:0;stroke-opacity:1"
       id="path1307"
       sodipodi:cx="23.821341"
       sodipodi:cy="23.821341"
       sodipodi:rx="20.724566"
       sodipodi:ry="20.724566"
       d="M 44.545906 23.821341 A 20.724566 20.724566 0 1 1  3.0967751,23.821341 A 20.724566 20.724566 0 1 1  44.545906 23.821341 z"
       transform="matrix(0.505261,0,0,0.505513,-1.03086,-1.042131)" />
    <path
       style="font-size:8px;font-style:normal;font-variant:normal;font-weight:normal;font-stretch:normal;text-align:start;line-height:125%;writing-mode:lr-tb;text-anchor:start;fill:#646464;fill-opacity:1;stroke:none;stroke-width:1px;stroke-linecap:butt;stroke-linejoin:miter;stroke-opacity:1;font-family:Bitstream Vera Sans"
       d="M 3.4960938,34.894531 C 3.4960899,34.365888 3.386715,33.951826 3.1679688,33.652344 C 2.9518196,33.350264 2.6536428,33.199222 2.2734375,33.199218 C 1.8932269,33.199222 1.593748,33.350264 1.375,33.652344 C 1.1588526,33.951826 1.0507798,34.365888 1.0507812,34.894531 C 1.0507798,35.423178 1.1588526,35.838543 1.375,36.140625 C 1.593748,36.440105 1.8932269,36.589844 2.2734375,36.589844 C 2.6536428,36.589844 2.9518196,36.440105 3.1679688,36.140625 C 3.386715,35.838543 3.4960899,35.423178 3.4960938,34.894531 M 1.0507812,33.367187 C 1.2018213,33.106775 1.3919253,32.914066 1.6210938,32.789062 C 1.8528623,32.661462 2.1289037,32.59766 2.4492188,32.597656 C 2.9804654,32.59766 3.4114545,32.808598 3.7421875,33.230468 C 4.0755164,33.652347 4.2421829,34.207034 4.2421875,34.894531 C 4.2421829,35.582032 4.0755164,36.136719 3.7421875,36.558594 C 3.4114545,36.980469 2.9804654,37.191406 2.4492188,37.191406 C 2.1289037,37.191406 1.8528623,37.128906 1.6210938,37.003906 C 1.3919253,36.876302 1.2018213,36.682292 1.0507812,36.421875 L 1.0507812,37.078125 L 0.328125,37.078125 L 0.328125,31 L 1.0507812,31 L 1.0507812,33.367187 M 7.2539062,37.484375 C 7.0507789,38.005207 6.8528624,38.345051 6.6601562,38.503906 C 6.4674461,38.662759 6.2096339,38.742186 5.8867188,38.742187 L 5.3125,38.742187 L 5.3125,38.140625 L 5.734375,38.140625 C 5.9322904,38.140624 6.0859361,38.093749 6.1953125,38 C 6.3046859,37.906249 6.4257795,37.684895 6.5585938,37.335937 L 6.6875,37.007812 L 4.9179688,32.703125 L 5.6796875,32.703125 L 7.046875,36.125 L 8.4140625,32.703125 L 9.1757812,32.703125 L 7.2539062,37.484375 M 16.242188,31.4375 L 16.242188,32.207031 C 15.942704,32.063807 15.660153,31.957036 15.394531,31.886718 C 15.128903,31.816411 14.872393,31.781255 14.625,31.78125 C 14.19531,31.781255 13.863279,31.864588 13.628906,32.03125 C 13.397134,32.197921 13.281249,32.4349 13.28125,32.742187 C 13.281249,33.000004 13.358072,33.195316 13.511719,33.328125 C 13.667967,33.458337 13.962238,33.563805 14.394531,33.644531 L 14.871094,33.742187 C 15.459632,33.85417 15.893225,34.052086 16.171875,34.335937 C 16.453121,34.61719 16.593745,34.994793 16.59375,35.46875 C 16.593745,36.033855 16.403641,36.46224 16.023438,36.753906 C 15.64583,37.045573 15.091143,37.191406 14.359375,37.191406 C 14.083331,37.191406 13.789061,37.160156 13.476562,37.097656 C 13.166665,37.035156 12.845051,36.942708 12.511719,36.820312 L 12.511719,36.007812 C 12.83203,36.187501 13.145832,36.322917 13.453125,36.414062 C 13.760415,36.505209 14.062498,36.550782 14.359375,36.550781 C 14.809893,36.550782 15.157549,36.46224 15.402344,36.285156 C 15.647132,36.108074 15.769527,35.85547 15.769531,35.527344 C 15.769527,35.240887 15.680986,35.016929 15.503906,34.855468 C 15.329424,34.694013 15.041664,34.572919 14.640625,34.492187 L 14.160156,34.398437 C 13.571613,34.281253 13.145832,34.097659 12.882812,33.847656 C 12.619791,33.597659 12.488281,33.250004 12.488281,32.804687 C 12.488281,32.289067 12.66927,31.882817 13.03125,31.585937 C 13.395832,31.289068 13.897133,31.140631 14.535156,31.140625 C 14.808591,31.140631 15.087236,31.16537 15.371094,31.214844 C 15.654944,31.264328 15.945309,31.338547 16.242188,31.4375 M 17.808594,32.703125 L 18.527344,32.703125 L 18.527344,37.078125 L 17.808594,37.078125 L 17.808594,32.703125 M 17.808594,31 L 18.527344,31 L 18.527344,31.910156 L 17.808594,31.910156 L 17.808594,31 M 20.027344,31 L 20.746094,31 L 20.746094,37.078125 L 20.027344,37.078125 L 20.027344,31 M 21.730469,32.703125 L 22.492188,32.703125 L 23.859375,36.375 L 25.226562,32.703125 L 25.988281,32.703125 L 24.347656,37.078125 L 23.371094,37.078125 L 21.730469,32.703125 M 30.722656,34.710937 L 30.722656,35.0625 L 27.417969,35.0625 C 27.449218,35.557293 27.597655,35.934897 27.863281,36.195312 C 28.131509,36.453125 28.503904,36.582031 28.980469,36.582031 C 29.256507,36.582031 29.523434,36.548177 29.78125,36.480468 C 30.041663,36.412761 30.299475,36.311198 30.554688,36.175781 L 30.554688,36.855468 C 30.296871,36.964844 30.032548,37.048177 29.761719,37.105468 C 29.490882,37.16276 29.216143,37.191406 28.9375,37.191406 C 28.239581,37.191406 27.686196,36.988281 27.277344,36.582031 C 26.871093,36.175782 26.667968,35.626303 26.667969,34.933594 C 26.667968,34.217451 26.860676,33.649743 27.246094,33.230468 C 27.634113,32.808598 28.156248,32.59766 28.8125,32.597656 C 29.401038,32.59766 29.865882,32.787764 30.207031,33.167968 C 30.550777,33.545576 30.722652,34.059899 30.722656,34.710937 M 30.003906,34.5 C 29.998694,34.106774 29.888017,33.792972 29.671875,33.558594 C 29.45833,33.324222 29.174476,33.207035 28.820312,33.207031 C 28.419269,33.207035 28.097654,33.320316 27.855469,33.546875 C 27.615884,33.773441 27.477863,34.092451 27.441406,34.503906 L 30.003906,34.5 M 34.675781,32.832031 L 34.675781,33.511718 C 34.472653,33.407556 34.261716,33.329431 34.042969,33.277344 C 33.824216,33.225264 33.597654,33.199222 33.363281,33.199218 C 33.006509,33.199222 32.73828,33.25391 32.558594,33.363281 C 32.381509,33.47266 32.292968,33.636722 32.292969,33.855468 C 32.292968,34.022138 32.35677,34.153649 32.484375,34.25 C 32.611978,34.343752 32.868488,34.433596 33.253906,34.519531 L 33.5,34.574218 C 34.010414,34.683596 34.372393,34.838544 34.585938,35.039062 C 34.80208,35.236981 34.910152,35.514324 34.910156,35.871094 C 34.910152,36.277344 34.748694,36.598959 34.425781,36.835937 C 34.105466,37.072916 33.66406,37.191406 33.101562,37.191406 C 32.867186,37.191406 32.622394,37.167968 32.367188,37.121094 C 32.114582,37.076823 31.847656,37.009114 31.566406,36.917968 L 31.566406,36.175781 C 31.832031,36.313803 32.093749,36.417969 32.351562,36.488281 C 32.609374,36.55599 32.864582,36.589844 33.117188,36.589844 C 33.455727,36.589844 33.716143,36.532552 33.898438,36.417968 C 34.080726,36.300782 34.171872,36.136719 34.171875,35.925781 C 34.171872,35.73047 34.105466,35.58073 33.972656,35.476562 C 33.842445,35.372397 33.554685,35.272137 33.109375,35.175781 L 32.859375,35.117187 C 32.414061,35.023439 32.092447,34.88021 31.894531,34.6875 C 31.696614,34.49219 31.597656,34.225263 31.597656,33.886718 C 31.597656,33.475264 31.743489,33.157556 32.035156,32.933594 C 32.326822,32.70964 32.740884,32.59766 33.277344,32.597656 C 33.542966,32.59766 33.792966,32.617192 34.027344,32.65625 C 34.261716,32.695317 34.477861,32.75391 34.675781,32.832031 M 36.753906,31.460937 L 36.753906,32.703125 L 38.234375,32.703125 L 38.234375,33.261718 L 36.753906,33.261718 L 36.753906,35.636718 C 36.753905,35.99349 36.802082,36.222657 36.898438,36.324218 C 36.997394,36.425782 37.196613,36.476563 37.496094,36.476562 L 38.234375,36.476562 L 38.234375,37.078125 L 37.496094,37.078125 C 36.941405,37.078125 36.558592,36.97526 36.347656,36.769531 C 36.136718,36.561198 36.031249,36.183594 36.03125,35.636718 L 36.03125,33.261718 L 35.503906,33.261718 L 35.503906,32.703125 L 36.03125,32.703125 L 36.03125,31.460937 L 36.753906,31.460937 M 41.71875,33.375 C 41.638018,33.328128 41.549476,33.294274 41.453125,33.273437 C 41.359372,33.250004 41.255206,33.238285 41.140625,33.238281 C 40.734373,33.238285 40.421873,33.371097 40.203125,33.636718 C 39.986978,33.899743 39.878905,34.278648 39.878906,34.773437 L 39.878906,37.078125 L 39.15625,37.078125 L 39.15625,32.703125 L 39.878906,32.703125 L 39.878906,33.382812 C 40.029946,33.117191 40.226561,32.920577 40.46875,32.792968 C 40.710935,32.662765 41.005206,32.59766 41.351562,32.597656 C 41.401039,32.59766 41.455726,32.601567 41.515625,32.609375 C 41.575518,32.614588 41.641924,32.623702 41.714844,32.636718 L 41.71875,33.375 M 46.207031,34.710937 L 46.207031,35.0625 L 42.902344,35.0625 C 42.933593,35.557293 43.08203,35.934897 43.347656,36.195312 C 43.615884,36.453125 43.988279,36.582031 44.464844,36.582031 C 44.740882,36.582031 45.007809,36.548177 45.265625,36.480468 C 45.526038,36.412761 45.78385,36.311198 46.039062,36.175781 L 46.039062,36.855468 C 45.781246,36.964844 45.516923,37.048177 45.246094,37.105468 C 44.975257,37.16276 44.700518,37.191406 44.421875,37.191406 C 43.723956,37.191406 43.170571,36.988281 42.761719,36.582031 C 42.355468,36.175782 42.152343,35.626303 42.152344,34.933594 C 42.152343,34.217451 42.345051,33.649743 42.730469,33.230468 C 43.118488,32.808598 43.640623,32.59766 44.296875,32.597656 C 44.885413,32.59766 45.350257,32.787764 45.691406,33.167968 C 46.035152,33.545576 46.207027,34.059899 46.207031,34.710937 M 45.488281,34.5 C 45.483069,34.106774 45.372392,33.792972 45.15625,33.558594 C 44.942705,33.324222 44.658851,33.207035 44.304688,33.207031 C 43.903644,33.207035 43.582029,33.320316 43.339844,33.546875 C 43.100259,33.773441 42.962238,34.092451 42.925781,34.503906 L 45.488281,34.5 M 49.949219,31.246094 L 50.738281,31.246094 L 50.738281,33.636718 L 53.605469,33.636718 L 53.605469,31.246094 L 54.394531,31.246094 L 54.394531,37.078125 L 53.605469,37.078125 L 53.605469,34.300781 L 50.738281,34.300781 L 50.738281,37.078125 L 49.949219,37.078125 L 49.949219,31.246094 M 59.675781,34.710937 L 59.675781,35.0625 L 56.371094,35.0625 C 56.402343,35.557293 56.55078,35.934897 56.816406,36.195312 C 57.084634,36.453125 57.457029,36.582031 57.933594,36.582031 C 58.209632,36.582031 58.476559,36.548177 58.734375,36.480468 C 58.994788,36.412761 59.2526,36.311198 59.507812,36.175781 L 59.507812,36.855468 C 59.249996,36.964844 58.985673,37.048177 58.714844,37.105468 C 58.444007,37.16276 58.169268,37.191406 57.890625,37.191406 C 57.192706,37.191406 56.639321,36.988281 56.230469,36.582031 C 55.824218,36.175782 55.621093,35.626303 55.621094,34.933594 C 55.621093,34.217451 55.813801,33.649743 56.199219,33.230468 C 56.587238,32.808598 57.109373,32.59766 57.765625,32.597656 C 58.354163,32.59766 58.819007,32.787764 59.160156,33.167968 C 59.503902,33.545576 59.675777,34.059899 59.675781,34.710937 M 58.957031,34.5 C 58.951819,34.106774 58.841142,33.792972 58.625,33.558594 C 58.411455,33.324222 58.127601,33.207035 57.773438,33.207031 C 57.372394,33.207035 57.050779,33.320316 56.808594,33.546875 C 56.569009,33.773441 56.430988,34.092451 56.394531,34.503906 L 58.957031,34.5 M 63.375,33.375 C 63.294268,33.328128 63.205726,33.294274 63.109375,33.273437 C 63.015622,33.250004 62.911456,33.238285 62.796875,33.238281 C 62.390623,33.238285 62.078123,33.371097 61.859375,33.636718 C 61.643228,33.899743 61.535155,34.278648 61.535156,34.773437 L 61.535156,37.078125 L 60.8125,37.078125 L 60.8125,32.703125 L 61.535156,32.703125 L 61.535156,33.382812 C 61.686196,33.117191 61.882811,32.920577 62.125,32.792968 C 62.367185,32.662765 62.661456,32.59766 63.007812,32.597656 C 63.057289,32.59766 63.111976,32.601567 63.171875,32.609375 C 63.231768,32.614588 63.298174,32.623702 63.371094,32.636718 L 63.375,33.375 M 66.65625,33.375 C 66.575518,33.328128 66.486976,33.294274 66.390625,33.273437 C 66.296872,33.250004 66.192706,33.238285 66.078125,33.238281 C 65.671873,33.238285 65.359373,33.371097 65.140625,33.636718 C 64.924478,33.899743 64.816405,34.278648 64.816406,34.773437 L 64.816406,37.078125 L 64.09375,37.078125 L 64.09375,32.703125 L 64.816406,32.703125 L 64.816406,33.382812 C 64.967446,33.117191 65.164061,32.920577 65.40625,32.792968 C 65.648435,32.662765 65.942706,32.59766 66.289062,32.597656 C 66.338539,32.59766 66.393226,32.601567 66.453125,32.609375 C 66.513018,32.614588 66.579424,32.623702 66.652344,32.636718 L 66.65625,33.375 M 71.144531,34.710937 L 71.144531,35.0625 L 67.839844,35.0625 C 67.871093,35.557293 68.01953,35.934897 68.285156,36.195312 C 68.553384,36.453125 68.925779,36.582031 69.402344,36.582031 C 69.678382,36.582031 69.945309,36.548177 70.203125,36.480468 C 70.463538,36.412761 70.72135,36.311198 70.976562,36.175781 L 70.976562,36.855468 C 70.718746,36.964844 70.454423,37.048177 70.183594,37.105468 C 69.912757,37.16276 69.638018,37.191406 69.359375,37.191406 C 68.661456,37.191406 68.108071,36.988281 67.699219,36.582031 C 67.292968,36.175782 67.089843,35.626303 67.089844,34.933594 C 67.089843,34.217451 67.282551,33.649743 67.667969,33.230468 C 68.055988,32.808598 68.578123,32.59766 69.234375,32.597656 C 69.822913,32.59766 70.287757,32.787764 70.628906,33.167968 C 70.972652,33.545576 71.144527,34.059899 71.144531,34.710937 M 70.425781,34.5 C 70.420569,34.106774 70.309892,33.792972 70.09375,33.558594 C 69.880205,33.324222 69.596351,33.207035 69.242188,33.207031 C 68.841144,33.207035 68.519529,33.320316 68.277344,33.546875 C 68.037759,33.773441 67.899738,34.092451 67.863281,34.503906 L 70.425781,34.5 M 74.84375,33.375 C 74.763018,33.328128 74.674476,33.294274 74.578125,33.273437 C 74.484372,33.250004 74.380206,33.238285 74.265625,33.238281 C 73.859373,33.238285 73.546873,33.371097 73.328125,33.636718 C 73.111978,33.899743 73.003905,34.278648 73.003906,34.773437 L 73.003906,37.078125 L 72.28125,37.078125 L 72.28125,32.703125 L 73.003906,32.703125 L 73.003906,33.382812 C 73.154946,33.117191 73.351561,32.920577 73.59375,32.792968 C 73.835935,32.662765 74.130206,32.59766 74.476562,32.597656 C 74.526039,32.59766 74.580726,32.601567 74.640625,32.609375 C 74.700518,32.614588 74.766924,32.623702 74.839844,32.636718 L 74.84375,33.375 M 77.578125,34.878906 C 76.997394,34.878908 76.59505,34.945314 76.371094,35.078125 C 76.147134,35.210939 76.035155,35.437501 76.035156,35.757812 C 76.035155,36.013022 76.118488,36.216146 76.285156,36.367187 C 76.454425,36.515625 76.683592,36.589844 76.972656,36.589844 C 77.371091,36.589844 77.690101,36.449219 77.929688,36.167968 C 78.171872,35.884116 78.292965,35.507814 78.292969,35.039062 L 78.292969,34.878906 L 77.578125,34.878906 M 79.011719,34.582031 L 79.011719,37.078125 L 78.292969,37.078125 L 78.292969,36.414062 C 78.128903,36.679688 77.924476,36.876302 77.679688,37.003906 C 77.434893,37.128906 77.135414,37.191406 76.78125,37.191406 C 76.333332,37.191406 75.976561,37.066406 75.710938,36.816406 C 75.447916,36.563802 75.316406,36.226563 75.316406,35.804687 C 75.316406,35.312502 75.480468,34.941408 75.808594,34.691406 C 76.139322,34.441409 76.631509,34.316409 77.285156,34.316406 L 78.292969,34.316406 L 78.292969,34.246094 C 78.292965,33.915367 78.18359,33.660159 77.964844,33.480468 C 77.748695,33.298181 77.444008,33.207035 77.050781,33.207031 C 76.800779,33.207035 76.55729,33.236983 76.320312,33.296875 C 76.083332,33.356774 75.855468,33.446618 75.636719,33.566406 L 75.636719,32.902344 C 75.899739,32.800785 76.154947,32.725265 76.402344,32.675781 C 76.649738,32.623702 76.890623,32.59766 77.125,32.597656 C 77.75781,32.59766 78.230465,32.761723 78.542969,33.089844 C 78.855465,33.417972 79.011715,33.915367 79.011719,34.582031"
       id="text2257" />
    <path
       style="opacity:1;fill:url(#radialGradient2217);fill-opacity:1;stroke:none;stroke-width:1;stroke-linecap:round;stroke-linejoin:miter;stroke-miterlimit:4;stroke-dasharray:none;stroke-dashoffset:0;stroke-opacity:1"
       d="M 7.0584862,5.6223982 C 6.7965004,5.6475609 6.5462021,5.770668 6.3447188,5.9719702 L 5.4770019,6.8389183 C 5.0164691,7.299037 5.0164686,8.042771 5.4770019,8.50289 L 7.96819,10.991866 L 5.4770019,13.480838 C 5.0164686,13.940962 5.0164691,14.68469 5.4770019,15.144814 L 6.3447188,16.011757 C 6.8052521,16.471882 7.549643,16.471882 8.010176,16.011757 L 10.501364,13.522786 L 12.992552,16.011757 C 13.453085,16.471882 14.197476,16.471882 14.658009,16.011757 L 15.525726,15.144814 C 15.986259,14.68469 15.986259,13.940962 15.525726,13.480838 L 13.034538,10.991866 L 15.525726,8.50289 C 15.986259,8.042771 15.986259,7.299037 15.525726,6.8389183 L 14.658009,5.9719702 C 14.197476,5.5118455 13.453086,5.5118455 12.992552,5.9719702 L 10.501364,8.460941 L 8.010176,5.9719702 C 7.751126,5.7131525 7.395325,5.5900453 7.0584862,5.6223982 z "
       id="rect1332" />
    <path
       style="font-size:8px;font-style:normal;font-variant:normal;font-weight:bold;font-stretch:normal;text-align:start;line-height:125%;writing-mode:lr-tb;text-anchor:start;fill:#000000;fill-opacity:1;stroke:none;stroke-width:1px;stroke-linecap:butt;stroke-linejoin:miter;stroke-opacity:1;font-family:Bitstream Vera Sans"
       d="M 0,24.296875 L 2.496094,24.296875 C 3.238277,24.296881 3.807287,24.462245 4.203125,24.792968 C 4.601557,25.121099 4.800776,25.589848 4.800781,26.199218 C 4.800776,26.811201 4.601557,27.282555 4.203125,27.613281 C 3.807287,27.941408 3.238277,28.105471 2.496094,28.105468 L 1.503906,28.105468 L 1.503906,30.128906 L 0,30.128906 L 0,24.296875 M 1.503906,25.386718 L 1.503906,27.015625 L 2.335938,27.015625 C 2.627601,27.015628 2.852861,26.945315 3.011719,26.804687 C 3.170569,26.661462 3.249996,26.459639 3.25,26.199218 C 3.249996,25.938806 3.170569,25.738285 3.011719,25.597656 C 2.852861,25.457036 2.627601,25.386723 2.335938,25.386718 L 1.503906,25.386718 M 9.046875,26.945312 C 8.924475,26.888024 8.80208,26.846357 8.679688,26.820312 C 8.559892,26.79167 8.438799,26.777347 8.316406,26.777344 C 7.957028,26.777347 7.679685,26.893232 7.484375,27.125 C 7.291664,27.354169 7.19531,27.683596 7.195312,28.113281 L 7.195312,30.128906 L 5.796875,30.128906 L 5.796875,25.753906 L 7.195312,25.753906 L 7.195312,26.472656 C 7.374998,26.186202 7.580727,25.977868 7.8125,25.847656 C 8.046872,25.714848 8.32682,25.648442 8.652344,25.648437 C 8.699215,25.648442 8.749996,25.651046 8.804688,25.65625 C 8.859371,25.658858 8.938798,25.666671 9.042969,25.679687 L 9.046875,26.945312 M 11.832031,26.648437 C 11.522133,26.648441 11.285154,26.76042 11.121094,26.984375 C 10.959634,27.205732 10.878904,27.526044 10.878906,27.945312 C 10.878904,28.364585 10.959634,28.686199 11.121094,28.910156 C 11.285154,29.131511 11.522133,29.242188 11.832031,29.242187 C 12.136716,29.242188 12.369788,29.131511 12.53125,28.910156 C 12.692705,28.686199 12.773434,28.364585 12.773438,27.945312 C 12.773434,27.526044 12.692705,27.205732 12.53125,26.984375 C 12.369788,26.76042 12.136716,26.648441 11.832031,26.648437 M 11.832031,25.648437 C 12.584632,25.648442 13.171871,25.851567 13.59375,26.257812 C 14.018224,26.664066 14.230464,27.226565 14.230469,27.945312 C 14.230464,28.664064 14.018224,29.226563 13.59375,29.632812 C 13.171871,30.039062 12.584632,30.242187 11.832031,30.242187 C 11.076821,30.242187 10.485676,30.039062 10.058594,29.632812 C 9.634114,29.226563 9.421875,28.664064 9.421875,27.945312 C 9.421875,27.226565 9.634114,26.664066 10.058594,26.257812 C 10.485676,25.851567 11.076821,25.648442 11.832031,25.648437 M 18.785156,25.890625 L 18.785156,27.03125 C 18.595048,26.901045 18.403642,26.804691 18.210938,26.742187 C 18.02083,26.679691 17.822913,26.648441 17.617188,26.648437 C 17.22656,26.648441 16.921873,26.763024 16.703125,26.992187 C 16.486977,27.218753 16.378904,27.536461 16.378906,27.945312 C 16.378904,28.354168 16.486977,28.673178 16.703125,28.902344 C 16.921873,29.128907 17.22656,29.242188 17.617188,29.242187 C 17.835934,29.242188 18.042965,29.209636 18.238281,29.144531 C 18.436194,29.079428 18.618486,28.983074 18.785156,28.855468 L 18.785156,30 C 18.566402,30.080729 18.343746,30.140625 18.117188,30.179687 C 17.893226,30.221354 17.667966,30.242187 17.441406,30.242187 C 16.652342,30.242187 16.035155,30.040364 15.589844,29.636718 C 15.144531,29.230469 14.921875,28.666668 14.921875,27.945312 C 14.921875,27.223961 15.144531,26.661462 15.589844,26.257812 C 16.035155,25.851567 16.652342,25.648442 17.441406,25.648437 C 17.67057,25.648442 17.89583,25.669275 18.117188,25.710937 C 18.341142,25.750004 18.563798,25.8099 18.785156,25.890625 M 24.367188,27.929687 L 24.367188,28.328125 L 21.097656,28.328125 C 21.131509,28.656251 21.249998,28.902345 21.453125,29.066406 C 21.656248,29.230469 21.940102,29.312501 22.304688,29.3125 C 22.598955,29.312501 22.899736,29.269532 23.207031,29.183594 C 23.516923,29.095053 23.834631,28.96224 24.160156,28.785156 L 24.160156,29.863281 C 23.829423,29.988281 23.498694,30.082031 23.167969,30.144531 C 22.837236,30.209635 22.506507,30.242187 22.175781,30.242187 C 21.384113,30.242187 20.768228,30.041667 20.328125,29.640625 C 19.890624,29.23698 19.671875,28.671876 19.671875,27.945312 C 19.671875,27.231773 19.886718,26.670576 20.316406,26.261718 C 20.748696,25.852869 21.342446,25.648442 22.097656,25.648437 C 22.785153,25.648442 23.334631,25.855473 23.746094,26.269531 C 24.160151,26.683597 24.367182,27.236982 24.367188,27.929687 M 22.929688,27.464844 C 22.929684,27.199221 22.851559,26.98568 22.695312,26.824218 C 22.541663,26.660159 22.339841,26.578128 22.089844,26.578125 C 21.819008,26.578128 21.598956,26.654951 21.429688,26.808594 C 21.260415,26.959638 21.154946,27.178388 21.113281,27.464844 L 22.929688,27.464844 M 28.855469,25.890625 L 28.855469,26.953125 C 28.555986,26.828128 28.266924,26.734378 27.988281,26.671875 C 27.709632,26.609378 27.446612,26.578128 27.199219,26.578125 C 26.933592,26.578128 26.735675,26.611982 26.605469,26.679687 C 26.477863,26.744795 26.414061,26.846357 26.414062,26.984375 C 26.414061,27.096357 26.462238,27.182294 26.558594,27.242187 C 26.65755,27.302086 26.833331,27.346357 27.085938,27.375 L 27.332031,27.410156 C 28.048174,27.501304 28.529944,27.651044 28.777344,27.859375 C 29.024735,28.06771 29.148433,28.394533 29.148438,28.839844 C 29.148433,29.30599 28.976558,29.65625 28.632812,29.890625 C 28.289059,30.125 27.776039,30.242187 27.09375,30.242187 C 26.804685,30.242187 26.505207,30.21875 26.195312,30.171875 C 25.88802,30.127604 25.571614,30.059896 25.246094,29.96875 L 25.246094,28.90625 C 25.524739,29.041668 25.809895,29.14323 26.101562,29.210937 C 26.395832,29.278646 26.694008,29.312501 26.996094,29.3125 C 27.269529,29.312501 27.475258,29.27474 27.613281,29.199218 C 27.751299,29.123699 27.820309,29.01172 27.820312,28.863281 C 27.820309,28.738282 27.772132,28.645835 27.675781,28.585937 C 27.582028,28.523439 27.393227,28.475262 27.109375,28.441406 L 26.863281,28.410156 C 26.240884,28.332033 25.804686,28.187502 25.554688,27.976562 C 25.304687,27.765627 25.179687,27.445315 25.179688,27.015625 C 25.179687,26.552087 25.338541,26.208337 25.65625,25.984375 C 25.973957,25.760421 26.460936,25.648442 27.117188,25.648437 C 27.374997,25.648442 27.64583,25.667973 27.929688,25.707031 C 28.213538,25.746098 28.522132,25.807296 28.855469,25.890625 M 33.605469,25.890625 L 33.605469,26.953125 C 33.305986,26.828128 33.016924,26.734378 32.738281,26.671875 C 32.459632,26.609378 32.196612,26.578128 31.949219,26.578125 C 31.683592,26.578128 31.485675,26.611982 31.355469,26.679687 C 31.227863,26.744795 31.164061,26.846357 31.164062,26.984375 C 31.164061,27.096357 31.212238,27.182294 31.308594,27.242187 C 31.40755,27.302086 31.583331,27.346357 31.835938,27.375 L 32.082031,27.410156 C 32.798174,27.501304 33.279944,27.651044 33.527344,27.859375 C 33.774735,28.06771 33.898433,28.394533 33.898438,28.839844 C 33.898433,29.30599 33.726558,29.65625 33.382812,29.890625 C 33.039059,30.125 32.526039,30.242187 31.84375,30.242187 C 31.554685,30.242187 31.255207,30.21875 30.945312,30.171875 C 30.63802,30.127604 30.321614,30.059896 29.996094,29.96875 L 29.996094,28.90625 C 30.274739,29.041668 30.559895,29.14323 30.851562,29.210937 C 31.145832,29.278646 31.444008,29.312501 31.746094,29.3125 C 32.019529,29.312501 32.225258,29.27474 32.363281,29.199218 C 32.501299,29.123699 32.570309,29.01172 32.570312,28.863281 C 32.570309,28.738282 32.522132,28.645835 32.425781,28.585937 C 32.332028,28.523439 32.143227,28.475262 31.859375,28.441406 L 31.613281,28.410156 C 30.990884,28.332033 30.554686,28.187502 30.304688,27.976562 C 30.054687,27.765627 29.929687,27.445315 29.929688,27.015625 C 29.929687,26.552087 30.088541,26.208337 30.40625,25.984375 C 30.723957,25.760421 31.210936,25.648442 31.867188,25.648437 C 32.124997,25.648442 32.39583,25.667973 32.679688,25.707031 C 32.963538,25.746098 33.272132,25.807296 33.605469,25.890625 M 41.839844,24.480468 L 41.839844,25.714844 C 41.519527,25.571619 41.207027,25.463546 40.902344,25.390625 C 40.597653,25.317713 40.309893,25.281255 40.039062,25.28125 C 39.679685,25.281255 39.41406,25.330734 39.242188,25.429687 C 39.07031,25.52865 38.984373,25.682296 38.984375,25.890625 C 38.984373,26.046879 39.041665,26.169275 39.15625,26.257812 C 39.273435,26.343754 39.484373,26.417972 39.789062,26.480468 L 40.429688,26.609375 C 41.078121,26.739586 41.539058,26.937503 41.8125,27.203125 C 42.085932,27.468752 42.222651,27.846356 42.222656,28.335937 C 42.222651,28.979168 42.031245,29.458334 41.648438,29.773437 C 41.268225,30.085937 40.686194,30.242187 39.902344,30.242187 C 39.53255,30.242187 39.161456,30.207031 38.789062,30.136718 C 38.416665,30.066406 38.04427,29.96224 37.671875,29.824218 L 37.671875,28.554687 C 38.04427,28.752605 38.403644,28.902345 38.75,29.003906 C 39.098956,29.102865 39.434893,29.152344 39.757812,29.152344 C 40.085934,29.152344 40.337236,29.097657 40.511719,28.988281 C 40.686194,28.878907 40.773434,28.722657 40.773438,28.519531 C 40.773434,28.337241 40.713538,28.196616 40.59375,28.097656 C 40.476559,27.9987 40.240882,27.910158 39.886719,27.832031 L 39.304688,27.703125 C 38.721352,27.578127 38.29427,27.378909 38.023438,27.105468 C 37.755208,26.832034 37.621093,26.463545 37.621094,26 C 37.621093,25.419275 37.808593,24.972661 38.183594,24.660156 C 38.558592,24.347662 39.097654,24.191412 39.800781,24.191406 C 40.121091,24.191412 40.450517,24.216151 40.789062,24.265625 C 41.1276,24.312506 41.47786,24.38412 41.839844,24.480468 M 45.027344,24.511718 L 45.027344,25.753906 L 46.46875,25.753906 L 46.46875,26.753906 L 45.027344,26.753906 L 45.027344,28.609375 C 45.027342,28.812501 45.067706,28.950522 45.148438,29.023437 C 45.229164,29.093751 45.38932,29.128907 45.628906,29.128906 L 46.347656,29.128906 L 46.347656,30.128906 L 45.148438,30.128906 C 44.596352,30.128906 44.204426,30.014323 43.972656,29.785156 C 43.743489,29.553386 43.628905,29.161459 43.628906,28.609375 L 43.628906,26.753906 L 42.933594,26.753906 L 42.933594,25.753906 L 43.628906,25.753906 L 43.628906,24.511718 L 45.027344,24.511718 M 49.410156,26.648437 C 49.100258,26.648441 48.863279,26.76042 48.699219,26.984375 C 48.537759,27.205732 48.457029,27.526044 48.457031,27.945312 C 48.457029,28.364585 48.537759,28.686199 48.699219,28.910156 C 48.863279,29.131511 49.100258,29.242188 49.410156,29.242187 C 49.714841,29.242188 49.947913,29.131511 50.109375,28.910156 C 50.27083,28.686199 50.351559,28.364585 50.351562,27.945312 C 50.351559,27.526044 50.27083,27.205732 50.109375,26.984375 C 49.947913,26.76042 49.714841,26.648441 49.410156,26.648437 M 49.410156,25.648437 C 50.162757,25.648442 50.749996,25.851567 51.171875,26.257812 C 51.596349,26.664066 51.808589,27.226565 51.808594,27.945312 C 51.808589,28.664064 51.596349,29.226563 51.171875,29.632812 C 50.749996,30.039062 50.162757,30.242187 49.410156,30.242187 C 48.654946,30.242187 48.063801,30.039062 47.636719,29.632812 C 47.212239,29.226563 47,28.664064 47,27.945312 C 47,27.226565 47.212239,26.664066 47.636719,26.257812 C 48.063801,25.851567 48.654946,25.648442 49.410156,25.648437 M 54.226562,29.496094 L 54.226562,31.792968 L 52.828125,31.792968 L 52.828125,25.753906 L 54.226562,25.753906 L 54.226562,26.394531 C 54.419269,26.139327 54.63281,25.951827 54.867188,25.832031 C 55.10156,25.70964 55.371091,25.648442 55.675781,25.648437 C 56.21484,25.648442 56.657548,25.863285 57.003906,26.292968 C 57.350255,26.720055 57.523432,27.270836 57.523438,27.945312 C 57.523432,28.619793 57.350255,29.171876 57.003906,29.601562 C 56.657548,30.028646 56.21484,30.242187 55.675781,30.242187 C 55.371091,30.242187 55.10156,30.182291 54.867188,30.0625 C 54.63281,29.940104 54.419269,29.751302 54.226562,29.496094 M 55.15625,26.664062 C 54.856768,26.664066 54.6263,26.774743 54.464844,26.996094 C 54.305987,27.214846 54.22656,27.531252 54.226562,27.945312 C 54.22656,28.359377 54.305987,28.677085 54.464844,28.898437 C 54.6263,29.117188 54.856768,29.226563 55.15625,29.226562 C 55.455726,29.226563 55.68359,29.117188 55.839844,28.898437 C 55.998694,28.679689 56.078121,28.361981 56.078125,27.945312 C 56.078121,27.528648 55.998694,27.21094 55.839844,26.992187 C 55.68359,26.773441 55.455726,26.664066 55.15625,26.664062"
       id="text2219" />
  </g>
  <g
     inkscape:groupmode="layer"
     id="layer2"
     inkscape:label="lights">
    <path
       sodipodi:type="arc"
       style="opacity:0.75;fill:url(#radialGradient2190);fill-opacity:1;stroke:none;stroke-width:1.06165099;stroke-linecap:round;stroke-linejoin:miter;stroke-miterlimit:4;stroke-dasharray:none;stroke-dashoffset:0;stroke-opacity:1"
       id="path2182"
       sodipodi:cx="23.821341"
       sodipodi:cy="23.821341"
       sodipodi:rx="20.724566"
       sodipodi:ry="20.724566"
       d="M 44.545906 23.821341 A 20.724566 20.724566 0 1 1  3.0967751,23.821341 A 20.724566 20.724566 0 1 1  44.545906 23.821341 z"
       transform="matrix(0.482519,0,0,0.482519,-0.494253,-0.494253)" />
    <path
       sodipodi:type="arc"
       style="opacity:0.75;fill:url(#radialGradient2194);fill-opacity:1;stroke:none;stroke-width:1.06165099;stroke-linecap:round;stroke-linejoin:miter;stroke-miterlimit:4;stroke-dasharray:none;stroke-dashoffset:0;stroke-opacity:1"
       id="path2192"
       sodipodi:cx="23.821341"
       sodipodi:cy="23.821341"
       sodipodi:rx="20.724566"
       sodipodi:ry="20.724566"
       d="M 44.545906 23.821341 A 20.724566 20.724566 0 1 1  3.0967751,23.821341 A 20.724566 20.724566 0 1 1  44.545906 23.821341 z"
       transform="matrix(0.482519,0,0,0.482519,-0.494253,-0.494253)" />
    <path
       sodipodi:type="arc"
       style="opacity:0.75;fill:url(#radialGradient2210);fill-opacity:1;stroke:none;stroke-width:1.06165099;stroke-linecap:round;stroke-linejoin:miter;stroke-miterlimit:4;stroke-dasharray:none;stroke-dashoffset:0;stroke-opacity:1"
       id="path2202"
       sodipodi:cx="23.821341"
       sodipodi:cy="23.821341"
       sodipodi:rx="20.724566"
       sodipodi:ry="20.724566"
       d="M 44.545906 23.821341 A 20.724566 20.724566 0 1 1  3.0967751,23.821341 A 20.724566 20.724566 0 1 1  44.545906 23.821341 z"
       transform="matrix(0.482519,0,0,0.482519,-0.494252,-0.494253)" />
    <path
       sodipodi:type="arc"
       style="opacity:1;fill:none;fill-opacity:1;stroke:#ffffff;stroke-width:2.17756057;stroke-linecap:round;stroke-linejoin:miter;stroke-miterlimit:4;stroke-dasharray:none;stroke-dashoffset:0;stroke-opacity:0.63948502"
       id="path2233"
       sodipodi:cx="23.821341"
       sodipodi:cy="23.821341"
       sodipodi:rx="20.724566"
       sodipodi:ry="20.724566"
       d="M 44.545906 23.821341 A 20.724566 20.724566 0 1 1  3.0967751,23.821341 A 20.724566 20.724566 0 1 1  44.545906 23.821341 z"
       transform="matrix(0.458712,0,0,0.459748,7.808781e-2,2.010889e-2)" />
  </g>
</svg>
