<?xml version="1.0" encoding="UTF-8" standalone="no"?>
<!-- Created with Inkscape (http://www.inkscape.org/) -->
<svg
   xmlns:dc="http://purl.org/dc/elements/1.1/"
   xmlns:cc="http://web.resource.org/cc/"
   xmlns:rdf="http://www.w3.org/1999/02/22-rdf-syntax-ns#"
   xmlns:svg="http://www.w3.org/2000/svg"
   xmlns="http://www.w3.org/2000/svg"
   xmlns:xlink="http://www.w3.org/1999/xlink"
   xmlns:sodipodi="http://inkscape.sourceforge.net/DTD/sodipodi-0.dtd"
   xmlns:inkscape="http://www.inkscape.org/namespaces/inkscape"
   width="22"
   height="22"
   id="svg2"
   sodipodi:version="0.32"
   inkscape:version="0.43"
   version="1.0"
   sodipodi:docbase="/home/silvestre/Desktop/Gion/22x22/actions/SVGs"
   sodipodi:docname="view-refresh.svg"
   inkscape:export-filename="/home/silvestre/Desktop/Gion/22x22/actions/view-refresh.png"
   inkscape:export-xdpi="90"
   inkscape:export-ydpi="90">
  <defs
     id="defs4">
    <linearGradient
       inkscape:collect="always"
       id="linearGradient2218">
      <stop
         style="stop-color:#000000;stop-opacity:1;"
         offset="0"
         id="stop2220" />
      <stop
         style="stop-color:#000000;stop-opacity:0;"
         offset="1"
         id="stop2222" />
    </linearGradient>
    <linearGradient
       id="linearGradient2204">
      <stop
         style="stop-color:#000000;stop-opacity:0"
         offset="0"
         id="stop2206" />
      <stop
         id="stop2212"
         offset="0.5"
         style="stop-color:#000000;stop-opacity:0;" />
      <stop
         style="stop-color:#000000;stop-opacity:0.06060606;"
         offset="0.75"
         id="stop2214" />
      <stop
         style="stop-color:#000000;stop-opacity:0.24892704"
         offset="1"
         id="stop2208" />
    </linearGradient>
    <linearGradient
       id="linearGradient2196"
       inkscape:collect="always">
      <stop
         id="stop2198"
         offset="0"
         style="stop-color:#ffffff;stop-opacity:1;" />
      <stop
         id="stop2200"
         offset="1"
         style="stop-color:#ffffff;stop-opacity:0" />
    </linearGradient>
    <linearGradient
       inkscape:collect="always"
       id="linearGradient2184">
      <stop
         style="stop-color:#ffffff;stop-opacity:1;"
         offset="0"
         id="stop2186" />
      <stop
         style="stop-color:#ffffff;stop-opacity:0;"
         offset="1"
         id="stop2188" />
    </linearGradient>
    <radialGradient
       inkscape:collect="always"
       xlink:href="#linearGradient2196"
       id="radialGradient2190"
       cx="23.821341"
       cy="19.220688"
       fx="23.821341"
       fy="11.559587"
       r="20.724566"
       gradientUnits="userSpaceOnUse" />
    <radialGradient
       inkscape:collect="always"
       xlink:href="#linearGradient2184"
       id="radialGradient2194"
       gradientUnits="userSpaceOnUse"
       cx="21.955513"
       cy="41.559357"
       fx="21.955513"
       fy="43.898674"
       r="20.724566"
       gradientTransform="matrix(0.592713,-6.494147e-8,6.494147e-8,0.592713,10.80802,15.56962)" />
    <radialGradient
       inkscape:collect="always"
       xlink:href="#linearGradient2204"
       id="radialGradient2210"
       cx="20.053436"
       cy="19.070505"
       fx="20.053436"
       fy="19.070505"
       r="20.724566"
       gradientUnits="userSpaceOnUse"
       gradientTransform="matrix(1.602242,-1.930651e-16,1.930651e-16,1.602242,-13.98654,-13.89271)" />
    <radialGradient
       inkscape:collect="always"
       xlink:href="#linearGradient2218"
       id="radialGradient2224"
       cx="24.416874"
       cy="42.401985"
       fx="24.416874"
       fy="63.068226"
       r="23.702232"
       gradientTransform="matrix(1,0,0,0.226131,-3.463213e-16,32.8136)"
       gradientUnits="userSpaceOnUse" />
  </defs>
  <sodipodi:namedview
     id="base"
     pagecolor="#ffffff"
     bordercolor="#666666"
     borderopacity="1.0"
     inkscape:pageopacity="0.0"
     inkscape:pageshadow="2"
     inkscape:zoom="1"
     inkscape:cx="33.783445"
     inkscape:cy="-3.711061"
     inkscape:document-units="px"
     inkscape:current-layer="layer2"
     inkscape:showpageshadow="false"
     showgrid="false"
     inkscape:grid-bbox="false"
     inkscape:window-width="897"
     inkscape:window-height="590"
     inkscape:window-x="12"
     inkscape:window-y="65"
     showborder="false"
     showguides="true"
     inkscape:guide-bbox="true" />
  <metadata
     id="metadata7">
    <rdf:RDF>
      <cc:Work
         rdf:about="">
        <dc:format>image/svg+xml</dc:format>
        <dc:type
           rdf:resource="http://purl.org/dc/dcmitype/StillImage" />
        <dc:title>Process Stop</dc:title>
        <dc:creator>
          <cc:Agent>
            <dc:title>Silvestre Herrera</dc:title>
          </cc:Agent>
        </dc:creator>
        <cc:license
           rdf:resource="http://creativecommons.org/licenses/GPL/2.0/" />
      </cc:Work>
      <cc:License
         rdf:about="http://creativecommons.org/licenses/GPL/2.0/">
        <cc:permits
           rdf:resource="http://web.resource.org/cc/Reproduction" />
        <cc:permits
           rdf:resource="http://web.resource.org/cc/Distribution" />
        <cc:requires
           rdf:resource="http://web.resource.org/cc/Notice" />
        <cc:permits
           rdf:resource="http://web.resource.org/cc/DerivativeWorks" />
        <cc:requires
           rdf:resource="http://web.resource.org/cc/ShareAlike" />
        <cc:requires
           rdf:resource="http://web.resource.org/cc/SourceCode" />
      </cc:License>
    </rdf:RDF>
  </metadata>
  <g
     inkscape:label="Capa 1"
     inkscape:groupmode="layer"
     id="layer1"
     sodipodi:insensitive="true">
    <path
       sodipodi:type="arc"
       style="opacity:0.37229435;fill:url(#radialGradient2224);fill-opacity:1;stroke:none;stroke-width:1;stroke-linecap:round;stroke-linejoin:miter;stroke-miterlimit:4;stroke-dasharray:none;stroke-dashoffset:0;stroke-opacity:1"
       id="path2216"
       sodipodi:cx="24.416874"
       sodipodi:cy="42.401985"
       sodipodi:rx="23.702232"
       sodipodi:ry="5.3598013"
       d="M 48.119106 42.401985 A 23.702232 5.3598013 0 1 1  0.71464157,42.401985 A 23.702232 5.3598013 0 1 1  48.119106 42.401985 z"
       transform="matrix(0.464091,0,0,0.500929,-0.331658,-1.897983)" />
    <path
       sodipodi:type="arc"
       style="opacity:1;fill:#2269c9;fill-opacity:1;stroke:#304b70;stroke-width:1.97868228;stroke-linecap:round;stroke-linejoin:miter;stroke-miterlimit:4;stroke-dasharray:none;stroke-dashoffset:0;stroke-opacity:1"
       id="path1307"
       sodipodi:cx="23.821341"
       sodipodi:cy="23.821341"
       sodipodi:rx="20.724566"
       sodipodi:ry="20.724566"
       d="M 44.545906 23.821341 A 20.724566 20.724566 0 1 1  3.0967751,23.821341 A 20.724566 20.724566 0 1 1  44.545906 23.821341 z"
       transform="matrix(0.505261,0,0,0.505513,-1.03086,-1.042131)" />
    <path
       style="font-size:8px;font-style:normal;font-variant:normal;font-weight:normal;font-stretch:normal;text-align:start;line-height:125%;writing-mode:lr-tb;text-anchor:start;fill:#646464;fill-opacity:1;stroke:none;stroke-width:1px;stroke-linecap:butt;stroke-linejoin:miter;stroke-opacity:1;font-family:Bitstream Vera Sans"
       d="M 3.4960938,34.894531 C 3.4960899,34.365888 3.386715,33.951826 3.1679688,33.652344 C 2.9518196,33.350264 2.6536428,33.199222 2.2734375,33.199218 C 1.8932269,33.199222 1.593748,33.350264 1.375,33.652344 C 1.1588526,33.951826 1.0507798,34.365888 1.0507812,34.894531 C 1.0507798,35.423178 1.1588526,35.838543 1.375,36.140625 C 1.593748,36.440105 1.8932269,36.589844 2.2734375,36.589844 C 2.6536428,36.589844 2.9518196,36.440105 3.1679688,36.140625 C 3.386715,35.838543 3.4960899,35.423178 3.4960938,34.894531 M 1.0507812,33.367187 C 1.2018213,33.106775 1.3919253,32.914066 1.6210938,32.789062 C 1.8528623,32.661462 2.1289037,32.59766 2.4492188,32.597656 C 2.9804654,32.59766 3.4114545,32.808598 3.7421875,33.230468 C 4.0755164,33.652347 4.2421829,34.207034 4.2421875,34.894531 C 4.2421829,35.582032 4.0755164,36.136719 3.7421875,36.558594 C 3.4114545,36.980469 2.9804654,37.191406 2.4492188,37.191406 C 2.1289037,37.191406 1.8528623,37.128906 1.6210938,37.003906 C 1.3919253,36.876302 1.2018213,36.682292 1.0507812,36.421875 L 1.0507812,37.078125 L 0.328125,37.078125 L 0.328125,31 L 1.0507812,31 L 1.0507812,33.367187 M 7.2539062,37.484375 C 7.0507789,38.005207 6.8528624,38.345051 6.6601562,38.503906 C 6.4674461,38.662759 6.2096339,38.742186 5.8867188,38.742187 L 5.3125,38.742187 L 5.3125,38.140625 L 5.734375,38.140625 C 5.9322904,38.140624 6.0859361,38.093749 6.1953125,38 C 6.3046859,37.906249 6.4257795,37.684895 6.5585938,37.335937 L 6.6875,37.007812 L 4.9179688,32.703125 L 5.6796875,32.703125 L 7.046875,36.125 L 8.4140625,32.703125 L 9.1757812,32.703125 L 7.2539062,37.484375 M 16.242188,31.4375 L 16.242188,32.207031 C 15.942704,32.063807 15.660153,31.957036 15.394531,31.886718 C 15.128903,31.816411 14.872393,31.781255 14.625,31.78125 C 14.19531,31.781255 13.863279,31.864588 13.628906,32.03125 C 13.397134,32.197921 13.281249,32.4349 13.28125,32.742187 C 13.281249,33.000004 13.358072,33.195316 13.511719,33.328125 C 13.667967,33.458337 13.962238,33.563805 14.394531,33.644531 L 14.871094,33.742187 C 15.459632,33.85417 15.893225,34.052086 16.171875,34.335937 C 16.453121,34.61719 16.593745,34.994793 16.59375,35.46875 C 16.593745,36.033855 16.403641,36.46224 16.023438,36.753906 C 15.64583,37.045573 15.091143,37.191406 14.359375,37.191406 C 14.083331,37.191406 13.789061,37.160156 13.476562,37.097656 C 13.166665,37.035156 12.845051,36.942708 12.511719,36.820312 L 12.511719,36.007812 C 12.83203,36.187501 13.145832,36.322917 13.453125,36.414062 C 13.760415,36.505209 14.062498,36.550782 14.359375,36.550781 C 14.809893,36.550782 15.157549,36.46224 15.402344,36.285156 C 15.647132,36.108074 15.769527,35.85547 15.769531,35.527344 C 15.769527,35.240887 15.680986,35.016929 15.503906,34.855468 C 15.329424,34.694013 15.041664,34.572919 14.640625,34.492187 L 14.160156,34.398437 C 13.571613,34.281253 13.145832,34.097659 12.882812,33.847656 C 12.619791,33.597659 12.488281,33.250004 12.488281,32.804687 C 12.488281,32.289067 12.66927,31.882817 13.03125,31.585937 C 13.395832,31.289068 13.897133,31.140631 14.535156,31.140625 C 14.808591,31.140631 15.087236,31.16537 15.371094,31.214844 C 15.654944,31.264328 15.945309,31.338547 16.242188,31.4375 M 17.808594,32.703125 L 18.527344,32.703125 L 18.527344,37.078125 L 17.808594,37.078125 L 17.808594,32.703125 M 17.808594,31 L 18.527344,31 L 18.527344,31.910156 L 17.808594,31.910156 L 17.808594,31 M 20.027344,31 L 20.746094,31 L 20.746094,37.078125 L 20.027344,37.078125 L 20.027344,31 M 21.730469,32.703125 L 22.492188,32.703125 L 23.859375,36.375 L 25.226562,32.703125 L 25.988281,32.703125 L 24.347656,37.078125 L 23.371094,37.078125 L 21.730469,32.703125 M 30.722656,34.710937 L 30.722656,35.0625 L 27.417969,35.0625 C 27.449218,35.557293 27.597655,35.934897 27.863281,36.195312 C 28.131509,36.453125 28.503904,36.582031 28.980469,36.582031 C 29.256507,36.582031 29.523434,36.548177 29.78125,36.480468 C 30.041663,36.412761 30.299475,36.311198 30.554688,36.175781 L 30.554688,36.855468 C 30.296871,36.964844 30.032548,37.048177 29.761719,37.105468 C 29.490882,37.16276 29.216143,37.191406 28.9375,37.191406 C 28.239581,37.191406 27.686196,36.988281 27.277344,36.582031 C 26.871093,36.175782 26.667968,35.626303 26.667969,34.933594 C 26.667968,34.217451 26.860676,33.649743 27.246094,33.230468 C 27.634113,32.808598 28.156248,32.59766 28.8125,32.597656 C 29.401038,32.59766 29.865882,32.787764 30.207031,33.167968 C 30.550777,33.545576 30.722652,34.059899 30.722656,34.710937 M 30.003906,34.5 C 29.998694,34.106774 29.888017,33.792972 29.671875,33.558594 C 29.45833,33.324222 29.174476,33.207035 28.820312,33.207031 C 28.419269,33.207035 28.097654,33.320316 27.855469,33.546875 C 27.615884,33.773441 27.477863,34.092451 27.441406,34.503906 L 30.003906,34.5 M 34.675781,32.832031 L 34.675781,33.511718 C 34.472653,33.407556 34.261716,33.329431 34.042969,33.277344 C 33.824216,33.225264 33.597654,33.199222 33.363281,33.199218 C 33.006509,33.199222 32.73828,33.25391 32.558594,33.363281 C 32.381509,33.47266 32.292968,33.636722 32.292969,33.855468 C 32.292968,34.022138 32.35677,34.153649 32.484375,34.25 C 32.611978,34.343752 32.868488,34.433596 33.253906,34.519531 L 33.5,34.574218 C 34.010414,34.683596 34.372393,34.838544 34.585938,35.039062 C 34.80208,35.236981 34.910152,35.514324 34.910156,35.871094 C 34.910152,36.277344 34.748694,36.598959 34.425781,36.835937 C 34.105466,37.072916 33.66406,37.191406 33.101562,37.191406 C 32.867186,37.191406 32.622394,37.167968 32.367188,37.121094 C 32.114582,37.076823 31.847656,37.009114 31.566406,36.917968 L 31.566406,36.175781 C 31.832031,36.313803 32.093749,36.417969 32.351562,36.488281 C 32.609374,36.55599 32.864582,36.589844 33.117188,36.589844 C 33.455727,36.589844 33.716143,36.532552 33.898438,36.417968 C 34.080726,36.300782 34.171872,36.136719 34.171875,35.925781 C 34.171872,35.73047 34.105466,35.58073 33.972656,35.476562 C 33.842445,35.372397 33.554685,35.272137 33.109375,35.175781 L 32.859375,35.117187 C 32.414061,35.023439 32.092447,34.88021 31.894531,34.6875 C 31.696614,34.49219 31.597656,34.225263 31.597656,33.886718 C 31.597656,33.475264 31.743489,33.157556 32.035156,32.933594 C 32.326822,32.70964 32.740884,32.59766 33.277344,32.597656 C 33.542966,32.59766 33.792966,32.617192 34.027344,32.65625 C 34.261716,32.695317 34.477861,32.75391 34.675781,32.832031 M 36.753906,31.460937 L 36.753906,32.703125 L 38.234375,32.703125 L 38.234375,33.261718 L 36.753906,33.261718 L 36.753906,35.636718 C 36.753905,35.99349 36.802082,36.222657 36.898438,36.324218 C 36.997394,36.425782 37.196613,36.476563 37.496094,36.476562 L 38.234375,36.476562 L 38.234375,37.078125 L 37.496094,37.078125 C 36.941405,37.078125 36.558592,36.97526 36.347656,36.769531 C 36.136718,36.561198 36.031249,36.183594 36.03125,35.636718 L 36.03125,33.261718 L 35.503906,33.261718 L 35.503906,32.703125 L 36.03125,32.703125 L 36.03125,31.460937 L 36.753906,31.460937 M 41.71875,33.375 C 41.638018,33.328128 41.549476,33.294274 41.453125,33.273437 C 41.359372,33.250004 41.255206,33.238285 41.140625,33.238281 C 40.734373,33.238285 40.421873,33.371097 40.203125,33.636718 C 39.986978,33.899743 39.878905,34.278648 39.878906,34.773437 L 39.878906,37.078125 L 39.15625,37.078125 L 39.15625,32.703125 L 39.878906,32.703125 L 39.878906,33.382812 C 40.029946,33.117191 40.226561,32.920577 40.46875,32.792968 C 40.710935,32.662765 41.005206,32.59766 41.351562,32.597656 C 41.401039,32.59766 41.455726,32.601567 41.515625,32.609375 C 41.575518,32.614588 41.641924,32.623702 41.714844,32.636718 L 41.71875,33.375 M 46.207031,34.710937 L 46.207031,35.0625 L 42.902344,35.0625 C 42.933593,35.557293 43.08203,35.934897 43.347656,36.195312 C 43.615884,36.453125 43.988279,36.582031 44.464844,36.582031 C 44.740882,36.582031 45.007809,36.548177 45.265625,36.480468 C 45.526038,36.412761 45.78385,36.311198 46.039062,36.175781 L 46.039062,36.855468 C 45.781246,36.964844 45.516923,37.048177 45.246094,37.105468 C 44.975257,37.16276 44.700518,37.191406 44.421875,37.191406 C 43.723956,37.191406 43.170571,36.988281 42.761719,36.582031 C 42.355468,36.175782 42.152343,35.626303 42.152344,34.933594 C 42.152343,34.217451 42.345051,33.649743 42.730469,33.230468 C 43.118488,32.808598 43.640623,32.59766 44.296875,32.597656 C 44.885413,32.59766 45.350257,32.787764 45.691406,33.167968 C 46.035152,33.545576 46.207027,34.059899 46.207031,34.710937 M 45.488281,34.5 C 45.483069,34.106774 45.372392,33.792972 45.15625,33.558594 C 44.942705,33.324222 44.658851,33.207035 44.304688,33.207031 C 43.903644,33.207035 43.582029,33.320316 43.339844,33.546875 C 43.100259,33.773441 42.962238,34.092451 42.925781,34.503906 L 45.488281,34.5 M 49.949219,31.246094 L 50.738281,31.246094 L 50.738281,33.636718 L 53.605469,33.636718 L 53.605469,31.246094 L 54.394531,31.246094 L 54.394531,37.078125 L 53.605469,37.078125 L 53.605469,34.300781 L 50.738281,34.300781 L 50.738281,37.078125 L 49.949219,37.078125 L 49.949219,31.246094 M 59.675781,34.710937 L 59.675781,35.0625 L 56.371094,35.0625 C 56.402343,35.557293 56.55078,35.934897 56.816406,36.195312 C 57.084634,36.453125 57.457029,36.582031 57.933594,36.582031 C 58.209632,36.582031 58.476559,36.548177 58.734375,36.480468 C 58.994788,36.412761 59.2526,36.311198 59.507812,36.175781 L 59.507812,36.855468 C 59.249996,36.964844 58.985673,37.048177 58.714844,37.105468 C 58.444007,37.16276 58.169268,37.191406 57.890625,37.191406 C 57.192706,37.191406 56.639321,36.988281 56.230469,36.582031 C 55.824218,36.175782 55.621093,35.626303 55.621094,34.933594 C 55.621093,34.217451 55.813801,33.649743 56.199219,33.230468 C 56.587238,32.808598 57.109373,32.59766 57.765625,32.597656 C 58.354163,32.59766 58.819007,32.787764 59.160156,33.167968 C 59.503902,33.545576 59.675777,34.059899 59.675781,34.710937 M 58.957031,34.5 C 58.951819,34.106774 58.841142,33.792972 58.625,33.558594 C 58.411455,33.324222 58.127601,33.207035 57.773438,33.207031 C 57.372394,33.207035 57.050779,33.320316 56.808594,33.546875 C 56.569009,33.773441 56.430988,34.092451 56.394531,34.503906 L 58.957031,34.5 M 63.375,33.375 C 63.294268,33.328128 63.205726,33.294274 63.109375,33.273437 C 63.015622,33.250004 62.911456,33.238285 62.796875,33.238281 C 62.390623,33.238285 62.078123,33.371097 61.859375,33.636718 C 61.643228,33.899743 61.535155,34.278648 61.535156,34.773437 L 61.535156,37.078125 L 60.8125,37.078125 L 60.8125,32.703125 L 61.535156,32.703125 L 61.535156,33.382812 C 61.686196,33.117191 61.882811,32.920577 62.125,32.792968 C 62.367185,32.662765 62.661456,32.59766 63.007812,32.597656 C 63.057289,32.59766 63.111976,32.601567 63.171875,32.609375 C 63.231768,32.614588 63.298174,32.623702 63.371094,32.636718 L 63.375,33.375 M 66.65625,33.375 C 66.575518,33.328128 66.486976,33.294274 66.390625,33.273437 C 66.296872,33.250004 66.192706,33.238285 66.078125,33.238281 C 65.671873,33.238285 65.359373,33.371097 65.140625,33.636718 C 64.924478,33.899743 64.816405,34.278648 64.816406,34.773437 L 64.816406,37.078125 L 64.09375,37.078125 L 64.09375,32.703125 L 64.816406,32.703125 L 64.816406,33.382812 C 64.967446,33.117191 65.164061,32.920577 65.40625,32.792968 C 65.648435,32.662765 65.942706,32.59766 66.289062,32.597656 C 66.338539,32.59766 66.393226,32.601567 66.453125,32.609375 C 66.513018,32.614588 66.579424,32.623702 66.652344,32.636718 L 66.65625,33.375 M 71.144531,34.710937 L 71.144531,35.0625 L 67.839844,35.0625 C 67.871093,35.557293 68.01953,35.934897 68.285156,36.195312 C 68.553384,36.453125 68.925779,36.582031 69.402344,36.582031 C 69.678382,36.582031 69.945309,36.548177 70.203125,36.480468 C 70.463538,36.412761 70.72135,36.311198 70.976562,36.175781 L 70.976562,36.855468 C 70.718746,36.964844 70.454423,37.048177 70.183594,37.105468 C 69.912757,37.16276 69.638018,37.191406 69.359375,37.191406 C 68.661456,37.191406 68.108071,36.988281 67.699219,36.582031 C 67.292968,36.175782 67.089843,35.626303 67.089844,34.933594 C 67.089843,34.217451 67.282551,33.649743 67.667969,33.230468 C 68.055988,32.808598 68.578123,32.59766 69.234375,32.597656 C 69.822913,32.59766 70.287757,32.787764 70.628906,33.167968 C 70.972652,33.545576 71.144527,34.059899 71.144531,34.710937 M 70.425781,34.5 C 70.420569,34.106774 70.309892,33.792972 70.09375,33.558594 C 69.880205,33.324222 69.596351,33.207035 69.242188,33.207031 C 68.841144,33.207035 68.519529,33.320316 68.277344,33.546875 C 68.037759,33.773441 67.899738,34.092451 67.863281,34.503906 L 70.425781,34.5 M 74.84375,33.375 C 74.763018,33.328128 74.674476,33.294274 74.578125,33.273437 C 74.484372,33.250004 74.380206,33.238285 74.265625,33.238281 C 73.859373,33.238285 73.546873,33.371097 73.328125,33.636718 C 73.111978,33.899743 73.003905,34.278648 73.003906,34.773437 L 73.003906,37.078125 L 72.28125,37.078125 L 72.28125,32.703125 L 73.003906,32.703125 L 73.003906,33.382812 C 73.154946,33.117191 73.351561,32.920577 73.59375,32.792968 C 73.835935,32.662765 74.130206,32.59766 74.476562,32.597656 C 74.526039,32.59766 74.580726,32.601567 74.640625,32.609375 C 74.700518,32.614588 74.766924,32.623702 74.839844,32.636718 L 74.84375,33.375 M 77.578125,34.878906 C 76.997394,34.878908 76.59505,34.945314 76.371094,35.078125 C 76.147134,35.210939 76.035155,35.437501 76.035156,35.757812 C 76.035155,36.013022 76.118488,36.216146 76.285156,36.367187 C 76.454425,36.515625 76.683592,36.589844 76.972656,36.589844 C 77.371091,36.589844 77.690101,36.449219 77.929688,36.167968 C 78.171872,35.884116 78.292965,35.507814 78.292969,35.039062 L 78.292969,34.878906 L 77.578125,34.878906 M 79.011719,34.582031 L 79.011719,37.078125 L 78.292969,37.078125 L 78.292969,36.414062 C 78.128903,36.679688 77.924476,36.876302 77.679688,37.003906 C 77.434893,37.128906 77.135414,37.191406 76.78125,37.191406 C 76.333332,37.191406 75.976561,37.066406 75.710938,36.816406 C 75.447916,36.563802 75.316406,36.226563 75.316406,35.804687 C 75.316406,35.312502 75.480468,34.941408 75.808594,34.691406 C 76.139322,34.441409 76.631509,34.316409 77.285156,34.316406 L 78.292969,34.316406 L 78.292969,34.246094 C 78.292965,33.915367 78.18359,33.660159 77.964844,33.480468 C 77.748695,33.298181 77.444008,33.207035 77.050781,33.207031 C 76.800779,33.207035 76.55729,33.236983 76.320312,33.296875 C 76.083332,33.356774 75.855468,33.446618 75.636719,33.566406 L 75.636719,32.902344 C 75.899739,32.800785 76.154947,32.725265 76.402344,32.675781 C 76.649738,32.623702 76.890623,32.59766 77.125,32.597656 C 77.75781,32.59766 78.230465,32.761723 78.542969,33.089844 C 78.855465,33.417972 79.011715,33.915367 79.011719,34.582031"
       id="text2257" />
    <path
       sodipodi:nodetypes="ccccccssccsssccccsccsccc"
       id="path2209"
       d="M 10.563674,4.9353953 C 8.4618959,5.0989613 6.6403294,6.4125309 5.6562456,8.274452 L 4.00221,7.2683601 L 4.6310168,11.934291 L 9.2513815,10.461606 L 7.5563366,9.4263537 C 8.1977286,8.1967125 9.4029337,7.343767 10.796059,7.2683601 C 10.863129,7.2647301 10.933195,7.2683601 11.001106,7.2683601 C 12.546083,7.2683601 13.883434,8.0632161 14.527893,9.4458796 L 16.865415,9.4458796 C 16.112407,6.7477632 13.774144,4.9353953 11.001106,4.9353953 C 10.908671,4.9353953 10.819151,4.9310654 10.727711,4.9353953 C 10.689593,4.9372007 10.656287,4.9328478 10.618354,4.9353953 C 10.598032,4.9367606 10.583942,4.9338181 10.563674,4.9353953 z M 16.879083,10.534511 L 12.750829,12.648762 L 14.459544,13.479881 C 13.791794,14.78572 12.492975,15.667035 11.001106,15.667035 C 9.4561262,15.667036 8.1187766,14.872179 7.4743179,13.489516 L 5.1367962,13.489516 C 5.8898029,16.187632 8.2280667,18 11.001106,18 C 13.377685,18 15.427977,16.553953 16.441652,14.442228 L 18,15.200442 L 16.879083,10.534511 z "
       style="fill:#ffffff;fill-opacity:1;stroke:none;stroke-width:1;stroke-linecap:round;stroke-linejoin:miter;stroke-miterlimit:4;stroke-dasharray:none;stroke-dashoffset:0;stroke-opacity:1" />
    <text
       xml:space="preserve"
       style="font-size:8px;font-style:normal;font-variant:normal;font-weight:bold;font-stretch:normal;text-align:start;line-height:125%;writing-mode:lr-tb;text-anchor:start;fill:#000000;fill-opacity:1;stroke:none;stroke-width:1px;stroke-linecap:butt;stroke-linejoin:miter;stroke-opacity:1;font-family:Bitstream Vera Sans"
       x="-0.0390625"
       y="30.078125"
       id="text2329"
       sodipodi:linespacing="125%"><tspan
         sodipodi:role="line"
         id="tspan2331"
         x="-0.0390625"
         y="30.078125">View Refresh</tspan></text>
  </g>
  <g
     inkscape:groupmode="layer"
     id="layer2"
     inkscape:label="lights">
    <path
       sodipodi:type="arc"
       style="opacity:0.75;fill:url(#radialGradient2190);fill-opacity:1;stroke:none;stroke-width:1.06165099;stroke-linecap:round;stroke-linejoin:miter;stroke-miterlimit:4;stroke-dasharray:none;stroke-dashoffset:0;stroke-opacity:1"
       id="path2182"
       sodipodi:cx="23.821341"
       sodipodi:cy="23.821341"
       sodipodi:rx="20.724566"
       sodipodi:ry="20.724566"
       d="M 44.545906 23.821341 A 20.724566 20.724566 0 1 1  3.0967751,23.821341 A 20.724566 20.724566 0 1 1  44.545906 23.821341 z"
       transform="matrix(0.482519,0,0,0.482519,-0.494253,-0.494253)" />
    <path
       sodipodi:type="arc"
       style="opacity:0.75;fill:url(#radialGradient2194);fill-opacity:1;stroke:none;stroke-width:1.06165099;stroke-linecap:round;stroke-linejoin:miter;stroke-miterlimit:4;stroke-dasharray:none;stroke-dashoffset:0;stroke-opacity:1"
       id="path2192"
       sodipodi:cx="23.821341"
       sodipodi:cy="23.821341"
       sodipodi:rx="20.724566"
       sodipodi:ry="20.724566"
       d="M 44.545906 23.821341 A 20.724566 20.724566 0 1 1  3.0967751,23.821341 A 20.724566 20.724566 0 1 1  44.545906 23.821341 z"
       transform="matrix(0.482519,0,0,0.482519,-0.494253,-0.494253)" />
    <path
       sodipodi:type="arc"
       style="opacity:0.75;fill:url(#radialGradient2210);fill-opacity:1;stroke:none;stroke-width:1.06165099;stroke-linecap:round;stroke-linejoin:miter;stroke-miterlimit:4;stroke-dasharray:none;stroke-dashoffset:0;stroke-opacity:1"
       id="path2202"
       sodipodi:cx="23.821341"
       sodipodi:cy="23.821341"
       sodipodi:rx="20.724566"
       sodipodi:ry="20.724566"
       d="M 44.545906 23.821341 A 20.724566 20.724566 0 1 1  3.0967751,23.821341 A 20.724566 20.724566 0 1 1  44.545906 23.821341 z"
       transform="matrix(0.482519,0,0,0.482519,-0.494252,-0.494253)" />
    <path
       sodipodi:type="arc"
       style="opacity:1;fill:none;fill-opacity:1;stroke:#ffffff;stroke-width:2.17756057;stroke-linecap:round;stroke-linejoin:miter;stroke-miterlimit:4;stroke-dasharray:none;stroke-dashoffset:0;stroke-opacity:0.63948502"
       id="path2233"
       sodipodi:cx="23.821341"
       sodipodi:cy="23.821341"
       sodipodi:rx="20.724566"
       sodipodi:ry="20.724566"
       d="M 44.545906 23.821341 A 20.724566 20.724566 0 1 1  3.0967751,23.821341 A 20.724566 20.724566 0 1 1  44.545906 23.821341 z"
       transform="matrix(0.458712,0,0,0.459748,7.808781e-2,2.010889e-2)" />
  </g>
</svg>
