<?xml version="1.0" encoding="UTF-8" standalone="no"?>
<!-- Created with Inkscape (http://www.inkscape.org/) -->
<svg
   xmlns:dc="http://purl.org/dc/elements/1.1/"
   xmlns:cc="http://web.resource.org/cc/"
   xmlns:rdf="http://www.w3.org/1999/02/22-rdf-syntax-ns#"
   xmlns:svg="http://www.w3.org/2000/svg"
   xmlns="http://www.w3.org/2000/svg"
   xmlns:xlink="http://www.w3.org/1999/xlink"
   xmlns:sodipodi="http://inkscape.sourceforge.net/DTD/sodipodi-0.dtd"
   xmlns:inkscape="http://www.inkscape.org/namespaces/inkscape"
   width="128.00000px"
   height="128.00000px"
   id="svg2"
   sodipodi:version="0.32"
   inkscape:version="0.42.2"
   sodipodi:docbase="/home/silvestre/Desktop/Nuovo!/scalable/mimetypes/text"
   sodipodi:docname="gnome-mime-text-x-tex.svg">
  <defs
     id="defs4">
    <linearGradient
       inkscape:collect="always"
       id="linearGradient2822">
      <stop
         style="stop-color:#313131;stop-opacity:1;"
         offset="0"
         id="stop2824" />
      <stop
         style="stop-color:#232323;stop-opacity:1.0000000"
         offset="1"
         id="stop2826" />
    </linearGradient>
    <linearGradient
       inkscape:collect="always"
       id="linearGradient2814">
      <stop
         style="stop-color:#313131;stop-opacity:1;"
         offset="0"
         id="stop2816" />
      <stop
         style="stop-color:#313131;stop-opacity:0;"
         offset="1"
         id="stop2818" />
    </linearGradient>
    <linearGradient
       inkscape:collect="always"
       id="linearGradient2806">
      <stop
         style="stop-color:#ffffff;stop-opacity:0.59215689"
         offset="0"
         id="stop2808" />
      <stop
         style="stop-color:#ffffff;stop-opacity:0;"
         offset="1"
         id="stop2810" />
    </linearGradient>
    <linearGradient
       id="linearGradient4321">
      <stop
         style="stop-color:#000000;stop-opacity:0.24242423;"
         offset="0.0000000"
         id="stop4323" />
      <stop
         style="stop-color:#000000;stop-opacity:0;"
         offset="1"
         id="stop4325" />
    </linearGradient>
    <linearGradient
       inkscape:collect="always"
       id="linearGradient2850">
      <stop
         style="stop-color:#000000;stop-opacity:0.43939391"
         offset="0"
         id="stop2852" />
      <stop
         style="stop-color:#000000;stop-opacity:0;"
         offset="1"
         id="stop2854" />
    </linearGradient>
    <linearGradient
       id="linearGradient2842">
      <stop
         style="stop-color:#f8f8f8;stop-opacity:1.0000000"
         offset="0"
         id="stop2844" />
      <stop
         style="stop-color:#e6e6e6;stop-opacity:1.0000000"
         offset="1.0000000"
         id="stop2846" />
    </linearGradient>
    <linearGradient
       inkscape:collect="always"
       xlink:href="#linearGradient2814"
       id="linearGradient2834"
       gradientUnits="userSpaceOnUse"
       x1="46.231808"
       y1="47.094341"
       x2="46.231808"
       y2="57.457672" />
    <linearGradient
       inkscape:collect="always"
       xlink:href="#linearGradient2822"
       id="linearGradient2836"
       gradientUnits="userSpaceOnUse"
       x1="45.886791"
       y1="37.778976"
       x2="45.886791"
       y2="56.934216" />
    <linearGradient
       inkscape:collect="always"
       xlink:href="#linearGradient2806"
       id="linearGradient2838"
       gradientUnits="userSpaceOnUse"
       x1="39.331535"
       y1="30.706200"
       x2="39.331535"
       y2="50.399185" />
    <radialGradient
       inkscape:collect="always"
       xlink:href="#linearGradient4321"
       id="radialGradient2846"
       gradientUnits="userSpaceOnUse"
       gradientTransform="matrix(1.000000,0.000000,0.000000,0.123506,1.484274e-16,101.2859)"
       cx="62.698071"
       cy="115.55797"
       fx="62.698071"
       fy="115.55797"
       r="61.234303" />
    <linearGradient
       inkscape:collect="always"
       xlink:href="#linearGradient2850"
       id="linearGradient2855"
       gradientUnits="userSpaceOnUse"
       gradientTransform="matrix(0.992164,0.000000,0.000000,0.992164,-1.863755,1.809591)"
       x1="93.961632"
       y1="2.5913322"
       x2="85.435616"
       y2="35.004498" />
    <linearGradient
       inkscape:collect="always"
       xlink:href="#linearGradient2842"
       id="linearGradient2858"
       gradientUnits="userSpaceOnUse"
       gradientTransform="matrix(0.931298,0.000000,0.000000,0.931298,4.831677,2.275296)"
       x1="62.942032"
       y1="35.294682"
       x2="62.942032"
       y2="123.48434" />
    <linearGradient
       y2="21.865709"
       x2="27.079712"
       y1="123.36533"
       x1="27.079712"
       gradientUnits="userSpaceOnUse"
       id="linearGradient3327"
       xlink:href="#linearGradient5507"
       inkscape:collect="always" />
    <linearGradient
       gradientUnits="userSpaceOnUse"
       y2="21.865709"
       x2="27.079712"
       y1="123.36533"
       x1="27.079712"
       id="linearGradient5513"
       xlink:href="#linearGradient5507"
       inkscape:collect="always" />
    <radialGradient
       gradientUnits="userSpaceOnUse"
       gradientTransform="matrix(1.141461,-1.812692e-9,-1.185105e-16,0.957382,-6.065302,6.576339)"
       r="48.454311"
       fy="49.519409"
       fx="42.876415"
       cy="49.519409"
       cx="42.876415"
       id="radialGradient2051"
       xlink:href="#linearGradient2488"
       inkscape:collect="always" />
    <linearGradient
       gradientTransform="matrix(0.931298,0.000000,0.000000,0.931298,4.831677,2.275296)"
       y2="123.48434"
       x2="62.942032"
       y1="35.294682"
       x1="62.942032"
       gradientUnits="userSpaceOnUse"
       id="linearGradient5060"
       xlink:href="#linearGradient2842"
       inkscape:collect="always" />
    <linearGradient
       gradientTransform="matrix(0.992164,0.000000,0.000000,0.992164,-1.863755,1.809591)"
       y2="35.004498"
       x2="85.435616"
       y1="2.5913322"
       x1="93.961632"
       gradientUnits="userSpaceOnUse"
       id="linearGradient5057"
       xlink:href="#linearGradient2850"
       inkscape:collect="always" />
    <radialGradient
       gradientUnits="userSpaceOnUse"
       gradientTransform="matrix(1.000000,0.000000,0.000000,0.123506,1.534148e-16,101.2859)"
       r="61.234303"
       fy="115.55797"
       fx="62.698071"
       cy="115.55797"
       cx="62.698071"
       id="radialGradient4327"
       xlink:href="#linearGradient4321"
       inkscape:collect="always" />
    <linearGradient
       id="linearGradient3385">
      <stop
         id="stop3387"
         offset="0"
         style="stop-color:#f8f8f8;stop-opacity:1.0000000" />
      <stop
         id="stop3389"
         offset="1.0000000"
         style="stop-color:#e6e6e6;stop-opacity:1.0000000" />
    </linearGradient>
    <linearGradient
       id="linearGradient3373">
      <stop
         id="stop3375"
         offset="0.0000000"
         style="stop-color:#000000;stop-opacity:0.24242423;" />
      <stop
         id="stop3377"
         offset="1"
         style="stop-color:#000000;stop-opacity:0;" />
    </linearGradient>
    <linearGradient
       id="linearGradient2488">
      <stop
         id="stop2490"
         offset="0.0000000"
         style="stop-color:#616161;stop-opacity:1.0000000;" />
      <stop
         id="stop2492"
         offset="1.0000000"
         style="stop-color:#4f4f4f;stop-opacity:1.0000000;" />
    </linearGradient>
    <linearGradient
       id="linearGradient5507"
       inkscape:collect="always">
      <stop
         id="stop5509"
         offset="0"
         style="stop-color:#ffffff;stop-opacity:1;" />
      <stop
         id="stop5511"
         offset="1"
         style="stop-color:#ffffff;stop-opacity:0;" />
    </linearGradient>
  </defs>
  <sodipodi:namedview
     id="base"
     pagecolor="#ffffff"
     bordercolor="#666666"
     borderopacity="1.0"
     inkscape:pageopacity="0.0"
     inkscape:pageshadow="2"
     inkscape:zoom="2.9296875"
     inkscape:cx="64.000000"
     inkscape:cy="64.000000"
     inkscape:document-units="px"
     inkscape:current-layer="layer1"
     showguides="true"
     inkscape:guide-bbox="true"
     inkscape:window-width="772"
     inkscape:window-height="543"
     inkscape:window-x="65"
     inkscape:window-y="154" />
  <metadata
     id="metadata7">
    <rdf:RDF>
      <cc:Work
         rdf:about="">
        <dc:format>image/svg+xml</dc:format>
        <dc:type
           rdf:resource="http://purl.org/dc/dcmitype/StillImage" />
      </cc:Work>
    </rdf:RDF>
  </metadata>
  <g
     inkscape:label="Layer 1"
     inkscape:groupmode="layer"
     id="layer1">
    <path
       sodipodi:type="arc"
       style="fill:url(#radialGradient2846);fill-opacity:1.0000000;stroke:none;stroke-width:3.0000000;stroke-linecap:round;stroke-linejoin:miter;stroke-miterlimit:4.0000000;stroke-dasharray:none;stroke-opacity:1.0000000"
       id="path3593"
       sodipodi:cx="62.698071"
       sodipodi:cy="115.55797"
       sodipodi:rx="61.234303"
       sodipodi:ry="7.5628023"
       d="M 123.93237 115.55797 A 61.234303 7.5628023 0 1 1  1.4637680,115.55797 A 61.234303 7.5628023 0 1 1  123.93237 115.55797 z"
       transform="matrix(0.985914,0.000000,0.000000,8.426233,-1.077207,-909.6571)" />
    <path
       style="fill:url(#linearGradient2858);fill-opacity:1.0000000;stroke:#c4c4c4;stroke-width:2.7938941;stroke-linecap:round;stroke-linejoin:miter;stroke-miterlimit:4.0000000;stroke-opacity:1.0000000"
       d="M 14.405721,8.0588818 C 37.265149,8.0588818 60.124577,8.0588818 82.984005,8.0588818 C 93.655193,10.950675 108.61492,26.471884 108.61492,32.323417 C 108.16052,59.494032 105.88851,87.573449 108.61492,113.83526 C 108.61492,114.86714 107.78420,115.69786 106.75232,115.69786 C 75.970124,115.69786 47.050518,115.69786 16.268317,115.69786 C 15.236439,115.69786 14.405721,114.86714 14.405721,113.83526 C 8.9529036,81.014938 15.723935,45.922610 12.543125,9.9214778 C 12.543125,8.8895996 13.373843,8.0588818 14.405721,8.0588818 z "
       id="rect1381"
       sodipodi:nodetypes="ccccccccc" />
    <g
       id="g3397"
       inkscape:label="Layer 1">
      <g
         transform="translate(-0.150603,0.302140)"
         id="g3323">
        <path
           style="fill:#000000;fill-opacity:0.027450981;stroke:none;stroke-width:2.7938941;stroke-linecap:round;stroke-linejoin:miter;stroke-miterlimit:4.0000000;stroke-opacity:1.0000000"
           d="M 14.405721,8.0588820 C 37.265149,8.0588820 3.1597384,8.0588820 26.019166,8.0588820 C 32.205179,58.217521 23.255897,60.495704 28.434260,115.69786 C -2.3479353,115.69786 20.829494,115.69786 16.268317,115.69786 C 15.236439,115.69786 14.405721,114.86714 14.405721,113.83526 C 8.9529036,81.014938 15.723935,45.922610 12.543125,9.9214780 C 12.543125,8.8896000 13.373843,8.0588820 14.405721,8.0588820 z "
           id="path3325"
           sodipodi:nodetypes="ccccccc" />
        <path
           style="fill:none;fill-opacity:1.0000000;fill-rule:evenodd;stroke:url(#linearGradient3327);stroke-width:1.0000000px;stroke-linecap:round;stroke-linejoin:miter;stroke-opacity:1.0000000"
           d="M 26.221024,9.6603774 C 30.648698,58.824798 24.035939,67.105121 28.636119,114.19946"
           id="path4779"
           sodipodi:nodetypes="cc" />
      </g>
    </g>
    <g
       id="g2830"
       transform="matrix(1.172716,0.000000,0.000000,1.172716,-1.685015,-7.830295)">
      <path
         sodipodi:nodetypes="ccccccccccccccccccccccccccccccccccccccccccccccccccccccccccccccccc"
         id="text1338"
         d="M 23.241240,30.855711 L 23.241240,36.220969 L 25.122564,36.220969 L 25.122564,32.667357 L 31.811717,32.667357 L 31.811717,51.968349 L 28.954891,51.968349 L 28.954891,53.570959 L 37.804083,53.570959 L 37.804083,51.968349 L 34.877579,51.968349 L 34.877579,32.667357 L 41.566731,32.667357 L 41.566731,37.823578 L 44.493235,37.823578 L 44.493235,57.333607 L 41.566731,57.333607 L 41.566731,58.936217 L 60.170937,58.936217 L 60.170937,53.919352 L 65.814910,53.919352 L 65.814910,52.247064 L 62.888405,52.247064 L 68.393021,44.164338 L 73.827957,52.247064 L 71.110489,52.247064 L 71.110489,53.919352 L 80.168716,53.919352 L 80.168716,52.247064 L 77.729963,52.247064 L 70.553059,41.516548 L 76.545425,32.737035 L 79.123536,32.737035 L 79.123536,31.134426 L 71.667918,31.134426 L 71.667918,32.737035 L 74.594423,32.737035 L 69.577558,40.122975 L 64.700051,32.737035 L 67.347840,32.737035 L 67.347840,31.134426 L 58.359292,31.134426 L 58.359292,32.737035 L 60.798045,32.737035 L 67.417519,42.701086 L 60.867724,52.247064 L 58.289613,52.247064 L 58.289613,57.054892 L 47.559097,57.054892 L 47.559097,47.508914 L 55.014715,47.508914 L 55.014715,50.365740 L 56.896039,50.365740 L 56.896039,42.840443 L 55.014715,42.840443 L 55.014715,45.697268 L 47.559097,45.697268 L 47.559097,38.032614 L 58.010898,38.032614 L 58.010898,41.237833 L 59.892222,41.237833 L 59.892222,36.151290 L 43.448055,36.151290 L 43.448055,30.855711 L 23.241240,30.855711 z "
         style="font-size:14.000000px;font-style:normal;font-variant:normal;font-weight:normal;font-stretch:normal;text-align:start;line-height:125.00000%;writing-mode:lr-tb;text-anchor:start;fill:url(#linearGradient2834);fill-opacity:1.0000000;stroke:#000000;stroke-width:3.0000000;stroke-linecap:round;stroke-linejoin:round;stroke-miterlimit:4.0000000;stroke-dasharray:none;stroke-opacity:1.0000000;font-family:Bitstream Vera Serif" />
      <path
         sodipodi:nodetypes="ccccccccccccccccccccccccccccccccccccccccccccccccccccccccccccccccc"
         id="path2078"
         d="M 23.241240,30.855711 L 23.241240,36.220969 L 25.122564,36.220969 L 25.122564,32.667357 L 31.811717,32.667357 L 31.811717,51.968349 L 28.954891,51.968349 L 28.954891,53.570959 L 37.804083,53.570959 L 37.804083,51.968349 L 34.877579,51.968349 L 34.877579,32.667357 L 41.566731,32.667357 L 41.566731,37.823578 L 44.493235,37.823578 L 44.493235,57.333607 L 41.566731,57.333607 L 41.566731,58.936217 L 60.170937,58.936217 L 60.170937,53.919352 L 65.814910,53.919352 L 65.814910,52.247064 L 62.888405,52.247064 L 68.393021,44.164338 L 73.827957,52.247064 L 71.110489,52.247064 L 71.110489,53.919352 L 80.168716,53.919352 L 80.168716,52.247064 L 77.729963,52.247064 L 70.553059,41.516548 L 76.545425,32.737035 L 79.123536,32.737035 L 79.123536,31.134426 L 71.667918,31.134426 L 71.667918,32.737035 L 74.594423,32.737035 L 69.577558,40.122975 L 64.700051,32.737035 L 67.347840,32.737035 L 67.347840,31.134426 L 58.359292,31.134426 L 58.359292,32.737035 L 60.798045,32.737035 L 67.417519,42.701086 L 60.867724,52.247064 L 58.289613,52.247064 L 58.289613,57.054892 L 47.559097,57.054892 L 47.559097,47.508914 L 55.014715,47.508914 L 55.014715,50.365740 L 56.896039,50.365740 L 56.896039,42.840443 L 55.014715,42.840443 L 55.014715,45.697268 L 47.559097,45.697268 L 47.559097,38.032614 L 58.010898,38.032614 L 58.010898,41.237833 L 59.892222,41.237833 L 59.892222,36.151290 L 43.448055,36.151290 L 43.448055,30.855711 L 23.241240,30.855711 z "
         style="font-size:14.000000px;font-style:normal;font-variant:normal;font-weight:normal;font-stretch:normal;text-align:start;line-height:125.00000%;writing-mode:lr-tb;text-anchor:start;fill:url(#linearGradient2836);fill-opacity:1.0000000;stroke:url(#linearGradient2838);stroke-width:1.0000000;stroke-linecap:round;stroke-linejoin:round;stroke-miterlimit:4.0000000;stroke-dasharray:none;stroke-opacity:1.0000000;font-family:Bitstream Vera Serif" />
    </g>
    <path
       style="fill:url(#linearGradient2855);fill-opacity:1.0000000;fill-rule:evenodd;stroke:none;stroke-width:1.0000000px;stroke-linecap:butt;stroke-linejoin:miter;stroke-opacity:1.0000000"
       d="M 82.973002,9.4009233 C 77.411401,14.490179 74.513082,26.307311 75.698831,37.628068 C 86.729127,35.140189 96.623353,34.818256 107.16198,35.930807 C 108.99618,27.083386 90.168399,11.141642 82.973002,9.4009233 z "
       id="path2840"
       sodipodi:nodetypes="cccc" />
    <path
       style="fill:#ffffff;fill-opacity:1.0000000;fill-rule:evenodd;stroke:none;stroke-width:1.0000000px;stroke-linecap:butt;stroke-linejoin:miter;stroke-opacity:1.0000000"
       d="M 82.730786,9.3441232 C 78.391328,14.309672 78.113083,23.592036 78.090440,33.442401 C 88.284757,31.322975 97.429108,31.048720 107.16902,31.996504 C 104.94938,23.015961 89.380848,10.827043 82.730786,9.3441232 z "
       id="path2112"
       sodipodi:nodetypes="cccc" />
    <rect
       style="opacity:1.0000000;color:#000000;fill:#959595;fill-opacity:1.0000000;fill-rule:evenodd;stroke:none;stroke-width:1.0000000;stroke-linecap:round;stroke-linejoin:round;marker:none;marker-start:none;marker-mid:none;marker-end:none;stroke-miterlimit:4.0000000;stroke-dasharray:none;stroke-dashoffset:0.0000000;stroke-opacity:1.0000000;visibility:visible;display:inline;overflow:visible"
       id="rect2869"
       width="48.301888"
       height="5.7218671"
       x="20.700809"
       y="70.626945"
       rx="1.9999999"
       ry="1.9999999" />
    <rect
       style="opacity:1.0000000;color:#000000;fill:#959595;fill-opacity:1.0000000;fill-rule:evenodd;stroke:none;stroke-width:1.0000000;stroke-linecap:round;stroke-linejoin:round;marker:none;marker-start:none;marker-mid:none;marker-end:none;stroke-miterlimit:4.0000000;stroke-dasharray:none;stroke-dashoffset:0.0000000;stroke-opacity:1.0000000;visibility:visible;display:inline;overflow:visible"
       id="rect2871"
       width="30.016172"
       height="5.7218671"
       x="72.107819"
       y="70.626945"
       rx="1.9999998"
       ry="1.9999999" />
    <rect
       style="opacity:1.0000000;color:#000000;fill:#959595;fill-opacity:1.0000000;fill-rule:evenodd;stroke:none;stroke-width:1.0000000;stroke-linecap:round;stroke-linejoin:round;marker:none;marker-start:none;marker-mid:none;marker-end:none;stroke-miterlimit:4.0000000;stroke-dasharray:none;stroke-dashoffset:0.0000000;stroke-opacity:1.0000000;visibility:visible;display:inline;overflow:visible"
       id="rect2873"
       width="40.021564"
       height="5.7218671"
       x="18.975740"
       y="84.427475"
       rx="1.9999998"
       ry="1.9999999" />
    <rect
       style="opacity:1.0000000;color:#000000;fill:#959595;fill-opacity:1.0000000;fill-rule:evenodd;stroke:none;stroke-width:1.0000000;stroke-linecap:round;stroke-linejoin:round;marker:none;marker-start:none;marker-mid:none;marker-end:none;stroke-miterlimit:4.0000000;stroke-dasharray:none;stroke-dashoffset:0.0000000;stroke-opacity:1.0000000;visibility:visible;display:inline;overflow:visible"
       id="rect2875"
       width="21.045822"
       height="5.7218671"
       x="62.447433"
       y="84.427475"
       rx="1.9999998"
       ry="1.9999999" />
    <rect
       style="opacity:1.0000000;color:#000000;fill:#959595;fill-opacity:1.0000000;fill-rule:evenodd;stroke:none;stroke-width:1.0000000;stroke-linecap:round;stroke-linejoin:round;marker:none;marker-start:none;marker-mid:none;marker-end:none;stroke-miterlimit:4.0000000;stroke-dasharray:none;stroke-dashoffset:0.0000000;stroke-opacity:1.0000000;visibility:visible;display:inline;overflow:visible"
       id="rect2877"
       width="48.991917"
       height="5.7218671"
       x="21.390835"
       y="98.573029"
       rx="1.9999998"
       ry="1.9999999" />
    <rect
       style="opacity:1.0000000;color:#000000;fill:#959595;fill-opacity:1.0000000;fill-rule:evenodd;stroke:none;stroke-width:1.0000000;stroke-linecap:round;stroke-linejoin:round;marker:none;marker-start:none;marker-mid:none;marker-end:none;stroke-miterlimit:4.0000000;stroke-dasharray:none;stroke-dashoffset:0.0000000;stroke-opacity:1.0000000;visibility:visible;display:inline;overflow:visible"
       id="rect2879"
       width="21.045822"
       height="5.7218671"
       x="74.867920"
       y="98.573029"
       rx="1.9999998"
       ry="1.9999999" />
  </g>
</svg>
