<?xml version="1.0" encoding="UTF-8" standalone="no"?>
<!-- Created with Inkscape (http://www.inkscape.org/) -->
<svg
   xmlns:dc="http://purl.org/dc/elements/1.1/"
   xmlns:cc="http://web.resource.org/cc/"
   xmlns:rdf="http://www.w3.org/1999/02/22-rdf-syntax-ns#"
   xmlns:svg="http://www.w3.org/2000/svg"
   xmlns="http://www.w3.org/2000/svg"
   xmlns:xlink="http://www.w3.org/1999/xlink"
   xmlns:sodipodi="http://inkscape.sourceforge.net/DTD/sodipodi-0.dtd"
   xmlns:inkscape="http://www.inkscape.org/namespaces/inkscape"
   width="128.00000px"
   height="128.00000px"
   id="svg2"
   sodipodi:version="0.32"
   inkscape:version="0.42.2"
   sodipodi:docbase="/home/silvestre/Desktop/Nuovo!/scalable/mimetypes/text"
   sodipodi:docname="gnome-mime-application-x-csh.svg">
  <defs
     id="defs4">
    <linearGradient
       inkscape:collect="always"
       id="linearGradient5507">
      <stop
         style="stop-color:#ffffff;stop-opacity:1;"
         offset="0"
         id="stop5509" />
      <stop
         style="stop-color:#ffffff;stop-opacity:0;"
         offset="1"
         id="stop5511" />
    </linearGradient>
    <linearGradient
       id="linearGradient2488">
      <stop
         style="stop-color:#616161;stop-opacity:1.0000000;"
         offset="0.0000000"
         id="stop2490" />
      <stop
         style="stop-color:#4f4f4f;stop-opacity:1.0000000;"
         offset="1.0000000"
         id="stop2492" />
    </linearGradient>
    <linearGradient
       id="linearGradient4321">
      <stop
         style="stop-color:#000000;stop-opacity:0.24242423;"
         offset="0.0000000"
         id="stop4323" />
      <stop
         style="stop-color:#000000;stop-opacity:0;"
         offset="1"
         id="stop4325" />
    </linearGradient>
    <linearGradient
       inkscape:collect="always"
       id="linearGradient2850">
      <stop
         style="stop-color:#000000;stop-opacity:0.43939391"
         offset="0"
         id="stop2852" />
      <stop
         style="stop-color:#000000;stop-opacity:0;"
         offset="1"
         id="stop2854" />
    </linearGradient>
    <linearGradient
       id="linearGradient2842">
      <stop
         style="stop-color:#f8f8f8;stop-opacity:1.0000000"
         offset="0"
         id="stop2844" />
      <stop
         style="stop-color:#e6e6e6;stop-opacity:1.0000000"
         offset="1.0000000"
         id="stop2846" />
    </linearGradient>
    <radialGradient
       inkscape:collect="always"
       xlink:href="#linearGradient4321"
       id="radialGradient4327"
       cx="62.698071"
       cy="115.55797"
       fx="62.698071"
       fy="115.55797"
       r="61.234303"
       gradientTransform="matrix(1.000000,0.000000,0.000000,0.123506,1.534148e-16,101.2859)"
       gradientUnits="userSpaceOnUse" />
    <linearGradient
       inkscape:collect="always"
       xlink:href="#linearGradient2850"
       id="linearGradient5057"
       gradientUnits="userSpaceOnUse"
       x1="93.961632"
       y1="2.5913322"
       x2="85.435616"
       y2="35.004498"
       gradientTransform="matrix(0.992164,0.000000,0.000000,0.992164,-1.863755,1.809591)" />
    <linearGradient
       inkscape:collect="always"
       xlink:href="#linearGradient2842"
       id="linearGradient5060"
       gradientUnits="userSpaceOnUse"
       x1="62.942032"
       y1="35.294682"
       x2="62.942032"
       y2="123.48434"
       gradientTransform="matrix(0.931298,0.000000,0.000000,0.931298,4.831677,2.275296)" />
    <radialGradient
       inkscape:collect="always"
       xlink:href="#linearGradient2488"
       id="radialGradient2051"
       cx="42.876415"
       cy="49.519409"
       fx="42.876415"
       fy="49.519409"
       r="48.454311"
       gradientTransform="matrix(1.141461,-1.812692e-9,-1.185105e-16,0.957382,-6.065302,6.576339)"
       gradientUnits="userSpaceOnUse" />
    <linearGradient
       inkscape:collect="always"
       xlink:href="#linearGradient5507"
       id="linearGradient5513"
       x1="27.079712"
       y1="123.36533"
       x2="27.079712"
       y2="21.865709"
       gradientUnits="userSpaceOnUse" />
    <linearGradient
       inkscape:collect="always"
       xlink:href="#linearGradient5507"
       id="linearGradient3335"
       gradientUnits="userSpaceOnUse"
       x1="27.079712"
       y1="123.36533"
       x2="27.079712"
       y2="21.865709" />
  </defs>
  <sodipodi:namedview
     id="base"
     pagecolor="#ffffff"
     bordercolor="#666666"
     borderopacity="1.0"
     inkscape:pageopacity="0.0"
     inkscape:pageshadow="2"
     inkscape:zoom="2.0495049"
     inkscape:cx="67.887265"
     inkscape:cy="63.609723"
     inkscape:document-units="px"
     inkscape:current-layer="layer1"
     showguides="true"
     inkscape:guide-bbox="true"
     inkscape:window-width="1024"
     inkscape:window-height="723"
     inkscape:window-x="0"
     inkscape:window-y="25" />
  <metadata
     id="metadata7">
    <rdf:RDF>
      <cc:Work
         rdf:about="">
        <dc:format>image/svg+xml</dc:format>
        <dc:type
           rdf:resource="http://purl.org/dc/dcmitype/StillImage" />
      </cc:Work>
    </rdf:RDF>
  </metadata>
  <g
     inkscape:label="Layer 1"
     inkscape:groupmode="layer"
     id="layer1">
    <path
       sodipodi:type="arc"
       style="fill:url(#radialGradient4327);fill-opacity:1.0000000;stroke:none;stroke-width:3.0000000;stroke-linecap:round;stroke-linejoin:miter;stroke-miterlimit:4.0000000;stroke-dasharray:none;stroke-opacity:1.0000000"
       id="path3593"
       sodipodi:cx="62.698071"
       sodipodi:cy="115.55797"
       sodipodi:rx="61.234303"
       sodipodi:ry="7.5628023"
       d="M 123.93237 115.55797 A 61.234303 7.5628023 0 1 1  1.4637680,115.55797 A 61.234303 7.5628023 0 1 1  123.93237 115.55797 z"
       transform="matrix(0.985914,0.000000,0.000000,8.426233,-1.077207,-909.6571)" />
    <path
       style="fill:url(#linearGradient5060);fill-opacity:1.0000000;stroke:#c4c4c4;stroke-width:2.7938941;stroke-linecap:round;stroke-linejoin:miter;stroke-miterlimit:4.0000000;stroke-opacity:1.0000000"
       d="M 14.405721,8.0588820 C 37.265149,8.0588820 60.124577,8.0588820 82.984005,8.0588820 C 93.655193,10.950675 108.61492,26.471884 108.61492,32.323417 C 108.16052,59.494032 105.88851,87.573449 108.61492,113.83526 C 108.61492,114.86714 107.78420,115.69786 106.75232,115.69786 C 75.970124,115.69786 47.050518,115.69786 16.268317,115.69786 C 15.236439,115.69786 14.405721,114.86714 14.405721,113.83526 C 8.9529036,81.014938 15.723935,45.922610 12.543125,9.9214780 C 12.543125,8.8896000 13.373843,8.0588820 14.405721,8.0588820 z "
       id="rect1381"
       sodipodi:nodetypes="ccccccccc" />
    <path
       style="fill:url(#linearGradient5057);fill-opacity:1.0000000;fill-rule:evenodd;stroke:none;stroke-width:1.0000000px;stroke-linecap:butt;stroke-linejoin:miter;stroke-opacity:1.0000000"
       d="M 82.973002,9.4009230 C 77.411401,14.490179 74.513082,26.307311 75.698831,37.628068 C 86.729127,35.140189 96.623353,34.818256 107.16198,35.930807 C 108.99618,27.083386 90.168399,11.141642 82.973002,9.4009230 z "
       id="path2840"
       sodipodi:nodetypes="cccc" />
    <path
       style="fill:#ffffff;fill-opacity:1.0000000;fill-rule:evenodd;stroke:none;stroke-width:1.0000000px;stroke-linecap:butt;stroke-linejoin:miter;stroke-opacity:1.0000000"
       d="M 82.730786,9.3441230 C 78.391328,14.309672 78.113083,23.592036 78.090440,33.442401 C 88.284757,31.322975 97.429108,31.048720 107.16902,31.996504 C 104.94938,23.015961 89.380848,10.827043 82.730786,9.3441230 z "
       id="path2112"
       sodipodi:nodetypes="cccc" />
    <g
       id="g1751"
       inkscape:label="Layer 1"
       transform="matrix(0.666375,0.000000,0.000000,0.666375,32.86404,48.24063)">
      <path
         style="fill:#ebebeb;fill-opacity:1.0000000;stroke:#b2b2b2;stroke-width:3.0000000;stroke-linecap:round;stroke-linejoin:miter;stroke-miterlimit:4.0000000;stroke-opacity:1.0000000"
         d="M 24.241206,21.045822 L 104.44882,21.045822 C 114.62912,21.045822 122.82480,29.241508 122.82480,39.421799 L 122.82480,90.993294 C 122.82480,101.17358 114.62912,109.36927 104.44882,109.36927 L 24.241206,109.36927 C 14.060915,109.36927 5.8652291,101.17358 5.8652291,90.993294 L 5.8652291,39.421799 C 5.8652291,29.241508 14.060915,21.045822 24.241206,21.045822 z "
         id="rect1306" />
      <path
         style="fill:url(#radialGradient2051);fill-opacity:1.0000000;stroke:#303030;stroke-width:2.3489192;stroke-linecap:round;stroke-linejoin:miter;stroke-miterlimit:4.0000000;stroke-opacity:1.0000000"
         d="M 26.121688,31.721081 L 102.56834,31.721081 C 107.58565,31.721081 111.62487,35.760293 111.62487,40.777610 L 111.62487,89.637475 C 111.62487,94.654792 107.58565,98.694004 102.56834,98.694004 L 26.121688,98.694004 C 21.104371,98.694004 17.065159,94.654792 17.065159,89.637475 L 17.065159,40.777610 C 17.065159,35.760293 21.104371,31.721081 26.121688,31.721081 z "
         id="rect2035" />
      <path
         sodipodi:nodetypes="ccsssscccssssccccsssccsssc"
         id="text2053"
         d="M 40.339218,51.371298 L 27.884424,44.468641 C 27.259181,44.118525 26.840270,43.805905 26.627690,43.530780 C 26.427611,43.255694 26.327573,42.905559 26.327575,42.480376 C 26.327573,41.942689 26.521397,41.480012 26.909048,41.092342 C 27.296695,40.704714 27.753120,40.510890 28.278325,40.510868 C 28.603447,40.510890 29.103639,40.692209 29.778903,41.054827 L 48.329794,51.371298 L 29.778903,61.687770 C 29.103639,62.062914 28.603447,62.250486 28.278325,62.250486 C 27.753120,62.250486 27.296695,62.056662 26.909048,61.669012 C 26.521397,61.281364 26.327573,60.812434 26.327575,60.262221 C 26.327573,59.837060 26.427611,59.486925 26.627690,59.211817 C 26.840270,58.936714 27.259181,58.624094 27.884424,58.273956 L 40.339218,51.371298 M 65.199622,62.395022 L 47.616432,62.395022 C 46.691076,62.395010 46.034574,62.219943 45.646924,61.869819 C 45.246771,61.519674 45.046695,61.056996 45.046693,60.481785 C 45.046695,59.906555 45.246771,59.437625 45.646924,59.074994 C 46.034574,58.724851 46.691076,58.549784 47.616432,58.549791 L 65.199622,58.549791 C 66.112451,58.549784 66.762700,58.724851 67.150373,59.074994 C 67.550503,59.437625 67.750580,59.906555 67.750604,60.481785 C 67.750580,61.044492 67.556755,61.500917 67.169130,61.851062 C 66.781458,62.213690 66.124955,62.395010 65.199622,62.395022"
         style="font-size:38.414787px;font-style:normal;font-variant:normal;font-weight:bold;font-stretch:normal;text-align:start;line-height:125.00000%;writing-mode:lr-tb;text-anchor:start;fill:#ffffff;fill-opacity:1.0000000;stroke:#ffffff;stroke-width:2.0000000;stroke-linecap:round;stroke-linejoin:round;stroke-miterlimit:4.0000000;stroke-dasharray:none;stroke-opacity:1.0000000;font-family:Courier New" />
    </g>
    <g
       id="g3331"
       transform="matrix(1.000264,0.000000,0.000000,1.000000,-0.153811,0.302140)">
      <path
         sodipodi:nodetypes="ccccccc"
         id="path3325"
         d="M 14.405721,8.0588820 C 37.265149,8.0588820 3.1597384,8.0588820 26.019166,8.0588820 C 32.205179,58.217521 23.255897,60.495704 28.434260,115.69786 C -2.3479353,115.69786 20.829494,115.69786 16.268317,115.69786 C 15.236439,115.69786 14.405721,114.86714 14.405721,113.83526 C 8.9529036,81.014938 15.723935,45.922610 12.543125,9.9214780 C 12.543125,8.8896000 13.373843,8.0588820 14.405721,8.0588820 z "
         style="fill:#000000;fill-opacity:0.027450981;stroke:none;stroke-width:2.7938941;stroke-linecap:round;stroke-linejoin:miter;stroke-miterlimit:4.0000000;stroke-opacity:1.0000000" />
      <path
         sodipodi:nodetypes="cc"
         id="path4779"
         d="M 26.221024,9.6603774 C 30.648698,58.824798 24.035939,67.105121 28.636119,114.19946"
         style="fill:none;fill-opacity:1.0000000;fill-rule:evenodd;stroke:url(#linearGradient3335);stroke-width:1.0000000px;stroke-linecap:round;stroke-linejoin:miter;stroke-opacity:1.0000000" />
    </g>
  </g>
</svg>
