<?xml version="1.0" encoding="UTF-8" standalone="no"?>
<!-- Created with Inkscape (http://www.inkscape.org/) -->
<svg
   xmlns:dc="http://purl.org/dc/elements/1.1/"
   xmlns:cc="http://web.resource.org/cc/"
   xmlns:rdf="http://www.w3.org/1999/02/22-rdf-syntax-ns#"
   xmlns:svg="http://www.w3.org/2000/svg"
   xmlns="http://www.w3.org/2000/svg"
   xmlns:xlink="http://www.w3.org/1999/xlink"
   xmlns:sodipodi="http://inkscape.sourceforge.net/DTD/sodipodi-0.dtd"
   xmlns:inkscape="http://www.inkscape.org/namespaces/inkscape"
   width="128.00000px"
   height="128.00000px"
   id="svg2"
   sodipodi:version="0.32"
   inkscape:version="0.42.2"
   sodipodi:docbase="/home/silvestre/Desktop/Nuovo!/scalable/mimetypes/text"
   sodipodi:docname="gnome-mime-application-x-php.svg">
  <defs
     id="defs4">
    <linearGradient
       id="linearGradient3199">
      <stop
         style="stop-color:#71b6d5;stop-opacity:1.0000000;"
         offset="0.0000000"
         id="stop3201" />
      <stop
         style="stop-color:#429dc7;stop-opacity:1.0000000;"
         offset="1.0000000"
         id="stop3203" />
    </linearGradient>
    <linearGradient
       inkscape:collect="always"
       id="linearGradient3181">
      <stop
         style="stop-color:#ffffff;stop-opacity:0.57575756"
         offset="0"
         id="stop3183" />
      <stop
         style="stop-color:#ffffff;stop-opacity:0;"
         offset="1"
         id="stop3185" />
    </linearGradient>
    <linearGradient
       id="linearGradient4321">
      <stop
         style="stop-color:#000000;stop-opacity:0.24242423;"
         offset="0.0000000"
         id="stop4323" />
      <stop
         style="stop-color:#000000;stop-opacity:0;"
         offset="1"
         id="stop4325" />
    </linearGradient>
    <linearGradient
       inkscape:collect="always"
       id="linearGradient2850">
      <stop
         style="stop-color:#000000;stop-opacity:0.43939391"
         offset="0"
         id="stop2852" />
      <stop
         style="stop-color:#000000;stop-opacity:0;"
         offset="1"
         id="stop2854" />
    </linearGradient>
    <linearGradient
       id="linearGradient2842">
      <stop
         style="stop-color:#f8f8f8;stop-opacity:1.0000000"
         offset="0"
         id="stop2844" />
      <stop
         style="stop-color:#e6e6e6;stop-opacity:1.0000000"
         offset="1.0000000"
         id="stop2846" />
    </linearGradient>
    <radialGradient
       inkscape:collect="always"
       xlink:href="#linearGradient4321"
       id="radialGradient4327"
       cx="62.698071"
       cy="115.55797"
       fx="62.698071"
       fy="115.55797"
       r="61.234303"
       gradientTransform="matrix(1.000000,0.000000,0.000000,0.123506,1.434400e-16,101.2859)"
       gradientUnits="userSpaceOnUse" />
    <linearGradient
       inkscape:collect="always"
       xlink:href="#linearGradient2850"
       id="linearGradient5057"
       gradientUnits="userSpaceOnUse"
       x1="93.961632"
       y1="2.5913322"
       x2="85.435616"
       y2="35.004498"
       gradientTransform="matrix(0.992164,0.000000,0.000000,0.992164,-1.863755,1.809591)" />
    <linearGradient
       inkscape:collect="always"
       xlink:href="#linearGradient2842"
       id="linearGradient5060"
       gradientUnits="userSpaceOnUse"
       x1="62.942032"
       y1="35.294682"
       x2="62.942032"
       y2="123.48434"
       gradientTransform="matrix(0.931298,0.000000,0.000000,0.931298,4.831677,2.275296)" />
    <linearGradient
       y2="116.61456"
       x2="233.25127"
       y1="85.716805"
       x1="233.25127"
       gradientUnits="userSpaceOnUse"
       id="linearGradient5066"
       xlink:href="#linearGradient3181"
       inkscape:collect="always" />
    <radialGradient
       r="39.545895"
       fy="125.07246"
       fx="161.99036"
       cy="125.07246"
       cx="161.99036"
       gradientUnits="userSpaceOnUse"
       id="radialGradient5064"
       xlink:href="#linearGradient3199"
       inkscape:collect="always" />
    <radialGradient
       r="34.673855"
       fy="146.63072"
       fx="237.54178"
       cy="146.63072"
       cx="237.54178"
       gradientTransform="matrix(1.000000,0.000000,0.000000,0.139303,5.107025e-14,126.2046)"
       gradientUnits="userSpaceOnUse"
       id="radialGradient5062"
       xlink:href="#linearGradient5042"
       inkscape:collect="always" />
    <linearGradient
       id="linearGradient5042">
      <stop
         id="stop5044"
         offset="0.0000000"
         style="stop-color:#000000;stop-opacity:0.20202021;" />
      <stop
         id="stop5046"
         offset="1"
         style="stop-color:#000000;stop-opacity:0;" />
    </linearGradient>
    <linearGradient
       id="linearGradient2971">
      <stop
         id="stop2973"
         offset="0"
         style="stop-color:#998eb2;stop-opacity:1;" />
      <stop
         id="stop2975"
         offset="1.0000000"
         style="stop-color:#b5adc7;stop-opacity:1.0000000;" />
    </linearGradient>
    <linearGradient
       inkscape:collect="always"
       xlink:href="#linearGradient2971"
       id="linearGradient2441"
       gradientUnits="userSpaceOnUse"
       gradientTransform="translate(133.6923,69.28503)"
       x1="-36.830078"
       y1="45.491905"
       x2="-36.830078"
       y2="31.661449" />
    <linearGradient
       y2="21.865709"
       x2="27.079712"
       y1="123.36533"
       x1="27.079712"
       gradientUnits="userSpaceOnUse"
       id="linearGradient3327"
       xlink:href="#linearGradient5507"
       inkscape:collect="always" />
    <linearGradient
       gradientUnits="userSpaceOnUse"
       y2="21.865709"
       x2="27.079712"
       y1="123.36533"
       x1="27.079712"
       id="linearGradient5513"
       xlink:href="#linearGradient5507"
       inkscape:collect="always" />
    <radialGradient
       gradientUnits="userSpaceOnUse"
       gradientTransform="matrix(1.141461,-1.812692e-9,-1.185105e-16,0.957382,-6.065302,6.576339)"
       r="48.454311"
       fy="49.519409"
       fx="42.876415"
       cy="49.519409"
       cx="42.876415"
       id="radialGradient2051"
       xlink:href="#linearGradient2488"
       inkscape:collect="always" />
    <linearGradient
       gradientTransform="matrix(0.931298,0.000000,0.000000,0.931298,4.831677,2.275296)"
       y2="123.48434"
       x2="62.942032"
       y1="35.294682"
       x1="62.942032"
       gradientUnits="userSpaceOnUse"
       id="linearGradient3401"
       xlink:href="#linearGradient2842"
       inkscape:collect="always" />
    <linearGradient
       gradientTransform="matrix(0.992164,0.000000,0.000000,0.992164,-1.863755,1.809591)"
       y2="35.004498"
       x2="85.435616"
       y1="2.5913322"
       x1="93.961632"
       gradientUnits="userSpaceOnUse"
       id="linearGradient3399"
       xlink:href="#linearGradient2850"
       inkscape:collect="always" />
    <radialGradient
       gradientUnits="userSpaceOnUse"
       gradientTransform="matrix(1.000000,0.000000,0.000000,0.123506,1.534148e-16,101.2859)"
       r="61.234303"
       fy="115.55797"
       fx="62.698071"
       cy="115.55797"
       cx="62.698071"
       id="radialGradient3397"
       xlink:href="#linearGradient4321"
       inkscape:collect="always" />
    <linearGradient
       id="linearGradient3391">
      <stop
         id="stop3393"
         offset="0"
         style="stop-color:#f8f8f8;stop-opacity:1.0000000" />
      <stop
         id="stop3395"
         offset="1.0000000"
         style="stop-color:#e6e6e6;stop-opacity:1.0000000" />
    </linearGradient>
    <linearGradient
       id="linearGradient3379">
      <stop
         id="stop3381"
         offset="0.0000000"
         style="stop-color:#000000;stop-opacity:0.24242423;" />
      <stop
         id="stop3383"
         offset="1"
         style="stop-color:#000000;stop-opacity:0;" />
    </linearGradient>
    <linearGradient
       id="linearGradient2488">
      <stop
         id="stop2490"
         offset="0.0000000"
         style="stop-color:#616161;stop-opacity:1.0000000;" />
      <stop
         id="stop2492"
         offset="1.0000000"
         style="stop-color:#4f4f4f;stop-opacity:1.0000000;" />
    </linearGradient>
    <linearGradient
       id="linearGradient5507"
       inkscape:collect="always">
      <stop
         id="stop5509"
         offset="0"
         style="stop-color:#ffffff;stop-opacity:1;" />
      <stop
         id="stop5511"
         offset="1"
         style="stop-color:#ffffff;stop-opacity:0;" />
    </linearGradient>
  </defs>
  <sodipodi:namedview
     id="base"
     pagecolor="#ffffff"
     bordercolor="#666666"
     borderopacity="1.0"
     inkscape:pageopacity="0.0"
     inkscape:pageshadow="2"
     inkscape:zoom="2.8984375"
     inkscape:cx="64.000000"
     inkscape:cy="64.000000"
     inkscape:document-units="px"
     inkscape:current-layer="layer1"
     showguides="true"
     inkscape:guide-bbox="true"
     inkscape:window-width="772"
     inkscape:window-height="543"
     inkscape:window-x="11"
     inkscape:window-y="78" />
  <metadata
     id="metadata7">
    <rdf:RDF>
      <cc:Work
         rdf:about="">
        <dc:format>image/svg+xml</dc:format>
        <dc:type
           rdf:resource="http://purl.org/dc/dcmitype/StillImage" />
      </cc:Work>
    </rdf:RDF>
  </metadata>
  <g
     inkscape:label="Layer 1"
     inkscape:groupmode="layer"
     id="layer1">
    <path
       sodipodi:type="arc"
       style="fill:url(#radialGradient4327);fill-opacity:1.0000000;stroke:none;stroke-width:3.0000000;stroke-linecap:round;stroke-linejoin:miter;stroke-miterlimit:4.0000000;stroke-dasharray:none;stroke-opacity:1.0000000"
       id="path3593"
       sodipodi:cx="62.698071"
       sodipodi:cy="115.55797"
       sodipodi:rx="61.234303"
       sodipodi:ry="7.5628023"
       d="M 123.93237 115.55797 A 61.234303 7.5628023 0 1 1  1.4637680,115.55797 A 61.234303 7.5628023 0 1 1  123.93237 115.55797 z"
       transform="matrix(0.985914,0.000000,0.000000,8.426233,-1.077207,-909.6571)" />
    <path
       style="fill:url(#linearGradient5060);fill-opacity:1.0000000;stroke:#c4c4c4;stroke-width:2.7938941;stroke-linecap:round;stroke-linejoin:miter;stroke-miterlimit:4.0000000;stroke-opacity:1.0000000"
       d="M 14.405721,8.0588818 C 37.265149,8.0588818 60.124577,8.0588818 82.984005,8.0588818 C 93.655193,10.950675 108.61492,26.471884 108.61492,32.323417 C 108.16052,59.494032 105.88851,87.573449 108.61492,113.83526 C 108.61492,114.86714 107.78420,115.69786 106.75232,115.69786 C 75.970124,115.69786 47.050518,115.69786 16.268317,115.69786 C 15.236439,115.69786 14.405721,114.86714 14.405721,113.83526 C 8.9529036,81.014938 15.723935,45.922610 12.543125,9.9214778 C 12.543125,8.8895996 13.373843,8.0588818 14.405721,8.0588818 z "
       id="rect1381"
       sodipodi:nodetypes="ccccccccc" />
    <path
       style="fill:url(#linearGradient5057);fill-opacity:1.0000000;fill-rule:evenodd;stroke:none;stroke-width:1.0000000px;stroke-linecap:butt;stroke-linejoin:miter;stroke-opacity:1.0000000"
       d="M 82.973002,9.4009233 C 77.411401,14.490179 74.513082,26.307311 75.698831,37.628068 C 86.729127,35.140189 96.623353,34.818256 107.16198,35.930807 C 108.99618,27.083386 90.168399,11.141642 82.973002,9.4009233 z "
       id="path2840"
       sodipodi:nodetypes="cccc" />
    <path
       style="fill:#ffffff;fill-opacity:1.0000000;fill-rule:evenodd;stroke:none;stroke-width:1.0000000px;stroke-linecap:butt;stroke-linejoin:miter;stroke-opacity:1.0000000"
       d="M 82.730786,9.3441232 C 78.391328,14.309672 78.113083,23.592036 78.090440,33.442401 C 88.284757,31.322975 97.429108,31.048720 107.16902,31.996504 C 104.94938,23.015961 89.380848,10.827043 82.730786,9.3441232 z "
       id="path2112"
       sodipodi:nodetypes="cccc" />
    <g
       id="g3406"
       inkscape:label="Layer 1">
      <g
         transform="translate(-0.150603,0.302140)"
         id="g3323">
        <path
           style="fill:#000000;fill-opacity:0.027450981;stroke:none;stroke-width:2.7938941;stroke-linecap:round;stroke-linejoin:miter;stroke-miterlimit:4.0000000;stroke-opacity:1.0000000"
           d="M 14.405721,8.0588820 C 37.265149,8.0588820 3.1597384,8.0588820 26.019166,8.0588820 C 32.205179,58.217521 23.255897,60.495704 28.434260,115.69786 C -2.3479353,115.69786 20.829494,115.69786 16.268317,115.69786 C 15.236439,115.69786 14.405721,114.86714 14.405721,113.83526 C 8.9529036,81.014938 15.723935,45.922610 12.543125,9.9214780 C 12.543125,8.8896000 13.373843,8.0588820 14.405721,8.0588820 z "
           id="path3325"
           sodipodi:nodetypes="ccccccc" />
        <path
           style="fill:none;fill-opacity:1.0000000;fill-rule:evenodd;stroke:url(#linearGradient3327);stroke-width:1.0000000px;stroke-linecap:round;stroke-linejoin:miter;stroke-opacity:1.0000000"
           d="M 26.221024,9.6603774 C 30.648698,58.824798 24.035939,67.105121 28.636119,114.19946"
           id="path4779"
           sodipodi:nodetypes="cc" />
      </g>
    </g>
    <g
       id="g1821"
       inkscape:label="Layer 1"
       transform="matrix(0.688180,0.000000,0.000000,0.688180,13.40771,23.42022)">
      <g
         transform="matrix(1.805667,0.000000,0.000000,1.805667,-365.3560,-150.5477)"
         id="g5055">
        <path
           sodipodi:type="arc"
           style="fill:url(#radialGradient5062);fill-opacity:1.0000000;stroke:none;stroke-width:2.0000000;stroke-linecap:round;stroke-linejoin:round;stroke-miterlimit:4.0000000;stroke-dasharray:none;stroke-opacity:1.0000000"
           id="path5040"
           sodipodi:cx="237.54178"
           sodipodi:cy="146.63072"
           sodipodi:rx="34.673855"
           sodipodi:ry="4.8301888"
           d="M 272.21563 146.63072 A 34.673855 4.8301888 0 1 1  202.86792,146.63072 A 34.673855 4.8301888 0 1 1  272.21563 146.63072 z"
           transform="translate(0.345013,0.690027)" />
        <g
           id="g5050">
          <path
             transform="matrix(0.748436,0.000000,0.000000,0.700452,116.3553,32.91718)"
             d="M 200.53625 125.07246 A 38.545895 38.545895 0 1 1  123.44446,125.07246 A 38.545895 38.545895 0 1 1  200.53625 125.07246 z"
             sodipodi:ry="38.545895"
             sodipodi:rx="38.545895"
             sodipodi:cy="125.07246"
             sodipodi:cx="161.99036"
             id="path1390"
             style="fill:url(#radialGradient5064);fill-opacity:1.0;stroke:#468ba7;stroke-width:2.0000000;stroke-linecap:round;stroke-linejoin:round;stroke-miterlimit:4.0000000;stroke-dasharray:none;stroke-opacity:1.0000000"
             sodipodi:type="arc" />
          <path
             sodipodi:nodetypes="cssssssccccccccsssccccccscccscccccccccsscccssssscccssssssccccccsssccccccccccccc"
             id="path1341"
             d="M 238.52265,94.291412 C 236.24922,94.291409 233.99068,94.407291 232.58515,94.671617 C 226.67801,95.782512 221.87756,98.215173 217.36640,102.39269 C 216.33707,103.34589 218.39871,103.44860 219.10393,103.32621 C 219.55922,103.24720 219.40246,103.61372 219.80390,103.32858 C 220.82769,102.60137 221.67765,102.78823 223.30390,104.14748 C 224.49698,105.14467 224.63131,105.37085 224.99140,106.72117 C 225.32916,107.98780 225.35425,108.49557 225.14765,110.25999 L 224.89765,112.30725 L 226.14765,114.47149 C 227.36457,116.58917 227.40211,116.62818 227.99140,116.43100 L 228.58515,116.22628 L 227.92890,114.96868 L 227.24140,113.68183 L 228.74140,114.96868 C 230.51495,116.48963 231.13674,116.80886 233.86640,117.45463 C 235.88528,117.93225 235.95978,117.94976 236.67890,118.94620 C 237.08321,119.50641 237.39765,120.04782 237.39765,120.11606 C 237.39766,120.18430 236.53588,121.20446 235.46015,122.39729 L 233.49140,124.56153 L 234.49140,125.43892 C 235.04123,125.91786 236.06755,126.79088 236.77265,127.36919 L 238.05390,128.42206 L 238.52265,131.78541 C 238.78225,133.63726 239.10285,135.56240 239.24140,136.08464 C 239.50640,137.08340 240.92738,140.46193 242.11640,142.92832 L 242.83515,144.39064 L 243.30390,143.95194 C 243.66141,143.61736 243.85657,142.98247 244.08515,141.43675 C 244.25160,140.31128 244.60056,138.63244 244.86640,137.69320 L 245.33515,135.99690 L 249.24140,132.31184 L 253.11640,128.62679 L 253.27265,125.87762 L 253.42890,123.09920 L 251.83515,122.01708 L 250.24140,120.93496 L 244.99140,120.37928 C 239.98628,119.84585 239.71891,119.78659 238.80390,119.18017 C 237.88696,118.57244 237.86639,118.51188 237.86640,117.45463 C 237.86641,116.49925 237.74893,116.21517 237.05390,115.43662 L 236.24140,114.52998 L 237.27265,113.59409 C 238.23540,112.69310 238.30504,112.66873 238.89765,112.92142 C 239.45297,113.15822 239.56073,113.13535 239.89765,112.74595 C 240.21264,112.38190 240.53509,112.30725 241.77265,112.30725 C 242.76409,112.30725 243.30363,112.39530 243.36640,112.57047 C 243.41830,112.71523 243.57552,113.21890 243.71015,113.71108 C 243.93807,114.54438 243.99498,114.61772 244.71015,114.61772 L 245.49140,114.61772 L 245.14765,113.62334 C 244.96931,113.07324 244.83647,112.54705 244.83515,112.45348 C 244.83381,112.35991 245.78459,111.85274 246.96015,111.34211 C 248.13572,110.83149 249.11640,110.35669 249.11640,110.28924 C 249.11641,110.22180 248.95333,109.91432 248.77265,109.58733 C 248.37441,108.86655 248.50447,108.70993 249.52265,108.70993 C 250.29546,108.70993 250.30208,108.71873 249.89765,108.30048 C 249.49737,107.88652 249.49006,107.85944 250.11640,107.24761 L 250.77265,106.60418 L 250.33515,105.81453 C 250.09731,105.38010 249.83620,104.69388 249.77265,104.26447 L 249.67890,103.47481 L 248.08515,104.41070 C 247.21897,104.93333 246.40004,105.61912 246.24140,105.90227 C 245.94875,106.42465 245.55976,106.51123 244.64765,106.28247 C 244.25803,106.18475 244.14766,106.00534 244.14765,105.49282 C 244.14766,104.95411 244.42416,104.55173 245.58515,103.47481 L 247.02265,102.15872 L 246.52265,100.95961 L 246.05390,99.760507 L 243.67890,99.614274 L 241.33515,99.468040 L 240.05390,100.66715 L 238.77265,101.83701 L 237.21015,101.57379 L 235.64765,101.31057 L 237.11640,98.415167 L 238.58515,95.519765 C 238.58515,95.519765 239.09259,94.816115 238.52265,94.291412 z "
             style="fill:#388b38;fill-opacity:1.0000000" />
          <path
             transform="matrix(0.941634,0.000000,0.000000,1.000000,17.04192,-1.035040)"
             d="M 256.51752 107.81671 A 22.167116 11.730458 0 1 1  212.18329,107.81671 A 22.167116 11.730458 0 1 1  256.51752 107.81671 z"
             sodipodi:ry="11.730458"
             sodipodi:rx="22.167116"
             sodipodi:cy="107.81671"
             sodipodi:cx="234.35040"
             id="path4304"
             style="fill:url(#linearGradient5066);fill-opacity:1.0;stroke:none;stroke-width:2.0000000;stroke-linecap:round;stroke-linejoin:round;stroke-miterlimit:4.0000000;stroke-dasharray:none;stroke-opacity:1.0000000"
             sodipodi:type="arc" />
        </g>
      </g>
    </g>
    <g
       id="g3715"
       transform="translate(4.391414,-0.839046)">
      <path
         id="rect1511"
         d="M 66.919381,98.724636 L 115.07881,98.724636 C 116.74081,98.724636 118.07881,100.06264 118.07881,101.72464 L 118.07881,121.58454 C 118.07881,123.24654 116.74081,124.58454 115.07881,124.58454 L 66.919381,124.58454 C 65.257381,124.58454 63.919381,123.24654 63.919381,121.58454 L 63.919381,101.72464 C 63.919381,100.06264 65.257381,98.724636 66.919381,98.724636 z "
         style="font-size:16.000000px;font-style:normal;font-variant:normal;font-weight:bold;font-stretch:normal;text-align:center;line-height:125.00000%;writing-mode:lr-tb;text-anchor:middle;fill:url(#linearGradient2441);fill-opacity:1.0000000;stroke:#8777a8;stroke-width:2.4269130;stroke-linecap:round;stroke-linejoin:round;stroke-miterlimit:4.0000000;stroke-opacity:1.0000000;font-family:Sans" />
      <text
         sodipodi:linespacing="125.00000%"
         id="text2983"
         y="117.78252"
         x="91.502998"
         style="font-size:20.000000px;font-style:normal;font-variant:normal;font-weight:bold;font-stretch:normal;text-align:center;line-height:125.00000%;writing-mode:lr-tb;text-anchor:middle;fill:#ffffff;fill-opacity:1.0000000;stroke:none;stroke-width:1.0000000px;stroke-linecap:butt;stroke-linejoin:miter;stroke-opacity:1.0000000;font-family:Sans"
         xml:space="preserve"><tspan
           y="117.78252"
           x="91.502998"
           id="tspan2987"
           sodipodi:role="line">php</tspan></text>
    </g>
  </g>
</svg>
