<?xml version="1.0" encoding="UTF-8" standalone="no"?>
<!-- Created with Inkscape (http://www.inkscape.org/) -->
<svg
   xmlns:dc="http://purl.org/dc/elements/1.1/"
   xmlns:cc="http://web.resource.org/cc/"
   xmlns:rdf="http://www.w3.org/1999/02/22-rdf-syntax-ns#"
   xmlns:svg="http://www.w3.org/2000/svg"
   xmlns="http://www.w3.org/2000/svg"
   xmlns:xlink="http://www.w3.org/1999/xlink"
   xmlns:sodipodi="http://inkscape.sourceforge.net/DTD/sodipodi-0.dtd"
   xmlns:inkscape="http://www.inkscape.org/namespaces/inkscape"
   width="128.00000px"
   height="128.00000px"
   id="svg2"
   sodipodi:version="0.32"
   inkscape:version="0.42.2"
   sodipodi:docbase="/home/silvestre/Desktop/Nuovo!/scalable/mimetypes/text"
   sodipodi:docname="gnome-mime-text-x-log.svg">
  <defs
     id="defs4">
    <linearGradient
       inkscape:collect="always"
       id="linearGradient2062">
      <stop
         style="stop-color:#aa7e49;stop-opacity:1.0000000"
         offset="0"
         id="stop2064" />
      <stop
         style="stop-color:#6a461a;stop-opacity:1.0000000"
         offset="1"
         id="stop2066" />
    </linearGradient>
    <linearGradient
       id="linearGradient4321">
      <stop
         style="stop-color:#000000;stop-opacity:0.24242423;"
         offset="0.0000000"
         id="stop4323" />
      <stop
         style="stop-color:#000000;stop-opacity:0;"
         offset="1"
         id="stop4325" />
    </linearGradient>
    <linearGradient
       inkscape:collect="always"
       id="linearGradient2850">
      <stop
         style="stop-color:#000000;stop-opacity:0.43939391"
         offset="0"
         id="stop2852" />
      <stop
         style="stop-color:#000000;stop-opacity:0;"
         offset="1"
         id="stop2854" />
    </linearGradient>
    <linearGradient
       id="linearGradient2842">
      <stop
         style="stop-color:#f8f8f8;stop-opacity:1.0000000"
         offset="0"
         id="stop2844" />
      <stop
         style="stop-color:#e6e6e6;stop-opacity:1.0000000"
         offset="1.0000000"
         id="stop2846" />
    </linearGradient>
    <radialGradient
       inkscape:collect="always"
       xlink:href="#linearGradient4321"
       id="radialGradient4327"
       cx="62.698071"
       cy="115.55797"
       fx="62.698071"
       fy="115.55797"
       r="61.234303"
       gradientTransform="matrix(1.000000,0.000000,0.000000,0.123506,1.434400e-16,101.2859)"
       gradientUnits="userSpaceOnUse" />
    <linearGradient
       inkscape:collect="always"
       xlink:href="#linearGradient2850"
       id="linearGradient5057"
       gradientUnits="userSpaceOnUse"
       x1="93.961632"
       y1="2.5913322"
       x2="85.435616"
       y2="35.004498"
       gradientTransform="matrix(0.992164,0.000000,0.000000,0.992164,-1.863755,1.809591)" />
    <linearGradient
       inkscape:collect="always"
       xlink:href="#linearGradient2842"
       id="linearGradient5060"
       gradientUnits="userSpaceOnUse"
       x1="62.942032"
       y1="35.294682"
       x2="62.942032"
       y2="123.48434"
       gradientTransform="matrix(0.931298,0.000000,0.000000,0.931298,4.831677,2.275296)" />
    <linearGradient
       inkscape:collect="always"
       id="linearGradient2848">
      <stop
         style="stop-color:#000000;stop-opacity:0.29200000"
         offset="0"
         id="stop2850" />
      <stop
         style="stop-color:#000000;stop-opacity:0;"
         offset="1"
         id="stop4196" />
    </linearGradient>
    <linearGradient
       id="linearGradient3873"
       inkscape:collect="always">
      <stop
         id="stop3875"
         offset="0"
         style="stop-color:#ffffff;stop-opacity:1;" />
      <stop
         id="stop3877"
         offset="1"
         style="stop-color:#ffffff;stop-opacity:0.0000000" />
    </linearGradient>
    <radialGradient
       inkscape:collect="always"
       xlink:href="#linearGradient2848"
       id="radialGradient4234"
       gradientUnits="userSpaceOnUse"
       gradientTransform="matrix(1.000000,2.571324e-16,-6.841151e-18,0.188073,-1.870450e-14,70.50469)"
       cx="60.104076"
       cy="86.836281"
       fx="60.104076"
       fy="86.836281"
       r="55.053314" />
    <linearGradient
       inkscape:collect="always"
       xlink:href="#linearGradient3873"
       id="linearGradient4236"
       gradientUnits="userSpaceOnUse"
       gradientTransform="matrix(-1.000000,-9.364804e-18,-6.891465e-17,1.000000,119.1582,-17.03100)"
       x1="39.285717"
       y1="9.6071463"
       x2="64.642853"
       y2="91.750000" />
    <linearGradient
       inkscape:collect="always"
       xlink:href="#linearGradient2062"
       id="linearGradient2068"
       x1="60.786320"
       y1="65.474869"
       x2="53.598068"
       y2="84.819870"
       gradientUnits="userSpaceOnUse" />
    <linearGradient
       y2="21.865709"
       x2="27.079712"
       y1="123.36533"
       x1="27.079712"
       gradientUnits="userSpaceOnUse"
       id="linearGradient3327"
       xlink:href="#linearGradient5507"
       inkscape:collect="always" />
    <linearGradient
       gradientUnits="userSpaceOnUse"
       y2="21.865709"
       x2="27.079712"
       y1="123.36533"
       x1="27.079712"
       id="linearGradient5513"
       xlink:href="#linearGradient5507"
       inkscape:collect="always" />
    <radialGradient
       gradientUnits="userSpaceOnUse"
       gradientTransform="matrix(1.141461,-1.812692e-9,-1.185105e-16,0.957382,-6.065302,6.576339)"
       r="48.454311"
       fy="49.519409"
       fx="42.876415"
       cy="49.519409"
       cx="42.876415"
       id="radialGradient2051"
       xlink:href="#linearGradient2488"
       inkscape:collect="always" />
    <linearGradient
       gradientTransform="matrix(0.931298,0.000000,0.000000,0.931298,4.831677,2.275296)"
       y2="123.48434"
       x2="62.942032"
       y1="35.294682"
       x1="62.942032"
       gradientUnits="userSpaceOnUse"
       id="linearGradient3394"
       xlink:href="#linearGradient2842"
       inkscape:collect="always" />
    <linearGradient
       gradientTransform="matrix(0.992164,0.000000,0.000000,0.992164,-1.863755,1.809591)"
       y2="35.004498"
       x2="85.435616"
       y1="2.5913322"
       x1="93.961632"
       gradientUnits="userSpaceOnUse"
       id="linearGradient3392"
       xlink:href="#linearGradient2850"
       inkscape:collect="always" />
    <radialGradient
       gradientUnits="userSpaceOnUse"
       gradientTransform="matrix(1.000000,0.000000,0.000000,0.123506,1.534148e-16,101.2859)"
       r="61.234303"
       fy="115.55797"
       fx="62.698071"
       cy="115.55797"
       cx="62.698071"
       id="radialGradient3390"
       xlink:href="#linearGradient4321"
       inkscape:collect="always" />
    <linearGradient
       id="linearGradient3384">
      <stop
         id="stop3386"
         offset="0"
         style="stop-color:#f8f8f8;stop-opacity:1.0000000" />
      <stop
         id="stop3388"
         offset="1.0000000"
         style="stop-color:#e6e6e6;stop-opacity:1.0000000" />
    </linearGradient>
    <linearGradient
       id="linearGradient3372">
      <stop
         id="stop3374"
         offset="0.0000000"
         style="stop-color:#000000;stop-opacity:0.24242423;" />
      <stop
         id="stop3376"
         offset="1"
         style="stop-color:#000000;stop-opacity:0;" />
    </linearGradient>
    <linearGradient
       id="linearGradient2488">
      <stop
         id="stop2490"
         offset="0.0000000"
         style="stop-color:#616161;stop-opacity:1.0000000;" />
      <stop
         id="stop2492"
         offset="1.0000000"
         style="stop-color:#4f4f4f;stop-opacity:1.0000000;" />
    </linearGradient>
    <linearGradient
       id="linearGradient5507"
       inkscape:collect="always">
      <stop
         id="stop5509"
         offset="0"
         style="stop-color:#ffffff;stop-opacity:1;" />
      <stop
         id="stop5511"
         offset="1"
         style="stop-color:#ffffff;stop-opacity:0;" />
    </linearGradient>
  </defs>
  <sodipodi:namedview
     id="base"
     pagecolor="#ffffff"
     bordercolor="#666666"
     borderopacity="1.0"
     inkscape:pageopacity="0.0"
     inkscape:pageshadow="2"
     inkscape:zoom="2.9296875"
     inkscape:cx="64.000000"
     inkscape:cy="64.000000"
     inkscape:document-units="px"
     inkscape:current-layer="layer1"
     showguides="true"
     inkscape:guide-bbox="true"
     inkscape:window-width="772"
     inkscape:window-height="543"
     inkscape:window-x="11"
     inkscape:window-y="78" />
  <metadata
     id="metadata7">
    <rdf:RDF>
      <cc:Work
         rdf:about="">
        <dc:format>image/svg+xml</dc:format>
        <dc:type
           rdf:resource="http://purl.org/dc/dcmitype/StillImage" />
      </cc:Work>
    </rdf:RDF>
  </metadata>
  <g
     inkscape:label="Layer 1"
     inkscape:groupmode="layer"
     id="layer1">
    <path
       sodipodi:type="arc"
       style="fill:url(#radialGradient4327);fill-opacity:1.0000000;stroke:none;stroke-width:3.0000000;stroke-linecap:round;stroke-linejoin:miter;stroke-miterlimit:4.0000000;stroke-dasharray:none;stroke-opacity:1.0000000"
       id="path3593"
       sodipodi:cx="62.698071"
       sodipodi:cy="115.55797"
       sodipodi:rx="61.234303"
       sodipodi:ry="7.5628023"
       d="M 123.93237 115.55797 A 61.234303 7.5628023 0 1 1  1.4637680,115.55797 A 61.234303 7.5628023 0 1 1  123.93237 115.55797 z"
       transform="matrix(0.985914,0.000000,0.000000,8.426233,-1.077207,-909.6571)" />
    <path
       style="fill:url(#linearGradient5060);fill-opacity:1.0000000;stroke:#c4c4c4;stroke-width:2.7938941;stroke-linecap:round;stroke-linejoin:miter;stroke-miterlimit:4.0000000;stroke-opacity:1.0000000"
       d="M 14.405721,8.0588818 C 37.265149,8.0588818 60.124577,8.0588818 82.984005,8.0588818 C 93.655193,10.950675 108.61492,26.471884 108.61492,32.323417 C 108.16052,59.494032 105.88851,87.573449 108.61492,113.83526 C 108.61492,114.86714 107.78420,115.69786 106.75232,115.69786 C 75.970124,115.69786 47.050518,115.69786 16.268317,115.69786 C 15.236439,115.69786 14.405721,114.86714 14.405721,113.83526 C 8.9529036,81.014938 15.723935,45.922610 12.543125,9.9214778 C 12.543125,8.8895996 13.373843,8.0588818 14.405721,8.0588818 z "
       id="rect1381"
       sodipodi:nodetypes="ccccccccc" />
    <path
       style="fill:url(#linearGradient5057);fill-opacity:1.0000000;fill-rule:evenodd;stroke:none;stroke-width:1.0000000px;stroke-linecap:butt;stroke-linejoin:miter;stroke-opacity:1.0000000"
       d="M 82.973002,9.4009233 C 77.411401,14.490179 74.513082,26.307311 75.698831,37.628068 C 86.729127,35.140189 96.623353,34.818256 107.16198,35.930807 C 108.99618,27.083386 90.168399,11.141642 82.973002,9.4009233 z "
       id="path2840"
       sodipodi:nodetypes="cccc" />
    <path
       style="fill:#ffffff;fill-opacity:1.0000000;fill-rule:evenodd;stroke:none;stroke-width:1.0000000px;stroke-linecap:butt;stroke-linejoin:miter;stroke-opacity:1.0000000"
       d="M 82.730786,9.3441232 C 78.391328,14.309672 78.113083,23.592036 78.090440,33.442401 C 88.284757,31.322975 97.429108,31.048720 107.16902,31.996504 C 104.94938,23.015961 89.380848,10.827043 82.730786,9.3441232 z "
       id="path2112"
       sodipodi:nodetypes="cccc" />
    <g
       id="g3399"
       inkscape:label="Layer 1">
      <g
         transform="translate(-0.150603,0.302140)"
         id="g3323">
        <path
           style="fill:#000000;fill-opacity:0.027450981;stroke:none;stroke-width:2.7938941;stroke-linecap:round;stroke-linejoin:miter;stroke-miterlimit:4.0000000;stroke-opacity:1.0000000"
           d="M 14.405721,8.0588820 C 37.265149,8.0588820 3.1597384,8.0588820 26.019166,8.0588820 C 32.205179,58.217521 23.255897,60.495704 28.434260,115.69786 C -2.3479353,115.69786 20.829494,115.69786 16.268317,115.69786 C 15.236439,115.69786 14.405721,114.86714 14.405721,113.83526 C 8.9529036,81.014938 15.723935,45.922610 12.543125,9.9214780 C 12.543125,8.8896000 13.373843,8.0588820 14.405721,8.0588820 z "
           id="path3325"
           sodipodi:nodetypes="ccccccc" />
        <path
           style="fill:none;fill-opacity:1.0000000;fill-rule:evenodd;stroke:url(#linearGradient3327);stroke-width:1.0000000px;stroke-linecap:round;stroke-linejoin:miter;stroke-opacity:1.0000000"
           d="M 26.221024,9.6603774 C 30.648698,58.824798 24.035939,67.105121 28.636119,114.19946"
           id="path4779"
           sodipodi:nodetypes="cc" />
      </g>
    </g>
    <g
       id="g3599"
       transform="matrix(0.832208,-7.843466e-2,7.843466e-2,0.832208,18.80055,43.08767)">
      <path
         transform="matrix(0.984389,0.176004,-0.176004,0.984389,14.20153,-2.657021)"
         d="M 115.15739 86.836281 A 55.053314 10.354064 0 1 1  5.0507622,86.836281 A 55.053314 10.354064 0 1 1  115.15739 86.836281 z"
         sodipodi:ry="10.354064"
         sodipodi:rx="55.053314"
         sodipodi:cy="86.836281"
         sodipodi:cx="60.104076"
         id="path2120"
         style="opacity:1.0000000;color:#000000;fill:url(#radialGradient4234);fill-opacity:1.0000000;fill-rule:evenodd;stroke:none;stroke-width:3.0000000;stroke-linecap:round;stroke-linejoin:round;marker:none;marker-start:none;marker-mid:none;marker-end:none;stroke-miterlimit:4.0000000;stroke-dasharray:none;stroke-dashoffset:0.0000000;stroke-opacity:1.0000000;visibility:visible;display:inline;overflow:visible"
         sodipodi:type="arc" />
      <path
         style="fill:url(#linearGradient2068);fill-opacity:1.0;fill-rule:evenodd;stroke:#4b2c16;stroke-width:3.0000000;stroke-linecap:butt;stroke-linejoin:miter;stroke-miterlimit:4.0000000;stroke-dasharray:none;stroke-opacity:1.0000000"
         d="M 111.02657,71.697588 C 97.409931,67.554851 85.936154,66.269257 71.962377,63.912234 C 77.013140,59.534906 79.206759,55.871865 84.257522,51.494537 C 83.079011,44.255110 72.304050,42.571523 67.084929,46.443774 C 63.381036,50.989460 60.570001,56.785147 55.973251,60.080833 C 43.376981,56.305452 30.066426,56.280070 16.577300,52.504689 C 3.1086000,53.514842 0.24650000,79.778808 9.5062300,82.809266 C 37.999712,85.854890 62.533984,97.681160 92.843819,101.24455 C 117.59256,105.20098 125.58712,78.059326 111.02657,71.697588 z "
         id="path1288"
         sodipodi:nodetypes="ccccccccc" />
      <path
         style="fill:#ffffff;fill-opacity:0.48235294;stroke:none;stroke-width:4.1120000;stroke-linecap:round;stroke-linejoin:round;stroke-miterlimit:4.0000000;stroke-opacity:1.0000000"
         d="M 90.612470,83.535710 C 88.826757,91.709990 91.403900,102.64285 103.29104,98.357140 C 109.10676,98.357140 116.32676,90.102850 116.32676,83.892850 C 116.32676,77.682853 111.60676,72.642853 105.79104,72.642853 C 99.975329,72.642853 92.398184,75.361424 90.612470,83.535710 z "
         id="path2049"
         sodipodi:nodetypes="ccccz" />
      <path
         style="fill:#000000;fill-opacity:1.0000000;fill-rule:nonzero;stroke:none;stroke-width:1.0000000pt;stroke-linecap:butt;stroke-linejoin:miter;stroke-opacity:1.0000000"
         id="path3097"
         d="M 82.840136,75.106987 C 79.318862,73.687741 75.445212,73.188705 71.690031,72.705266 C 63.779287,71.965322 55.847465,71.117909 48.085491,69.360912 C 40.648751,67.039918 33.673731,63.448667 25.842151,62.654892 C 23.284510,63.132348 17.722580,61.069163 20.404770,62.414415 L 18.634260,61.687478 C 21.448230,63.480405 23.741926,63.754770 27.170519,63.639711 C 34.991727,64.358743 41.943428,68.042780 49.360727,70.331097 C 57.106828,72.050361 65.021072,72.836838 72.904434,73.613234 C 76.801318,74.184205 80.752182,74.793995 84.413572,76.250155 L 82.840136,75.106987 z " />
      <path
         style="fill:#000000;fill-opacity:1.0000000;fill-rule:nonzero;stroke:none;stroke-width:1.0000000pt;stroke-linecap:butt;stroke-linejoin:miter;stroke-opacity:1.0000000"
         id="path3099"
         d="M 80.697279,86.178420 C 77.160497,85.022590 73.685305,83.615927 70.195976,82.304942 C 62.996358,79.994101 56.172447,76.508369 48.739111,74.971594 C 40.690946,73.889971 32.520168,74.124017 24.412634,74.109406 C 20.693900,74.217584 16.945070,74.870222 13.319750,73.802920 C 12.372080,73.757465 8.1028300,71.388253 11.101780,73.065920 L 9.3705000,72.389430 C 11.091290,73.409955 12.769200,74.389563 14.726720,74.887462 C 18.350090,75.934828 22.058130,75.193718 25.765463,75.091825 C 33.829530,75.040298 41.966625,74.676994 49.963297,75.900204 C 57.407715,77.477735 64.254663,80.958935 71.465513,83.298726 C 75.061326,84.641592 78.614090,86.181280 82.270715,87.321580 L 80.697279,86.178420 z " />
      <path
         style="fill:#000000;fill-opacity:1.0000000;fill-rule:nonzero;stroke:none;stroke-width:1.0000000pt;stroke-linecap:butt;stroke-linejoin:miter;stroke-opacity:1.0000000"
         id="path3103"
         d="M 30.884864,67.857298 C 30.331613,67.554827 28.930988,66.392153 29.225112,66.949886 C 29.936852,68.299522 32.038328,68.463098 31.937015,68.406147 C 29.615397,67.101098 30.526787,67.448365 31.055888,68.288475 C 31.019131,70.640662 26.735898,70.868112 24.989101,70.926954 C 20.178980,70.523962 19.346650,71.421026 18.475730,68.112823 C 18.277020,65.693240 21.731430,66.394453 23.230997,66.613601 C 27.933916,67.678531 32.491929,69.478180 36.825809,71.586284 L 35.418540,70.464210 C 31.082739,68.406544 26.536036,66.649907 21.855360,65.582927 C 20.151890,65.327766 16.602470,64.619134 16.804520,67.303227 C 17.829780,71.423003 22.793970,71.965820 26.383224,71.932137 C 28.213269,71.861031 32.754388,71.596855 32.786250,69.088470 C 32.210611,67.940546 31.045647,67.423386 29.867502,66.929460 C 29.718457,66.866973 29.287136,66.646082 29.426659,66.727644 C 29.961050,67.040032 31.644936,67.736360 31.030150,67.664263 C 30.379984,67.588017 29.884335,67.030841 29.311428,66.714130 L 30.884864,67.857298 z " />
      <path
         style="fill:#000000;fill-opacity:1.0000000;fill-rule:nonzero;stroke:none;stroke-width:1.0000000pt;stroke-linecap:butt;stroke-linejoin:miter;stroke-opacity:1.0000000"
         id="path3109"
         d="M 107.56358,76.513630 C 106.82392,75.811476 106.28906,75.782883 105.33917,75.771836 C 103.54744,75.623438 102.03859,76.515968 100.47295,77.241195 C 99.105575,77.870955 97.809506,78.733223 96.804163,79.864296 C 96.207898,80.828700 95.904939,81.987888 95.860551,83.116332 C 95.820514,84.612668 95.837895,86.109910 95.831861,87.606760 C 95.651189,88.595350 95.798277,89.370510 96.186077,90.278260 C 96.624736,91.547610 97.323033,92.624880 98.195733,93.634510 C 99.212167,94.906910 100.69922,95.792650 102.27317,96.190250 C 103.57680,96.543660 104.56739,96.013200 105.59008,95.223980 C 107.25184,94.031300 108.81251,92.700900 110.48796,91.527640 C 111.18005,91.007770 111.91008,90.531250 112.50011,89.892510 C 113.04791,89.130410 113.16190,88.129000 113.13046,87.212890 C 112.92589,86.202600 112.48049,85.259090 112.16728,84.279420 C 111.92529,83.656897 111.87039,82.980819 111.84180,82.318604 C 111.90646,81.516762 111.58168,80.866433 111.11951,80.233696 C 110.16773,79.215350 108.98353,78.390780 107.66437,77.931326 C 106.95080,77.680436 106.19193,77.693395 105.44912,77.767029 C 104.74876,77.877095 104.07989,78.141823 103.43174,78.422457 C 102.75913,78.787036 102.06865,79.219081 101.63189,79.858052 C 101.08490,80.738112 100.47240,81.574386 99.875325,82.420694 C 99.507932,82.884620 99.277473,83.420523 99.064287,83.966481 C 98.772974,84.640526 98.561111,85.315430 98.523945,86.050040 C 98.345970,87.212750 98.789898,88.070610 99.380871,89.025840 C 99.832770,89.722160 100.28457,90.411770 100.96064,90.903510 C 101.78819,91.405010 102.65506,91.862950 103.61745,92.014220 C 104.49032,92.310260 105.16026,91.618940 105.81643,91.108360 C 106.52351,90.697060 106.98588,90.003220 107.60880,89.502250 C 107.97248,89.245950 108.23143,88.897060 108.47280,88.530380 C 108.97419,87.939670 109.39995,87.357990 109.50210,86.575050 C 109.51217,85.883760 109.36170,85.198110 109.24278,84.519065 C 109.17569,83.918677 109.06229,83.334012 108.85506,82.767090 C 108.68437,82.311268 108.47972,81.894682 108.12594,81.558991 C 107.28161,80.875377 106.63303,80.852529 105.64116,80.845742 C 105.10522,80.796809 104.68927,80.866191 104.25257,81.171984 C 103.64369,81.904073 103.02302,82.632325 102.50174,83.430904 C 102.20229,83.942589 102.18450,84.526808 102.10201,85.097300 C 102.05432,85.569340 102.06211,86.044820 102.06239,86.518710 C 102.14731,87.346420 102.92028,87.587940 103.58485,87.959930 C 104.03754,88.054440 104.48484,88.031580 104.92094,87.896470 C 105.53711,87.606550 105.91562,87.013310 106.29375,86.472910 C 106.59165,86.059270 106.57621,85.591110 106.57518,85.106550 C 106.60771,84.731356 106.69647,84.365040 106.78209,83.999807 L 105.94150,83.544157 C 105.85714,83.918099 105.77366,84.292907 105.72523,84.674165 C 105.72748,85.137980 105.75886,85.594320 105.48278,85.995810 C 105.11641,86.529350 104.75142,87.107550 104.12984,87.367300 C 103.70578,87.475130 103.25969,87.499050 102.83611,87.366990 C 104.32105,88.234440 102.95066,87.594340 102.91207,86.951520 C 102.91114,86.480230 102.89767,86.007450 102.94069,85.537610 C 103.01935,84.978663 103.03097,84.408652 103.31816,83.904060 C 103.81338,83.100013 104.40312,82.355895 105.05515,81.673264 C 105.48337,81.405134 105.89924,81.364196 106.40517,81.400937 C 107.11338,81.403938 108.73132,81.796829 107.24160,81.203297 C 107.61972,81.511509 107.81957,81.915239 107.99155,82.367112 C 108.20222,82.929975 108.34923,83.504586 108.39721,84.107574 C 108.52342,84.777490 108.65800,85.457400 108.66700,86.139490 C 108.58185,86.916960 108.16777,87.476880 107.65537,88.047690 C 107.41309,88.403780 107.16026,88.746340 106.80145,88.995820 C 106.19216,89.505390 105.76335,90.214870 105.06785,90.635980 C 104.38790,91.149280 103.73418,91.731890 102.85697,91.447190 C 102.10165,91.307700 100.74030,90.659920 101.82978,91.239530 C 101.13310,90.773150 100.68116,90.078920 100.21136,89.392610 C 99.632670,88.455610 99.176049,87.613280 99.338407,86.470280 C 99.396573,85.750780 99.598666,85.087170 99.891663,84.427164 C 100.09614,83.884274 100.33359,83.361929 100.68605,82.895750 C 101.26374,82.036773 101.85528,81.186906 102.43281,80.328042 C 102.88663,79.719243 103.54024,79.282132 104.21462,78.943159 C 104.85920,78.674337 105.51533,78.397990 106.21303,78.310552 C 106.94701,78.239652 107.69358,78.250537 108.39608,78.499091 C 109.33808,78.844216 108.73436,78.528908 110.27353,79.869809 C 110.73188,80.484846 111.06065,81.104881 110.99831,81.892172 C 111.03129,82.562187 111.07434,83.252860 111.32158,83.881827 C 111.64971,84.853313 112.07652,85.797000 112.30174,86.800390 C 112.35647,87.697580 112.23446,88.661130 111.69705,89.407880 C 111.11290,90.038680 110.39402,90.515840 109.71251,91.034360 C 108.08494,92.265100 106.54083,93.606620 104.85226,94.757160 C 103.81688,95.506770 102.83481,95.978480 101.55339,95.639440 C 100.20076,95.294020 100.39148,95.409820 99.032332,93.987700 C 98.158512,92.996610 97.436653,91.935200 97.032175,90.664310 C 96.631306,89.770430 96.483291,89.003450 96.642784,88.019900 C 96.635184,86.522170 96.613846,85.023930 96.655167,83.526584 C 96.731049,82.414826 97.004599,81.294499 97.598254,80.340589 C 98.571519,79.206262 99.848096,78.335338 101.20555,77.726461 C 102.77031,77.005281 104.28259,76.124711 106.07564,76.308804 C 107.06514,76.339845 107.81042,76.643294 106.69713,76.072153 L 107.56358,76.513630 z " />
    </g>
  </g>
</svg>
