<?xml version="1.0" encoding="UTF-8" standalone="no"?>
<!-- Created with Inkscape (http://www.inkscape.org/) -->
<svg
   xmlns:dc="http://purl.org/dc/elements/1.1/"
   xmlns:cc="http://web.resource.org/cc/"
   xmlns:rdf="http://www.w3.org/1999/02/22-rdf-syntax-ns#"
   xmlns:svg="http://www.w3.org/2000/svg"
   xmlns="http://www.w3.org/2000/svg"
   xmlns:xlink="http://www.w3.org/1999/xlink"
   xmlns:sodipodi="http://inkscape.sourceforge.net/DTD/sodipodi-0.dtd"
   xmlns:inkscape="http://www.inkscape.org/namespaces/inkscape"
   width="128.00000px"
   height="128.00000px"
   id="svg2"
   sodipodi:version="0.32"
   inkscape:version="0.42.2"
   sodipodi:docbase="/home/silvestre/Desktop/Nuovo!/scalable/mimetypes/text"
   sodipodi:docname="gnome-mime-text-x-c++.svg">
  <defs
     id="defs4">
    <linearGradient
       inkscape:collect="always"
       id="linearGradient2303">
      <stop
         style="stop-color:#dadada;stop-opacity:1.0000000"
         offset="0"
         id="stop2305" />
      <stop
         style="stop-color:#c7c7c7;stop-opacity:1.0000000"
         offset="1"
         id="stop2307" />
    </linearGradient>
    <linearGradient
       inkscape:collect="always"
       id="linearGradient2285">
      <stop
         style="stop-color:#646464;stop-opacity:1.0000000"
         offset="0"
         id="stop2287" />
      <stop
         style="stop-color:#858585;stop-opacity:0;"
         offset="1"
         id="stop2289" />
    </linearGradient>
    <linearGradient
       id="linearGradient2267"
       inkscape:collect="always">
      <stop
         id="stop2269"
         offset="0"
         style="stop-color:#ffffff;stop-opacity:1;" />
      <stop
         id="stop2271"
         offset="1"
         style="stop-color:#ffffff;stop-opacity:0;" />
    </linearGradient>
    <linearGradient
       id="linearGradient4321">
      <stop
         style="stop-color:#000000;stop-opacity:0.24242423;"
         offset="0.0000000"
         id="stop4323" />
      <stop
         style="stop-color:#000000;stop-opacity:0;"
         offset="1"
         id="stop4325" />
    </linearGradient>
    <linearGradient
       inkscape:collect="always"
       id="linearGradient2850">
      <stop
         style="stop-color:#000000;stop-opacity:0.43939391"
         offset="0"
         id="stop2852" />
      <stop
         style="stop-color:#000000;stop-opacity:0;"
         offset="1"
         id="stop2854" />
    </linearGradient>
    <linearGradient
       id="linearGradient2842">
      <stop
         style="stop-color:#f8f8f8;stop-opacity:1.0000000"
         offset="0"
         id="stop2844" />
      <stop
         style="stop-color:#e6e6e6;stop-opacity:1.0000000"
         offset="1.0000000"
         id="stop2846" />
    </linearGradient>
    <radialGradient
       inkscape:collect="always"
       xlink:href="#linearGradient4321"
       id="radialGradient4327"
       cx="62.698071"
       cy="115.55797"
       fx="62.698071"
       fy="115.55797"
       r="61.234303"
       gradientTransform="matrix(1.000000,0.000000,0.000000,0.123506,1.534148e-16,101.2859)"
       gradientUnits="userSpaceOnUse" />
    <linearGradient
       inkscape:collect="always"
       xlink:href="#linearGradient2850"
       id="linearGradient5057"
       gradientUnits="userSpaceOnUse"
       x1="93.961632"
       y1="2.5913322"
       x2="85.435616"
       y2="35.004498"
       gradientTransform="matrix(0.992164,0.000000,0.000000,0.992164,-1.863755,1.809591)" />
    <linearGradient
       inkscape:collect="always"
       xlink:href="#linearGradient2842"
       id="linearGradient5060"
       gradientUnits="userSpaceOnUse"
       x1="62.942032"
       y1="35.294682"
       x2="62.942032"
       y2="123.48434"
       gradientTransform="matrix(0.931298,0.000000,0.000000,0.931298,4.831677,2.275296)" />
    <linearGradient
       inkscape:collect="always"
       xlink:href="#linearGradient2303"
       id="linearGradient2349"
       gradientUnits="userSpaceOnUse"
       gradientTransform="matrix(0.531284,0.000000,0.000000,0.531284,-118.0228,43.97563)"
       x1="33.155548"
       y1="33.990944"
       x2="61.018070"
       y2="59.850849" />
    <linearGradient
       inkscape:collect="always"
       xlink:href="#linearGradient2285"
       id="linearGradient2351"
       gradientUnits="userSpaceOnUse"
       gradientTransform="matrix(0.531284,0.000000,0.000000,0.531284,-118.0228,43.97563)"
       x1="62.456375"
       y1="67.985504"
       x2="41.473427"
       y2="49.932362" />
    <linearGradient
       inkscape:collect="always"
       xlink:href="#linearGradient2267"
       id="linearGradient2353"
       gradientUnits="userSpaceOnUse"
       gradientTransform="matrix(0.531284,0.000000,0.000000,0.531284,-118.0228,43.97563)"
       x1="12.973133"
       y1="15.617307"
       x2="36.621933"
       y2="37.406403" />
    <linearGradient
       inkscape:collect="always"
       xlink:href="#linearGradient2303"
       id="linearGradient2355"
       gradientUnits="userSpaceOnUse"
       gradientTransform="matrix(0.531284,0.000000,0.000000,0.531284,-118.0228,43.97563)"
       x1="33.155548"
       y1="33.990944"
       x2="61.018070"
       y2="59.850849" />
    <linearGradient
       inkscape:collect="always"
       xlink:href="#linearGradient2285"
       id="linearGradient2357"
       gradientUnits="userSpaceOnUse"
       gradientTransform="matrix(0.531284,0.000000,0.000000,0.531284,-118.0228,43.97563)"
       x1="62.456375"
       y1="67.985504"
       x2="41.473427"
       y2="49.932362" />
    <linearGradient
       inkscape:collect="always"
       xlink:href="#linearGradient2267"
       id="linearGradient2359"
       gradientUnits="userSpaceOnUse"
       gradientTransform="matrix(0.531284,0.000000,0.000000,0.531284,-118.0228,43.97563)"
       x1="12.973133"
       y1="15.617307"
       x2="36.621933"
       y2="37.406403" />
    <linearGradient
       id="linearGradient2895">
      <stop
         style="stop-color:#90a3c6;stop-opacity:1.0000000;"
         offset="0.0000000"
         id="stop2897" />
      <stop
         style="stop-color:#5470a4;stop-opacity:1.0000000;"
         offset="1.0000000"
         id="stop2899" />
    </linearGradient>
    <linearGradient
       inkscape:collect="always"
       xlink:href="#linearGradient2895"
       id="linearGradient3026"
       gradientUnits="userSpaceOnUse"
       gradientTransform="matrix(1.000000,0.000000,0.000000,0.739533,-159.4949,28.34065)"
       x1="86.974136"
       y1="95.078720"
       x2="86.974136"
       y2="116.79167" />
    <linearGradient
       y2="21.865709"
       x2="27.079712"
       y1="123.36533"
       x1="27.079712"
       gradientUnits="userSpaceOnUse"
       id="linearGradient3327"
       xlink:href="#linearGradient5507"
       inkscape:collect="always" />
    <linearGradient
       gradientUnits="userSpaceOnUse"
       y2="21.865709"
       x2="27.079712"
       y1="123.36533"
       x1="27.079712"
       id="linearGradient5513"
       xlink:href="#linearGradient5507"
       inkscape:collect="always" />
    <radialGradient
       gradientUnits="userSpaceOnUse"
       gradientTransform="matrix(1.141461,-1.812692e-9,-1.185105e-16,0.957382,-6.065302,6.576339)"
       r="48.454311"
       fy="49.519409"
       fx="42.876415"
       cy="49.519409"
       cx="42.876415"
       id="radialGradient2051"
       xlink:href="#linearGradient2488"
       inkscape:collect="always" />
    <linearGradient
       gradientTransform="matrix(0.931298,0.000000,0.000000,0.931298,4.831677,2.275296)"
       y2="123.48434"
       x2="62.942032"
       y1="35.294682"
       x1="62.942032"
       gradientUnits="userSpaceOnUse"
       id="linearGradient3408"
       xlink:href="#linearGradient2842"
       inkscape:collect="always" />
    <linearGradient
       gradientTransform="matrix(0.992164,0.000000,0.000000,0.992164,-1.863755,1.809591)"
       y2="35.004498"
       x2="85.435616"
       y1="2.5913322"
       x1="93.961632"
       gradientUnits="userSpaceOnUse"
       id="linearGradient3406"
       xlink:href="#linearGradient2850"
       inkscape:collect="always" />
    <radialGradient
       gradientUnits="userSpaceOnUse"
       gradientTransform="matrix(1.000000,0.000000,0.000000,0.123506,1.534148e-16,101.2859)"
       r="61.234303"
       fy="115.55797"
       fx="62.698071"
       cy="115.55797"
       cx="62.698071"
       id="radialGradient3404"
       xlink:href="#linearGradient4321"
       inkscape:collect="always" />
    <linearGradient
       id="linearGradient3398">
      <stop
         id="stop3400"
         offset="0"
         style="stop-color:#f8f8f8;stop-opacity:1.0000000" />
      <stop
         id="stop3402"
         offset="1.0000000"
         style="stop-color:#e6e6e6;stop-opacity:1.0000000" />
    </linearGradient>
    <linearGradient
       id="linearGradient3386">
      <stop
         id="stop3388"
         offset="0.0000000"
         style="stop-color:#000000;stop-opacity:0.24242423;" />
      <stop
         id="stop3390"
         offset="1"
         style="stop-color:#000000;stop-opacity:0;" />
    </linearGradient>
    <linearGradient
       id="linearGradient2488">
      <stop
         id="stop2490"
         offset="0.0000000"
         style="stop-color:#616161;stop-opacity:1.0000000;" />
      <stop
         id="stop2492"
         offset="1.0000000"
         style="stop-color:#4f4f4f;stop-opacity:1.0000000;" />
    </linearGradient>
    <linearGradient
       id="linearGradient5507"
       inkscape:collect="always">
      <stop
         id="stop5509"
         offset="0"
         style="stop-color:#ffffff;stop-opacity:1;" />
      <stop
         id="stop5511"
         offset="1"
         style="stop-color:#ffffff;stop-opacity:0;" />
    </linearGradient>
  </defs>
  <sodipodi:namedview
     id="base"
     pagecolor="#ffffff"
     bordercolor="#666666"
     borderopacity="1.0"
     inkscape:pageopacity="0.0"
     inkscape:pageshadow="2"
     inkscape:zoom="1.4142136"
     inkscape:cx="59.248693"
     inkscape:cy="22.049150"
     inkscape:document-units="px"
     inkscape:current-layer="layer1"
     showguides="true"
     inkscape:guide-bbox="true"
     inkscape:window-width="772"
     inkscape:window-height="543"
     inkscape:window-x="70"
     inkscape:window-y="151" />
  <metadata
     id="metadata7">
    <rdf:RDF>
      <cc:Work
         rdf:about="">
        <dc:format>image/svg+xml</dc:format>
        <dc:type
           rdf:resource="http://purl.org/dc/dcmitype/StillImage" />
      </cc:Work>
    </rdf:RDF>
  </metadata>
  <g
     inkscape:label="Layer 1"
     inkscape:groupmode="layer"
     id="layer1">
    <path
       sodipodi:type="arc"
       style="fill:url(#radialGradient4327);fill-opacity:1.0000000;stroke:none;stroke-width:3.0000000;stroke-linecap:round;stroke-linejoin:miter;stroke-miterlimit:4.0000000;stroke-dasharray:none;stroke-opacity:1.0000000"
       id="path3593"
       sodipodi:cx="62.698071"
       sodipodi:cy="115.55797"
       sodipodi:rx="61.234303"
       sodipodi:ry="7.5628023"
       d="M 123.93237 115.55797 A 61.234303 7.5628023 0 1 1  1.4637680,115.55797 A 61.234303 7.5628023 0 1 1  123.93237 115.55797 z"
       transform="matrix(0.985914,0.000000,0.000000,8.426233,-1.077207,-909.6571)" />
    <path
       style="fill:url(#linearGradient5060);fill-opacity:1.0000000;stroke:#c4c4c4;stroke-width:2.7938941;stroke-linecap:round;stroke-linejoin:miter;stroke-miterlimit:4.0000000;stroke-opacity:1.0000000"
       d="M 14.405721,8.0588820 C 37.265149,8.0588820 60.124577,8.0588820 82.984005,8.0588820 C 93.655193,10.950675 108.61492,26.471884 108.61492,32.323417 C 108.16052,59.494032 105.88851,87.573449 108.61492,113.83526 C 108.61492,114.86714 107.78420,115.69786 106.75232,115.69786 C 75.970124,115.69786 47.050518,115.69786 16.268317,115.69786 C 15.236439,115.69786 14.405721,114.86714 14.405721,113.83526 C 8.9529036,81.014938 15.723935,45.922610 12.543125,9.9214780 C 12.543125,8.8896000 13.373843,8.0588820 14.405721,8.0588820 z "
       id="rect1381"
       sodipodi:nodetypes="ccccccccc" />
    <g
       id="g3413"
       inkscape:label="Layer 1">
      <g
         transform="translate(-0.150603,0.302140)"
         id="g3323">
        <path
           style="fill:#000000;fill-opacity:0.027450981;stroke:none;stroke-width:2.7938941;stroke-linecap:round;stroke-linejoin:miter;stroke-miterlimit:4.0000000;stroke-opacity:1.0000000"
           d="M 14.405721,8.0588820 C 37.265149,8.0588820 3.1597384,8.0588820 26.019166,8.0588820 C 32.205179,58.217521 23.255897,60.495704 28.434260,115.69786 C -2.3479353,115.69786 20.829494,115.69786 16.268317,115.69786 C 15.236439,115.69786 14.405721,114.86714 14.405721,113.83526 C 8.9529036,81.014938 15.723935,45.922610 12.543125,9.9214780 C 12.543125,8.8896000 13.373843,8.0588820 14.405721,8.0588820 z "
           id="path3325"
           sodipodi:nodetypes="ccccccc" />
        <path
           style="fill:none;fill-opacity:1.0000000;fill-rule:evenodd;stroke:url(#linearGradient3327);stroke-width:1.0000000px;stroke-linecap:round;stroke-linejoin:miter;stroke-opacity:1.0000000"
           d="M 26.221024,9.6603774 C 30.648698,58.824798 24.035939,67.105121 28.636119,114.19946"
           id="path4779"
           sodipodi:nodetypes="cc" />
      </g>
    </g>
    <path
       style="fill:url(#linearGradient5057);fill-opacity:1.0000000;fill-rule:evenodd;stroke:none;stroke-width:1.0000000px;stroke-linecap:butt;stroke-linejoin:miter;stroke-opacity:1.0000000"
       d="M 82.973002,9.4009230 C 77.411401,14.490179 74.513082,26.307311 75.698831,37.628068 C 86.729127,35.140189 96.623353,34.818256 107.16198,35.930807 C 108.99618,27.083386 90.168399,11.141642 82.973002,9.4009230 z "
       id="path2840"
       sodipodi:nodetypes="cccc" />
    <path
       style="fill:#ffffff;fill-opacity:1.0000000;fill-rule:evenodd;stroke:none;stroke-width:1.0000000px;stroke-linecap:butt;stroke-linejoin:miter;stroke-opacity:1.0000000"
       d="M 82.730786,9.3441230 C 78.391328,14.309672 78.113083,23.592036 78.090440,33.442401 C 88.284757,31.322975 97.429108,31.048720 107.16902,31.996504 C 104.94938,23.015961 89.380848,10.827043 82.730786,9.3441230 z "
       id="path2112"
       sodipodi:nodetypes="cccc" />
    <g
       id="g2337"
       transform="matrix(1.403990,0.000000,0.000000,1.403990,201.8330,-23.09366)">
      <g
         transform="translate(-17.38157,-17.82964)"
         id="g2315">
        <path
           id="path2317"
           d="M -92.949660,51.231557 C -96.961970,51.736059 -90.348640,57.016418 -97.382560,59.914729 C -105.42132,63.227084 -103.01810,51.781568 -108.32369,58.669533 C -113.62928,65.557497 -103.17166,60.295403 -104.32246,68.913352 C -105.47325,77.531301 -114.17625,69.723789 -110.86389,77.762551 C -107.55154,85.801313 -106.87714,74.117219 -99.989170,79.422814 C -93.101210,84.728408 -104.22403,88.366413 -95.606080,89.517210 C -86.988130,90.668007 -96.754750,84.246008 -88.715990,80.933653 C -80.677230,77.621298 -83.097050,89.066815 -77.791460,82.178850 C -72.485870,75.290885 -82.926890,80.552979 -81.776090,71.935030 C -80.625300,63.317081 -71.922300,71.124591 -75.234660,63.085831 C -78.547010,55.047069 -79.221410,66.714559 -86.109380,61.408966 C -92.997340,56.103372 -81.891120,52.465366 -90.509070,51.314570 C -91.586320,51.170720 -92.376470,51.159485 -92.949660,51.231557 z M -93.049270,64.712888 C -89.901240,64.712889 -87.354570,67.276156 -87.354570,70.424191 C -87.354570,73.572226 -89.901240,76.118891 -93.049270,76.118891 C -96.197310,76.118892 -98.760580,73.572226 -98.760580,70.424191 C -98.760580,67.276155 -96.197310,64.712888 -93.049270,64.712888 z "
           style="fill:#000000;fill-opacity:0.16080399;stroke:none;stroke-width:2.3874824;stroke-linecap:round;stroke-linejoin:round;stroke-miterlimit:4.0000000;stroke-opacity:1.0000000" />
        <path
           style="fill:url(#linearGradient2349);fill-opacity:1.0000000;stroke:#858585;stroke-width:1.2684312;stroke-linecap:round;stroke-linejoin:round;stroke-miterlimit:4.0000000;stroke-opacity:1.0000000"
           d="M -94.332460,48.807395 C -98.344760,49.311897 -91.731440,54.592256 -98.765360,57.490567 C -106.80412,60.802922 -104.40090,49.357406 -109.70649,56.245370 C -115.01208,63.133335 -104.55446,57.871241 -105.70526,66.489190 C -106.85605,75.107139 -115.55904,67.299627 -112.24669,75.338389 C -108.93433,83.377151 -108.25993,71.693057 -101.37197,76.998652 C -94.484010,82.304246 -105.60683,85.942250 -96.988880,87.093048 C -88.370930,88.243845 -98.137550,81.821846 -90.098790,78.509491 C -82.060030,75.197136 -84.479850,86.642653 -79.174260,79.754687 C -73.868670,72.866723 -84.309690,78.128817 -83.158890,69.510868 C -82.008090,60.892919 -73.305100,68.700429 -76.617460,60.661669 C -79.929810,52.622907 -80.604210,64.290397 -87.492180,58.984804 C -94.380140,53.679210 -83.273920,50.041204 -91.891870,48.890408 C -92.969110,48.746558 -93.759270,48.735323 -94.332460,48.807395 z M -94.432070,62.288726 C -91.284040,62.288726 -88.737370,64.851994 -88.737370,68.000029 C -88.737370,71.148064 -91.284040,73.694729 -94.432070,73.694729 C -97.580110,73.694730 -100.14338,71.148064 -100.14338,68.000029 C -100.14338,64.851993 -97.580110,62.288726 -94.432070,62.288726 z "
           id="path2319" />
        <path
           style="fill:none;fill-opacity:1.0000000;stroke:url(#linearGradient2351);stroke-width:1.2684312;stroke-linecap:round;stroke-linejoin:round;stroke-miterlimit:4.0000000;stroke-opacity:1.0000000"
           d="M -94.332460,48.807395 C -98.344760,49.311897 -91.731440,54.592256 -98.765360,57.490567 C -106.80412,60.802922 -104.40090,49.357406 -109.70649,56.245370 C -115.01208,63.133335 -104.55446,57.871241 -105.70526,66.489190 C -106.85605,75.107139 -115.55904,67.299627 -112.24669,75.338389 C -108.93433,83.377151 -108.25993,71.693057 -101.37197,76.998652 C -94.484010,82.304246 -105.60683,85.942250 -96.988880,87.093048 C -88.370930,88.243845 -98.137550,81.821846 -90.098790,78.509491 C -82.060030,75.197136 -84.479850,86.642653 -79.174260,79.754687 C -73.868670,72.866723 -84.309690,78.128817 -83.158890,69.510868 C -82.008090,60.892919 -73.305100,68.700429 -76.617460,60.661669 C -79.929810,52.622907 -80.604210,64.290397 -87.492180,58.984804 C -94.380140,53.679210 -83.273920,50.041204 -91.891870,48.890408 C -92.969110,48.746558 -93.759270,48.735323 -94.332460,48.807395 z M -94.432070,62.288726 C -91.284040,62.288726 -88.737370,64.851994 -88.737370,68.000029 C -88.737370,71.148064 -91.284040,73.694729 -94.432070,73.694729 C -97.580110,73.694730 -100.14338,71.148064 -100.14338,68.000029 C -100.14338,64.851993 -97.580110,62.288726 -94.432070,62.288726 z "
           id="path2321" />
        <path
           style="fill:none;fill-opacity:1.0000000;stroke:url(#linearGradient2353);stroke-width:1.2684312;stroke-linecap:round;stroke-linejoin:round;stroke-miterlimit:4.0000000;stroke-opacity:1.0000000"
           d="M -94.332460,48.807395 C -98.344760,49.311897 -91.731440,54.592256 -98.765360,57.490567 C -106.80412,60.802922 -104.40090,49.357406 -109.70649,56.245370 C -115.01208,63.133335 -104.55446,57.871241 -105.70526,66.489190 C -106.85605,75.107139 -115.55904,67.299627 -112.24669,75.338389 C -108.93433,83.377151 -108.25993,71.693057 -101.37197,76.998652 C -94.484010,82.304246 -105.60683,85.942250 -96.988880,87.093048 C -88.370930,88.243845 -98.137550,81.821846 -90.098790,78.509491 C -82.060030,75.197136 -84.479850,86.642653 -79.174260,79.754687 C -73.868670,72.866723 -84.309690,78.128817 -83.158890,69.510868 C -82.008090,60.892919 -73.305100,68.700429 -76.617460,60.661669 C -79.929810,52.622907 -80.604210,64.290397 -87.492180,58.984804 C -94.380140,53.679210 -83.273920,50.041204 -91.891870,48.890408 C -92.969110,48.746558 -93.759270,48.735323 -94.332460,48.807395 z M -94.432070,62.288726 C -91.284040,62.288726 -88.737370,64.851994 -88.737370,68.000029 C -88.737370,71.148064 -91.284040,73.694729 -94.432070,73.694729 C -97.580110,73.694730 -100.14338,71.148064 -100.14338,68.000029 C -100.14338,64.851993 -97.580110,62.288726 -94.432070,62.288726 z "
           id="path2323" />
      </g>
      <g
         transform="translate(2.070081,3.450135)"
         id="g2309">
        <path
           id="path2140"
           d="M -92.949660,51.231557 C -96.961970,51.736059 -90.348640,57.016418 -97.382560,59.914729 C -105.42132,63.227084 -103.01810,51.781568 -108.32369,58.669533 C -113.62928,65.557497 -103.17166,60.295403 -104.32246,68.913352 C -105.47325,77.531301 -114.17625,69.723789 -110.86389,77.762551 C -107.55154,85.801313 -106.87714,74.117219 -99.989170,79.422814 C -93.101210,84.728408 -104.22403,88.366413 -95.606080,89.517210 C -86.988130,90.668007 -96.754750,84.246008 -88.715990,80.933653 C -80.677230,77.621298 -83.097050,89.066815 -77.791460,82.178850 C -72.485870,75.290885 -82.926890,80.552979 -81.776090,71.935030 C -80.625300,63.317081 -71.922300,71.124591 -75.234660,63.085831 C -78.547010,55.047069 -79.221410,66.714559 -86.109380,61.408966 C -92.997340,56.103372 -81.891120,52.465366 -90.509070,51.314570 C -91.586320,51.170720 -92.376470,51.159485 -92.949660,51.231557 z M -93.049270,64.712888 C -89.901240,64.712889 -87.354570,67.276156 -87.354570,70.424191 C -87.354570,73.572226 -89.901240,76.118891 -93.049270,76.118891 C -96.197310,76.118892 -98.760580,73.572226 -98.760580,70.424191 C -98.760580,67.276155 -96.197310,64.712888 -93.049270,64.712888 z "
           style="fill:#000000;fill-opacity:0.16080399;stroke:none;stroke-width:2.3874824;stroke-linecap:round;stroke-linejoin:round;stroke-miterlimit:4.0000000;stroke-opacity:1.0000000" />
        <path
           style="fill:url(#linearGradient2355);fill-opacity:1.0000000;stroke:#858585;stroke-width:1.2684312;stroke-linecap:round;stroke-linejoin:round;stroke-miterlimit:4.0000000;stroke-opacity:1.0000000"
           d="M -94.332460,48.807395 C -98.344760,49.311897 -91.731440,54.592256 -98.765360,57.490567 C -106.80412,60.802922 -104.40090,49.357406 -109.70649,56.245370 C -115.01208,63.133335 -104.55446,57.871241 -105.70526,66.489190 C -106.85605,75.107139 -115.55904,67.299627 -112.24669,75.338389 C -108.93433,83.377151 -108.25993,71.693057 -101.37197,76.998652 C -94.484010,82.304246 -105.60683,85.942250 -96.988880,87.093048 C -88.370930,88.243845 -98.137550,81.821846 -90.098790,78.509491 C -82.060030,75.197136 -84.479850,86.642653 -79.174260,79.754687 C -73.868670,72.866723 -84.309690,78.128817 -83.158890,69.510868 C -82.008090,60.892919 -73.305100,68.700429 -76.617460,60.661669 C -79.929810,52.622907 -80.604210,64.290397 -87.492180,58.984804 C -94.380140,53.679210 -83.273920,50.041204 -91.891870,48.890408 C -92.969110,48.746558 -93.759270,48.735323 -94.332460,48.807395 z M -94.432070,62.288726 C -91.284040,62.288726 -88.737370,64.851994 -88.737370,68.000029 C -88.737370,71.148064 -91.284040,73.694729 -94.432070,73.694729 C -97.580110,73.694730 -100.14338,71.148064 -100.14338,68.000029 C -100.14338,64.851993 -97.580110,62.288726 -94.432070,62.288726 z "
           id="path2144" />
        <path
           style="fill:none;fill-opacity:1.0000000;stroke:url(#linearGradient2357);stroke-width:1.2684312;stroke-linecap:round;stroke-linejoin:round;stroke-miterlimit:4.0000000;stroke-opacity:1.0000000"
           d="M -94.332460,48.807395 C -98.344760,49.311897 -91.731440,54.592256 -98.765360,57.490567 C -106.80412,60.802922 -104.40090,49.357406 -109.70649,56.245370 C -115.01208,63.133335 -104.55446,57.871241 -105.70526,66.489190 C -106.85605,75.107139 -115.55904,67.299627 -112.24669,75.338389 C -108.93433,83.377151 -108.25993,71.693057 -101.37197,76.998652 C -94.484010,82.304246 -105.60683,85.942250 -96.988880,87.093048 C -88.370930,88.243845 -98.137550,81.821846 -90.098790,78.509491 C -82.060030,75.197136 -84.479850,86.642653 -79.174260,79.754687 C -73.868670,72.866723 -84.309690,78.128817 -83.158890,69.510868 C -82.008090,60.892919 -73.305100,68.700429 -76.617460,60.661669 C -79.929810,52.622907 -80.604210,64.290397 -87.492180,58.984804 C -94.380140,53.679210 -83.273920,50.041204 -91.891870,48.890408 C -92.969110,48.746558 -93.759270,48.735323 -94.332460,48.807395 z M -94.432070,62.288726 C -91.284040,62.288726 -88.737370,64.851994 -88.737370,68.000029 C -88.737370,71.148064 -91.284040,73.694729 -94.432070,73.694729 C -97.580110,73.694730 -100.14338,71.148064 -100.14338,68.000029 C -100.14338,64.851993 -97.580110,62.288726 -94.432070,62.288726 z "
           id="path2146" />
        <path
           style="fill:none;fill-opacity:1.0000000;stroke:url(#linearGradient2359);stroke-width:1.2684312;stroke-linecap:round;stroke-linejoin:round;stroke-miterlimit:4.0000000;stroke-opacity:1.0000000"
           d="M -94.332460,48.807395 C -98.344760,49.311897 -91.731440,54.592256 -98.765360,57.490567 C -106.80412,60.802922 -104.40090,49.357406 -109.70649,56.245370 C -115.01208,63.133335 -104.55446,57.871241 -105.70526,66.489190 C -106.85605,75.107139 -115.55904,67.299627 -112.24669,75.338389 C -108.93433,83.377151 -108.25993,71.693057 -101.37197,76.998652 C -94.484010,82.304246 -105.60683,85.942250 -96.988880,87.093048 C -88.370930,88.243845 -98.137550,81.821846 -90.098790,78.509491 C -82.060030,75.197136 -84.479850,86.642653 -79.174260,79.754687 C -73.868670,72.866723 -84.309690,78.128817 -83.158890,69.510868 C -82.008090,60.892919 -73.305100,68.700429 -76.617460,60.661669 C -79.929810,52.622907 -80.604210,64.290397 -87.492180,58.984804 C -94.380140,53.679210 -83.273920,50.041204 -91.891870,48.890408 C -92.969110,48.746558 -93.759270,48.735323 -94.332460,48.807395 z M -94.432070,62.288726 C -91.284040,62.288726 -88.737370,64.851994 -88.737370,68.000029 C -88.737370,71.148064 -91.284040,73.694729 -94.432070,73.694729 C -97.580110,73.694730 -100.14338,71.148064 -100.14338,68.000029 C -100.14338,64.851993 -97.580110,62.288726 -94.432070,62.288726 z "
           id="path2148" />
      </g>
    </g>
    <g
       id="g2655"
       transform="matrix(1.199376,0.000000,0.000000,1.199376,166.7558,-21.43440)">
      <rect
         ry="4.1688356"
         rx="4.1688361"
         y="97.045395"
         x="-108.38914"
         height="22.654673"
         width="70.959785"
         id="rect1434"
         style="fill:url(#linearGradient3026);fill-opacity:1.0000000;stroke:#325381;stroke-width:1.7199225;stroke-linecap:round;stroke-linejoin:round;stroke-miterlimit:4.0000000;stroke-dasharray:none;stroke-opacity:1.0000000" />
      <text
         sodipodi:linespacing="125.00000%"
         id="text1436"
         y="115.35419"
         x="-73.016434"
         style="font-size:20.822283px;font-style:normal;font-variant:normal;font-weight:bold;font-stretch:normal;text-align:center;line-height:125.00000%;writing-mode:lr-tb;text-anchor:middle;fill:#ffffff;fill-opacity:1.0000000;stroke:none;stroke-width:1.0000000px;stroke-linecap:butt;stroke-linejoin:miter;stroke-opacity:1.0000000;font-family:Sans"
         xml:space="preserve"><tspan
           sodipodi:role="line"
           id="tspan3373"
           x="-73.016432"
           y="115.35419">c++</tspan></text>
    </g>
  </g>
</svg>
