<?xml version="1.0" encoding="UTF-8" standalone="no"?>
<!-- Created with Inkscape (http://www.inkscape.org/) -->
<svg
   xmlns:dc="http://purl.org/dc/elements/1.1/"
   xmlns:cc="http://web.resource.org/cc/"
   xmlns:rdf="http://www.w3.org/1999/02/22-rdf-syntax-ns#"
   xmlns:svg="http://www.w3.org/2000/svg"
   xmlns="http://www.w3.org/2000/svg"
   xmlns:xlink="http://www.w3.org/1999/xlink"
   xmlns:sodipodi="http://inkscape.sourceforge.net/DTD/sodipodi-0.dtd"
   xmlns:inkscape="http://www.inkscape.org/namespaces/inkscape"
   width="48"
   height="48"
   id="svg2"
   sodipodi:version="0.32"
   inkscape:version="0.43"
   version="1.0"
   sodipodi:docbase="/home/silvestre/Gion/scalable/actions"
   sodipodi:docname="document-open.svg"
   inkscape:export-filename="/home/silvestre/Gion/PNGs/folder-drag-accept.png"
   inkscape:export-xdpi="90"
   inkscape:export-ydpi="90">
  <defs
     id="defs4">
    <linearGradient
       id="linearGradient2272">
      <stop
         style="stop-color:#000000;stop-opacity:0;"
         offset="0"
         id="stop2274" />
      <stop
         id="stop2238"
         offset="0.47"
         style="stop-color:#000000;stop-opacity:0.16470588;" />
      <stop
         style="stop-color:#000000;stop-opacity:0.66666669;"
         offset="1"
         id="stop2276" />
    </linearGradient>
    <linearGradient
       inkscape:collect="always"
       id="linearGradient2240">
      <stop
         style="stop-color:#ffffff;stop-opacity:0.3004292"
         offset="0"
         id="stop2242" />
      <stop
         style="stop-color:#ffffff;stop-opacity:0;"
         offset="1"
         id="stop2244" />
    </linearGradient>
    <linearGradient
       inkscape:collect="always"
       id="linearGradient3104">
      <stop
         style="stop-color:#ffffff;stop-opacity:0.70980394"
         offset="0"
         id="stop3106" />
      <stop
         style="stop-color:#ffffff;stop-opacity:0.10729614"
         offset="1"
         id="stop3108" />
    </linearGradient>
    <linearGradient
       inkscape:collect="always"
       id="linearGradient3132">
      <stop
         style="stop-color:#636363;stop-opacity:1;"
         offset="0"
         id="stop3134" />
      <stop
         style="stop-color:#636363;stop-opacity:0;"
         offset="1"
         id="stop3136" />
    </linearGradient>
    <linearGradient
       inkscape:collect="always"
       id="linearGradient2211">
      <stop
         style="stop-color:#000000;stop-opacity:1;"
         offset="0"
         id="stop2213" />
      <stop
         style="stop-color:#000000;stop-opacity:0;"
         offset="1"
         id="stop2215" />
    </linearGradient>
    <linearGradient
       id="linearGradient2233">
      <stop
         style="stop-color:#ffffff;stop-opacity:0.84848487;"
         offset="0"
         id="stop2235" />
      <stop
         style="stop-color:#ffffff;stop-opacity:0.32323232;"
         offset="1"
         id="stop2237" />
    </linearGradient>
    <linearGradient
       inkscape:collect="always"
       id="linearGradient2223">
      <stop
         style="stop-color:#000000;stop-opacity:0.38626608"
         offset="0"
         id="stop2225" />
      <stop
         style="stop-color:#000000;stop-opacity:0;"
         offset="1"
         id="stop2227" />
    </linearGradient>
    <linearGradient
       id="linearGradient2196">
      <stop
         style="stop-color:#1475ce;stop-opacity:1;"
         offset="0"
         id="stop2198" />
      <stop
         style="stop-color:#1772c6;stop-opacity:0;"
         offset="1"
         id="stop2200" />
    </linearGradient>
    <linearGradient
       id="linearGradient2228">
      <stop
         style="stop-color:#898989;stop-opacity:1;"
         offset="0"
         id="stop2230" />
      <stop
         style="stop-color:#b2b2b2;stop-opacity:1;"
         offset="1"
         id="stop2232" />
    </linearGradient>
    <linearGradient
       inkscape:collect="always"
       xlink:href="#linearGradient2228"
       id="linearGradient2234"
       x1="34.39695"
       y1="4.1508341"
       x2="20.559042"
       y2="4.1508341"
       gradientUnits="userSpaceOnUse"
       gradientTransform="translate(-3.981793,0)" />
    <linearGradient
       inkscape:collect="always"
       xlink:href="#linearGradient2196"
       id="linearGradient2202"
       x1="11.856057"
       y1="34.258842"
       x2="13.001899"
       y2="34.258842"
       gradientUnits="userSpaceOnUse"
       gradientTransform="matrix(1.333333,0,0,1,-7.315121,0)" />
    <linearGradient
       inkscape:collect="always"
       xlink:href="#linearGradient2223"
       id="linearGradient2229"
       x1="22.442478"
       y1="22.793297"
       x2="11.689369"
       y2="22.793297"
       gradientUnits="userSpaceOnUse"
       gradientTransform="matrix(0.89389,0,0,1,1.49563,0)" />
    <linearGradient
       inkscape:collect="always"
       xlink:href="#linearGradient2233"
       id="linearGradient2239"
       x1="17.697422"
       y1="2.6187558"
       x2="22.121777"
       y2="38.438679"
       gradientUnits="userSpaceOnUse"
       gradientTransform="translate(-3.981788,0)" />
    <radialGradient
       inkscape:collect="always"
       xlink:href="#linearGradient2211"
       id="radialGradient2217"
       cx="24.523569"
       cy="43.954876"
       fx="19.014454"
       fy="49.215107"
       r="22.501007"
       gradientTransform="matrix(1,0,0,0.174157,-1.356947e-18,36.29981)"
       gradientUnits="userSpaceOnUse" />
    <linearGradient
       inkscape:collect="always"
       xlink:href="#linearGradient3132"
       id="linearGradient3138"
       x1="11.292813"
       y1="27.083799"
       x2="8.5740976"
       y2="27.083799"
       gradientUnits="userSpaceOnUse" />
    <radialGradient
       inkscape:collect="always"
       xlink:href="#linearGradient2272"
       id="radialGradient1372"
       gradientUnits="userSpaceOnUse"
       gradientTransform="matrix(1.998201,3.783707e-16,-2.432055e-16,3.121579,-20.65462,-47.38907)"
       cx="24.026768"
       cy="20.767532"
       fx="24.026768"
       fy="20.767532"
       r="13.026767" />
    <radialGradient
       inkscape:collect="always"
       xlink:href="#linearGradient2240"
       id="radialGradient1374"
       gradientUnits="userSpaceOnUse"
       gradientTransform="matrix(0.827279,-1.523743e-18,-2.082117e-18,1.692844,7.349901,-17.08227)"
       cx="24.651768"
       cy="19.102621"
       fx="24.651768"
       fy="19.102621"
       r="13.026767" />
    <linearGradient
       inkscape:collect="always"
       xlink:href="#linearGradient3104"
       id="linearGradient1376"
       gradientUnits="userSpaceOnUse"
       x1="17.718407"
       y1="10.078797"
       x2="24.218407"
       y2="43.104637"
       gradientTransform="matrix(0.811286,0,0,1,8.122941,0)" />
    <linearGradient
       id="linearGradient2258"
       inkscape:collect="always">
      <stop
         id="stop2260"
         offset="0"
         style="stop-color:#000000;stop-opacity:0.13733906" />
      <stop
         id="stop2262"
         offset="1"
         style="stop-color:#000000;stop-opacity:0;" />
    </linearGradient>
    <linearGradient
       inkscape:collect="always"
       xlink:href="#linearGradient2258"
       id="linearGradient1521"
       gradientUnits="userSpaceOnUse"
       x1="10.390993"
       y1="6.396131"
       x2="29.327063"
       y2="39.194366"
       gradientTransform="matrix(1.005238,1.152549e-17,0,1.004673,-0.214764,-0.200918)" />
    <linearGradient
       inkscape:collect="always"
       xlink:href="#linearGradient3132"
       id="linearGradient1411"
       gradientUnits="userSpaceOnUse"
       x1="11.292813"
       y1="27.083799"
       x2="8.5740976"
       y2="27.083799" />
    <linearGradient
       inkscape:collect="always"
       xlink:href="#linearGradient3132"
       id="linearGradient1413"
       gradientUnits="userSpaceOnUse"
       x1="11.292813"
       y1="27.083799"
       x2="8.5740976"
       y2="27.083799" />
    <linearGradient
       inkscape:collect="always"
       xlink:href="#linearGradient3132"
       id="linearGradient1415"
       gradientUnits="userSpaceOnUse"
       x1="11.292813"
       y1="27.083799"
       x2="8.5740976"
       y2="27.083799" />
    <linearGradient
       inkscape:collect="always"
       xlink:href="#linearGradient3132"
       id="linearGradient1417"
       gradientUnits="userSpaceOnUse"
       x1="11.292813"
       y1="27.083799"
       x2="8.5740976"
       y2="27.083799" />
    <linearGradient
       inkscape:collect="always"
       xlink:href="#linearGradient3132"
       id="linearGradient1419"
       gradientUnits="userSpaceOnUse"
       x1="11.292813"
       y1="27.083799"
       x2="8.5740976"
       y2="27.083799" />
    <linearGradient
       inkscape:collect="always"
       xlink:href="#linearGradient3132"
       id="linearGradient1421"
       gradientUnits="userSpaceOnUse"
       x1="11.292813"
       y1="27.083799"
       x2="8.5740976"
       y2="27.083799" />
    <linearGradient
       inkscape:collect="always"
       xlink:href="#linearGradient3132"
       id="linearGradient1423"
       gradientUnits="userSpaceOnUse"
       x1="11.292813"
       y1="27.083799"
       x2="8.5740976"
       y2="27.083799" />
    <linearGradient
       inkscape:collect="always"
       xlink:href="#linearGradient3132"
       id="linearGradient1425"
       gradientUnits="userSpaceOnUse"
       x1="11.292813"
       y1="27.083799"
       x2="8.5740976"
       y2="27.083799" />
    <linearGradient
       inkscape:collect="always"
       xlink:href="#linearGradient3132"
       id="linearGradient1427"
       gradientUnits="userSpaceOnUse"
       x1="11.292813"
       y1="27.083799"
       x2="8.5740976"
       y2="27.083799" />
    <linearGradient
       inkscape:collect="always"
       xlink:href="#linearGradient3132"
       id="linearGradient1429"
       gradientUnits="userSpaceOnUse"
       x1="11.292813"
       y1="27.083799"
       x2="8.5740976"
       y2="27.083799" />
    <linearGradient
       inkscape:collect="always"
       xlink:href="#linearGradient3132"
       id="linearGradient1431"
       gradientUnits="userSpaceOnUse"
       x1="11.292813"
       y1="27.083799"
       x2="8.5740976"
       y2="27.083799" />
    <linearGradient
       inkscape:collect="always"
       xlink:href="#linearGradient3132"
       id="linearGradient1433"
       gradientUnits="userSpaceOnUse"
       x1="11.292813"
       y1="27.083799"
       x2="8.5740976"
       y2="27.083799" />
  </defs>
  <sodipodi:namedview
     id="base"
     pagecolor="#ffffff"
     bordercolor="#666666"
     borderopacity="1.0"
     inkscape:pageopacity="0.0"
     inkscape:pageshadow="2"
     inkscape:zoom="1"
     inkscape:cx="24"
     inkscape:cy="24"
     inkscape:document-units="px"
     inkscape:current-layer="layer1"
     showgrid="false"
     inkscape:grid-bbox="false"
     inkscape:window-width="897"
     inkscape:window-height="590"
     inkscape:window-x="12"
     inkscape:window-y="67"
     showguides="true"
     inkscape:guide-bbox="true"
     showborder="false"
     inkscape:showpageshadow="false" />
  <metadata
     id="metadata7">
    <rdf:RDF>
      <cc:Work
         rdf:about="">
        <dc:format>image/svg+xml</dc:format>
        <dc:type
           rdf:resource="http://purl.org/dc/dcmitype/StillImage" />
        <dc:title>Document Open</dc:title>
        <dc:creator>
          <cc:Agent>
            <dc:title>Silvestre Herrera</dc:title>
          </cc:Agent>
        </dc:creator>
        <dc:subject>
          <rdf:Bag>
            <rdf:li>directory folder</rdf:li>
          </rdf:Bag>
        </dc:subject>
        <cc:license
           rdf:resource="http://creativecommons.org/licenses/GPL/2.0/" />
      </cc:Work>
      <cc:License
         rdf:about="http://creativecommons.org/licenses/GPL/2.0/">
        <cc:permits
           rdf:resource="http://web.resource.org/cc/Reproduction" />
        <cc:permits
           rdf:resource="http://web.resource.org/cc/Distribution" />
        <cc:requires
           rdf:resource="http://web.resource.org/cc/Notice" />
        <cc:permits
           rdf:resource="http://web.resource.org/cc/DerivativeWorks" />
        <cc:requires
           rdf:resource="http://web.resource.org/cc/ShareAlike" />
        <cc:requires
           rdf:resource="http://web.resource.org/cc/SourceCode" />
      </cc:License>
    </rdf:RDF>
  </metadata>
  <g
     inkscape:label="back-folder"
     inkscape:groupmode="layer"
     id="layer1">
    <path
       sodipodi:type="arc"
       style="opacity:0.77922076;fill:url(#radialGradient2217);fill-opacity:1;stroke:none;stroke-width:1;stroke-linecap:round;stroke-linejoin:round;stroke-miterlimit:4;stroke-dasharray:none;stroke-dashoffset:0;stroke-opacity:1"
       id="path1336"
       sodipodi:cx="24.523569"
       sodipodi:cy="43.954876"
       sodipodi:rx="22.501007"
       sodipodi:ry="3.9187145"
       d="M 47.024576 43.954876 A 22.501007 3.9187145 0 1 1  2.022562,43.954876 A 22.501007 3.9187145 0 1 1  47.024576 43.954876 z"
       transform="matrix(1.022176,0,0,1.658709,-1.067415,-31.40834)" />
    <path
       style="fill:url(#linearGradient2234);fill-opacity:1;fill-rule:evenodd;stroke:#636363;stroke-width:0.99999994px;stroke-linecap:butt;stroke-linejoin:round;stroke-opacity:1"
       d="M 43.518226,1.4999958 C 35.793086,2.9345802 20.138899,3.7884315 8.5252565,3.492265 L 8.5252565,28.498418 L 5.5182107,28.498418 L 5.5182107,43.438543 C 19.334548,43.578192 33.145372,43.713306 43.518226,41.021336 L 43.518226,1.4999958 z "
       id="path1307"
       sodipodi:nodetypes="ccccccc" />
    <rect
       style="opacity:0.58008656;fill:url(#linearGradient2202);fill-opacity:1;stroke:none;stroke-width:1;stroke-linecap:round;stroke-linejoin:round;stroke-miterlimit:4;stroke-dasharray:none;stroke-dashoffset:0;stroke-opacity:1"
       id="rect2194"
       width="4"
       height="14"
       x="6.0182114"
       y="29" />
    <g
       id="g3118"
       style="opacity:0.18614717;fill-opacity:1;stroke:url(#linearGradient3138)">
      <path
         sodipodi:nodetypes="cc"
         id="path3092"
         d="M 9.5147102,6.4664942 C 24.575507,6.6445419 34.622174,5.7153718 43.492644,4.5264746"
         style="fill:none;fill-opacity:1;fill-rule:evenodd;stroke:url(#linearGradient1411);stroke-width:0.99999988px;stroke-linecap:butt;stroke-linejoin:miter;stroke-opacity:1" />
      <path
         style="fill:none;fill-opacity:1;fill-rule:evenodd;stroke:url(#linearGradient1413);stroke-width:0.99999988px;stroke-linecap:butt;stroke-linejoin:miter;stroke-opacity:1"
         d="M 9.4999999,9.4400195 C 24.560797,9.6180672 34.607464,8.6888971 43.477934,7.4999999"
         id="path3096"
         sodipodi:nodetypes="cc" />
      <path
         style="fill:none;fill-opacity:1;fill-rule:evenodd;stroke:url(#linearGradient1415);stroke-width:0.99999988px;stroke-linecap:butt;stroke-linejoin:miter;stroke-opacity:1"
         d="M 9.5147102,12.440019 C 24.575507,12.618067 34.622174,11.688897 43.492644,10.5"
         id="path3098"
         sodipodi:nodetypes="cc" />
      <path
         style="fill:none;fill-opacity:1;fill-rule:evenodd;stroke:url(#linearGradient1417);stroke-width:0.99999988px;stroke-linecap:butt;stroke-linejoin:miter;stroke-opacity:1"
         d="M 9.5147102,15.440019 C 24.575507,15.618067 34.622174,14.688897 43.492644,13.5"
         id="path3100"
         sodipodi:nodetypes="cc" />
      <path
         style="fill:none;fill-opacity:1;fill-rule:evenodd;stroke:url(#linearGradient1419);stroke-width:0.99999988px;stroke-linecap:butt;stroke-linejoin:miter;stroke-opacity:1"
         d="M 9.5147102,18.440019 C 24.575507,18.618067 34.622174,17.688897 43.492644,16.5"
         id="path3102"
         sodipodi:nodetypes="cc" />
      <path
         style="fill:none;fill-opacity:1;fill-rule:evenodd;stroke:url(#linearGradient1421);stroke-width:0.99999988px;stroke-linecap:butt;stroke-linejoin:miter;stroke-opacity:1"
         d="M 9.5147102,21.440019 C 24.575507,21.618067 34.622174,20.688897 43.492644,19.5"
         id="path3104"
         sodipodi:nodetypes="cc" />
      <path
         style="fill:none;fill-opacity:1;fill-rule:evenodd;stroke:url(#linearGradient1423);stroke-width:0.99999988px;stroke-linecap:butt;stroke-linejoin:miter;stroke-opacity:1"
         d="M 9.5147102,24.478064 C 24.575507,24.656112 34.622174,23.726942 43.492644,22.538045"
         id="path3106"
         sodipodi:nodetypes="cc" />
      <path
         style="fill:none;fill-opacity:1;fill-rule:evenodd;stroke:url(#linearGradient1425);stroke-width:0.99999988px;stroke-linecap:butt;stroke-linejoin:miter;stroke-opacity:1"
         d="M 9.5147102,27.478064 C 24.575507,27.656112 34.622174,26.726942 43.492644,25.538045"
         id="path3108"
         sodipodi:nodetypes="cc" />
      <path
         style="fill:none;fill-opacity:1;fill-rule:evenodd;stroke:url(#linearGradient1427);stroke-width:0.99999982px;stroke-linecap:butt;stroke-linejoin:miter;stroke-opacity:1"
         d="M 5.5075372,30.903706 C 22.319088,31.081754 33.533639,30.152584 43.435264,28.963687"
         id="path3110"
         sodipodi:nodetypes="cc" />
      <path
         style="fill:none;fill-opacity:1;fill-rule:evenodd;stroke:url(#linearGradient1429);stroke-width:0.9999997px;stroke-linecap:butt;stroke-linejoin:miter;stroke-opacity:1"
         d="M 5.5573856,33.478064 C 22.346831,33.656112 33.546634,32.726942 43.435239,31.538045"
         id="path3112"
         sodipodi:nodetypes="cc" />
      <path
         style="fill:none;fill-opacity:1;fill-rule:evenodd;stroke:url(#linearGradient1431);stroke-width:0.9999997px;stroke-linecap:butt;stroke-linejoin:miter;stroke-opacity:1"
         d="M 5.5573856,36.440019 C 22.346831,36.618067 33.546634,35.688897 43.435239,34.5"
         id="path3114"
         sodipodi:nodetypes="cc" />
      <path
         sodipodi:nodetypes="cc"
         id="path3094"
         d="M 5.5573856,39.440019 C 22.346831,39.618067 33.546634,38.688897 43.435239,37.5"
         style="fill:none;fill-opacity:1;fill-rule:evenodd;stroke:url(#linearGradient1433);stroke-width:0.9999997px;stroke-linecap:butt;stroke-linejoin:miter;stroke-opacity:1" />
    </g>
    <g
       id="g1475"
       transform="matrix(0.746189,-0.103837,0,0.743764,5.520271,12.8222)">
      <g
         inkscape:label="Layer 1"
         id="g1477"
         transform="matrix(0.994391,0,0,0.995353,0.236601,0.205357)">
        <rect
           y="2.4883716"
           x="6.4731984"
           height="41.023247"
           width="35.040318"
           id="rect1379"
           style="opacity:1;fill:#fcfcfc;fill-opacity:1;stroke:#969696;stroke-width:1.34924698;stroke-linecap:round;stroke-linejoin:round;stroke-miterlimit:4;stroke-dasharray:none;stroke-dashoffset:0;stroke-opacity:1" />
      </g>
      <rect
         style="fill:#000000;fill-opacity:0.17647059;stroke:none;stroke-width:1;stroke-linecap:round;stroke-linejoin:round;stroke-miterlimit:4;stroke-dasharray:none;stroke-dashoffset:0;stroke-opacity:1"
         id="rect1535"
         width="28.143003"
         height="1.3607812"
         x="10.027607"
         y="6.0872793" />
      <rect
         style="fill:#000000;fill-opacity:0.17647059;stroke:none;stroke-width:1;stroke-linecap:round;stroke-linejoin:round;stroke-miterlimit:4;stroke-dasharray:none;stroke-dashoffset:0;stroke-opacity:1"
         id="rect1537"
         width="28.143003"
         height="1.3607812"
         x="10.027607"
         y="11.530404" />
      <rect
         style="fill:#000000;fill-opacity:0.17647059;stroke:none;stroke-width:1;stroke-linecap:round;stroke-linejoin:round;stroke-miterlimit:4;stroke-dasharray:none;stroke-dashoffset:0;stroke-opacity:1"
         id="rect1539"
         width="28.143003"
         height="1.3607812"
         x="10.027607"
         y="16.973528" />
      <rect
         style="fill:#000000;fill-opacity:0.17647059;stroke:none;stroke-width:1;stroke-linecap:round;stroke-linejoin:round;stroke-miterlimit:4;stroke-dasharray:none;stroke-dashoffset:0;stroke-opacity:1"
         id="rect1541"
         width="28.143003"
         height="1.3607812"
         x="10.027607"
         y="22.416653" />
      <rect
         style="fill:#000000;fill-opacity:0.17647059;stroke:none;stroke-width:1;stroke-linecap:round;stroke-linejoin:round;stroke-miterlimit:4;stroke-dasharray:none;stroke-dashoffset:0;stroke-opacity:1"
         id="rect1543"
         width="28.143003"
         height="1.3607812"
         x="10.027607"
         y="27.859777" />
      <rect
         style="fill:#000000;fill-opacity:0.17647059;stroke:none;stroke-width:1;stroke-linecap:round;stroke-linejoin:round;stroke-miterlimit:4;stroke-dasharray:none;stroke-dashoffset:0;stroke-opacity:1"
         id="rect1545"
         width="28.143003"
         height="1.3607812"
         x="10.027607"
         y="33.302902" />
      <rect
         y="38.746029"
         x="10.027607"
         height="1.3607812"
         width="28.143003"
         id="rect2263"
         style="fill:#000000;fill-opacity:0.17647059;stroke:none;stroke-width:1;stroke-linecap:round;stroke-linejoin:round;stroke-miterlimit:4;stroke-dasharray:none;stroke-dashoffset:0;stroke-opacity:1" />
      <g
         inkscape:label="lights"
         id="g1495"
         transform="matrix(0.974699,0,0,0.97705,0.698021,0.626568)">
        <rect
           y="2.8130999"
           x="6.8219028"
           height="40.186901"
           width="34.178097"
           id="rect2256"
           style="opacity:1;fill:url(#linearGradient1521);fill-opacity:1;stroke:none;stroke-width:1.00000036;stroke-linecap:round;stroke-linejoin:round;stroke-miterlimit:4;stroke-dasharray:none;stroke-dashoffset:0;stroke-opacity:1" />
        <rect
           y="3.4996946"
           x="7.4918699"
           height="39.013073"
           width="33.022804"
           id="rect2254"
           style="opacity:1;fill:none;fill-opacity:1;stroke:#ffffff;stroke-width:1.37551391;stroke-linecap:round;stroke-linejoin:round;stroke-miterlimit:4;stroke-dasharray:none;stroke-dashoffset:0;stroke-opacity:1" />
      </g>
    </g>
    <path
       style="fill:url(#linearGradient2229);fill-opacity:1;fill-rule:evenodd;stroke:none;stroke-width:0.99999958px;stroke-linecap:butt;stroke-linejoin:round;stroke-opacity:1"
       d="M 42,3 C 38.761679,7.919077 25.25061,9.0113836 14,10.15625 L 14,44 C 14.008109,43.999894 14.028887,44 14.028887,44 L 23.303539,48.022346 L 38.909089,44 C 39.055491,44 39.205785,44.029989 39.342394,44.0625 C 39.357573,44.066112 39.356247,44.058511 39.371281,44.0625 C 39.910706,43.683847 40.391155,43.263613 40.786745,42.8125 L 42,3 z "
       id="path2236"
       sodipodi:nodetypes="ccccccsscc" />
    <path
       style="fill:none;fill-opacity:1;fill-rule:evenodd;stroke:url(#linearGradient2239);stroke-width:1.00000012px;stroke-linecap:butt;stroke-linejoin:round;stroke-opacity:1"
       d="M 42.544374,2.634348 C 35.217797,4.0018381 20.531872,4.7665916 9.5174115,4.4842766 L 9.5174115,29.507768 L 6.5048955,29.507768 L 6.5048955,42.453452 C 19.608406,42.58657 32.706686,42.715364 42.544374,40.149296 L 42.544374,2.634348 z "
       id="path2231"
       sodipodi:nodetypes="ccccccc" />
    <g
       id="g3126"
       transform="translate(0,4)">
      <path
         sodipodi:nodetypes="csssssssccssssssscccccccsccccsccccccccccsssssccsssssccsssssccssssscccccccccccccccccccccccccccsssccsssssssccsssccccsssssccsssssccsssssccssssscccccccsccccsccccccccsssccccccssscccccsssccsssssssccsssccccccccccccccccccsssccsssssssccssscccsssccccccssscccsssccccccssscccccsssccsssssssccssscccsssccccccssscccssssscccccccssssscccsssccsssc"
         id="path3124"
         d="M 2.6696575,62.133942 C 2.6696536,61.605299 2.5602787,61.191237 2.3415325,60.891754 C 2.1253833,60.589675 1.8272065,60.438633 1.4470012,60.438629 C 1.0667906,60.438633 0.76731173,60.589675 0.54856372,60.891754 C 0.33241633,61.191237 0.22434352,61.605299 0.22434497,62.133942 C 0.22434352,62.662589 0.33241633,63.077953 0.54856372,63.380035 C 0.76731173,63.679515 1.0667906,63.829255 1.4470012,63.829254 C 1.8272065,63.829255 2.1253833,63.679515 2.3415325,63.380035 C 2.5602787,63.077953 2.6696536,62.662589 2.6696575,62.133942 M 0.22434497,60.606598 C 0.37538504,60.346185 0.56548901,60.153477 0.79465747,60.028473 C 1.0264261,59.900873 1.3024674,59.837071 1.6227825,59.837067 C 2.1540291,59.837071 2.5850182,60.048009 2.9157512,60.469879 C 3.2490801,60.891758 3.4157466,61.446445 3.4157512,62.133942 C 3.4157466,62.821443 3.2490801,63.37613 2.9157512,63.798004 C 2.5850182,64.219879 2.1540291,64.430817 1.6227825,64.430817 C 1.3024674,64.430817 1.0264261,64.368317 0.79465747,64.243317 C 0.56548901,64.115713 0.37538504,63.921703 0.22434497,63.661285 L 0.22434497,64.317535 L -0.49831128,64.317535 L -0.49831128,58.23941 L 0.22434497,58.23941 L 0.22434497,60.606598 M 6.42747,64.723785 C 6.2243426,65.244618 6.0264261,65.584461 5.83372,65.743317 C 5.6410098,65.902169 5.3831976,65.981596 5.0602825,65.981598 L 4.4860637,65.981598 L 4.4860637,65.380035 L 4.9079387,65.380035 C 5.1058541,65.380034 5.2594998,65.333159 5.3688762,65.23941 C 5.4782496,65.14566 5.5993432,64.924306 5.7321575,64.575348 L 5.8610637,64.247223 L 4.0915325,59.942535 L 4.8532512,59.942535 L 6.2204387,63.36441 L 7.5876262,59.942535 L 8.349345,59.942535 L 6.42747,64.723785 M 15.415751,58.67691 L 15.415751,59.446442 C 15.116268,59.303218 14.833716,59.196447 14.568095,59.126129 C 14.302467,59.055822 14.045957,59.020666 13.798564,59.02066 C 13.368874,59.020666 13.036843,59.103999 12.80247,59.27066 C 12.570698,59.437332 12.454812,59.674311 12.454814,59.981598 C 12.454812,60.239415 12.531635,60.434727 12.685282,60.567535 C 12.841531,60.697747 13.135801,60.803216 13.568095,60.883942 L 14.044657,60.981598 C 14.633196,61.09358 15.066789,61.291497 15.345439,61.575348 C 15.626684,61.8566 15.767309,62.234204 15.767314,62.70816 C 15.767309,63.273266 15.577205,63.701651 15.197001,63.993317 C 14.819393,64.284983 14.264706,64.430817 13.532939,64.430817 C 13.256895,64.430817 12.962624,64.399567 12.650126,64.337067 C 12.340229,64.274567 12.018615,64.182119 11.685282,64.059723 L 11.685282,63.247223 C 12.005594,63.426911 12.319396,63.562328 12.626689,63.653473 C 12.933979,63.744619 13.236062,63.790192 13.532939,63.790192 C 13.983457,63.790192 14.331113,63.701651 14.575907,63.524567 C 14.820695,63.347484 14.943091,63.09488 14.943095,62.766754 C 14.943091,62.480298 14.85455,62.25634 14.67747,62.094879 C 14.502987,61.933423 14.215227,61.81233 13.814189,61.731598 L 13.33372,61.637848 C 12.745177,61.520663 12.319396,61.33707 12.056376,61.087067 C 11.793355,60.83707 11.661844,60.489414 11.661845,60.044098 C 11.661844,59.528478 11.842834,59.122228 12.204814,58.825348 C 12.569396,58.528479 13.070697,58.380041 13.70872,58.380035 C 13.982155,58.380041 14.2608,58.404781 14.544657,58.454254 C 14.828508,58.503739 15.118872,58.577958 15.415751,58.67691 M 16.982157,59.942535 L 17.700907,59.942535 L 17.700907,64.317535 L 16.982157,64.317535 L 16.982157,59.942535 M 16.982157,58.23941 L 17.700907,58.23941 L 17.700907,59.149567 L 16.982157,59.149567 L 16.982157,58.23941 M 19.200907,58.23941 L 19.919657,58.23941 L 19.919657,64.317535 L 19.200907,64.317535 L 19.200907,58.23941 M 20.904032,59.942535 L 21.665751,59.942535 L 23.032939,63.61441 L 24.400126,59.942535 L 25.161845,59.942535 L 23.52122,64.317535 L 22.544657,64.317535 L 20.904032,59.942535 M 29.89622,61.950348 L 29.89622,62.30191 L 26.591532,62.30191 C 26.622781,62.796704 26.771219,63.174307 27.036845,63.434723 C 27.305072,63.692536 27.677468,63.821442 28.154032,63.821442 C 28.430071,63.821442 28.696998,63.787588 28.954814,63.719879 C 29.215227,63.652172 29.473039,63.550609 29.728251,63.415192 L 29.728251,64.094879 C 29.470435,64.204254 29.206112,64.287588 28.935282,64.344879 C 28.664446,64.402171 28.389707,64.430817 28.111064,64.430817 C 27.413145,64.430817 26.85976,64.227692 26.450907,63.821442 C 26.044657,63.415193 25.841532,62.865714 25.841532,62.173004 C 25.841532,61.456861 26.03424,60.889154 26.419657,60.469879 C 26.807677,60.048009 27.329812,59.837071 27.986064,59.837067 C 28.574602,59.837071 29.039445,60.027175 29.380595,60.407379 C 29.724341,60.784987 29.896215,61.299309 29.89622,61.950348 M 29.17747,61.73941 C 29.172258,61.346184 29.061581,61.032383 28.845439,60.798004 C 28.631894,60.563633 28.34804,60.446446 27.993876,60.446442 C 27.592832,60.446446 27.271218,60.559727 27.029032,60.786285 C 26.789448,61.012851 26.651427,61.331861 26.61497,61.743317 L 29.17747,61.73941 M 33.849345,60.071442 L 33.849345,60.751129 C 33.646217,60.646966 33.435279,60.568841 33.216532,60.516754 C 32.99778,60.464675 32.771218,60.438633 32.536845,60.438629 C 32.180072,60.438633 31.911843,60.493321 31.732157,60.602692 C 31.555073,60.71207 31.466531,60.876133 31.466532,61.094879 C 31.466531,61.261549 31.530333,61.393059 31.657939,61.48941 C 31.785541,61.583163 32.042052,61.673007 32.42747,61.758942 L 32.673564,61.813629 C 33.183978,61.923007 33.545956,62.077954 33.759501,62.278473 C 33.975643,62.476392 34.083716,62.753735 34.08372,63.110504 C 34.083716,63.516755 33.922258,63.838369 33.599345,64.075348 C 33.279029,64.312327 32.837624,64.430817 32.275126,64.430817 C 32.040749,64.430817 31.795958,64.407379 31.540751,64.360504 C 31.288146,64.316233 31.021219,64.248525 30.73997,64.157379 L 30.73997,63.415192 C 31.005594,63.553213 31.267313,63.65738 31.525126,63.727692 C 31.782937,63.795401 32.038145,63.829255 32.290751,63.829254 C 32.629291,63.829255 32.889707,63.771963 33.072001,63.657379 C 33.25429,63.540193 33.345436,63.37613 33.345439,63.165192 C 33.345436,62.969881 33.279029,62.820141 33.14622,62.715973 C 33.016009,62.611808 32.728249,62.511548 32.282939,62.415192 L 32.032939,62.356598 C 31.587625,62.26285 31.266011,62.119621 31.068095,61.92691 C 30.870178,61.731601 30.77122,61.464674 30.77122,61.126129 C 30.77122,60.714675 30.917053,60.396966 31.20872,60.173004 C 31.500385,59.94905 31.914448,59.837071 32.450907,59.837067 C 32.71653,59.837071 32.96653,59.856602 33.200907,59.89566 C 33.435279,59.934727 33.651425,59.993321 33.849345,60.071442 M 35.92747,58.700348 L 35.92747,59.942535 L 37.407939,59.942535 L 37.407939,60.501129 L 35.92747,60.501129 L 35.92747,62.876129 C 35.927469,63.232901 35.975646,63.462068 36.072001,63.563629 C 36.170958,63.665192 36.370176,63.715974 36.669657,63.715973 L 37.407939,63.715973 L 37.407939,64.317535 L 36.669657,64.317535 C 36.114968,64.317535 35.732156,64.214671 35.52122,64.008942 C 35.310282,63.800609 35.204813,63.423005 35.204814,62.876129 L 35.204814,60.501129 L 34.67747,60.501129 L 34.67747,59.942535 L 35.204814,59.942535 L 35.204814,58.700348 L 35.92747,58.700348 M 40.892314,60.61441 C 40.811581,60.567539 40.72304,60.533685 40.626689,60.512848 C 40.532936,60.489414 40.428769,60.477696 40.314189,60.477692 C 39.907936,60.477696 39.595437,60.610508 39.376689,60.876129 C 39.160541,61.139153 39.052469,61.518059 39.05247,62.012848 L 39.05247,64.317535 L 38.329814,64.317535 L 38.329814,59.942535 L 39.05247,59.942535 L 39.05247,60.622223 C 39.20351,60.356602 39.400124,60.159988 39.642314,60.032379 C 39.884499,59.902175 40.178769,59.837071 40.525126,59.837067 C 40.574602,59.837071 40.62929,59.840977 40.689189,59.848785 C 40.749081,59.853998 40.815488,59.863113 40.888407,59.876129 L 40.892314,60.61441 M 45.380595,61.950348 L 45.380595,62.30191 L 42.075907,62.30191 C 42.107156,62.796704 42.255594,63.174307 42.52122,63.434723 C 42.789447,63.692536 43.161843,63.821442 43.638407,63.821442 C 43.914446,63.821442 44.181373,63.787588 44.439189,63.719879 C 44.699602,63.652172 44.957414,63.550609 45.212626,63.415192 L 45.212626,64.094879 C 44.95481,64.204254 44.690487,64.287588 44.419657,64.344879 C 44.148821,64.402171 43.874082,64.430817 43.595439,64.430817 C 42.89752,64.430817 42.344135,64.227692 41.935282,63.821442 C 41.529032,63.415193 41.325907,62.865714 41.325907,62.173004 C 41.325907,61.456861 41.518615,60.889154 41.904032,60.469879 C 42.292052,60.048009 42.814187,59.837071 43.470439,59.837067 C 44.058977,59.837071 44.52382,60.027175 44.86497,60.407379 C 45.208716,60.784987 45.38059,61.299309 45.380595,61.950348 M 44.661845,61.73941 C 44.656633,61.346184 44.545956,61.032383 44.329814,60.798004 C 44.116269,60.563633 43.832415,60.446446 43.478251,60.446442 C 43.077207,60.446446 42.755593,60.559727 42.513407,60.786285 C 42.273823,61.012851 42.135802,61.331861 42.099345,61.743317 L 44.661845,61.73941 M 49.122782,58.485504 L 49.911845,58.485504 L 49.911845,60.876129 L 52.779032,60.876129 L 52.779032,58.485504 L 53.568095,58.485504 L 53.568095,64.317535 L 52.779032,64.317535 L 52.779032,61.540192 L 49.911845,61.540192 L 49.911845,64.317535 L 49.122782,64.317535 L 49.122782,58.485504 M 58.849345,61.950348 L 58.849345,62.30191 L 55.544657,62.30191 C 55.575906,62.796704 55.724344,63.174307 55.98997,63.434723 C 56.258197,63.692536 56.630593,63.821442 57.107157,63.821442 C 57.383196,63.821442 57.650123,63.787588 57.907939,63.719879 C 58.168352,63.652172 58.426164,63.550609 58.681376,63.415192 L 58.681376,64.094879 C 58.42356,64.204254 58.159237,64.287588 57.888407,64.344879 C 57.617571,64.402171 57.342832,64.430817 57.064189,64.430817 C 56.36627,64.430817 55.812885,64.227692 55.404032,63.821442 C 54.997782,63.415193 54.794657,62.865714 54.794657,62.173004 C 54.794657,61.456861 54.987365,60.889154 55.372782,60.469879 C 55.760802,60.048009 56.282937,59.837071 56.939189,59.837067 C 57.527727,59.837071 57.99257,60.027175 58.33372,60.407379 C 58.677466,60.784987 58.84934,61.299309 58.849345,61.950348 M 58.130595,61.73941 C 58.125383,61.346184 58.014706,61.032383 57.798564,60.798004 C 57.585019,60.563633 57.301165,60.446446 56.947001,60.446442 C 56.545957,60.446446 56.224343,60.559727 55.982157,60.786285 C 55.742573,61.012851 55.604552,61.331861 55.568095,61.743317 L 58.130595,61.73941 M 62.548564,60.61441 C 62.467831,60.567539 62.37929,60.533685 62.282939,60.512848 C 62.189186,60.489414 62.085019,60.477696 61.970439,60.477692 C 61.564186,60.477696 61.251687,60.610508 61.032939,60.876129 C 60.816791,61.139153 60.708719,61.518059 60.70872,62.012848 L 60.70872,64.317535 L 59.986064,64.317535 L 59.986064,59.942535 L 60.70872,59.942535 L 60.70872,60.622223 C 60.85976,60.356602 61.056374,60.159988 61.298564,60.032379 C 61.540749,59.902175 61.835019,59.837071 62.181376,59.837067 C 62.230852,59.837071 62.28554,59.840977 62.345439,59.848785 C 62.405331,59.853998 62.471738,59.863113 62.544657,59.876129 L 62.548564,60.61441 M 65.829814,60.61441 C 65.749081,60.567539 65.66054,60.533685 65.564189,60.512848 C 65.470436,60.489414 65.366269,60.477696 65.251689,60.477692 C 64.845436,60.477696 64.532937,60.610508 64.314189,60.876129 C 64.098041,61.139153 63.989969,61.518059 63.98997,62.012848 L 63.98997,64.317535 L 63.267314,64.317535 L 63.267314,59.942535 L 63.98997,59.942535 L 63.98997,60.622223 C 64.14101,60.356602 64.337624,60.159988 64.579814,60.032379 C 64.821999,59.902175 65.116269,59.837071 65.462626,59.837067 C 65.512102,59.837071 65.56679,59.840977 65.626689,59.848785 C 65.686581,59.853998 65.752988,59.863113 65.825907,59.876129 L 65.829814,60.61441 M 70.318095,61.950348 L 70.318095,62.30191 L 67.013407,62.30191 C 67.044656,62.796704 67.193094,63.174307 67.45872,63.434723 C 67.726947,63.692536 68.099343,63.821442 68.575907,63.821442 C 68.851946,63.821442 69.118873,63.787588 69.376689,63.719879 C 69.637102,63.652172 69.894914,63.550609 70.150126,63.415192 L 70.150126,64.094879 C 69.89231,64.204254 69.627987,64.287588 69.357157,64.344879 C 69.086321,64.402171 68.811582,64.430817 68.532939,64.430817 C 67.83502,64.430817 67.281635,64.227692 66.872782,63.821442 C 66.466532,63.415193 66.263407,62.865714 66.263407,62.173004 C 66.263407,61.456861 66.456115,60.889154 66.841532,60.469879 C 67.229552,60.048009 67.751687,59.837071 68.407939,59.837067 C 68.996477,59.837071 69.46132,60.027175 69.80247,60.407379 C 70.146216,60.784987 70.31809,61.299309 70.318095,61.950348 M 69.599345,61.73941 C 69.594133,61.346184 69.483456,61.032383 69.267314,60.798004 C 69.053769,60.563633 68.769915,60.446446 68.415751,60.446442 C 68.014707,60.446446 67.693093,60.559727 67.450907,60.786285 C 67.211323,61.012851 67.073302,61.331861 67.036845,61.743317 L 69.599345,61.73941 M 74.017314,60.61441 C 73.936581,60.567539 73.84804,60.533685 73.751689,60.512848 C 73.657936,60.489414 73.553769,60.477696 73.439189,60.477692 C 73.032936,60.477696 72.720437,60.610508 72.501689,60.876129 C 72.285541,61.139153 72.177469,61.518059 72.17747,62.012848 L 72.17747,64.317535 L 71.454814,64.317535 L 71.454814,59.942535 L 72.17747,59.942535 L 72.17747,60.622223 C 72.32851,60.356602 72.525124,60.159988 72.767314,60.032379 C 73.009499,59.902175 73.303769,59.837071 73.650126,59.837067 C 73.699602,59.837071 73.75429,59.840977 73.814189,59.848785 C 73.874081,59.853998 73.940488,59.863113 74.013407,59.876129 L 74.017314,60.61441 M 76.751689,62.118317 C 76.170957,62.118319 75.768614,62.184725 75.544657,62.317535 C 75.320698,62.45035 75.208719,62.676912 75.20872,62.997223 C 75.208719,63.252432 75.292052,63.455557 75.45872,63.606598 C 75.627989,63.755036 75.857156,63.829255 76.14622,63.829254 C 76.544655,63.829255 76.863665,63.68863 77.103251,63.407379 C 77.345435,63.123526 77.466529,62.747225 77.466532,62.278473 L 77.466532,62.118317 L 76.751689,62.118317 M 78.185282,61.821442 L 78.185282,64.317535 L 77.466532,64.317535 L 77.466532,63.653473 C 77.302467,63.919098 77.09804,64.115713 76.853251,64.243317 C 76.608457,64.368317 76.308978,64.430817 75.954814,64.430817 C 75.506896,64.430817 75.150125,64.305817 74.884501,64.055817 C 74.62148,63.803213 74.489969,63.465974 74.48997,63.044098 C 74.489969,62.551912 74.654032,62.180819 74.982157,61.930817 C 75.312885,61.680819 75.805072,61.55582 76.45872,61.555817 L 77.466532,61.555817 L 77.466532,61.485504 C 77.466529,61.154778 77.357154,60.89957 77.138407,60.719879 C 76.922259,60.537591 76.617572,60.446446 76.224345,60.446442 C 75.974343,60.446446 75.730854,60.476394 75.493876,60.536285 C 75.256896,60.596185 75.029031,60.686029 74.810282,60.805817 L 74.810282,60.141754 C 75.073302,60.040196 75.32851,59.964675 75.575907,59.915192 C 75.823301,59.863113 76.064187,59.837071 76.298564,59.837067 C 76.931373,59.837071 77.404029,60.001134 77.716532,60.329254 C 78.029028,60.657383 78.185278,61.154778 78.185282,61.821442"
         style="font-size:12px;font-style:normal;font-weight:normal;line-height:125%;fill:#646464;fill-opacity:1;stroke:none;stroke-width:1px;stroke-linecap:butt;stroke-linejoin:miter;stroke-opacity:1;font-family:Bitstream Vera Sans" />
    </g>
    <path
       style="font-size:8px;font-style:normal;font-variant:normal;font-weight:bold;font-stretch:normal;text-align:start;line-height:125%;writing-mode:lr-tb;text-anchor:start;fill:#000000;fill-opacity:1;stroke:none;stroke-width:1px;stroke-linecap:butt;stroke-linejoin:miter;stroke-opacity:1;font-family:Bitstream Vera Sans"
       d="M 0.98828125,56.640625 L 0.98828125,60.199219 L 1.5273438,60.199219 C 2.1419237,60.19922 2.6106732,60.046876 2.9335938,59.742188 C 3.2591101,59.437502 3.4218703,58.994794 3.421875,58.414062 C 3.4218703,57.835941 3.2604122,57.395837 2.9375,57.09375 C 2.6145795,56.791671 2.1445279,56.64063 1.5273438,56.640625 L 0.98828125,56.640625 M -0.515625,55.503906 L 1.0703125,55.503906 C 1.955726,55.503912 2.6145795,55.567714 3.046875,55.695312 C 3.4817661,55.820318 3.8541616,56.033859 4.1640625,56.335938 C 4.4374943,56.598963 4.6406191,56.902348 4.7734375,57.246094 C 4.9062438,57.589847 4.97265,57.97917 4.9726562,58.414062 C 4.97265,58.854169 4.9062438,59.247398 4.7734375,59.59375 C 4.6406191,59.937501 4.4374943,60.240887 4.1640625,60.503906 C 3.8515574,60.80599 3.4765578,61.020834 3.0390625,61.148438 C 2.6015586,61.273438 1.9453093,61.335938 1.0703125,61.335938 L -0.515625,61.335938 L -0.515625,55.503906 M 8.1445312,57.855469 C 7.834633,57.855472 7.597654,57.967451 7.4335938,58.191406 C 7.2721335,58.412763 7.1914044,58.733076 7.1914062,59.152344 C 7.1914044,59.571616 7.2721335,59.893231 7.4335938,60.117188 C 7.597654,60.338543 7.834633,60.44922 8.1445312,60.449219 C 8.4492157,60.44922 8.6822884,60.338543 8.84375,60.117188 C 9.0052047,59.893231 9.0859338,59.571616 9.0859375,59.152344 C 9.0859338,58.733076 9.0052047,58.412763 8.84375,58.191406 C 8.6822884,57.967451 8.4492157,57.855472 8.1445312,57.855469 M 8.1445312,56.855469 C 8.8971319,56.855473 9.4843709,57.058598 9.90625,57.464844 C 10.330724,57.871097 10.542964,58.433597 10.542969,59.152344 C 10.542964,59.871095 10.330724,60.433595 9.90625,60.839844 C 9.4843709,61.246094 8.8971319,61.449219 8.1445312,61.449219 C 7.3893209,61.449219 6.7981757,61.246094 6.3710938,60.839844 C 5.946614,60.433595 5.7343747,59.871095 5.734375,59.152344 C 5.7343747,58.433597 5.946614,57.871097 6.3710938,57.464844 C 6.7981757,57.058598 7.3893209,56.855473 8.1445312,56.855469 M 15.097656,57.097656 L 15.097656,58.238281 C 14.907548,58.108076 14.716142,58.011722 14.523438,57.949219 C 14.33333,57.886722 14.135413,57.855472 13.929688,57.855469 C 13.53906,57.855472 13.234373,57.970055 13.015625,58.199219 C 12.799477,58.425784 12.691404,58.743492 12.691406,59.152344 C 12.691404,59.5612 12.799477,59.88021 13.015625,60.109375 C 13.234373,60.335938 13.53906,60.44922 13.929688,60.449219 C 14.148434,60.44922 14.355465,60.416668 14.550781,60.351562 C 14.748694,60.286459 14.930986,60.190105 15.097656,60.0625 L 15.097656,61.207031 C 14.878902,61.28776 14.656246,61.347656 14.429688,61.386719 C 14.205726,61.428385 13.980466,61.449219 13.753906,61.449219 C 12.964842,61.449219 12.347655,61.247396 11.902344,60.84375 C 11.457031,60.437501 11.234375,59.873699 11.234375,59.152344 C 11.234375,58.430992 11.457031,57.868493 11.902344,57.464844 C 12.347655,57.058598 12.964842,56.855473 13.753906,56.855469 C 13.98307,56.855473 14.20833,56.876307 14.429688,56.917969 C 14.653642,56.957036 14.876298,57.016931 15.097656,57.097656 M 16.265625,59.632812 L 16.265625,56.960938 L 17.671875,56.960938 L 17.671875,57.398438 C 17.671873,57.63542 17.670571,57.933597 17.667969,58.292969 C 17.665363,58.649742 17.66406,58.888023 17.664062,59.007812 C 17.66406,59.359377 17.673175,59.613283 17.691406,59.769531 C 17.709633,59.923178 17.740883,60.035158 17.785156,60.105469 C 17.842446,60.196616 17.916664,60.266928 18.007812,60.316406 C 18.10156,60.365886 18.208331,60.390626 18.328125,60.390625 C 18.619789,60.390626 18.848955,60.278647 19.015625,60.054688 C 19.182288,59.830731 19.265621,59.519533 19.265625,59.121094 L 19.265625,56.960938 L 20.664062,56.960938 L 20.664062,61.335938 L 19.265625,61.335938 L 19.265625,60.703125 C 19.054684,60.958334 18.830726,61.147136 18.59375,61.269531 C 18.359372,61.389323 18.100258,61.449219 17.816406,61.449219 C 17.311196,61.449219 16.92578,61.294271 16.660156,60.984375 C 16.397135,60.67448 16.265624,60.223959 16.265625,59.632812 M 26.070312,57.6875 C 26.247391,57.416671 26.457026,57.210942 26.699219,57.070312 C 26.944005,56.927088 27.212234,56.855473 27.503906,56.855469 C 28.006504,56.855473 28.389316,57.010421 28.652344,57.320312 C 28.915357,57.630212 29.046867,58.080732 29.046875,58.671875 L 29.046875,61.335938 L 27.640625,61.335938 L 27.640625,59.054688 C 27.643223,59.020836 27.644525,58.985679 27.644531,58.949219 C 27.647129,58.912763 27.648431,58.86068 27.648438,58.792969 C 27.648431,58.483076 27.602858,58.259118 27.511719,58.121094 C 27.420567,57.980472 27.273432,57.91016 27.070312,57.910156 C 26.804682,57.91016 26.598953,58.019535 26.453125,58.238281 C 26.309891,58.457034 26.235672,58.77344 26.230469,59.1875 L 26.230469,61.335938 L 24.824219,61.335938 L 24.824219,59.054688 C 24.824215,58.570315 24.782549,58.259118 24.699219,58.121094 C 24.615882,57.980472 24.467445,57.91016 24.253906,57.910156 C 23.985674,57.91016 23.778643,58.020837 23.632812,58.242188 C 23.486977,58.46094 23.41406,58.774742 23.414062,59.183594 L 23.414062,61.335938 L 22.007812,61.335938 L 22.007812,56.960938 L 23.414062,56.960938 L 23.414062,57.601562 C 23.585935,57.354171 23.78255,57.167973 24.003906,57.042969 C 24.227862,56.917973 24.473955,56.855473 24.742188,56.855469 C 25.044267,56.855473 25.311194,56.92839 25.542969,57.074219 C 25.774735,57.220056 25.950516,57.424483 26.070312,57.6875 M 34.726562,59.136719 L 34.726562,59.535156 L 31.457031,59.535156 C 31.490884,59.863283 31.609373,60.109376 31.8125,60.273438 C 32.015623,60.437501 32.299477,60.519532 32.664062,60.519531 C 32.95833,60.519532 33.259111,60.476563 33.566406,60.390625 C 33.876298,60.302084 34.194006,60.169272 34.519531,59.992188 L 34.519531,61.070312 C 34.188798,61.195313 33.858069,61.289063 33.527344,61.351562 C 33.196611,61.416667 32.865882,61.449219 32.535156,61.449219 C 31.743488,61.449219 31.127603,61.248698 30.6875,60.847656 C 30.249999,60.444011 30.03125,59.878908 30.03125,59.152344 C 30.03125,58.438805 30.246093,57.877608 30.675781,57.46875 C 31.108071,57.0599 31.701821,56.855473 32.457031,56.855469 C 33.144528,56.855473 33.694006,57.062504 34.105469,57.476562 C 34.519526,57.890628 34.726557,58.444013 34.726562,59.136719 M 33.289062,58.671875 C 33.289059,58.406253 33.210934,58.192711 33.054688,58.03125 C 32.901038,57.867191 32.699216,57.78516 32.449219,57.785156 C 32.178383,57.78516 31.958331,57.861983 31.789062,58.015625 C 31.61979,58.16667 31.514321,58.38542 31.472656,58.671875 L 33.289062,58.671875 M 40.195312,58.671875 L 40.195312,61.335938 L 38.789062,61.335938 L 38.789062,60.902344 L 38.789062,59.296875 C 38.789059,58.919273 38.779944,58.658857 38.761719,58.515625 C 38.74609,58.372399 38.717444,58.26693 38.675781,58.199219 C 38.62109,58.108076 38.546872,58.037764 38.453125,57.988281 C 38.359372,57.936201 38.252601,57.91016 38.132812,57.910156 C 37.841143,57.91016 37.611977,58.023441 37.445312,58.25 C 37.278644,58.473961 37.19531,58.785159 37.195312,59.183594 L 37.195312,61.335938 L 35.796875,61.335938 L 35.796875,56.960938 L 37.195312,56.960938 L 37.195312,57.601562 C 37.406248,57.346358 37.630206,57.158858 37.867188,57.039062 C 38.104164,56.916671 38.365882,56.855473 38.652344,56.855469 C 39.157548,56.855473 39.54036,57.010421 39.800781,57.320312 C 40.063797,57.630212 40.195307,58.080732 40.195312,58.671875 M 43.027344,55.71875 L 43.027344,56.960938 L 44.46875,56.960938 L 44.46875,57.960938 L 43.027344,57.960938 L 43.027344,59.816406 C 43.027342,60.019533 43.067706,60.157553 43.148438,60.230469 C 43.229164,60.300782 43.38932,60.335938 43.628906,60.335938 L 44.347656,60.335938 L 44.347656,61.335938 L 43.148438,61.335938 C 42.596352,61.335938 42.204426,61.221354 41.972656,60.992188 C 41.743489,60.760417 41.628905,60.368491 41.628906,59.816406 L 41.628906,57.960938 L 40.933594,57.960938 L 40.933594,56.960938 L 41.628906,56.960938 L 41.628906,55.71875 L 43.027344,55.71875 M 50.835938,56.488281 C 50.377601,56.488286 50.022133,56.657557 49.769531,56.996094 C 49.516925,57.334639 49.390623,57.811201 49.390625,58.425781 C 49.390623,59.037763 49.516925,59.513023 49.769531,59.851562 C 50.022133,60.190105 50.377601,60.359376 50.835938,60.359375 C 51.296871,60.359376 51.653642,60.190105 51.90625,59.851562 C 52.158849,59.513023 52.285151,59.037763 52.285156,58.425781 C 52.285151,57.811201 52.158849,57.334639 51.90625,56.996094 C 51.653642,56.657557 51.296871,56.488286 50.835938,56.488281 M 50.835938,55.398438 C 51.773433,55.398443 52.507807,55.666672 53.039062,56.203125 C 53.570306,56.739588 53.835931,57.480473 53.835938,58.425781 C 53.835931,59.368492 53.570306,60.108074 53.039062,60.644531 C 52.507807,61.18099 51.773433,61.449219 50.835938,61.449219 C 49.901039,61.449219 49.166665,61.18099 48.632812,60.644531 C 48.101562,60.108074 47.835937,59.368492 47.835938,58.425781 C 47.835937,57.480473 48.101562,56.739588 48.632812,56.203125 C 49.166665,55.666672 49.901039,55.398443 50.835938,55.398438 M 56.304688,60.703125 L 56.304688,63 L 54.90625,63 L 54.90625,56.960938 L 56.304688,56.960938 L 56.304688,57.601562 C 56.497394,57.346358 56.710935,57.158858 56.945312,57.039062 C 57.179685,56.916671 57.449216,56.855473 57.753906,56.855469 C 58.292965,56.855473 58.735673,57.070317 59.082031,57.5 C 59.42838,57.927087 59.601557,58.477867 59.601562,59.152344 C 59.601557,59.826824 59.42838,60.378907 59.082031,60.808594 C 58.735673,61.235677 58.292965,61.449219 57.753906,61.449219 C 57.449216,61.449219 57.179685,61.389323 56.945312,61.269531 C 56.710935,61.147136 56.497394,60.958334 56.304688,60.703125 M 57.234375,57.871094 C 56.934893,57.871097 56.704425,57.981774 56.542969,58.203125 C 56.384112,58.421878 56.304685,58.738284 56.304688,59.152344 C 56.304685,59.566408 56.384112,59.884116 56.542969,60.105469 C 56.704425,60.32422 56.934893,60.433595 57.234375,60.433594 C 57.533851,60.433595 57.761715,60.32422 57.917969,60.105469 C 58.076819,59.88672 58.156246,59.569012 58.15625,59.152344 C 58.156246,58.73568 58.076819,58.417972 57.917969,58.199219 C 57.761715,57.980472 57.533851,57.871097 57.234375,57.871094 M 65.007812,59.136719 L 65.007812,59.535156 L 61.738281,59.535156 C 61.772134,59.863283 61.890623,60.109376 62.09375,60.273438 C 62.296873,60.437501 62.580727,60.519532 62.945312,60.519531 C 63.23958,60.519532 63.540361,60.476563 63.847656,60.390625 C 64.157548,60.302084 64.475256,60.169272 64.800781,59.992188 L 64.800781,61.070312 C 64.470048,61.195313 64.139319,61.289063 63.808594,61.351562 C 63.477861,61.416667 63.147132,61.449219 62.816406,61.449219 C 62.024738,61.449219 61.408853,61.248698 60.96875,60.847656 C 60.531249,60.444011 60.3125,59.878908 60.3125,59.152344 C 60.3125,58.438805 60.527343,57.877608 60.957031,57.46875 C 61.389321,57.0599 61.983071,56.855473 62.738281,56.855469 C 63.425778,56.855473 63.975256,57.062504 64.386719,57.476562 C 64.800776,57.890628 65.007807,58.444013 65.007812,59.136719 M 63.570312,58.671875 C 63.570309,58.406253 63.492184,58.192711 63.335938,58.03125 C 63.182288,57.867191 62.980466,57.78516 62.730469,57.785156 C 62.459633,57.78516 62.239581,57.861983 62.070312,58.015625 C 61.90104,58.16667 61.795571,58.38542 61.753906,58.671875 L 63.570312,58.671875 M 70.476562,58.671875 L 70.476562,61.335938 L 69.070312,61.335938 L 69.070312,60.902344 L 69.070312,59.296875 C 69.070309,58.919273 69.061194,58.658857 69.042969,58.515625 C 69.02734,58.372399 68.998694,58.26693 68.957031,58.199219 C 68.90234,58.108076 68.828122,58.037764 68.734375,57.988281 C 68.640622,57.936201 68.533851,57.91016 68.414062,57.910156 C 68.122393,57.91016 67.893227,58.023441 67.726562,58.25 C 67.559894,58.473961 67.47656,58.785159 67.476562,59.183594 L 67.476562,61.335938 L 66.078125,61.335938 L 66.078125,56.960938 L 67.476562,56.960938 L 67.476562,57.601562 C 67.687498,57.346358 67.911456,57.158858 68.148438,57.039062 C 68.385414,56.916671 68.647132,56.855473 68.933594,56.855469 C 69.438798,56.855473 69.82161,57.010421 70.082031,57.320312 C 70.345047,57.630212 70.476557,58.080732 70.476562,58.671875"
       id="text1399" />
  </g>
  <g
     inkscape:groupmode="layer"
     id="layer3"
     inkscape:label="folder-color">
    <path
       style="fill:#dfbc7a;fill-opacity:1;fill-rule:evenodd;stroke:#807148;stroke-width:0.99999958px;stroke-linecap:butt;stroke-linejoin:round;stroke-opacity:1"
       d="M 43.600781,1.5008054 C 40.710152,6.4198824 30.540861,7.497919 20.49821,8.6427856 L 20.49821,47.5 C 26.814122,46.557202 36.561443,44.643148 43.600781,41.326424 L 43.600781,1.5008054 z "
       id="path2182"
       sodipodi:nodetypes="ccccc" />
  </g>
  <g
     inkscape:groupmode="layer"
     id="layer2"
     inkscape:label="lights"
     sodipodi:insensitive="true">
    <path
       style="fill:url(#radialGradient1372);fill-opacity:1;fill-rule:evenodd;stroke:none;stroke-width:0.99999905px;stroke-linecap:butt;stroke-linejoin:round;stroke-opacity:1"
       d="M 43,3 C 39.286547,6.6597237 30.563364,8.1031665 21,9.3050897 L 21,47 C 30.484379,45.462557 38.314094,43.445442 43,41.012839 L 43,3 z "
       id="path2252"
       sodipodi:nodetypes="ccccc" />
    <path
       style="fill:url(#radialGradient1374);fill-opacity:1;fill-rule:evenodd;stroke:none;stroke-width:0.99999905px;stroke-linecap:butt;stroke-linejoin:round;stroke-opacity:1"
       d="M 42.553534,3.4886564 C 38.915441,7.6529878 30.369286,8.3972241 21,9.55667 L 21,46.522318 C 30.237013,44.894331 38.309819,42.714617 42.553534,40.746748 L 42.553534,3.4886564 z "
       id="path1364"
       sodipodi:nodetypes="ccccc" />
    <path
       style="fill:none;fill-opacity:1;fill-rule:evenodd;stroke:url(#linearGradient1376);stroke-width:0.99999887px;stroke-linecap:butt;stroke-linejoin:round;stroke-opacity:1"
       d="M 42.646017,3.4886564 C 39.078256,7.6529878 30.697315,8.3972241 21.509156,9.55667 L 21.509156,46.522318 C 30.823641,44.894331 38.52751,42.839617 42.646017,40.746748 L 42.646017,3.4886564 z "
       id="path2204"
       sodipodi:nodetypes="ccccc" />
  </g>
</svg>
