<?xml version="1.0" encoding="UTF-8" standalone="no"?>
<!-- Created with Inkscape (http://www.inkscape.org/) -->
<svg
   xmlns:dc="http://purl.org/dc/elements/1.1/"
   xmlns:cc="http://web.resource.org/cc/"
   xmlns:rdf="http://www.w3.org/1999/02/22-rdf-syntax-ns#"
   xmlns:svg="http://www.w3.org/2000/svg"
   xmlns="http://www.w3.org/2000/svg"
   xmlns:xlink="http://www.w3.org/1999/xlink"
   xmlns:sodipodi="http://inkscape.sourceforge.net/DTD/sodipodi-0.dtd"
   xmlns:inkscape="http://www.inkscape.org/namespaces/inkscape"
   width="48"
   height="48"
   id="svg2"
   sodipodi:version="0.32"
   inkscape:version="0.43"
   version="1.0"
   sodipodi:docbase="/home/silvestre/Gion/scalable/actions"
   sodipodi:docname="go-down.svg"
   inkscape:export-filename="/home/silvestre/Desktop/Gion/PNGs/go-down.png"
   inkscape:export-xdpi="90"
   inkscape:export-ydpi="90">
  <defs
     id="defs4">
    <linearGradient
       inkscape:collect="always"
       id="linearGradient2218">
      <stop
         style="stop-color:#000000;stop-opacity:1;"
         offset="0"
         id="stop2220" />
      <stop
         style="stop-color:#000000;stop-opacity:0;"
         offset="1"
         id="stop2222" />
    </linearGradient>
    <linearGradient
       id="linearGradient2204">
      <stop
         style="stop-color:#000000;stop-opacity:0"
         offset="0"
         id="stop2206" />
      <stop
         id="stop2212"
         offset="0.5"
         style="stop-color:#000000;stop-opacity:0;" />
      <stop
         style="stop-color:#000000;stop-opacity:0.06060606;"
         offset="0.75"
         id="stop2214" />
      <stop
         style="stop-color:#000000;stop-opacity:0.24892704"
         offset="1"
         id="stop2208" />
    </linearGradient>
    <linearGradient
       id="linearGradient2196"
       inkscape:collect="always">
      <stop
         id="stop2198"
         offset="0"
         style="stop-color:#ffffff;stop-opacity:1;" />
      <stop
         id="stop2200"
         offset="1"
         style="stop-color:#ffffff;stop-opacity:0" />
    </linearGradient>
    <linearGradient
       inkscape:collect="always"
       id="linearGradient2184">
      <stop
         style="stop-color:#ffffff;stop-opacity:1;"
         offset="0"
         id="stop2186" />
      <stop
         style="stop-color:#ffffff;stop-opacity:0;"
         offset="1"
         id="stop2188" />
    </linearGradient>
    <radialGradient
       inkscape:collect="always"
       xlink:href="#linearGradient2196"
       id="radialGradient2190"
       cx="23.821341"
       cy="19.220688"
       fx="23.821341"
       fy="11.559587"
       r="20.724566"
       gradientUnits="userSpaceOnUse" />
    <radialGradient
       inkscape:collect="always"
       xlink:href="#linearGradient2184"
       id="radialGradient2194"
       gradientUnits="userSpaceOnUse"
       cx="21.955513"
       cy="41.559357"
       fx="21.955513"
       fy="43.898674"
       r="20.724566"
       gradientTransform="matrix(0.592713,-6.494147e-8,6.494147e-8,0.592713,10.80802,15.56962)" />
    <radialGradient
       inkscape:collect="always"
       xlink:href="#linearGradient2204"
       id="radialGradient2210"
       cx="20.053436"
       cy="19.070505"
       fx="20.053436"
       fy="19.070505"
       r="20.724566"
       gradientUnits="userSpaceOnUse"
       gradientTransform="matrix(1.602242,-1.930651e-16,1.930651e-16,1.602242,-13.98654,-13.89271)" />
    <radialGradient
       inkscape:collect="always"
       xlink:href="#linearGradient2218"
       id="radialGradient2224"
       cx="24.416874"
       cy="42.401985"
       fx="24.416874"
       fy="46.508305"
       r="23.702232"
       gradientTransform="matrix(1,0,0,0.226131,1.626303e-18,32.8136)"
       gradientUnits="userSpaceOnUse" />
  </defs>
  <sodipodi:namedview
     id="base"
     pagecolor="#ffffff"
     bordercolor="#666666"
     borderopacity="1.0"
     inkscape:pageopacity="0.0"
     inkscape:pageshadow="2"
     inkscape:zoom="1"
     inkscape:cx="33.755357"
     inkscape:cy="8.95432"
     inkscape:document-units="px"
     inkscape:current-layer="layer1"
     inkscape:showpageshadow="false"
     showgrid="false"
     inkscape:grid-bbox="false"
     inkscape:window-width="897"
     inkscape:window-height="590"
     inkscape:window-x="6"
     inkscape:window-y="44"
     showborder="false" />
  <metadata
     id="metadata7">
    <rdf:RDF>
      <cc:Work
         rdf:about="">
        <dc:format>image/svg+xml</dc:format>
        <dc:type
           rdf:resource="http://purl.org/dc/dcmitype/StillImage" />
        <dc:title>Go Down</dc:title>
        <dc:creator>
          <cc:Agent>
            <dc:title>Silvestre Herrera</dc:title>
          </cc:Agent>
        </dc:creator>
        <cc:license
           rdf:resource="http://creativecommons.org/licenses/GPL/2.0/" />
      </cc:Work>
      <cc:License
         rdf:about="http://creativecommons.org/licenses/GPL/2.0/">
        <cc:permits
           rdf:resource="http://web.resource.org/cc/Reproduction" />
        <cc:permits
           rdf:resource="http://web.resource.org/cc/Distribution" />
        <cc:requires
           rdf:resource="http://web.resource.org/cc/Notice" />
        <cc:permits
           rdf:resource="http://web.resource.org/cc/DerivativeWorks" />
        <cc:requires
           rdf:resource="http://web.resource.org/cc/ShareAlike" />
        <cc:requires
           rdf:resource="http://web.resource.org/cc/SourceCode" />
      </cc:License>
    </rdf:RDF>
  </metadata>
  <g
     inkscape:label="Capa 1"
     inkscape:groupmode="layer"
     id="layer1">
    <path
       sodipodi:type="arc"
       style="opacity:0.37229435;fill:url(#radialGradient2224);fill-opacity:1;stroke:none;stroke-width:1;stroke-linecap:round;stroke-linejoin:miter;stroke-miterlimit:4;stroke-dasharray:none;stroke-dashoffset:0;stroke-opacity:1"
       id="path2216"
       sodipodi:cx="24.416874"
       sodipodi:cy="42.401985"
       sodipodi:rx="23.702232"
       sodipodi:ry="5.3598013"
       d="M 48.119106 42.401985 A 23.702232 5.3598013 0 1 1  0.71464157,42.401985 A 23.702232 5.3598013 0 1 1  48.119106 42.401985 z"
       transform="matrix(0.885993,0,0,1.026156,2.366833,-1.011074)" />
    <path
       sodipodi:type="arc"
       style="opacity:1;fill:#75c922;fill-opacity:1;stroke:#4c8b3c;stroke-width:1.01082706;stroke-linecap:round;stroke-linejoin:miter;stroke-miterlimit:4;stroke-dasharray:none;stroke-dashoffset:0;stroke-opacity:1"
       id="path1307"
       sodipodi:cx="23.821341"
       sodipodi:cy="23.821341"
       sodipodi:rx="20.724566"
       sodipodi:ry="20.724566"
       d="M 44.545906 23.821341 A 20.724566 20.724566 0 1 1  3.0967751,23.821341 A 20.724566 20.724566 0 1 1  44.545906 23.821341 z"
       transform="matrix(0.989171,0,0,0.989408,0.441812,0.431267)" />
    <path
       style="opacity:1;fill:#ffffff;fill-opacity:1;stroke:none;stroke-width:1;stroke-linecap:round;stroke-linejoin:miter;stroke-miterlimit:4;stroke-dasharray:none;stroke-dashoffset:0;stroke-opacity:0.63948502"
       d="M 24.5,37 C 25.520003,37 26.551556,35.977 26.551556,35.977 L 29.264707,33.286954 L 38,24.626048 L 33.235294,19.901916 L 28.991728,24.109347 L 28.991728,16.271723 C 28.991728,10.600371 20.039807,10.551865 20.039807,16.271723 L 20.039807,24.109347 L 15.764707,19.901916 L 11,24.626048 L 20.008273,33.557607 L 22.471543,35.977 C 22.471543,35.977 23.479997,37 24.5,37 z "
       id="rect2226"
       sodipodi:nodetypes="cccccccccccccs" />
    <path
       style="font-size:8px;font-style:normal;font-variant:normal;font-weight:bold;font-stretch:normal;text-align:start;line-height:125%;writing-mode:lr-tb;text-anchor:start;fill:#000000;fill-opacity:1;stroke:none;stroke-width:1px;stroke-linecap:butt;stroke-linejoin:miter;stroke-opacity:1;font-family:Bitstream Vera Sans"
       d="M 5.578125,57.453125 C 5.2031194,57.635417 4.8137969,57.772136 4.4101562,57.863281 C 4.006506,57.954427 3.5898398,58 3.1601562,58 C 2.1887995,58 1.419269,57.729167 0.8515625,57.1875 C 0.28385348,56.64323 -3.984375e-07,55.906252 0,54.976562 C -3.984375e-07,54.036462 0.28906181,53.29688 0.8671875,52.757812 C 1.4453107,52.218756 2.2369765,51.949225 3.2421875,51.949219 C 3.6302043,51.949225 4.0012977,51.985683 4.3554688,52.058594 C 4.7122345,52.131516 5.0481716,52.239589 5.3632812,52.382812 L 5.3632812,53.589844 C 5.037755,53.404952 4.7135366,53.266932 4.390625,53.175781 C 4.070308,53.08464 3.7486938,53.039067 3.4257812,53.039062 C 2.8268197,53.039067 2.3645806,53.207036 2.0390625,53.542969 C 1.7161437,53.876306 1.5546855,54.35417 1.5546875,54.976562 C 1.5546855,55.593752 1.7109354,56.070314 2.0234375,56.40625 C 2.3359348,56.742189 2.7799447,56.910157 3.3554688,56.910156 C 3.5117148,56.910157 3.6562459,56.901043 3.7890625,56.882812 C 3.9244748,56.86198 4.0455685,56.83073 4.1523438,56.789062 L 4.1523438,55.65625 L 3.234375,55.65625 L 3.234375,54.648438 L 5.578125,54.648438 L 5.578125,57.453125 M 8.9179688,54.40625 C 8.6080705,54.406253 8.3710915,54.518233 8.2070312,54.742188 C 8.045571,54.963545 7.9648419,55.283857 7.9648438,55.703125 C 7.9648419,56.122398 8.045571,56.444012 8.2070312,56.667969 C 8.3710915,56.889324 8.6080705,57.000001 8.9179688,57 C 9.2226532,57.000001 9.4557259,56.889324 9.6171875,56.667969 C 9.7786422,56.444012 9.8593713,56.122398 9.859375,55.703125 C 9.8593713,55.283857 9.7786422,54.963545 9.6171875,54.742188 C 9.4557259,54.518233 9.2226532,54.406253 8.9179688,54.40625 M 8.9179688,53.40625 C 9.6705694,53.406254 10.257808,53.609379 10.679688,54.015625 C 11.104162,54.421878 11.316401,54.984378 11.316406,55.703125 C 11.316401,56.421876 11.104162,56.984376 10.679688,57.390625 C 10.257808,57.796875 9.6705694,58 8.9179688,58 C 8.1627584,58 7.5716132,57.796875 7.1445312,57.390625 C 6.7200515,56.984376 6.5078122,56.421876 6.5078125,55.703125 C 6.5078122,54.984378 6.7200515,54.421878 7.1445312,54.015625 C 7.5716132,53.609379 8.1627584,53.406254 8.9179688,53.40625"
       id="text2253"
       sodipodi:nodetypes="csssssssccssssssscccccccsssssssccsssssssc" />
    <path
       style="font-size:8px;font-style:normal;font-variant:normal;font-weight:normal;font-stretch:normal;text-align:start;line-height:125%;writing-mode:lr-tb;text-anchor:start;fill:#646464;fill-opacity:1;stroke:none;stroke-width:1px;stroke-linecap:butt;stroke-linejoin:miter;stroke-opacity:1;font-family:Bitstream Vera Sans"
       d="M 3.4960938,62.703125 C 3.4960899,62.174482 3.386715,61.76042 3.1679688,61.460938 C 2.9518196,61.158858 2.6536428,61.007816 2.2734375,61.007812 C 1.8932269,61.007816 1.593748,61.158858 1.375,61.460938 C 1.1588526,61.76042 1.0507798,62.174482 1.0507812,62.703125 C 1.0507798,63.231772 1.1588526,63.647137 1.375,63.949219 C 1.593748,64.248699 1.8932269,64.398438 2.2734375,64.398438 C 2.6536428,64.398438 2.9518196,64.248699 3.1679688,63.949219 C 3.386715,63.647137 3.4960899,63.231772 3.4960938,62.703125 M 1.0507812,61.175781 C 1.2018213,60.915369 1.3919253,60.72266 1.6210938,60.597656 C 1.8528623,60.470056 2.1289037,60.406254 2.4492188,60.40625 C 2.9804654,60.406254 3.4114545,60.617192 3.7421875,61.039062 C 4.0755164,61.460941 4.2421829,62.015628 4.2421875,62.703125 C 4.2421829,63.390626 4.0755164,63.945313 3.7421875,64.367188 C 3.4114545,64.789063 2.9804654,65 2.4492188,65 C 2.1289037,65 1.8528623,64.9375 1.6210938,64.8125 C 1.3919253,64.684896 1.2018213,64.490886 1.0507812,64.230469 L 1.0507812,64.886719 L 0.328125,64.886719 L 0.328125,58.808594 L 1.0507812,58.808594 L 1.0507812,61.175781 M 7.2539062,65.292969 C 7.0507789,65.813801 6.8528624,66.153645 6.6601562,66.3125 C 6.4674461,66.471353 6.2096339,66.55078 5.8867188,66.550781 L 5.3125,66.550781 L 5.3125,65.949219 L 5.734375,65.949219 C 5.9322904,65.949218 6.0859361,65.902343 6.1953125,65.808594 C 6.3046859,65.714843 6.4257795,65.493489 6.5585938,65.144531 L 6.6875,64.816406 L 4.9179688,60.511719 L 5.6796875,60.511719 L 7.046875,63.933594 L 8.4140625,60.511719 L 9.1757812,60.511719 L 7.2539062,65.292969 M 16.242188,59.246094 L 16.242188,60.015625 C 15.942704,59.872401 15.660153,59.76563 15.394531,59.695312 C 15.128903,59.625005 14.872393,59.589849 14.625,59.589844 C 14.19531,59.589849 13.863279,59.673182 13.628906,59.839844 C 13.397134,60.006515 13.281249,60.243494 13.28125,60.550781 C 13.281249,60.808598 13.358072,61.00391 13.511719,61.136719 C 13.667967,61.266931 13.962238,61.372399 14.394531,61.453125 L 14.871094,61.550781 C 15.459632,61.662764 15.893225,61.86068 16.171875,62.144531 C 16.453121,62.425784 16.593745,62.803387 16.59375,63.277344 C 16.593745,63.842449 16.403641,64.270834 16.023438,64.5625 C 15.64583,64.854167 15.091143,65 14.359375,65 C 14.083331,65 13.789061,64.96875 13.476562,64.90625 C 13.166665,64.84375 12.845051,64.751302 12.511719,64.628906 L 12.511719,63.816406 C 12.83203,63.996095 13.145832,64.131511 13.453125,64.222656 C 13.760415,64.313803 14.062498,64.359376 14.359375,64.359375 C 14.809893,64.359376 15.157549,64.270834 15.402344,64.09375 C 15.647132,63.916668 15.769527,63.664064 15.769531,63.335938 C 15.769527,63.049481 15.680986,62.825523 15.503906,62.664062 C 15.329424,62.502607 15.041664,62.381513 14.640625,62.300781 L 14.160156,62.207031 C 13.571613,62.089847 13.145832,61.906253 12.882812,61.65625 C 12.619791,61.406253 12.488281,61.058598 12.488281,60.613281 C 12.488281,60.097661 12.66927,59.691411 13.03125,59.394531 C 13.395832,59.097662 13.897133,58.949225 14.535156,58.949219 C 14.808591,58.949225 15.087236,58.973964 15.371094,59.023438 C 15.654944,59.072922 15.945309,59.147141 16.242188,59.246094 M 17.808594,60.511719 L 18.527344,60.511719 L 18.527344,64.886719 L 17.808594,64.886719 L 17.808594,60.511719 M 17.808594,58.808594 L 18.527344,58.808594 L 18.527344,59.71875 L 17.808594,59.71875 L 17.808594,58.808594 M 20.027344,58.808594 L 20.746094,58.808594 L 20.746094,64.886719 L 20.027344,64.886719 L 20.027344,58.808594 M 21.730469,60.511719 L 22.492188,60.511719 L 23.859375,64.183594 L 25.226562,60.511719 L 25.988281,60.511719 L 24.347656,64.886719 L 23.371094,64.886719 L 21.730469,60.511719 M 30.722656,62.519531 L 30.722656,62.871094 L 27.417969,62.871094 C 27.449218,63.365887 27.597655,63.743491 27.863281,64.003906 C 28.131509,64.261719 28.503904,64.390625 28.980469,64.390625 C 29.256507,64.390625 29.523434,64.356771 29.78125,64.289062 C 30.041663,64.221355 30.299475,64.119792 30.554688,63.984375 L 30.554688,64.664062 C 30.296871,64.773438 30.032548,64.856771 29.761719,64.914062 C 29.490882,64.971354 29.216143,65 28.9375,65 C 28.239581,65 27.686196,64.796875 27.277344,64.390625 C 26.871093,63.984376 26.667968,63.434897 26.667969,62.742188 C 26.667968,62.026045 26.860676,61.458337 27.246094,61.039062 C 27.634113,60.617192 28.156248,60.406254 28.8125,60.40625 C 29.401038,60.406254 29.865882,60.596358 30.207031,60.976562 C 30.550777,61.35417 30.722652,61.868493 30.722656,62.519531 M 30.003906,62.308594 C 29.998694,61.915368 29.888017,61.601566 29.671875,61.367188 C 29.45833,61.132816 29.174476,61.015629 28.820312,61.015625 C 28.419269,61.015629 28.097654,61.12891 27.855469,61.355469 C 27.615884,61.582035 27.477863,61.901045 27.441406,62.3125 L 30.003906,62.308594 M 34.675781,60.640625 L 34.675781,61.320312 C 34.472653,61.21615 34.261716,61.138025 34.042969,61.085938 C 33.824216,61.033858 33.597654,61.007816 33.363281,61.007812 C 33.006509,61.007816 32.73828,61.062504 32.558594,61.171875 C 32.381509,61.281254 32.292968,61.445316 32.292969,61.664062 C 32.292968,61.830732 32.35677,61.962243 32.484375,62.058594 C 32.611978,62.152346 32.868488,62.24219 33.253906,62.328125 L 33.5,62.382812 C 34.010414,62.49219 34.372393,62.647138 34.585938,62.847656 C 34.80208,63.045575 34.910152,63.322918 34.910156,63.679688 C 34.910152,64.085938 34.748694,64.407553 34.425781,64.644531 C 34.105466,64.88151 33.66406,65 33.101562,65 C 32.867186,65 32.622394,64.976562 32.367188,64.929688 C 32.114582,64.885417 31.847656,64.817708 31.566406,64.726562 L 31.566406,63.984375 C 31.832031,64.122397 32.093749,64.226563 32.351562,64.296875 C 32.609374,64.364584 32.864582,64.398438 33.117188,64.398438 C 33.455727,64.398438 33.716143,64.341146 33.898438,64.226562 C 34.080726,64.109376 34.171872,63.945313 34.171875,63.734375 C 34.171872,63.539064 34.105466,63.389324 33.972656,63.285156 C 33.842445,63.180991 33.554685,63.080731 33.109375,62.984375 L 32.859375,62.925781 C 32.414061,62.832033 32.092447,62.688804 31.894531,62.496094 C 31.696614,62.300784 31.597656,62.033857 31.597656,61.695312 C 31.597656,61.283858 31.743489,60.96615 32.035156,60.742188 C 32.326822,60.518234 32.740884,60.406254 33.277344,60.40625 C 33.542966,60.406254 33.792966,60.425786 34.027344,60.464844 C 34.261716,60.503911 34.477861,60.562504 34.675781,60.640625 M 36.753906,59.269531 L 36.753906,60.511719 L 38.234375,60.511719 L 38.234375,61.070312 L 36.753906,61.070312 L 36.753906,63.445312 C 36.753905,63.802084 36.802082,64.031251 36.898438,64.132812 C 36.997394,64.234376 37.196613,64.285157 37.496094,64.285156 L 38.234375,64.285156 L 38.234375,64.886719 L 37.496094,64.886719 C 36.941405,64.886719 36.558592,64.783854 36.347656,64.578125 C 36.136718,64.369792 36.031249,63.992188 36.03125,63.445312 L 36.03125,61.070312 L 35.503906,61.070312 L 35.503906,60.511719 L 36.03125,60.511719 L 36.03125,59.269531 L 36.753906,59.269531 M 41.71875,61.183594 C 41.638018,61.136722 41.549476,61.102868 41.453125,61.082031 C 41.359372,61.058598 41.255206,61.046879 41.140625,61.046875 C 40.734373,61.046879 40.421873,61.179691 40.203125,61.445312 C 39.986978,61.708337 39.878905,62.087242 39.878906,62.582031 L 39.878906,64.886719 L 39.15625,64.886719 L 39.15625,60.511719 L 39.878906,60.511719 L 39.878906,61.191406 C 40.029946,60.925785 40.226561,60.729171 40.46875,60.601562 C 40.710935,60.471359 41.005206,60.406254 41.351562,60.40625 C 41.401039,60.406254 41.455726,60.410161 41.515625,60.417969 C 41.575518,60.423182 41.641924,60.432296 41.714844,60.445312 L 41.71875,61.183594 M 46.207031,62.519531 L 46.207031,62.871094 L 42.902344,62.871094 C 42.933593,63.365887 43.08203,63.743491 43.347656,64.003906 C 43.615884,64.261719 43.988279,64.390625 44.464844,64.390625 C 44.740882,64.390625 45.007809,64.356771 45.265625,64.289062 C 45.526038,64.221355 45.78385,64.119792 46.039062,63.984375 L 46.039062,64.664062 C 45.781246,64.773438 45.516923,64.856771 45.246094,64.914062 C 44.975257,64.971354 44.700518,65 44.421875,65 C 43.723956,65 43.170571,64.796875 42.761719,64.390625 C 42.355468,63.984376 42.152343,63.434897 42.152344,62.742188 C 42.152343,62.026045 42.345051,61.458337 42.730469,61.039062 C 43.118488,60.617192 43.640623,60.406254 44.296875,60.40625 C 44.885413,60.406254 45.350257,60.596358 45.691406,60.976562 C 46.035152,61.35417 46.207027,61.868493 46.207031,62.519531 M 45.488281,62.308594 C 45.483069,61.915368 45.372392,61.601566 45.15625,61.367188 C 44.942705,61.132816 44.658851,61.015629 44.304688,61.015625 C 43.903644,61.015629 43.582029,61.12891 43.339844,61.355469 C 43.100259,61.582035 42.962238,61.901045 42.925781,62.3125 L 45.488281,62.308594 M 49.949219,59.054688 L 50.738281,59.054688 L 50.738281,61.445312 L 53.605469,61.445312 L 53.605469,59.054688 L 54.394531,59.054688 L 54.394531,64.886719 L 53.605469,64.886719 L 53.605469,62.109375 L 50.738281,62.109375 L 50.738281,64.886719 L 49.949219,64.886719 L 49.949219,59.054688 M 59.675781,62.519531 L 59.675781,62.871094 L 56.371094,62.871094 C 56.402343,63.365887 56.55078,63.743491 56.816406,64.003906 C 57.084634,64.261719 57.457029,64.390625 57.933594,64.390625 C 58.209632,64.390625 58.476559,64.356771 58.734375,64.289062 C 58.994788,64.221355 59.2526,64.119792 59.507812,63.984375 L 59.507812,64.664062 C 59.249996,64.773438 58.985673,64.856771 58.714844,64.914062 C 58.444007,64.971354 58.169268,65 57.890625,65 C 57.192706,65 56.639321,64.796875 56.230469,64.390625 C 55.824218,63.984376 55.621093,63.434897 55.621094,62.742188 C 55.621093,62.026045 55.813801,61.458337 56.199219,61.039062 C 56.587238,60.617192 57.109373,60.406254 57.765625,60.40625 C 58.354163,60.406254 58.819007,60.596358 59.160156,60.976562 C 59.503902,61.35417 59.675777,61.868493 59.675781,62.519531 M 58.957031,62.308594 C 58.951819,61.915368 58.841142,61.601566 58.625,61.367188 C 58.411455,61.132816 58.127601,61.015629 57.773438,61.015625 C 57.372394,61.015629 57.050779,61.12891 56.808594,61.355469 C 56.569009,61.582035 56.430988,61.901045 56.394531,62.3125 L 58.957031,62.308594 M 63.375,61.183594 C 63.294268,61.136722 63.205726,61.102868 63.109375,61.082031 C 63.015622,61.058598 62.911456,61.046879 62.796875,61.046875 C 62.390623,61.046879 62.078123,61.179691 61.859375,61.445312 C 61.643228,61.708337 61.535155,62.087242 61.535156,62.582031 L 61.535156,64.886719 L 60.8125,64.886719 L 60.8125,60.511719 L 61.535156,60.511719 L 61.535156,61.191406 C 61.686196,60.925785 61.882811,60.729171 62.125,60.601562 C 62.367185,60.471359 62.661456,60.406254 63.007812,60.40625 C 63.057289,60.406254 63.111976,60.410161 63.171875,60.417969 C 63.231768,60.423182 63.298174,60.432296 63.371094,60.445312 L 63.375,61.183594 M 66.65625,61.183594 C 66.575518,61.136722 66.486976,61.102868 66.390625,61.082031 C 66.296872,61.058598 66.192706,61.046879 66.078125,61.046875 C 65.671873,61.046879 65.359373,61.179691 65.140625,61.445312 C 64.924478,61.708337 64.816405,62.087242 64.816406,62.582031 L 64.816406,64.886719 L 64.09375,64.886719 L 64.09375,60.511719 L 64.816406,60.511719 L 64.816406,61.191406 C 64.967446,60.925785 65.164061,60.729171 65.40625,60.601562 C 65.648435,60.471359 65.942706,60.406254 66.289062,60.40625 C 66.338539,60.406254 66.393226,60.410161 66.453125,60.417969 C 66.513018,60.423182 66.579424,60.432296 66.652344,60.445312 L 66.65625,61.183594 M 71.144531,62.519531 L 71.144531,62.871094 L 67.839844,62.871094 C 67.871093,63.365887 68.01953,63.743491 68.285156,64.003906 C 68.553384,64.261719 68.925779,64.390625 69.402344,64.390625 C 69.678382,64.390625 69.945309,64.356771 70.203125,64.289062 C 70.463538,64.221355 70.72135,64.119792 70.976562,63.984375 L 70.976562,64.664062 C 70.718746,64.773438 70.454423,64.856771 70.183594,64.914062 C 69.912757,64.971354 69.638018,65 69.359375,65 C 68.661456,65 68.108071,64.796875 67.699219,64.390625 C 67.292968,63.984376 67.089843,63.434897 67.089844,62.742188 C 67.089843,62.026045 67.282551,61.458337 67.667969,61.039062 C 68.055988,60.617192 68.578123,60.406254 69.234375,60.40625 C 69.822913,60.406254 70.287757,60.596358 70.628906,60.976562 C 70.972652,61.35417 71.144527,61.868493 71.144531,62.519531 M 70.425781,62.308594 C 70.420569,61.915368 70.309892,61.601566 70.09375,61.367188 C 69.880205,61.132816 69.596351,61.015629 69.242188,61.015625 C 68.841144,61.015629 68.519529,61.12891 68.277344,61.355469 C 68.037759,61.582035 67.899738,61.901045 67.863281,62.3125 L 70.425781,62.308594 M 74.84375,61.183594 C 74.763018,61.136722 74.674476,61.102868 74.578125,61.082031 C 74.484372,61.058598 74.380206,61.046879 74.265625,61.046875 C 73.859373,61.046879 73.546873,61.179691 73.328125,61.445312 C 73.111978,61.708337 73.003905,62.087242 73.003906,62.582031 L 73.003906,64.886719 L 72.28125,64.886719 L 72.28125,60.511719 L 73.003906,60.511719 L 73.003906,61.191406 C 73.154946,60.925785 73.351561,60.729171 73.59375,60.601562 C 73.835935,60.471359 74.130206,60.406254 74.476562,60.40625 C 74.526039,60.406254 74.580726,60.410161 74.640625,60.417969 C 74.700518,60.423182 74.766924,60.432296 74.839844,60.445312 L 74.84375,61.183594 M 77.578125,62.6875 C 76.997394,62.687502 76.59505,62.753908 76.371094,62.886719 C 76.147134,63.019533 76.035155,63.246095 76.035156,63.566406 C 76.035155,63.821616 76.118488,64.02474 76.285156,64.175781 C 76.454425,64.324219 76.683592,64.398438 76.972656,64.398438 C 77.371091,64.398438 77.690101,64.257813 77.929688,63.976562 C 78.171872,63.69271 78.292965,63.316408 78.292969,62.847656 L 78.292969,62.6875 L 77.578125,62.6875 M 79.011719,62.390625 L 79.011719,64.886719 L 78.292969,64.886719 L 78.292969,64.222656 C 78.128903,64.488282 77.924476,64.684896 77.679688,64.8125 C 77.434893,64.9375 77.135414,65 76.78125,65 C 76.333332,65 75.976561,64.875 75.710938,64.625 C 75.447916,64.372396 75.316406,64.035157 75.316406,63.613281 C 75.316406,63.121096 75.480468,62.750002 75.808594,62.5 C 76.139322,62.250003 76.631509,62.125003 77.285156,62.125 L 78.292969,62.125 L 78.292969,62.054688 C 78.292965,61.723961 78.18359,61.468753 77.964844,61.289062 C 77.748695,61.106775 77.444008,61.015629 77.050781,61.015625 C 76.800779,61.015629 76.55729,61.045577 76.320312,61.105469 C 76.083332,61.165368 75.855468,61.255212 75.636719,61.375 L 75.636719,60.710938 C 75.899739,60.609379 76.154947,60.533859 76.402344,60.484375 C 76.649738,60.432296 76.890623,60.406254 77.125,60.40625 C 77.75781,60.406254 78.230465,60.570317 78.542969,60.898438 C 78.855465,61.226566 79.011715,61.723961 79.011719,62.390625"
       id="text2257" />
    <path
       style="font-size:8px;font-style:normal;font-variant:normal;font-weight:bold;font-stretch:normal;text-align:start;line-height:125%;writing-mode:lr-tb;text-anchor:start;fill:#000000;fill-opacity:1;stroke:none;stroke-width:1px;stroke-linecap:butt;stroke-linejoin:miter;stroke-opacity:1;font-family:Bitstream Vera Sans"
       d="M 16.503906,53.191406 L 16.503906,56.75 L 17.042969,56.75 C 17.657549,56.750001 18.126298,56.597658 18.449219,56.292969 C 18.774735,55.988283 18.937495,55.545575 18.9375,54.964844 C 18.937495,54.386722 18.776037,53.946619 18.453125,53.644531 C 18.130204,53.342452 17.660153,53.191411 17.042969,53.191406 L 16.503906,53.191406 M 15,52.054688 L 16.585938,52.054688 C 17.471351,52.054693 18.130204,52.118495 18.5625,52.246094 C 18.997391,52.371099 19.369787,52.584641 19.679688,52.886719 C 19.953119,53.149744 20.156244,53.453129 20.289062,53.796875 C 20.421869,54.140629 20.488275,54.529951 20.488281,54.964844 C 20.488275,55.40495 20.421869,55.798179 20.289062,56.144531 C 20.156244,56.488283 19.953119,56.791668 19.679688,57.054688 C 19.367182,57.356771 18.992183,57.571615 18.554688,57.699219 C 18.117184,57.824219 17.460934,57.886719 16.585938,57.886719 L 15,57.886719 L 15,52.054688 M 23.660156,54.40625 C 23.350258,54.406253 23.113279,54.518233 22.949219,54.742188 C 22.787759,54.963545 22.707029,55.283857 22.707031,55.703125 C 22.707029,56.122398 22.787759,56.444012 22.949219,56.667969 C 23.113279,56.889324 23.350258,57.000001 23.660156,57 C 23.964841,57.000001 24.197913,56.889324 24.359375,56.667969 C 24.52083,56.444012 24.601559,56.122398 24.601562,55.703125 C 24.601559,55.283857 24.52083,54.963545 24.359375,54.742188 C 24.197913,54.518233 23.964841,54.406253 23.660156,54.40625 M 23.660156,53.40625 C 24.412757,53.406254 24.999996,53.609379 25.421875,54.015625 C 25.846349,54.421878 26.058589,54.984378 26.058594,55.703125 C 26.058589,56.421876 25.846349,56.984376 25.421875,57.390625 C 24.999996,57.796875 24.412757,58 23.660156,58 C 22.904946,58 22.313801,57.796875 21.886719,57.390625 C 21.462239,56.984376 21.25,56.421876 21.25,55.703125 C 21.25,54.984378 21.462239,54.421878 21.886719,54.015625 C 22.313801,53.609379 22.904946,53.406254 23.660156,53.40625 M 26.6875,53.511719 L 28.046875,53.511719 L 28.78125,56.527344 L 29.519531,53.511719 L 30.6875,53.511719 L 31.421875,56.496094 L 32.160156,53.511719 L 33.519531,53.511719 L 32.367188,57.886719 L 30.839844,57.886719 L 30.101562,54.878906 L 29.367188,57.886719 L 27.839844,57.886719 L 26.6875,53.511719 M 38.867188,55.222656 L 38.867188,57.886719 L 37.460938,57.886719 L 37.460938,57.453125 L 37.460938,55.847656 C 37.460934,55.470055 37.451819,55.209638 37.433594,55.066406 C 37.417965,54.92318 37.389319,54.817711 37.347656,54.75 C 37.292965,54.658857 37.218747,54.588545 37.125,54.539062 C 37.031247,54.486983 36.924476,54.460941 36.804688,54.460938 C 36.513018,54.460941 36.283852,54.574222 36.117188,54.800781 C 35.950519,55.024742 35.867185,55.33594 35.867188,55.734375 L 35.867188,57.886719 L 34.46875,57.886719 L 34.46875,53.511719 L 35.867188,53.511719 L 35.867188,54.152344 C 36.078123,53.897139 36.302081,53.70964 36.539062,53.589844 C 36.776039,53.467452 37.037757,53.406254 37.324219,53.40625 C 37.829423,53.406254 38.212235,53.561202 38.472656,53.871094 C 38.735672,54.180993 38.867182,54.631514 38.867188,55.222656"
       id="text1333" />
  </g>
  <g
     inkscape:groupmode="layer"
     id="layer2"
     inkscape:label="lights"
     style="display:inline"
     sodipodi:insensitive="true">
    <path
       sodipodi:type="arc"
       style="opacity:0.75;fill:url(#radialGradient2190);fill-opacity:1;stroke:none;stroke-width:1.06165099;stroke-linecap:round;stroke-linejoin:miter;stroke-miterlimit:4;stroke-dasharray:none;stroke-dashoffset:0;stroke-opacity:1"
       id="path2182"
       sodipodi:cx="23.821341"
       sodipodi:cy="23.821341"
       sodipodi:rx="20.724566"
       sodipodi:ry="20.724566"
       d="M 44.545906 23.821341 A 20.724566 20.724566 0 1 1  3.0967751,23.821341 A 20.724566 20.724566 0 1 1  44.545906 23.821341 z"
       transform="matrix(0.965038,0,0,0.965038,1.01149,1.011484)" />
    <path
       sodipodi:type="arc"
       style="opacity:0.75;fill:url(#radialGradient2194);fill-opacity:1;stroke:none;stroke-width:1.06165099;stroke-linecap:round;stroke-linejoin:miter;stroke-miterlimit:4;stroke-dasharray:none;stroke-dashoffset:0;stroke-opacity:1"
       id="path2192"
       sodipodi:cx="23.821341"
       sodipodi:cy="23.821341"
       sodipodi:rx="20.724566"
       sodipodi:ry="20.724566"
       d="M 44.545906 23.821341 A 20.724566 20.724566 0 1 1  3.0967751,23.821341 A 20.724566 20.724566 0 1 1  44.545906 23.821341 z"
       transform="matrix(0.965038,0,0,0.965038,1.01149,1.011484)" />
    <path
       sodipodi:type="arc"
       style="opacity:0.75;fill:url(#radialGradient2210);fill-opacity:1;stroke:none;stroke-width:1.06165099;stroke-linecap:round;stroke-linejoin:miter;stroke-miterlimit:4;stroke-dasharray:none;stroke-dashoffset:0;stroke-opacity:1"
       id="path2202"
       sodipodi:cx="23.821341"
       sodipodi:cy="23.821341"
       sodipodi:rx="20.724566"
       sodipodi:ry="20.724566"
       d="M 44.545906 23.821341 A 20.724566 20.724566 0 1 1  3.0967751,23.821341 A 20.724566 20.724566 0 1 1  44.545906 23.821341 z"
       transform="matrix(0.965038,0,0,0.965038,1.01149,1.011484)" />
    <path
       sodipodi:type="arc"
       style="opacity:1;fill:none;fill-opacity:1;stroke:#ffffff;stroke-width:1.06180155;stroke-linecap:round;stroke-linejoin:miter;stroke-miterlimit:4;stroke-dasharray:none;stroke-dashoffset:0;stroke-opacity:0.63948502"
       id="path2233"
       sodipodi:cx="23.821341"
       sodipodi:cy="23.821341"
       sodipodi:rx="20.724566"
       sodipodi:ry="20.724566"
       d="M 44.545906 23.821341 A 20.724566 20.724566 0 1 1  3.0967751,23.821341 A 20.724566 20.724566 0 1 1  44.545906 23.821341 z"
       transform="matrix(0.941793,0,0,0.941798,1.571204,1.571072)" />
  </g>
</svg>
