<?xml version="1.0" encoding="UTF-8" standalone="no"?>
<!-- Created with Inkscape (http://www.inkscape.org/) -->
<svg
   xmlns:dc="http://purl.org/dc/elements/1.1/"
   xmlns:cc="http://web.resource.org/cc/"
   xmlns:rdf="http://www.w3.org/1999/02/22-rdf-syntax-ns#"
   xmlns:svg="http://www.w3.org/2000/svg"
   xmlns="http://www.w3.org/2000/svg"
   xmlns:xlink="http://www.w3.org/1999/xlink"
   xmlns:sodipodi="http://inkscape.sourceforge.net/DTD/sodipodi-0.dtd"
   xmlns:inkscape="http://www.inkscape.org/namespaces/inkscape"
   width="48"
   height="48"
   id="svg2"
   sodipodi:version="0.32"
   inkscape:version="0.43"
   version="1.0"
   sodipodi:docbase="/home/silvestre/Gion/scalable/actions"
   sodipodi:docname="process-stop.svg"
   inkscape:export-filename="/home/silvestre/Desktop/Gion/PNGs/process-stop.png"
   inkscape:export-xdpi="90"
   inkscape:export-ydpi="90">
  <defs
     id="defs4">
    <linearGradient
       inkscape:collect="always"
       id="linearGradient2210">
      <stop
         style="stop-color:#ffffff;stop-opacity:1;"
         offset="0"
         id="stop2213" />
      <stop
         style="stop-color:#ffffff;stop-opacity:0.72103006"
         offset="1"
         id="stop2215" />
    </linearGradient>
    <linearGradient
       inkscape:collect="always"
       id="linearGradient2218">
      <stop
         style="stop-color:#000000;stop-opacity:1;"
         offset="0"
         id="stop2220" />
      <stop
         style="stop-color:#000000;stop-opacity:0;"
         offset="1"
         id="stop2222" />
    </linearGradient>
    <linearGradient
       id="linearGradient2204">
      <stop
         style="stop-color:#000000;stop-opacity:0"
         offset="0"
         id="stop2206" />
      <stop
         id="stop2212"
         offset="0.5"
         style="stop-color:#000000;stop-opacity:0;" />
      <stop
         style="stop-color:#000000;stop-opacity:0.06060606;"
         offset="0.75"
         id="stop2214" />
      <stop
         style="stop-color:#000000;stop-opacity:0.24892704"
         offset="1"
         id="stop2208" />
    </linearGradient>
    <linearGradient
       id="linearGradient2196"
       inkscape:collect="always">
      <stop
         id="stop2198"
         offset="0"
         style="stop-color:#ffffff;stop-opacity:1;" />
      <stop
         id="stop2200"
         offset="1"
         style="stop-color:#ffffff;stop-opacity:0" />
    </linearGradient>
    <linearGradient
       inkscape:collect="always"
       id="linearGradient2184">
      <stop
         style="stop-color:#ffffff;stop-opacity:1;"
         offset="0"
         id="stop2186" />
      <stop
         style="stop-color:#ffffff;stop-opacity:0;"
         offset="1"
         id="stop2188" />
    </linearGradient>
    <radialGradient
       inkscape:collect="always"
       xlink:href="#linearGradient2196"
       id="radialGradient2190"
       cx="23.821341"
       cy="19.220688"
       fx="23.821341"
       fy="11.559587"
       r="20.724566"
       gradientUnits="userSpaceOnUse" />
    <radialGradient
       inkscape:collect="always"
       xlink:href="#linearGradient2184"
       id="radialGradient2194"
       gradientUnits="userSpaceOnUse"
       cx="21.955513"
       cy="41.559357"
       fx="21.955513"
       fy="43.898674"
       r="20.724566"
       gradientTransform="matrix(0.592713,-6.494147e-8,6.494147e-8,0.592713,10.80802,15.56962)" />
    <radialGradient
       inkscape:collect="always"
       xlink:href="#linearGradient2204"
       id="radialGradient2210"
       cx="20.053436"
       cy="19.070505"
       fx="20.053436"
       fy="19.070505"
       r="20.724566"
       gradientUnits="userSpaceOnUse"
       gradientTransform="matrix(1.602242,-1.930651e-16,1.930651e-16,1.602242,-13.98654,-13.89271)" />
    <radialGradient
       inkscape:collect="always"
       xlink:href="#linearGradient2218"
       id="radialGradient2224"
       cx="24.416874"
       cy="42.401985"
       fx="24.416874"
       fy="46.508305"
       r="23.702232"
       gradientTransform="matrix(1,0,0,0.226131,1.626303e-18,32.8136)"
       gradientUnits="userSpaceOnUse" />
    <radialGradient
       inkscape:collect="always"
       xlink:href="#linearGradient2210"
       id="radialGradient2217"
       cx="21.625"
       cy="20.75"
       fx="21.625"
       fy="20.75"
       r="11"
       gradientUnits="userSpaceOnUse"
       gradientTransform="translate(0,1)" />
  </defs>
  <sodipodi:namedview
     id="base"
     pagecolor="#ffffff"
     bordercolor="#666666"
     borderopacity="1.0"
     inkscape:pageopacity="0.0"
     inkscape:pageshadow="2"
     inkscape:zoom="1"
     inkscape:cx="14.493903"
     inkscape:cy="25.111283"
     inkscape:document-units="px"
     inkscape:current-layer="layer1"
     inkscape:showpageshadow="false"
     showgrid="false"
     inkscape:grid-bbox="false"
     inkscape:window-width="897"
     inkscape:window-height="590"
     inkscape:window-x="6"
     inkscape:window-y="44"
     showborder="false"
     showguides="true"
     inkscape:guide-bbox="true" />
  <metadata
     id="metadata7">
    <rdf:RDF>
      <cc:Work
         rdf:about="">
        <dc:format>image/svg+xml</dc:format>
        <dc:type
           rdf:resource="http://purl.org/dc/dcmitype/StillImage" />
        <dc:title>Process Stop</dc:title>
        <dc:creator>
          <cc:Agent>
            <dc:title>Silvestre Herrera</dc:title>
          </cc:Agent>
        </dc:creator>
        <cc:license
           rdf:resource="http://creativecommons.org/licenses/GPL/2.0/" />
      </cc:Work>
      <cc:License
         rdf:about="http://creativecommons.org/licenses/GPL/2.0/">
        <cc:permits
           rdf:resource="http://web.resource.org/cc/Reproduction" />
        <cc:permits
           rdf:resource="http://web.resource.org/cc/Distribution" />
        <cc:requires
           rdf:resource="http://web.resource.org/cc/Notice" />
        <cc:permits
           rdf:resource="http://web.resource.org/cc/DerivativeWorks" />
        <cc:requires
           rdf:resource="http://web.resource.org/cc/ShareAlike" />
        <cc:requires
           rdf:resource="http://web.resource.org/cc/SourceCode" />
      </cc:License>
    </rdf:RDF>
  </metadata>
  <g
     inkscape:label="Capa 1"
     inkscape:groupmode="layer"
     id="layer1">
    <path
       sodipodi:type="arc"
       style="opacity:0.37229435;fill:url(#radialGradient2224);fill-opacity:1;stroke:none;stroke-width:1;stroke-linecap:round;stroke-linejoin:miter;stroke-miterlimit:4;stroke-dasharray:none;stroke-dashoffset:0;stroke-opacity:1"
       id="path2216"
       sodipodi:cx="24.416874"
       sodipodi:cy="42.401985"
       sodipodi:rx="23.702232"
       sodipodi:ry="5.3598013"
       d="M 48.119106 42.401985 A 23.702232 5.3598013 0 1 1  0.71464157,42.401985 A 23.702232 5.3598013 0 1 1  48.119106 42.401985 z"
       transform="matrix(0.885993,0,0,1.026156,2.366833,-1.011074)" />
    <path
       sodipodi:type="arc"
       style="opacity:1;fill:#c92222;fill-opacity:1;stroke:#8b3c3c;stroke-width:1.01082706;stroke-linecap:round;stroke-linejoin:miter;stroke-miterlimit:4;stroke-dasharray:none;stroke-dashoffset:0;stroke-opacity:1"
       id="path1307"
       sodipodi:cx="23.821341"
       sodipodi:cy="23.821341"
       sodipodi:rx="20.724566"
       sodipodi:ry="20.724566"
       d="M 44.545906 23.821341 A 20.724566 20.724566 0 1 1  3.0967751,23.821341 A 20.724566 20.724566 0 1 1  44.545906 23.821341 z"
       transform="matrix(0.989171,0,0,0.989408,0.441812,0.431267)" />
    <path
       style="font-size:8px;font-style:normal;font-variant:normal;font-weight:normal;font-stretch:normal;text-align:start;line-height:125%;writing-mode:lr-tb;text-anchor:start;fill:#646464;fill-opacity:1;stroke:none;stroke-width:1px;stroke-linecap:butt;stroke-linejoin:miter;stroke-opacity:1;font-family:Bitstream Vera Sans"
       d="M 3.4960938,62.703125 C 3.4960899,62.174482 3.386715,61.76042 3.1679688,61.460938 C 2.9518196,61.158858 2.6536428,61.007816 2.2734375,61.007812 C 1.8932269,61.007816 1.593748,61.158858 1.375,61.460938 C 1.1588526,61.76042 1.0507798,62.174482 1.0507812,62.703125 C 1.0507798,63.231772 1.1588526,63.647137 1.375,63.949219 C 1.593748,64.248699 1.8932269,64.398438 2.2734375,64.398438 C 2.6536428,64.398438 2.9518196,64.248699 3.1679688,63.949219 C 3.386715,63.647137 3.4960899,63.231772 3.4960938,62.703125 M 1.0507812,61.175781 C 1.2018213,60.915369 1.3919253,60.72266 1.6210938,60.597656 C 1.8528623,60.470056 2.1289037,60.406254 2.4492188,60.40625 C 2.9804654,60.406254 3.4114545,60.617192 3.7421875,61.039062 C 4.0755164,61.460941 4.2421829,62.015628 4.2421875,62.703125 C 4.2421829,63.390626 4.0755164,63.945313 3.7421875,64.367188 C 3.4114545,64.789063 2.9804654,65 2.4492188,65 C 2.1289037,65 1.8528623,64.9375 1.6210938,64.8125 C 1.3919253,64.684896 1.2018213,64.490886 1.0507812,64.230469 L 1.0507812,64.886719 L 0.328125,64.886719 L 0.328125,58.808594 L 1.0507812,58.808594 L 1.0507812,61.175781 M 7.2539062,65.292969 C 7.0507789,65.813801 6.8528624,66.153645 6.6601562,66.3125 C 6.4674461,66.471353 6.2096339,66.55078 5.8867188,66.550781 L 5.3125,66.550781 L 5.3125,65.949219 L 5.734375,65.949219 C 5.9322904,65.949218 6.0859361,65.902343 6.1953125,65.808594 C 6.3046859,65.714843 6.4257795,65.493489 6.5585938,65.144531 L 6.6875,64.816406 L 4.9179688,60.511719 L 5.6796875,60.511719 L 7.046875,63.933594 L 8.4140625,60.511719 L 9.1757812,60.511719 L 7.2539062,65.292969 M 16.242188,59.246094 L 16.242188,60.015625 C 15.942704,59.872401 15.660153,59.76563 15.394531,59.695312 C 15.128903,59.625005 14.872393,59.589849 14.625,59.589844 C 14.19531,59.589849 13.863279,59.673182 13.628906,59.839844 C 13.397134,60.006515 13.281249,60.243494 13.28125,60.550781 C 13.281249,60.808598 13.358072,61.00391 13.511719,61.136719 C 13.667967,61.266931 13.962238,61.372399 14.394531,61.453125 L 14.871094,61.550781 C 15.459632,61.662764 15.893225,61.86068 16.171875,62.144531 C 16.453121,62.425784 16.593745,62.803387 16.59375,63.277344 C 16.593745,63.842449 16.403641,64.270834 16.023438,64.5625 C 15.64583,64.854167 15.091143,65 14.359375,65 C 14.083331,65 13.789061,64.96875 13.476562,64.90625 C 13.166665,64.84375 12.845051,64.751302 12.511719,64.628906 L 12.511719,63.816406 C 12.83203,63.996095 13.145832,64.131511 13.453125,64.222656 C 13.760415,64.313803 14.062498,64.359376 14.359375,64.359375 C 14.809893,64.359376 15.157549,64.270834 15.402344,64.09375 C 15.647132,63.916668 15.769527,63.664064 15.769531,63.335938 C 15.769527,63.049481 15.680986,62.825523 15.503906,62.664062 C 15.329424,62.502607 15.041664,62.381513 14.640625,62.300781 L 14.160156,62.207031 C 13.571613,62.089847 13.145832,61.906253 12.882812,61.65625 C 12.619791,61.406253 12.488281,61.058598 12.488281,60.613281 C 12.488281,60.097661 12.66927,59.691411 13.03125,59.394531 C 13.395832,59.097662 13.897133,58.949225 14.535156,58.949219 C 14.808591,58.949225 15.087236,58.973964 15.371094,59.023438 C 15.654944,59.072922 15.945309,59.147141 16.242188,59.246094 M 17.808594,60.511719 L 18.527344,60.511719 L 18.527344,64.886719 L 17.808594,64.886719 L 17.808594,60.511719 M 17.808594,58.808594 L 18.527344,58.808594 L 18.527344,59.71875 L 17.808594,59.71875 L 17.808594,58.808594 M 20.027344,58.808594 L 20.746094,58.808594 L 20.746094,64.886719 L 20.027344,64.886719 L 20.027344,58.808594 M 21.730469,60.511719 L 22.492188,60.511719 L 23.859375,64.183594 L 25.226562,60.511719 L 25.988281,60.511719 L 24.347656,64.886719 L 23.371094,64.886719 L 21.730469,60.511719 M 30.722656,62.519531 L 30.722656,62.871094 L 27.417969,62.871094 C 27.449218,63.365887 27.597655,63.743491 27.863281,64.003906 C 28.131509,64.261719 28.503904,64.390625 28.980469,64.390625 C 29.256507,64.390625 29.523434,64.356771 29.78125,64.289062 C 30.041663,64.221355 30.299475,64.119792 30.554688,63.984375 L 30.554688,64.664062 C 30.296871,64.773438 30.032548,64.856771 29.761719,64.914062 C 29.490882,64.971354 29.216143,65 28.9375,65 C 28.239581,65 27.686196,64.796875 27.277344,64.390625 C 26.871093,63.984376 26.667968,63.434897 26.667969,62.742188 C 26.667968,62.026045 26.860676,61.458337 27.246094,61.039062 C 27.634113,60.617192 28.156248,60.406254 28.8125,60.40625 C 29.401038,60.406254 29.865882,60.596358 30.207031,60.976562 C 30.550777,61.35417 30.722652,61.868493 30.722656,62.519531 M 30.003906,62.308594 C 29.998694,61.915368 29.888017,61.601566 29.671875,61.367188 C 29.45833,61.132816 29.174476,61.015629 28.820312,61.015625 C 28.419269,61.015629 28.097654,61.12891 27.855469,61.355469 C 27.615884,61.582035 27.477863,61.901045 27.441406,62.3125 L 30.003906,62.308594 M 34.675781,60.640625 L 34.675781,61.320312 C 34.472653,61.21615 34.261716,61.138025 34.042969,61.085938 C 33.824216,61.033858 33.597654,61.007816 33.363281,61.007812 C 33.006509,61.007816 32.73828,61.062504 32.558594,61.171875 C 32.381509,61.281254 32.292968,61.445316 32.292969,61.664062 C 32.292968,61.830732 32.35677,61.962243 32.484375,62.058594 C 32.611978,62.152346 32.868488,62.24219 33.253906,62.328125 L 33.5,62.382812 C 34.010414,62.49219 34.372393,62.647138 34.585938,62.847656 C 34.80208,63.045575 34.910152,63.322918 34.910156,63.679688 C 34.910152,64.085938 34.748694,64.407553 34.425781,64.644531 C 34.105466,64.88151 33.66406,65 33.101562,65 C 32.867186,65 32.622394,64.976562 32.367188,64.929688 C 32.114582,64.885417 31.847656,64.817708 31.566406,64.726562 L 31.566406,63.984375 C 31.832031,64.122397 32.093749,64.226563 32.351562,64.296875 C 32.609374,64.364584 32.864582,64.398438 33.117188,64.398438 C 33.455727,64.398438 33.716143,64.341146 33.898438,64.226562 C 34.080726,64.109376 34.171872,63.945313 34.171875,63.734375 C 34.171872,63.539064 34.105466,63.389324 33.972656,63.285156 C 33.842445,63.180991 33.554685,63.080731 33.109375,62.984375 L 32.859375,62.925781 C 32.414061,62.832033 32.092447,62.688804 31.894531,62.496094 C 31.696614,62.300784 31.597656,62.033857 31.597656,61.695312 C 31.597656,61.283858 31.743489,60.96615 32.035156,60.742188 C 32.326822,60.518234 32.740884,60.406254 33.277344,60.40625 C 33.542966,60.406254 33.792966,60.425786 34.027344,60.464844 C 34.261716,60.503911 34.477861,60.562504 34.675781,60.640625 M 36.753906,59.269531 L 36.753906,60.511719 L 38.234375,60.511719 L 38.234375,61.070312 L 36.753906,61.070312 L 36.753906,63.445312 C 36.753905,63.802084 36.802082,64.031251 36.898438,64.132812 C 36.997394,64.234376 37.196613,64.285157 37.496094,64.285156 L 38.234375,64.285156 L 38.234375,64.886719 L 37.496094,64.886719 C 36.941405,64.886719 36.558592,64.783854 36.347656,64.578125 C 36.136718,64.369792 36.031249,63.992188 36.03125,63.445312 L 36.03125,61.070312 L 35.503906,61.070312 L 35.503906,60.511719 L 36.03125,60.511719 L 36.03125,59.269531 L 36.753906,59.269531 M 41.71875,61.183594 C 41.638018,61.136722 41.549476,61.102868 41.453125,61.082031 C 41.359372,61.058598 41.255206,61.046879 41.140625,61.046875 C 40.734373,61.046879 40.421873,61.179691 40.203125,61.445312 C 39.986978,61.708337 39.878905,62.087242 39.878906,62.582031 L 39.878906,64.886719 L 39.15625,64.886719 L 39.15625,60.511719 L 39.878906,60.511719 L 39.878906,61.191406 C 40.029946,60.925785 40.226561,60.729171 40.46875,60.601562 C 40.710935,60.471359 41.005206,60.406254 41.351562,60.40625 C 41.401039,60.406254 41.455726,60.410161 41.515625,60.417969 C 41.575518,60.423182 41.641924,60.432296 41.714844,60.445312 L 41.71875,61.183594 M 46.207031,62.519531 L 46.207031,62.871094 L 42.902344,62.871094 C 42.933593,63.365887 43.08203,63.743491 43.347656,64.003906 C 43.615884,64.261719 43.988279,64.390625 44.464844,64.390625 C 44.740882,64.390625 45.007809,64.356771 45.265625,64.289062 C 45.526038,64.221355 45.78385,64.119792 46.039062,63.984375 L 46.039062,64.664062 C 45.781246,64.773438 45.516923,64.856771 45.246094,64.914062 C 44.975257,64.971354 44.700518,65 44.421875,65 C 43.723956,65 43.170571,64.796875 42.761719,64.390625 C 42.355468,63.984376 42.152343,63.434897 42.152344,62.742188 C 42.152343,62.026045 42.345051,61.458337 42.730469,61.039062 C 43.118488,60.617192 43.640623,60.406254 44.296875,60.40625 C 44.885413,60.406254 45.350257,60.596358 45.691406,60.976562 C 46.035152,61.35417 46.207027,61.868493 46.207031,62.519531 M 45.488281,62.308594 C 45.483069,61.915368 45.372392,61.601566 45.15625,61.367188 C 44.942705,61.132816 44.658851,61.015629 44.304688,61.015625 C 43.903644,61.015629 43.582029,61.12891 43.339844,61.355469 C 43.100259,61.582035 42.962238,61.901045 42.925781,62.3125 L 45.488281,62.308594 M 49.949219,59.054688 L 50.738281,59.054688 L 50.738281,61.445312 L 53.605469,61.445312 L 53.605469,59.054688 L 54.394531,59.054688 L 54.394531,64.886719 L 53.605469,64.886719 L 53.605469,62.109375 L 50.738281,62.109375 L 50.738281,64.886719 L 49.949219,64.886719 L 49.949219,59.054688 M 59.675781,62.519531 L 59.675781,62.871094 L 56.371094,62.871094 C 56.402343,63.365887 56.55078,63.743491 56.816406,64.003906 C 57.084634,64.261719 57.457029,64.390625 57.933594,64.390625 C 58.209632,64.390625 58.476559,64.356771 58.734375,64.289062 C 58.994788,64.221355 59.2526,64.119792 59.507812,63.984375 L 59.507812,64.664062 C 59.249996,64.773438 58.985673,64.856771 58.714844,64.914062 C 58.444007,64.971354 58.169268,65 57.890625,65 C 57.192706,65 56.639321,64.796875 56.230469,64.390625 C 55.824218,63.984376 55.621093,63.434897 55.621094,62.742188 C 55.621093,62.026045 55.813801,61.458337 56.199219,61.039062 C 56.587238,60.617192 57.109373,60.406254 57.765625,60.40625 C 58.354163,60.406254 58.819007,60.596358 59.160156,60.976562 C 59.503902,61.35417 59.675777,61.868493 59.675781,62.519531 M 58.957031,62.308594 C 58.951819,61.915368 58.841142,61.601566 58.625,61.367188 C 58.411455,61.132816 58.127601,61.015629 57.773438,61.015625 C 57.372394,61.015629 57.050779,61.12891 56.808594,61.355469 C 56.569009,61.582035 56.430988,61.901045 56.394531,62.3125 L 58.957031,62.308594 M 63.375,61.183594 C 63.294268,61.136722 63.205726,61.102868 63.109375,61.082031 C 63.015622,61.058598 62.911456,61.046879 62.796875,61.046875 C 62.390623,61.046879 62.078123,61.179691 61.859375,61.445312 C 61.643228,61.708337 61.535155,62.087242 61.535156,62.582031 L 61.535156,64.886719 L 60.8125,64.886719 L 60.8125,60.511719 L 61.535156,60.511719 L 61.535156,61.191406 C 61.686196,60.925785 61.882811,60.729171 62.125,60.601562 C 62.367185,60.471359 62.661456,60.406254 63.007812,60.40625 C 63.057289,60.406254 63.111976,60.410161 63.171875,60.417969 C 63.231768,60.423182 63.298174,60.432296 63.371094,60.445312 L 63.375,61.183594 M 66.65625,61.183594 C 66.575518,61.136722 66.486976,61.102868 66.390625,61.082031 C 66.296872,61.058598 66.192706,61.046879 66.078125,61.046875 C 65.671873,61.046879 65.359373,61.179691 65.140625,61.445312 C 64.924478,61.708337 64.816405,62.087242 64.816406,62.582031 L 64.816406,64.886719 L 64.09375,64.886719 L 64.09375,60.511719 L 64.816406,60.511719 L 64.816406,61.191406 C 64.967446,60.925785 65.164061,60.729171 65.40625,60.601562 C 65.648435,60.471359 65.942706,60.406254 66.289062,60.40625 C 66.338539,60.406254 66.393226,60.410161 66.453125,60.417969 C 66.513018,60.423182 66.579424,60.432296 66.652344,60.445312 L 66.65625,61.183594 M 71.144531,62.519531 L 71.144531,62.871094 L 67.839844,62.871094 C 67.871093,63.365887 68.01953,63.743491 68.285156,64.003906 C 68.553384,64.261719 68.925779,64.390625 69.402344,64.390625 C 69.678382,64.390625 69.945309,64.356771 70.203125,64.289062 C 70.463538,64.221355 70.72135,64.119792 70.976562,63.984375 L 70.976562,64.664062 C 70.718746,64.773438 70.454423,64.856771 70.183594,64.914062 C 69.912757,64.971354 69.638018,65 69.359375,65 C 68.661456,65 68.108071,64.796875 67.699219,64.390625 C 67.292968,63.984376 67.089843,63.434897 67.089844,62.742188 C 67.089843,62.026045 67.282551,61.458337 67.667969,61.039062 C 68.055988,60.617192 68.578123,60.406254 69.234375,60.40625 C 69.822913,60.406254 70.287757,60.596358 70.628906,60.976562 C 70.972652,61.35417 71.144527,61.868493 71.144531,62.519531 M 70.425781,62.308594 C 70.420569,61.915368 70.309892,61.601566 70.09375,61.367188 C 69.880205,61.132816 69.596351,61.015629 69.242188,61.015625 C 68.841144,61.015629 68.519529,61.12891 68.277344,61.355469 C 68.037759,61.582035 67.899738,61.901045 67.863281,62.3125 L 70.425781,62.308594 M 74.84375,61.183594 C 74.763018,61.136722 74.674476,61.102868 74.578125,61.082031 C 74.484372,61.058598 74.380206,61.046879 74.265625,61.046875 C 73.859373,61.046879 73.546873,61.179691 73.328125,61.445312 C 73.111978,61.708337 73.003905,62.087242 73.003906,62.582031 L 73.003906,64.886719 L 72.28125,64.886719 L 72.28125,60.511719 L 73.003906,60.511719 L 73.003906,61.191406 C 73.154946,60.925785 73.351561,60.729171 73.59375,60.601562 C 73.835935,60.471359 74.130206,60.406254 74.476562,60.40625 C 74.526039,60.406254 74.580726,60.410161 74.640625,60.417969 C 74.700518,60.423182 74.766924,60.432296 74.839844,60.445312 L 74.84375,61.183594 M 77.578125,62.6875 C 76.997394,62.687502 76.59505,62.753908 76.371094,62.886719 C 76.147134,63.019533 76.035155,63.246095 76.035156,63.566406 C 76.035155,63.821616 76.118488,64.02474 76.285156,64.175781 C 76.454425,64.324219 76.683592,64.398438 76.972656,64.398438 C 77.371091,64.398438 77.690101,64.257813 77.929688,63.976562 C 78.171872,63.69271 78.292965,63.316408 78.292969,62.847656 L 78.292969,62.6875 L 77.578125,62.6875 M 79.011719,62.390625 L 79.011719,64.886719 L 78.292969,64.886719 L 78.292969,64.222656 C 78.128903,64.488282 77.924476,64.684896 77.679688,64.8125 C 77.434893,64.9375 77.135414,65 76.78125,65 C 76.333332,65 75.976561,64.875 75.710938,64.625 C 75.447916,64.372396 75.316406,64.035157 75.316406,63.613281 C 75.316406,63.121096 75.480468,62.750002 75.808594,62.5 C 76.139322,62.250003 76.631509,62.125003 77.285156,62.125 L 78.292969,62.125 L 78.292969,62.054688 C 78.292965,61.723961 78.18359,61.468753 77.964844,61.289062 C 77.748695,61.106775 77.444008,61.015629 77.050781,61.015625 C 76.800779,61.015629 76.55729,61.045577 76.320312,61.105469 C 76.083332,61.165368 75.855468,61.255212 75.636719,61.375 L 75.636719,60.710938 C 75.899739,60.609379 76.154947,60.533859 76.402344,60.484375 C 76.649738,60.432296 76.890623,60.406254 77.125,60.40625 C 77.75781,60.406254 78.230465,60.570317 78.542969,60.898438 C 78.855465,61.226566 79.011715,61.723961 79.011719,62.390625"
       id="text2257" />
    <path
       style="opacity:1;fill:url(#radialGradient2217);fill-opacity:1;stroke:none;stroke-width:1;stroke-linecap:round;stroke-linejoin:miter;stroke-miterlimit:4;stroke-dasharray:none;stroke-dashoffset:0;stroke-opacity:1"
       d="M 16.947237,14.01039 C 16.410557,14.061936 15.897819,14.314122 15.485079,14.726491 L 13.707554,16.502441 C 12.764149,17.444998 12.764148,18.968542 13.707554,19.9111 L 18.810772,25.009788 L 13.707554,30.108465 C 12.764148,31.051033 12.764149,32.574566 13.707554,33.517134 L 15.485079,35.293074 C 16.428485,36.235642 17.953376,36.235642 18.896781,35.293074 L 23.999999,30.194397 L 29.103217,35.293074 C 30.046622,36.235642 31.571513,36.235642 32.51492,35.293074 L 34.292444,33.517134 C 35.235849,32.574566 35.23585,31.051033 34.292444,30.108465 L 29.189227,25.009788 L 34.292444,19.9111 C 35.23585,18.968542 35.23585,17.444998 34.292444,16.502441 L 32.51492,14.726491 C 31.571514,13.783922 30.046624,13.783922 29.103217,14.726491 L 23.999999,19.825168 L 18.896781,14.726491 C 18.366115,14.196301 17.637254,13.944115 16.947237,14.01039 z "
       id="rect1332" />
    <path
       style="font-size:8px;font-style:normal;font-variant:normal;font-weight:bold;font-stretch:normal;text-align:start;line-height:125%;writing-mode:lr-tb;text-anchor:start;fill:#000000;fill-opacity:1;stroke:none;stroke-width:1px;stroke-linecap:butt;stroke-linejoin:miter;stroke-opacity:1;font-family:Bitstream Vera Sans"
       d="M 0,52.105469 L 2.496094,52.105469 C 3.238277,52.105475 3.807287,52.270839 4.203125,52.601562 C 4.601557,52.929693 4.800776,53.398442 4.800781,54.007812 C 4.800776,54.619795 4.601557,55.091149 4.203125,55.421875 C 3.807287,55.750002 3.238277,55.914065 2.496094,55.914062 L 1.503906,55.914062 L 1.503906,57.9375 L 0,57.9375 L 0,52.105469 M 1.503906,53.195312 L 1.503906,54.824219 L 2.335938,54.824219 C 2.627601,54.824222 2.852861,54.753909 3.011719,54.613281 C 3.170569,54.470056 3.249996,54.268233 3.25,54.007812 C 3.249996,53.7474 3.170569,53.546879 3.011719,53.40625 C 2.852861,53.26563 2.627601,53.195317 2.335938,53.195312 L 1.503906,53.195312 M 9.046875,54.753906 C 8.924475,54.696618 8.80208,54.654951 8.679688,54.628906 C 8.559892,54.600264 8.438799,54.585941 8.316406,54.585938 C 7.957028,54.585941 7.679685,54.701826 7.484375,54.933594 C 7.291664,55.162763 7.19531,55.49219 7.195312,55.921875 L 7.195312,57.9375 L 5.796875,57.9375 L 5.796875,53.5625 L 7.195312,53.5625 L 7.195312,54.28125 C 7.374998,53.994796 7.580727,53.786462 7.8125,53.65625 C 8.046872,53.523442 8.32682,53.457036 8.652344,53.457031 C 8.699215,53.457036 8.749996,53.45964 8.804688,53.464844 C 8.859371,53.467452 8.938798,53.475265 9.042969,53.488281 L 9.046875,54.753906 M 11.832031,54.457031 C 11.522133,54.457035 11.285154,54.569014 11.121094,54.792969 C 10.959634,55.014326 10.878904,55.334638 10.878906,55.753906 C 10.878904,56.173179 10.959634,56.494793 11.121094,56.71875 C 11.285154,56.940105 11.522133,57.050782 11.832031,57.050781 C 12.136716,57.050782 12.369788,56.940105 12.53125,56.71875 C 12.692705,56.494793 12.773434,56.173179 12.773438,55.753906 C 12.773434,55.334638 12.692705,55.014326 12.53125,54.792969 C 12.369788,54.569014 12.136716,54.457035 11.832031,54.457031 M 11.832031,53.457031 C 12.584632,53.457036 13.171871,53.660161 13.59375,54.066406 C 14.018224,54.47266 14.230464,55.035159 14.230469,55.753906 C 14.230464,56.472658 14.018224,57.035157 13.59375,57.441406 C 13.171871,57.847656 12.584632,58.050781 11.832031,58.050781 C 11.076821,58.050781 10.485676,57.847656 10.058594,57.441406 C 9.634114,57.035157 9.421875,56.472658 9.421875,55.753906 C 9.421875,55.035159 9.634114,54.47266 10.058594,54.066406 C 10.485676,53.660161 11.076821,53.457036 11.832031,53.457031 M 18.785156,53.699219 L 18.785156,54.839844 C 18.595048,54.709639 18.403642,54.613285 18.210938,54.550781 C 18.02083,54.488285 17.822913,54.457035 17.617188,54.457031 C 17.22656,54.457035 16.921873,54.571618 16.703125,54.800781 C 16.486977,55.027347 16.378904,55.345055 16.378906,55.753906 C 16.378904,56.162762 16.486977,56.481772 16.703125,56.710938 C 16.921873,56.937501 17.22656,57.050782 17.617188,57.050781 C 17.835934,57.050782 18.042965,57.01823 18.238281,56.953125 C 18.436194,56.888022 18.618486,56.791668 18.785156,56.664062 L 18.785156,57.808594 C 18.566402,57.889323 18.343746,57.949219 18.117188,57.988281 C 17.893226,58.029948 17.667966,58.050781 17.441406,58.050781 C 16.652342,58.050781 16.035155,57.848958 15.589844,57.445312 C 15.144531,57.039063 14.921875,56.475262 14.921875,55.753906 C 14.921875,55.032555 15.144531,54.470056 15.589844,54.066406 C 16.035155,53.660161 16.652342,53.457036 17.441406,53.457031 C 17.67057,53.457036 17.89583,53.477869 18.117188,53.519531 C 18.341142,53.558598 18.563798,53.618494 18.785156,53.699219 M 24.367188,55.738281 L 24.367188,56.136719 L 21.097656,56.136719 C 21.131509,56.464845 21.249998,56.710939 21.453125,56.875 C 21.656248,57.039063 21.940102,57.121095 22.304688,57.121094 C 22.598955,57.121095 22.899736,57.078126 23.207031,56.992188 C 23.516923,56.903647 23.834631,56.770834 24.160156,56.59375 L 24.160156,57.671875 C 23.829423,57.796875 23.498694,57.890625 23.167969,57.953125 C 22.837236,58.018229 22.506507,58.050781 22.175781,58.050781 C 21.384113,58.050781 20.768228,57.850261 20.328125,57.449219 C 19.890624,57.045574 19.671875,56.48047 19.671875,55.753906 C 19.671875,55.040367 19.886718,54.47917 20.316406,54.070312 C 20.748696,53.661463 21.342446,53.457036 22.097656,53.457031 C 22.785153,53.457036 23.334631,53.664067 23.746094,54.078125 C 24.160151,54.492191 24.367182,55.045576 24.367188,55.738281 M 22.929688,55.273438 C 22.929684,55.007815 22.851559,54.794274 22.695312,54.632812 C 22.541663,54.468753 22.339841,54.386722 22.089844,54.386719 C 21.819008,54.386722 21.598956,54.463545 21.429688,54.617188 C 21.260415,54.768232 21.154946,54.986982 21.113281,55.273438 L 22.929688,55.273438 M 28.855469,53.699219 L 28.855469,54.761719 C 28.555986,54.636722 28.266924,54.542972 27.988281,54.480469 C 27.709632,54.417972 27.446612,54.386722 27.199219,54.386719 C 26.933592,54.386722 26.735675,54.420576 26.605469,54.488281 C 26.477863,54.553389 26.414061,54.654951 26.414062,54.792969 C 26.414061,54.904951 26.462238,54.990888 26.558594,55.050781 C 26.65755,55.11068 26.833331,55.154951 27.085938,55.183594 L 27.332031,55.21875 C 28.048174,55.309898 28.529944,55.459638 28.777344,55.667969 C 29.024735,55.876304 29.148433,56.203127 29.148438,56.648438 C 29.148433,57.114584 28.976558,57.464844 28.632812,57.699219 C 28.289059,57.933594 27.776039,58.050781 27.09375,58.050781 C 26.804685,58.050781 26.505207,58.027344 26.195312,57.980469 C 25.88802,57.936198 25.571614,57.86849 25.246094,57.777344 L 25.246094,56.714844 C 25.524739,56.850262 25.809895,56.951824 26.101562,57.019531 C 26.395832,57.08724 26.694008,57.121095 26.996094,57.121094 C 27.269529,57.121095 27.475258,57.083334 27.613281,57.007812 C 27.751299,56.932293 27.820309,56.820314 27.820312,56.671875 C 27.820309,56.546876 27.772132,56.454429 27.675781,56.394531 C 27.582028,56.332033 27.393227,56.283856 27.109375,56.25 L 26.863281,56.21875 C 26.240884,56.140627 25.804686,55.996096 25.554688,55.785156 C 25.304687,55.574221 25.179687,55.253909 25.179688,54.824219 C 25.179687,54.360681 25.338541,54.016931 25.65625,53.792969 C 25.973957,53.569015 26.460936,53.457036 27.117188,53.457031 C 27.374997,53.457036 27.64583,53.476567 27.929688,53.515625 C 28.213538,53.554692 28.522132,53.61589 28.855469,53.699219 M 33.605469,53.699219 L 33.605469,54.761719 C 33.305986,54.636722 33.016924,54.542972 32.738281,54.480469 C 32.459632,54.417972 32.196612,54.386722 31.949219,54.386719 C 31.683592,54.386722 31.485675,54.420576 31.355469,54.488281 C 31.227863,54.553389 31.164061,54.654951 31.164062,54.792969 C 31.164061,54.904951 31.212238,54.990888 31.308594,55.050781 C 31.40755,55.11068 31.583331,55.154951 31.835938,55.183594 L 32.082031,55.21875 C 32.798174,55.309898 33.279944,55.459638 33.527344,55.667969 C 33.774735,55.876304 33.898433,56.203127 33.898438,56.648438 C 33.898433,57.114584 33.726558,57.464844 33.382812,57.699219 C 33.039059,57.933594 32.526039,58.050781 31.84375,58.050781 C 31.554685,58.050781 31.255207,58.027344 30.945312,57.980469 C 30.63802,57.936198 30.321614,57.86849 29.996094,57.777344 L 29.996094,56.714844 C 30.274739,56.850262 30.559895,56.951824 30.851562,57.019531 C 31.145832,57.08724 31.444008,57.121095 31.746094,57.121094 C 32.019529,57.121095 32.225258,57.083334 32.363281,57.007812 C 32.501299,56.932293 32.570309,56.820314 32.570312,56.671875 C 32.570309,56.546876 32.522132,56.454429 32.425781,56.394531 C 32.332028,56.332033 32.143227,56.283856 31.859375,56.25 L 31.613281,56.21875 C 30.990884,56.140627 30.554686,55.996096 30.304688,55.785156 C 30.054687,55.574221 29.929687,55.253909 29.929688,54.824219 C 29.929687,54.360681 30.088541,54.016931 30.40625,53.792969 C 30.723957,53.569015 31.210936,53.457036 31.867188,53.457031 C 32.124997,53.457036 32.39583,53.476567 32.679688,53.515625 C 32.963538,53.554692 33.272132,53.61589 33.605469,53.699219 M 41.839844,52.289062 L 41.839844,53.523438 C 41.519527,53.380213 41.207027,53.27214 40.902344,53.199219 C 40.597653,53.126307 40.309893,53.089849 40.039062,53.089844 C 39.679685,53.089849 39.41406,53.139328 39.242188,53.238281 C 39.07031,53.337244 38.984373,53.49089 38.984375,53.699219 C 38.984373,53.855473 39.041665,53.977869 39.15625,54.066406 C 39.273435,54.152348 39.484373,54.226566 39.789062,54.289062 L 40.429688,54.417969 C 41.078121,54.54818 41.539058,54.746097 41.8125,55.011719 C 42.085932,55.277346 42.222651,55.65495 42.222656,56.144531 C 42.222651,56.787762 42.031245,57.266928 41.648438,57.582031 C 41.268225,57.894531 40.686194,58.050781 39.902344,58.050781 C 39.53255,58.050781 39.161456,58.015625 38.789062,57.945312 C 38.416665,57.875 38.04427,57.770834 37.671875,57.632812 L 37.671875,56.363281 C 38.04427,56.561199 38.403644,56.710939 38.75,56.8125 C 39.098956,56.911459 39.434893,56.960938 39.757812,56.960938 C 40.085934,56.960938 40.337236,56.906251 40.511719,56.796875 C 40.686194,56.687501 40.773434,56.531251 40.773438,56.328125 C 40.773434,56.145835 40.713538,56.00521 40.59375,55.90625 C 40.476559,55.807294 40.240882,55.718752 39.886719,55.640625 L 39.304688,55.511719 C 38.721352,55.386721 38.29427,55.187503 38.023438,54.914062 C 37.755208,54.640628 37.621093,54.272139 37.621094,53.808594 C 37.621093,53.227869 37.808593,52.781255 38.183594,52.46875 C 38.558592,52.156256 39.097654,52.000006 39.800781,52 C 40.121091,52.000006 40.450517,52.024745 40.789062,52.074219 C 41.1276,52.1211 41.47786,52.192714 41.839844,52.289062 M 45.027344,52.320312 L 45.027344,53.5625 L 46.46875,53.5625 L 46.46875,54.5625 L 45.027344,54.5625 L 45.027344,56.417969 C 45.027342,56.621095 45.067706,56.759116 45.148438,56.832031 C 45.229164,56.902345 45.38932,56.937501 45.628906,56.9375 L 46.347656,56.9375 L 46.347656,57.9375 L 45.148438,57.9375 C 44.596352,57.9375 44.204426,57.822917 43.972656,57.59375 C 43.743489,57.36198 43.628905,56.970053 43.628906,56.417969 L 43.628906,54.5625 L 42.933594,54.5625 L 42.933594,53.5625 L 43.628906,53.5625 L 43.628906,52.320312 L 45.027344,52.320312 M 49.410156,54.457031 C 49.100258,54.457035 48.863279,54.569014 48.699219,54.792969 C 48.537759,55.014326 48.457029,55.334638 48.457031,55.753906 C 48.457029,56.173179 48.537759,56.494793 48.699219,56.71875 C 48.863279,56.940105 49.100258,57.050782 49.410156,57.050781 C 49.714841,57.050782 49.947913,56.940105 50.109375,56.71875 C 50.27083,56.494793 50.351559,56.173179 50.351562,55.753906 C 50.351559,55.334638 50.27083,55.014326 50.109375,54.792969 C 49.947913,54.569014 49.714841,54.457035 49.410156,54.457031 M 49.410156,53.457031 C 50.162757,53.457036 50.749996,53.660161 51.171875,54.066406 C 51.596349,54.47266 51.808589,55.035159 51.808594,55.753906 C 51.808589,56.472658 51.596349,57.035157 51.171875,57.441406 C 50.749996,57.847656 50.162757,58.050781 49.410156,58.050781 C 48.654946,58.050781 48.063801,57.847656 47.636719,57.441406 C 47.212239,57.035157 47,56.472658 47,55.753906 C 47,55.035159 47.212239,54.47266 47.636719,54.066406 C 48.063801,53.660161 48.654946,53.457036 49.410156,53.457031 M 54.226562,57.304688 L 54.226562,59.601562 L 52.828125,59.601562 L 52.828125,53.5625 L 54.226562,53.5625 L 54.226562,54.203125 C 54.419269,53.947921 54.63281,53.760421 54.867188,53.640625 C 55.10156,53.518234 55.371091,53.457036 55.675781,53.457031 C 56.21484,53.457036 56.657548,53.671879 57.003906,54.101562 C 57.350255,54.528649 57.523432,55.07943 57.523438,55.753906 C 57.523432,56.428387 57.350255,56.98047 57.003906,57.410156 C 56.657548,57.83724 56.21484,58.050781 55.675781,58.050781 C 55.371091,58.050781 55.10156,57.990885 54.867188,57.871094 C 54.63281,57.748698 54.419269,57.559896 54.226562,57.304688 M 55.15625,54.472656 C 54.856768,54.47266 54.6263,54.583337 54.464844,54.804688 C 54.305987,55.02344 54.22656,55.339846 54.226562,55.753906 C 54.22656,56.167971 54.305987,56.485679 54.464844,56.707031 C 54.6263,56.925782 54.856768,57.035157 55.15625,57.035156 C 55.455726,57.035157 55.68359,56.925782 55.839844,56.707031 C 55.998694,56.488283 56.078121,56.170575 56.078125,55.753906 C 56.078121,55.337242 55.998694,55.019534 55.839844,54.800781 C 55.68359,54.582035 55.455726,54.47266 55.15625,54.472656"
       id="text2219" />
  </g>
  <g
     inkscape:groupmode="layer"
     id="layer2"
     inkscape:label="lights"
     sodipodi:insensitive="true">
    <path
       sodipodi:type="arc"
       style="opacity:0.75;fill:url(#radialGradient2190);fill-opacity:1;stroke:none;stroke-width:1.06165099;stroke-linecap:round;stroke-linejoin:miter;stroke-miterlimit:4;stroke-dasharray:none;stroke-dashoffset:0;stroke-opacity:1"
       id="path2182"
       sodipodi:cx="23.821341"
       sodipodi:cy="23.821341"
       sodipodi:rx="20.724566"
       sodipodi:ry="20.724566"
       d="M 44.545906 23.821341 A 20.724566 20.724566 0 1 1  3.0967751,23.821341 A 20.724566 20.724566 0 1 1  44.545906 23.821341 z"
       transform="matrix(0.965038,0,0,0.965038,1.01149,1.011484)" />
    <path
       sodipodi:type="arc"
       style="opacity:0.75;fill:url(#radialGradient2194);fill-opacity:1;stroke:none;stroke-width:1.06165099;stroke-linecap:round;stroke-linejoin:miter;stroke-miterlimit:4;stroke-dasharray:none;stroke-dashoffset:0;stroke-opacity:1"
       id="path2192"
       sodipodi:cx="23.821341"
       sodipodi:cy="23.821341"
       sodipodi:rx="20.724566"
       sodipodi:ry="20.724566"
       d="M 44.545906 23.821341 A 20.724566 20.724566 0 1 1  3.0967751,23.821341 A 20.724566 20.724566 0 1 1  44.545906 23.821341 z"
       transform="matrix(0.965038,0,0,0.965038,1.01149,1.011484)" />
    <path
       sodipodi:type="arc"
       style="opacity:0.75;fill:url(#radialGradient2210);fill-opacity:1;stroke:none;stroke-width:1.06165099;stroke-linecap:round;stroke-linejoin:miter;stroke-miterlimit:4;stroke-dasharray:none;stroke-dashoffset:0;stroke-opacity:1"
       id="path2202"
       sodipodi:cx="23.821341"
       sodipodi:cy="23.821341"
       sodipodi:rx="20.724566"
       sodipodi:ry="20.724566"
       d="M 44.545906 23.821341 A 20.724566 20.724566 0 1 1  3.0967751,23.821341 A 20.724566 20.724566 0 1 1  44.545906 23.821341 z"
       transform="matrix(0.965038,0,0,0.965038,1.01149,1.011484)" />
    <path
       sodipodi:type="arc"
       style="opacity:1;fill:none;fill-opacity:1;stroke:#ffffff;stroke-width:1.06180155;stroke-linecap:round;stroke-linejoin:miter;stroke-miterlimit:4;stroke-dasharray:none;stroke-dashoffset:0;stroke-opacity:0.63948502"
       id="path2233"
       sodipodi:cx="23.821341"
       sodipodi:cy="23.821341"
       sodipodi:rx="20.724566"
       sodipodi:ry="20.724566"
       d="M 44.545906 23.821341 A 20.724566 20.724566 0 1 1  3.0967751,23.821341 A 20.724566 20.724566 0 1 1  44.545906 23.821341 z"
       transform="matrix(0.941793,0,0,0.941798,1.571204,1.571072)" />
  </g>
</svg>
