<?xml version="1.0" encoding="UTF-8" standalone="no"?>
<!-- Created with Inkscape (http://www.inkscape.org/) -->
<svg
   xmlns:dc="http://purl.org/dc/elements/1.1/"
   xmlns:cc="http://web.resource.org/cc/"
   xmlns:rdf="http://www.w3.org/1999/02/22-rdf-syntax-ns#"
   xmlns:svg="http://www.w3.org/2000/svg"
   xmlns="http://www.w3.org/2000/svg"
   xmlns:xlink="http://www.w3.org/1999/xlink"
   xmlns:sodipodi="http://inkscape.sourceforge.net/DTD/sodipodi-0.dtd"
   xmlns:inkscape="http://www.inkscape.org/namespaces/inkscape"
   width="128.00000px"
   height="128.00000px"
   id="svg2"
   sodipodi:version="0.32"
   inkscape:version="0.42.2"
   sodipodi:docbase="/home/silvestre/Desktop/Nuovo!/scalable/stock"
   sodipodi:docname="gtk-preferences.svg">
  <defs
     id="defs4">
    <linearGradient
       inkscape:collect="always"
       id="linearGradient4053">
      <stop
         style="stop-color:#ffffff;stop-opacity:1;"
         offset="0"
         id="stop4055" />
      <stop
         style="stop-color:#ffffff;stop-opacity:0;"
         offset="1"
         id="stop4057" />
    </linearGradient>
    <linearGradient
       inkscape:collect="always"
       id="linearGradient4995">
      <stop
         style="stop-color:#cdcdcd;stop-opacity:1.0000000"
         offset="0"
         id="stop4997" />
      <stop
         style="stop-color:#b0b0b0;stop-opacity:1.0000000"
         offset="1"
         id="stop4999" />
    </linearGradient>
    <linearGradient
       inkscape:collect="always"
       id="linearGradient4987">
      <stop
         style="stop-color:#66a1bc;stop-opacity:1.0000000"
         offset="0"
         id="stop4989" />
      <stop
         style="stop-color:#4b7f96;stop-opacity:1.0000000"
         offset="1"
         id="stop4991" />
    </linearGradient>
    <linearGradient
       inkscape:collect="always"
       id="linearGradient3509">
      <stop
         style="stop-color:#c2c2c2;stop-opacity:1.0000000"
         offset="0"
         id="stop3511" />
      <stop
         style="stop-color:#939393;stop-opacity:1.0000000"
         offset="1"
         id="stop3513" />
    </linearGradient>
    <linearGradient
       inkscape:collect="always"
       id="linearGradient3501">
      <stop
         style="stop-color:#ffffff;stop-opacity:1;"
         offset="0"
         id="stop3503" />
      <stop
         style="stop-color:#ffffff;stop-opacity:0;"
         offset="1"
         id="stop3505" />
    </linearGradient>
    <linearGradient
       inkscape:collect="always"
       xlink:href="#linearGradient3509"
       id="linearGradient3521"
       gradientUnits="userSpaceOnUse"
       x1="75.212936"
       y1="58.307278"
       x2="111.09434"
       y2="84.528305" />
    <linearGradient
       inkscape:collect="always"
       xlink:href="#linearGradient3501"
       id="linearGradient3523"
       gradientUnits="userSpaceOnUse"
       x1="66.061050"
       y1="42.834541"
       x2="71.583138"
       y2="41.799503" />
    <linearGradient
       inkscape:collect="always"
       xlink:href="#linearGradient4995"
       id="linearGradient5007"
       gradientUnits="userSpaceOnUse"
       x1="-50.500015"
       y1="39.353680"
       x2="-41.321972"
       y2="39.353680" />
    <linearGradient
       inkscape:collect="always"
       xlink:href="#linearGradient4987"
       id="linearGradient5009"
       gradientUnits="userSpaceOnUse"
       x1="-55.262047"
       y1="114.88949"
       x2="-33.711666"
       y2="114.88949" />
    <linearGradient
       inkscape:collect="always"
       xlink:href="#linearGradient4053"
       id="linearGradient4059"
       x1="-64.361061"
       y1="113.35352"
       x2="-41.967621"
       y2="113.35355"
       gradientUnits="userSpaceOnUse" />
  </defs>
  <sodipodi:namedview
     id="base"
     pagecolor="#ffffff"
     bordercolor="#666666"
     borderopacity="1.0"
     inkscape:pageopacity="0.0"
     inkscape:pageshadow="2"
     inkscape:zoom="0.51237620"
     inkscape:cx="431.48836"
     inkscape:cy="104.85931"
     inkscape:document-units="px"
     inkscape:current-layer="g5003"
     inkscape:window-width="772"
     inkscape:window-height="543"
     inkscape:window-x="123"
     inkscape:window-y="82" />
  <metadata
     id="metadata7">
    <rdf:RDF>
      <cc:Work
         rdf:about="">
        <dc:format>image/svg+xml</dc:format>
        <dc:type
           rdf:resource="http://purl.org/dc/dcmitype/StillImage" />
      </cc:Work>
    </rdf:RDF>
  </metadata>
  <g
     inkscape:label="Layer 1"
     inkscape:groupmode="layer"
     id="layer1">
    <g
       id="g3517"
       transform="matrix(0.965926,-0.258819,0.258819,0.965926,-21.37643,23.86531)">
      <path
         id="path1306"
         d="M 62.762314,5.0307452 L 67.388457,26.355960 L 47.988262,37.628837 L 31.935279,23.261755 C 30.539690,29.200645 31.258218,35.651550 34.546919,41.347748 C 39.935880,50.681702 50.458573,55.111569 60.492588,53.286965 L 76.820713,81.568107 C 70.223552,89.345517 68.798585,100.67337 74.187546,110.00733 C 77.563886,115.85532 82.972471,119.79019 89.002788,121.48058 L 84.376645,100.15537 L 103.77684,88.882488 L 119.82982,103.24957 C 121.22541,97.310676 120.50688,90.859773 117.21818,85.163577 C 111.82922,75.829622 101.27946,71.415379 91.245449,73.239982 L 74.917324,44.958840 C 81.514484,37.181431 82.966516,25.837953 77.577556,16.503998 C 74.201218,10.656008 68.792631,6.7211377 62.762314,5.0307452 z "
         style="opacity:1.0000000;color:#000000;fill:url(#linearGradient3521);fill-opacity:1.0000000;fill-rule:nonzero;stroke:#787878;stroke-width:5.0000000;stroke-linecap:round;stroke-linejoin:round;marker:none;marker-start:none;marker-mid:none;marker-end:none;stroke-miterlimit:4.0000000;stroke-dasharray:none;stroke-dashoffset:0.0000000;stroke-opacity:1.0000000;visibility:visible;display:inline;overflow:visible" />
      <path
         sodipodi:nodetypes="ccccsccsccccsccsc"
         id="path2773"
         d="M 66.766787,8.9248964 L 70.669983,27.990427 L 47.851992,41.274982 L 33.282963,28.426631 C 33.208935,34.225358 38.353938,41.356803 40.166422,43.310022 C 46.898699,50.565044 52.535585,51.629558 61.749871,49.954015 L 80.403491,81.535840 C 74.345285,88.677874 73.275240,98.485827 75.545826,104.96814 C 76.766126,108.45199 81.661376,115.65952 85.003394,117.45578 L 80.755184,98.848578 L 104.18160,85.081174 L 117.94728,97.786616 C 119.22885,92.332900 114.48773,86.769807 112.86542,84.105694 C 110.19187,79.715258 97.496929,73.432346 89.990377,76.571656 L 71.610316,45.019428 C 77.668521,37.877394 79.319372,27.901639 76.749055,21.013402 C 75.248143,16.991081 71.959443,12.029753 66.766787,8.9248964 z "
         style="opacity:1.0000000;color:#000000;fill:none;fill-opacity:1.0000000;fill-rule:nonzero;stroke:url(#linearGradient3523);stroke-width:4.0000000;stroke-linecap:round;stroke-linejoin:round;marker:none;marker-start:none;marker-mid:none;marker-end:none;stroke-miterlimit:4.0000000;stroke-dasharray:none;stroke-dashoffset:0.0000000;stroke-opacity:1.0000000;visibility:visible;display:inline;overflow:visible" />
    </g>
    <g
       id="g5003"
       transform="matrix(0.481218,0.481217,-0.481217,0.481218,115.2061,62.14203)">
      <path
         sodipodi:nodetypes="ccccccccccccccc"
         id="rect3525"
         d="M -55.597782,-39.923008 C -56.705782,-39.923008 -57.597782,-39.031008 -57.597782,-37.923008 L -59.066532,-10.681852 C -59.066532,-9.5738520 -58.174532,-8.6818510 -57.066532,-8.6818520 L -51.347782,-6.2667580 L -55.842443,99.156250 C -55.842443,100.26425 -54.950443,101.15625 -53.842443,101.15625 L -39.779943,101.15625 C -38.671943,101.15625 -37.779944,100.26425 -37.779943,99.156250 L -37.972782,-6.2667580 L -31.785282,-8.3368390 C -30.677282,-8.3368390 -29.785282,-9.2288380 -29.785282,-10.336839 L -31.722782,-37.923008 C -31.722782,-39.031008 -32.614782,-39.923008 -33.722782,-39.923008 L -55.597782,-39.923008 z "
         style="color:#000000;fill:url(#linearGradient5007);fill-opacity:1.0000000;fill-rule:nonzero;stroke:#898989;stroke-width:5.0000000;stroke-linecap:round;stroke-linejoin:round;marker:none;marker-start:none;marker-mid:none;marker-end:none;stroke-miterlimit:4.0000000;stroke-dashoffset:0.0000000;stroke-opacity:1.0000000;visibility:visible;display:inline;overflow:visible" />
      <path
         sodipodi:nodetypes="ccccccc"
         id="rect4258"
         d="M -59.482478,76.938010 L -33.671157,76.938010 C -31.455157,76.938010 -29.671157,78.722010 -29.671157,80.938010 L -29.671157,155.05121 C -29.671157,168.32648 -63.482478,168.87799 -63.482478,155.05121 L -63.482478,80.938010 C -63.482478,78.722010 -61.698478,76.938010 -59.482478,76.938010 z "
         style="color:#000000;fill:url(#linearGradient5009);fill-opacity:1.0000000;fill-rule:nonzero;stroke:#477897;stroke-width:5.0000000;stroke-linecap:round;stroke-linejoin:round;marker:none;marker-start:none;marker-mid:none;marker-end:none;stroke-miterlimit:4.0000000;stroke-dashoffset:0.0000000;stroke-opacity:1.0000000;visibility:visible;display:inline;overflow:visible" />
      <path
         sodipodi:nodetypes="ccccccc"
         id="path3323"
         d="M -56.213257,81.980658 L -36.959643,81.980658 C -35.306647,81.980658 -33.975895,83.311410 -33.975895,84.964406 L -33.468941,152.92235 C -33.468941,162.82486 -58.690051,163.23625 -58.690051,152.92235 L -59.197005,84.964406 C -59.197005,83.311410 -57.866253,81.980658 -56.213257,81.980658 z "
         style="color:#000000;fill:none;fill-opacity:1.0;fill-rule:nonzero;stroke:url(#linearGradient4059);stroke-width:4.4082361;stroke-linecap:round;stroke-linejoin:round;marker:none;marker-start:none;marker-mid:none;marker-end:none;stroke-miterlimit:4.0000000;stroke-dashoffset:0.0000000;stroke-opacity:1.0000000;visibility:visible;display:inline;overflow:visible;stroke-dasharray:none" />
    </g>
  </g>
</svg>
