<?xml version="1.0" encoding="UTF-8" standalone="no"?>
<!-- Created with Inkscape (http://www.inkscape.org/) -->
<svg
   xmlns:dc="http://purl.org/dc/elements/1.1/"
   xmlns:cc="http://web.resource.org/cc/"
   xmlns:rdf="http://www.w3.org/1999/02/22-rdf-syntax-ns#"
   xmlns:svg="http://www.w3.org/2000/svg"
   xmlns="http://www.w3.org/2000/svg"
   xmlns:xlink="http://www.w3.org/1999/xlink"
   xmlns:sodipodi="http://inkscape.sourceforge.net/DTD/sodipodi-0.dtd"
   xmlns:inkscape="http://www.inkscape.org/namespaces/inkscape"
   width="128.00000px"
   height="128.00000px"
   id="svg2"
   sodipodi:version="0.32"
   inkscape:version="0.42.2"
   sodipodi:docbase="/home/silvestre/Desktop/Nuovo!/scalable/stock"
   sodipodi:docname="stock_new-dir.svg">
  <defs
     id="defs4">
    <linearGradient
       inkscape:collect="always"
       id="linearGradient2064">
      <stop
         style="stop-color:#ffffff;stop-opacity:1;"
         offset="0"
         id="stop2066" />
      <stop
         style="stop-color:#ffffff;stop-opacity:0;"
         offset="1"
         id="stop2068" />
    </linearGradient>
    <linearGradient
       inkscape:collect="always"
       id="linearGradient3517">
      <stop
         style="stop-color:#ffffff;stop-opacity:1;"
         offset="0"
         id="stop3519" />
      <stop
         style="stop-color:#ffffff;stop-opacity:0;"
         offset="1"
         id="stop3521" />
    </linearGradient>
    <linearGradient
       inkscape:collect="always"
       id="linearGradient7485">
      <stop
         style="stop-color:#000000;stop-opacity:0.44949496"
         offset="0"
         id="stop7487" />
      <stop
         style="stop-color:#000000;stop-opacity:0;"
         offset="1"
         id="stop7489" />
    </linearGradient>
    <linearGradient
       id="linearGradient4280">
      <stop
         id="stop4282"
         offset="0.0000000"
         style="stop-color:#e0ca86;stop-opacity:1.0000000;" />
      <stop
         id="stop4284"
         offset="1.0000000"
         style="stop-color:#c1ae54;stop-opacity:1.0000000" />
    </linearGradient>
    <linearGradient
       id="linearGradient4257">
      <stop
         style="stop-color:#ffffff;stop-opacity:0.35353535;"
         offset="0.0000000"
         id="stop4259" />
      <stop
         style="stop-color:#ffffff;stop-opacity:0;"
         offset="1"
         id="stop4261" />
    </linearGradient>
    <linearGradient
       id="linearGradient3521">
      <stop
         style="stop-color:#f1d990;stop-opacity:1;"
         offset="0"
         id="stop3523" />
      <stop
         style="stop-color:#c1ae54;stop-opacity:1.0000000"
         offset="1.0000000"
         id="stop3525" />
    </linearGradient>
    <linearGradient
       inkscape:collect="always"
       xlink:href="#linearGradient3521"
       id="linearGradient3527"
       x1="59.514832"
       y1="56.582211"
       x2="59.514832"
       y2="119.71968"
       gradientUnits="userSpaceOnUse"
       gradientTransform="matrix(0.940118,0.000000,0.000000,0.940118,7.410739,2.039832)" />
    <linearGradient
       inkscape:collect="always"
       xlink:href="#linearGradient4257"
       id="linearGradient4263"
       x1="52.097038"
       y1="13.800537"
       x2="59.514832"
       y2="91.959572"
       gradientUnits="userSpaceOnUse"
       gradientTransform="matrix(0.866022,0.000000,0.000000,0.940118,14.81093,2.039832)" />
    <linearGradient
       inkscape:collect="always"
       xlink:href="#linearGradient4280"
       id="linearGradient4286"
       gradientUnits="userSpaceOnUse"
       x1="54.161198"
       y1="50.544472"
       x2="66.587608"
       y2="104.02156"
       gradientTransform="matrix(0.940118,0.000000,0.000000,0.940118,7.410739,2.039832)" />
    <linearGradient
       inkscape:collect="always"
       xlink:href="#linearGradient7485"
       id="linearGradient7491"
       x1="101.48793"
       y1="130.68358"
       x2="108.07488"
       y2="51.152168"
       gradientUnits="userSpaceOnUse" />
    <linearGradient
       inkscape:collect="always"
       xlink:href="#linearGradient3517"
       id="linearGradient3523"
       x1="31.227055"
       y1="42.369560"
       x2="42.449276"
       y2="73.108688"
       gradientUnits="userSpaceOnUse" />
    <linearGradient
       inkscape:collect="always"
       xlink:href="#linearGradient3521"
       id="linearGradient1336"
       gradientUnits="userSpaceOnUse"
       gradientTransform="matrix(0.885401,0.000000,0.000000,0.875142,10.52334,8.125230)"
       x1="59.514832"
       y1="56.582211"
       x2="59.514832"
       y2="119.71968" />
    <linearGradient
       inkscape:collect="always"
       xlink:href="#linearGradient2064"
       id="linearGradient2070"
       x1="24.884060"
       y1="66.033813"
       x2="41.473434"
       y2="98.724632"
       gradientUnits="userSpaceOnUse" />
    <radialGradient
       r="40.492253"
       fy="17.281309"
       fx="85.914177"
       cy="17.281309"
       cx="85.914177"
       gradientTransform="matrix(0.461708,2.513830e-17,-2.513830e-17,0.461708,46.24694,9.302395)"
       gradientUnits="userSpaceOnUse"
       id="radialGradient2079"
       xlink:href="#linearGradient2055"
       inkscape:collect="always" />
    <radialGradient
       r="24.152176"
       fy="17.485498"
       fx="-25.128021"
       cy="17.485498"
       cx="-25.128021"
       gradientUnits="userSpaceOnUse"
       id="radialGradient2077"
       xlink:href="#linearGradient2065"
       inkscape:collect="always" />
    <linearGradient
       id="linearGradient2055"
       inkscape:collect="always">
      <stop
         id="stop2057"
         offset="0"
         style="stop-color:#e6d618;stop-opacity:1.0000000" />
      <stop
         id="stop2059"
         offset="1"
         style="stop-color:#d0c429;stop-opacity:1.0000000" />
    </linearGradient>
    <linearGradient
       id="linearGradient2065"
       inkscape:collect="always">
      <stop
         id="stop2067"
         offset="0"
         style="stop-color:#e6d618;stop-opacity:1;" />
      <stop
         id="stop2069"
         offset="1"
         style="stop-color:#e6d618;stop-opacity:0;" />
    </linearGradient>
  </defs>
  <sodipodi:namedview
     id="base"
     pagecolor="#ffffff"
     bordercolor="#666666"
     borderopacity="1.0"
     inkscape:pageopacity="0.0"
     inkscape:pageshadow="2"
     inkscape:zoom="1.0247524"
     inkscape:cx="9.5570349"
     inkscape:cy="65.847155"
     inkscape:document-units="px"
     inkscape:current-layer="g1393"
     showguides="true"
     inkscape:guide-bbox="true"
     inkscape:window-width="772"
     inkscape:window-height="543"
     inkscape:window-x="107"
     inkscape:window-y="122" />
  <metadata
     id="metadata7">
    <rdf:RDF>
      <cc:Work
         rdf:about="">
        <dc:format>image/svg+xml</dc:format>
        <dc:type
           rdf:resource="http://purl.org/dc/dcmitype/StillImage" />
      </cc:Work>
    </rdf:RDF>
  </metadata>
  <g
     inkscape:label="Layer 1"
     inkscape:groupmode="layer"
     id="layer1">
    <path
       style="fill:url(#linearGradient4286);fill-opacity:1.0000000;stroke:#ad9743;stroke-width:2.2815850;stroke-linecap:round;stroke-linejoin:round;stroke-miterlimit:4.0000000;stroke-opacity:1.0000000"
       d="M 62.231378,35.205999 L 37.582656,36.354144 C 34.979036,36.405595 32.918749,38.539252 32.970201,41.142870 L 33.058337,45.490917 L 28.974699,45.608431 C 23.495503,45.608431 20.866180,48.237755 20.866180,53.716950 L 24.802925,97.520580 C 24.802925,102.99977 27.755412,105.95226 33.234609,105.95226 L 100.89374,116.70487 C 106.37293,116.70487 111.11158,116.49291 113.70641,109.71630 C 114.54385,91.011075 116.67870,67.764901 121.73273,52.627563 C 124.48973,44.877893 120.90859,42.431971 109.26666,42.756323 L 67.108241,43.902092 L 67.020105,39.818453 C 66.968653,37.214834 64.834999,35.154548 62.231378,35.205999 z "
       id="path4265"
       sodipodi:nodetypes="ccccccccccccccc" />
    <path
       style="fill:#f5f5f5;fill-opacity:1.0000000;fill-rule:evenodd;stroke:#d6d6d6;stroke-width:0.94011813px;stroke-linecap:butt;stroke-linejoin:miter;stroke-opacity:1.0000000"
       d="M 30.804698,106.77898 C 31.798559,87.131116 25.717540,69.678904 26.711402,50.031040 C 53.163389,49.342983 92.083927,47.445252 118.53591,46.757194 C 113.28223,64.256638 110.18146,89.973842 109.18760,110.61556 C 82.735613,110.30976 57.256686,107.08478 30.804698,106.77898 z "
       id="path4288"
       sodipodi:nodetypes="ccccc" />
    <path
       style="fill:url(#linearGradient7491);fill-opacity:1.0;stroke:none;stroke-width:2.2815850;stroke-linecap:round;stroke-linejoin:round;stroke-miterlimit:4.0000000;stroke-opacity:1.0000000"
       d="M 20.570009,56.312894 L 96.949175,54.840189 C 102.42838,54.840189 109.52301,55.347856 110.49885,66.926087 C 108.00916,83.065056 106.58474,102.15994 111.56075,111.07717 C 110.87269,113.57478 109.81867,116.94133 104.33948,116.94133 L 34.575467,113.26264 C 29.096270,113.26264 27.979632,110.54053 26.144812,104.83199 C 25.471273,92.974803 20.748264,82.873561 15.391244,67.346733 C 13.439553,61.867537 15.090813,56.312894 20.570009,56.312894 z "
       id="path6029"
       sodipodi:nodetypes="ccccccccc" />
    <path
       style="fill:none;fill-opacity:1.0;stroke:url(#linearGradient3523);stroke-width:2.1688375;stroke-linecap:round;stroke-linejoin:round;stroke-miterlimit:4.0000000;stroke-opacity:1.0000000"
       d="M 60.286198,37.219660 L 39.270617,38.311068 C 36.795658,38.359976 34.837183,40.388196 34.886093,42.863153 L 34.969873,47.686363 L 31.088033,47.798070 C 25.025734,47.920051 23.014265,48.204657 23.136246,54.754879 L 27.122413,96.454888 C 27.122413,101.66332 29.928999,104.46991 35.137435,104.46991 L 99.453106,114.69116 C 104.66153,114.69116 109.16602,114.48968 111.63262,108.04794 C 112.42868,90.267059 114.45803,68.169623 119.26231,53.780315 C 122.22808,44.861044 118.47890,44.778578 107.41227,45.086902 L 64.922065,46.176051 L 64.838284,42.294210 C 64.789375,39.819253 62.761158,37.170751 60.286198,37.219660 z "
       id="path2789"
       sodipodi:nodetypes="ccccccccccccccc" />
    <path
       style="fill:url(#linearGradient3527);fill-opacity:1.0000000;stroke:#ad9743;stroke-width:2.2815850;stroke-linecap:round;stroke-linejoin:round;stroke-miterlimit:4.0000000;stroke-opacity:1.0000000"
       d="M 17.937159,54.849126 L 94.316324,52.400576 C 99.795524,52.400576 106.89016,52.908243 107.86600,64.486474 C 108.54781,81.601288 107.61131,102.64786 110.39167,113.02886 C 109.70361,115.52647 106.20997,117.18529 100.73078,117.18529 L 28.771119,113.26264 C 23.291922,113.26264 20.711516,110.54053 18.144812,104.83199 C 14.055814,93.706687 12.387387,77.239842 11.416606,66.980791 C 11.172645,60.624484 12.457963,54.849126 17.937159,54.849126 z "
       id="rect1308"
       sodipodi:nodetypes="ccccccccc" />
    <path
       style="fill:url(#linearGradient4263);fill-opacity:1.0000000;stroke:none;stroke-width:2.4269130;stroke-linecap:round;stroke-linejoin:round;stroke-miterlimit:4.0000000;stroke-opacity:1.0000000"
       d="M 20.513192,56.878424 C 44.965676,56.089502 68.909788,54.812658 93.362271,54.023736 C 98.409625,54.023736 104.32927,55.752602 104.32927,61.231799 C 103.25395,70.318763 107.57221,80.869495 106.49688,89.956459 C 61.678484,63.973364 26.816663,77.000266 16.657827,90.009224 C 16.657827,90.009224 13.929609,70.642632 14.055666,62.794644 C 14.143324,57.337258 15.465843,56.878424 20.513192,56.878424 z "
       id="path3529"
       sodipodi:nodetypes="ccccccc" />
    <path
       style="fill:url(#linearGradient1336);fill-opacity:1.0;stroke:url(#linearGradient2070);stroke-width:2.1363070;stroke-linecap:round;stroke-linejoin:round;stroke-miterlimit:4.0000000;stroke-opacity:1.0000000"
       d="M 20.193142,57.162644 L 94.566512,54.761345 C 99.726812,54.761345 104.70080,54.380060 105.61984,65.158064 C 106.26197,81.089994 105.25799,102.99957 107.87653,112.66310 C 107.22852,114.98808 103.57227,115.31245 98.411983,115.31245 L 30.640506,111.66091 C 25.480208,111.66091 22.684045,109.73683 20.266728,104.42284 C 16.415717,94.066461 14.966376,78.005833 14.052097,68.455832 C 13.700354,60.587149 13.813038,57.162644 20.193142,57.162644 z "
       id="path1334"
       sodipodi:nodetypes="ccccccccc" />
    <g
       id="g1393"
       inkscape:label="Layer 1"
       transform="translate(223.9350,38.62901)">
      <g
         transform="translate(-170.7729,-32.20290)"
         id="g2073">
        <path
           sodipodi:type="arc"
           style="opacity:1.0000000;color:#000000;fill:url(#radialGradient2077);fill-opacity:1.0000000;fill-rule:evenodd;stroke:none;stroke-width:2.0000000;stroke-linecap:round;stroke-linejoin:round;marker:none;marker-start:none;marker-mid:none;marker-end:none;stroke-miterlimit:4.0000000;stroke-dasharray:none;stroke-dashoffset:0.0000000;stroke-opacity:1.0000000;visibility:visible;display:inline;overflow:visible"
           id="path2063"
           sodipodi:cx="-25.128021"
           sodipodi:cy="17.485498"
           sodipodi:rx="24.152176"
           sodipodi:ry="24.152176"
           d="M -0.97584534 17.485498 A 24.152176 24.152176 0 1 1  -49.280197,17.485498 A 24.152176 24.152176 0 1 1  -0.97584534 17.485498 z"
           transform="translate(57.83606,19.04621)" />
        <path
           sodipodi:type="star"
           style="opacity:1.0000000;color:#000000;fill:url(#radialGradient2079);fill-opacity:1.0000000;fill-rule:evenodd;stroke:#ccb83a;stroke-width:2.0000000;stroke-linecap:round;stroke-linejoin:round;marker:none;marker-start:none;marker-mid:none;marker-end:none;stroke-miterlimit:4.0000000;stroke-dasharray:none;stroke-dashoffset:0.0000000;stroke-opacity:1.0000000;visibility:visible;display:inline;overflow:visible"
           id="path1326"
           sodipodi:sides="7"
           sodipodi:cx="84.898560"
           sodipodi:cy="16.265692"
           sodipodi:r1="40.764187"
           sodipodi:r2="9.1913853"
           sodipodi:arg1="0.78539816"
           sodipodi:arg2="1.2341971"
           inkscape:flatsided="false"
           inkscape:rounded="0.0000000"
           inkscape:randomized="0.0000000"
           d="M 113.72319,45.090325 L 87.934282,24.941287 L 80.334419,56.773562 L 80.008448,24.048260 L 50.382536,37.953547 L 75.764968,17.294801 L 46.421923,2.8021345 L 78.399269,9.7664010 L 71.435002,-22.210945 L 85.927668,7.1321000 L 106.58641,-18.250332 L 92.681128,11.375580 L 125.40643,11.701551 L 93.574155,19.301414 L 113.72319,45.090325 z "
           transform="translate(-53.20613,19.25040)" />
      </g>
    </g>
  </g>
</svg>
