<?xml version="1.0" encoding="UTF-8" standalone="no"?>
<!-- Created with Inkscape (http://www.inkscape.org/) -->
<svg
   xmlns:dc="http://purl.org/dc/elements/1.1/"
   xmlns:cc="http://web.resource.org/cc/"
   xmlns:rdf="http://www.w3.org/1999/02/22-rdf-syntax-ns#"
   xmlns:svg="http://www.w3.org/2000/svg"
   xmlns="http://www.w3.org/2000/svg"
   xmlns:xlink="http://www.w3.org/1999/xlink"
   xmlns:sodipodi="http://inkscape.sourceforge.net/DTD/sodipodi-0.dtd"
   xmlns:inkscape="http://www.inkscape.org/namespaces/inkscape"
   width="128.00000px"
   height="128.00000px"
   id="svg2"
   sodipodi:version="0.32"
   inkscape:version="0.42.2"
   sodipodi:docbase="/home/silvestre/Desktop/Nuovo!/scalable/stock/evolution"
   sodipodi:docname="stock_sent-mail.svg">
  <defs
     id="defs4">
    <linearGradient
       inkscape:collect="always"
       id="linearGradient2064">
      <stop
         style="stop-color:#ffffff;stop-opacity:1;"
         offset="0"
         id="stop2066" />
      <stop
         style="stop-color:#ffffff;stop-opacity:0;"
         offset="1"
         id="stop2068" />
    </linearGradient>
    <linearGradient
       inkscape:collect="always"
       id="linearGradient3517">
      <stop
         style="stop-color:#ffffff;stop-opacity:1;"
         offset="0"
         id="stop3519" />
      <stop
         style="stop-color:#ffffff;stop-opacity:0;"
         offset="1"
         id="stop3521" />
    </linearGradient>
    <linearGradient
       inkscape:collect="always"
       id="linearGradient7485">
      <stop
         style="stop-color:#000000;stop-opacity:0.44949496"
         offset="0"
         id="stop7487" />
      <stop
         style="stop-color:#000000;stop-opacity:0;"
         offset="1"
         id="stop7489" />
    </linearGradient>
    <linearGradient
       id="linearGradient4280">
      <stop
         id="stop4282"
         offset="0.0000000"
         style="stop-color:#e0ca86;stop-opacity:1.0000000;" />
      <stop
         id="stop4284"
         offset="1.0000000"
         style="stop-color:#c1ae54;stop-opacity:1.0000000" />
    </linearGradient>
    <linearGradient
       id="linearGradient4257">
      <stop
         style="stop-color:#ffffff;stop-opacity:0.35353535;"
         offset="0.0000000"
         id="stop4259" />
      <stop
         style="stop-color:#ffffff;stop-opacity:0;"
         offset="1"
         id="stop4261" />
    </linearGradient>
    <linearGradient
       id="linearGradient3521">
      <stop
         style="stop-color:#f1d990;stop-opacity:1;"
         offset="0"
         id="stop3523" />
      <stop
         style="stop-color:#c1ae54;stop-opacity:1.0000000"
         offset="1.0000000"
         id="stop3525" />
    </linearGradient>
    <linearGradient
       inkscape:collect="always"
       xlink:href="#linearGradient3521"
       id="linearGradient3527"
       x1="59.514832"
       y1="56.582211"
       x2="59.514832"
       y2="119.71968"
       gradientUnits="userSpaceOnUse"
       gradientTransform="matrix(0.940118,0.000000,0.000000,0.940118,7.410739,2.039832)" />
    <linearGradient
       inkscape:collect="always"
       xlink:href="#linearGradient4257"
       id="linearGradient4263"
       x1="52.097038"
       y1="13.800537"
       x2="59.514832"
       y2="91.959572"
       gradientUnits="userSpaceOnUse"
       gradientTransform="matrix(0.866022,0.000000,0.000000,0.940118,14.81093,2.039832)" />
    <linearGradient
       inkscape:collect="always"
       xlink:href="#linearGradient4280"
       id="linearGradient4286"
       gradientUnits="userSpaceOnUse"
       x1="54.161198"
       y1="50.544472"
       x2="66.587608"
       y2="104.02156"
       gradientTransform="matrix(0.940118,0.000000,0.000000,0.940118,7.410739,2.039832)" />
    <linearGradient
       inkscape:collect="always"
       xlink:href="#linearGradient7485"
       id="linearGradient7491"
       x1="101.48793"
       y1="130.68358"
       x2="108.07488"
       y2="51.152168"
       gradientUnits="userSpaceOnUse" />
    <linearGradient
       inkscape:collect="always"
       xlink:href="#linearGradient3517"
       id="linearGradient3523"
       x1="31.227055"
       y1="42.369560"
       x2="42.449276"
       y2="73.108688"
       gradientUnits="userSpaceOnUse" />
    <linearGradient
       inkscape:collect="always"
       xlink:href="#linearGradient3521"
       id="linearGradient1336"
       gradientUnits="userSpaceOnUse"
       gradientTransform="matrix(0.885401,0.000000,0.000000,0.875142,10.52334,8.125230)"
       x1="59.514832"
       y1="56.582211"
       x2="59.514832"
       y2="119.71968" />
    <linearGradient
       inkscape:collect="always"
       xlink:href="#linearGradient2064"
       id="linearGradient2070"
       x1="24.884060"
       y1="66.033813"
       x2="41.473434"
       y2="98.724632"
       gradientUnits="userSpaceOnUse" />
    <linearGradient
       y2="89.398521"
       x2="53.671501"
       y1="67.904938"
       x1="53.183578"
       gradientTransform="matrix(1.000000,0.000000,0.000000,0.841367,1.235829e-15,3.100619)"
       gradientUnits="userSpaceOnUse"
       id="linearGradient1349"
       xlink:href="#linearGradient2048"
       inkscape:collect="always" />
    <linearGradient
       y2="73.352654"
       x2="77.091789"
       y1="34.315784"
       x1="77.091789"
       gradientTransform="matrix(1.000000,0.000000,0.000000,0.841367,1.235829e-15,3.100619)"
       gradientUnits="userSpaceOnUse"
       id="linearGradient1347"
       xlink:href="#linearGradient2056"
       inkscape:collect="always" />
    <radialGradient
       r="68.309181"
       fy="114.82609"
       fx="64.893723"
       cy="114.82609"
       cx="64.893723"
       gradientTransform="matrix(0.935714,0.000000,0.000000,0.114286,3.195894,102.1910)"
       gradientUnits="userSpaceOnUse"
       id="radialGradient1345"
       xlink:href="#linearGradient2078"
       inkscape:collect="always" />
    <linearGradient
       y2="89.398521"
       x2="53.671501"
       y1="67.904938"
       x1="53.183578"
       gradientTransform="matrix(1.000000,0.000000,0.000000,0.841367,1.861760e-14,3.100619)"
       gradientUnits="userSpaceOnUse"
       id="linearGradient2210"
       xlink:href="#linearGradient2048"
       inkscape:collect="always" />
    <linearGradient
       y2="73.352654"
       x2="77.091789"
       y1="34.315784"
       x1="77.091789"
       gradientTransform="matrix(1.000000,0.000000,0.000000,0.841367,1.861760e-14,3.100619)"
       gradientUnits="userSpaceOnUse"
       id="linearGradient2208"
       xlink:href="#linearGradient2056"
       inkscape:collect="always" />
    <radialGradient
       r="68.309181"
       fy="114.82609"
       fx="64.893723"
       cy="114.82609"
       cx="64.893723"
       gradientTransform="matrix(0.935714,0.000000,0.000000,0.114286,3.195894,102.1910)"
       gradientUnits="userSpaceOnUse"
       id="radialGradient2206"
       xlink:href="#linearGradient2078"
       inkscape:collect="always" />
    <radialGradient
       inkscape:collect="always"
       xlink:href="#linearGradient2968"
       id="radialGradient5062"
       gradientUnits="userSpaceOnUse"
       gradientTransform="matrix(1.000000,0.000000,0.000000,0.139303,3.674837e-14,126.2046)"
       cx="237.54178"
       cy="146.63072"
       fx="237.54178"
       fy="146.63072"
       r="34.673855" />
    <radialGradient
       inkscape:collect="always"
       xlink:href="#linearGradient2944"
       id="radialGradient5064"
       gradientUnits="userSpaceOnUse"
       cx="161.99036"
       cy="125.07246"
       fx="161.99036"
       fy="125.07246"
       r="39.545895" />
    <linearGradient
       inkscape:collect="always"
       xlink:href="#linearGradient2956"
       id="linearGradient5066"
       gradientUnits="userSpaceOnUse"
       x1="233.25127"
       y1="85.716805"
       x2="233.25127"
       y2="116.61456" />
    <linearGradient
       id="linearGradient2048"
       inkscape:collect="always">
      <stop
         id="stop2050"
         offset="0"
         style="stop-color:#d6d6d6;stop-opacity:1;" />
      <stop
         id="stop2052"
         offset="1"
         style="stop-color:#d6d6d6;stop-opacity:0;" />
    </linearGradient>
    <linearGradient
       id="linearGradient2056"
       inkscape:collect="always">
      <stop
         id="stop2058"
         offset="0"
         style="stop-color:#fcfcfc;stop-opacity:1.0000000" />
      <stop
         id="stop2060"
         offset="1"
         style="stop-color:#ebebeb;stop-opacity:1.0000000" />
    </linearGradient>
    <linearGradient
       id="linearGradient2078">
      <stop
         id="stop2080"
         offset="0.0000000"
         style="stop-color:#000000;stop-opacity:0.14000000;" />
      <stop
         id="stop2082"
         offset="1"
         style="stop-color:#000000;stop-opacity:0;" />
    </linearGradient>
    <linearGradient
       id="linearGradient2944">
      <stop
         style="stop-color:#71b6d5;stop-opacity:1.0000000;"
         offset="0.0000000"
         id="stop2946" />
      <stop
         style="stop-color:#429dc7;stop-opacity:1.0000000;"
         offset="1.0000000"
         id="stop2948" />
    </linearGradient>
    <linearGradient
       inkscape:collect="always"
       id="linearGradient2956">
      <stop
         style="stop-color:#ffffff;stop-opacity:0.57575756"
         offset="0"
         id="stop2958" />
      <stop
         style="stop-color:#ffffff;stop-opacity:0;"
         offset="1"
         id="stop2960" />
    </linearGradient>
    <linearGradient
       id="linearGradient2968">
      <stop
         style="stop-color:#000000;stop-opacity:0.20202021;"
         offset="0.0000000"
         id="stop2970" />
      <stop
         style="stop-color:#000000;stop-opacity:0;"
         offset="1"
         id="stop2972" />
    </linearGradient>
  </defs>
  <sodipodi:namedview
     id="base"
     pagecolor="#ffffff"
     bordercolor="#666666"
     borderopacity="1.0"
     inkscape:pageopacity="0.0"
     inkscape:pageshadow="2"
     inkscape:zoom="2.0495048"
     inkscape:cx="146.26043"
     inkscape:cy="49.037649"
     inkscape:document-units="px"
     inkscape:current-layer="g1405"
     showguides="true"
     inkscape:guide-bbox="true"
     inkscape:window-width="772"
     inkscape:window-height="543"
     inkscape:window-x="242"
     inkscape:window-y="153" />
  <metadata
     id="metadata7">
    <rdf:RDF>
      <cc:Work
         rdf:about="">
        <dc:format>image/svg+xml</dc:format>
        <dc:type
           rdf:resource="http://purl.org/dc/dcmitype/StillImage" />
      </cc:Work>
    </rdf:RDF>
  </metadata>
  <g
     inkscape:label="Layer 1"
     inkscape:groupmode="layer"
     id="layer1">
    <path
       style="fill:url(#linearGradient4286);fill-opacity:1.0000000;stroke:#ad9743;stroke-width:2.2815850;stroke-linecap:round;stroke-linejoin:round;stroke-miterlimit:4.0000000;stroke-opacity:1.0000000"
       d="M 62.231378,35.205999 L 37.582656,36.354144 C 34.979036,36.405595 32.918749,38.539252 32.970201,41.142870 L 33.058337,45.490917 L 28.974699,45.608431 C 23.495503,45.608431 20.866180,48.237755 20.866180,53.716950 L 24.802925,97.520580 C 24.802925,102.99977 27.755412,105.95226 33.234609,105.95226 L 100.89374,116.70487 C 106.37293,116.70487 111.11158,116.49291 113.70641,109.71630 C 114.54385,91.011075 116.67870,67.764901 121.73273,52.627563 C 124.48973,44.877893 120.90859,42.431971 109.26666,42.756323 L 67.108241,43.902092 L 67.020105,39.818453 C 66.968653,37.214834 64.834999,35.154548 62.231378,35.205999 z "
       id="path4265"
       sodipodi:nodetypes="ccccccccccccccc" />
    <path
       style="fill:#f5f5f5;fill-opacity:1.0000000;fill-rule:evenodd;stroke:#d6d6d6;stroke-width:0.94011813px;stroke-linecap:butt;stroke-linejoin:miter;stroke-opacity:1.0000000"
       d="M 30.804698,106.77898 C 31.798559,87.131116 25.717540,69.678904 26.711402,50.031040 C 53.163389,49.342983 92.083927,47.445252 118.53591,46.757194 C 113.28223,64.256638 110.18146,89.973842 109.18760,110.61556 C 82.735613,110.30976 57.256686,107.08478 30.804698,106.77898 z "
       id="path4288"
       sodipodi:nodetypes="ccccc" />
    <path
       style="fill:url(#linearGradient7491);fill-opacity:1.0;stroke:none;stroke-width:2.2815850;stroke-linecap:round;stroke-linejoin:round;stroke-miterlimit:4.0000000;stroke-opacity:1.0000000"
       d="M 20.570009,56.312894 L 96.949175,54.840189 C 102.42838,54.840189 109.52301,55.347856 110.49885,66.926087 C 108.00916,83.065056 106.58474,102.15994 111.56075,111.07717 C 110.87269,113.57478 109.81867,116.94133 104.33948,116.94133 L 34.575467,113.26264 C 29.096270,113.26264 27.979632,110.54053 26.144812,104.83199 C 25.471273,92.974803 20.748264,82.873561 15.391244,67.346733 C 13.439553,61.867537 15.090813,56.312894 20.570009,56.312894 z "
       id="path6029"
       sodipodi:nodetypes="ccccccccc" />
    <path
       style="fill:none;fill-opacity:1.0;stroke:url(#linearGradient3523);stroke-width:2.1688375;stroke-linecap:round;stroke-linejoin:round;stroke-miterlimit:4.0000000;stroke-opacity:1.0000000"
       d="M 60.286198,37.219660 L 39.270617,38.311068 C 36.795658,38.359976 34.837183,40.388196 34.886093,42.863153 L 34.969873,47.686363 L 31.088033,47.798070 C 25.025734,47.920051 23.014265,48.204657 23.136246,54.754879 L 27.122413,96.454888 C 27.122413,101.66332 29.928999,104.46991 35.137435,104.46991 L 99.453106,114.69116 C 104.66153,114.69116 109.16602,114.48968 111.63262,108.04794 C 112.42868,90.267059 114.45803,68.169623 119.26231,53.780315 C 122.22808,44.861044 118.47890,44.778578 107.41227,45.086902 L 64.922065,46.176051 L 64.838284,42.294210 C 64.789375,39.819253 62.761158,37.170751 60.286198,37.219660 z "
       id="path2789"
       sodipodi:nodetypes="ccccccccccccccc" />
    <path
       style="fill:url(#linearGradient3527);fill-opacity:1.0000000;stroke:#ad9743;stroke-width:2.2815850;stroke-linecap:round;stroke-linejoin:round;stroke-miterlimit:4.0000000;stroke-opacity:1.0000000"
       d="M 17.937159,54.849126 L 94.316324,52.400576 C 99.795524,52.400576 106.89016,52.908243 107.86600,64.486474 C 108.54781,81.601288 107.61131,102.64786 110.39167,113.02886 C 109.70361,115.52647 106.20997,117.18529 100.73078,117.18529 L 28.771119,113.26264 C 23.291922,113.26264 20.711516,110.54053 18.144812,104.83199 C 14.055814,93.706687 12.387387,77.239842 11.416606,66.980791 C 11.172645,60.624484 12.457963,54.849126 17.937159,54.849126 z "
       id="rect1308"
       sodipodi:nodetypes="ccccccccc" />
    <path
       style="fill:url(#linearGradient4263);fill-opacity:1.0000000;stroke:none;stroke-width:2.4269130;stroke-linecap:round;stroke-linejoin:round;stroke-miterlimit:4.0000000;stroke-opacity:1.0000000"
       d="M 20.513192,56.878424 C 44.965676,56.089502 68.909788,54.812658 93.362271,54.023736 C 98.409625,54.023736 104.32927,55.752602 104.32927,61.231799 C 103.25395,70.318763 107.57221,80.869495 106.49688,89.956459 C 61.678484,63.973364 26.816663,77.000266 16.657827,90.009224 C 16.657827,90.009224 13.929609,70.642632 14.055666,62.794644 C 14.143324,57.337258 15.465843,56.878424 20.513192,56.878424 z "
       id="path3529"
       sodipodi:nodetypes="ccccccc" />
    <path
       style="fill:url(#linearGradient1336);fill-opacity:1.0;stroke:url(#linearGradient2070);stroke-width:2.1363070;stroke-linecap:round;stroke-linejoin:round;stroke-miterlimit:4.0000000;stroke-opacity:1.0000000"
       d="M 20.193142,57.162644 L 94.566512,54.761345 C 99.726812,54.761345 104.70080,54.380060 105.61984,65.158064 C 106.26197,81.089994 105.25799,102.99957 107.87653,112.66310 C 107.22852,114.98808 103.57227,115.31245 98.411983,115.31245 L 30.640506,111.66091 C 25.480208,111.66091 22.684045,109.73683 20.266728,104.42284 C 16.415717,94.066461 14.966376,78.005833 14.052097,68.455832 C 13.700354,60.587149 13.813038,57.162644 20.193142,57.162644 z "
       id="path1334"
       sodipodi:nodetypes="ccccccccc" />
    <g
       id="g1405"
       inkscape:label="Layer 1"
       transform="matrix(0.649724,0.000000,0.000000,0.649724,42.50279,47.17082)">
      <g
         transform="matrix(0.945174,0.000000,0.000000,0.945174,6.398664,6.332054)"
         id="g1333">
        <path
           style="fill:url(#radialGradient1345);fill-opacity:1.0000000;stroke:none;stroke-width:3.0000000;stroke-linecap:round;stroke-linejoin:round;stroke-miterlimit:4.0000000;stroke-opacity:1.0000000"
           d="M 127.83571,115.31401 C 127.83571,119.62334 99.200515,123.12077 63.917859,123.12077 C 28.635202,123.12077 1.0012443e-06,119.62334 1.0012443e-06,115.31401 C 1.0012443e-06,111.00467 28.635202,107.50724 63.917859,107.50724 C 99.200515,107.50724 127.83571,111.00467 127.83571,115.31401 z "
           id="path1335" />
        <g
           id="g1337"
           transform="translate(-0.487923,16.58937)">
          <path
             style="fill:url(#linearGradient1347);fill-opacity:1.0000000;stroke:#b2b2b2;stroke-width:2.7517812;stroke-linecap:round;stroke-linejoin:miter;stroke-miterlimit:4.0000000;stroke-opacity:1.0000000"
             d="M 13.280324,20.807873 L 115.40971,20.807873 C 119.51767,20.807873 122.82480,24.115005 122.82480,28.222967 L 122.82480,87.705179 C 122.82480,91.813141 119.51767,95.120274 115.40971,95.120274 L 13.280324,95.120274 C 9.1723612,95.120274 5.8652291,91.813141 5.8652291,87.705179 L 5.8652291,28.222967 C 5.8652291,24.115005 9.1723612,20.807873 13.280324,20.807873 z "
             id="path1339" />
          <path
             sodipodi:nodetypes="ccsssccsc"
             id="path1341"
             d="M 42.875000,61.470431 C 25.673401,69.206903 8.3387805,83.688120 9.1875000,91.733338 C 12.125695,94.614253 14.028793,94.860714 20.072166,94.860714 C 29.220640,94.860714 54.929687,94.962040 64.078125,94.940123 C 73.226562,94.918213 100.14316,95.164675 109.29163,95.164675 C 115.16250,95.164675 118.35460,93.398840 118.96875,91.470411 C 118.55247,82.137748 100.98606,68.782242 83.562500,61.496724 C 76.046197,65.338887 68.542818,67.912145 62.468750,67.912144 C 56.764629,67.912144 49.834429,65.299807 42.875000,61.470431 z "
             style="fill:url(#linearGradient1349);fill-opacity:1.0000000;fill-rule:evenodd;stroke:#b0b0b0;stroke-width:2.6968606;stroke-linecap:round;stroke-linejoin:round;stroke-miterlimit:4.0000000;stroke-dasharray:none;stroke-opacity:1.0000000" />
          <path
             sodipodi:nodetypes="czc"
             id="path1343"
             d="M 9.1984473,22.077929 C 8.0065174,35.896309 42.677378,67.922218 62.477675,67.922218 C 82.635552,67.922218 118.37915,38.747722 118.97511,22.406940"
             style="fill:none;fill-opacity:0.75000000;fill-rule:evenodd;stroke:#b0b0b0;stroke-width:2.9824622;stroke-linecap:round;stroke-linejoin:round;stroke-miterlimit:4.0000000;stroke-dasharray:none;stroke-opacity:1.0000000" />
        </g>
      </g>
    </g>
  </g>
</svg>
