<?xml version="1.0" encoding="UTF-8" standalone="no"?>
<!-- Created with Inkscape (http://www.inkscape.org/) -->
<svg
   xmlns:dc="http://purl.org/dc/elements/1.1/"
   xmlns:cc="http://web.resource.org/cc/"
   xmlns:rdf="http://www.w3.org/1999/02/22-rdf-syntax-ns#"
   xmlns:svg="http://www.w3.org/2000/svg"
   xmlns="http://www.w3.org/2000/svg"
   xmlns:xlink="http://www.w3.org/1999/xlink"
   xmlns:sodipodi="http://inkscape.sourceforge.net/DTD/sodipodi-0.dtd"
   xmlns:inkscape="http://www.inkscape.org/namespaces/inkscape"
   width="128.00000px"
   height="128.00000px"
   id="svg2"
   sodipodi:version="0.32"
   inkscape:version="0.42.2"
   sodipodi:docbase="/home/silvestre/Desktop/Nuovo!/scalable/stock"
   sodipodi:docname="stock_new-24h-appointment.svg">
  <defs
     id="defs4">
    <linearGradient
       inkscape:collect="always"
       id="linearGradient5203">
      <stop
         style="stop-color:#232323;stop-opacity:1;"
         offset="0"
         id="stop5205" />
      <stop
         style="stop-color:#232323;stop-opacity:0;"
         offset="1"
         id="stop5207" />
    </linearGradient>
    <linearGradient
       inkscape:collect="always"
       id="linearGradient5187">
      <stop
         style="stop-color:#ffffff;stop-opacity:1;"
         offset="0"
         id="stop5189" />
      <stop
         style="stop-color:#ffffff;stop-opacity:0;"
         offset="1"
         id="stop5191" />
    </linearGradient>
    <linearGradient
       inkscape:collect="always"
       id="linearGradient3545">
      <stop
         style="stop-color:#ffffff;stop-opacity:0.78606963"
         offset="0"
         id="stop3547" />
      <stop
         style="stop-color:#ffffff;stop-opacity:0;"
         offset="1"
         id="stop3549" />
    </linearGradient>
    <linearGradient
       inkscape:collect="always"
       id="linearGradient2801">
      <stop
         style="stop-color:#e6e6e6;stop-opacity:0.66666669"
         offset="0"
         id="stop2803" />
      <stop
         style="stop-color:#c5c5c5;stop-opacity:1.0000000"
         offset="1"
         id="stop2805" />
    </linearGradient>
    <linearGradient
       inkscape:collect="always"
       id="linearGradient2793">
      <stop
         style="stop-color:#ffffff;stop-opacity:1;"
         offset="0"
         id="stop2795" />
      <stop
         style="stop-color:#e6e6e6;stop-opacity:0.66666669"
         offset="1"
         id="stop2797" />
    </linearGradient>
    <linearGradient
       inkscape:collect="always"
       id="linearGradient2785">
      <stop
         style="stop-color:#ffffff;stop-opacity:1;"
         offset="0"
         id="stop2787" />
      <stop
         style="stop-color:#ffffff;stop-opacity:0;"
         offset="1"
         id="stop2789" />
    </linearGradient>
    <linearGradient
       id="linearGradient2767">
      <stop
         style="stop-color:#679ac3;stop-opacity:1.0000000;"
         offset="0.0000000"
         id="stop2769" />
      <stop
         style="stop-color:#2a3d50;stop-opacity:1.0000000;"
         offset="1.0000000"
         id="stop2771" />
    </linearGradient>
    <radialGradient
       inkscape:collect="always"
       xlink:href="#linearGradient2767"
       id="radialGradient4310"
       gradientUnits="userSpaceOnUse"
       gradientTransform="matrix(0.993715,0.000000,0.000000,0.993715,-1.522005,0.768540)"
       cx="45.824554"
       cy="49.223606"
       fx="45.824554"
       fy="49.223606"
       r="59.203125" />
    <radialGradient
       inkscape:collect="always"
       xlink:href="#linearGradient2801"
       id="radialGradient4312"
       gradientUnits="userSpaceOnUse"
       cx="48.263313"
       cy="38.400909"
       fx="48.263313"
       fy="38.400909"
       r="57.372093" />
    <linearGradient
       inkscape:collect="always"
       xlink:href="#linearGradient2793"
       id="linearGradient4314"
       gradientUnits="userSpaceOnUse"
       x1="110.54868"
       y1="100.68628"
       x2="48.263313"
       y2="38.400909" />
    <linearGradient
       inkscape:collect="always"
       xlink:href="#linearGradient2785"
       id="linearGradient4316"
       gradientUnits="userSpaceOnUse"
       gradientTransform="translate(-1.927685,0.372093)"
       x1="13.395350"
       y1="10.790698"
       x2="88.186043"
       y2="77.767441" />
    <linearGradient
       inkscape:collect="always"
       xlink:href="#linearGradient3545"
       id="linearGradient4318"
       gradientUnits="userSpaceOnUse"
       x1="61.023254"
       y1="6.2921557"
       x2="61.023254"
       y2="58.084648" />
    <linearGradient
       id="linearGradient2055"
       inkscape:collect="always">
      <stop
         id="stop2057"
         offset="0"
         style="stop-color:#e6d618;stop-opacity:1.0000000" />
      <stop
         id="stop2059"
         offset="1"
         style="stop-color:#d0c429;stop-opacity:1.0000000" />
    </linearGradient>
    <linearGradient
       id="linearGradient2065"
       inkscape:collect="always">
      <stop
         id="stop2067"
         offset="0"
         style="stop-color:#e6d618;stop-opacity:1;" />
      <stop
         id="stop2069"
         offset="1"
         style="stop-color:#e6d618;stop-opacity:0;" />
    </linearGradient>
    <radialGradient
       inkscape:collect="always"
       xlink:href="#linearGradient2065"
       id="radialGradient4450"
       gradientUnits="userSpaceOnUse"
       cx="-25.128021"
       cy="17.485498"
       fx="-25.128021"
       fy="17.485498"
       r="24.152176" />
    <radialGradient
       inkscape:collect="always"
       xlink:href="#linearGradient2055"
       id="radialGradient4452"
       gradientUnits="userSpaceOnUse"
       gradientTransform="matrix(0.461708,2.513830e-17,-2.513830e-17,0.461708,46.24694,9.302395)"
       cx="85.914177"
       cy="17.281309"
       fx="85.914177"
       fy="17.281309"
       r="40.492253" />
    <linearGradient
       inkscape:collect="always"
       xlink:href="#linearGradient5187"
       id="linearGradient5193"
       x1="28.279070"
       y1="68.465111"
       x2="28.279070"
       y2="106.47598"
       gradientUnits="userSpaceOnUse" />
    <linearGradient
       inkscape:collect="always"
       xlink:href="#linearGradient5203"
       id="linearGradient5209"
       x1="15.627907"
       y1="109.58140"
       x2="15.627907"
       y2="117.22970"
       gradientUnits="userSpaceOnUse" />
  </defs>
  <sodipodi:namedview
     id="base"
     pagecolor="#ffffff"
     bordercolor="#666666"
     borderopacity="1.0"
     inkscape:pageopacity="0.0"
     inkscape:pageshadow="2"
     inkscape:zoom="1.9003495"
     inkscape:cx="111.40987"
     inkscape:cy="47.487952"
     inkscape:document-units="px"
     inkscape:current-layer="layer1"
     showguides="true"
     inkscape:guide-bbox="true"
     inkscape:window-width="766"
     inkscape:window-height="512"
     inkscape:window-x="88"
     inkscape:window-y="90" />
  <metadata
     id="metadata7">
    <rdf:RDF>
      <cc:Work
         rdf:about="">
        <dc:format>image/svg+xml</dc:format>
        <dc:type
           rdf:resource="http://purl.org/dc/dcmitype/StillImage" />
      </cc:Work>
    </rdf:RDF>
  </metadata>
  <g
     inkscape:label="Layer 1"
     inkscape:groupmode="layer"
     id="layer1">
    <g
       id="g4303"
       transform="translate(2.232558,0.000000)">
      <path
         id="path1306"
         d="M 62.634815,5.2470930 C 30.508345,5.2470930 4.4160650,31.308123 4.4160650,63.434593 C 4.4160650,95.561063 30.508343,121.65334 62.634815,121.65334 C 94.761285,121.65334 120.82232,95.561064 120.82232,63.434593 C 120.82232,31.308123 94.761284,5.2470930 62.634815,5.2470930 z M 62.634815,12.934593 C 90.523159,12.934593 113.16607,35.546250 113.16607,63.434593 C 113.16607,91.322937 90.523158,113.96584 62.634815,113.96584 C 34.746473,113.96584 12.103565,91.322936 12.103565,63.434593 C 12.103565,35.546250 34.746472,12.934593 62.634815,12.934593 z "
         style="opacity:1.0000000;color:#000000;fill:url(#radialGradient4310);fill-opacity:1.0000000;fill-rule:evenodd;stroke:#1d3558;stroke-width:5.0000000;stroke-linecap:round;stroke-linejoin:round;marker:none;marker-start:none;marker-mid:none;marker-end:none;stroke-miterlimit:4.0000000;stroke-dasharray:none;stroke-dashoffset:0.0000000;stroke-opacity:1.0000000;visibility:visible;display:inline;overflow:visible" />
      <path
         transform="matrix(0.896230,0.000000,0.000000,0.896230,2.437131,7.250309)"
         d="M 123.53488 62.697674 A 56.372093 56.372093 0 1 1  10.790695,62.697674 A 56.372093 56.372093 0 1 1  123.53488 62.697674 z"
         sodipodi:ry="56.372093"
         sodipodi:rx="56.372093"
         sodipodi:cy="62.697674"
         sodipodi:cx="67.162788"
         id="path1308"
         style="opacity:1.0000000;color:#000000;fill:url(#radialGradient4312);fill-opacity:1.0000000;fill-rule:evenodd;stroke:url(#linearGradient4314);stroke-width:2.0000000;stroke-linecap:round;stroke-linejoin:round;marker:none;marker-start:none;marker-mid:none;marker-end:none;stroke-miterlimit:4.0000000;stroke-dasharray:none;stroke-dashoffset:0.0000000;stroke-opacity:1.0000000;visibility:visible;display:inline;overflow:visible"
         sodipodi:type="arc" />
      <path
         id="path3559"
         d="M 57.659884,27.906250 L 57.659884,59.000000 C 56.511299,59.999426 55.753633,61.421569 55.753634,63.062500 C 55.753634,66.070902 58.213983,68.531252 61.222384,68.531250 C 62.297696,68.531250 63.221267,68.132016 64.066134,67.593750 L 101.37864,89.156250 L 103.78489,84.968750 L 66.566134,63.468750 C 66.577191,63.327082 66.659884,63.206991 66.659884,63.062500 C 66.659884,61.412220 65.882341,59.999691 64.722384,59.000000 L 64.722384,27.906250 L 57.659884,27.906250 z "
         style="opacity:1.0000000;color:#000000;fill:#344a69;fill-opacity:1.0000000;fill-rule:evenodd;stroke:#1d3558;stroke-width:3.0000000;stroke-linecap:round;stroke-linejoin:round;marker:none;marker-start:none;marker-mid:none;marker-end:none;stroke-miterlimit:4.0000000;stroke-dasharray:none;stroke-dashoffset:0.0000000;stroke-opacity:1.0000000;visibility:visible;display:inline;overflow:visible" />
      <path
         sodipodi:nodetypes="csssc"
         id="path2775"
         d="M 62.634255,7.3257436 C 31.655143,7.3257436 6.4947150,32.456038 6.4947150,63.435150 C 6.4947150,94.414265 31.655142,119.57470 62.634255,119.57470 C 93.613375,119.57470 118.74368,94.414266 118.74368,63.435150 C 118.74368,32.456038 93.613365,7.3257436 62.634255,7.3257436 z "
         style="opacity:1.0000000;color:#000000;fill:none;fill-opacity:1.0000000;fill-rule:evenodd;stroke:url(#linearGradient4316);stroke-width:3.0392365;stroke-linecap:round;stroke-linejoin:round;marker:none;marker-start:none;marker-mid:none;marker-end:none;stroke-miterlimit:4.0000000;stroke-dasharray:none;stroke-dashoffset:0.0000000;stroke-opacity:1.0000000;visibility:visible;display:inline;overflow:visible" />
      <path
         transform="translate(-4.532336,-3.720930)"
         d="M 103.44186 41.860466 A 36.093021 21.395350 0 1 1  31.255817,41.860466 A 36.093021 21.395350 0 1 1  103.44186 41.860466 z"
         sodipodi:ry="21.395350"
         sodipodi:rx="36.093021"
         sodipodi:cy="41.860466"
         sodipodi:cx="67.348839"
         id="path2809"
         style="opacity:1.0000000;color:#000000;fill:url(#linearGradient4318);fill-opacity:1.0000000;fill-rule:evenodd;stroke:none;stroke-width:3.0000000;stroke-linecap:round;stroke-linejoin:round;marker:none;marker-start:none;marker-mid:none;marker-end:none;stroke-miterlimit:4.0000000;stroke-dasharray:none;stroke-dashoffset:0.0000000;stroke-opacity:1.0000000;visibility:visible;display:inline;overflow:visible"
         sodipodi:type="arc" />
    </g>
    <g
       id="g2073"
       transform="translate(55.26960,3.574310)">
      <path
         transform="translate(57.83606,19.04621)"
         d="M -0.97584534 17.485498 A 24.152176 24.152176 0 1 1  -49.280197,17.485498 A 24.152176 24.152176 0 1 1  -0.97584534 17.485498 z"
         sodipodi:ry="24.152176"
         sodipodi:rx="24.152176"
         sodipodi:cy="17.485498"
         sodipodi:cx="-25.128021"
         id="path2063"
         style="opacity:1.0000000;color:#000000;fill:url(#radialGradient4450);fill-opacity:1.0000000;fill-rule:evenodd;stroke:none;stroke-width:2.0000000;stroke-linecap:round;stroke-linejoin:round;marker:none;marker-start:none;marker-mid:none;marker-end:none;stroke-miterlimit:4.0000000;stroke-dasharray:none;stroke-dashoffset:0.0000000;stroke-opacity:1.0000000;visibility:visible;display:inline;overflow:visible"
         sodipodi:type="arc" />
      <path
         transform="translate(-53.20613,19.25040)"
         d="M 113.72319,45.090325 L 87.934282,24.941287 L 80.334419,56.773562 L 80.008448,24.048260 L 50.382536,37.953547 L 75.764968,17.294801 L 46.421923,2.8021345 L 78.399269,9.7664010 L 71.435002,-22.210945 L 85.927668,7.1321000 L 106.58641,-18.250332 L 92.681128,11.375580 L 125.40643,11.701551 L 93.574155,19.301414 L 113.72319,45.090325 z "
         inkscape:randomized="0.0000000"
         inkscape:rounded="0.0000000"
         inkscape:flatsided="false"
         sodipodi:arg2="1.2341971"
         sodipodi:arg1="0.78539816"
         sodipodi:r2="9.1913853"
         sodipodi:r1="40.764187"
         sodipodi:cy="16.265692"
         sodipodi:cx="84.898560"
         sodipodi:sides="7"
         id="path1326"
         style="opacity:1.0000000;color:#000000;fill:url(#radialGradient4452);fill-opacity:1.0000000;fill-rule:evenodd;stroke:#ccb83a;stroke-width:2.0000000;stroke-linecap:round;stroke-linejoin:round;marker:none;marker-start:none;marker-mid:none;marker-end:none;stroke-miterlimit:4.0000000;stroke-dasharray:none;stroke-dashoffset:0.0000000;stroke-opacity:1.0000000;visibility:visible;display:inline;overflow:visible"
         sodipodi:type="star" />
    </g>
    <path
       style="font-size:58.935284px;font-style:normal;font-variant:normal;font-weight:bold;font-stretch:normal;text-align:start;line-height:125.00000%;writing-mode:lr-tb;text-anchor:start;fill:#232323;fill-opacity:1.0000000;stroke:#000000;stroke-width:4.0000000;stroke-linecap:round;stroke-linejoin:round;stroke-opacity:1.0000000;font-family:Bitstream Vera Sans;stroke-miterlimit:4.0000000;stroke-dasharray:none"
       d="M 20.238450,111.97118 L 39.144940,111.97118 L 39.144940,120.11507 L 7.9218997,120.11507 L 7.9218997,111.97118 L 23.605360,98.129447 C 25.005820,96.863283 26.041790,95.625873 26.713280,94.417215 C 27.384720,93.208608 27.720450,91.952014 27.720470,90.647429 C 27.720450,88.633071 27.039390,87.011968 25.677310,85.784117 C 24.334360,84.556334 22.540590,83.942425 20.296010,83.942389 C 18.569370,83.942425 16.679690,84.316526 14.626940,85.064692 C 12.574170,85.793744 10.377530,86.887268 8.0370097,88.345269 L 8.0370097,78.906415 C 10.531010,78.081517 12.996230,77.458016 15.432700,77.035911 C 17.869130,76.594707 20.257620,76.374084 22.598170,76.374040 C 27.739630,76.374084 31.730040,77.505978 34.569400,79.769725 C 37.427880,82.033553 38.857130,85.189427 38.857170,89.237356 C 38.857130,91.577914 38.252820,93.764963 37.044220,95.798511 C 35.835550,97.812923 33.293590,100.51796 29.418310,103.91362 L 20.238450,111.97118 M 65.936320,86.273326 L 53.792430,104.25895 L 65.936320,104.25895 L 65.936320,86.273326 M 64.094592,77.151019 L 76.411146,77.151019 L 76.411146,104.25895 L 82.540645,104.25895 L 82.540645,112.28773 L 76.411146,112.28773 L 76.411146,120.11507 L 65.936320,120.11507 L 65.936320,112.28773 L 46.885950,112.28773 L 46.885950,102.79132 L 64.094592,77.151019"
       id="text4454" />
    <path
       style="font-size:58.935284px;font-style:normal;font-variant:normal;font-weight:bold;font-stretch:normal;text-align:start;line-height:125.00000%;writing-mode:lr-tb;text-anchor:start;fill:url(#linearGradient5209);fill-opacity:1.0;stroke:url(#linearGradient5193);stroke-width:2.0000000;stroke-linecap:round;stroke-linejoin:round;stroke-miterlimit:4.0000000;stroke-dasharray:none;stroke-opacity:1.0000000;font-family:Bitstream Vera Sans"
       d="M 20.238450,111.97118 L 39.144940,111.97118 L 39.144940,120.11507 L 7.9218997,120.11507 L 7.9218997,111.97118 L 23.605360,98.129447 C 25.005820,96.863283 26.041790,95.625873 26.713280,94.417215 C 27.384720,93.208608 27.720450,91.952014 27.720470,90.647429 C 27.720450,88.633071 27.039390,87.011968 25.677310,85.784117 C 24.334360,84.556334 22.540590,83.942425 20.296010,83.942389 C 18.569370,83.942425 16.679690,84.316526 14.626940,85.064692 C 12.574170,85.793744 10.377530,86.887268 8.0370097,88.345269 L 8.0370097,78.906415 C 10.531010,78.081517 12.996230,77.458016 15.432700,77.035911 C 17.869130,76.594707 20.257620,76.374084 22.598170,76.374040 C 27.739630,76.374084 31.730040,77.505978 34.569400,79.769725 C 37.427880,82.033553 38.857130,85.189427 38.857170,89.237356 C 38.857130,91.577914 38.252820,93.764963 37.044220,95.798511 C 35.835550,97.812923 33.293590,100.51796 29.418310,103.91362 L 20.238450,111.97118 M 65.936320,86.273326 L 53.792430,104.25895 L 65.936320,104.25895 L 65.936320,86.273326 M 64.094592,77.151019 L 76.411146,77.151019 L 76.411146,104.25895 L 82.540645,104.25895 L 82.540645,112.28773 L 76.411146,112.28773 L 76.411146,120.11507 L 65.936320,120.11507 L 65.936320,112.28773 L 46.885950,112.28773 L 46.885950,102.79132 L 64.094592,77.151019"
       id="path5185" />
  </g>
</svg>
